<svg xmlns="http://www.w3.org/2000/svg" width="192" height="192" viewBox="0 0 192 192">
  <g fill="none" fill-rule="evenodd">
    <circle cx="96" cy="96" r="82" fill="#56595B" stroke="#98DC9A" stroke-width="10"/>
    <path fill="#FFF" d="M76.7579541,112.392706 C76.5198541,112.660566 76.2222341,112.615916 75.8650941,112.258776 C75.4781841,111.931396 75.4186641,111.648656 75.6865241,111.410566 C75.9246141,111.142706 76.2222341,111.187346 76.5793741,111.544486 C76.9365241,111.871876 76.9960441,112.154606 76.7579541,112.392706 L76.7579541,112.392706 Z M74.8829541,109.669486 C75.1508041,110.026636 75.1508041,110.309366 74.8829541,110.517706 C74.6448541,110.696276 74.3918841,110.592116 74.1240241,110.205206 C73.8561641,109.818296 73.8561641,109.550446 74.1240241,109.401636 C74.3918841,109.193296 74.6448541,109.282586 74.8829541,109.669486 L74.8829541,109.669486 Z M72.1597341,106.990916 C72.0109241,107.199256 71.8174741,107.229016 71.5793741,107.080206 C71.2817541,106.931396 71.1775941,106.752826 71.2668741,106.544486 C71.3561641,106.395676 71.5496141,106.365916 71.8472341,106.455206 C72.1448541,106.604016 72.2490241,106.782586 72.1597341,106.990916 L72.1597341,106.990916 Z M73.5436641,108.508776 C73.3650941,108.717106 73.1269941,108.672466 72.8293741,108.374846 C72.5615241,108.047466 72.5317541,107.809376 72.7400941,107.660566 C72.9186641,107.481986 73.1567541,107.526636 73.4543741,107.794486 C73.7222341,108.121876 73.7519941,108.359966 73.5436641,108.508776 L73.5436641,108.508776 Z M79.3025941,113.508776 C79.1835441,113.865916 78.9008141,113.955206 78.4543741,113.776636 C77.9484241,113.657586 77.7549741,113.434376 77.8740241,113.106986 C77.9930741,112.779606 78.2758041,112.675446 78.7222341,112.794486 C79.1984241,112.943296 79.3918741,113.181396 79.3025941,113.508776 L79.3025941,113.508776 Z M82.1150941,113.731986 C82.1150941,114.059376 81.8770041,114.223066 81.4008041,114.223066 C80.8948541,114.282586 80.6418741,114.118896 80.6418741,113.731986 C80.6418741,113.404606 80.8799741,113.240916 81.3561641,113.240916 C81.8621141,113.181396 82.1150941,113.345086 82.1150941,113.731986 L82.1150941,113.731986 Z M84.7043741,113.285566 C84.7639041,113.583186 84.5555741,113.791516 84.0793741,113.910566 C83.6031841,114.029606 83.3353341,113.910566 83.2758041,113.553416 C83.2162841,113.196276 83.4246141,112.973066 83.9008041,112.883776 C84.3770041,112.824256 84.6448541,112.958176 84.7043741,113.285566 L84.7043741,113.285566 Z M105.251869,129 C106.352885,129 107.245435,128.103545 107.245435,126.990713 L107.245435,115.957632 C107.245435,112.428716 106.299557,109.845739 104.407763,108.208604 C106.481459,107.990324 108.345933,107.662909 110.001244,107.226336 C111.656568,106.789775 113.366422,106.080366 115.13088,105.098085 C116.895338,104.115816 118.368735,102.906173 119.551095,101.469142 C120.733468,100.03211 121.697535,98.1221647 122.443346,95.7392308 C123.189145,93.3563092 123.562033,90.6187137 123.562033,87.5263589 C123.562033,83.1243084 122.125026,79.3771729 119.250964,76.2848181 C120.597038,72.9741949 120.451525,69.2634253 118.814403,65.1524237 C117.795744,64.8249967 116.322347,65.0250883 114.394176,65.7526983 C112.466016,66.4803083 110.792528,67.2806745 109.373686,68.153809 L107.300002,69.4635046 C103.916611,68.5176018 100.424134,68.0446626 96.8224495,68.0446626 C93.2207774,68.0446626 89.7283006,68.5176018 86.3449091,69.4635046 C85.7628113,69.0633093 84.9897409,68.5721811 84.025649,67.9900955 C83.0615694,67.4080099 81.5427,66.7076834 79.4690162,65.8891282 C77.3953203,65.0705608 75.8309783,64.8249967 74.7759413,65.1524237 C73.1751968,69.2634253 73.0478614,72.9741949 74.3939473,76.2848181 C71.5198852,79.3771729 70.0828664,83.1243084 70.0828664,87.5263589 C70.0828664,90.6187137 70.4557659,93.3472147 71.201565,95.7119473 C71.947364,98.0766799 72.9023491,99.9866379 74.0665203,101.441858 C75.2307037,102.897078 76.6949938,104.115816 78.4594518,105.098085 C80.2239098,106.080366 81.9337763,106.789775 83.5890879,107.226336 C85.2443995,107.662909 87.1088849,107.990324 89.1825686,108.208604 C87.7273486,109.518312 86.8360373,111.39188 86.5086103,113.829381 C85.7446222,114.193186 84.9260671,114.466034 84.0529448,114.647936 C83.1798103,114.829839 82.1429746,114.920796 80.9424131,114.920796 C79.7418639,114.920796 78.5504092,114.529707 77.368049,113.747518 C76.1856766,112.965341 75.1761244,111.828466 74.3393802,110.336867 C73.6481482,109.172684 72.7659314,108.226806 71.6927054,107.499196 C70.6194794,106.771586 69.7190736,106.335024 68.9914635,106.1895 L67.9000485,106.025787 C67.1360567,106.025787 66.6085468,106.107637 66.3175016,106.271351 C66.0264575,106.435064 65.9355075,106.64425 66.044649,106.898921 C66.1537905,107.15358 66.3175003,107.408238 66.5357846,107.662909 C66.7540676,107.917568 66.9905372,108.135848 67.2452068,108.317751 L67.6272008,108.590598 C68.427567,108.954403 69.2188386,109.645635 70.0010157,110.664282 C70.7831929,111.682941 71.3561839,112.61063 71.7199889,113.447387 L72.2656965,114.702503 C72.7386479,116.084967 73.5390018,117.203653 74.6667949,118.058599 C75.7946002,118.913544 77.0133263,119.459242 78.3230341,119.695717 C79.6327297,119.93219 80.8969405,120.05952 82.1156788,120.077711 C83.3344293,120.095901 84.3439815,120.032236 85.1443476,119.886714 L86.3994761,119.668431 C86.3994761,121.050892 86.4085707,122.924464 86.4267597,125.289201 C86.4449487,127.653937 86.4396404,126.993838 86.4396404,126.993838 C86.4475949,128.101811 87.3474234,129 88.4476093,129 L105.251869,129 Z"/>
  </g>
</svg>
