<?xml version="1.0" encoding="UTF-8" standalone="no"?>
<svg
   xmlns:dc="http://purl.org/dc/elements/1.1/"
   xmlns:cc="http://creativecommons.org/ns#"
   xmlns:rdf="http://www.w3.org/1999/02/22-rdf-syntax-ns#"
   xmlns:svg="http://www.w3.org/2000/svg"
   xmlns="http://www.w3.org/2000/svg"
   xmlns:sodipodi="http://sodipodi.sourceforge.net/DTD/sodipodi-0.dtd"
   xmlns:inkscape="http://www.inkscape.org/namespaces/inkscape"
   width="192"
   height="192"
   viewBox="0 0 192 192"
   version="1.1"
   id="svg861"
   sodipodi:docname="libreoffice-writer.svg"
   inkscape:version="0.92.4 (f8dce91, 2019-08-02)">
  <metadata
     id="metadata867">
    <rdf:RDF>
      <cc:Work
         rdf:about="">
        <dc:format>image/svg+xml</dc:format>
        <dc:type
           rdf:resource="http://purl.org/dc/dcmitype/StillImage" />
      </cc:Work>
    </rdf:RDF>
  </metadata>
  <defs
     id="defs865" />
  <sodipodi:namedview
     pagecolor="#ffffff"
     bordercolor="#666666"
     borderopacity="1"
     objecttolerance="10"
     gridtolerance="10"
     guidetolerance="10"
     inkscape:pageopacity="0"
     inkscape:pageshadow="2"
     inkscape:window-width="1920"
     inkscape:window-height="1004"
     id="namedview863"
     showgrid="false"
     inkscape:zoom="2.1067708"
     inkscape:cx="94.034487"
     inkscape:cy="109.12921"
     inkscape:window-x="0"
     inkscape:window-y="0"
     inkscape:window-maximized="1"
     inkscape:current-layer="svg861" />
  <path
     style="fill:#728dbe;fill-opacity:1"
     inkscape:connector-curvature="0"
     id="path855"
     d="m 158.67898,74.011465 c 0,31.620385 0,63.160515 0,94.780895 0,0 -0.0802,0.0803 -0.0802,0.0803 -0.32102,1.28408 -1.20383,2.16688 -2.40765,2.56815 -0.16051,0.0803 -0.32102,0.16051 -0.48153,0.24077 -39.80637,0 -79.612735,0 -119.419104,0 -0.16051,-0.0803 -0.321019,-0.16051 -0.481529,-0.24077 -1.284126,-0.40132 -2.086674,-1.28412 -2.487948,-2.5682 -0.08026,-0.16051 -0.160509,-0.32102 -0.240764,-0.48153 C 33,119.99745 33,71.603822 33,23.210191 c 0.08026,-0.16051 0.240764,-0.401274 0.321019,-0.561783 0.481529,-1.284077 1.364331,-2.086625 2.728662,-2.407644 0.08026,0 0.16051,-0.08025 0.240765,-0.08025 22.712102,0 45.504458,0 68.216564,0 0.16051,0.08025 0.40127,0.160509 0.56178,0.160509 0.72229,0.240764 1.28408,0.722293 1.84586,1.284076 16.69299,16.692994 33.38599,33.385988 50.07898,50.078981 0.80255,0.642039 1.44459,1.364332 1.68535,2.327389 z m -7.38344,90.126115 c 0,-0.24077 0,-0.48153 0,-0.64204 0,-28.81146 0,-57.62293 0,-86.434394 0,-0.481528 -0.16051,-0.802547 -0.48153,-1.123566 -15.89044,-15.890446 -31.86114,-31.861147 -47.75159,-47.751593 -0.40127,-0.401274 -0.8828,-0.642038 -1.44459,-0.642038 -20.06369,0 -40.047129,0 -60.110824,0 -0.160509,0 -0.321019,0 -0.481528,0 -0.16051,0 -0.240765,0.08025 -0.401274,0.08025 0,45.504458 0,91.008916 0,136.513376 36.917197,0 73.754136,0 110.671336,0 z M 122.88535,20.080255 c 10.91465,0 21.90955,0 32.8242,0 0.0803,0.08025 0.24077,0.08025 0.32102,0.160509 1.04332,0.321019 1.84586,0.963058 2.40765,1.926115 0.16051,0.240764 0.24076,0.561783 0.32102,0.802548 0,11.075159 0,22.230573 0,33.305732 -0.0803,0.240765 -0.16051,0.561784 -0.32102,0.802548 -1.04332,2.086624 -3.85223,2.728662 -5.69809,1.203822 -0.24077,-0.240765 -0.48153,-0.481529 -0.7223,-0.722293 -10.27261,-10.272612 -20.46496,-20.545223 -30.73758,-30.73758 -0.16051,-0.16051 -0.32101,-0.321019 -0.56178,-0.561783 -1.84586,-2.086625 -0.8828,-5.37707 1.84586,-6.099363 0.0803,0 0.24076,0 0.32102,-0.08025 z" />
  <path
     style="fill:#9abeff;fill-opacity:1"
     inkscape:connector-curvature="0"
     id="path857"
     d="m 151.29554,164.13758 c -36.9172,0 -73.754139,0 -110.671336,0 0,-45.50446 0,-91.008918 0,-136.513376 0.160509,0 0.240764,-0.08025 0.401274,-0.08025 0.160509,0 0.321019,0 0.481528,0 20.063695,0 40.047134,0 60.110824,0 0.64204,0 1.04332,0.160509 1.44459,0.642038 15.89045,15.890446 31.86115,31.861147 47.83185,47.751593 0.32102,0.321019 0.48153,0.642038 0.48153,1.123566 0,28.811464 0,57.622934 0,86.434394 -0.0803,0.16051 -0.0803,0.40127 -0.0803,0.64204 z" />
  <g
     id="g1663"
     transform="translate(0.20580292)">
    <rect
       width="81"
       height="68.823402"
       x="54.794197"
       y="77.972275"
       rx="6.4285712"
       id="rect1060"
       style="fill:#ffffff;fill-rule:evenodd;stroke-width:0.51782542" />
    <path
       d="m 69.579914,91.970689 c 0,-1.054343 -0.866989,-1.909056 -1.928784,-1.909056 h -2.571004 c -1.06524,0 -1.928783,0.858118 -1.928783,1.909056 v 2.544708 c 0,1.054343 0.866982,1.909056 1.928783,1.909056 h 2.571004 c 1.06524,0 1.928784,-0.858118 1.928784,-1.909056 z m 3.857143,0 c 0,-1.054343 0.868403,-1.909056 1.927163,-1.909056 h 51.43139 c 1.06434,0 1.92716,0.858118 1.92716,1.909056 v 2.544708 c 0,1.054343 -0.8684,1.909056 -1.92716,1.909056 H 75.36422 c -1.064346,0 -1.927163,-0.858118 -1.927163,-1.909056 z m -3.857143,12.089361 c 0,-1.05435 -0.866989,-1.90906 -1.928784,-1.90906 h -2.571004 c -1.06524,0 -1.928783,0.85812 -1.928783,1.90906 v 2.54471 c 0,1.05434 0.866982,1.90905 1.928783,1.90905 h 2.571004 c 1.065234,0 1.928784,-0.85812 1.928784,-1.90905 z m 3.857143,0 c 0,-1.05435 0.868403,-1.90906 1.927163,-1.90906 h 51.43139 c 1.06434,0 1.92716,0.85812 1.92716,1.90906 v 2.54471 c 0,1.05434 -0.8684,1.90905 -1.92716,1.90905 H 75.36422 c -1.064346,0 -1.927163,-0.85812 -1.927163,-1.90905 z m -3.857143,12.72564 c 0,-1.05435 -0.866989,-1.90906 -1.928784,-1.90906 h -2.571004 c -1.06524,0 -1.928783,0.85812 -1.928783,1.90906 v 2.54471 c 0,1.05434 0.866982,1.90905 1.928783,1.90905 h 2.571004 c 1.065234,0 1.928784,-0.85812 1.928784,-1.90905 z m 3.857143,0 c 0,-1.05435 0.868403,-1.90906 1.927163,-1.90906 h 51.43139 c 1.06434,0 1.92716,0.85812 1.92716,1.90906 v 2.54471 c 0,1.05434 -0.8684,1.90905 -1.92716,1.90905 H 75.36422 c -1.064346,0 -1.927163,-0.85812 -1.927163,-1.90905 z m -8.356931,10.81658 c -1.06524,0 -1.928783,0.85812 -1.928783,1.90906 v 2.54471 c 0,1.05434 0.866982,1.90905 1.928783,1.90905 h 2.571004 c 1.065234,0 1.928784,-0.85812 1.928784,-1.90905 v -2.54471 c 0,-1.05434 -0.866989,-1.90906 -1.928784,-1.90906 z m 8.356931,1.90906 c 0,-1.05434 0.868403,-1.90906 1.927163,-1.90906 h 51.43139 c 1.06434,0 1.92716,0.85812 1.92716,1.90906 v 2.54471 c 0,1.05434 -0.86841,1.90905 -1.92716,1.90905 H 75.36422 c -1.064346,0 -1.927163,-0.85812 -1.927163,-1.90905 z"
       id="path1062"
       inkscape:connector-curvature="0"
       style="fill:#b1b5bd;fill-rule:evenodd;stroke-width:0.63956112" />
  </g>
</svg>
