<svg width="192" height="192" version="1.1" viewBox="0 0 192 192" xmlns="http://www.w3.org/2000/svg">
 <path d="m96 183c48.049 0 87-38.951 87-87 0-48.049-38.951-87-87-87-48.049 0-87 38.951-87 87 0 48.049 38.951 87 87 87z" clip-rule="evenodd" fill="#56595B" fill-rule="evenodd"/>
 <path d="m96.5 134c20.711 0 37.5-16.789 37.5-37.5 0-20.711-16.789-37.5-37.5-37.5-20.711 0-37.5 16.789-37.5 37.5 0 20.711 16.789 37.5 37.5 37.5z" clip-rule="evenodd" fill="#fff" fill-rule="evenodd"/>
 <path d="m103.19 94.925c1.305-1.215 2.07-2.925 2.07-4.905 0-4.185-3.42-7.38-8.235-7.38-4.77 0-8.235 3.195-8.235 7.38 0 1.98 0.765 3.69 2.07 4.95-2.295 1.44-3.69 3.825-3.69 6.705 0 4.95 4.14 8.685 9.855 8.685 5.76 0 9.945-3.735 9.945-8.685 0-2.88-1.44-5.265-3.78-6.75zm-6.12-7.155c1.53 0 2.7 1.17 2.7 2.745s-1.17 2.745-2.7 2.745c-1.575 0-2.745-1.17-2.745-2.745s1.17-2.745 2.745-2.745zm-0.045 16.785c-1.845 0-3.195-1.485-3.195-3.42 0-1.89 1.35-3.15 3.195-3.15 1.89 0 3.24 1.26 3.24 3.15 0 1.935-1.35 3.42-3.24 3.42z" fill="#56595B"/>
</svg>
