<svg width="192" height="192" version="1.1" viewBox="0 0 192 192" xmlns="http://www.w3.org/2000/svg">
 <style type="text/css">.st0{fill:#FFFFFF;}</style>
 <rect x="19.5" y="19.5" width="153" height="153" rx="10" style="fill:#56595b"/>
 <path d="m29.5 19.5c-2.5435 0-4.8522 0.94688-6.6133 2.5h146.23c-1.7611-1.5531-4.0698-2.5-6.6133-2.5h-133zm-9.6758 7.5c-0.20484 0.79993-0.32422 1.6345-0.32422 2.5v2.5h153v-2.5c0-0.86554-0.11938-1.7001-0.32422-2.5h-152.35zm-0.32422 10v5h153v-5zm0 10v5h153v-5zm0 10v5h153v-5zm0 10v5h153v-5zm0 10v5h153v-5zm0 10v5h153v-5zm0 10v5h153v-5zm0 10v5h153v-5zm0 10v5h153v-5zm0 10v5h153v-5zm0 10v5h153v-5zm0 10v5h153v-5zm0 10v5h153v-5zm1.0723 10c1.1841 2.3536 3.2631 4.1699 5.8027 5h139.25c2.5396-0.8301 4.6186-2.6464 5.8027-5h-150.86z" style="opacity:.25;paint-order:stroke fill markers"/>
 <path d="m96.071 72.775c-2.034 7.0249-10.211 30.633-10.211 30.633l-3.4516 13.087-1.2944 1.7258 1.0067 0.86292s-0.70501 2.4245-1.2944 5.0336c-0.33488 1.4826-3.1845 6.9768-4.3146 6.6875-0.65088-0.1668-0.1244-0.7458-0.57528-0.9348-0.96573-0.40484-2.3833 3.3524-4.0988 2.7685-0.70453-0.24-0.07228-1.7174-0.50337-1.9056-1.0467-0.45704-1.9982 2.31-2.8764 1.618-1.3814-1.0887 2.6085-4.5204 1.7258-4.9258-1.1759-0.54012-2.5933 5.2146-4.2067 4.3865-1.4723-0.75576 3.0495-8.1182 2.1932-8.3774-1.4182-0.4294-1.6404 1.6144-2.5887 1.1146-1.9121-1.0078-0.72937-3.2239-0.28764-4.746 1.9132-6.5926 5.8474-19.209 7.4786-26.894 0.44957-2.1182 2.6692-5.07 2.8764-5.8246 0.20812-0.7582-1.8696 1.2225-1.8696 1.2225s0.66438-3.8157 1.6539-7.946c0.18184-0.75896 1.3201-1.3099 1.4382-2.2292 0.08468-0.65928-0.71033-1.1001-0.50336-1.6899 1.0067-2.8688 1.3634-4.5792 2.4449-7.8381 0.59885-1.8046 2.248-1.992 3.164-4.746 0.24444-0.73492-1.0726-1.4117-0.86291-2.1573 2.5277-8.9896 5.1775-16.251 5.1775-16.251s1.5078-6.6403 5.0336-6.7594c6.8974-0.2332 8.4436 3.5361 13.231 9.9234 1.4675 1.9578-0.91568 6.3118 0.28764 7.3347 1.0292 0.87492 2.3096-3.355 3.7393-1.7258 2.698 3.0746 6.6156 9.2044 6.6156 9.2044s2.1561 3.7722 2.3504 6.2089c0.2424 3.0393-1.7538 7.7209-2.4362 9.3831-1.1542 2.8115 4.3988-3.0864 5.1194-1.6837 3.854 7.5022 6.0494 16.021 6.328 28.087 0.1418 6.141-0.94028 12.309-2.4449 18.265-4.1523 16.435-16.483 31-17.258 30.633-0.60265-0.2848 1.8388-9.1214 3.7393-12.8 0.30648-0.5932-0.83376-1.2118-0.71909-1.8696 0.23932-1.3728 2.7326-3.164 2.7326-3.164s-1.6288-1.8969-4.162-6.495c-0.47689-0.86564 2.3699-2.913 2.7238-1.9903 0.85757 2.2359 1.395 2.9723 2.0135 4.4584 0.3676 0.88328 0.9877-3.8183-0.0436-4.7809-1.6456-1.536-5.5434-6.6726-6.2844-8.3066-0.33716-0.74352 1.0724-1.7576 1.8696-1.582 3.2972 0.7262 6.9883 5.5257 7.1909 4.6022 0.21668-0.9878-1.7999-1.6012-1.582-2.5887 0.11172-0.50636 1.3347-0.346 1.2944-0.86292-0.10668-1.3686-1.3081-1.758-3.2816-1.98-1.097-0.1236-4.0979-1.6104-4.0531-2.766 0.0443-1.1427 0.98764-2.3312 2.4187-2.2764 1.4632 0.056 4.6764-2.6606 4.6284-3.9078-0.0344-0.89144-1.4191-0.81776-2.4696-1.0314-1.5062-0.3064-4.2183 1.199-5.009-0.1192-1.2042-2.0076 2.509-3.1093 3.3761-4.3248 0.6977-0.978 1.1404-0.96784 1.3699-2.147 0.23972-1.2316-0.467-4.5456-0.78739-3.3325-0.35856 1.3576-2.0038 2.2064-3.2395 1.6067-0.82958-0.40264-0.95708-1.9749-0.43145-2.7326 1.8073-2.6052 3.931-5.7279 3.01-5.7702-0.66977-0.032-3.8613 1.6459-6.1318 2.4464-1.8443 0.65024-0.80354-1.4904-1.3365-1.8537-0.62006-0.4226-1.9283-0.2612-2.0135-1.0067-0.13672-1.1968 5.0536-1.851 4.6022-2.8764-0.48903-1.1108-5.1894 2.2353-6.2772 0.40528-0.93205-1.5681 5.9981-4.8787 5.7353-8.4591-0.0571-0.77832-1.578-1.7957-2.0396-1.1665-2.3407 3.1901-4.2623 6.234-5.3285 5.9125-1.6534-0.49852 1.0641-8.8798 0.88758-10.602-0.14212-1.3863-0.072-2.6866-1.4629-2.7732-1.0351-0.0644-1.4374 1.5926-1.7258 2.5888z" style="fill:#9abeff;stroke-width:4"/>
</svg>
