<svg width="192px" height="192px" version="1.1" viewBox="0 0 192 192" xml:space="preserve" xmlns="http://www.w3.org/2000/svg">

		<path d="m172 162.04c0 6.053-4.906 10.959-10.959 10.959h-131.08c-6.053 0-10.959-4.906-10.959-10.959v-131.08c0-6.053 4.906-10.959 10.959-10.959h131.08c6.053 0 10.959 4.906 10.959 10.959z" style="fill:#f9de90"/>
	<path d="m160.66 143.73c-0.173-20.41-5.016-46.635-10.896-49.401-5.881-2.768-15.048 0.378-17.297-7.75-2.248-8.13-9.513-32.847-19.719-36.999-10.204-4.151-34.246-7.428-48.257 3.468-14.01 10.896-24.387 21.452-28.711 30.1s-0.865 22.314 2.421 27.849c3.286 5.534 0.519 19.24 0.346 26.852-0.167 7.358-1.466 24.152 2.359 35.152h112.94c1.981-3 6.949-12.917 6.81-29.271z" style="fill:#c0605c"/><path d="m90.047 45.684c-9.0374 0.0215-18.551 1.9245-25.557 7.373-14.01 10.895-24.387 21.446-28.711 30.094s-0.86412 22.313 2.4219 27.848c1.031 1.737 1.4663 4.2928 1.5723 7.2168 0.488 0.895 0.91231 1.9511 1.1953 3.1621 1.211 5.188 3.4573 15.395 5.3613 21.967 1.902 6.573 3.2867 7.6094 6.0547 11.068 2.767 3.46 4.3233 3.1125 5.3613 3.9785 1.038 0.86401 2.4219 1.5586 2.4219 1.5586 7.956 3.285 16.95 3.1126 20.928 2.7676 3.979-0.347 6.2292-0.86524 7.7852-0.86524s4.8408-0.17406 7.0898-1.0391c2.249-0.863 3.8055-0.69094 5.1895-1.2109 1.384-0.519 2.7676-0.86328 2.7676-0.86328 8.131-4.843 8.3014-11.588 9.8574-14.355s3.807-7.2662 5.709-15.74c1.903-8.476 3.2872-13.663 4.3242-24.215 1.038-10.55-0.86524-15.739-0.86524-20.582s-0.86487-8.9958-2.4219-18.508c-1.01-6.168-3.9083-11.61-5.8223-14.674-0.641-0.436-1.2939-0.79541-1.9609-1.0664-5.102-2.0755-13.664-3.9356-22.701-3.9141zm45.51 45.361c-2.031 1.703-3.52 3.9298-4.127 6.6348-1.903 8.475 2.7674 13.663 4.1504 13.145 1.383-0.52 8.4761-1.9025 13.664 0.51953 3.665 1.711 7.2413 4.5406 9.0273 6.0566-2.002-11.782-5.0808-21.394-8.5078-23.008-4.31-2.028-10.384-0.89666-14.207-3.3477z" style="fill:#ff877f"/><path d="m69.265 71.406s-21.793 1.297-28.019 7.264-11.155 16.345-6.226 24.646 17.901 14.269 32.688 14.788c14.788 0.519 29.577-7.783 32.429-18.939 2.855-11.155 3.114-29.835-30.872-27.759z" style="fill:#99bef9"/><path d="m100.14 99.165c2.317-9.058 2.924-23.077-15.125-26.917-2.936 0.254-5.77 0.926-8.224 2.185 1.351-0.693 6.468 0.947 7.714 1.46 7.719 3.182 6.814 12.896 2.575 16.873-1.851 1.736-2.161 3.217-4.698 4.317-3.038 1.315-8.592 2.082-14.671 2.082 0 0-15.047-0.52-21.274-1.298-5.939-0.742-13.295-2.901-9.68-13.685-3.646 5.776-5.366 13.017-1.734 19.134 4.929 8.302 17.901 14.269 32.688 14.788 14.788 0.519 29.576-7.783 32.429-18.939z" style="fill:#728cba"/><path d="m59.303 77.616s-7.956 0.865-12.626 4.324c0 0-2.768 1.729-1.902 4.67 0.864 2.94 3.459 2.421 12.28 2.076 8.822-0.346 17.643-0.519 18.334-4.324 0.691-3.806-0.173-9.687-16.086-6.746z" style="fill:#fff"/><path d="m159.69 173c1.345-3 5.48-13.042 5.045-26.75-0.519-16.345-1.815-35.994-4.41-45.854-2.594-9.858-5.707-9.826-12.452-11.123-6.746-1.297-10.031-1.54-11.588-1.799 0 0-1.644-18.931-9.167-31.902-2.804-4.835-5.421-8.404-8.898-10.999-5.854-4.365-12.875-5.956-18.083-6.118-8.302-0.259-16.592-0.115-16.592-0.115s-2.797-0.453-7.771 0.838c-3.749 0.974-8.75 2.871-14.735 7.127-15.567 11.07-18.338 16.952-19.375 23.871 0 0-12.869 8.233-14.686 23.281-0.776 6.44 0.502 10.615 1.926 13.566 1.903 3.941 4.336 5.558 5.078 6.151 0 0 0 13.617-0.519 25.811-0.505 11.843 1.683 30.015 3.235 34.015h9.48c-1.325-4-3.351-12.738-3.896-20.179-0.778-10.636 1.47-31.497 1.729-35.647-0.046 0.736 8.939 3.202 9.67 3.37 13.874 3.187 28.855 1.744 41.438-5.051 3.15-1.701 5.442-4.434 7.466-7.762 2.456-4.04 4.351-8.939 4.806-13.89 0.499-5.417-0.087-11.111-2.845-15.174 0 0-6.228-12.452-22.312-12.971-16.085-0.519-21.533-1.296-26.462 0 0 0 0.778-1.815 4.41-4.669 3.631-2.854 5.708-4.928 11.934-7.783 6.227-2.854 7.783-4.41 19.457-3.892 2.918 0.13 7.086-0.21 9.445 0.094 7.078 0.912 12.239 3.474 16.326 8.728 5.447 7.005 6.745 14.787 7.264 17.123 0.52 2.335 1.988 10.636 2.767 13.491 0.779 2.854 1.816 6.349 1.298 14.649-0.506 8.134 1.226 55.563-0.411 69.563zm-22.158-75.138s2.836 0.522 6.727 0.522c3.892 0 4.057-0.26 6.131 2.075 2.076 2.336 2.417 6.746 2.936 12.195 0.52 5.448 2.073 26.462 1.555 36.061-0.52 9.6-1.038 19.148-2.854 21.223-1.816 2.076-2.596 3.062-5.709 3.062h-9.007s1.742-24.329 1.742-39.375c-1e-3 -15.049-1.224-33.175-1.521-35.763zm-72.679-22.824s11.675-1.038 19.717 0.778c5.909 1.334 14.01 1.297 13.232 16.345-0.778 15.045-14.011 20.754-23.091 22.051-9.08 1.298-27.701-4.082-32.343-7.609-6.485-4.93-6.831-8.216-6.831-12.886 0 0-1.297-7.523 10.896-15.047 1e-3 0 6.746-3.892 18.42-3.632z" style="fill:#56595b"/>
</svg>
