<svg width="192" height="192" fill="none" version="1.1" viewBox="0 0 192 192" xmlns="http://www.w3.org/2000/svg">
 <rect x="20" y="20" width="152" height="152" rx="10" fill="#FF837D"/>
 <mask x="20" y="20" width="152" height="152" mask-type="alpha" maskUnits="userSpaceOnUse">
  <rect x="20" y="20" width="152" height="152" rx="10" fill="#fff"/>
 </mask>
 <path d="m96 108c-39.764 0-72 27.311-72 61 0 0.34198 0.024632 0.67889 0.03125 1.0195 1.6652 1.2394 3.7242 1.9805 5.9688 1.9805h132c2.2446 0 4.3035-0.74103 5.9688-1.9805 0.00662-0.34064 0.03125-0.67755 0.03125-1.0195 0-33.689-32.235-61-72-61z" style="clip-rule:evenodd;fill-rule:evenodd;fill:#e2c8b0"/>
 <g clip-rule="evenodd" fill-rule="evenodd">
  <path d="m115.5 110c11.322 0 20.5-7.835 20.5-17.5s-9.178-17.5-20.5-17.5-20.5 7.835-20.5 17.5 9.178 17.5 20.5 17.5z" fill="#fff"/>
  <path d="m111.5 103c5.799 0 10.5-4.0294 10.5-9s-4.701-9-10.5-9-10.5 4.0294-10.5 9 4.701 9 10.5 9z" fill="#56595B"/>
  <path d="m76.5 110c11.322 0 20.5-7.835 20.5-17.5s-9.1782-17.5-20.5-17.5-20.5 7.835-20.5 17.5 9.1782 17.5 20.5 17.5z" fill="#fff"/>
  <path d="m80.5 103c5.799 0 10.5-4.0294 10.5-9s-4.701-9-10.5-9-10.5 4.0294-10.5 9 4.701 9 10.5 9z" fill="#56595B"/>
  <path d="m95.678 92 17.677 17.678-17.677 11.677-17.678-11.677 17.678-17.678z" fill="#F9DE81"/>
  <path d="m95.678 102.92 17.677 6.76-17.677 11.677-17.678-11.677 17.678-6.76z" fill="#C39A54"/>
  <path d="M53 66L96 80L141 66V80L96 91L53 80V66Z" fill="#56595B"/>
 </g>
</svg>
