<svg width="192" height="192" version="1.1" viewBox="0 0 192 192" xmlns="http://www.w3.org/2000/svg">
 <rect x="20" y="20" width="152" height="152" rx="9.9346" opacity=".63" style="fill:#73ada4;opacity:1"/>
 <rect x="28" y="28" width="136" height="136" style="opacity:.25;paint-order:stroke fill markers"/>
 <path d="m68 36s-12.748 9.1965-20 12c-6.3413 2.4516-20 4-20 4v12l28 16z" style="fill:#73ada4"/>
 <path d="m124 36s12.748 9.1965 20 12c6.3413 2.4516 20 4 20 4v12l-28 16z" style="fill:#73ada4"/>
 <path d="m28 64s4 20 4 44c8 4 12 12 16 20 12-4 20-4 20-4l-8-8-8-20 8-16-32-16zm136 0-32 16 8 16-8 20-8 8s8 0 20 4c4-8 8-16 16-20 0-24 4-44 4-44z" style="fill:#73ada4"/>
 <path d="m80 28s-28 4-28 48c0 14.907 44 12 44 12s44 2.9071 44-12c0-44-28-48-28-48h-16z" style="fill:#96dfd3"/>
 <path d="m52.137 71.086c-0.080738 1.5861-0.13672 3.21-0.13672 4.9141 0 4.0523 3.2648 6.7795 8 8.6152v-8.6152l-7.8633-4.9141zm87.727 0-7.8633 4.9141v8.6152c4.7352-1.8358 8-4.5629 8-8.6152 0-1.704-0.05598-3.3279-0.13672-4.9141z" style="fill:#73ada4"/>
 <path d="m28 60v4s16 8 24 24c-8 4-20 20-20 20s8-8 20-8c3.825 1.774 4.2989 7.7942 4 12 0 4-8 16-8 16s12-12 16-12c0-8-4-16-4-16v-20l-32-20zm136 0-32 20v20s-4 8-4 16c4 0 16 12 16 12s-8-12-8-16c-0.29889-4.2058 0.17501-10.226 4-12 12 0 20 8 20 8s-12-16-20-20c8-16 24-24 24-24v-4z" style="fill:#96dfd3"/>
 <path d="m72 136v16c0 8-4 12-4 12h28 28s-4-4-4-12v-16h-24-24z" style="fill:#96dfd3"/>
 <path d="m72 140v8s4.1276 6.37 12 10.021c6.2607 2.9039 12 1.9785 12 1.9785s5.7393 0.9254 12-1.9785c7.8724-3.6515 12-10.021 12-10.021v-8h-24-24z" style="fill:#73ada4"/>
 <path d="m96 48-24 4s-12 34.211-12 52c0 32 10.486 36.279 24 48 3.1853 2.7626 8 4 12 4 4 0 8.8147-1.2374 12-4 13.514-11.721 24-16 24-48 0-17.789-12-52-12-52l-24-4z" style="fill:#96dfd3"/>
 <path d="m80 28s-28 28-20 76c12-40 20-52 36-52s24 12 36 52c8-48-20-76-20-76h-16z" style="fill:#73ada4"/>
 <path d="m64 68c8-40 16-40 16-40h32s8 0 16 40c0 0-16-24-32-24s-32 24-32 24z" style="fill:#96dfd3"/>
 <path d="m70.295 72s17.705 5.9935 17.705 20c0 7.1257-4 12-16 14.177-4 0.72556-12-2.1767-12-2.1767l2.4265-20z" style="fill:#73ada4"/>
 <path d="m66.518 92s2.8079-4 5.4817-4c5.1847 0 8 4 8 4s-2.6055 4-8 4c-2.7787 0-5.4817-4-5.4817-4z" style="fill:#96dfd3"/>
 <path d="m88 112s-0.11276 10.549 8 10.648c7.5803 0.0925 8-10.648 8-10.648s0 4-8 4-8-4-8-4z" style="fill:#73ada4"/>
 <path d="m88 129.57c-3.0959 0.15388-4 6.4258-4 6.4258s7.9752 1.3379 12 1.3379c4.0248 0 12-1.3379 12-1.3379s-0.69427-6.4817-4-6.4258c-2.7862 0.0472-5.2134 2.4258-8 2.4258s-5.2169-2.5641-8-2.4258z" style="fill:#73ada4"/>
 <path d="m96 140c-2.3375 0-6.8184 1.6387-6.8184 1.6387s4.5238 0.94531 6.8184 0.94531 6.8184-0.94531 6.8184-0.94531-4.4809-1.6387-6.8184-1.6387z" style="fill:#73ada4"/>
 <path d="m96 134.71c-4.0229 0-12 1.2852-12 1.2852s7.9752 1.3379 12 1.3379c4.0248 0 12-1.3379 12-1.3379s-7.9771-1.2852-12-1.2852z" style="opacity:.25"/>
 <path d="m121.7 72s-17.705 5.9935-17.705 20c0 7.1257 4 12 16 14.177 4 0.72556 12-2.1767 12-2.1767l-2.4265-20z" style="fill:#73ada4"/>
 <path d="m125.48 92s-2.8079-4-5.4817-4c-5.1847 0-8 4-8 4s2.6054 4 8 4c2.7787 0 5.4817-4 5.4817-4z" style="fill:#96dfd3"/>
 <path d="m30 20c-5.4535 0-10 4.5465-10 10v132c0 5.4535 4.5465 10 10 10h132c5.4535 0 10-4.5465 10-10v-132c0-5.4535-4.5465-10-10-10zm0 10h132v132h-132z" style="color-rendering:auto;color:#000000;dominant-baseline:auto;fill:#73ada4;font-feature-settings:normal;font-variant-alternates:normal;font-variant-caps:normal;font-variant-ligatures:normal;font-variant-numeric:normal;font-variant-position:normal;image-rendering:auto;isolation:auto;mix-blend-mode:normal;shape-padding:0;shape-rendering:auto;solid-color:#000000;text-decoration-color:#000000;text-decoration-line:none;text-decoration-style:solid;text-indent:0;text-orientation:mixed;text-transform:none;white-space:normal"/>
</svg>
