<svg width="192" height="192" fill="none" version="1.1" viewBox="0 0 192 192" xmlns="http://www.w3.org/2000/svg">
 <rect x="20" y="20" width="152" height="152" rx="10" fill="#fff"/>
 <g clip-rule="evenodd" fill-rule="evenodd">
  <path d="m142.92 109.32-9.826 16.404-8.035-0.161 4.135-6.812-28.588-45.211 7.255-12.167 17.818 24.752-2.169 5.101 4.955-1.7612 14.455 19.855z" fill="#A0A5AF"/>
  <path d="m55.773 109.66 9.8265 16.404 8.0345-0.162-4.1343-6.812 7.7844-12.311h36.577l-8.787-18.652v7.5962h-20.799l13.812-21.843-7.2551-12.167-1.9478 2.7059 1.1069 2.6958h-3.0153l-13.962 19.35 2.1695 5.1009-4.9554-1.7612-14.455 19.856z" fill="#A0A5AF"/>
  <path d="m134.82 127.59 9.899-16.142 9.899 16.142h-19.798z" fill="#98DC9A"/>
  <path d="m44 127.59 9.8988-16.331 9.8987 16.331h-19.798z" fill="#FF837D"/>
  <path d="m89.409 55 9.8987 16.599 9.8992-16.599h-19.798z" fill="#9ABEFF"/>
 </g>
</svg>
