<svg width="192" height="192" version="1.1" viewBox="0 0 192 192" xmlns="http://www.w3.org/2000/svg">
 <style type="text/css">.st0{fill:#FFFFFF;}</style>
 <style type="text/css">.st0{fill:#FFFFFF;}</style>
 <path d="m152.7 32.773c-29.96-0.384-65.212 16.637-83.172 26.594-13.536 7.5042-30.141 20.742-42.055 34.992-5.957 7.1249-10.756 14.488-13.273 21.766s-2.672 14.827 1.3516 21.031c4.2723 6.5875 11.238 9.9358 18.773 10.82 7.0727 0.83016 14.804-0.4034 22.523-2.625-3.5643 2.254-8.9688 5.7734-8.9688 5.7734-2.9521 1.7007-2.2413 6.1479 1.0938 6.8438 0 0 2.9895 0.62256 6.5312 1.039 3.5417 0.41648 7.3172 1.0118 11.016-0.40624 28.142-10.79 54.876-26.735 77.453-47.672 11.396-10.569 15.233-20.819 15.812-29.172 0.0604 0.1324 0.0877 0.1072 0.14844 0.2424 0.72449 1.609 2.4824 2.4847 4.2031 2.0938 2.4572-0.55836 4.0077-2.6081 4.7031-4.3438 0.69544-1.7356 0.91512-3.4834 1.0156-5.2422 0.201-3.5176-0.20784-7.1097-0.45313-9.1406-0.85024-7.0402-4.1231-11.673-7.5078-15.078 1.9066-0.0964 2.9821-0.2476 4.3203-0.2344 2.4007 0.024 9.0469 1.7969 9.0469 1.7969 3.5464 1.0586 6.2853-3.1602 3.875-5.9688 0 0-10.656-12.907-26.438-13.109z" style="color-rendering:auto;color:#000000;dominant-baseline:auto;fill:#56595b;font-feature-settings:normal;font-variant-alternates:normal;font-variant-caps:normal;font-variant-ligatures:normal;font-variant-numeric:normal;font-variant-position:normal;image-rendering:auto;isolation:auto;mix-blend-mode:normal;paint-order:stroke fill markers;shape-padding:0;shape-rendering:auto;solid-color:#000000;text-decoration-color:#000000;text-decoration-line:none;text-decoration-style:solid;text-indent:0;text-orientation:mixed;text-transform:none;white-space:normal"/>
 <path d="m58.796 152.74s57.934-23.943 81.328-51.73c14.916-17.717 12.854-35.574 0.5333-37.331-56.21-8.0138-96.26 45.33-96.26 45.33s7.1185-16.413 24.39-27.444c27.751-17.725 42.883-27.991 69.204-28.552 18.638-0.3972 25.598 17.866 25.598 17.866s-3.9803-22.756-26.932-23.199c-18.502-0.3568-51.463 15.732-51.463 15.732s11.862-10.849 48.464-19.792c12.371-3.0229 32.598-1.2735 32.598-1.2735s-14.886-4.2545-32.064-0.32647c-25.931 5.9297-44 13.614-64.729 26.191-13.186 8.0005-59.71 43.377-45.064 65.329 12.446 18.654 55.9-9.415 64.796-15.732 7.4167-5.2668 18.245-16.825 15.199-22.665-2.6698-5.1184-17.69 0.403-25.332 4.2664-10.725 5.4223-18.399 18.932-18.399 18.932s-2.7579-16.978 32.265-35.464c9.6528-5.095 29.131-10.236 32.531-3.7331 13.679 26.162-66.662 73.595-66.662 73.595z" style="fill:#f8c18c;paint-order:stroke fill markers;stroke-width:3.7081"/>
</svg>
