<svg width="192" height="192" version="1.1" viewBox="0 0 192 192" xmlns="http://www.w3.org/2000/svg">
 <style type="text/css">.st0{fill:#FFFFFF;}</style>
 <circle cx="96" cy="96" r="88" style="fill:#f8c18c;stroke-width:4"/>
 <path d="m47.125 22.906a88 88 0 0 0-27.438 29.414l4.1875 79.273 6.8984 17.547 9.2109 10.07 78.813 12.367 34.023-8.5078a88 88 0 0 0 19.195-22.914z" style="fill:#fff;opacity:.25;stroke-width:4"/>
 <path d="m80.539 150.91-22.164 0.60936-9.1562 9.3594 47.797 6.9141 35.391-1.0156 19.773-3.1484a88 88 0 0 0 8.7109-8.3594l-14.859-4.1562s-15.164 1.6485-26.438 1.8281c-15.476 0.2464-39.055-2.0312-39.055-2.0312z" style="fill:#fcecdc;stroke-width:4"/>
 <path d="m144 121.22 6.1016 15.055s1.7472-0.0452 2.4375 0.40624c3.1164 2.0374 4.6706 5.9143 6.1016 9.3516 1.1192 2.6884 1.8359 8.5469 1.8359 8.5469l-7.3203 5.086-13.023 3.6562-30.102 4.2734-53.086-8.336 28.68-2.4453-1.0156-9.1484-4.0703-8.5469s-11.494-2.002-17.078-3.6563c-6.1932-1.8346-11.851-5.2946-18.102-6.9218-3.6465-0.94932-11.188-1.625-11.188-1.625l-4.2734 5.6953s11.579 2.0696 17.289 3.461c11.654 2.8396 34.578 9.9609 34.578 9.9609l0.20312 6.1016-31.938 4.6797-4.0625 5.8984 60.203 8.9532 32.133-3.6641 11.305-2.2891a88 88 0 0 0 20.477-22.391c-0.86047-2.2262-1.9751-4.8933-3.1016-6.6406-3.4595-5.3663-10.4-12.928-12.812-14.242-2.9984-1.6328-10.172-1.2187-10.172-1.2187z" style="fill:#56595b;stroke-width:4"/>
 <path d="m45.559 160.07-15.254-12.407-1.0169-14.644 11.593-8.9492 19.932 4.8814 19.119-0.61016 28.881-8.1356 35.186 7.322-0.61017 25.83-19.525 16.271-26.441-4.2712-17.085-22.373-3.8644-11.39-15.254 1.2204-1.2203 19.729z" style="fill:#fff;opacity:.25;stroke-width:4"/>
 <path d="m109.02 114.91c-17.746-0.64192-24.29 6.381-27.656 8.3437-6.5419 1.7357-15.798 1.5756-20.141 1.625-2.3707 0.028-6.5837-4.9172-19.727-4.6797-8.2946 0.15-15.258 5.8984-15.258 5.8984s-4.3594 0.59788-4.6719 4.8828c-0.29398 4.0307 3.25 5.086 3.25 5.086s2.0219 26.269 21.766 26.641c20.959 0.394 19.32-27.25 19.32-27.25s1.5049-1.1052 3.8672-1.2266c2.9601-0.152 4.4688 1.0234 4.4688 1.0234s1.2164 10.416 6.3047 19.523c4.696 8.4055 19.371 19.646 37.023 18.711 12.829-0.67976 20.114 0.012 28.469-16.07 5.2457-10.098 4.6797-21.352 4.6797-21.352s2.3927-3.5819 3.0547-5.8984c0.66195-2.3166 2.1144-4.1212 0-6.5078-2.1144-2.3866-11.188-2.8516-11.188-2.8516s-4.3122-4.8404-33.562-5.8984zm8.8359 10.891c18.937 0.3584 20.312 4.8056 22.078 14.734 2.0573 11.564-6.7718 26.379-24.812 25.023-14.336-1.0774-32.44-13.697-32.742-28.07-0.23344-11.087 16.678-11.286 26.234-11.594 3.4745-0.112 6.5369-0.1448 9.2422-0.0936zm-72.695 2.3281c7.3715 0.226 12.018 2.9407 13.219 7.9375 1.7937 7.4626-2.4955 19.377-12.203 19.523-11.191 0.1692-15.589-11.405-14.852-19.93 0.63285-7.3172 8.4109-7.6975 13.836-7.5313z" style="fill:#56595b;stroke-width:4"/>
 <path d="m128.75 135.66c-1.5243-1.4277-4.9383-3.4323-3.661-5.0847 1.3783-1.7831 4.7075 0.85108 6.3051 2.4407 1.4458 1.4386 3.806 4.3915 2.2373 5.6949-1.4758 1.2262-3.4809-1.7392-4.8814-3.0509z" style="fill:#fff;stroke-width:4"/>
</svg>
