<svg width="192" height="192" version="1.1" viewBox="0 0 192 192" xmlns="http://www.w3.org/2000/svg">
 <style type="text/css">.st0{fill:#FFFFFF;}</style>
 <style type="text/css">.st0{fill:#FFFFFF;}</style>
 <path d="m96 9.7031s-3.9354 3.465-3.7266 6.4297c2.5181-0.1928 2.0184 0.75224 2.1406 1.75 0.09552 0.77992-0.43304 1.782-1.2188 1.7891-1.0262 8e-3 -1.9256-0.80388-2.0469-2.2969-1.1596 0.49988-2.0329 1.282-2.0469 1.9141-0.0128 0.57944 0.51562 1.664 0.51562 1.664s-4.9242 2.4728-4.3516 8.3047c-0.34308 0.2832-0.84822 0.52148-1.2734 0.3908-0.63972-3.4094-3.3281-4.0938-3.3281-4.0938s0.31068-0.81096 0.23436-1.2812c-0.13516-0.8328-0.54806-1.6666-1.3828-1.7891-0.6225-0.0912-0.81066 0.99064-1.6641 0.89844-0.6355-0.0688-1.1513-0.59684-1.2578-1.1562-0.15768-0.8282-0.0244-1.6059 0.875-1.9531 0.58638-0.2264 0.59831-0.47688 0.57031-0.80468-0.06212-0.72608-0.49749-0.81048-0.98438-0.75-0.32784 0.0408-0.99219 0.0624-0.99219 0.0624s-0.664-2.277-2.2969-2.0469c-1.5937 0.2248-1.5078 2.8281-1.5078 2.8281s-1.9619 0.64372-1.6641 1.3828c0.29576 0.73376 1.125 0.3904 1.125 0.3904-4e-6 0 0.8139 0.9616 0.76562 1.5313-0.06696 0.7898-0.6416 1.713-1.4063 1.9218-0.31308 0.0856-0.63256 0.02-0.89844-0.3828-0.4535 0.2656-0.97762 0.91788-1.0156 1.5312-0.0236 0.3804 0.50781 1.0234 0.50781 1.0234s-1.4528 1.9-1.7734 4.0078c-0.08552 0.56204 0.10936 1.6172 0.10936 1.6172l-1.5312 0.1248s0.56489-1.6146 0.3828-2.5c-0.10304-0.50108-1.625-2.6094-1.625-2.6094s0.34428-0.52788-0.08592-1.3516c-0.56539-1.0824-0.66515-1.064-1.2109-1.1016-0.71792-0.0496-0.47561 0.64092-1.1406 0.56248-1.0409-0.1228-1.0859-2.8984-1.0859-2.8984s0.97565 0.2928 1.2813-8e-3c0.31784-0.3128 0.21776-0.93856 0.0312-1.3437-0.18988-0.41264-1.0768-1.1763-1.9921-1.4141-0.2994-0.78724-0.51234-1.3201-0.99218-1.6484-0.95968-0.6566-1.2344-0.3828-1.2344-0.3828l7.0312 42.055 30.164 1.9297 30.164-1.9297 7.0312-42.055s-0.27468-0.2736-1.2344 0.3828c-0.47985 0.3284-0.6928 0.8612-0.99219 1.6484-0.91531 0.2376-1.8022 1.0014-1.9922 1.414-0.18652 0.40516-0.2866 1.0309 0.0312 1.3438 0.3056 0.3008 1.2813 8e-3 1.2813 8e-3s-0.045 2.7757-1.0859 2.8984c-0.66502 0.0784-0.4227-0.61192-1.1406-0.56248-0.54578 0.036-0.64555 0.02-1.2109 1.1016-0.43023 0.82368-0.0859 1.3516-0.0859 1.3516s-1.522 2.1083-1.625 2.6094c-0.18208 0.88544 0.3828 2.5 0.3828 2.5l-1.5312-0.1248s0.19488-1.0551 0.10936-1.6172c-0.32068-2.1078-1.7734-4.0078-1.7734-4.0078s0.53149-0.64304 0.50781-1.0234c-0.038-0.61336-0.56212-1.2657-1.0156-1.5312-0.26588 0.40468-0.58537 0.46832-0.89844 0.3828-0.76465-0.2088-1.3393-1.132-1.4062-1.9219-0.0483-0.56964 0.76563-1.5312 0.76562-1.5312 0 0 0.82926 0.3432 1.125-0.3908 0.29788-0.73912-1.6641-1.3828-1.6641-1.3828s0.0858-2.6035-1.5078-2.8281c-1.6329-0.23-2.2969 2.0469-2.2969 2.0469s-0.66436-0.02-0.99218-0.0624c-0.48689-0.0604-0.92224 0.024-0.98438 0.75-0.028 0.328-0.016 0.57836 0.57031 0.80472 0.89945 0.3472 1.0327 1.1249 0.875 1.9531-0.10652 0.5594-0.62231 1.0876-1.2578 1.1562-0.8534 0.0924-1.0416-0.9898-1.6641-0.89844-0.83475 0.1224-1.2477 0.95628-1.3828 1.7891-0.0763 0.47024 0.23436 1.2812 0.23436 1.2812s-2.6884 0.68436-3.3281 4.0938c-0.42521 0.1308-0.93036-0.1076-1.2734-0.3908 0.57266-5.8319-4.3516-8.3047-4.3516-8.3047s0.52836-1.0846 0.51563-1.6641c-0.014-0.63208-0.88728-1.4142-2.0469-1.914-0.12124 1.493-1.0207 2.3061-2.0469 2.2969-0.78571-8e-3 -1.3143-1.0092-1.2188-1.7891 0.1222-0.99776-0.37748-1.9428 2.1406-1.75 0.20893-2.9649-3.7265-6.4299-3.7265-6.4299z" style="fill:#f9de81;stroke-width:4"/>
 <path d="m45.359 52.883c-4.8597 0.50712-12.041 2.2938-12.82 7.1172-0.54364 3.3631 5.5865 4.2698 5.7656 7.6719 0.25738 4.8882-7.1677 6.772-7.5938 11.648-0.25072 2.8694 3.5698 4.943 2.8594 7.7344-0.67265 2.6428-4.1553 2.4266-5.7031 4.6719-2.2211 3.2221-2.7463 7.4786-2.8516 11.391-0.11514 4.2798 2.4453 12.609 2.4453 12.609s-2.1339 1.5488-2.0391 4.2734c0.18792 5.3984 5.9688 10.016 5.9688 10.016s-1.4669-0.2024-3.0234-2.0391c0.03048 3.7236 3.3722 8.8567 3.3594 13.383-0.0066 2.3378-0.59368 4.8674-2.0312 6.711-0.97238 1.247-4.0703 2.4375-4.0703 2.4375s4.4992 1.2453 6.7109 0.81252c1.37-0.26808 3.6641-2.0312 3.6641-2.0312s3.5274 3.2964 3.6641 5.4922c0.16956 2.7235-0.96911 6.8921-3.6641 7.3203-0.83918 0.1332-2.2404-0.60444-3.4609-3.2578-2.2634 5.3971 3.8672 6.1016 3.8672 6.1016l3.2578-0.40624v3.0547l15.047-7.5234 22.781 12.812-10.227-112.14s-14.356-8.6472-21.906-7.8594zm101.28 0c-7.5504-0.78784-21.906 7.8594-21.906 7.8594l-10.227 112.14 22.781-12.812 15.047 7.5234v-3.0547l3.2578 0.40624s6.1305-0.70448 3.8672-6.1016c-1.2205 2.6534-2.6218 3.3912-3.4609 3.2578-2.695-0.4282-3.8336-4.5968-3.6641-7.3203 0.1367-2.1957 3.6641-5.4922 3.6641-5.4922s2.294 1.7632 3.6641 2.0312c2.2117 0.43276 6.7109-0.81252 6.7109-0.81252s-3.0979-1.1905-4.0703-2.4375c-1.4376-1.8435-2.0244-4.3732-2.0312-6.711-0.0128-4.5261 3.329-9.6592 3.3594-13.383-1.5566 1.8368-3.0234 2.0391-3.0234 2.0391s5.7808-4.6172 5.9687-10.016c0.0948-2.7246-2.0391-4.2734-2.0391-4.2734s2.5605-8.3295 2.4453-12.609c-0.10524-3.912-0.63044-8.1686-2.8516-11.391-1.5478-2.2453-5.0305-2.029-5.7031-4.6719-0.71047-2.7914 3.1101-4.865 2.8594-7.7344-0.42609-4.8764-7.8511-6.7602-7.5938-11.648 0.17912-3.402 6.3093-4.3088 5.7656-7.6719-0.77972-4.8234-7.9606-6.6101-12.82-7.1172z" style="fill:#8e6f60;stroke-width:4"/>
 <path d="m40.273 126.51-1.4297 1.1172-2.3359 5.1875s-1.08 0.2804-2.3359 0.91408c0.97914 0.61648 2.0312 0.71092 2.0312 0.71092s-0.64093 0.75804-2.3359 1.2266c0.90545 0.89928 1.8059 0.9986 2.7422 0.81248 0.8983-0.1784 2.1328-1.7344 2.1328-1.7344s0.97436 3.0495 3.9687 3.9687c1.9754 0.60644 4.2 2.0912 4.6797 4.0703 1.58-1.654 2.3359-3.0547 2.3359-3.0547s0.1366 1.0666 1.0156 1.9375c0.28672-2.1997 1.125-2.9532 1.125-2.9532s3.8799 1.6134 5.1875 1.8282c0.68878 0.1132 1.2526-1.1716 1.0156-1.8282-0.22228-0.6158-1.8359-0.71092-1.8359-0.71092l4.8828-2.8438s1.4485 0.2976 2.1406 1.4219c0.50474-0.86588-0.92188-3.2578-0.92188-3.2578s-0.2614-6.0359-3.1484-5.8984c-0.83284 0.04-1.4602 0.82792-2.2422 1.1172-0.91759 0.3396-2.1347 0.0444-2.8437 0.71872-0.59063 0.56156-0.95942 1.5598-0.71094 2.336 0.33904 1.059 2.6406 2.0312 2.6406 2.0312 0 0-1.9233 1.8089-3.1484 2.1406-1.9676 0.53272-4.2363 0.4158-6.1016-0.40628-2.0184-0.88956-3.5433-2.7525-4.7812-4.5781-0.86201-1.2712-1.7266-4.2734-1.7266-4.2734zm111.45 0s-0.86455 3.0022-1.7266 4.2734c-1.2379 1.8256-2.7628 3.6886-4.7812 4.5781-1.8653 0.82208-4.134 0.939-6.1016 0.40628-1.2252-0.3316-3.1484-2.1406-3.1484-2.1406s2.3016-0.97224 2.6406-2.0312c0.24848-0.77616-0.12032-1.7744-0.71094-2.336-0.70904-0.67424-1.9262-0.3792-2.8438-0.71872-0.78201-0.2892-1.4093-1.0776-2.2422-1.1172-2.887-0.1372-3.1484 5.8984-3.1484 5.8984s-1.4266 2.3919-0.92187 3.2578c0.69207-1.1241 2.1406-1.4219 2.1406-1.4219l4.8828 2.8438s-1.6136 0.0952-1.8359 0.71092c-0.237 0.65656 0.32684 1.9413 1.0156 1.8282 1.3076-0.2148 5.1875-1.8282 5.1875-1.8282s0.83828 0.75348 1.125 2.9532c0.87904-0.87092 1.0156-1.9375 1.0156-1.9375s0.75589 1.4007 2.3359 3.0547c0.47971-1.9791 2.7043-3.4639 4.6797-4.0703 2.9944-0.91924 3.9688-3.9687 3.9688-3.9687s1.2345 1.5558 2.1328 1.7344c0.93627 0.186 1.8367 0.0868 2.7422-0.81248-1.695-0.46856-2.3359-1.2266-2.3359-1.2266s1.0521-0.0944 2.0312-0.71092c-1.256-0.63368-2.3359-0.91408-2.3359-0.91408l-2.3359-5.1875z" style="fill:#98dc9a;stroke-width:4"/>
 <path d="m54.938 147.7s-4.6665 2.1758-4.7422 4.3125c-0.05164 1.4571 1.5577 3.1818 3.0156 3.164 0.71262-8e-3 1.3956-0.86668 1.4375-1.5781 0.04844-0.82336-0.63183-1.8391-1.4375-2.0156-0.37756-0.0828-1.0043 0.96464-1.0078 0.57816-0.0092-1.0442 4.3203-2.4453 4.3203-2.4453l-2.0156 7.3359s-2.1344-0.5666-3.6719-2.414c-0.05256 4.6094 2.8047 6.0078 2.8047 6.0078s0.57903 3.6787 1.7266 5.0312c0.45792 0.53976 1.875 1.0078 1.875 1.0078s0.54681 3.4647 1.7266 4.6016c1.8557 1.7883 5.7084 1.0325 7.3281 2.4453 0.35412-0.94396-0.57031-2.2969-0.57031-2.2969l5.4609 1.4375s1.4096 0.9562 1.2969 2.0078c0.90953-0.2612 1.7266-1.5781 1.7266-1.5781s1.1303 0.94108 2.1563 0.8594c-0.07956-0.72032 0.14064-1.2891 0.14064-1.2891s2.6192-0.2156 3.1641 0.71876c0.25212 0.43236-0.42969 1.4375-0.42969 1.4375s-0.91868-0.3072-1.1484 0c-0.50893 0.68016-0.58336 2.3023 0.71875 2.4453 0.67391 0.074 2.0156-0.2892 2.0156-0.2892s0.45376 1.5716 2.7266 1.5781c1.7601 4e-3 2.8534-2.7062 4.6094-2.5859 2.3361 0.16 2.6506 0.9322 4.7578 1.1484-0.7558-2.1552-2.2969-2.6328-2.2969-2.6328s2.6026-0.45836 2.5938-3.5c-0.0024-0.81072-0.96875-2.0547-0.96875-2.0547s0.05516-1.062 1.3672-1.8047c-0.97455-0.3012-1.4394-0.41172-2.1563-0.40624-0.58126-0.44652-1.1406-1.6797-1.1406-1.6797s-1.1856-1.2938-0.4375-3.4532c-1.3667 0.68908-2.0312 2.2344-2.0312 2.2344s-2.4511-1.7776-3.4297-1.3672c-0.32764 0.1372-0.57507 0.61412-0.46875 0.95312 0.10744 0.3424 0.57935 0.49872 0.9375 0.52344 0.2162 0.016 0.55039-0.44292 0.60938-0.2344 0.53475 1.8905 1.5078 2.2031 1.5078 2.2031s-1.279 1.5569-0.42969 2.7344c0.70124 0.97216 1.8672 0.2892 1.8672 0.2892s0.7527 2.702-0.10936 3.5469c-0.76144 0.74628-3.7927-0.60004-5.6406-1.6797-1.0537-0.6156-2.5859-2.5859-2.5859-2.5859s1.2018-1.4756 0.71875-3.3047c-1.7973 2.8902-5.4687 1.8672-5.4687 1.8672s0.74293-2.7574-0.92969-5.1094c-1.8558 2.4996-2.4428 3.1262-4.3906 3.961-1.7387 0.74508-3.828 1.4958-5.6094 0.85936-3.5804-1.2792-6.6343-4.8137-7.625-8.4844-0.67618-2.5053 1.5859-7.625 1.5859-7.625zm82.125 0-3.4531 2.875s2.2621 5.1197 1.5859 7.625c-0.99072 3.6707-4.0446 7.2052-7.625 8.4844-1.7814 0.63644-3.8707-0.1144-5.6094-0.85936-1.9478-0.83472-2.5348-1.4614-4.3906-3.9609-1.6726 2.3519-0.92969 5.1094-0.92969 5.1094s-3.6714 1.023-5.4687-1.8672c-0.48308 1.8291 0.71874 3.3047 0.71874 3.3047s-1.5323 1.9703-2.5859 2.5859c-1.8479 1.0796-4.8792 2.426-5.6406 1.6797-0.86208-0.84492-0.10936-3.5469-0.10936-3.5469s1.166 0.68312 1.8672-0.2892c0.84934-1.1775-0.42969-2.7344-0.42969-2.7344s0.97306-0.3128 1.5078-2.2031c0.059-0.2084 0.39316 0.2492 0.60937 0.2344 0.35816-0.024 0.83006-0.1808 0.9375-0.52344 0.10632-0.3392-0.14112-0.81572-0.46875-0.95312-0.97863-0.41036-3.4297 1.3672-3.4297 1.3672s-0.66452-1.5453-2.0312-2.2344c0.74814 2.1593-0.4375 3.4531-0.4375 3.4531s-0.55936 1.2332-1.1406 1.6797c-0.71686-4e-3 -1.1817 0.1048-2.1563 0.40624 1.312 0.74268 1.3672 1.8047 1.3672 1.8047s-0.96639 1.2439-0.96875 2.0547c-0.0088 3.0416 2.5938 3.5 2.5938 3.5s-1.5411 0.4776-2.2969 2.6328c2.1072-0.216 2.4217-0.98836 4.7578-1.1484 1.756-0.1204 2.8493 2.5912 4.6094 2.586 2.2728-8e-3 2.7266-1.5781 2.7266-1.5781s1.3417 0.3632 2.0156 0.2892c1.3021-0.1432 1.2277-1.7652 0.71874-2.4453-0.22976-0.3072-1.1484 0-1.1484 0s-0.68181-1.0052-0.42969-1.4375c0.54484-0.93428 3.1641-0.71872 3.1641-0.71872s0.2202 0.56876 0.14064 1.289c1.026 0.0816 2.1563-0.85936 2.1563-0.85936s0.81702 1.3167 1.7266 1.5781c-0.11268-1.0516 1.2969-2.0078 1.2969-2.0078l5.4609-1.4375s-0.92443 1.3529-0.57031 2.2969c1.6197-1.4128 5.4724-0.65704 7.3281-2.4453 1.1798-1.1369 1.7266-4.6016 1.7266-4.6016s1.4171-0.46808 1.875-1.0078c1.1475-1.3526 1.7266-5.0313 1.7266-5.0313s2.8572-1.3984 2.8047-6.0078c-1.5375 1.8474-3.6719 2.4141-3.6719 2.4141l-2.0156-7.336s4.3295 1.4012 4.3203 2.4453c-3e-3 0.3864-0.63025-0.66084-1.0078-0.57812-0.80567 0.1764-1.4859 1.1923-1.4375 2.0156 0.0419 0.71144 0.72488 1.5693 1.4375 1.5781 1.4579 0.016 3.0673-1.707 3.0156-3.1641-0.0757-2.1367-4.7422-4.3125-4.7422-4.3125z" style="fill:#98dc9a;stroke-width:4"/>
 <path d="m30.344 68.031s-8.3298 2.9959-8.4844 11.5c-0.84512-0.2152-1.7266-1.4375-1.7266-1.4375s1.032 3.0266 1.7266 4.4609c-0.60903 9.9016 12.805 21.719 12.805 21.719s-0.48628 0.4588-2.5938 0.42968c1.9107 1.2474 3.5938 1.4375 3.5938 1.4375s0.13367 1.7524 1.2969 4.1718c0.24555-1.3499 0.86719-1.7266 0.86719-1.7266l12.797 8.0547-0.71875 2.7344s-12.603-4.6967-18.844-7.1953c-1.496-0.599-3.1646-0.89932-4.4531-1.8672-1.2811-0.96224-3.0234-3.7422-3.0234-3.7422s2.1552-0.3288 1.4375-2.2969c-0.49966-1.3702-1.8672-0.8672-1.8672-0.8672l-0.57812-6.6172s-4.4704 4.0953-4.4531 9.2109c0.0052 1.5235 1 4.4531 1 4.4531s-0.77181 0.1492-1.7266-0.1408c1.5366 1.5966 3.0234 3.0156 3.0234 3.0156s4.2271 5.8112 8.3438 9.0625c3.5843 2.8308 12.367 5.8984 12.367 5.8984s-0.11976 0.67984-1.7969 1.1875c2.1157 0.6776 3.5234-0.04 3.5234-0.04s0.28876 1.584 2.4453 2.6953c-0.11392-1.4862 0.57031-1.2578 0.57031-1.2578l6.0469 1.7266 0.57031 6.7578c-2.3816 0.1908-7.3828 0-7.3828 0l-3.4531-1.9532 1.0156 1.9141s-4.2488 0.0612-12.898-2.9766c-0.60851-0.2136-1.4375-1.2969-1.4375-1.2969s1.6833-0.842 0.57031-2.5859c-0.36474-0.57152-2.0156-0.2892-2.0156-0.2892l-2.0078-5.0311s-2.7153 4.3477-0.71875 9.6328c0.46241 1.224 1.8672 3.4531 1.8672 3.4531s-1.3308-0.2496-2.3047-0.42968c1.3255 1.6401 3.1641 1.7266 3.1641 1.7266s6.5294 4.366 10.211 5.6016c3.7664 1.2641 11.797 1.7266 11.797 1.7266s0.31028 0.5946-0.71875 1.2969c1.2645 0.036 2.7344-0.57812 2.7344-0.57812s1.6489 1.3652 3.1641 1.7266c-0.94001-1.2303-0.14844-1.7266-0.14844-1.7266l9.0625-0.8594-11.219-48.039-13.227-7.0469-1.875-4.6016-0.42969 2.8828-4.4609-5.4688-3.3047-4.4609-1.0078-4.8906s2.0476 0.352 2.3047-1.289c0.26113-1.6668-1.7266-2.0156-1.7266-2.0156zm131.31 0 2.2969 5.75s-1.9877 0.3488-1.7266 2.0156c0.25708 1.6411 2.3047 1.289 2.3047 1.289l-1.0078 4.8906-3.3047 4.4609-4.4609 5.4688-0.42969-2.8828-1.875 4.6016-13.227 7.0469-11.219 48.039 9.0625 0.8594s0.79158 0.49624-0.14844 1.7266c1.5152-0.3612 3.1641-1.7266 3.1641-1.7266s1.4699 0.61532 2.7344 0.57812c-1.029-0.70228-0.71875-1.2969-0.71875-1.2969s8.0304-0.46248 11.797-1.7266c3.6816-1.2356 10.211-5.6016 10.211-5.6016s1.8386-0.0864 3.1641-1.7266c-0.97384 0.18-2.3047 0.42968-2.3047 0.42968s1.4048-2.229 1.8672-3.4531c1.9965-5.2851-0.71875-9.6328-0.71875-9.6328l-2.0078 5.0312s-1.6509-0.2824-2.0156 0.2892c-1.113 1.744 0.57031 2.5859 0.57031 2.5859s-0.82899 1.0832-1.4375 1.2969c-8.6496 3.0379-12.898 2.9766-12.898 2.9766l1.0156-1.914-3.4531 1.9531s-5.0012 0.1908-7.3828 0l0.57031-6.7578 6.0469-1.7266s0.68423-0.2284 0.57031 1.2578c2.1566-1.1113 2.4453-2.6953 2.4453-2.6953s1.4077 0.71664 3.5234 0.04c-1.6771-0.50768-1.7969-1.1875-1.7969-1.1875s8.7829-3.0676 12.367-5.8984c4.1166-3.2513 8.3438-9.0625 8.3438-9.0625s1.4869-1.419 3.0234-3.0156c-0.95475 0.29-1.7266 0.1408-1.7266 0.1408s0.9948-2.9296 1-4.4531c0.0172-5.1156-4.4531-9.2109-4.4531-9.2109l-0.57812 6.6172s-1.3675-0.503-1.8672 0.8672c-0.71767 1.968 1.4375 2.2969 1.4375 2.2969s-1.7424 2.7799-3.0234 3.7422c-1.2885 0.96784-2.9571 1.2682-4.4531 1.8672-6.2403 2.4986-18.844 7.1953-18.844 7.1953l-0.71875-2.7344 12.797-8.0547s0.62163 0.3764 0.86719 1.7266c1.1632-2.4194 1.2969-4.1719 1.2969-4.1719s1.6831-0.19 3.5938-1.4375c-2.1075 0.028-2.5938-0.42968-2.5938-0.42968s13.414-11.817 12.805-21.719c0.69453-1.4342 1.7266-4.4609 1.7266-4.4609s-0.88144 1.2223-1.7266 1.4375c-0.15464-8.5041-8.4844-11.5-8.4844-11.5z" style="fill:#f9de81;stroke-width:4"/>
 <path d="m24.391 81.602c-0.34772 14.334 25.641 32.297 25.641 32.297l-0.60937 9.3594s-12.513-2.7361-26.844-12.414c5.6106 12.804 26.844 17.492 26.844 17.492l3.6641 13.836s-8.4388 0.77476-24.812-2.4453c10.078 7.9799 27.047 7.5312 27.047 7.5312l-5.2891-39.867s-11.773-7.6601-25.641-25.789zm143.22 0c-13.867 18.129-25.641 25.789-25.641 25.789l-5.2891 39.867s16.969 0.44864 27.047-7.5312c-16.374 3.2201-24.812 2.4453-24.812 2.4453l3.6641-13.836s21.233-4.6877 26.844-17.492c-14.33 9.6779-26.844 12.414-26.844 12.414l-0.60937-9.3594s25.988-17.963 25.641-32.297z" style="fill:#fdf5d9;stroke-width:4"/>
 <path d="m43.828 51.969s-7.0116 4.8014-7.3203 8.539c-0.42058 5.0928 7.9297 13.117 7.9297 13.117l-1.7266 2.8516-1.1172-0.60936s0.44019-1.6402 0-2.2422c-0.46193-0.63172-1.5617-1.1109-2.2344-0.71092-0.77146 0.45864-0.7983 1.7966-0.51562 2.6484 0.33252 1.002 2.3438 2.1328 2.3438 2.1328s-5.7101-1.2941-6.8125 7.1172c4.0605-1.1112 5.4922-2.2344 5.4922-2.2344s-0.46968 1.3344 0 3.5547c1.6751-0.032 2.5469-1.4852 3.1484-2.7422 0.38076-0.7956 0.10156-2.6484 0.10156-2.6484s0.54848 0.59332 0.91406 0.71872c0.25652 0.088 0.8125 0 0.8125 0s0.17412 1.66 0.82031 1.8282c1.8043 0.46944 3.7929-1.6218 4.4687-3.3594 0.20004-0.51428-0.30468-1.625-0.30468-1.625l1.4297 0.6094s-1.4611-3.2221-2.4453-4.6797c-1.1975-1.7734-4.1719-4.875-4.1719-4.875s-0.29572-0.73176 0.41406-1.125c-0.89567-1.5474-1.7344-2.4375-1.7344-2.4375s0.85928 0.41512 1.5234-0.1016c-1.5117-1.5588-1.9297-2.4375-1.9297-2.4375v-1.2266s0.85096 0.40668 1.8281-0.3048c-2.2614-1.8446-2.0313-3.5547-2.0313-3.5547l4.2734-3.5625zm104.34 0-3.1563 2.6406 4.2734 3.5625s0.23016 1.7101-2.0312 3.5547c0.97717 0.71136 1.8281 0.3048 1.8281 0.3048v1.2266s-0.41804 0.87872-1.9297 2.4375c0.66416 0.51668 1.5234 0.1016 1.5234 0.1016s-0.83871 0.89008-1.7344 2.4375c0.70978 0.3932 0.41407 1.125 0.41407 1.125s-2.9744 3.1015-4.1719 4.875c-0.98421 1.4576-2.4453 4.6797-2.4453 4.6797l1.4297-0.60936s-0.50473 1.1107-0.30468 1.625c0.67589 1.7376 2.6644 3.8288 4.4687 3.3594 0.64621-0.168 0.82032-1.8281 0.82032-1.8281s0.55598 0.088 0.8125 0c0.3656-0.1256 0.91406-0.71876 0.91406-0.71876s-0.2792 1.8528 0.10156 2.6484c0.60155 1.257 1.4733 2.7094 3.1484 2.7422 0.46968-2.2203 0-3.5547 0-3.5547s1.4317 1.1232 5.4922 2.2344c-1.1024-8.4112-6.8125-7.1172-6.8125-7.1172s2.0112-1.1308 2.3438-2.1328c0.28268-0.8518 0.25584-2.1898-0.51562-2.6484-0.6727-0.4-1.7724 0.0792-2.2344 0.71096-0.44019 0.602 0 2.2422 0 2.2422l-1.1172 0.6094-1.7266-2.8516s8.3503-8.0244 7.9297-13.117c-0.30868-3.7376-7.3203-8.539-7.3203-8.539z" style="fill:#98dc9a;stroke-width:4"/>
 <path d="m83.227 46.648c-0.37856 2.1147-1.0723 4.7378-2.6875 6.3906-1.2398 1.2687-3.0815 2.5393-4.8594 2.1718-1.1445 1.5672-2.8125 2.1719-2.8125 2.1719s0.60662-1.8274 0-2.2969c-2.5128 0.89552-6.9063 1.7891-6.9063 1.7891l-2.2969-0.64064s1.1285-1.2418 0.64062-1.4062c-2.8046-0.94524-5.5-2.2969-5.5-2.2969l0.3828 3.0625 2.0469 2.8125s7.6623 3.5437 12.148 3.6484c3.754 0.0876 5.4297-3.1953 5.4297-3.1953s1.432 1.8238 2.6641 0.82032c0.72553-0.59096 0.08592-2.8047 0.08592-2.8047s0.89303 1.7576 2.8125 1.6641c0.61384-0.028 1.3642-0.432 1.5312-1.0234 0.33156-1.1744-0.33244-2.5298-1.5312-3.3282 1.7504-0.79028 3.7031 3.1953 3.7031 3.1953s-0.82436 0.036-1.1484 0.2576c-0.50697 0.3476-1.1882 0.947-1.0234 1.5391 0.21468 0.77132 2.1719 1.0156 2.1719 1.0156s-0.76943 2.5809-0.125 3.586c0.89703 1.399 3.089 2.6025 4.6016 1.914 1.2265-0.5582 2.5201-1.6211 1.2812-3.8359-0.53664-0.95944-1.9263-0.3156-1.5391-0.89064 0.65008-0.96524 1.9513-1.4752 2.0469-2.5625 0.13448-1.5298-1.2734-1.6562-1.2734-1.6562s1.8973-1.3064 1.9141-2.3047c0.04092-2.429-2.1875-4.9364-4.4766-5.75-1.6071-0.57116-4.9844 1.1484-4.9844 1.1484s0.4776-2.3848-2.2969-3.1953zm25.547 0c-2.7745 0.81052-2.2969 3.1953-2.2969 3.1953s-3.3773-1.7196-4.9844-1.1484c-2.289 0.81352-4.5175 3.321-4.4766 5.75 0.0168 0.99828 1.9141 2.3047 1.9141 2.3047s-1.4079 0.1264-1.2734 1.6562c0.0956 1.0872 1.3968 1.5973 2.0469 2.5625 0.38728 0.575-1.0024-0.0688-1.5391 0.8906-1.2389 2.2148 0.0548 3.2777 1.2812 3.836 1.5126 0.68844 3.7045-0.51504 4.6016-1.9141 0.64442-1.005-0.125-3.5859-0.125-3.5859s1.9572-0.2444 2.1719-1.0156c0.1648-0.59204-0.51647-1.1917-1.0234-1.539-0.32408-0.222-1.1484-0.2576-1.1484-0.2576s1.9527-3.9856 3.7031-3.1953c-1.1988 0.79836-1.8628 2.1538-1.5312 3.3281 0.167 0.59144 0.91741 0.99356 1.5312 1.0234 1.9195 0.0936 2.8125-1.6641 2.8125-1.6641s-0.6396 2.2138 0.0859 2.8047c1.232 1.0035 2.6641-0.82028 2.6641-0.82028s1.6757 3.2829 5.4297 3.1953c4.4861-0.1048 12.148-3.6484 12.148-3.6484l2.0469-2.8125 0.3828-3.0625s-2.6954 1.3516-5.5 2.2969c-0.48792 0.1644 0.64063 1.4063 0.64063 1.4063l-2.2969 0.6406s-4.3934-0.89356-6.9063-1.789c-0.60662 0.4694 0 2.2969 0 2.2969s-1.668-0.60472-2.8125-2.1719c-1.7779 0.3676-3.6195-0.90316-4.8594-2.1719-1.6152-1.6528-2.3089-4.276-2.6875-6.3906z" style="fill:#98dc9a;stroke-width:4"/>
 <path d="m45.016 42.57c-0.92155-0.032-2.4453 1.2969-2.4453 1.2969s-2.1442-0.2688-3.1641 0c-1.5984 0.4214-4.3125 2.4453-4.3125 2.4453s-4.9985 0.8142-5.6094 5.0313c-0.28781 1.987 1.3783 4.4734 3.3047 5.039 0.90605 0.266 2.3037-0.2576 2.5938-1.1562 0.20459-0.6338-0.34732-1.6411-1.0078-1.7266-0.47065-0.0608-0.5335 1.0234-1.0078 1.0078-0.50932-0.016-1.0845-0.64464-1.0078-1.1484 0.2623-1.7232 4.4609-2.7344 4.4609-2.7344s7.6703-1.759 7.9063 0.1484c-2.0155-0.25-2.7734 0.3204-2.7734 0.3204s3.9546 5.5304 6.9453 6.4375c2.4525 0.74388 7.625-1.0078 7.625-1.0078s-1.5865 0.6816-2.1562 1.2969c-1.0197 1.1011-2.0156 4.0234-2.0156 4.0234s13.675 0.3636 14.461-1.1172c-7.0119-3.8944-7.7031-8.0859-7.7031-8.0859s0.8796-2.044 0.57812-3.0234c-0.17948-0.58316-1.1448-0.67656-1.2969-1.2891-0.15212-0.61248 0.86077-0.892 0.57813-1.875-0.28264-0.98296-3.1641-2.7266-3.1641-2.7266s1.1065 2.8419-0.57812 3.8828c-5.4239-2.1231-3.684-4.8063-10.211-5.0391zm101.97 0c-6.527 0.2328-4.787 2.916-10.211 5.039-1.6846-1.0409-0.57813-3.8828-0.57813-3.8828s-2.8814 1.7436-3.1641 2.7266c-0.28264 0.98296 0.73025 1.2625 0.57813 1.875-0.15212 0.61252-1.1174 0.70588-1.2969 1.2891-0.30148 0.97948 0.57812 3.0234 0.57812 3.0234s-0.69123 4.1916-7.7031 8.0859c0.78636 1.481 14.461 1.1172 14.461 1.1172s-0.99595-2.9223-2.0156-4.0234c-0.56978-0.61532-2.1562-1.2969-2.1562-1.2969s5.1725 1.7516 7.625 1.0078c2.9908-0.90708 6.9453-6.4375 6.9453-6.4375s-0.75792-0.57028-2.7734-0.3204c0.236-1.9074 7.9062-0.1484 7.9062-0.1484s4.1986 1.0112 4.4609 2.7344c0.0767 0.5038-0.49849 1.1315-1.0078 1.1484-0.47431 0.016-0.53715-1.0687-1.0078-1.0078-0.66049 0.0856-1.2124 1.0928-1.0078 1.7266 0.29008 0.89864 1.6877 1.4223 2.5938 1.1562 1.9264-0.56564 3.5925-3.052 3.3047-5.039-0.61082-4.2171-5.6094-5.0313-5.6094-5.0313s-2.7141-2.0239-4.3125-2.4453c-1.0198-0.2688-3.1641 0-3.1641 0s-1.5238-1.3297-2.4453-1.2968z" style="fill:#71a372;stroke-width:4"/>
 <path d="m96 60v52h48v-48s0-4-4-4zm0 52h-48v12c0 44 48 60 48 60z" style="fill:#c39a54;stroke-width:4"/>
 <path d="m52 60c-4 0-4 4-4 4v48h48v-52zm44 52v72s48-16 48-60v-12z" style="fill:#f9de81;stroke-width:4"/>
 <path d="m59.188 127.42c-0.83284 0.04-1.4602 0.82792-2.2422 1.1172-0.91759 0.3396-2.1347 0.0444-2.8437 0.71872-0.59063 0.56156-0.95942 1.5598-0.71094 2.336 0.33904 1.059 2.6406 2.0312 2.6406 2.0312 0 0-1.9233 1.8089-3.1484 2.1406-1.9676 0.53272-4.2363 0.4158-6.1016-0.40628-0.51457-0.2268-0.99942-0.52296-1.4531-0.85936l-2.1094 3.3047 0.53125 0.78908 1.3594 0.7656 0.41486 0.2536c1.18 0.75432 1.566 1.9288 1.8664 3.1682 1.58-1.654 2.3359-3.0547 2.3359-3.0547s0.1366 1.0666 1.0156 1.9375c0.28672-2.1996 1.125-2.9531 1.125-2.9531s3.8799 1.6133 5.1875 1.8281c0.68878 0.1132 1.2526-1.1716 1.0156-1.8281-0.22228-0.61572-1.8359-0.71084-1.8359-0.71084l4.8828-2.8438s1.4485 0.2976 2.1406 1.4219c0.50474-0.86588-0.92188-3.2578-0.92188-3.2578s-0.2614-6.0359-3.1484-5.8984z" style="fill:#98dc9a;stroke-width:4"/>
 <path d="m89.883 161.8c-1.3667 0.68904-2.0312 2.2344-2.0312 2.2344s-2.4511-1.7776-3.4297-1.3672c-0.32764 0.1372-0.57507 0.61408-0.46875 0.95312 0.10744 0.3424 0.57935 0.49868 0.9375 0.52344 0.2162 0.016 0.55039-0.44292 0.60938-0.2344 0.53475 1.8905 1.5078 2.2031 1.5078 2.2031s-1.279 1.5569-0.42969 2.7344c0.70124 0.97216 1.8672 0.2892 1.8672 0.2892s0.7527 2.702-0.10936 3.5469c-0.76144 0.74628-3.7927-0.60004-5.6406-1.6797-1.0537-0.61564-2.5859-2.586-2.5859-2.586s1.2018-1.4756 0.71875-3.3047c-1.7973 2.8902-5.4687 1.8672-5.4687 1.8672s0.74293-2.7574-0.92969-5.1094c-1.8558 2.4996-2.4428 3.1262-4.3906 3.9609-1.7387 0.74508-3.828 1.4958-5.6094 0.85936-0.23688-0.0848-0.46349-0.2008-0.69531-0.3048l-0.97656 6.2813c1.385 0.208 2.7371 0.3708 3.5391 1.0703 0.35412-0.94396-0.57031-2.2968-0.57031-2.2968l5.4609 1.4375s1.4096 0.9562 1.2969 2.0078c0.90953-0.2612 1.7266-1.5781 1.7266-1.5781s1.1303 0.94108 2.1563 0.8594c-0.07956-0.72032 0.14064-1.2891 0.14064-1.2891s2.6192-0.2156 3.1641 0.71876c0.25212 0.43236-0.42969 1.4375-0.42969 1.4375s-0.91868-0.3072-1.1484 0c-0.50893 0.6802-0.58336 2.3023 0.71875 2.4453 0.67391 0.074 2.0156-0.2892 2.0156-0.2892s0.45376 1.5716 2.7266 1.5781c1.7601 4e-3 2.8534-2.7062 4.6094-2.5859 2.3361 0.16 2.6506 0.93224 4.7578 1.1484-0.7558-2.1552-2.2969-2.6328-2.2969-2.6328s2.6026-0.45836 2.5938-3.5c-0.0024-0.81072-0.96875-2.0547-0.96875-2.0547s0.05516-1.062 1.3672-1.8047c-0.97455-0.3012-1.4394-0.41172-2.1563-0.40624-0.58126-0.44652-1.1406-1.6797-1.1406-1.6797s-1.1856-1.2938-0.4375-3.4531z" style="fill:#98dc9a;stroke-width:4"/>
 <path d="m83.227 46.648c-0.37856 2.1147-1.0723 4.7378-2.6875 6.3906-1.006 1.0294-2.4091 2.0078-3.8516 2.164l1.5391 4.4688c0.35148-0.44932 0.58594-0.81252 0.58594-0.81252s1.432 1.8238 2.6641 0.82032c0.72553-0.59096 0.08592-2.8047 0.08592-2.8047s0.89303 1.7576 2.8125 1.6641c0.61384-0.028 1.3642-0.432 1.5312-1.0234 0.33156-1.1744-0.33244-2.5298-1.5312-3.3282 1.7504-0.79028 3.7031 3.1953 3.7031 3.1953s-0.82436 0.036-1.1484 0.2576c-0.50697 0.3476-1.1882 0.947-1.0234 1.5391 0.21468 0.77132 2.1719 1.0156 2.1719 1.0156s-0.76943 2.5809-0.125 3.586c0.89703 1.399 3.089 2.6025 4.6016 1.914 1.2265-0.5582 2.5201-1.6211 1.2812-3.8359-0.53664-0.95944-1.9263-0.3156-1.5391-0.89064 0.65008-0.96524 1.9513-1.4752 2.0469-2.5625 0.13448-1.5298-1.2734-1.6562-1.2734-1.6562s1.8973-1.3064 1.9141-2.3047c0.04092-2.429-2.1875-4.9364-4.4766-5.75-1.6071-0.57116-4.9844 1.1484-4.9844 1.1484s0.4776-2.3848-2.2969-3.1953z" style="fill:#98dc9a;stroke-width:4"/>
 <path d="m132.81 127.42c0.83284 0.04 1.4602 0.82792 2.2422 1.1172 0.91759 0.3396 2.1347 0.0444 2.8438 0.71872 0.59062 0.56156 0.95942 1.5598 0.71094 2.336-0.33904 1.059-2.6406 2.0312-2.6406 2.0312 0 0 1.9233 1.8089 3.1484 2.1406 1.9676 0.53272 4.2363 0.4158 6.1016-0.40628 0.51457-0.2268 0.99943-0.52296 1.4531-0.85936l2.1094 3.3047-0.53125 0.78908-1.3594 0.7656-0.41485 0.2536c-1.18 0.75432-1.566 1.9288-1.8664 3.1682-1.58-1.654-2.3359-3.0547-2.3359-3.0547s-0.1366 1.0666-1.0156 1.9375c-0.28672-2.1996-1.125-2.9531-1.125-2.9531s-3.8799 1.6133-5.1875 1.8281c-0.68878 0.1132-1.2526-1.1716-1.0156-1.8281 0.22228-0.61584 1.8359-0.71096 1.8359-0.71096l-4.8828-2.8438s-1.4486 0.2976-2.1406 1.4219c-0.50474-0.86588 0.92187-3.2578 0.92187-3.2578s0.2614-6.0359 3.1484-5.8984z" style="fill:#98dc9a;stroke-width:4"/>
 <path d="m102.12 161.8c1.3667 0.68904 2.0312 2.2344 2.0312 2.2344s2.4511-1.7776 3.4297-1.3672c0.32764 0.1372 0.57507 0.61408 0.46875 0.95312-0.10744 0.3424-0.57935 0.49868-0.9375 0.52344-0.2162 0.016-0.5504-0.44292-0.60938-0.2344-0.53475 1.8905-1.5078 2.2031-1.5078 2.2031s1.279 1.5569 0.42969 2.7344c-0.70124 0.97216-1.8672 0.2892-1.8672 0.2892s-0.7527 2.702 0.10936 3.5469c0.76145 0.74628 3.7928-0.60004 5.6406-1.6797 1.0537-0.61564 2.5859-2.586 2.5859-2.586s-1.2018-1.4756-0.71875-3.3047c1.7973 2.8902 5.4688 1.8672 5.4688 1.8672s-0.74293-2.7574 0.92969-5.1094c1.8558 2.4996 2.4428 3.1262 4.3906 3.9609 1.7387 0.74508 3.828 1.4958 5.6094 0.85936 0.23688-0.0848 0.46349-0.2008 0.69531-0.3048l0.97657 6.2813c-1.385 0.208-2.7371 0.3708-3.5391 1.0703-0.35412-0.94396 0.57031-2.2968 0.57031-2.2968l-5.4609 1.4375s-1.4096 0.9562-1.2969 2.0078c-0.90954-0.2612-1.7266-1.5781-1.7266-1.5781s-1.1303 0.94108-2.1562 0.8594c0.0796-0.72032-0.14064-1.2891-0.14064-1.2891s-2.6192-0.2156-3.1641 0.71876c-0.25212 0.43236 0.42968 1.4375 0.42968 1.4375s0.91868-0.3072 1.1484 0c0.50892 0.6802 0.58336 2.3023-0.71875 2.4453-0.67391 0.074-2.0156-0.2892-2.0156-0.2892s-0.45376 1.5716-2.7266 1.5781c-1.7601 4e-3 -2.8534-2.7062-4.6094-2.5859-2.3362 0.16-2.6506 0.93224-4.7578 1.1484 0.7558-2.1552 2.2969-2.6328 2.2969-2.6328s-2.6026-0.45836-2.5938-3.5c0.0024-0.81072 0.96875-2.0547 0.96875-2.0547s-0.05516-1.062-1.3672-1.8047c0.97455-0.3012 1.4394-0.41172 2.1563-0.40624 0.58126-0.44652 1.1406-1.6797 1.1406-1.6797s1.1856-1.2938 0.4375-3.4531z" style="fill:#98dc9a;stroke-width:4"/>
 <path d="m108.77 46.648c0.37856 2.1147 1.0724 4.7378 2.6875 6.3906 1.006 1.0294 2.4091 2.0078 3.8516 2.164l-1.5391 4.4688c-0.35148-0.44932-0.58593-0.81252-0.58593-0.81252s-1.432 1.8238-2.6641 0.82032c-0.72553-0.59096-0.0859-2.8047-0.0859-2.8047s-0.89303 1.7576-2.8125 1.6641c-0.61384-0.028-1.3642-0.432-1.5312-1.0234-0.33156-1.1744 0.33244-2.5298 1.5312-3.3282-1.7504-0.79028-3.7031 3.1953-3.7031 3.1953s0.82436 0.036 1.1484 0.2576c0.50697 0.3476 1.1882 0.947 1.0234 1.5391-0.21468 0.77132-2.1719 1.0156-2.1719 1.0156s0.76943 2.5809 0.125 3.586c-0.89703 1.399-3.089 2.6025-4.6016 1.914-1.2265-0.5582-2.5201-1.6211-1.2813-3.8359 0.53664-0.95944 1.9263-0.3156 1.5391-0.89064-0.65009-0.96524-1.9513-1.4752-2.0469-2.5625-0.13448-1.5298 1.2734-1.6562 1.2734-1.6562s-1.8973-1.3064-1.9141-2.3047c-0.04092-2.429 2.1875-4.9364 4.4766-5.75 1.6071-0.57116 4.9844 1.1484 4.9844 1.1484s-0.4776-2.3848 2.2969-3.1953z" style="fill:#98dc9a;stroke-width:4"/>
 <path d="m96.133 12.641a1.5341 1.5341 0 0 0-1.5312 1.539 1.5341 1.5341 0 0 0 1.5312 1.5312 1.5341 1.5341 0 0 0 1.5391-1.5312 1.5341 1.5341 0 0 0-1.5391-1.539zm0.04688 7.3359-3.0703 2.7109 0.17968 6.7813 2.9844 2.7109 2.7969-2.5312 0.09376-6.961zm-21.516 5.4219-1.625 1.9922 0.63281 4.25 1.625 1.2656 1.5391-1.539-0.45312-4.6094zm42.672 0-1.7188 1.3594-0.45312 4.6094 1.5391 1.539 1.625-1.2656 0.63281-4.25zm-56.859 1.8984-1.1797 1.4453 1 4.6172 1.2656 0.2656 0.44531-0.9922-0.89844-4.6094zm71.047 0-0.63281 0.72656-0.89844 4.6094 0.44531 0.9922 1.2656-0.2656 1-4.6172zm-55.32 13.289-1.625 1.9922 0.63281 4.25 1.625 1.2656 1.5391-1.5391-0.45312-4.6094zm39.594 0-1.7188 1.3594-0.45313 4.6094 1.5391 1.5391 1.625-1.2656 0.63281-4.25zm-21.789 0.45316c-0.60095 0-1.0781 0.48496-1.0781 1.0859v5.3359c0 0.60096 0.47718 1.0782 1.0781 1.0782h3.8906c0.60095 0 1.0859-0.4772 1.0859-1.0782v-5.3359c0-0.60096-0.48499-1.0859-1.0859-1.0859zm-31.094 0.45312-0.90625 1.539 1.1797 5.2422 1.1719 0.81248 0.45312-1.0859-1.3516-5.4219zm66.172 0-0.54687 1.0859-1.3516 5.4219 0.45312 1.0859 1.1719-0.81248 1.1797-5.2422z" style="fill:#fdf5d9;paint-order:stroke fill markers;stroke-width:4"/>
 <path d="m111.73 89.346s10.252-0.75852 13.04 0c0.81097 0.2208 1.6853 0.59408 2.1732 1.2784 4.1143 5.7702 4.1221 13.752 4.2187 20.838 0.0778 5.7091-0.42706 11.748-2.9403 16.875-2.0049 4.0898-9.2044 10.099-9.2044 10.099l-1.5341-5.2414s5.7842-3.9138 7.2868-6.9033c2.255-4.4864 1.9826-9.9396 1.7897-14.957-0.2186-5.687-0.52341-11.792-3.3238-16.747-0.31172-0.55148-0.78743-1.1427-1.4062-1.2784-1.3266-0.2908-10.355 0.3836-10.355 0.3836z" style="fill:#b1b5bd"/>
 <path d="m68 140h52l-8-52h-36z" style="fill:#b1b5bd;stroke-width:4"/>
 <path d="m75.062 94.078-5.6016 36.43h24.625l12.148-22.508-12.148-13.922z" style="fill:#8e6f60;paint-order:stroke fill markers"/>
 <path d="m94.086 94.078v36.43h24.453l-5.6016-36.43z" style="fill:#d3b69a;paint-order:stroke fill markers"/>
 <path d="m77.214 88s-0.0068-4.1556 4.7939-4.3396c0.82748-0.78628 1.8334-4.4339 4.7939-4.4104 0.93016 8e-3 2.6207 0.9588 2.6207 0.9588s1.8184-1.3331 2.8764-1.3423c2.6778-0.024 4.2187 2.2372 4.2187 2.2372s1.5266-0.81964 3.5795-0.70312c2.1365 0.1212 3.3238 3.2599 3.3238 3.2599s2.0054-0.212 3.0042-0.128c2.9209 0.2456 4.2187 4.5314 4.2187 4.5314l-16.555-0.06376s-4.5908 3.1458-5.1775 10.042c-0.24584 2.8899-0.23176 8.0999-3.132 8.1177-2.2947 0.016-2.5568-6.3919-2.5568-6.3919s-1.9665-0.83744-1.9815-2.0454c-0.016-1.3012 0.1912-2.5978 0.19176-3.8991 9.16e-4 -2.1532-2.7485-5.8236-2.7485-5.8236z" style="fill:#ececec;stroke-width:4"/>
</svg>
