<svg width="192" height="192" version="1.1" viewBox="0 0 192 192" xmlns="http://www.w3.org/2000/svg">
 <rect x="19.5" y="19.5" width="153" height="153" rx="10" style="fill:#f9de81"/>
 <path d="m91.653 47.02c1.934 0.19293 4.6449 2.0689 5.1255 2.8071 0.43798 0.67274 1.3905 4.4012 0.62541 6.5829-0.65161 0.60215-1.5359 0.8494-2.3213 1.2188 0.0931 0.84068 0.2298 1.6755 0.3607 2.5104 1.4836-0.12509 2.9235-0.51488 4.3808-0.79704 0.20073-0.86686 0.49504-2.5317 0.79997-2.5453 0.29824-0.01327 0.21526 1.181 0.29088 1.7774 0.77961 0.45379 1.5307 1.0081 2.5046 0.99485 6.1082-0.08287 12.22-0.01746 18.326 3e-3 0.67196-0.05236 0.99197 0.66033 1.4545 1.0268 7e-3 -0.64869 9e-3 -1.2974 0.0168-1.9461 8e-3 -0.64869 3e-3 -1.0457 0.0321-1.6944 3.2e-4 -0.2308 0.28825-0.23728 0.46857-0.23434 0.43189 7e-3 0.45031 0.30136 0.4506 0.3208 0.0378 1.1403-0.0125 1.8423 0.053 3.0973 0.2241 0.0123 0.40095 0.01528 0.56577 0.02064 0.16482 0.0054 0.48883 0.06705 0.4936 0.30458 9e-3 0.44532 0.014 0.71036 0.0403 1.1583 1.8763 0.05527 2.5684 0.07249 4.9155 0.0042 1.143-0.51267 3.2783-0.31278 4.5407-0.30986 0.21359 0.01914 0.20207 0.50812 0.20757 0.7956 5e-3 0.28747 3e-3 0.79293-0.19887 0.8069-1.6863-9.63e-4 -3.4942 0.16078-4.5952-0.20598-2.8078 0.07499-4.7858 0.06219-7.4468 0.08436-0.0844 0.33744-0.3272 1.0024-0.67364 0.99959-2.5506-0.02037-4.3385-0.0018-6.7209 0.0097-0.79121-0.02035-1.661 0.15126-2.1613 0.81741-0.70107 0.87558-1.5505 1.6232-2.2253 2.5191-0.21816 1.6435 0.42469 3.2376 0.79414 4.8143-0.56145 0.20363-1.1258 0.39561-1.6785 0.60506-0.56724 1.7774-0.34324 4.0521-1.9693 5.2972-0.89887 0.67487-1.693 1.5156-2.7199 1.9955-0.74759 0.33743-1.5505-0.01455-2.301-0.12508-2.8013-0.4247-5.1226-2.1468-7.6243-3.3336-0.16291 0.67778-0.34618 1.3468-0.52943 2.0188 0.75922 0.49161 1.7395 0.91049 1.9897 1.8763 0.38398 1.4137 0.06397 2.8973 0.0085 4.3372-0.11928 1.3206-0.15709 2.65-0.28216 3.9707-0.12222 1.2828-0.91114 3.4067-1.6261 3.3831-0.73333-0.02425-1.4108-0.38107-2.1148-0.56724-0.75922 1.629-0.07585 3.6021 1.1229 4.8666 3.3057 3.4873 5.0636 8.0719 6.6673 12.526 0.33139 0.92042 1.1982 1.5012 1.4079 2.4784 0.22709 1.0582 0.64835 2.0964 0.57014 3.1969-0.137 1.9278-0.26471 3.8572-0.45958 5.78-0.13384 1.4108-0.65744 2.8187-0.34909 4.2441 0.2298 1.1607 0.37234 2.3882-0.0524 3.5256-0.57306 1.4283-0.56724 2.9904-0.57596 4.5059 0.0262 0.99776 0.0815 1.4843 0.77375 2.2755 0.82033 1.0094 1.6203 2.0566 2.6006 2.9176 1.213 0.79413 2.8828 0.79994 3.8805 1.949 0.31416 0.62834 0.39243 1.9482 0.0815 2.0334-1.3191 0.36133-6.4462 0.51198-9.5063-0.47126-1.7279-0.56141-4.8773 0.21764-5.2855-0.54687-0.40838-0.76483 0.56724-3.9038 1.2654-5.748 0.28798-1.3759-0.02617-2.1911-0.05529-3.5845-0.0203-1.2043-0.63996-2.269-0.8785-3.4267-0.68359-2.4842-0.87848-5.0703-0.99486-7.6359-0.15125-1.2596 0.91631-2.2108 0.95994-3.4413 0.22399-1.0908 0.05824-2.2108-0.61668-3.1125-1.1723-0.0348-2.7519 0.27345-3.4093-0.98612-1.373-2.0304-2.7082-4.09-4.0783-6.1204-0.47706-0.87558-1.6232-0.66904-2.4086-1.053-0.70106-0.64579-1.0501-1.5592-1.4865-2.3824-0.25598 0.94248-0.60506 1.8879-1.3032 2.6006-1.0996 1.1054-1.4952 2.6413-2.0653 4.0434-0.40142 1.0123-0.76213 2.0508-0.90759 3.1329-0.15415 0.8174-0.18906 1.7744-0.9221 2.3097-1.0763 0.81451-1.4603 2.1875-2.4435 3.0835-0.73306 0.69812-1.181 1.6494-1.4225 2.618-0.07853 0.87559 0.17453 1.7628-0.04662 2.6268-0.39851 1.5824-1.2712 2.9787-1.9112 4.4652-0.45379 1.0443-0.68942 2.17-1.1868 3.1969-0.33162 0.71851-1.181 0.95121-1.6464 1.5534-1.3497 2.3213-1.9898 4.9443-1.3736 7.5489 0.25636 1.0838 0.74086 2.9692 0.43051 3.2609-0.29525 0.27748-1.6488 0.32581-2.4842 0.32581-0.85716 0-1.8223 0.0527-2.6732-0.0508-0.836-0.10169-1.5494-0.16742-1.8677-0.50765-0.33561-0.3588-0.3756-2.9917 0.02913-4.4245 0.60764-2.1511 1.1631-4.1329 1.7693-6.2806 0.3051-1.081-0.42118-2.0101-0.4247-3.0747-0.0052-1.5674 0.86737-2.8642 1.5824-4.1627 0.64348-1.1685 0.41337-2.5642 0.88141-3.7845 1.0214-2.6631 3.0542-4.7929 4.1481-7.4178 0.42888-1.0291-0.01355-2.1779 0.04074-3.2667 0.1028-2.0617 0.50679-4.0966 0.8494-6.1291 0.13157-0.78052 0.35722-1.6029 0.06986-2.3795-0.3381-0.91375-0.55802-1.8977-0.4218-2.8769 0.12561-0.90297-0.35134-1.7792-0.06692-2.6791 0.23156-0.73264 0.86397-1.1694 1.4137-1.6348 0.09897-3.0718-0.54205-7.8403-0.52435-8.9256 0.0139-0.85215 1.3709-1.1306 2.1184-1.4651-1.0966-0.2269-1.969-0.2435-2.6486-1.1303-0.75418-0.98425-0.50956-2.0344-0.25162-3.2447 0.40232-1.8877 0.18036-3.8398 0.47997-5.7393 0.04648-0.48288 0.57307-0.64578 0.98904-0.66323 0.99485-0.07273 1.9984-0.11926 2.9758-0.35489-0.29088-2.3999-0.53233-4.8492 0.0085-7.2374 0.52361-2.8187 1.7861-5.6753 4.151-7.4207 1.629-1.0996 3.9823-1.7483 5.684-0.43634 0.13958-0.096 0.41889-0.28507 0.55852-0.37816-0.98904-2.6675-0.74754-5.7359 0.79996-8.1537 1.0387-1.6229 1.5751-2.2126 3.7681-2.8562 1.6555-0.48582 2.3948-0.38138 3.4142-0.27968zm13.372 18.352c-0.0872 0.69814-0.0508 1.2287-0.72573 1.5632 1.0339 0.03171 1.4504-0.0013 2.4187-0.08546-0.0204-0.51197-0.0378-1.021-0.0582-1.533-0.54979 0.01162-1.0938 0.02909-1.6348 0.05527m-1.8442 1.9722c-0.0756 0.0989-0.22981 0.29089-0.30545 0.3898 0.13957 0.9454 0.84651 1.7192 1.3177 2.5395 0.68653-0.96576 1.3817-1.9315 2.0362-2.9206-1.0152-0.04655-1.7666-0.0056-3.0485-0.0087z" style="fill:#56595b;stroke-width:.29089"/>
</svg>
