<svg width="192" height="192" version="1.1" viewBox="0 0 192 192" xmlns="http://www.w3.org/2000/svg">
 <path d="m84 8c-2.216 0-4 1.784-4 4v28h-56c-2.216 0-4 1.784-4 4v20c0 2.216 1.784 4 4 4h56v28h-24c-2.216 0-4 1.784-4 4v80c0 2.216 1.784 4 4 4h20c2.216 0 4-1.784 4-4v-56h32v56c0 2.216 1.784 4 4 4h20c2.216 0 4-1.784 4-4v-80c0-2.216-1.784-4-4-4h-24v-28h56c2.216 0 4-1.784 4-4v-20c0-2.216-1.784-4-4-4h-56v-28c0-2.216-1.784-4-4-4z" style="fill:#98dc9a;paint-order:stroke fill markers;stroke-width:4"/>
 <style type="text/css">.st0{fill:#FFFFFF;}</style>
 <style type="text/css">.st0{fill:#FFFFFF;}</style>
</svg>
