<svg width="192" height="192" version="1.1" viewBox="0 0 192 192" xmlns="http://www.w3.org/2000/svg">
 <path d="m34.962 122.08c2.4179 2.394 4.1565 5.409 5.0018 8.705 1.586 6.184 4.805 16.505 9.7947 22.511 7.4647 8.986 66.661 26.556 80.661 24.53 12.622-1.826 23.794-32.154 25.872-54.967 0.227-2.493 6.316-5.138 7.253-7.285 4.185-9.586 5.998-37.89-2.605-23.248-3.313 5.6387-4.302-27.76-4.302-27.76s-130.15 15.37-136.16 27.76c-4.4795 9.2347 7.8924 23.226 14.485 29.754z" clip-rule="evenodd" fill="#fff" fill-rule="evenodd"/>
 <path d="m52.911 120.44c-0.0146 15.905 2.3522 20.881 2.3522 20.881s-6.7889-5.973-9.2422-12.327-4.3014-22.75-4.3014-22.75-2.041-6.989-7.0428-10.721c-5.0019-3.7322-7.5579-5.1737-11.831-3.3613-4.2729 1.8123-3.3165 10.282-3.3165 10.282s-3.664-13.596-3.1949-24.02c0.469-10.424 6.5114-25.813 6.5114-25.813l-7.3419 7.8695c-0.5391 0.5777-1.4265 0.3163-1.4466-0.4737-0.0701-2.7663 0.6977-8.3095 6.779-13.829 8.589-7.7961 17.148-5.8974 17.148-5.8974l-7.9537-14.912c-0.4734-0.8876 0.5126-1.84 1.3832-1.3361l14.607 8.4538s0.4515-2.2529 3.1131-8.2096c1.6169-3.6186 3.5311-5.5252 4.7847-6.4645 0.5865-0.4394 1.2801 0.03 1.2241 0.7607l-1.0651 13.913s13.966-8.1512 39.614-15.484c20.734-5.928 43.578-3.3353 51.568-2.1244 0.95 0.1441 1.144 1.4365 0.312 1.9173-2.126 1.2281-5.149 3.1678-7.574 5.4827-4.208 4.0165-7.711 10.208-7.711 10.208l30.023 1.1833c0.977 0.0385 1.324 1.3104 0.503 1.8397l-10.462 6.7428 32.379 25.359c0.627 0.4914 0.456 1.4834-0.3 1.7358l-20.671 6.9034s0.636 5.5785 0 11.098c-0.637 5.5194-3.987 23.486-3.987 23.486s-2.806-9.417-6.367-18.672c-3.56-9.2557-6.937-15.911-6.937-15.911s-10.69 1.8169-20.31 0c-9.619-1.817-30.466-9.577-30.466-9.577s-0.5597 5.9044 0 11.751 2.2831 12.098 2.2831 12.098-6.5065-1.3838-10.052-4.7101-7.5206-11.776-7.5206-11.776-0.3987 6.2219-3.4499 11.776c-0.8586 1.563-2.9781 3.7287-5.5812 6.3887-6.6478 6.7929-16.45 16.809-16.46 28.239zm-14.607 4.546c1.2389 1.975 5.8478 19.049 5.8478 19.049s-4.7088-4.776-8.4198-11.38-8.4199-18.587-8.4199-18.587 9.7531 8.942 10.992 10.918z" clip-rule="evenodd" fill="#4A4A4A" fill-rule="evenodd" style="fill:#56595b"/>
</svg>
