<svg width="192" height="192" version="1.1" viewBox="0 0 192 192" xmlns="http://www.w3.org/2000/svg">
 <path d="m116.91 40.658v38.332c0 10.154-8.231 18.386-18.386 18.386-10.154 0-18.386-8.2317-18.386-18.386v-37.715l-41.982-14.197c-7.2987-2.4682-15.32 0.6159-19.085 7.3379l-1.952 3.485c-3.7032 6.6116-2.2604 14.914 3.4562 19.889l43.153 37.552c2.6796 2.3318 4.5071 5.4891 5.1944 8.9741l11.198 56.78c1.4789 7.499 8.0547 12.904 15.698 12.904h3.4826c7.5614 0 14.091-5.294 15.654-12.692l12.071-57.125c0.719-3.403 2.527-6.4788 5.151-8.762l43.244-37.631c5.717-4.9746 7.16-13.277 3.456-19.889l-1.981-3.5368c-3.752-6.6989-11.734-9.788-19.018-7.3604l-40.969 13.654z" clip-rule="evenodd" fill="#B1B5BD" fill-rule="evenodd"/>
 <path d="m86.196 57.436c0-6.8091 5.5199-12.329 12.329-12.329 6.8096 0 12.33 5.52 12.33 12.329v20.05c0 6.8091-5.52 12.329-12.33 12.329-6.8092 0-12.329-5.52-12.329-12.329v-20.05z" fill="#B1B5BD"/>
</svg>
