<svg width="192" height="192" version="1.1" viewBox="0 0 192 192" xmlns="http://www.w3.org/2000/svg">
 <style type="text/css">.st0{fill:#FFFFFF;}</style>
 <path d="m96 19.5v0.5l-56 72 56 80v0.5h66.5c5.54 0 10-4.46 10-10v-133c0-5.54-4.46-10-10-10z" style="fill:#ff837d;stroke-width:4"/>
 <path d="m29.5 19.5c-5.54 0-10 4.46-10 10v133c0 5.54 4.46 10 10 10h66.5v-153z" style="fill:#98dc9a;paint-order:stroke fill markers"/>
 <path d="m96 60v72h13.5c1.2426-1.2e-4 2.2499-1.0074 2.25-2.25v-2.25c-9.2e-4 -1.1721-0.90147-2.1472-2.0698-2.2412l-4e-3 -4e-3c-0.0404-8e-3 -0.16232-0.0424-0.36472-0.154-0.4108-0.2264-1.1608-0.76976-2.0522-2.1841-1.6285-2.5837-3.4828-8.7843-4.1309-19.789 11.004 0.64812 17.205 2.5024 19.789 4.1309 1.4144 0.89144 1.9578 1.6414 2.1841 2.0522 0.11316 0.2056 0.14892 0.3308 0.1582 0.3692 0.0939 1.1683 1.069 2.0688 2.2411 2.0698h2.25c1.2426-1.2e-4 2.2499-1.0074 2.25-2.25v-27c-6e-5 -1.2426-1.0074-2.2499-2.2499-2.25h-2.25c-1.1721 9.2e-4 -2.1472 0.90144-2.2412 2.0698-1e-3 0.0015-3e-3 3e-3 -4e-3 4e-3 -0.01 0.0404-0.0423 0.1624-0.1538 0.3648-0.22628 0.4108-0.76974 1.1608-2.1841 2.0523-2.5837 1.6285-8.7843 3.4828-19.789 4.1308 0.64809-11.004 2.5024-17.205 4.1309-19.789 0.89145-1.4144 1.6414-1.9578 2.0522-2.1841 0.20544-0.1132 0.33072-0.1488 0.36916-0.158 1.1683-0.094 2.0689-1.069 2.0698-2.2412v-2.25c-1.2e-4 -1.2426-1.0074-2.2499-2.25-2.25z" style="color-rendering:auto;color:#000000;dominant-baseline:auto;fill:#fff;font-feature-settings:normal;font-variant-alternates:normal;font-variant-caps:normal;font-variant-ligatures:normal;font-variant-numeric:normal;font-variant-position:normal;image-rendering:auto;isolation:auto;mix-blend-mode:normal;paint-order:stroke fill markers;shape-padding:0;shape-rendering:auto;solid-color:#000000;text-decoration-color:#000000;text-decoration-line:none;text-decoration-style:solid;text-indent:0;text-orientation:mixed;text-transform:none;white-space:normal"/>
 <path d="m96 62.25v67.5h13.5v-2.25s-8.0803-0.05-8.9165-26.917c26.866 0.8362 26.916 8.9165 26.916 8.9165h2.25v-27h-2.25s-0.05 8.0803-26.916 8.9165c0.8362-26.867 8.9165-26.917 8.9165-26.917v-2.25z" style="fill:#56595b;paint-order:stroke fill markers;stroke-width:2.25"/>
 <path d="m96 60v54l-22.5 18 6.75-27-20.25-18 24.75-2.25z" style="fill:#fff;stroke-width:2.25"/>
</svg>
