<?xml version="1.0" encoding="UTF-8" standalone="no"?>
<svg
   xmlns:dc="http://purl.org/dc/elements/1.1/"
   xmlns:cc="http://creativecommons.org/ns#"
   xmlns:rdf="http://www.w3.org/1999/02/22-rdf-syntax-ns#"
   xmlns:svg="http://www.w3.org/2000/svg"
   xmlns="http://www.w3.org/2000/svg"
   xmlns:sodipodi="http://sodipodi.sourceforge.net/DTD/sodipodi-0.dtd"
   xmlns:inkscape="http://www.inkscape.org/namespaces/inkscape"
   width="192"
   height="192"
   version="1.1"
   viewBox="0 0 192 192"
   id="svg14"
   sodipodi:docname="dopewars.svg"
   inkscape:version="0.92.5 (2060ec1f9f, 2020-04-08)">
  <metadata
     id="metadata20">
    <rdf:RDF>
      <cc:Work
         rdf:about="">
        <dc:format>image/svg+xml</dc:format>
        <dc:type
           rdf:resource="http://purl.org/dc/dcmitype/StillImage" />
        <dc:title></dc:title>
      </cc:Work>
    </rdf:RDF>
  </metadata>
  <defs
     id="defs18" />
  <sodipodi:namedview
     pagecolor="#ffffff"
     bordercolor="#666666"
     borderopacity="1"
     objecttolerance="10"
     gridtolerance="10"
     guidetolerance="10"
     inkscape:pageopacity="0"
     inkscape:pageshadow="2"
     inkscape:window-width="1280"
     inkscape:window-height="745"
     id="namedview16"
     showgrid="true"
     inkscape:zoom="2.3828026"
     inkscape:cx="78.832398"
     inkscape:cy="92.071724"
     inkscape:window-x="-12"
     inkscape:window-y="-2"
     inkscape:window-maximized="1"
     inkscape:current-layer="svg14"
     inkscape:document-rotation="0">
    <inkscape:grid
       type="xygrid"
       id="grid819"
       spacingx="4"
       spacingy="4" />
  </sodipodi:namedview>
  <path
     inkscape:connector-curvature="0"
     style="fill:#98dc9a"
     d="m 184,130.37 c 0,0 -21.83,-12.61 -48.76,-12.61 -1.45,0 -2.88,0 -4.29,0.11 a 83.53,83.53 0 0 0 6.64,-6 c 19,-19 25.15,-43.8 25.15,-43.8 0,0 -24.74,6.13 -43.8,25.17 a 88.57,88.57 0 0 0 -9,10.56 151,151 0 0 0 2.34,-26 C 112.29,39.24 96,8 96,8 96,8 79.71,39.24 79.71,77.78 a 151,151 0 0 0 2.34,26 88.57,88.57 0 0 0 -9,-10.56 c -19,-19 -43.8,-25.15 -43.8,-25.15 0,0 6.11,24.76 25.15,43.8 a 83.53,83.53 0 0 0 6.64,6 C 59.63,117.8 58.2,117.76 56.75,117.76 29.83,117.76 8,130.37 8,130.37 8,130.37 29.83,143 56.76,143 a 94.47,94.47 0 0 0 17,-1.59 l -0.63,0.62 c -12.64,12.64 -15.22,30.57 -15.22,30.57 0,0 17.92,-2.6 30.57,-15.26 0.62,-0.62 1.21,-1.25 1.78,-1.9 V 181 a 3,3 0 0 0 3,3 h 5.48 a 3,3 0 0 0 3,-3 v -25.56 c 0.57,0.65 1.16,1.28 1.78,1.9 12.65,12.65 30.57,15.23 30.57,15.23 0,0 -2.58,-17.93 -15.22,-30.57 l -0.42,-0.42 A 92.55,92.55 0 0 0 135.24,143 C 162.17,143 184,130.37 184,130.37 Z"
     id="path6" />
</svg>
