<svg width="192" height="192" version="1.1" viewBox="0 0 192 192" xmlns="http://www.w3.org/2000/svg">
 <rect x="19.5" y="19.5" width="153" height="153" rx="10" style="fill:#ff837d;stroke-width:4"/>
 <path d="m40 19.6s16 4.4 24 4.4c2.9814 0 5.0186 4 8 4 12 0 16-8.4 16-8.4z" style="fill:#ba6561;stroke-width:4"/>
 <path d="m172.4 72s-8.4 0.0644-8.4 8c0 4 4 2.0545 4 4v4c0 2.728 4.4 0 4.4 4s-4.4 2.821-4.4 8c0 5.9926 4.4 8 4.4 8z" style="fill:#ba6561;stroke-width:4"/>
 <path d="m100 172.4s4-4.4 8-4.4 5.0186 4.4 8 4.4c8 0 10.284-8.4 20-8.4 8 0 16 8.4 16 8.4z" style="fill:#ba6561;stroke-width:4"/>
 <path d="m19.6 132s8.4-1.6334 8.4-8c0-2.9814-4-5.0186-4-8v-12c0-5.5457-4.4-8-4.4-8z" style="fill:#ba6561;stroke-width:4"/>
 <path d="m122.8 60.234c-0.15588 4e-3 -0.31056 0.028-0.46094 0.0704l-13.016 3.461c-1.6304 0.43396-2.0242 2.5672-0.65625 3.5547l17.492 12.609c1.2118 0.86724 2.9124 0.1524 3.1406-1.3203l1.8359-12c0.11856-0.78084-0.23344-1.5583-0.89843-1.9844l-6.3047-4.0703c-0.33692-0.218-0.73163-0.3296-1.1328-0.3204zm-56.508 0.2032c-0.08376 0.0026-0.16724 0.012-0.25 0.024l-7.5234 1.0156c-1.6187 0.2152-2.3114 2.1747-1.1875 3.3594l58.984 62.031c0.33704 0.3556 0.79298 0.57536 1.2812 0.61716l12 1.0156c0.92567 0.078 1.7832-0.49152 2.0703-1.375l5.6953-17.695c0.27324-0.84896-0.0486-1.7763-0.78907-2.2734l-69.148-46.376c-0.33428-0.2264-0.72917-0.346-1.1328-0.3436zm2.0234 43.531c-0.79036 8e-3 -1.5007 0.4846-1.8125 1.2109l-6.1016 14.234c-0.37028 0.86264-0.09084 1.8667 0.67188 2.414l10.781 7.7266c0.51733 0.374 1.182 0.47832 1.7891 0.2812l13.016-4.2734c1.4138-0.4664 1.8408-2.2588 0.78906-3.3125l-17.695-17.695c-0.38076-0.3808-0.89899-0.59212-1.4375-0.58592z" style="color-rendering:auto;color:#000000;dominant-baseline:auto;fill:#ba6561;font-feature-settings:normal;font-variant-alternates:normal;font-variant-caps:normal;font-variant-ligatures:normal;font-variant-numeric:normal;font-variant-position:normal;image-rendering:auto;isolation:auto;mix-blend-mode:normal;shape-padding:0;shape-rendering:auto;solid-color:#000000;text-decoration-color:#000000;text-decoration-line:none;text-decoration-style:solid;text-indent:0;text-orientation:mixed;text-transform:none;white-space:normal"/>
</svg>
