<svg width="192" height="192" version="1.1" viewBox="0 0 192 192" xmlns="http://www.w3.org/2000/svg">
 <path d="m133.87 8.2344c-1.1872 0.0532-2.2894 0.63144-3.0078 1.5781-3.6652 4.8526-5.4559 11.372-6.6484 16.836-0.75379 3.4537-0.79592 4.4992-1.0234 6.2812-3.6084-0.1328-14.839-0.59736-22.68-0.25-10.904 0.48312-22.082 2.051-32.039 3.1953-1.2716-2.0828-2.9672-6.1744-4.4922-10.641-0.87322-2.5574-1.7209-4.981-2.9766-7.1094-0.62782-1.0642-1.3516-2.107-2.5781-3-1.2265-0.89304-3.2535-1.4661-5.0078-1.0312-1.2282 0.3044-2.1648 1.1491-2.6563 1.8437-0.4914 0.69468-0.69663 1.2855-0.84375 1.8203-0.29424 1.0697-0.33768 1.9888-0.34376 3.0078-0.012 2.0381 0.25336 4.4136 0.70312 7.0937 0.83536 4.9779 2.4429 10.823 4.3672 15.969-2.3828 9.8356-4.7878 33.97-3.9219 52.086-15.987 12.451-18.711 27.93-18.711 27.93-0.49972 3.5344 3.5286 5.904 6.375 3.75 0 0 0.07604-0.0532 0.07812-0.0548-0.3248 4.1981-0.07032 7.5078-0.07032 7.5078 0.66554 3.0293 4.376 4.1818 6.6406 2.0625l7.5313-7.0469c0.46655 5.8464 0.9352 14.565 3.3672 26.227 0.80152 3.8434 3.197 7.1984 6.5937 9.1953 1.7935 1.0543 3.8211 1.7628 6.0469 2.2266-0.0104 1.1598 0.0356 2.3327 0.22656 3.4844 0.206 1.2423 0.31232 3.8684 0.91406 6.4531 0.30088 1.2924 0.68756 2.6606 1.7813 4.0625 1.0937 1.4018 3.4559 2.6044 5.5625 2.3672 2.4732-0.2784 3.4876-1.9324 4.0547-2.9687 0.14228-0.26 0.17548-0.525 0.28908-0.78128 0.76237 0.77816 1.342 1.7541 2.9688 1.7422 1.69-0.012 3.4529-0.81588 4.5391-1.9062 0.75618-0.75916 1.0432-1.5994 1.4063-2.4219 0.41022 0.0824 0.39996 0.49116 0.89844 0.44532 1.8673-0.1716 3.2104-1.4359 3.8516-2.3906s0.92649-1.8101 1.1641-2.6719c0.42591-1.545 0.60044-3.1418 0.71875-4.7188 3.0581-8e-3 6.1187 0.024 9.1641 0.04 0.0192 0.91984 0.068 1.8406 0.21876 2.75 0.206 1.2423 0.30452 3.8684 0.90625 6.4531 0.30088 1.2924 0.68756 2.6607 1.7812 4.0625 1.0937 1.4018 3.4637 2.6044 5.5703 2.3672 1.3026-0.1468 2.47-0.9462 3.0859-1.6797 0.11632-0.1384 0.11-0.2416 0.20312-0.3748 0.36508 0.0848 0.32532 0.45636 0.76563 0.45316 1.53-0.012 3.0676-0.9926 4.1484-2.0938 0.61505 0.42912 1.4877 0.98132 2.8984 0.85156 1.096-0.1008 2.4227-0.77872 3.1406-1.6562 0.71789-0.87756 0.94382-1.7249 1.0547-2.3828 0.22176-1.3158 0.0543-2.2064-0.125-3.1562-0.31176-1.6513-0.88484-3.3711-1.5156-5.0938 3.7794 0.024 7.2045-0.73324 9.9766-2.4687 3.0946-1.9374 5.295-5.257 5.5781-8.9766 1.3316-17.491 0.39088-31.313 0.27344-33.195l0.46875-0.3828c0.51354 0.80228 0.99313 1.6089 1.7344 2.375 0.52286 0.54036 1.119 1.0922 2.0391 1.5547s2.3654 0.81824 3.8203 0.3984c1.5775-0.45516 2.7103-1.791 3.1719-2.8047 0.46154-1.0137 0.56127-1.849 0.61718-2.6484 0.11184-1.5989-0.0728-3.1345-0.32032-4.7656-0.495-3.2623-1.3671-6.8306-1.8047-9.0625-1.9438-9.9144-8.2386-26.066-8.5859-26.961-0.0256-0.67856-0.50875-13.592-1.1328-20.656-0.75296-8.5236-2.4566-18.816-3.8672-28.024-1.4106-9.2079-2.4299-17.668-2.1719-20.766 0.2004-2.406-1.7601-4.4399-4.1719-4.3281z" style="color-rendering:auto;color:#000000;dominant-baseline:auto;fill:#56595b;font-feature-settings:normal;font-variant-alternates:normal;font-variant-caps:normal;font-variant-ligatures:normal;font-variant-numeric:normal;font-variant-position:normal;image-rendering:auto;isolation:auto;mix-blend-mode:normal;paint-order:stroke fill markers;shape-padding:0;shape-rendering:auto;solid-color:#000000;text-decoration-color:#000000;text-decoration-line:none;text-decoration-style:solid;text-indent:0;text-orientation:mixed;text-transform:none;white-space:normal"/>
 <path d="m72.632 168.24c0.0092 0.81368 0.0031 1.6562 0.10936 2.2969 0.56228 3.3906 0.45182 9.9472 3.8672 9.5625 1.6757-0.1888 2.5874-6.3783 3.1016-11.711-1.5652-0.012-3.1117 0.016-4.6797-8e-3 -0.8313-0.012-1.6097-0.0832-2.3984-0.1408zm8.4844 0.1484c0.65622 4.6451 1.6835 9.6909 3.2187 9.6797 3.1387-0.024 3.5494-5.09 3.3438-9.6719-2.1881 4e-3 -4.3687 3e-3 -6.5625-8e-3zm7.1953 8e-3c0.69888 3.0183 1.5891 5.8913 2.5313 5.8047 1.269-0.1168 1.8332-2.8635 2.0859-5.7969-1.5361 4e-3 -3.0781-0.012-4.6172-8e-3zm21.859 0.078c0.016 0.71992 6e-3 1.4872 0.10156 2.0625 0.56227 3.3907 0.444 9.9472 3.8594 9.5625 1.6251-0.1832 1.287-6.2049 0.6875-11.578-1.5458-0.032-3.0991-0.032-4.6484-0.0468zm4.8203 0.0548c0.86253 4.8275 2.1085 9.9564 3.6172 9.9453 3.0762-0.024 2.5174-5.0837 1.4219-9.7656-1.6798-0.0556-3.3549-0.146-5.0391-0.1796zm5.6641 0.2032c1.6813 4.3292 3.5782 8.6233 4.6641 8.5234 1.4863-0.1368 0.15824-4.4116-1.3984-8.4141-1.0863-0.0488-2.1775-0.0716-3.2656-0.1092z" style="fill:#fff;paint-order:stroke fill markers;stroke-width:4"/>
 <path d="m134.05 12.227c-5.8498 7.745-7.4844 24.734-7.4844 24.734s-17.262-0.66324-25.883-0.2812c-11.552 0.51184-23.887 2.2809-34.516 3.4453-5.0751-5.5251-6.9354-23.354-11.797-22.148-2.1764 0.53952 0.31636 15.519 4.3125 25.602-2.0371 7.7222-4.7158 32.322-4.1563 50.242 0.41503 0.1276 0.53276 0.1392 1.1484 0.3828 1.21 0.4784 2.6358 0.98212 3.7187 2.4219 7.7506 10.305 13.565 24.234 15.07 27.984a11.085 12.102 0 0 1 6.8203-2.5781 11.085 12.102 0 0 1 10.375 7.875c1.6383 0.0516 3.2853 0.0856 4.9609 0.0704a2.0002 2.0002 0 0 1 0.33592-0.1172s3.8071-0.9766 8.5547-2.7344c0.55672-0.206 1.1497-0.4594 1.7266-0.68752a10.068 11.39 0 0 1 9.4375-7.4531 10.068 11.39 0 0 1 3.0156 0.53904c2.4088-2.2514 4.4048-6.3843 6.3594-11.273 2.048-5.123 4.1178-10.948 7.3438-15.977 1.0894-1.6981 3.1511-3.8256 5.0547-5.7656 1.6266-1.6577 2.6767-2.6547 3.0703-3.0312-0.02-0.052-0.28124-0.78128-0.28124-0.78128s-0.53158-14.01-1.1484-20.992c-1.462-16.549-6.7451-41.002-6.039-49.477zm8.9688 75.391c-0.64022 0.62264-0.81214 0.76352-1.7188 1.6875-1.8486 1.884-3.9589 4.2284-4.5391 5.1328-2.8813 4.4914-4.9063 10.079-6.9922 15.297-1.83 4.5776-3.6622 8.9168-6.5625 12a10.068 11.39 0 0 1 1.8906 2.4297c9.2844-3.8477 14.844-8.1719 14.844-8.1719a2.0002 2.0002 0 0 1 1.2422-0.45312 2.0002 2.0002 0 0 1 1.2344 3.5937s-6.0368 4.6374-15.938 8.7422a10.068 11.39 0 0 1 0.2578 2.5 10.068 11.39 0 0 1-10.062 11.391 10.068 11.39 0 0 1-9.7188-8.4844c-2.7084 0.38-5.513 0.64436-8.4375 0.71876-2.0789 0.0528-4.1297 0.036-6.1562-0.016a11.085 12.102 0 0 1 8e-3 0.1484 11.085 12.102 0 0 1-11.086 12.102 11.085 12.102 0 0 1-11.086-12.102 11.085 12.102 0 0 1 0.2578-2.5078c-5.9004-1.069-11.016-2.2688-14.344-3.1953 0.0029 0.032 0.0128 0.0912 0.0156 0.1248v0.032a2.0025 2.0025 0 0 1 8e-3 0.086c0.55257 6.4391 1.549 16.468 3.7031 26.797 1.2018 5.763 6.2609 8.789 15.242 8.9219 17.353 0.2568 34.734-0.3884 52.062 0.57028 7.3595 0.4072 12.281-2.8303 12.656-7.7656 1.393-18.298 0.28908-34.805 0.28908-34.805l3.1641-2.586 2.0156-2.875s3.4309 8.1457 5.75 7.4766c2.2649-0.65348-0.20476-9.8586-1.1484-14.672-1.3739-7.0079-4.8668-16.736-6.8516-22.117zm-88.75 10.336c-16.22 11.782-18.305 26.453-18.305 26.453s5.3168-4.0388 8.0547-4.0312c-3.2609 6.8495-1.7266 13.812-1.7266 13.812l8.1797-7.6484a2.0002 2.0002 0 0 1 1.1875-3.4688l-0.33596-4.125a2.0002 2.0002 0 0 1 2-2.1953 2.0002 2.0002 0 0 1 1.9844 1.8672l0.45312 5.5156c2.9844 0.88624 7.894 2.2475 15.68 3.6328a2.0002 2.0002 0 0 1-0.05468-0.1328s-6.8074-17.45-15.195-28.602c-0.0104-0.012-0.98461-0.69364-1.9219-1.0781z" style="fill:#fff;paint-order:stroke fill markers;stroke-width:4"/>
 <ellipse cx="110.9" cy="76.442" rx="2.8764" ry="4.8179" style="fill:#56595b;paint-order:stroke fill markers;stroke-width:4"/>
 <path d="m115.04 56.75c-0.48653 1e-3 -0.97646 0.0404-1.4688 0.1092-3.9383 0.553-7.1317 3.2237-9.0781 6.8203s-2.7508 8.1628-2.0781 12.953c0.67264 4.7903 2.7008 8.9692 5.5625 11.891 2.8617 2.9215 6.6711 4.6077 10.609 4.0547 3.9383-0.553 7.1317-3.2237 9.0781-6.8203s2.7351-8.1707 2.0625-12.961c-0.67263-4.7902-2.693-8.9613-5.5547-11.883-2.504-2.5563-5.7271-4.1714-9.1328-4.164zm-34.055 1.0469c-8.9318 0-15.828 8.6054-15.828 18.781 0 10.176 6.8963 18.781 15.828 18.781 8.9318 0 15.828-8.6054 15.828-18.781s-6.8963-18.781-15.828-18.781zm35.039 2.7422c1.9292 0.252 3.8135 1.2786 5.4844 2.9844 0.74647 0.76208 1.4053 1.6964 2.0156 2.7031-1.7389-0.0404-3.8698-0.028-5.6172 0.258-4.7841 0.78252-8.3274 2.1442-10.695 3.3359-0.46253 0.2328-0.68344 0.40548-1.0625 0.625 0.29076-1.8587 0.84174-3.5593 1.6172-4.9922 1.5153-2.8 3.7343-4.5431 6.3203-4.9062 0.64651-0.0908 1.2944-0.092 1.9375-8e-3zm-35.039 0.95312c4.2975 0 8.1662 2.8876 10.328 7.2812-1.0813 0.5846-8.0524 4.3353-11.906 5.25-1.9591 0.465-4.5873 0.891-6.7656 1.1406-1.0892 0.1248-2.0739 0.2016-2.7812 0.2264-0.35368 0.012-0.64482 8e-3 -0.80469 0-0.15988-8e-3 -0.27416-0.1332 0.21092 0.1092a2.0002 2.0002 0 0 0-0.31252-0.1248c0.50931-7.919 5.8358-13.883 12.031-13.883zm41.984 8.7578c1.3055 8e-3 2.0457 0.0424 2.4062 0.0548 0.29052 0.95748 0.51713 1.9614 0.66406 3.0078 0.56932 4.0545-0.14096 7.8641-1.6562 10.664-1.5153 2.8-3.7343 4.5509-6.3203 4.914-2.5861 0.3632-5.194-0.70996-7.4219-2.9844s-3.9619-5.7424-4.5312-9.7969c-0.0411-0.2924-0.0268-0.5696-0.0547-0.85936a2.0002 2.0002 0 0 0 0.1172-0.1016s0.81148-0.72716 2.8437-1.75c2.0323-1.0228 5.1737-2.2469 9.5391-2.961 0.99511-0.1628 2.8288-0.1968 4.4141-0.1876zm-30.328 2.3594c0.279 1.267 0.47656 2.577 0.47656 3.9688 0 8.5256-5.6208 15.078-12.133 15.078-5.7741 0-10.823-5.1626-11.898-12.273 0.2906 8e-3 0.57981 0.02 0.91406 8e-3 0.87419-0.032 1.9313-0.1244 3.0938-0.2576 2.325-0.2664 5.0372-0.69724 7.2344-1.2187 4.753-1.1281 10.55-4.3169 12.312-5.3047zm2.3438 26.172c-1.1318 0.032-2.2526 0.1528-3.3359 0.328a2.0002 2.0002 0 0 0-1.6797 1.8203c-0.29788 3.8758 1.4949 7.8819 3.2031 11.117 1.7082 3.2353 3.4844 5.6719 3.4844 5.6719a2.0002 2.0002 0 0 0 3.3594-0.2032s1.2884-2.3095 2.6328-5.1563 2.7909-6.0929 3.1016-8.8125a2.0002 2.0002 0 0 0-0.76562-1.8125c-2.0511-1.5749-4.3068-2.4075-6.5859-2.7578-1.1396-0.1752-2.2823-0.2284-3.4141-0.1952zm1.1562 4.086c0.54296-0.032 1.0749-0.036 1.5859 0.04 1.2785 0.1896 2.4296 0.83324 3.5781 1.4844-0.43254 1.6998-1.2117 4.0173-2.2734 6.2656-0.4707 0.99672-0.52445 1.0293-0.92187 1.8047-0.56584-0.89068-0.71139-0.98-1.3984-2.2812-1.2541-2.3754-1.9059-4.9708-2.2109-7.1798 0.54368-0.036 1.0977-0.0992 1.6406-0.1328z" style="color-rendering:auto;color:#000000;dominant-baseline:auto;fill:#56595b;font-feature-settings:normal;font-variant-alternates:normal;font-variant-caps:normal;font-variant-ligatures:normal;font-variant-numeric:normal;font-variant-position:normal;image-rendering:auto;isolation:auto;mix-blend-mode:normal;paint-order:stroke fill markers;shape-padding:0;shape-rendering:auto;solid-color:#000000;text-decoration-color:#000000;text-decoration-line:none;text-decoration-style:solid;text-indent:0;text-orientation:mixed;text-transform:none;white-space:normal"/>
 <ellipse transform="rotate(15.182)" cx="102.9" cy="52.319" rx="3.7119" ry="5.7458" style="fill:#56595b;paint-order:stroke fill markers;stroke-width:4"/>
 <path d="m141.19 105.97 1.017 20.136" style="fill:none;stroke-linecap:round;stroke-linejoin:round;stroke-width:4px;stroke:#4a4a4a"/>
 <style type="text/css">.st0{fill:#FFFFFF;}</style>
 <style type="text/css">.st0{fill:#FFFFFF;}</style>
</svg>
