<svg enable-background="new 0 0 192 192" version="1.1" viewBox="0 0 192 192" xml:space="preserve" xmlns="http://www.w3.org/2000/svg"><circle class="st0" cx="96" cy="96" r="88" style="fill:#f8c18c;stroke-width:1.76"/><path class="st1" d="m71.809 61.029v70.013c0 1.6568 1.1558 2.3157 2.5816 1.4718 8.581-5.0792 36.874-21.821 59.266-35.017 1.4274-0.84118 1.4274-2.2044-3.1e-4 -3.0452l-59.263-34.9a1.7148 1.7148 150.25 0 0-2.585 1.4776z" style="fill-opacity:0;stroke-width:1.232"/><path class="st0" d="m83.76 81.726v28.495c0 1.6568 1.1569 2.3176 2.5842 1.4762 4.7699-2.812 15.281-9.0049 24.149-14.207 1.4291-0.83827 1.4304-2.1982 2e-3 -3.0382l-24.149-14.206a1.7158 1.7158 150.23 0 0-2.5858 1.4789z" style="fill-opacity:0;stroke-width:1.232"/><rect class="st0" x="83.76" y="102.87" width="7.6383" height="25.872" style="fill-opacity:0;stroke-width:1.232"/><style type="text/css">
	.st0{fill:#CD201F;}
	.st1{fill:#FFFFFF;}
</style><path d="m65.695 68.312-9.9297 3.5469 0.14062 9 4.0938 1.6719v11.414l-20 8.4531v9.6016l8 8v49.664a88 88 0 0 0 4 2.4531v-53.781l8-3.3359v61.217a88 88 0 0 0 4 1.6641v-64.545l32-13.336 32 13.336v64.633a88 88 0 0 0 4-1.791v-61.178l8 3.3359v53.748a88 88 0 0 0 4-2.3594v-49.725l8-8v-9.6016l-20-8.4531v-11.414l4.0938-1.6719 0.14063-9-9.9297-3.5469-30.305 11.688-30.305-11.688zm-0.23437 2.7734 30.539 12.914 30.539-12.914 5.6719 1.5547-30.914 12.938 45.148 18.852-5.7266 3.2812-44.719-17.711-44.719 17.711-5.7266-3.2812 45.148-18.852-30.914-12.938 5.6719-1.5547zm-1.4609 13.078 9.7266 3.9766-9.7266 4.1094v-8.0859zm64 0v8.0859l-9.7266-4.1094 9.7266-3.9766z" style="fill:#fefeff;paint-order:stroke fill markers;stroke-width:4"/></svg>
