<svg width="192" height="192" version="1.1" viewBox="0 0 192 192" xmlns="http://www.w3.org/2000/svg">
 <rect x="20" y="20" width="152" height="152" rx="10" fill="#fff"/>
 <path d="m97.724 83.611c3.9178 0 7.5898-1.913 9.8348-5.1244l2.866-4.0999h-27.008l-29.092 41.614h12.992l8.6546-12.847h11.84l6.4002-9.1554h-11.84l7.5886-10.387h7.7636z" clip-rule="evenodd" fill="#4A4A4A" fill-rule="evenodd"/>
 <path d="m114.8 74 34.463 1.5123-36.501 1.5122 2.038-3.0245zm-4.077 6.0491 2.039-3.0246 34.462 1.5123-36.501 1.5123zm-2.038 3.0245 2.038-3.0245 34.463 1.5123-36.501 1.5122zm-2.039 3.0246 2.039-3.0246 34.463 1.5123-36.502 1.5123zm-2.038 3.0245 2.038-3.0245 34.463 1.5123-36.501 1.5122zm-2.038 3.0246 2.038-3.0246 34.463 1.5123-36.501 1.5123zm-2.039 3.0245 2.039-3.0245 34.462 1.5123-36.501 1.5122zm-2.0382 3.0246 2.0382-3.0246 34.463 1.5123-36.501 1.5123zm-2.0384 3.0246 2.0384-3.0246 34.463 1.5123-36.502 1.5123zm0 0 34.463 1.512-36.501 1.512 2.0384-3.024zm9.6996 2.664 23.262 1.512-25.301 1.512 2.039-3.024zm21.224 4.536-23.263-1.512-2.038 3.025-2.039 3.024-2.038 3.025 25.301-1.512-23.263-1.513 25.302-1.512-23.263-1.512 25.301-1.513z" clip-rule="evenodd" fill="#FF837D" fill-rule="evenodd"/>
</svg>
