<svg width="192" height="192" fill="none" version="1.1" viewBox="0 0 192 192" xmlns="http://www.w3.org/2000/svg">
 <path d="m69.827 182.22c1.8424 0.914 4.0569 0.607 5.5811-0.774l11.641-10.55c1-0.906 2.3239-1.37 3.6708-1.285l7.2801 0.457 6.6968-0.393c1.34-0.079 2.656 0.385 3.651 1.286l11.753 10.651c1.514 1.373 3.71 1.685 5.547 0.79l21.699-10.571c1.822-0.887 2.927-2.787 2.8-4.81l-0.973-15.406c-0.079-1.253 0.316-2.49 1.107-3.465l9.609-11.843c0.773-0.953 1.869-1.588 3.079-1.785l14.401-2.344c2.039-0.332 3.664-1.884 4.09-3.906l5.113-24.319c0.412-1.961-0.386-3.9789-2.028-5.127l-11.121-7.7748c-1.027-0.7176-1.746-1.7943-2.017-3.0172l-3.532-15.954c-0.266-1.2008-0.08-2.4575 0.523-3.5297l6.06-10.787c1.012-1.8012 0.812-4.0393-0.504-5.6325l-16.544-20.037c-1.276-1.5454-3.351-2.1796-5.273-1.6114l-11.215 3.3158c-1.19 0.3518-2.468 0.2485-3.586-0.2898l-15.096-7.2681c-1.119-0.5384-1.997-1.4737-2.464-2.6238l-4.166-10.259c-0.768-1.8925-2.611-3.1272-4.653-3.1188l-26.675 0.1105c-2.0275 0.0084-3.8491 1.2403-4.6119 3.1187l-4.2316 10.421c-0.4623 1.1385-1.3278 2.0669-2.4311 2.608l-14.537 7.129c-1.1254 0.5519-2.4171 0.661-3.6191 0.3056l-11.146-3.2955c-1.9308-0.5708-4.0156 0.0721-5.2895 1.6313l-16.729 20.475c-1.3012 1.5926-1.4945 3.8196-0.4872 5.6126l6.1399 10.929c0.6008 1.0695 0.7875 2.3225 0.5246 3.5206l-3.2305 14.723c-0.2691 1.2264-0.9898 2.3068-2.0189 3.0262l-11.177 7.8139c-1.6394 1.1462-2.438 3.1593-2.0301 5.1173l5.186 24.898c0.422 2.026 2.0489 3.583 4.0917 3.915l14.407 2.345c1.2192 0.198 2.3218 0.841 3.0952 1.804l8.9118 11.096c0.7809 0.973 1.1702 2.202 1.0916 3.446l-0.9843 15.588c-0.1269 2.009 0.9635 3.899 2.7666 4.794l21.854 10.85zm63.173-86.22c0 19.33-15.67 35-35 35-19.33 0-35-15.67-35-35s15.67-35 35-35c19.33 0 35 15.67 35 35z" clip-rule="evenodd" fill="#B1B5BD" fill-rule="evenodd" style="fill:#d3b69a"/>
 <path d="m98 41c-30.257 0-55 24.743-55 55 0 30.257 24.743 55 55 55 30.257 0 55-24.743 55-55 0-30.257-24.743-55-55-55zm0 20c19.449 0 35 15.552 35 35 0 19.449-15.551 35-35 35-19.448 0-35-15.551-35-35 0-19.448 15.552-35 35-35z" style="color-rendering:auto;color:#000000;dominant-baseline:auto;fill:#000;font-feature-settings:normal;font-variant-alternates:normal;font-variant-caps:normal;font-variant-ligatures:normal;font-variant-numeric:normal;font-variant-position:normal;image-rendering:auto;isolation:auto;mix-blend-mode:normal;opacity:.25;shape-padding:0;shape-rendering:auto;solid-color:#000000;text-decoration-color:#000000;text-decoration-line:none;text-decoration-style:solid;text-indent:0;text-orientation:mixed;text-transform:none;white-space:normal"/>
</svg>
