<svg width="192" height="192" version="1.1" viewBox="0 0 192 192" xmlns="http://www.w3.org/2000/svg">
 <path d="m8 112s0 60 88 60 88-60 88-60 0-92-88-92-88 92-88 92z" style="fill:#56595b"/>
 <path d="m30.516 107.7s4.8382 4.9972 8.9331 5.3779c7.5208 0.69929 17.713-0.81304 17.713-0.81304s-7.8959-0.63871-17.294-1.2853c-3.7946-0.26109-9.3528-3.2796-9.3528-3.2796z" style="fill:#83868c"/>
 <path d="m39.468 99.116c0.06838-4.0469 6.1946-6.3479 10.238-6.5286 3.0055-0.1343 6.3573 1.6422 8.0124 4.1546 1.5004 2.2776 2.5027 6.213 0.59351 8.1607-2.6348 2.6881-7.7121 0.6156-11.277-0.59351-2.8971-0.9827-7.6189-2.1344-7.5672-5.1932z" style="fill:#ffd6d4"/>
 <ellipse transform="rotate(18.253)" cx="128.23" cy="-5.239" rx="18.968" ry="7.0325" style="fill:#83868c;paint-order:stroke fill markers;stroke-width:.91306"/>
 <rect x="32" y="92" width="44" height="16" ry="8" style="fill:#ff837d;paint-order:stroke fill markers"/>
 <rect x="36" y="96" width="20" height="4" ry="2" style="fill:#ffd6d4;paint-order:stroke fill markers"/>
 <path d="m63.505 88.284s3.3707-0.09621 8.1607 0.44513c4.3094 0.48702 7.1221 6.5286 7.1221 6.5286s-0.75995-5.9607-4.4513-7.4189c-4.8137-1.9014-10.832 0.44513-10.832 0.44513z" style="fill:#83868c"/>
 <path d="m161.48 107.7s-4.8382 4.9972-8.9331 5.3779c-7.5208 0.69929-17.713-0.81304-17.713-0.81304s7.8959-0.63871 17.294-1.2853c3.7946-0.26109 9.3528-3.2796 9.3528-3.2796z" style="fill:#83868c"/>
 <path d="m152.53 99.116c-0.0684-4.0469-6.1946-6.3479-10.238-6.5286-3.0055-0.1343-6.3573 1.6422-8.0124 4.1546-1.5004 2.2776-2.5027 6.2129-0.5935 8.1607 2.6348 2.6881 7.712 0.6156 11.277-0.59351 2.8971-0.98271 7.6189-2.1344 7.5672-5.1932z" style="fill:#ffd6d4"/>
 <rect transform="scale(-1,1)" x="-160" y="92" width="44" height="16" ry="8" style="fill:#ff837d;paint-order:stroke fill markers"/>
 <rect transform="scale(-1,1)" x="-140" y="96" width="20" height="4" ry="2" style="fill:#ffd6d4;paint-order:stroke fill markers"/>
 <path d="m128.49 88.284s-3.3707-0.09621-8.1607 0.44513c-4.3094 0.48702-7.1221 6.5286-7.1221 6.5286s0.75996-5.9607 4.4513-7.4189c4.8137-1.9014 10.832 0.44513 10.832 0.44513z" style="fill:#83868c"/>
</svg>
