<svg width="192" height="192" version="1.1" viewBox="0 0 192 192" xmlns="http://www.w3.org/2000/svg">
 <rect x="19.5" y="19.5" width="153" height="153" rx="10" style="fill:#9abeff"/>
 <path d="m109.79 57.849v5.3253c-4.236-3.873-9.9245-6.2936-16.218-6.2936-13.676 0-24.569 11.135-24.569 25.174 0 14.039 10.893 25.174 24.569 25.174 6.4146 0 12.103-2.4206 16.339-6.4146v8.3511c0 9.1983-6.4146 15.855-15.129 15.855-6.7777 0-12.224-4.115-14.161-10.167l-10.53 4.3571c3.6309 9.9245 12.95 16.339 24.69 16.339 15.734 0 26.627-11.014 26.627-26.748v-50.954zm-14.403 38.73c-8.109 0-14.524-6.4146-14.524-14.524s6.4146-14.524 14.524-14.524c8.109 0 14.645 6.4146 14.645 14.524s-6.5356 14.524-14.645 14.524z" style="fill:#fff"/>
</svg>
