<svg width="192" height="192" version="1.1" viewBox="0 0 192 192" xmlns="http://www.w3.org/2000/svg">
 <rect x="19.5" y="19.5" width="153" height="153" rx="10" style="fill:#71a372"/>
 <path d="m97.038 57c-10.276 0.09114-20.601 4.3136-27.317 12.253-5.1414 6.0775-9.0228 14.433-9.5499 22.354-0.46743 7.0249 0.21611 13.527 2.7354 20.268 4.5783 12.251 16.034 23.137 29.159 23.771 22.014 1.0649 26.496-10.068 26.496-10.068l1.241 8.4634s8.8432 0.0481 12.133 0.0103c-0.013-13.359-0.054-41.21-0.054-41.21l-30.739 0.1934-0.36073 14.416 13.486-0.16881s0.67117 0.88256-1.1984 4.1329c-3.5314 6.1396-10.49 7.3896-17.057 7.198-6.8658-0.20023-12.521-4.9424-14.716-11.193-1.8093-5.1532-1.7704-11.044-1.2949-16.354 0.97768-10.918 8.4244-17.121 14.724-17.306 17.135-0.50293 17.192 10.215 17.192 10.215l19.231 0.13168s0.45828-5.3414-3.0632-11.375c-6.2512-10.71-19.175-15.838-31.048-15.733z" style="fill:#f9de81;stroke-width:.39326"/>
</svg>
