<svg width="192" height="192" fill="none" version="1.1" viewBox="0 0 192 192" xmlns="http://www.w3.org/2000/svg">
 <rect x="20" y="20" width="152" height="152" rx="10" fill="#9ABEFF" style="fill:#ababff"/>
 <path d="m28.556 139.77-0.0557 0.108v10.621h38.318l-0.3729-0.728-21-41-0.4433-0.865-0.446 0.864-16 31z" fill="#4A4A4A" stroke="#fff"/>
 <path d="m45.004 106.81-0.89258 1.7266-16 31-0.11133 0.21679v0.24219 10 1h1 1 36 1.6367 82.881 0.5v-1h-0.5-83.395l-0.23242-0.45508-21-41-0.88672-1.7305zm-0.003906 2.1856 21 41h-36-1v-10l16-31z" style="color-rendering:auto;color:#000000;dominant-baseline:auto;fill:#fff;font-feature-settings:normal;font-variant-alternates:normal;font-variant-caps:normal;font-variant-ligatures:normal;font-variant-numeric:normal;font-variant-position:normal;image-rendering:auto;isolation:auto;mix-blend-mode:normal;shape-padding:0;shape-rendering:auto;solid-color:#000000;text-decoration-color:#000000;text-decoration-line:none;text-decoration-style:solid;text-indent:0;text-orientation:mixed;text-transform:none;white-space:normal"/>
 <path d="m30 20c-5.4535 0-10 4.5465-10 10v132c0 5.4535 4.5465 10 10 10h132c5.4535 0 10-4.5465 10-10v-132c0-5.4535-4.5465-10-10-10zm0 10h132v132h-132z" style="color-rendering:auto;color:#000000;dominant-baseline:auto;fill:#f9de81;font-feature-settings:normal;font-variant-alternates:normal;font-variant-caps:normal;font-variant-ligatures:normal;font-variant-numeric:normal;font-variant-position:normal;image-rendering:auto;isolation:auto;mix-blend-mode:normal;shape-padding:0;shape-rendering:auto;solid-color:#000000;text-decoration-color:#000000;text-decoration-line:none;text-decoration-style:solid;text-indent:0;text-orientation:mixed;text-transform:none;white-space:normal"/>
 <path d="m49.536 88.655c-1.9526-1.9527-1.9526-5.1185 0-7.0711l55.154-55.154c1.952-1.9527 5.118-1.9527 7.071 0l55.154 55.154c1.953 1.9526 1.953 5.1184 0 7.0711l-55.154 55.154c-1.953 1.953-5.119 1.953-7.071 0l-55.154-55.154z" clip-rule="evenodd" fill="#F9DE81" fill-rule="evenodd" stroke="#4A4A4A" stroke-width="3"/>
 <path d="m107.61 51.375c-0.76775 0-1.537 0.29316-2.123 0.87891l-6.3633 6.3633c-1.1716 1.1716-1.1716 3.0707 0 4.2422l6.3633 6.3652c1.172 1.1716 3.0721 1.1716 4.2441 0l6.3633-6.3652c1.171-1.1715 1.171-3.0706 0-4.2422l-6.3633-6.3633c-0.586-0.58575-1.3534-0.87891-2.1211-0.87891zm20.99 15.639c-0.76775 0-1.5356 0.29311-2.1211 0.87891l-35.355 35.355c-1.1716 1.172-1.1716 3.0702 0 4.2422l6.3633 6.3652c1.1716 1.171 3.0721 1.171 4.2441 0l35.354-35.355c1.172-1.1716 1.172-3.0706 0-4.2422l-6.3633-6.3652c-0.5855-0.5858-1.3533-0.87891-2.1211-0.87891zm-43.99 6.3613c-0.76775 0-1.5372 0.29316-2.123 0.87891l-6.3633 6.3633c-1.1716 1.1716-1.1716 3.0707 0 4.2422l6.3633 6.3652c1.1716 1.1716 3.0725 1.1716 4.2441 0l6.3633-6.3652c1.1716-1.1715 1.1716-3.0706 0-4.2422l-6.3633-6.3633c-0.5858-0.58575-1.3533-0.87891-2.1211-0.87891z" style="fill:#ababff"/>
 <path d="m107.61 49.885c-1.1547 0-2.3111 0.43647-3.1836 1.3086l-6.3633 6.3633c-1.7448 1.7448-1.7449 4.6205 0 6.3652l6.3633 6.3633c1.745 1.7444 4.6203 1.7444 6.3652 0l6.3633-6.3652c1.7441-1.7449 1.7441-4.6183 0-6.3633l-6.3633-6.3633c-0.87249-0.87212-2.0269-1.3086-3.1816-1.3086zm0 2.9805c0.38078 0 0.76104 0.14984 1.0606 0.44922l6.3633 6.3633c0.59794 0.59824 0.59786 1.5249 0 2.123l-6.3633 6.3633c-0.59904 0.59883-1.524 0.59883-2.123 0l-6.3633-6.3652c-0.59831-0.59826-0.59839-1.5227 0-2.1211l6.3633-6.3633c0.29951-0.29938 0.68172-0.44922 1.0625-0.44922zm20.99 12.658c-1.1548 0-2.3094 0.43589-3.1816 1.3086l-35.355 35.355c-1.7444 1.745-1.7444 4.6183 0 6.3633l6.3633 6.3652h0.001953c1.7448 1.7439 4.6181 1.7436 6.3633 0l35.354-35.355c1.7453-1.7447 1.7453-4.6205 0-6.3652l-6.3633-6.3633c-0.87226-0.8727-2.0268-1.3086-3.1816-1.3086zm0 2.9824c0.38066 0 0.7618 0.14837 1.0605 0.44727l6.3633 6.3652h0.00196c0.59869 0.59849 0.59869 1.5226 0 2.1211h-0.00196l-35.354 35.354c-0.59839 0.59788-1.5227 0.59856-2.1211 0.00195h-0.001953l-6.3633-6.3652c-0.59883-0.59904-0.59883-1.5221 0-2.1211l35.355-35.355c0.29874-0.2989 0.67988-0.44727 1.0606-0.44727zm-43.99 3.3789c-1.1548 0-2.3112 0.43626-3.1836 1.3086l-6.3633 6.3633c-1.7448 1.7448-1.7449 4.6205 0 6.3652l6.3633 6.3633c1.7448 1.7448 4.6205 1.7448 6.3652 0l6.3633-6.3633c1.7449-1.7447 1.7448-4.6204 0-6.3652l-6.3633-6.3633c-0.8724-0.87233-2.0269-1.3086-3.1816-1.3086zm0 2.9805c0.38074 0 0.76135 0.15005 1.0605 0.44922l6.3633 6.3633c0.59839 0.59839 0.59832 1.5228 0 2.1211l-6.3633 6.3652c-0.59842 0.59842-1.5227 0.59842-2.1211 0l-6.3652-6.3652c-0.59832-0.59826-0.59839-1.5227 0-2.1211l6.3652-6.3633c0.2992-0.29917 0.6798-0.44922 1.0605-0.44922z" style="clip-rule:evenodd;color-rendering:auto;color:#000000;dominant-baseline:auto;fill-rule:evenodd;fill:#4a4a4a;font-feature-settings:normal;font-variant-alternates:normal;font-variant-caps:normal;font-variant-ligatures:normal;font-variant-numeric:normal;font-variant-position:normal;image-rendering:auto;isolation:auto;mix-blend-mode:normal;shape-padding:0;shape-rendering:auto;solid-color:#000000;text-decoration-color:#000000;text-decoration-line:none;text-decoration-style:solid;text-indent:0;text-orientation:mixed;text-transform:none;white-space:normal"/>
 <path d="m108.22 23.475c-1.6667 1.3e-5 -3.333 0.63141-4.5957 1.8945l-55.154 55.154c-2.5258 2.5258-2.5258 6.6674 0 9.1934l55.154 55.152c2.5253 2.5266 6.6672 2.5261 9.1934 0l55.152-55.152c2.5262-2.5259 2.5263-6.6676 0-9.1934l-55.152-55.154c-1.2631-1.2629-2.931-1.8945-4.5977-1.8945zm0 2.9805c0.89258 1.3e-5 1.7867 0.34536 2.4766 1.0352l55.152 55.154c1.3797 1.3794 1.3798 3.5697 0 4.9492l-55.152 55.154c-1.3798 1.3798-3.5725 1.3794-4.9512 0l-55.154-55.154c-1.3794-1.3795-1.3794-3.5698 0-4.9492l55.154-55.154c0.68933-0.68958 1.582-1.0352 2.4746-1.0352z" style="clip-rule:evenodd;color-rendering:auto;color:#000000;dominant-baseline:auto;fill-rule:evenodd;fill:#4a4a4a;font-feature-settings:normal;font-variant-alternates:normal;font-variant-caps:normal;font-variant-ligatures:normal;font-variant-numeric:normal;font-variant-position:normal;image-rendering:auto;isolation:auto;mix-blend-mode:normal;shape-padding:0;shape-rendering:auto;solid-color:#000000;text-decoration-color:#000000;text-decoration-line:none;text-decoration-style:solid;text-indent:0;text-orientation:mixed;text-transform:none;white-space:normal"/>
</svg>
