<svg width="192" height="192" version="1.1" viewBox="0 0 192 192" xmlns="http://www.w3.org/2000/svg">
 <path d="m152.37 11.914c-2.6371-0.09964-5.1537 1.1075-6.7266 3.2266l-104 136c-2.7416 3.5077-2.0925 8.5787 1.4441 11.283 3.5367 2.7041 8.6004 2.0012 11.267-1.564l104-136c4.0472-5.139 0.55232-12.699-5.9844-12.945z" style="color-rendering:auto;color:#000000;dominant-baseline:auto;fill:#f9de81;font-feature-settings:normal;font-variant-alternates:normal;font-variant-caps:normal;font-variant-ligatures:normal;font-variant-numeric:normal;font-variant-position:normal;image-rendering:auto;isolation:auto;mix-blend-mode:normal;shape-padding:0;shape-rendering:auto;solid-color:#000000;text-decoration-color:#000000;text-decoration-line:none;text-decoration-style:solid;text-indent:0;text-orientation:mixed;text-transform:none;white-space:normal"/>
 <path d="m124 8c-4.2206 6.922e-4 -5.5637 5.6899-1.7891 7.5781l5.7891 2.8945v5.5273c1.1e-4 1.3374 0.66851 2.5862 1.7812 3.3281l24 16c1.8381 1.2251 4.3213 0.72845 5.5469-1.1094l8-12c1.2251-1.8381 0.72846-4.3213-1.1094-5.5469l-24-16c-0.65706-0.43804-1.4291-0.67182-2.2188-0.67188z" style="color-rendering:auto;color:#000000;dominant-baseline:auto;fill:#b1b5bd;font-feature-settings:normal;font-variant-alternates:normal;font-variant-caps:normal;font-variant-ligatures:normal;font-variant-numeric:normal;font-variant-position:normal;image-rendering:auto;isolation:auto;mix-blend-mode:normal;shape-padding:0;shape-rendering:auto;solid-color:#000000;text-decoration-color:#000000;text-decoration-line:none;text-decoration-style:solid;text-indent:0;text-orientation:mixed;text-transform:none;white-space:normal"/>
 <path d="m48 56c-6.3887 0.0014-10.199 7.1211-6.6562 12.438l5.3496 8.0254c-4.578 8.9488-14.693 31.364-14.693 55.537 0 17.667 5.6524 30.477 11.49 38.65 5.8378 8.173 12.395 12.209 12.395 12.209 1.2431 0.74603 2.6655 1.1403 4.1152 1.1406h72c1.4498-3.4e-4 2.8722-0.39459 4.1152-1.1406 0 0 6.5567-4.036 12.395-12.209 5.8378-8.173 11.49-20.984 11.49-38.65 0-24.173-10.115-46.588-14.693-55.537l5.3496-8.0254c3.5427-5.3164-0.26756-12.436-6.6562-12.438h-48z" style="color-rendering:auto;color:#000000;dominant-baseline:auto;fill:#56595b;font-feature-settings:normal;font-variant-alternates:normal;font-variant-caps:normal;font-variant-ligatures:normal;font-variant-numeric:normal;font-variant-position:normal;image-rendering:auto;isolation:auto;mix-blend-mode:normal;shape-padding:0;shape-rendering:auto;solid-color:#000000;text-decoration-color:#000000;text-decoration-line:none;text-decoration-style:solid;text-indent:0;text-orientation:mixed;text-transform:none;white-space:normal"/>
</svg>
