<svg width="192" height="192" fill="none" version="1.1" viewBox="0 0 192 192" xmlns="http://www.w3.org/2000/svg">
 <path d="m51.527 9.6777c-4.2635 0.16449-8.0889 3.0623-9.2539 7.4102l-18.016 67.234 58.293 14.771 14.67-13.232 71.93 16.561 12.834-47.9c1.4338-5.3512-1.7191-10.812-7.0703-12.246l-120.39-32.26c-1.0034-0.26885-2.0103-0.37585-2.9941-0.33789z" style="fill:#bd9aff"/>
 <path d="m23.436 87.391-13.42 50.088c-1.4339 5.3512 1.7191 10.814 7.0703 12.248l120.39 32.26c5.3512 1.4339 10.814-1.721 12.248-7.0723l18.342-68.457-69.697-15.992-16.395 13.23-58.541-16.305z" style="fill:#9abeff"/>
 <rect transform="rotate(15)" x="115.97" y="51.508" width="74.117" height="12.856" rx="3" style="fill:#fff"/>
 <rect transform="rotate(15)" x="44.991" y="71.121" width="73.636" height="13.283" rx="3" style="fill:#fff"/>
 <ellipse cx="96.071" cy="96.073" rx="16.683" ry="16.273" style="fill:#fff;paint-order:stroke fill markers;stroke-width:.95082"/>
</svg>
