<svg width="192" height="192" version="1.1" viewBox="0 0 192 192" xmlns="http://www.w3.org/2000/svg">
 <g transform="translate(0 -860.36)">
  <rect x="20" y="880.36" width="152" height="152" rx="9.9346" ry="9.9346" style="fill-rule:evenodd;fill:#56595b"/>
  <path transform="translate(0 860.36)" d="m120.71 56.705v5.0137h-2.0371c-1.1874 0-2.4896 0.39097-3.5508 1.168-0.11206 0.08087-0.21782 0.17198-0.32421 0.26367-0.1057-0.09104-0.21097-0.18134-0.32227-0.26172-1.0624-0.78107-2.3644-1.1699-3.5488-1.1699-0.724 0-1.3661 0.15-2.0371 0.24609v-0.24609h-11.389v0.39648c-0.68631-0.25401-1.398-0.39648-2.0762-0.39648h-7.748c-1.187 0-2.4921 0.39233-3.5508 1.1699-0.11173 0.0806-0.21817 0.17235-0.32422 0.26367-0.10576-0.09112-0.21089-0.1832-0.32226-0.26367-1.0617-0.78123-2.3659-1.1719-3.5527-1.1719l-9.8223 2e-3h-13.426c-1.1807 0-2.474 0.38738-3.5352 1.1621l-0.0039-0.0059c-0.0048 3e-3 -7e-3 0.01017-0.01172 0.01367-0.0072 5e-3 -0.01628 6e-3 -0.02344 0.01172l0.0059 0.0078c-1.2027 0.87897-2.1074 2.4072-2.1074 3.9277v15.004c0 0.40065 0.20624 0.76781 0.32227 1.1562h-0.32227v10.158h13.426c0.21263 0 0.41919-0.032 0.62695-0.05664v6.4414h1.543v8.6992c0 0.65444 0.17396 1.282 0.44922 1.8555h-8.2559v0.39453c-0.68921-0.25447-1.4008-0.39453-2.0742-0.39453h-7.75c-1.1786 0-2.4884 0.38522-3.5547 1.1719-1.2126 0.87837-2.1211 2.4191-2.1211 3.9434v6.3047h0.33984c-0.12157 0.38688-0.33984 0.73746-0.33984 1.1582v7.541c0 1.5292 0.94028 3.0746 2.125 3.9004 1.01 0.70783 2.2676 1.1777 3.5508 1.1777h13.426v-0.40625c0.65915 0.25043 1.3599 0.40625 2.0723 0.40625h7.75c1.2828 0 2.543-0.46965 3.5566-1.1816 0.29958-0.20989 0.58218-0.46737 0.83984-0.75782 0.27062 0.30055 0.56468 0.56709 0.86719 0.78321l0.02344 0.0156 0.02148 0.0156c0.94628 0.64691 2.1723 1.125 3.457 1.125h7.748c1.2809 0 2.5378-0.46783 3.5488-1.1758l2e-3 -2e-3c0.11118-0.0775 0.21792-0.16829 0.32422-0.25781 0.10575 0.0891 0.21168 0.17875 0.32226 0.25586 1.0103 0.70778 2.2679 1.1797 3.5508 1.1797h7.75c1.283 0 2.5422-0.46896 3.5547-1.1777 1e-3 -8.2e-4 3e-3 -9.5e-4 4e-3 -2e-3v-2e-3c1.1792-0.82507 2.1191-2.3644 2.1191-3.8965v-15.004c0-0.64734-0.17053-1.2943-0.45117-1.8945h0.75585v8.168h2.75v2.4258h-2.75v11.389h32.461v-11.388h-2.8242v-2.4258h0.23242v-2.5918h2.5918v-5.5762h0.36328c1.2834 0 2.5397-0.4679 3.5508-1.1758l2e-3 -2e-3c1.178-0.82378 2.123-2.367 2.123-3.8984v-18.857h-7.7109v-1.2637h-22.229c-1.186 0-2.492 0.38766-3.5566 1.168-0.10984 0.07969-0.21392 0.16951-0.31836 0.25977-0.10377-0.08957-0.20731-0.17866-0.31641-0.25781-1.0622-0.77948-2.3704-1.1699-3.5566-1.1699h-7.75c-1.1855 0-2.4941 0.38967-3.5586 1.1738-0.11003 0.07992-0.21372 0.17124-0.31836 0.26172-0.09964-0.08591-0.19814-0.17359-0.30273-0.25l0.0039-0.0059c-6e-3 -4e-3 -0.01356-0.0067-0.01953-0.01172-4e-3 -3e-3 -0.0057-9e-3 -0.0098-0.01172l-0.0039 0.0039c-1.0594-0.77331-2.3613-1.1621-3.541-1.1621h-2.0332v-1.1973h23.109v-0.4082c0.65691 0.25011 1.3567 0.4082 2.0742 0.4082h13.424v-30.213zm-50.605 30.213h4.1094v1.1582c0 0.01389 0.0038 0.02715 0.0039 0.04102h-4.1172c1.51e-4 -0.01385 0.0039-0.02714 0.0039-0.04102zm54.381 17.633h5.125v3.6875c0 0.65433 0.17253 1.2817 0.44726 1.8555h-5.5723z" style="color-rendering:auto;color:#000000;dominant-baseline:auto;fill:#4a4a4a;font-feature-settings:normal;font-variant-alternates:normal;font-variant-caps:normal;font-variant-ligatures:normal;font-variant-numeric:normal;font-variant-position:normal;image-rendering:auto;isolation:auto;mix-blend-mode:normal;shape-padding:0;shape-rendering:auto;solid-color:#000000;text-decoration-color:#000000;text-decoration-line:none;text-decoration-style:solid;text-indent:0;text-orientation:mixed;text-transform:none;white-space:normal"/>
  <path transform="translate(0 860.36)" d="m123.3 59.295v5.0137h-4.6289c-0.71252 0-1.3902 0.19802-2.0313 0.67188-0.7154 0.51217-1.0527 1.1453-1.0527 1.8555v15.002c0 0.70961 0.3368 1.3021 1.0156 1.7754 0.67768 0.4727 1.3558 0.71289 2.0684 0.71289h10.832v-25.031h-6.2031zm-66.623 5.0137c-0.7131 0-1.3917 0.19802-2.0293 0.67188-0.716 0.51217-1.0547 1.1453-1.0547 1.8555v15.002c0 0.70961 0.33716 1.3021 1.0137 1.7754 0.6771 0.4727 1.3572 0.71289 2.0703 0.71289h4.627v1.2617h-7.7109v4.9746h10.834c0.71484 0 1.3565-0.23868 1.9941-0.67188 0.71309-0.51334 1.0918-1.1043 1.0918-1.8145v-23.768h-10.836zm12.414 0v20.018h6.209v-7.502h1.5039v11.252c0 0.7102 0.37616 1.3011 1.0898 1.8145 0.64167 0.4332 1.3158 0.67188 2.0312 0.67188h4.0605 0.70312v20.16h6.207v-15.002h1.5039v15.002h6.207v-17.488c0-0.71135-0.33673-1.341-1.0527-1.8555-0.39952-0.29675-0.815-0.4833-1.2441-0.58203-0.25782-0.0604-0.52136-0.087891-0.78906-0.087891h-0.1582-4.4668v-5.0137h-0.13672v-0.10742h-6.7734-0.97656v-10.027c0-0.35539-0.14837-0.67244-0.48633-0.9082-0.3403-0.19744-0.67781-0.3154-1.0547-0.35547 0.37687 0 0.71439-0.11854 1.0547-0.35547 0.33796-0.19685 0.48633-0.51354 0.48633-0.86719v-6.2383c0-0.71019-0.33731-1.3433-1.0527-1.8555-0.63819-0.47385-1.3164-0.67188-2.0312-0.67188h-10.834zm18.584 0c-0.71542 0-1.3899 0.19802-2.0293 0.67188-0.71659 0.51217-1.0547 1.1453-1.0547 1.8555v3.7109h6.2051v-1.2246h1.5059v2.4883h-4.627c-0.71542 0-1.3567 0.23592-1.9961 0.71094-0.71309 0.51391-1.0879 1.1058-1.0879 1.7754v7.541c0 0.70961 0.33658 1.3021 1.0137 1.7754 0.67884 0.4727 1.3549 0.71289 2.0703 0.71289h10.834v-17.49c0-0.71019-0.33731-1.3433-1.0527-1.8555-0.64342-0.47385-1.3178-0.67188-2.0332-0.67188h-7.748zm12.416 0v20.018h6.2051v-15.002h1.5058v15.002h6.2031v-17.49c0-0.70961-0.3379-1.3427-1.0527-1.8555-0.63817-0.47385-1.3154-0.67188-2.0273-0.67188-2.0702 0-3.6156 0.43443-4.6289 1.2637v-1.2637h-6.2051zm-40.291 5.0137h1.5039v10.027h-1.5039v-10.027zm15.5 0h1.5039v2.4883h-1.5039v-2.4883zm46.494 0h1.5059v10.027h-1.5059v-10.027zm-30.998 7.502h1.5059v2.5254h-1.5059v-2.5254zm-21.607 13.885v1.2617h-1.543v4.9746h1.543v11.291c0 0.70962 0.375 1.3042 1.0898 1.8164 0.63877 0.43494 1.2781 0.66993 1.9941 0.66993h7.752c0.71426 0 1.3881-0.23514 2.0664-0.70899 0.67593-0.47327 1.0176-1.0677 1.0176-1.7773v-10.029h-6.1699v7.543h-1.543v-8.8047h7.7129v-4.9746h-7.7129v-1.2617h-6.207zm34.082 0c-0.71542 0-1.3936 0.19606-2.0312 0.66992-0.71484 0.51449-1.0527 1.1441-1.0527 1.8555v15.004c0 0.70905 0.33797 1.3008 1.0156 1.7734 0.67481 0.47386 1.3529 0.71094 2.0684 0.71094h7.748c0.71658 0 1.3918-0.23708 2.0684-0.71094 0.67941-0.47269 1.0176-1.0644 1.0176-1.7734v-3.75h-6.2051v1.2617h-1.5039v-2.5273h7.709v-9.9883c0-0.71136-0.3379-1.341-1.0527-1.8555-0.64109-0.47386-1.3166-0.66992-2.0332-0.66992h-7.748zm15.498 0c-0.71136 0-1.3902 0.19723-2.0312 0.66992-0.71426 0.51566-1.0527 1.1461-1.0527 1.8574v17.486h6.207v-8.7637h7.7109v-5.0137h-7.7109v-1.2246h7.7109v-5.0117h-10.834zm13.43 0v1.2617h-1.541v4.9746h1.541v11.291c0 0.70962 0.37674 1.3042 1.0898 1.8164 0.64109 0.43494 1.2793 0.66993 1.9941 0.66993h7.75c0.71368 0 1.393-0.23514 2.0684-0.70899 0.67768-0.47327 1.0156-1.0677 1.0156-1.7773v-10.029h-6.168v7.543h-1.543v-8.8047h7.7109v-4.9746h-7.7109v-1.2617h-6.207zm-25.805 5.0117h1.5059v2.4863h-1.5059v-2.4863zm-57.428 16.963c-0.71542 0-1.3911 0.1949-2.0293 0.66993-0.716 0.51449-1.0547 1.1476-1.0547 1.8555v3.7129h6.207v-1.2246h1.5059v2.4863h-4.6289c-0.71542 0-1.3542 0.23651-1.9941 0.71094-0.71484 0.51508-1.0898 1.1036-1.0898 1.7754v7.541c0 0.70961 0.33794 1.3052 1.0156 1.7773 0.67651 0.47443 1.3529 0.71094 2.0684 0.71094h10.834v-17.49c0-0.70788-0.33868-1.341-1.0547-1.8555-0.63819-0.47503-1.3145-0.66993-2.0293-0.66993h-7.75zm12.414 0v17.529c0 0.70904 0.33795 1.3039 1.0156 1.7754 0.67652 0.47501 1.3547 0.71094 2.0684 0.71094h7.75c0.7131 0 1.393-0.23593 2.0684-0.71094 0.67477-0.47153 1.0176-1.0664 1.0176-1.7754v-17.529h-6.209v15.043h-1.5039v-15.043h-6.207zm16.514 0v1.2617h-1.543v4.9766h1.543v11.291c0 0.70904 0.37812 1.3026 1.0918 1.8125 0.63877 0.43668 1.2787 0.67383 1.9941 0.67383h7.748c0.71542 0 1.3924-0.23593 2.0684-0.71094 0.67768-0.47153 1.0156-1.0664 1.0156-1.7754v-10.029h-6.166v7.543h-1.5449v-8.8047h7.7109v-4.9766h-7.7109v-1.2617h-6.207zm18.582 0c-0.71368 0-1.3902 0.1949-2.0312 0.66993-0.71484 0.51449-1.0508 1.1476-1.0508 1.8555v15.002c0 0.70961 0.33679 1.3052 1.0156 1.7773 0.6771 0.47443 1.3527 0.71094 2.0664 0.71094h7.75c0.71426 0 1.3926-0.23651 2.0703-0.71094 0.6765-0.47212 1.0156-1.0677 1.0156-1.7773v-15.002c0-0.70788-0.33869-1.341-1.0547-1.8555-0.63818-0.47503-1.317-0.66993-2.0312-0.66993h-7.75zm16.324 0v6.207h2.75v7.6074h-2.75v6.207h27.279v-6.207h-2.8262v-7.6074h2.8262v-6.207h-2.8262-6.2051-1.5449-6.2031-1.543-6.207-2.75zm-13.201 5.0137h1.5059v10.029h-1.5059v-10.029zm22.158 1.1934h1.543v7.6074h-1.543v-7.6074zm7.7461 0h1.5449v7.6074h-1.5449v-7.6074zm-77.414 6.3066h1.5059v2.5293h-1.5059v-2.5293z" style="fill:#fff"/>
 </g>
 <style type="text/css">.st0{fill:#FFFFFF;}</style>
 <style type="text/css">.st0{fill:#FFFFFF;}</style>
 <style type="text/css">.st0{fill:#FFFFFF;}</style>
 <style type="text/css">.st0{fill:#FFFFFF;}</style>
</svg>
