<svg width="192" height="192" version="1.1" viewBox="0 0 192 192" xmlns="http://www.w3.org/2000/svg">
 <rect x="20" y="20" width="152" height="152" rx="9.9346" ry="9.9346" style="fill-rule:evenodd;fill:#575a5c"/>
 <path d="m118.66 41.744v4.7656h-1.6328c-1.4095 0-2.8489 0.26172-4.1035 1.2148-1.076-0.72702-2.3818-1.2148-3.7442-1.2148-0.62463 0-1.1631 0.15488-1.748 0.22852v-0.22852h-12.082v0.20508c-0.58006-0.11606-1.166-0.20508-1.75-0.20508h-7.7305c-1.3454 0-2.7084 0.27641-3.9219 1.125-1.2144-0.85077-2.579-1.125-3.9258-1.125h-23.312c-1.4416 0-2.9192 0.2516-4.1934 1.2598s-1.9062 2.7252-1.9062 4.1777v14.297c0 0.20363 0.11405 0.42569 0.14062 0.63867h-0.14062v10.639h10.777v7.8652h1.5234v8.0234c0 1.2743 0.48703 2.7528 1.4668 3.7773-1.4149 0.0075-2.8574 0.26183-4.1016 1.2461-1.263 0.9992-1.8887 2.7013-1.8887 4.1445v6.4668h0.17969c-0.04369 0.2697-0.17969 0.54193-0.17969 0.80078v7.3887c0 1.443 0.62611 3.1453 1.8887 4.1445 1.2626 0.99921 2.7299 1.25 4.166 1.25h13.785v-0.2168c0.59468 0.12726 1.1972 0.2168 1.7949 0.2168h7.8477c1.4 0 2.8619-0.27101 4.0957-1.2754 0.12207-0.0994 0.1636-0.26344 0.27344-0.375 0.10128 0.10442 0.13105 0.25484 0.24414 0.3496 1.2465 1.0445 2.7358 1.3008 4.1719 1.3008h7.8477c1.3193 0 2.6806-0.28993 3.8672-1.1582 1.1862 0.86731 2.5466 1.1582 3.8652 1.1582h7.8477c1.4359 0 2.9035-0.25101 4.166-1.25s1.8887-2.7011 1.8887-4.1445v-14.654c0-1.4436-0.62571-3.1456-1.8887-4.1445-0.70985-0.56148-1.4861-0.87168-2.2832-1.0488v-7.1152h2.3281v3.1387c0 1.4522 0.62986 3.1713 1.9043 4.1797 1.2744 1.0084 2.7538 1.2598 4.1953 1.2598h7.8477c1.4418 0 2.9409-0.25808 4.1992-1.3125 1.2583-1.0544 1.7812-2.7436 1.7812-4.127v-18.783h-7.7305v-1.3086h-9.0195v-2e-3h-11.572l-0.082 0.0039c-1.3048 0.07378-2.5808 0.39201-3.7324 1.1934-1.2095-0.90863-2.605-1.1973-3.9492-1.1973h-7.8477c-1.3463 0-2.7117 0.27694-3.9258 1.127-1.2142-0.84984-2.5779-1.127-3.9238-1.127h-1.75v-1.752h26.592v-0.17383c0.58166 0.10659 1.1667 0.17383 1.748 0.17383h13.83v-29.82zm-50.121 29.82h3.3828v0.63867c0 0.43373 0.23856 0.73463 0.34766 1.1152h-3.9766c0.08089-0.37747 0.24609-0.75927 0.24609-1.1152z" style="color-rendering:auto;color:#000000;dominant-baseline:auto;fill:#4a4a4a;font-feature-settings:normal;font-variant-alternates:normal;font-variant-caps:normal;font-variant-ligatures:normal;font-variant-numeric:normal;font-variant-position:normal;image-rendering:auto;isolation:auto;mix-blend-mode:normal;shape-padding:0;shape-rendering:auto;solid-color:#000000;text-decoration-color:#000000;text-decoration-line:none;text-decoration-style:solid;text-indent:0;text-orientation:mixed;text-transform:none;white-space:normal"/>
 <path d="m59.394 54.33h-1.5228v9.5317h1.5228zm79.889 39.08c0 1.668-0.93619 2.5023-3.0456 2.5023h-7.8471c-2.1094 0-3.1628-0.83431-3.1628-2.5023v-10.961h-1.5228v-4.8847h1.5228v-1.3104h6.3243v1.3104h7.7312v4.8847h-7.7312v8.5782h1.5228v-7.387h6.2084zm-22.257-6.0759v8.5782h-6.2078v-17.157c0-1.5488 1.0541-2.3831 3.1622-2.5023h8.5522v5.0046h-5.5066v1.1912h5.5066v4.8854zm-14.056-6.0766h-1.5228v2.3831h1.5228zm6.2078 12.153c0 1.668-1.0547 2.5023-3.045 2.5023h-7.8484c-2.1088 0-3.1628-0.83431-3.1628-2.5023v-14.655c0-1.668 1.054-2.5023 3.1628-2.5023h7.8484c1.9902 0 3.045 0.83365 3.045 2.5023v9.7701h-7.7306v2.5016h1.5228v-1.1912h6.2078zm-21.905 2.5023v-14.655h-1.5228v14.655h-6.2084v-21.327h-1.5228c-0.70314 0-1.4056-0.11919-1.9916-0.59594-0.70314-0.47676-1.1712-1.072-1.1712-1.7872v-10.723h-1.4056v7.1486h-6.3256v-19.183h10.894c2.1088 0 3.1628 0.83432 3.1628 2.5023v5.1231c0 0.95351-0.58529 1.668-1.64 2.0255 1.054 0.35756 1.64 0.9535 1.64 2.0255v8.6981h4.5684v6.4335h4.6856c2.1088 0 3.1628 0.83365 3.1628 2.5023v17.157zm-9.3712-2.5023c0 1.668-1.054 2.5023-3.0456 2.5023h-7.8484c-2.1088 0-3.1628-0.83431-3.1628-2.5023v-10.961h-1.5228v-4.8847h1.5228v-1.3104h6.3256v1.3104h7.7312v4.8847h-7.7312v8.5782h1.5228v-7.387h6.2084zm-12.3-21.208c0 1.668-1.054 2.3831-3.1628 2.3831h-10.894v-4.7655h7.8484v-1.1919h-4.6856c-2.1088 0-3.1628-0.71513-3.1628-2.3831v-14.297c0-1.668 1.054-2.5023 3.1628-2.5023h10.894zm9.2541-17.872h-1.4056v2.3831h1.4056zm15.58 7.1493h-1.4056v2.3831h1.4056zm-4.5684 7.1486c-2.1088 0-3.1628-0.71513-3.1628-2.3831v-7.1486c0-1.5488 1.054-2.3831 3.1628-2.3831h4.5684v-2.3831h-1.4056v1.1919h-6.3256v-3.5743c0-1.668 1.054-2.5023 3.1628-2.5023h7.7312c2.1088 0 3.1628 0.83432 3.1628 2.5023v16.68zm20.148 0v-14.298h-1.5228v14.298h-6.2078v-19.183h6.2078v1.3111c1.054-0.83433 2.5768-1.3111 4.6856-1.3111 0.70314 0 1.405 0.23838 2.1081 0.71514 0.70315 0.47675 1.0547 1.072 1.0547 1.7872v16.68zm15.579-14.298h-1.5228v9.5317h1.5228zm-4.5684 14.298c-2.1081 0-3.1628-0.71513-3.1628-2.3831v-14.297c0-1.668 1.0547-2.5023 3.1628-2.5023h4.5684v-4.7655h6.3256v23.948z" style="fill:#fff;stroke-width:.66586"/>
 <g transform="translate(0,-860.36)" style="fill:#fff">
  <path d="m67.125 972.71h-1.5228v2.501h1.5228zm-4.6856 7.3863c-2.1088 0-3.1628-0.83497-3.1628-2.5023v-7.3883c0-1.5474 1.054-2.3824 3.1628-2.3824h4.6856v-2.5023h-1.5228v1.1912h-6.3256v-3.5736c0-1.6686 1.054-2.5023 3.1628-2.5023h7.7312c2.1088 0 3.1628 0.83364 3.1628 2.5023v17.158z" style="stroke-width:.66586"/>
  <path d="m88.912 977.6c0 1.6673-1.054 2.5023-3.0456 2.5023h-7.8478c-2.1088 0-3.0456-0.83498-3.0456-2.5023v-17.158h6.2084v14.774h1.5228v-14.774h6.2084z" style="stroke-width:.66586"/>
  <path d="m105.55 977.6c0 1.6673-1.054 2.5023-3.0456 2.5023h-7.8484c-2.1088 0-3.0456-0.83498-3.0456-2.5023v-11.082h-1.64v-4.8847h1.64v-1.1912h6.2084v1.1912h7.7312v4.8847h-7.7319v8.6981h1.5228v-7.387h6.2078z" style="stroke-width:.66586"/>
  <path d="m114.92 965.33h-1.5228v9.8893h1.5228zm6.3256 12.273c0 1.6673-1.0547 2.5023-3.1628 2.5023h-7.8484c-1.9909 0-3.0456-0.83498-3.0456-2.5023v-14.655c0-1.6686 1.0547-2.5023 3.0456-2.5023h7.8484c2.1081 0 3.1628 0.83365 3.1628 2.5023z" style="stroke-width:.66586"/>
 </g>
 <path d="m118.97 107.64c-1.2336-0.0405-2.3762 0.68848-2.8594 1.8242-1e-3 3e-3 -3e-3 7e-3 -4e-3 0.01-1.1959 2.8623-2.3528 5.1381-3.4727 7.1738-2.2886 0.3797-4.4644 0.79013-4.4688 0.79101-0.85834 0.17088-1.6141 0.71082-2.0137 1.3926s-0.48207 1.4399-0.34375 2.1348c0.10495 0.5272 0.47996 0.9733 0.86328 1.3984-0.5906-0.15972-1.1852-0.1362-1.7832 0.0996 0.23597-0.25808 0.45747-0.53242 0.57812-0.83984 0.29286-0.74616 0.24874-1.5177-4e-3 -2.1875-0.25265-0.66983-0.73069-1.2796-1.4434-1.6465-0.70942-0.36523-1.6472-0.40787-2.4688-0.082-0.0143 5e-3 -1.4919 0.56203-3.2539 1.5566-1.75 0.98784-3.9513 2.4219-5.5059 4.6465-1.0459 1.4967-1.8909 3.3686-1.9961 5.4023-0.05385 1.0406 0.15622 2.7964 1.6641 3.877 1.536 1.1008 3.3649 0.7434 4.6289 0.18554 2.2684-1.0012 3.8782-1.962 5.5703-2.916l-0.0234 0.35547c-6.7e-4 1e-3 -1e-3 3e-3 -2e-3 4e-3 -0.078 1.261 0.66749 2.3763 1.6562 2.8691s2.3292 0.41714 3.2891-0.40429c0.0193-0.0171 0.0382-0.0347 0.0566-0.0527 0 0 1.7523-1.9171 3.9395-4.6348 3e-3 0.21254-0.0776 0.5289-0.0645 0.73047 0.0413 0.63089 0.22145 1.5931 0.91211 2.4023 0.84159 0.98612 1.8682 1.2815 2.9219 1.209 1.4303-0.0984 2.3979-0.88694 2.8691-1.252 0.83761-0.64879 1.1145-1.0171 1.4844-1.4238 0.60781 0.75878 1.3433 1.1558 2.2578 1.2539 0.74457 0.0799 1.3977-0.10187 1.7832-0.24805 0.7973-0.30257 1.3952-0.74896 1.9062-1.1582 3e-3 -3e-3 6e-3 -7e-3 0.01-0.01-0.27513 1.4521-0.50039 2.7508-0.83593 4.3262-9.8164 0.50435-22.684 1.8182-34.533 3.209-16.074 1.8868-29.87 3.8442-29.881 3.8457-6.22e-4 1e-4 -0.0013-1e-4 -2e-3 0-0.87067 0.1177-1.663 0.6119-2.1035 1.2715-0.44085 0.6601-0.56628 1.4173-0.4668 2.1211 0.09949 0.7038 0.43056 1.3961 1.0371 1.9082 0.60517 0.5109 1.5012 0.7675 2.3691 0.6406 0.0036-5e-4 13.752-1.9485 29.748-3.8261 11.086-1.3013 23.057-2.5011 32.373-3.0586-0.99897 3.9122-1.9026 7.1306-2.4316 8.8672-1.3275 0.6103-2.1447 2.1499-1.6582 3.6386 2.1e-4 7e-4 -2.2e-4 0 0 0l0.61914 1.9804c0.41208 1.3164 1.6786 2.1055 2.8633 2.1055s2.4512-0.7891 2.8633-2.1055c0 0 2.1666-7.2051 4.0195-14.781 1.5547-0.04 3.1056-0.077 4.2695-0.041 2.1358 0.067 5.1498 0.4458 7.5781 1.0449 1.2126 0.2992 2.3048 0.6657 3.002 0.9941 0.13407 0.063 0.19353 0.1152 0.29883 0.1778-0.38436 0.4532-0.68158 0.9642-0.74414 1.5078-0.0921 0.8005 0.15096 1.5394 0.57031 2.123 0.41936 0.5837 1.042 1.0488 1.8301 1.2168 0.77652 0.1656 1.6848-0.042 2.3906-0.5664 0.0213-0.015 0.96208-0.6538 1.623-1.8437 0.73738-1.3273 1.0138-3.3125-0.041-5.2168-0.82407-1.4878-2.1724-2.2606-3.373-2.8262-1.2502-0.5889-2.6482-1.0297-4.1191-1.3926-2.9443-0.72643-6.1991-1.1344-8.8281-1.2168-0.9223-0.0289-2.0526-1e-3 -3.1289 0.0117 1.3429-6.7049 2.3867-13.295 2.3867-13.295l-2e-3 2e-3c0.20084-1.4175-0.67587-2.708-1.7988-3.1836-1.1222-0.47531-2.6584-0.20865-3.5371 0.91992 0 0-1.1519 1.3485-1.8496 2.1973-0.0106-0.55332 8e-3 -1.0994-0.17578-1.6992-0.2953-0.96319-0.90392-1.9132-1.9043-2.5664-0.95806-0.62557-2.0472-0.83851-3.0801-0.83789h-2e-3c-0.22427 1.5e-4 -0.48845 0.0331-0.72266 0.041 0.42864-1.3124 0.81742-2.5733 1.4004-4.0879 6.8e-4 -3e-3 1e-3 -7e-3 2e-3 -0.01 0.71072-1.8823-0.698-3.9942-2.709-4.0586zm-52.244 2.9746c-0.9865-0.0283-1.928 0.43318-2.5098 1.2305l-12.676 16.871-0.32031-2.1484v-2e-3c-0.12859-0.86501-0.63035-1.6456-1.291-2.0781-0.66114-0.43285-1.4164-0.55296-2.1172-0.44922s-1.3891 0.43715-1.8965 1.043c-0.50738 0.60583-0.76096 1.4975-0.63281 2.3633v2e-3l1.375 9.25c0.1862 1.255 1.156 2.1958 2.2305 2.4688 1.075 0.27304 2.3743-0.0923 3.1367-1.1074l7.2695-9.6758c-0.28076 0.69039-0.43312 0.93716-0.63672 1.541-0.64651 1.9175-1.3304 5.0356-1.332 5.043-0.19424 0.85327-0.01011 1.7613 0.44922 2.4043 0.45933 0.64295 1.1198 1.0283 1.8105 1.1856 0.69074 0.15724 1.4522 0.0956 2.1445-0.28516 0.69071-0.37987 1.2498-1.118 1.4453-1.9687l2e-3 -4e-3c6.82e-4 -3e-3 0.32491-1.2022 0.54883-2.0996 0.27079 0.52956 0.43233 1.1123 0.89648 1.5273 1.6178 1.4466 4.023 1.6746 6.3594 0.86524 0.91577-0.31726 2.1091-0.98539 3.3008-1.6445 0.94195 0.89643 2.1294 1.5789 3.6328 1.5586 2.9253-0.0394 5.152-1.7818 6.8242-3.0859 1.74-1.3571 3.0391-2.6973 3.0391-2.6973 0.60999-0.62765 0.92484-1.5009 0.86719-2.2891-0.05765-0.78815-0.41965-1.4593-0.92773-1.9531-0.40483-0.39344-0.98595-0.57254-1.5781-0.69531 0.34472-0.61406 0.67003-1.369 0.60352-2.3555-0.12249-1.8166-1.3919-2.9746-2.375-3.5312-0.93637-0.53022-2.0316-0.83234-3.1797-0.75977-2.3489 0.14848-4.3712 1.5418-5.9922 3.4219-0.15091 0.17504-0.22801 0.42943-0.36914 0.61719-0.44316-1.9585-2.8062-3.0957-4.5449-1.8809l-2e-3 2e-3s-1.8211 1.3939-3.7949 3.8691c-0.28929-1.3012-1.3626-2.4108-2.8125-2.4297-0.06346-8.1e-4 -0.11294 0.0476-0.17578 0.0508l5.5137-7.3379c1.4455-1.8669 0.07635-4.7658-2.2832-4.8359zm53.383 11.211c-0.027 0.16252-0.0306 0.289-0.0723 0.46485-0.18701 0.78931-0.49665 1.7766-0.76172 2.7578-0.36711-0.17261-0.69484-0.41513-1.1328-0.42188 0.11946-0.85748 0.19399-1.5996 0.42774-2.6797 0.56036-0.0549 1.076-0.0979 1.5391-0.1211zm0.29492 7.7578-0.0195 0.0234c3e-3 -3e-3 3e-3 -7e-3 6e-3 -0.01 8e-5 -1e-4 0.0137-0.0137 0.0137-0.0137z" style="color-rendering:auto;color:#000000;dominant-baseline:auto;fill:#ffb0ac;font-feature-settings:normal;font-variant-alternates:normal;font-variant-caps:normal;font-variant-ligatures:normal;font-variant-numeric:normal;font-variant-position:normal;image-rendering:auto;isolation:auto;mix-blend-mode:normal;shape-padding:0;shape-rendering:auto;solid-color:#000000;text-decoration-color:#000000;text-decoration-line:none;text-decoration-style:solid;text-indent:0;text-orientation:mixed;text-transform:none;white-space:normal"/>
 <path d="m118.97 107.64c-1.2336-0.0405-2.3762 0.68848-2.8594 1.8242-1e-3 3e-3 -3e-3 7e-3 -4e-3 0.01-1.1959 2.8623-2.3528 5.1381-3.4727 7.1738-2.2886 0.3797-4.4644 0.79013-4.4688 0.79101-0.85834 0.17088-1.6141 0.71082-2.0137 1.3926s-0.48207 1.4399-0.34375 2.1348c0.10495 0.5272 0.47996 0.9733 0.86328 1.3984-0.5906-0.15972-1.1852-0.1362-1.7832 0.0996 0.23597-0.25808 0.45747-0.53242 0.57812-0.83984 0.29286-0.74616 0.24874-1.5177-4e-3 -2.1875-0.25265-0.66983-0.73069-1.2796-1.4434-1.6465-0.70942-0.36523-1.6472-0.40787-2.4688-0.082-0.0143 5e-3 -1.4919 0.56203-3.2539 1.5566-1.75 0.98784-3.9513 2.4219-5.5059 4.6465-1.0459 1.4967-1.8909 3.3686-1.9961 5.4023-0.05385 1.0406 0.15622 2.7964 1.6641 3.877 1.536 1.1008 3.3649 0.7434 4.6289 0.18554 2.2684-1.0012 3.8782-1.962 5.5703-2.916l-0.0234 0.35547c-6.7e-4 1e-3 -1e-3 3e-3 -2e-3 4e-3 -0.078 1.261 0.66749 2.3763 1.6562 2.8691s2.3292 0.41714 3.2891-0.40429c0.0193-0.0171 0.0382-0.0347 0.0566-0.0527 0 0 1.7523-1.9171 3.9395-4.6348 3e-3 0.21254-0.0776 0.5289-0.0645 0.73047 0.0413 0.63089 0.22145 1.5931 0.91211 2.4023 0.84159 0.98612 1.8682 1.2815 2.9219 1.209 1.4303-0.0984 2.3979-0.88694 2.8691-1.252 0.83761-0.64879 1.1145-1.0171 1.4844-1.4238 0.60781 0.75878 1.3433 1.1558 2.2578 1.2539 0.74457 0.0799 1.3977-0.10187 1.7832-0.24805 0.7973-0.30257 1.3952-0.74896 1.9062-1.1582 3e-3 -3e-3 6e-3 -7e-3 0.01-0.01-0.27513 1.4521-0.50039 2.7508-0.83593 4.3262-9.8164 0.50435-22.684 1.8182-34.533 3.209-16.074 1.8868-29.87 3.8442-29.881 3.8457-6.22e-4 1e-4 -0.0013-1e-4 -2e-3 0-0.87067 0.1177-1.663 0.6119-2.1035 1.2715-0.44085 0.6601-0.56628 1.4173-0.4668 2.1211 0.09949 0.7038 0.43056 1.3961 1.0371 1.9082 0.60517 0.5109 1.5012 0.7675 2.3691 0.6406 0.0036-5e-4 13.752-1.9485 29.748-3.8261 11.086-1.3013 23.057-2.5011 32.373-3.0586-0.99897 3.9122-1.9026 7.1306-2.4316 8.8672-1.3275 0.6103-2.1447 2.1499-1.6582 3.6386 2.1e-4 7e-4 -2.2e-4 0 0 0l0.61914 1.9804c0.41208 1.3164 1.6786 2.1055 2.8633 2.1055s2.4512-0.7891 2.8633-2.1055c0 0 2.1666-7.2051 4.0195-14.781 1.5547-0.04 3.1056-0.077 4.2695-0.041 2.1358 0.067 5.1498 0.4458 7.5781 1.0449 1.2126 0.2992 2.3048 0.6657 3.002 0.9941 0.13407 0.063 0.19353 0.1152 0.29883 0.1778-0.38436 0.4532-0.68158 0.9642-0.74414 1.5078-0.0921 0.8005 0.15096 1.5394 0.57031 2.123 0.41936 0.5837 1.042 1.0488 1.8301 1.2168 0.77652 0.1656 1.6848-0.042 2.3906-0.5664 0.0213-0.015 0.96208-0.6538 1.623-1.8437 0.73738-1.3273 1.0138-3.3125-0.041-5.2168-0.82407-1.4878-2.1724-2.2606-3.373-2.8262-1.2502-0.5889-2.6482-1.0297-4.1191-1.3926-2.9443-0.72643-6.1991-1.1344-8.8281-1.2168-0.9223-0.0289-2.0526-1e-3 -3.1289 0.0117 1.3429-6.7049 2.3867-13.295 2.3867-13.295l-2e-3 2e-3c0.20084-1.4175-0.67587-2.708-1.7988-3.1836-1.1222-0.47531-2.6584-0.20865-3.5371 0.91992 0 0-1.1519 1.3485-1.8496 2.1973-0.0106-0.55332 8e-3 -1.0994-0.17578-1.6992-0.2953-0.96319-0.90392-1.9132-1.9043-2.5664-0.95806-0.62557-2.0472-0.83851-3.0801-0.83789h-2e-3c-0.22427 1.5e-4 -0.48845 0.0331-0.72266 0.041 0.42864-1.3124 0.81742-2.5733 1.4004-4.0879 6.8e-4 -3e-3 1e-3 -7e-3 2e-3 -0.01 0.71072-1.8823-0.698-3.9942-2.709-4.0586zm-52.244 2.9746c-0.9865-0.0283-1.928 0.43318-2.5098 1.2305l-12.676 16.871-0.32031-2.1484v-2e-3c-0.12859-0.86501-0.63035-1.6456-1.291-2.0781-0.66114-0.43285-1.4164-0.55296-2.1172-0.44922s-1.3891 0.43715-1.8965 1.043c-0.50738 0.60583-0.76096 1.4975-0.63281 2.3633v2e-3l1.375 9.25c0.1862 1.255 1.156 2.1958 2.2305 2.4688 1.075 0.27304 2.3743-0.0923 3.1367-1.1074l7.2695-9.6758c-0.28076 0.69039-0.43312 0.93716-0.63672 1.541-0.64651 1.9175-1.3304 5.0356-1.332 5.043-0.19424 0.85327-0.01011 1.7613 0.44922 2.4043 0.45933 0.64295 1.1198 1.0283 1.8105 1.1856 0.69074 0.15724 1.4522 0.0956 2.1445-0.28516 0.69071-0.37987 1.2498-1.118 1.4453-1.9687l2e-3 -4e-3c6.82e-4 -3e-3 0.32491-1.2022 0.54883-2.0996 0.27079 0.52956 0.43233 1.1123 0.89648 1.5273 1.6178 1.4466 4.023 1.6746 6.3594 0.86524 0.91577-0.31726 2.1091-0.98539 3.3008-1.6445 0.94195 0.89643 2.1294 1.5789 3.6328 1.5586 2.9253-0.0394 5.152-1.7818 6.8242-3.0859 1.74-1.3571 3.0391-2.6973 3.0391-2.6973 0.60999-0.62765 0.92484-1.5009 0.86719-2.2891-0.05765-0.78815-0.41965-1.4593-0.92773-1.9531-0.40483-0.39344-0.98595-0.57254-1.5781-0.69531 0.34472-0.61406 0.67003-1.369 0.60352-2.3555-0.12249-1.8166-1.3919-2.9746-2.375-3.5312-0.93637-0.53022-2.0316-0.83234-3.1797-0.75977-2.3489 0.14848-4.3712 1.5418-5.9922 3.4219-0.15091 0.17504-0.22801 0.42943-0.36914 0.61719-0.44316-1.9585-2.8062-3.0957-4.5449-1.8809l-2e-3 2e-3s-1.8211 1.3939-3.7949 3.8691c-0.28929-1.3012-1.3626-2.4108-2.8125-2.4297-0.06346-8.1e-4 -0.11294 0.0476-0.17578 0.0508l5.5137-7.3379c1.4455-1.8669 0.07635-4.7658-2.2832-4.8359zm53.383 11.211c-0.027 0.16252-0.0306 0.289-0.0723 0.46485-0.18701 0.78931-0.49665 1.7766-0.76172 2.7578-0.36711-0.17261-0.69484-0.41513-1.1328-0.42188 0.11946-0.85748 0.19399-1.5996 0.42774-2.6797 0.56036-0.0549 1.076-0.0979 1.5391-0.1211zm0.29492 7.7578-0.0195 0.0234c3e-3 -3e-3 3e-3 -7e-3 6e-3 -0.01 8e-5 -1e-4 0.0137-0.0137 0.0137-0.0137z" style="color-rendering:auto;color:#000000;dominant-baseline:auto;fill:#ffb0ac;font-feature-settings:normal;font-variant-alternates:normal;font-variant-caps:normal;font-variant-ligatures:normal;font-variant-numeric:normal;font-variant-position:normal;image-rendering:auto;isolation:auto;mix-blend-mode:normal;shape-padding:0;shape-rendering:auto;solid-color:#000000;text-decoration-color:#000000;text-decoration-line:none;text-decoration-style:solid;text-indent:0;text-orientation:mixed;text-transform:none;white-space:normal"/>
 <path d="m118.92 109.14a1.5002 1.5002 0 0 0-1.4297 0.91211c-1.3194 3.1578-2.6104 5.7433-3.8438 7.9394-2.8494 0.442-5.1894 0.91797-5.1894 0.91797a1.5006 1.5006 0 1 0 0.58594 2.9434s1.1204-0.20537 2.5371-0.45118c-1.5848 2.3963-3.0184 4.1266-4.1856 5.4121l0.10156-1.5879a1.5002 1.5002 0 0 0-2.3066-1.3555s-4.9515 3.1603-9.7559 5.3047c0.13971-0.75839 0.53751-1.9567 1.0469-2.6855 0.88048-1.2599 2.5626-2.4798 4.0273-3.3066 1.4648-0.82684 2.6465-1.2734 2.6465-1.2734a1.5002 1.5002 0 1 0-1.0586-2.8066s-1.3949 0.52743-3.0625 1.4688c-1.6676 0.94133-3.6737 2.2818-5.0137 4.1992-0.91866 1.3146-1.6433 2.9734-1.7285 4.6211-0.04263 0.82382 0.08133 1.8937 1.0391 2.5801 0.95773 0.68636 2.1183 0.48675 3.1504 0.0312 3.1776-1.4026 5.8677-2.9302 7.8418-4.1074l-0.19336 3.0156a1.5002 1.5002 0 0 0 2.4726 1.2324s3.1442-2.9815 6.9043-8.5273c-0.39297 2.2446-0.59448 4.1974-0.50195 5.6133 0.0325 0.49694 0.1344 1.0306 0.55664 1.5254 0.42223 0.49474 1.169 0.72252 1.6777 0.6875 1.0174-0.07 1.5206-0.52768 2.0547-0.94141 1.0683-0.82746 1.9648-1.8867 1.9648-1.8867a1.5002 1.5002 0 1 0-2.2656-1.9668s-0.48593 0.45266-0.80469 0.77539c0.0617-1.6505 0.37201-3.938 1.0898-6.8789 1.4005-0.16806 2.7241-0.28851 3.7227-0.28906 0.42888-2.6e-4 0.58944 0.0848 0.62109 0.10547 0.0317 0.0207 0.0208-0.0125 0.0606 0.11719 0.0795 0.25937 0.0528 1.1438-0.1875 2.1582-0.24034 1.0144-0.61973 2.154-0.88672 3.2168-0.13349 0.53138-0.2425 1.0416-0.27344 1.5801-0.0309 0.53852-0.0272 1.1832 0.46094 1.8418 0.30077 0.40574 0.86156 0.70102 1.3184 0.75 0.45681 0.049 0.80173-0.0481 1.0918-0.1582 0.58013-0.22016 1.0196-0.54112 1.5-0.92578 0.9607-0.76934 1.9952-1.833 3-2.9375 0.18074-0.19867 0.16887-0.21276 0.3457-0.41211-0.48109 2.8451-1.1506 6.4719-1.9805 10.244-9.8486 0.45425-23.349 1.8516-35.611 3.291-16.06 1.8851-29.857 3.8418-29.857 3.8418a1.5002 1.5002 0 1 0 0.41992 2.9707s13.768-1.9517 29.787-3.832c11.858-1.392 24.978-2.7346 34.559-3.2285-1.4139 5.9043-2.5963 9.6906-3.2168 11.734a1.5002 1.5002 0 0 0-1.457 1.9668l0.625 2a1.5002 1.5002 0 0 0 2.8633 0s2.3672-7.5938 4.3008-15.822c2.0432-0.0672 3.9417-0.10054 5.4668-0.0527 2.2634 0.0709 5.3296 0.45606 7.8906 1.0878 1.2805 0.316 2.4392 0.6971 3.2812 1.0938 0.84207 0.3966 1.308 0.8568 1.3516 0.9355 0.29002 0.5237 0.17729 0.6133 0.0449 0.8516-0.13235 0.2383-0.31444 0.3848-0.31446 0.3848a1.5002 1.5002 0 1 0 1.75 2.4355s0.70157-0.4885 1.1875-1.3633c0.48596-0.8747 0.72602-2.3734-0.043-3.7617-0.59869-1.0809-1.5813-1.6687-2.6992-2.1953-1.1179-0.52661-2.4304-0.94524-3.8398-1.293-2.8188-0.69546-6.0058-1.0952-8.5156-1.1738-1.4135-0.0443-3.0887-0.0269-4.877 0.0195 1.6816-7.8081 2.6953-15.012 2.6953-15.012a1.5002 1.5002 0 0 0-2.6699-1.1309s-1.799 2.3053-3.7051 4.4004c-0.61689 0.67806-1.156 1.1598-1.7188 1.6934 0.21227-0.74011 0.43991-1.486 0.64453-2.3496 0.28357-1.1969 0.53749-2.4277 0.13867-3.7285-0.19941-0.65043-0.63871-1.3241-1.291-1.75-0.65231-0.42593-1.4304-0.59425-2.2598-0.59375-0.85113 5.7e-4 -1.8431 0.0703-2.8672 0.16602 0.56192-1.8767 1.2526-3.9396 2.1426-6.252a1.5002 1.5002 0 0 0-1.3555-2.0293zm-52.238 2.9746a1.5002 1.5002 0 0 0-1.2559 0.61523l-14.844 19.756-0.84766-5.6992a1.5006 1.5006 0 0 0-2.9688 0.43945l1.375 9.25a1.5002 1.5002 0 0 0 2.6836 0.68164l17-22.625a1.5002 1.5002 0 0 0-1.1426-2.418zm14.6 8.5195c-1.7993 0.11374-3.4933 1.2156-4.9492 2.9043-1.3331 1.5462-2.2718 3.738-2.3477 6.252-1.755 1.0106-3.95 2.3671-4.4746 2.5488-1.2903 0.44699-1.7326 0.17087-1.8887 0.0312-0.15609-0.13957-0.14214-0.34227-0.125-0.38085 1.2096-2.7228 2.6201-4.4087 3.7559-5.5391a1.5002 1.5002 0 0 0 2.248-1.3203v-1.375a1.5002 1.5002 0 0 0-2.3594-1.2285s-3.9559 2.7744-6.3867 8.2461c-0.573 1.2898-0.24848 2.8364 0.86719 3.834 1.1157 0.99758 2.9063 1.2464 4.8691 0.56641 0.98319-0.34061 2.4441-1.1006 4.0664-2.0391 0.01473 0.0265 0.0041 0.0477 0.01953 0.0742 0.57253 0.98378 1.8439 1.8168 3.3184 1.7969 2.3072-0.0311 4.2737-1.4841 5.9219-2.7695s2.8848-2.5586 2.8848-2.5586a1.5007 1.5007 0 1 0-2.1523-2.0918s-1.1122 1.1434-2.5762 2.2852c-1.4639 1.1418-3.3728 2.1247-4.1172 2.1348-0.59094 8e-3 -0.54055-0.0541-0.6875-0.30664-0.0181-0.0311-0.01985-0.12966-0.03711-0.16992 0.56299-0.35997 1.0866-0.64865 1.6523-1.0312 1.6001-1.0821 3.1163-2.2106 4.2832-3.2891 0.58348-0.5392 1.0814-1.0616 1.4746-1.6172 0.39316-0.5556 0.76583-1.1594 0.70508-2.0606-0.07936-1.177-0.88706-1.9147-1.6172-2.3281-0.73013-0.41343-1.5018-0.62183-2.3477-0.56836zm0.1875 2.9941c0.08859-6e-3 0.47364 0.0678 0.68164 0.18554-0.0208 0.0509 0.01314-0.0565-0.05859 0.0449-0.20007 0.28272-0.57435 0.69536-1.0625 1.1465-0.93396 0.8631-2.3081 1.8887-3.7559 2.877 0.3127-0.90577 0.75995-1.7235 1.3301-2.3848 1.0412-1.2077 2.4499-1.8429 2.8652-1.8691zm-17.816 0.60937a1.5002 1.5002 0 0 0-1.3926 0.89649s-1.5258 3.3224-2.1816 5.2676c-0.58808 1.7442-1.291 4.8965-1.291 4.8965a1.5003 1.5003 0 0 0 2.9258 0.66601s0.7509-3.2449 1.209-4.6035c0.52585-1.5597 2.0684-4.9844 2.0684-4.9844a1.5002 1.5002 0 0 0-1.3379-2.1387z" style="color-rendering:auto;color:#000000;dominant-baseline:auto;fill:#fff;font-feature-settings:normal;font-variant-alternates:normal;font-variant-caps:normal;font-variant-ligatures:normal;font-variant-numeric:normal;font-variant-position:normal;image-rendering:auto;isolation:auto;mix-blend-mode:normal;shape-padding:0;shape-rendering:auto;solid-color:#000000;text-decoration-color:#000000;text-decoration-line:none;text-decoration-style:solid;text-indent:0;text-orientation:mixed;text-transform:none;white-space:normal"/>
 <style type="text/css">.st0{fill:#FFFFFF;}</style>
 <style type="text/css">.st0{fill:#FFFFFF;}</style>
 <style type="text/css">.st0{fill:#FFFFFF;}</style>
 <style type="text/css">.st0{fill:#FFFFFF;}</style>
 <style type="text/css">.st0{fill:#FFFFFF;}</style>
 <path d="m118.37 107.12 0.0332 0.18164c-1.1905 0.17589-2.2703 0.83466-2.752 1.9668l-8e-3 0.0195c-1.1526 2.7578-2.2648 4.9339-3.3477 6.9121-2.1453 0.36099-4.2244 0.74917-4.2285 0.75-1.0003 0.19966-1.8656 0.8097-2.3457 1.6289-0.048 0.0818-7.7e-4 0.17225-0.041 0.25586-0.31858-0.59493-0.76269-1.1439-1.4316-1.4883-0.85313-0.43921-1.9217-0.47867-2.877-0.10156-0.027 0.01-1.5313 0.57614-3.3203 1.5859-1.7741 1.0014-4.0462 2.4714-5.6699 4.7949-1.0856 1.5535-1.9744 3.5082-2.0859 5.6641-0.05882 1.1366 0.17264 3.0914 1.8711 4.3086 1.7304 1.2401 3.7682 0.83427 5.123 0.23632 2.0274-0.89482 3.4697-1.7498 4.9551-2.5938 0.10068 1.2665 0.78315 2.3795 1.8203 2.8965 1.1685 0.5824 2.7148 0.48842 3.8379-0.47266l4e-3 -2e-3 2e-3 -4e-3c0.0255-0.0226 0.0499-0.0446 0.0742-0.0684l0.0117-0.01 8e-3 -0.01s1.58-1.8267 3.1113-3.6602c0.10314 0.65256 0.30997 1.4207 0.92774 2.1445 0.93992 1.1013 2.1673 1.4632 3.3359 1.3828 1.5974-0.10989 2.683-1.0009 3.1406-1.3555 0.67437-0.52235 0.916-0.83071 1.2031-1.1523 0.61698 0.58894 1.3341 0.99327 2.1797 1.084 0.8554 0.0918 1.5816-0.1135 2.0137-0.27734 0.44221-0.16782 0.69555-0.4064 1.0352-0.625-0.17155 0.92446-0.3423 1.8416-0.55078 2.8457-9.7923 0.51838-22.458 1.8067-34.172 3.1816-16.079 1.8874-29.872 3.8457-29.887 3.8477h-0.0039c-2.68e-4 1e-5 -0.0018-1e-5 -2e-3 0-3.68e-4 2e-5 -0.0039 0-0.0039 0l-0.0059 2e-3c-1.1e-5 0 0.0051 5e-5 0.0059 0-1.0131 0.13822-1.9178 0.69548-2.4473 1.4883-0.5146 0.77053-0.66146 1.6581-0.54687 2.4688 0.11465 0.81102 0.50125 1.6212 1.209 2.2188 0.728 0.6146 1.7516 0.9019 2.7637 0.75391 0.0054-7.5e-4 13.746-1.9475 29.734-3.8242 10.838-1.2722 22.432-2.4187 31.641-2.9902-0.89796 3.4726-1.7335 6.5017-2.2188 8.0976-1.332 0.78827-2.1655 2.3358-1.6797 3.9316 0.0153-3e-3 0.48242-0.0879 0.48242-0.0879l-0.47461 0.14844c6.3e-4 2e-3 -6.3e-4 4e-3 0 6e-3l0.61719 1.9746c0.48231 1.5408 1.9331 2.457 3.3398 2.457s2.8595-0.91626 3.3418-2.457v-2e-3l2e-3 -4e-3s2.0984-7.0521 3.9219-14.428c1.4143-0.0354 2.8308-0.0692 3.8711-0.0371 2.0915 0.0656 5.0921 0.44151 7.4746 1.0293 1.1324 0.27941 2.119 0.62143 2.7715 0.91602-0.24896 0.38246-0.53735 0.74959-0.59179 1.2226-0.10751 0.93445 0.17948 1.799 0.6621 2.4707 0.48277 0.67194 1.2112 1.218 2.1309 1.4141 0.93767 0.19997 1.973-0.0451 2.793-0.6543-0.0266 0.0189 0.0748-0.0519 0.18164-0.13672 0.11274-0.0895 0.26583-0.21859 0.43946-0.38672 0.34725-0.33624 0.77971-0.82873 1.1406-1.4785 0.81441-1.4659 1.1031-3.6356-0.041-5.7012-0.90052-1.6258-2.3668-2.4582-3.5957-3.0371-1.2932-0.60915-2.7221-1.058-4.2129-1.4258-2.9852-0.73653-6.2659-1.1469-8.9336-1.2305-0.76409-0.0239-1.6687-3e-3 -2.5469 0.01 1.2575-6.392 2.2831-12.714 2.2831-12.714v-6e-3l0.24218-1.5137-0.45703 0.45703c-0.22313-1.1805-0.86007-2.2242-1.8848-2.6582-1.3342-0.56509-3.096-0.24909-4.125 1.0703-6e-4 7.7e-4 -1e-3 1e-3 -2e-3 2e-3 -0.0109 0.0128-0.61451 0.73288-1.084 1.2891-0.028-0.21788 4e-3 -0.39247-0.0684-0.6289-0.32473-1.0592-1.0009-2.1161-2.1094-2.8398-1.0598-0.69202-2.2517-0.91864-3.3535-0.91797h-2e-3c-3e-3 0-5e-3 -1e-5 -8e-3 0 0.34956-1.0801 0.67467-2.1262 1.1524-3.3672l0.0137-0.0352 8e-3 -0.0352c0.0144-0.0635 0.0193-0.0541-0.0117 0.0391l-6e-3 0.0176c0.83151-2.2022-0.8071-4.659-3.1602-4.7344zm0.58398 1.0215h0.0156c1.66 0.0648 2.8301 1.8218 2.2422 3.3789l-4e-3 0.01-2e-3 0.01c-0.016 0.048-6e-3 0.0172-8e-3 0.0273-0.58032 1.5124-0.97356 2.7773-1.3965 4.0723l-0.2207 0.67969 0.71289-0.0234c0.26762-9e-3 0.52953-0.0407 0.70508-0.041h4e-3c0.96397-5.8e-4 1.9503 0.19673 2.8066 0.75586 0.89229 0.58262 1.4334 1.4277 1.6992 2.2949 0.15611 0.50949 0.14336 0.99168 0.1543 1.5625l0.0254 1.3535 0.85938-1.0469c0.69123-0.84093 1.8437-2.1894 1.8437-2.1894l8e-3 -8e-3 6e-3 -0.01c0.72861-0.93581 2.0398-1.1528 2.9492-0.76758 0.90989 0.38537 1.6646 1.4786 1.498 2.6543l-8e-3 0.0566c-0.0104 0.0653-1.0394 6.5485-2.373 13.207l-0.12109 0.60547 0.61719-6e-3c1.0808-0.0128 2.208-0.0399 3.1074-0.0117 2.5903 0.0812 5.8212 0.48484 8.7246 1.2012 1.451 0.35799 2.8182 0.79072 4.0254 1.3594 1.1723 0.55228 2.4008 1.2674 3.1484 2.6172 0.96549 1.7431 0.70332 3.5418 0.043 4.7305-0.3 0.54012-0.66919 0.96171-0.96289 1.2461-0.14684 0.14219-0.27492 0.25057-0.36523 0.32226-0.0903 0.0717-0.0904 0.0699-0.14648 0.10938l-6e-3 4e-3 -4e-3 4e-3c-0.59167 0.4396-1.3729 0.60975-1.9883 0.47851-0.65659-0.13996-1.1733-0.52407-1.5293-1.0195-0.35607-0.49554-0.5552-1.1069-0.47851-1.7734 0.0461-0.40027 0.28222-0.83342 0.6289-1.2422l0.38282-0.45117-0.50977-0.30079c-0.0711-0.0423-0.16255-0.1176-0.33984-0.20117h-2e-3c-0.74955-0.35288-1.8574-0.72229-3.0938-1.0273-2.4741-0.61041-5.5035-0.99021-7.6836-1.0586-1.1882-0.0368-2.7416 1e-3 -4.2969 0.041l-0.38281 0.01-0.0898 0.37109c-1.8482 7.5565-4.01 14.744-4.0117 14.75-0.34186 1.092-1.424 1.7559-2.3867 1.7559s-2.0429-0.66384-2.3848-1.7559l-0.61718-1.9746-4e-3 -0.012c-0.40353-1.2348 0.28233-2.5198 1.3906-3.0293l0.20507-0.0938 0.0645-0.21484c0.53293-1.7495 1.4369-4.9701 2.4375-8.8887l0.16992-0.66406-0.6836 0.041c-9.3332 0.55853-21.308 1.7585-32.4 3.0606-16.003 1.8784-29.756 3.8276-29.76 3.8281h-4e-3c-0.72368 0.10582-1.4903-0.12014-1.9727-0.52734-0.50534-0.42666-0.7809-0.99912-0.86523-1.5957-0.08437-0.59692 0.01962-1.2238 0.38672-1.7734 0.35077-0.52524 1.0294-0.95648 1.7559-1.0547h2e-3c0.0027-1.9e-4 0.0117-2e-3 0.01172-2e-3 0.02186-3e-3 13.799-1.9566 29.859-3.8418 11.844-1.3902 24.708-2.7038 34.502-3.207l0.38281-0.0195 0.0801-0.375c0.33771-1.5856 0.56362-2.8903 0.83789-4.3379l0.24024-1.2656-1.0312 0.77344c-0.028 0.021-0.01 7e-3 -0.0234 0.0195-0.50094 0.40118-1.0472 0.80597-1.7695 1.0801-0.33892 0.12852-0.919 0.28676-1.5527 0.21875-0.80052-0.0859-1.3839-0.39677-1.9219-1.0684l-0.36524-0.45703-0.39453 0.43359c-0.38743 0.42598-0.61256 0.73793-1.4199 1.3633-0.48479 0.37559-1.3344 1.0615-2.5977 1.1484-0.93873 0.0646-1.7646-0.1623-2.5078-1.0332-0.59147-0.69299-0.75569-1.5419-0.79297-2.1113-1e-3 -0.0177 8e-3 -0.13157 0.0254-0.25976 0.0178-0.1282 0.0415-0.27236 0.0391-0.44532l-0.0195-1.3867-0.86914 1.0801c-2.1749 2.7024-3.912 4.6011-3.916 4.6055-1e-5 1e-5 -4e-3 6e-3 -4e-3 6e-3 -4e-3 4e-3 -8e-3 6e-3 -0.0117 0.01-0.79671 0.68178-1.9313 0.74109-2.7402 0.33789-0.80844-0.40295-1.4447-1.3426-1.3809-2.3887 4e-5 -6.7e-4 -4e-5 -1e-3 0-2e-3l0.0859-1.2812-0.80469 0.45508c-1.699 0.95791-3.2871 1.9058-5.5273 2.8945-1.1732 0.51778-2.7932 0.82672-4.1348-0.13476-1.3173-0.94403-1.5059-2.5007-1.457-3.4453 0.09888-1.9116 0.90004-3.7027 1.9062-5.1426 1.4854-2.1256 3.6159-3.5218 5.3418-4.4961 1.7274-0.97503 3.1595-1.5165 3.1738-1.5215l0.01-2e-3 0.01-4e-3c0.68649-0.27229 1.4906-0.22985 2.0547 0.0606 0.59317 0.30535 0.99057 0.81018 1.2051 1.3789 0.21475 0.56912 0.24965 1.207 6e-3 1.8281-0.0816 0.20785-0.25843 0.44269-0.48047 0.68554l0.55078 0.80274c0.50334-0.19847 0.97368-0.21645 1.4707-0.082l1.6387 0.44336-1.1367-1.2617c-0.37543-0.41635-0.67318-0.80367-0.74414-1.1602-0.1173-0.58929-0.0498-1.217 0.2832-1.7852 0.31877-0.54386 0.96599-1.0118 1.6816-1.1543 4e-3 -8.8e-4 2.1695-0.41051 4.4512-0.78907l0.24024-0.0391 0.11719-0.21289c1.1257-2.0462 2.2923-4.3415 3.4961-7.2226l2e-3 -6e-3c0.40221-0.94536 1.356-1.5532 2.3828-1.5195zm-52.213 1.9746c-1.1514-0.033-2.2487 0.50496-2.9277 1.4356l-11.953 15.908-0.13867-0.92773v-2e-3l-0.0059-0.0371c-0.14997-1.0089-0.71747-1.9039-1.5117-2.4238-0.77167-0.50522-1.6573-0.64494-2.4648-0.52539-0.8074 0.11952-1.6147 0.50953-2.207 1.2168-0.60739 0.72524-0.88958 1.7405-0.74414 2.7461v6e-3c2.91e-4 2e-3 -2.93e-4 4e-3 0 6e-3l1.375 9.252c0.21786 1.4684 1.3329 2.558 2.6035 2.8809 1.2713 0.3229 2.7666-0.10582 3.6582-1.293l5.3809-7.1621c-0.4443 1.6368-0.96451 3.6496-0.9668 3.6602-0.22646 0.99481-0.02271 2.0339 0.5293 2.8066 0.53618 0.75053 1.3116 1.1996 2.1074 1.3809 0.79586 0.18117 1.6881 0.1104 2.4961-0.33399 0.83052-0.45676 1.4634-1.303 1.6914-2.2949l2e-3 -6e-3c3.07e-4 -1e-3 0.15449-0.59272 0.24609-0.9375 0.13046 0.22118 0.15548 0.42914 0.37891 0.62891 1.7819 1.5933 4.3913 1.8184 6.8555 0.96484 0.91231-0.31606 2.0097-0.93622 3.1016-1.541 0.96551 0.83476 2.1641 1.5028 3.6758 1.4824 3.1204-0.042 5.4534-1.8878 7.125-3.1914 1.7707-1.381 3.0898-2.7441 3.0898-2.7441 0.7116-0.7322 1.0771-1.7267 1.0078-2.6738-0.06725-0.91943-0.49279-1.7065-1.0781-2.2754-0.36543-0.35515-0.83072-0.44602-1.2773-0.57812 0.27449-0.58633 0.51217-1.2707 0.45313-2.1465-0.13713-2.0337-1.5457-3.3214-2.627-3.9336-1.011-0.57246-2.2037-0.90356-3.459-0.82422-2.5047 0.15833-4.6184 1.633-6.2871 3.5508-0.9485-1.6816-3.136-2.5164-4.873-1.3027l-0.01953 0.0137-2e-3 2e-3c-0.0016 1e-3 -1.6928 1.4969-3.4004 3.4648-0.43237-0.93639-1.1906-1.607-2.2344-1.8672l5.0664-6.7441c1.6925-2.1859 0.09873-5.5586-2.6641-5.6406zm3.2344 10.787-0.01367 0.01-0.0332 0.0332zm-6.3125 15.512-0.03906 0.11133 0.02734-0.0566zm-18.875-8.9082-0.0039-0.0605v0.0391zm21.924-16.391h2e-3c1.9563 0.0581 3.1009 2.4814 1.9023 4.0293l-2e-3 2e-3 -6.1582 8.1953 1.0684-0.0547c0.09266-5e-3 0.1152-0.0233 0.16016-0.041 1.1874 0.026 2.0704 0.93154 2.3145 2.0293l0.22656 1.0215 0.65234-0.81836c1.9323-2.4232 3.6881-3.7664 3.6973-3.7734 1.4437-1.0028 3.3982-0.0419 3.7656 1.582l0.23828 1.0547 0.64844-0.86328c0.21891-0.29124 0.29819-0.53443 0.34766-0.5918 1.5665-1.8169 3.4761-3.1128 5.6465-3.25 1.0409-0.0658 2.0386 0.20929 2.9004 0.69726 0.88494 0.50103 2.0152 1.5294 2.123 3.1289 0.058 0.86024-0.2162 1.4976-0.54102 2.0762l-0.33398 0.59571 0.66992 0.13867c0.56117 0.11634 1.0424 0.28483 1.3301 0.56445 0.43082 0.41871 0.7293 0.97399 0.77734 1.6309 0.04603 0.62931-0.21819 1.3812-0.72656 1.9043v2e-3s-1.279 1.3172-2.9883 2.6504c-1.6728 1.3046-3.7932 2.9437-6.5234 2.9805-1.3486 0.0182-2.3995-0.58274-3.2812-1.4219l-0.26562-0.25195-0.32031 0.17774c-1.1932 0.65995-2.3851 1.3192-3.2227 1.6094-2.2087 0.76511-4.4096 0.53424-5.8633-0.76562-0.33374-0.29841-0.48337-0.79264-0.78516-1.3828l-0.60547-1.1875-0.32422 1.2949c-0.21501 0.86168-0.51345 1.9712-0.5332 2.0449l-0.0059 0.01-0.01367 0.0566c-0.16304 0.70944-0.64832 1.3396-1.1992 1.6426-0.57661 0.31713-1.2073 0.36964-1.793 0.23633-0.5856-0.13337-1.1312-0.45291-1.5137-0.98828-0.36665-0.51326-0.53116-1.2902-0.36914-2.002l2e-3 -4e-3v-2e-3c0.0016-7e-3 0.68822-3.1251 1.3164-4.9883 0.19265-0.57135 0.33808-0.80332 0.62695-1.5137l-0.86328-0.48828-7.2695 9.6758c-0.63318 0.84305-1.7346 1.147-2.6133 0.92383-0.87838-0.22317-1.7048-1.017-1.8594-2.0586l-1.3691-9.2129v-2e-3l-0.0059-0.0371c-0.10688-0.7221 0.11651-1.4852 0.52148-1.9688 0.42247-0.50443 0.99174-0.78118 1.5859-0.86914 0.59402-0.0879 1.2189 0.0126 1.7695 0.37305 0.52705 0.34504 0.96311 1.0113 1.0703 1.7324l0.49805 3.334 13.395-17.83 2e-3 -2e-3c0.48455-0.66404 1.2702-1.049 2.0918-1.0254zm54.365 10.162-0.99219 0.0488c-0.47541 0.0238-0.99773 0.0677-1.5625 0.12305l-0.36328 0.0352-0.0762 0.35742c-0.23912 1.1049-0.3176 1.8683-0.43555 2.7148l-0.0781 0.56055 0.56641 0.01c0.25728 4e-3 0.50112 0.17246 0.92773 0.37305l0.53906 0.25391 0.15625-0.57618c0.26153-0.96808 0.57164-1.9527 0.76563-2.7715 0.0415-0.17487 0.0469-0.28299 0.0605-0.39258zm-1.5801 1.0977c-0.14631 0.58547-0.35509 1.2996-0.56054 2.0273-0.0733-0.0364-0.15513-0.0519-0.23828-0.084 0.0801-0.60226 0.16816-1.2034 0.30468-1.9043 0.17325-0.0156 0.33188-0.0267 0.49414-0.0391zm0.55469 6.8535-0.014 0.014v2e-3c-6e-5 6e-5 -5e-3 9e-3 -6e-3 0.01l0.73242 0.66992c-1e-3 1e-3 -1e-3 5e-3 -2e-3 6e-3 -1e-3 2e-3 -5e-3 5e-3 -6e-3 6e-3l-0.44141-0.36133 0.42383 0.38672c6e-5 -6e-5 5e-3 -9e-3 6e-3 -0.01 6.2e-4 -7.4e-4 5e-3 -5e-3 6e-3 -6e-3 1.9e-4 -2.2e-4 -2e-4 -2e-3 0-2e-3l4e-3 -2e-3c6.2e-4 -7.7e-4 1e-3 -3e-3 2e-3 -4e-3h2e-3l0.01-0.01 0.0371-0.0449 0.0156-0.0215-4e-3 -4e-3c2e-3 -3e-3 6e-3 -7e-3 8e-3 -0.01s3.1e-4 -3e-3 2e-3 -6e-3c-2e-3 4e-3 -8e-3 0.01-0.0117 0.0156zm-0.0195 0.0254c-4e-3 4e-3 -0.0177 0.0206-0.0293 0.0352l2e-3 2e-3c0.0107-0.0134 0.0276-0.0374 0.0273-0.0371zm-0.0293 0.0352 0.0176-0.0254-0.0195 0.0234zm-0.0137 0.0176c-0.0169 0.0219-0.0298 0.0357-0.0371 0.0488-2e-3 3e-3 -3.1e-4 3e-3 -2e-3 6e-3 8e-3 -0.0141 0.0226-0.0293 0.041-0.0527z" style="color-rendering:auto;color:#000000;dominant-baseline:auto;fill:#4a4a4a;font-feature-settings:normal;font-variant-alternates:normal;font-variant-caps:normal;font-variant-ligatures:normal;font-variant-numeric:normal;font-variant-position:normal;image-rendering:auto;isolation:auto;mix-blend-mode:normal;shape-padding:0;shape-rendering:auto;solid-color:#000000;text-decoration-color:#000000;text-decoration-line:none;text-decoration-style:solid;text-indent:0;text-orientation:mixed;text-transform:none;white-space:normal"/>
</svg>
