<svg width="192" height="192" version="1.1" viewBox="0 0 192 192" xmlns="http://www.w3.org/2000/svg">
 <g transform="translate(0 -860.36)">
  <rect x="20" y="880.36" width="152" height="152" rx="9.9346" ry="9.9346" style="fill-rule:evenodd;fill:#575a5c"/>
  <path transform="translate(0 860.36)" d="m118.66 41.74v4.7656h-1.6328c-1.4096 0-2.8489 0.26169-4.1035 1.2148-1.076-0.72694-2.3818-1.2148-3.7442-1.2148-0.62457 0-1.1631 0.15491-1.748 0.22852v-0.22852h-12.082v0.20508c-0.58006-0.11606-1.166-0.20508-1.75-0.20508h-7.7305c-1.3462 0-2.7098 0.27707-3.9238 1.127-1.214-0.84988-2.5776-1.127-3.9238-1.127h-23.312c-1.4416 0-2.9192 0.25163-4.1934 1.2598-1.2741 1.0082-1.9043 2.7272-1.9043 4.1797v14.297c0 0.20383 0.114 0.42546 0.14062 0.63867h-0.14062v10.639h10.775v7.8633h1.5234v8.0254c0 1.2764 0.48968 2.7565 1.4727 3.7812-1.4168 0.0068-2.8615 0.26048-4.1074 1.2461-1.263 0.99917-1.8887 2.7032-1.8887 4.1465v6.4648h0.17969c-0.04369 0.26969-0.17969 0.54192-0.17969 0.80078v7.3887c0 1.4431 0.62417 3.1453 1.8867 4.1445 1.2626 0.99919 2.7319 1.25 4.168 1.25h13.785v-0.21484c0.59415 0.12699 1.1977 0.21484 1.7949 0.21484h7.8477c1.3999 0 2.8619-0.26908 4.0957-1.2734 0.1224-0.0996 0.16333-0.26505 0.27344-0.37695 0.10154 0.10474 0.13269 0.25457 0.24609 0.34961 1.2465 1.0445 2.7338 1.3008 4.1699 1.3008h7.8496c1.3193 0 2.6787-0.288 3.8652-1.1562 1.1862 0.86729 2.5466 1.1562 3.8652 1.1562h7.8477c1.4359 0 2.9055-0.25102 4.168-1.25 1.2625-0.99898 1.8867-2.6991 1.8867-4.1426v-14.656c0-1.4436-0.62572-3.1456-1.8887-4.1445-0.70985-0.56148-1.4861-0.87168-2.2832-1.0488v-7.1211h2.3281v3.1406c0 1.4522 0.62985 3.1713 1.9043 4.1797 1.2744 1.0084 2.7538 1.2578 4.1953 1.2578h7.8457c1.4418 0 2.9429-0.25614 4.2012-1.3105 1.2583-1.0544 1.7812-2.7436 1.7812-4.127v-18.783h-7.7305v-1.3105h-20.59l-0.084 0.0039c-1.304 0.0737-2.5794 0.39128-3.7305 1.1914-1.2098-0.90951-2.6064-1.1953-3.9512-1.1953h-7.8477c-1.3454 0-2.7103 0.27631-3.9238 1.125-1.2146-0.85064-2.5794-1.125-3.9258-1.125h-1.748v-1.7519h26.59v-0.17578c0.58167 0.10659 1.1667 0.17578 1.748 0.17578h13.832v-29.822zm-50.119 29.822h3.3809v0.63672c0 0.43345 0.2387 0.73485 0.34766 1.1152h-3.9746c0.08086-0.3774 0.24609-0.75933 0.24609-1.1152z" style="color-rendering:auto;color:#000000;dominant-baseline:auto;fill:#4a4a4a;font-feature-settings:normal;font-variant-alternates:normal;font-variant-caps:normal;font-variant-ligatures:normal;font-variant-numeric:normal;font-variant-position:normal;image-rendering:auto;isolation:auto;mix-blend-mode:normal;shape-padding:0;shape-rendering:auto;solid-color:#000000;text-decoration-color:#000000;text-decoration-line:none;text-decoration-style:solid;text-indent:0;text-orientation:mixed;text-transform:none;white-space:normal"/>
  <path transform="translate(0 860.36)" d="m121.59 44.676v4.7656h-4.5684c-2.1081 0-3.1621 0.83398-3.1621 2.502v14.299c0 1.668 1.054 2.3828 3.1621 2.3828h10.895v-23.949h-6.3262zm-66.887 4.7656c-2.1088 0-3.1621 0.83398-3.1621 2.502v14.299c0 1.668 1.0533 2.3828 3.1621 2.3828h4.6875v1.1914h-7.8496v4.7656h10.895c2.1088 0 3.1621-0.71484 3.1621-2.3828v-22.758h-10.895zm12.418 0v19.184h6.3262v-7.1484h1.4043v10.723c0 0.71513 0.46873 1.3103 1.1719 1.7871 0.58595 0.47675 1.289 0.5957 1.9922 0.5957h1.5215v21.328h6.209v-14.656h1.5234v14.656h6.3242v-17.158c0-1.6686-1.0533-2.502-3.1621-2.502h-4.6855v-1.668-4.7656h-4.5684v-8.6973c0-1.072-0.58658-1.6678-1.6406-2.0254 1.0547-0.35757 1.6406-1.0738 1.6406-2.0273v-5.123c0-1.668-1.0533-2.502-3.1621-2.502h-10.895zm18.742 0c-2.1088 0-3.1621 0.83398-3.1621 2.502v3.5742h6.3242v-1.1914h1.4062v2.3828h-4.5684c-2.1088 0-3.1621 0.83599-3.1621 2.3848v7.1484c0 1.668 1.0533 2.3828 3.1621 2.3828h10.895v-16.682c0-1.668-1.0553-2.502-3.1641-2.502h-7.7305zm12.418 0v19.184h6.207v-14.299h1.5234v14.299h6.3262v-16.682c0-0.71513-0.35154-1.3104-1.0547-1.7871-0.70314-0.47676-1.4062-0.71484-2.1094-0.71484-2.1088 0-3.6315 0.47817-4.6855 1.3125v-1.3125h-6.207zm-40.414 4.8848h1.5234v9.5312h-1.5234v-9.5312zm15.58 0h1.4043v2.3828h-1.4043v-2.3828zm46.621 0h1.5215v9.5312h-1.5215v-9.5312zm-31.043 7.1504h1.4062v2.3828h-1.4062v-2.3828zm-25.184 14.773v1.3105h-1.5234v4.8848h1.5234v10.961c0 1.668 1.0533 2.5039 3.1621 2.5039h7.8477c1.9916 0 3.0469-0.83595 3.0469-2.5039v-9.7695h-6.209v7.3867h-1.5234v-8.5781h7.7324v-4.8848h-7.7324v-1.3105h-6.3242zm34.439 0c-2.1088 0-3.1641 0.83398-3.1641 2.502v14.654c0 1.668 1.0553 2.5039 3.1641 2.5039h7.8477c1.9902 0 3.0449-0.83595 3.0449-2.5039v-3.5742h-6.207v1.1914h-1.5234v-2.502h7.7305v-9.7695c0-1.6686-1.0547-2.502-3.0449-2.502h-7.8477zm15.695 0c-2.1081 0.11919-3.1621 0.95318-3.1621 2.502v17.158h6.207v-8.5781h5.5078v-4.8867h-5.5078v-1.1914h5.5078v-5.0039h-8.5527zm11.246 0v1.3105h-1.5215v4.8848h1.5215v10.961c0 1.668 1.0546 2.5039 3.1641 2.5039h7.8457c2.1094 0 3.0469-0.83595 3.0469-2.5039v-9.7695h-6.209v7.3867h-1.5234v-8.5781h7.7324v-4.8848h-7.7324v-1.3105h-6.3242zm-23.779 5.0039h1.5234v2.3828h-1.5234v-2.3828zm-39.008 18.824c-2.1088 0-3.1621 0.83333-3.1621 2.502v3.5742h6.3242v-1.1914h1.5234v2.502h-4.6855c-2.1088 0-3.1621 0.83538-3.1621 2.3828v7.3887c0 1.6673 1.0533 2.502 3.1621 2.502h10.895v-17.158c0-1.6686-1.0553-2.502-3.1641-2.502h-7.7305zm12.533 0v17.158c0 1.6673 0.93811 2.502 3.0469 2.502h7.8477c1.9916 0 3.0449-0.83465 3.0449-2.502v-17.158h-6.207v14.775h-1.5234v-14.775h-6.209zm16.635 0v1.1914h-1.6406v4.8848h1.6406v11.082c0 1.6673 0.93616 2.502 3.0449 2.502h7.8496c1.9916 0 3.0449-0.83465 3.0449-2.502l-0.00196-9.7695h-6.207v7.3867h-1.5234v-8.6992h7.7324v-4.8848h-7.7305v-1.1914h-6.209zm18.625 0c-1.9909 0-3.0449 0.83528-3.0449 2.5039v14.654c0 1.6673 1.054 2.502 3.0449 2.502h7.8477c2.1081 0 3.1641-0.83465 3.1641-2.502v-14.654c0-1.6686-1.056-2.5039-3.1641-2.5039h-7.8477zm3.1621 4.8848h1.5234v9.8906h-1.5234v-9.8906zm-47.793 7.3887h1.5234v2.502h-1.5234v-2.502z" style="fill:#fff;stroke-width:.66586"/>
  <path d="m95.98 970.82-1.7363 0.35547c-0.65728 0.13444-1.1259 0.27504-1.5391 0.48633l-0.03516 0.0176-0.0332 0.0195c-0.58493 0.33974-1.0801 0.7995-1.4961 1.3281-0.31038-0.21012-0.64945-0.56883-1.0098-0.69727-1.0866-0.63582-2.404-1.0704-3.9082-0.9375-2.1979 0.1549-4.2622 1.4144-5.7402 3.5762-1.1483 1.4782-1.6974 3.1023-1.9785 4.7578l-1.0117-1.0234-0.95508 1.6172c-0.0073 0.0123-0.01814 0.023-0.02539 0.0352-0.29427-0.34024-0.55516-0.71961-0.85938-1.0293l-1.0371-1.0547-1.0312 1.0606c-0.21683 0.22301-0.32295 0.37571-0.57812 0.73242-0.24932 0.34852-0.58411 0.84513-0.99414 1.498-0.35617-0.7475-0.80806-1.4194-1.4336-1.8965l-1.1484-0.87695-0.87891 1.1504c-0.28063 0.36742-0.5368 0.72405-0.81055 1.0996h-0.74023c-0.13212-0.0566-0.15599-0.12109-0.46094-0.12109h-0.78125l-0.42969 0.65429c-0.0062 0.01-0.03731 0.048-0.04492 0.0586-0.82596-0.38497-1.6643-0.76394-2.4238-1.1504l-1.3066-0.66602-0.64648 1.3164c-0.11861 0.24127-0.11373 0.0903 0.17773-0.0566l-0.43555 0.21875-0.1582 0.32226-0.08594 0.0449-0.04492 0.0449c-0.09641 0.0435-0.25021 0.10327-0.45312 0.20704l0.19727-0.084c-0.4472 0.15019-0.61809 0.16211-0.35938 0.16211-0.48107 0-0.5332 0.0803-0.61133 0.1211h-0.46094l-0.03516 0.0371-0.625-0.31836 0.12695 0.83399c-0.05621 0.0579-0.10204 0.0954-0.1875 0.21094-0.13531 0.18298-0.35547 0.50305-0.35547 1.0391v0.18555l0.04687 0.17968c0.42173 1.6113 0.8455 3.2095 1.2715 4.7461-0.38778 0.63655-0.62009 1.2392-0.91016 1.8594-0.12152-1.9111-0.5464-3.6405-1.5156-4.8867-0.37005-0.47581-0.8031-0.89131-1.2988-1.2402l-0.04688-0.0312c-0.79269-0.5129-1.6661-0.84515-2.5957-0.99805-0.53175-0.0874-1.1127 0.0148-1.6758 0.0449 0.21073-0.61651 0.41706-1.2217 0.63086-1.873 0.47839-1.3367 0.95762-2.797 1.3242-4.1641l0.21484-0.79883-0.58008-0.58985c-0.45646-0.46428-0.7285-0.5133-0.96484-0.63281l-1.502-0.75977-0.52539 1.5996c-0.07944 0.24215-0.15885 0.48432-0.23828 0.72657-1.279-0.46732-2.5571-0.95347-3.8965-1.4082l-1.1133-0.37695-0.59766 1.0117c-0.68293 1.157-1.5178 2.493-2.2578 3.9902-0.0031 6e-3 -0.0027 8e-3 -0.0059 0.0137-0.85164 1.6102-1.3519 2.874-1.6895 3.6758l-0.02344 0.0547-0.01758 0.0566c-0.34452 1.0525-0.52664 2.2394-0.58008 3.4473-0.57515 0.67949-1.1631 1.4249-1.5156 2.4883-0.38295 1.0427-0.66992 2.1507-0.66992 3.332 0 1.2839 0.2919 2.3122 0.54102 3.0723l0.01172 0.041 0.01563 0.0391c0.18946 0.48119 0.46576 0.89453 0.79102 1.248 0.32526 0.35351 0.70008 0.64666 1.0898 0.88477l0.1875 0.11523 0.21289 0.0527c0.02456 6e-3 0.06283 7e-3 0.08789 0.0137-0.40232 0.21481-0.83442 0.38136-1.1641 0.7168-0.51596 0.5251-0.95244 1.1851-1.3496 1.9219-0.82249 1.4035-1.2441 2.9369-1.2441 4.4043 0 0.6949 0.13906 1.3346 0.36719 1.9082 0.22813 0.5737 0.54581 1.0814 0.89844 1.5117l0.04102 0.051 0.04492 0.047c1.0845 1.1031 2.8481 1.2891 4.2695 0.6699 1.1317-0.4066 2.0811-1.2185 3.1816-2.3379 0.66448-0.6764 1.3333-1.4535 2.0176-2.2364 0.19451 0.057 0.40118 0.091 0.625 0.1817l0.26172 0.1055h0.04102c0.0894 0.043 0.20797 0.1007 0.40234 0.1992 0.0019 9e-4 2e-3 1e-3 0.0039 0 0.55576 0.2829 1.0128 0.439 1.3594 0.5567l0.94141 0.3183 0.63672-0.7636c1.2968-1.5588 2.3729-2.8956 3.3438-4.254l0.0196-0.028c0.86118-1.2648 1.4502-2.5002 2.0195-3.7188 0.10372 0.64362 0.16518 1.3482 0.31055 1.8653l0.02539 0.086 0.03516 0.084c0.41535 0.9865 0.98702 1.8502 1.748 2.7539l1.0273 1.2188 1.3301-1.3594 0.07617-0.1191c0.5532-0.8442 1.1067-1.689 1.6602-2.5333 0.11249 0.2123 0.26758 0.5581 0.28516 0.5938l0.10156 0.2089 0.16211 0.164c0.23735 0.2423 0.50463 0.5774 1.0762 0.8711l1.1309 0.5821 0.7207-1.0489c0.54333-0.7889 1.0068-1.5206 1.4863-2.2675 0.40911 0.48651 0.78409 0.95638 1.3281 1.5097l1.1895 1.209 1.0078-1.3652c0.62335-0.84604 1.417-1.7928 2.1543-2.8886l0.02344 0.0742 0.04492 0.0918c0.43548 0.88579 1.0456 1.7123 1.9492 2.2636l1.1133 0.6797 0.79102-1.0351c0.27583-0.3612 0.5809-0.75464 0.87695-1.1367 1.1e-4 3.3e-4 0.0018-3.3e-4 2e-3 0 0.01321-0.0171 0.02583-0.0337 0.03906-0.0508 0.0442 0.0974 0.07537 0.18193 0.13672 0.27734 0.14829 0.33123 0.30204 0.68344 0.71289 0.92188 0.45879 0.26623 1.0649 0.20073 1.5254 0.0351 0.25894-0.0673 0.5292-0.0899 0.73047-0.2539 0.18858-0.15365 0.23617-0.28528 0.33008-0.42969 0.48387-0.52776 0.46056-0.87904 0.48633-1.1152 0.02718-0.2491 0.02344-0.44008 0.02344-0.5586 0-0.14379-0.10396-0.51514-0.16211-0.82226 0.14626 0.10965 0.21669 0.14818 0.39453 0.28906l0.01172 8e-3 0.0098 8e-3c1.4054 1.0719 2.32 1.7833 3.0527 2.2305l1.0742 0.65625 0.79688-0.97461c0.63562-0.77573 1.2218-1.6088 1.7578-2.2637 0.0738-0.0901 0.16718-0.18444 0.24414-0.27734 0.34297 0.9852 0.9216 1.7142 1.502 2.4219l1.4238 1.7384 0.99219-2.0157c0.29191-0.59323 0.82741-1.4648 1.6953-2.5742 0.6297 0.98684 1.3283 1.8441 1.9902 2.6289l1.1055 1.3125 1.1055-1.3125c0.68286-0.8096 1.3671-1.6217 2.1504-2.5332 0.0201 0.0549 0.0335 0.17982 0.0488 0.22461 0.32453 1.1339 1.0128 2.0103 1.7598 2.6172l1.0215 0.83008 0.92188-0.9375c0.78531-0.79815 1.4604-1.5491 2.1621-2.293 0.16151 0.0745 0.324 0.12715 0.45117 0.21289l0.20898 0.14062 0.24414 0.0625c0.16875 0.0428 0.35774 0.15968 0.65625 0.35938 0.67288 0.57152 1.4 1.2124 1.9902 1.9121l1.0254 1.2168 1.1133-1.1368c0.40122-0.40927 0.55897-0.62036 0.59766-0.64649l0.11914-0.082 0.10351-0.10351c0.35048-0.35714 0.5522-0.49706 0.44336-0.44141l0.17188-0.0859 0.38281 0.29102v-0.59375c0.11231-0.0877 0.21887-0.18135 0.49805-0.32422l2e-3 -2e-3c0.55089-0.28067 0.90271-0.48912 0.98047-0.51563l0.33203-0.11328 0.26172 0.17969c0.16394 0.11168 0.42337 0.30571 0.69726 0.49218 0.15364 0.19609 0.30312 0.42028 0.47071 0.58594 0.34101 0.5064 0.67151 0.83792 0.93945 1.2031l0.0606 0.084 0.0723 0.0723c0.23877 0.2433 0.40982 0.49679 0.64649 0.85548l1.2754 1.9336 1.1777-1.9961c0.22837-0.38725 0.63578-0.82068 1.1348-1.4492 0.50814-0.51734 0.94311-0.95998 1.4434-1.4688v0.39843c0 0.11985 0.0653 0.70651 0.26562 1.1152l0.21289 0.43555 0.4336 0.21875c0.23012 0.11603 0.42181 0.29527 0.21093 0.082l0.20704 0.21289 0.27539 0.11133c0.45967 0.18669 0.61857 0.32089 0.6875 0.39059l0.16211 0.1641 0.20507 0.1055c-0.27938-0.1437 0.21741 0.2049 0.56641 0.5605h2e-3c0.38119 0.3866 0.52973 0.6591 0.94141 1.0742l1.1309 1.1407 1.0156-1.2461c0.53206-0.6524 1.0808-1.2096 1.7832-1.9219h6e-3c0.22919-0.23506 0.36606-0.37336 0.59375-0.52731l0.11914-0.082 0.10156-0.10157c0.0317-0.0322 0.14079-0.10044 0.17187-0.13086 0.0577 0.23414 0.0289 0.45647 0.10547 0.69532 0.28328 1.1305 0.8074 2.3216 1.582 3.5019l0.20899 0.3203 1.5684 0.8028 0.74414-0.8321c0.4511-0.5049 0.91383-1.0617 1.3691-1.5781 9e-3 0.04 4e-3 0.085 0.0137 0.125l0.0586 0.2402 0.13672 0.209c0.0296 0.045 0.14565 0.5226 0.58789 1.1934l-0.19726-0.4512c0.18429 0.7487 0.61256 1.3878 1.0762 1.8594l1.1894 1.2109 0.94922-1.2871c0.0728 0.2058 0.11702 0.4675 0.55664 0.9121l1.2617 1.2754 0.97852-1.5019c0.10997-0.1687 0.39458-0.3239 0.1875-0.254h6e-3c0.45686-0.1259 0.42095-0.074 0.73047 0.1506 0.0763 0.019 0.0996 0.027 0.14648 0.039 0.30418 0.2026 0.55657 0.357 0.6543 0.4902l0.0625 0.084 0.0742 0.076c0.38265 0.3875 0.65791 0.7596 1.1074 1.4454l1.3926 2.123 1.1172-2.2793c-0.0506 0.1032 0.083-0.1012 0.4336-0.457h2e-3c0.3504-0.3571 0.48945-0.4962 0.71484-0.6484h2e-3c0.28932-0.1961 0.10462-0.1094 0.125-0.1094h0.34765l0.3086-0.1582c0.0564-0.029 0.41517-0.08 0.16406-0.08h1.4453v-10.713l-0.25391-0.37109c-0.69794-1.0135-1.4071-1.8505-2.0742-2.6856 0.71604-1.504 1.4837-3.0184 2.2969-4.6719l0.0273-0.0527 0.0215-0.0547c0.23483-0.59712 0.48573-1.2163 0.64258-1.8535 0.11845-0.47695 0.27734-1.0615 0.27734-1.7734 0-0.78511-0.12907-1.4631-0.30664-2.0039l-0.0605-0.18164-0.10546-0.16016c-0.31436-0.47868-0.67324-0.91465-1.2559-1.2109l-0.3086-0.15625h-0.3457c-0.36275 0-0.86136 0.14388-1.1914 0.41211-0.32667 0.26549-0.47109 0.54427-0.57226 0.75196-0.28758 0.58131-0.26953 1.117-0.26953 1.4726 0 0.66839 0.18732 1.1549 0.30468 1.5117 0.14977 0.51783 0.21195 0.62297 0.31836 0.87891-0.15041-0.0874-0.37738-0.19302-0.7207-0.54297l-2e-3 -2e-3c-0.58585-0.59583-1.2568-1.2802-1.916-2.0625l-1.4238-1.6895-0.97851 1.9805c-0.19448 0.39335-0.38306 0.68188-0.61719 1.0391l-0.0469 0.0723-0.0391 0.0781c-0.1103 0.22278-0.31677 0.45761-0.4414 0.58594-4.7e-4 4.8e-4 -1e-3 1e-3 -2e-3 2e-3 -0.23283 0.2356-0.37711 0.38659-0.77929 0.69336l-0.0801 0.0606h-0.0645c0.11739-0.28665 0.14295-0.32179 0.27149-0.66992l0.31445-0.84961-0.6289-0.65234c-0.12524-0.13028-0.24875-0.25656-0.3711-0.37891l-1.2617-1.2598-0.76757 1.1797c-0.80905-0.69629-1.6243-1.4023-2.4141-2.0449l-1.416-1.1523-0.79688 1.6406v2e-3c-0.067 0.0456-0.20056 0.11822-0.22851 0.13672-0.0459 1e-3 -0.035 2e-3 -0.11133 2e-3h-0.70508l-0.86523-0.44336-0.74415 0.7539c-0.16502 0.16688-0.21814 0.29019-0.27929 0.40235l-0.51758 0.52148 0.17969 0.77539c0.23405 1.0116 0.46727 2.0238 0.70117 3.0352l-0.13086-0.24219c-1.1822-2.1654-2.3535-4.1913-3.5117-6.3144l-0.93555-1.7129-1.3672 1.3926c-0.86872 0.88423-1.3027 1.4668-1.3027 1.4668l0.13282-0.15625c0.19066-0.19392-0.21849 0.14273-0.60547 0.51172-0.18859 0.13802-0.29814 0.23465-0.41211 0.33789-0.18131 0.0919-0.46017 0.23623-0.74414 0.38086-0.48391-0.97416-0.9897-1.9292-1.3906-2.8301l-0.97461-2.1914-1.4824 1.8848c-0.36281 0.46066-0.72546 0.92032-1.0879 1.3809-0.10476-0.31919-0.19339-0.64441-0.44336-0.92578-0.224-0.33008-0.46124-0.63499-0.64063-0.81641l-1.1016-1.1152-1.0234 1.1894c-0.29014 0.33732-0.56455 0.71373-0.8496 1.0684l-0.30274-0.30664c-0.0613-0.0623-0.0767-0.0895-0.0254-0.0195 0.039 0.0533 0.11416 0.29258 0.1582 0.54101-0.0295 0.0371-0.0584 0.0741-0.0879 0.11133l-2.3379-0.99414c-0.0124 0.0126-0.12043 0.15128-0.15234 0.17188-0.84077-0.97561-1.6874-1.9514-2.5098-2.9395l-0.0195-0.0234-0.0195-0.0215c-1.2882-1.4272-2.5765-2.8571-3.8672-4.2871l-0.42968-0.47851h-2.3242v6.0469l0.082 0.0918-1.0918 1.4785c-4e-3 6e-3 -0.01 0.012-0.0137 0.0176-0.29952-0.37496-0.58658-0.81524-0.87891-1.1621l-1.0176-1.209-1.1133 1.1211c-0.23977 0.24116-0.32297 0.37013-0.57226 0.70313-0.2256 0.30135-0.54008 0.74324-0.9043 1.2695-0.39835-0.78466-0.85353-1.4253-1.3887-1.9688l-1.1016-1.1211-1.0254 1.1914c-0.77607 0.90205-1.572 1.84-2.375 2.877v-5.2715c0-0.38601 0.11401-0.68435 0.37695-1.1367 0.0918-0.129 0.47854-0.55592 0.81055-0.80859l0.57031-0.4336zm10.93 8.4258c0.42739 0.48289 0.85391 0.9664 1.2812 1.4492l-0.17969 0.0586c-0.12949 0.0437-0.19436 0.0726-0.28516 0.10743l0.22266-0.36133-0.78125-0.80664c-0.12541-0.12975-0.0602-0.0448-0.0918-0.10938zm14.547 1.1523 0.12109 0.21875c-3e-3 4e-3 -7e-3 8e-3 -0.01 0.0117-0.0617-0.0785-0.0354-0.15324-0.11133-0.23047zm-49.287 1.3301 0.04883 0.10742c-0.0076-0.0194-0.02733-0.0276-0.03516-0.0469-0.0092-0.0194-0.0042-0.0413-0.01367-0.0606zm9.8867 0.32422 2.1484 0.45899c-0.21772 0.45255-0.4872 0.94573-0.69141 1.3613l-0.01172 0.0234-0.0098 0.0234c-0.26277 0.58802-0.54238 1.0884-0.80664 1.6465-0.06023-0.11897-0.20755-0.23302-0.25-0.3457-0.2764-0.85693-0.39258-1.8804-0.39258-3.0938 0-0.0242 0.0133-0.05 0.01367-0.0742zm6.3477 0.33594v3.123c-0.50598 0.0158-1.0048 0.0414-1.5059 0.0684 0.41055-0.86746 0.81526-1.7223 1.2031-2.5762l0.0078-0.0156c0.0038-8e-3 0.0079-0.017 0.01172-0.0254 0.09672-0.19635 0.18621-0.38004 0.2832-0.57422zm-43.484 0.32441h4e-3c0.21497-0.044 0.42636-0.0383 1.123 0.26562l0.05664 0.0234 0.05859 0.0215c0.27475 0.093 0.62801 0.39601 0.9668 0.625-0.13186 0.39933-0.27714 0.81666-0.41016 1.2031-0.2665 0.15238-0.53355 0.31071-0.78516 0.46875-0.26654 0.0854-0.68827 0.19997-1.4238 0.41211-0.52047 0.1314-0.46184 0.0871-0.5918-0.0859-0.09694-0.14026-0.17969-0.36075-0.17969-0.89648 0-0.69617 0.14386-1.1184 0.47656-1.5391 0.32104-0.3109 0.5437-0.46536 0.70508-0.49804zm49.303 0.47269c0.05689 0.0899 0.12025 0.21313 0.33008 0.42774l0.76953 0.78711c0.01507 1.5962 0.10742 3.1527 0.10742 4.5176v1.877l-0.29688-0.60352-0.8457 1.1484c-0.01842-0.19-0.06445-0.33433-0.06445-0.51953v-7.5059zm-15.777 0.7521c0.19862 1.3665 0.5469 2.639 1.2793 3.6992 0.0346 0.0529 0.04849 0.20295 0.07813 0.2539 0.1164 0.20013 0.24162 0.37978 0.39258 0.58985 0.17634 0.24539 0.468 0.63222 0.7168 0.96484-0.83191 1.7202-1.5364 3.2101-1.7715 3.8066-0.10463 0.22913-0.14564 0.37439-0.23633 0.58594l-0.49414-0.5v-8.8262c0-0.47741 0.08638-0.65235-2e-3 -0.51758zm22.49 0.45704v4.0488c0 1.6221 0.11914 3.0519 0.11914 4.5273v0.79883c-0.0535-0.0689-0.11429-0.14566-0.16797-0.22266-0.0189-1.5519-0.10547-3.0656-0.10547-4.5078v-4.4668c0.0487-0.0563 0.10483-0.1215 0.1543-0.17773zm10.666 0.0176c0.0736 0.0889 0.15977 0.18219 0.23047 0.27148v7.8438c-0.0513-0.0331-0.10337-0.0653-0.15234-0.0977v-4.4648c0-1.2266-0.0434-2.3819-0.0781-3.5527zm-38.66 1.5582v3.7832c0 1.623 0.11719 3.1726 0.11719 4.6484v1.1953c-0.04561-0.0566-0.11391-0.12839-0.16406-0.1914-0.01985-1.622-0.10547-3.1488-0.10547-4.5801v-4.6484c0.04855-0.0665 0.10323-0.14084 0.15234-0.20703zm-5.6211 0.0449c0.0032 1.712 0.11524 3.4738 0.11524 5.0508v4.7422c-0.04068 0.0693-0.10397 0.18805-0.1543 0.26953v-9.7793c0-0.0764 0.03314-0.19999 0.03906-0.28321zm58.102 0.32422v8.418c0 0.7482-0.0534 1.1583-0.043 1.1953l-0.25977-0.52734c-0.28552-0.57753-0.51989-0.81634-0.46875-0.71289l-0.90234-1.8262-1.2715 1.2949c-7e-3 -9e-3 -0.0125-0.0165-0.0195-0.0254v-7.6953c0.0679 0.10107 0.11064 0.2116 0.18164 0.3125l1 1.4219 1.2168-1.2422c0.16839-0.17203 0.3789-0.41948 0.56641-0.61328zm10.195 1.2227c0.11772 0.50902 0.23574 1.0182 0.35351 1.5273-0.78612 1.0173-1.4356 2.1076-1.793 3.2793-0.30838 0.79356-0.34516 1.6108-0.47265 2.4219l-0.13477-0.27148-1.4082 1.1406c-0.26672 0.21635-0.53397 0.43348-0.80078 0.65039-0.18903-0.17482-0.38649-0.34557-0.58985-0.52929v-3.1016c0.57344-0.72479 1.2126-1.4213 1.9277-2.1504l2e-3 -2e-3c0.82037-0.83367 1.5228-1.5479 2.3418-2.3809zm13.43 3.043c0.16642 0.0679 0.3645 0.0978 0.55859 0.13086-0.18279 0.37969-0.36864 0.7619-0.55859 1.1387zm-60.588 0.31449c0.02079 0.38361 0.03117 0.78796 0.04297 1.1445-0.30321 0.31041-0.61626 0.65675-0.92773 0.99414-1.0899-0.64806-2.2102-1.2736-3.3496-1.8828 0.0034-8e-3 0.0083-0.0159 0.01172-0.0234 1.4304-0.0769 2.8348-0.15579 4.2227-0.23242zm47.406 0.74219c-6.8e-4 4e-3 6.9e-4 8e-3 0 0.0117-2e-3 0.0111-4e-3 0.0122-6e-3 0.0234zm-74.223 0.15039c0.09298 0.0569 0.19372 0.11821 0.28711 0.17578v3.2793c-0.04939 0.0748-0.11615 0.16877-0.16797 0.24415-0.11306-0.47261-0.21875-0.94845-0.21875-1.709 0-0.68943 0.0082-1.3001 0.09961-1.9902zm-20.264 0.25586c0.0058 5e-3 0.01375 5e-3 0.01953 0.01 0.0065 5e-3 0.0091 0.0126 0.01562 0.0176zm0.35156 0.1582c0.19624 0.12465 0.41098 0.19998 0.62695 0.2832-0.12214-0.0253-0.54216 0.0597-0.55859 0.043-0.01086-0.011-0.0411-0.2682-0.06836-0.32617zm96.949 0.72851c0.11093 0.11864 0.21402 0.22972 0.32812 0.34961v3.6348c-6e-3 -0.0371-0.0438-0.0853-0.0488-0.12109l-0.0137-0.0957-0.0273-0.0918c-0.19039-0.6791-0.29688-1.5047-0.29688-2.4707 0-0.4243 0.0371-0.79988 0.0586-1.2051zm-59 1.1465c-0.07799 0.0795-0.09964 0.18481-0.16406 0.27148-0.01017 0.0167-0.03144 0.024-0.04102 0.041-4e-3 -4e-3 -0.0058-8e-3 -0.0098-0.0117zm64.68 1.2734c0.5688 0.8099 1.1616 1.587 1.7695 2.3711-0.43247 0.82439-1.2734 2.42-1.2734 2.42l-0.33401-0.1386s-0.15574-0.40723-0.1621-0.62111c-0.0383-1.286 2e-5 -4.0314 2e-5 -4.0314zm-49.414 0.65623c5.23e-4 8.2e-4 0.0014 1e-3 2e-3 2e-3l-0.08398 0.0957c0.0256-0.026 0.05648-0.0709 0.08203-0.0976zm-45.771 0.85937c-0.07065 0.19555-0.05381 0.18255-0.29688 0.61524v2e-3c-0.30068 0.53634-0.38838 0.60279-0.5 0.73633-0.60397-0.0642-1.2438-0.1297-1.8867-0.20703 0.01724-0.0456 0.02493-0.10037 0.04297-0.14454 0.3219-0.16885 0.67104-0.35143 1.0723-0.58203 0.42146-0.11303 0.96154-0.26442 1.5684-0.41992zm82.621 0.24414c-0.0648 0.0438-0.083 0.0789-0.14258 0.12305-0.01 0.01-0.0708 0.0531-0.0781 0.0606zm-76.416 0.69522-0.02148 0.0606c0.0048-0.0128 3e-3 -0.0204 0.0078-0.0332 0.0038-0.0114 0.0099-0.0159 0.01367-0.0273zm94.523 0.39839v2.4199c-0.2468-0.142-0.47054-0.3508-0.73437-0.4512l-0.0254-0.01-0.0274-0.01c-0.12323-0.041-0.10339-0.02-0.20507-0.047 0.32353-0.62098 0.65202-1.2622 0.99218-1.9023zm-107.14 6.672c0.01948 0 0.03138 0.01 0.05078 0.01-0.0014 0-0.02437 0.032-0.02539 0.033l-0.03516 0.035-0.0332 0.037c-0.67961 0.7906-1.4249 1.3406-2.252 1.7266-0.17166-0.1749-0.24024-0.2131-0.24024-0.5449 0-0.4072 0.03859-0.4016 0.05273-0.4161l0.07227-0.072 0.05859-0.082c0.08918-0.1207 0.34207-0.277 0.58789-0.4414 0.58053-0.1316 1.0466-0.2832 1.7637-0.2832zm2.1523 1.9981-0.06836 0.074c0.011-0.011 0.03572-0.047 0.04687-0.059 6e-3 -0.01 0.01547-0.01 0.02148-0.016z" style="color-rendering:auto;color:#000000;dominant-baseline:auto;fill:#4a4a4a;font-feature-settings:normal;font-variant-alternates:normal;font-variant-caps:normal;font-variant-ligatures:normal;font-variant-numeric:normal;font-variant-position:normal;image-rendering:auto;isolation:auto;mix-blend-mode:normal;shape-padding:0;shape-rendering:auto;solid-color:#000000;text-decoration-color:#000000;text-decoration-line:none;text-decoration-style:solid;text-indent:0;text-orientation:mixed;text-transform:none;white-space:normal"/>
  <path transform="translate(0 860.36)" d="m94.533 112.23c-0.58595 0.11985-0.93554 0.23757-1.1699 0.35742-0.81967 0.47609-1.4062 1.191-1.7578 2.1445-0.93752-0.83365-1.6406-1.3092-1.9922-1.4297-0.93686-0.59594-1.9902-0.9525-3.2793-0.83398-1.7572 0.12052-3.3965 1.0742-4.6855 2.9785-1.4056 1.7892-1.9922 3.6958-1.9922 5.7207 0 2.2652 0.3522 4.0515 1.2891 5.3633 0 0.23704 0.58658 0.95193 1.6406 2.3809-1.1719 2.3824-1.875 3.9307-2.1094 4.5273-0.82033 1.7872-1.1719 2.979-1.1719 3.4551-1e-6 0.47608-6e-6 0.83522 0.23437 1.0723 0.11719 0.35757 0.35156 0.47595 0.58594 0.35743 0.23438 0 0.35156-0.11971 0.46875-0.35743 0.11719-0.11785 0.11719-0.4778 0.11719-0.71484s2e-6 -0.47585-0.11719-0.71289c-0.11719-0.23838-0.23438-0.4778-0.23438-0.71484 0-0.47675 0.11718-0.83323 0.35156-1.0723 0.11786-0.23772 0.35155-0.35742 0.70312-0.35742 0.23438 0 0.82095 0.35643 1.875 1.1914 1.4056 1.072 2.3418 1.787 2.9277 2.1445 0.58595-0.71512 1.1719-1.5486 1.7578-2.2637 0.58595-0.71513 1.289-1.5492 1.9922-2.2637 0.35157 1.3111 0.58593 2.0259 0.70312 2.3828 0.23438 0.71379 0.70116 1.3109 1.2871 2.0254 0.35157-0.71448 0.93814-1.6668 1.875-2.8594 0.35157-0.35756 0.82096-0.95417 1.4062-1.668-0.11652-0.11919-0.23433-0.23811-0.35352-0.48047-0.35157 0.4774-0.8203 0.59433-1.2891 0.71485-0.23372 0-0.46679-0.35847-0.58398-0.95508-0.11719-0.47675-0.23438-1.1898-0.23438-1.9043v-7.5059-7.5059c0-0.7138 0.23436-1.3103 0.58594-1.9062 0.23438-0.35755 0.70183-0.83516 1.1699-1.1914v-0.11914zm12.537 0.5996v4.0508c1.054 1.1912 2.108 2.381 3.1621 3.5723-0.1172 0.23837-0.23371 0.47781-0.46875 0.71485-0.23504 0.12052-0.46741 0.23689-0.70312 0.35742-0.11719 0.11718-0.35156 0.23828-0.58594 0.23828-0.3529 0.11918-0.58594 0.23633-0.70313 0.23633v4.7676 4.6465c0 0.83366-0.11652 1.5485-0.35156 2.2637 0 0.11852-0.11523 0.35865-0.34961 0.5957l0.11719 0.11914v0.23829c0.47009 0.11853 0.93749 0.36061 1.2891 0.59765 0.46743 0.11853 0.82097 0.35799 1.1719 0.59571 0.70381 0.59594 1.5215 1.3109 2.2246 2.1445 0.23304-0.23771 0.46939-0.59695 0.82031-0.83399 0.3509-0.35757 0.58397-0.59499 0.81836-0.71484 0.23438-0.23772 0.58659-0.47579 1.0547-0.71485 0.4681-0.23837 0.8203-0.47585 1.1719-0.5957v-6.0762-6.0762c0-0.59528-1e-5 -1.0714 0.11719-1.5488 0.11586-0.47542 0.2337-0.83456 0.35156-1.0723-0.11786-0.11986-0.23542-0.23885-0.23242-0.35937-0.23506 0.23837-0.46875 0.35866-0.58594 0.5957-0.11719 0.12052-0.11718 0.23952-0.23437 0.47657-0.11785 0.24036-0.11719 0.47652-0.11719 0.5957-1.2898-1.5488-2.5781-2.9786-3.8672-4.5274-1.2891-1.4283-2.5755-2.8582-3.8652-4.2871h-0.23438zm-21.437 2.3809c0.58595 0 1.1719 0.11971 1.6406 0.35743 0.58529 0.23903 1.0527 0.5975 1.2871 0.95507-0.23438 0.47608-0.46808 0.95431-0.70312 1.3106-0.35157 0-0.58593-0.11975-0.9375-0.23828h-1.0527c-0.70314 0-1.2897 0.47627-1.875 1.1914-0.4681 0.71379-0.70313 1.5492-0.70313 2.3828v0.47461c0.58595-1.3097 1.289-2.0234 2.1094-2.0234 0.35157 0 0.58594-0.00139 0.70312 0.23633 0.23372 0.11985 0.35156 0.35798 0.58594 0.5957-0.70314 1.1912-1.289 2.5028-1.875 3.6953-0.58529 1.3097-1.1699 2.6213-1.873 3.8125-0.82033-0.71646-1.5234-1.6676-1.875-2.6211-0.35157-1.0727-0.46875-2.2625-0.46875-3.5742 0-1.5488 0.58658-3.0984 1.6406-4.5273 1.1719-1.1926 2.2252-1.9075 3.3965-2.0274zm-34.789 1.4316c-0.23438 0.71447-0.46874 1.4294-0.70312 2.1445-1.7572-0.59527-3.5143-1.3096-5.2715-1.9062-0.70314 1.1912-1.5234 2.5027-2.2266 3.9316-0.82033 1.5488-1.2871 2.7392-1.6387 3.5742-0.35091 1.072-0.58594 2.2638-0.58594 3.4551-0.58595 0.59793-1.1725 1.4312-1.5234 2.5039-0.35157 0.95217-0.58594 1.9052-0.58594 2.8594 0 1.0734 0.23437 1.906 0.46875 2.6211 0.23438 0.59528 0.70311 1.0721 1.2891 1.4297 0.46876 0.11852 1.0547 0.23632 1.5234 0.23632 0.58529-0.1172 1.5215-0.35532 2.8105-0.71289-0.23438 0.7138-0.35156 1.4281-0.58594 2.2617-0.58595 0-0.93749 0.00123-1.2891 0.1211-0.35157 0-0.93553 0.23823-1.6387 0.47656-0.82033 0.23771-1.6413 1.0717-2.3438 2.3828-0.70248 1.1912-1.0547 2.5029-1.0547 3.6934 0 1.0741 0.35155 1.7868 0.9375 2.502 0.70248 0.7145 1.6413 0.83353 2.6953 0.35743 0.70248-0.237 1.6393-0.9533 2.6934-2.0254 0.81967-0.8343 1.6393-1.7887 2.5762-2.8613 0.58595 0.1205 1.0547 0.24151 1.6406 0.47851 0.11652 0 0.35222 0.12032 0.82031 0.35742 0.46876 0.239 0.81902 0.35747 1.1699 0.47657 1.2884-1.5487 2.3437-2.8582 3.2812-4.1699 1.054-1.5481 1.873-3.099 2.459-4.5293 0.58529-1.7872 0.9375-3.3353 0.9375-5.0039 0-2.74-0.81965-4.6474-2.3418-5.7188-1.2884-0.83365-2.694-1.0724-4.4512-0.71484-0.23371 0.11919-0.46875 0.11976-0.58594 0.23828-0.23438 0-0.35156-7.1e-4 -0.58594 0.11914 0.4681-1.4296 0.93749-2.7397 1.4062-4.1699 0.46876-1.3098 0.93749-2.7417 1.2891-4.0527-0.11652-0.11852-0.35156-0.23695-0.58594-0.35547zm38.303 0.59571c0.23438 0.35757 0.46874 0.7147 0.70312 1.0723v4.0508 4.1699c-1.7572 0-3.5136 0.11843-5.2715 0.23828 0.70314-1.5488 1.5221-3.2169 2.2246-4.7656 0.82033-1.6673 1.6406-3.2168 2.3438-4.7656zm8.5469 1.5469c-0.82033 0.9535-1.6393 1.9078-2.459 2.9785 0.11719 0.12051 0.23437 0.3567 0.35156 0.47656l0.11719-0.11914c0.23438-0.11853 0.35156-0.23828 0.46875-0.23828 0.23438 0 0.46875 0.11899 0.46875 0.47656 0.11719 0.35757 0.11719 0.71589 0.11719 1.3125 0 1.6686 0.11719 3.336 0.11719 4.8848v5.0039c-0.35157 0.35757-0.58593 0.83385-0.82031 1.1914 0.58662 0.9535 1.289 1.7874 1.9922 2.6211 0.70314-0.83364 1.4062-1.6676 2.2266-2.6211-0.35091-0.35756-0.5846-0.71471-0.82032-1.0723 0-1.6686-0.11719-3.3353-0.11719-5.0039v-5.0039c0.58662-0.71513 1.1725-1.3129 1.7578-2.0273 0.4701 0.59727 0.93881 1.1924 1.2891 1.7891v4.6465c0 1.5488 0.11719 2.9786 0.11719 4.5274v2.0273c0 0.35757 0.11847 0.59623 0.23633 0.95313 0.23505 0.83432 0.70116 1.4282 1.2871 1.9043 0.93686-0.95217 1.7578-1.9039 2.6953-2.8574-0.11785-0.2397-0.35215-0.35865-0.47266-0.5957-0.11654 0.11853-0.2337 0.23695-0.35156 0.35547-0.23305 0.11919-0.46875 0.24023-0.46875 0.24023-0.23306 0-0.35156-0.11971-0.35156-0.35742-0.11719-0.23838-0.11719-0.59751-0.11719-0.95508v-5.123-5.0039c0-0.47742 6.2e-4 -0.83386 0.23633-1.1914 0-0.11854 0.34961-0.71447 0.93555-1.668-0.11585-0.11986-0.23438-0.23886-0.35157-0.47656-0.35223 0.47741-0.70378 0.95222-1.1719 1.5488-0.58595-0.9535-1.2871-1.7887-1.9902-2.623-0.11652 0.11719-0.58462 0.71371-1.4043 1.9062-0.23504 0.35557-0.46875 0.59633-0.58594 0.71485-0.4701 0.59527-0.82292 1.0727-1.291 1.5488 0-0.35756-0.11719-0.59627-0.11719-0.83398 0-0.59594-0.23242-1.1925-0.34961-1.6699-0.3529-0.7138-0.70507-1.1899-1.1738-1.666zm21.795 0.7168c-0.81901 0.95217-1.64 2.027-2.459 3.0977 0.11586 0.11919 0.23243 0.35665 0.34961 0.5957 0.11787-0.23905 0.23632-0.2389 0.23632-0.35742 0.11586-0.11852 0.23176-0.23828 0.34961-0.23828 0.23371 0 0.35157 0.11843 0.35157 0.23828 0.11719 0.23771 0.11718 0.47713 0.11718 0.71484v0.83399 4.0508 4.0527c0 0.83364 1e-5 1.4295-0.11718 1.7871-0.11787 0.35756-0.35223 0.71408-0.70313 1.0703 0.3509 0.23904 0.58397 0.47781 0.81836 0.59766 0.11785 0.23704 0.35417 0.47448 0.70508 0.83203 0.23371 0.35757 0.5853 0.714 0.93555 1.1914 0.3509 0.35756 0.58526 0.71603 0.82031 1.0723 0.35224-0.59727 0.82031-1.0714 1.2891-1.668 0.58596-0.5966 1.054-1.0733 1.6406-1.6699-0.11719-0.23704-0.35156-0.47585-0.46875-0.71289-0.35025 0.3569-0.70379 0.59751-1.0547 0.95508-0.4701-0.59794-0.82097-1.1938-1.2891-1.6699v-5.123-5.123c0.4701-0.35755 0.82029-0.71469 1.2891-1.0723 0.46876 0.95351 0.93683 1.7874 1.5234 2.6211 0.58396-0.5966 1.2864-1.3109 1.873-2.0254-0.58663-1.3104-1.2904-2.5034-1.873-3.8125-0.93818 1.1912-1.875 2.383-2.8125 3.5742 0-0.35757 0-0.71533-0.11719-1.1914-0.11719-0.47609-0.23175-0.83322-0.4668-1.0723-0.11653-0.47608-0.23437-0.71346-0.35156-0.83399-0.11719-0.23704-0.35024-0.47647-0.58594-0.71484zm-44.867 0.47656c-0.11719 0.11852-0.58592 0.71564-1.4062 2.0254-0.23372 0.35755-0.46875 0.71414-0.58594 0.83399-0.46876 0.59594-0.8203 1.1919-1.2891 1.668 0-0.35623-0.11524-0.59629-0.11524-0.83399 0-0.59595-0.11718-1.1906-0.35156-1.668-0.23438-0.59529-0.70311-1.1913-1.1719-1.5488-0.82033 1.074-1.6393 2.2639-2.459 3.3359 0.11652 0.11918 0.23242 0.35804 0.34961 0.47656 0-0.11652 0.11719-0.1158 0.11719-0.23632 0.23438-0.11852 0.35156-0.23828 0.46875-0.23828 0.23438 0 0.46875 0.119 0.46875 0.47656 0.11719 0.35756 0.11719 0.7146 0.11719 1.3105 0 1.6673 0.11719 3.4558 0.11719 5.123v5.125c-0.23372 0.47475-0.58398 0.95098-0.81836 1.4277 0.70248 0.71446 1.2871 1.5486 1.9902 2.2637 0.70248-0.95348 1.5241-1.9072 2.2266-2.9785-0.3509-0.35756-0.58593-0.71541-0.82031-0.95312 0-1.7878-0.11719-3.4564-0.11719-5.125v-5.1211c0.58595-0.83498 1.1725-1.5498 1.7578-2.3848 0.46876 0.5966 0.81835 1.1938 1.2871 1.6699v4.7656c0 1.5501 0.11719 3.0977 0.11719 4.6465v1.9062c0.11719 0.35623 0.11718 0.71274 0.23438 1.0703 0.35157 0.71512 0.8203 1.3124 1.4062 1.6699 0.81967-1.0734 1.7565-2.2652 2.5762-3.3379-0.11719-0.11786-0.35156-0.35609-0.46875-0.47461-0.11719 0.12051-0.23437 0.23691-0.35156 0.35743-0.23438 0.23704-0.46875 0.35742-0.46875 0.35742-0.11719 0-0.23437-0.12038-0.35156-0.35742 0-0.23904-0.11719-0.47704-0.11719-0.95313v-5.123-5.0039c0-0.47741-6e-6 -0.95493 0.23438-1.3125 0-0.11985 0.35221-0.59528 0.9375-1.668-0.11652-0.11985-0.23437-0.35804-0.35156-0.47656-0.35157 0.59594-0.70311 1.072-1.1719 1.668-0.58595-0.83365-1.2878-1.6677-1.9902-2.3828zm55.877 0.47656c-0.82033 0.83498-1.1699 1.3106-1.1699 1.3106-0.11784 0.11986-0.3522 0.23816-0.70312 0.59571-0.3509 0.23839-0.46875 0.35866-0.58594 0.47851-0.23505 0.11852-0.70377 0.35866-1.1719 0.5957v5.4805 5.4805c0 0.83498-6.1e-4 1.4296-0.11914 1.7871-0.11718 0.35757-0.34961 0.71471-0.58399 1.0723 0 0.11985 1e-5 0.23752 0.11719 0.47656 0.23506 0.11852 0.46741 0.23756 0.58594 0.35742 0.58528 0.23771 0.93682 0.47714 1.1719 0.71484 0.23305 0.11985 0.58463 0.47639 0.93555 0.83399 0.46809 0.47471 0.70312 0.83456 0.9375 1.0723 0.58462-0.7152 1.1699-1.3123 1.873-2.0254 0.23304-0.23904 0.46875-0.47713 0.82031-0.71484 0.11719-0.11919 0.34961-0.35727 0.93555-0.71484-0.23304-0.35756-0.34961-0.59629-0.4668-0.83399-0.58529 0.47474-1.1719 0.95293-1.7578 1.4297-0.70248-0.59661-1.2878-1.1925-1.9902-1.7891v-4.2871c0.70248-0.9535 1.5228-1.7881 2.3418-2.623 0.821-0.83431 1.5241-1.5492 2.3438-2.3828-1.1712-2.1454-2.3444-4.1711-3.5137-6.3145zm-85.422 0.4336c0.45042-1e-4 0.93408 0.13417 1.5488 0.40234 0.70248 0.23771 1.5215 0.71261 2.2246 1.4277-0.3509 0.95284-0.58464 1.7873-0.93555 2.7422-0.58595 0.35756-1.0547 0.59757-1.4062 0.83594-0.35157 0.11853-0.819 0.23757-1.6387 0.47461-0.93752 0.23705-1.6406 9e-4 -2.1094-0.5957-0.35157-0.47742-0.46875-1.0733-0.46875-1.7871 0-0.9535 0.23503-1.7882 0.82031-2.502 0.46876-0.47742 0.9362-0.83461 1.5215-0.95313 0.14649-0.02996 0.29322-0.04489 0.44336-0.04492zm65.975 0.28125c0.7038 0.83366 1.5228 1.6676 2.2266 2.6211v5.6016 5.5996c-0.46876-0.35757-0.93554-0.71598-1.4043-1.0742-0.58596-0.35757-1.1725-0.71471-1.6406-1.0723v-5.2422c0-1.7872-0.11719-3.5742-0.11719-5.3613 0.35091-0.35757 0.58464-0.71469 0.93555-1.0723zm-48.848 0.23633c-0.11719 0.23838-0.2337 0.47717-0.46875 0.5957-0.11719 0.2397-0.23242 0.35867-0.4668 0.47852-0.11786 0.11853-0.46874 0.23756-0.70312 0.35742-0.35091 0.11785-0.58593 0.23828-0.82031 0.23828-0.11719 0-0.35156 0.11914-0.46875 0.11914-0.11719 0.11852-0.23438 0.23695-0.23438 0.35547 0.4681 1.7885 0.93749 3.5755 1.4062 5.2441-0.93752 1.4289-1.6406 2.8596-1.9922 4.0508-0.4681 1.3111-0.70312 2.6213-0.70312 3.8125 0 0.95284 0.23437 1.9066 0.46875 2.7402 0.35157 0.83502 0.8203 1.5478 1.5234 2.3828l0.11719-0.11914c1.1712-1.7872 2.3424-3.5728 3.5137-5.3613v0.11914c0 1.072 0.11718 1.906 0.46875 2.502 0.11719 0.35757 0.35156 0.71543 0.46875 0.95313 0.23438 0.2391 0.46874 0.47715 0.70312 0.59765 0.82033-1.1912 1.5241-2.3836 2.3438-3.5762-0.23438-0.11919-0.35218-0.23823-0.4707-0.47461 0 0.11852 2e-6 0.23828-0.11719 0.23828 0 0.11785-0.11718 0.23633-0.23438 0.23633-0.23438 0.12053-0.35156 7.1e-4 -0.46875-0.23633-0.11719-0.23771-0.23438-0.59694-0.23438-0.83398v-4.8848-5.0039c0-0.59661 0.11718-1.1924 0.23438-1.7891 0.11719-0.35756 0.46874-0.9527 0.82031-2.0254-0.11719 0-0.23437-0.12109-0.35156-0.12109-0.23438 0.35756-0.58398 0.71666-0.81836 1.0742-1.1712-0.59594-2.3444-1.074-3.5156-1.6699zm91.371 0.11914c-0.23372 0-0.35351 0.11905-0.4707 0.35742-0.11719 0.23705-0.11719 0.47642-0.11719 0.83398 0 0.3569 0.11718 0.7147 0.23437 1.0723 0.23438 0.83365 0.47071 1.3086 0.47071 1.3086 0 0.59727-0.23632 0.95495-0.58789 1.3125-0.35157 0.23705-0.70183 0.35685-1.1699 0.23633-0.35157-0.11652-0.93814-0.47371-1.5234-1.0703-0.58662-0.59661-1.2878-1.3109-1.9902-2.1445-0.23572 0.47676-0.46874 0.83384-0.70312 1.1914-0.23572 0.47608-0.58594 0.83261-0.70313 0.95313-0.23438 0.23704-0.46875 0.47643-0.9375 0.83398-0.23306 0.23705-0.58398 0.35742-0.81836 0.35742v7.0293c0.81834 1.1926 1.64 2.2639 2.5762 3.4551-0.58529 1.074-1.1719 2.2659-1.7578 3.3379-0.58529 1.1912-1.1712 2.2632-1.7578 3.3359 0.11852 0.237 0.23371 0.59628 0.46875 0.83398 0.23305-0.3575 0.58465-0.71548 0.93555-0.83398 0.35225-0.1205 0.70505-0.1205 1.291 0 0.11719 0.1165 0.35222 0.11583 0.70313 0.23633 0.35224 0.2392 0.82097 0.47697 1.1719 0.95507 0.4701 0.476 0.8203 0.95287 1.2891 1.668 0.11719-0.2391 0.35155-0.47708 0.70313-0.83398 0.3509-0.3576 0.58464-0.59699 0.93555-0.83399 0.3509-0.2378 0.5866-0.35742 0.9375-0.35742 0.23372-0.1192 0.58526-0.23828 0.82031-0.23828v-4.4082-4.4082c-0.82034-1.1912-1.7585-2.2646-2.5781-3.3359 0.821-1.7865 1.7578-3.5741 2.6953-5.4805 0.23437-0.59593 0.46679-1.1919 0.58398-1.668 0.11785-0.47474 0.23633-0.9536 0.23633-1.4297 0-0.59527-0.11848-1.1919-0.23633-1.5508-0.23438-0.3569-0.46679-0.59565-0.70117-0.71484zm-14.291 0.24218c-0.11585 0.23839-0.23437 0.35672-0.35156 0.47657-0.23504 0.11853-0.34959 0.23889-0.58398 0.35742-0.11785 0.11985-0.35417 0.11914-0.70508 0.11914h-0.81836c-0.11719 0-0.23499 7.1e-4 -0.4707-0.11914-0.11719 0.11985-0.11718 0.2389-0.23438 0.35742 0.46877 2.0262 0.9375 4.0519 1.4062 6.0781-0.93685 1.0707-1.6406 2.2606-1.9922 3.4531-0.4681 1.1912-0.70312 2.383-0.70312 3.5742 0 1.072 0.11852 2.027 0.46875 3.0977 0.23373 0.95282 0.7031 2.0262 1.4062 3.0976l0.23437 0.11914c1.1712-1.3111 2.343-2.6219 3.5156-4.0508v0.23633c0 1.0734 0.11457 2.0263 0.34961 2.9785 0.23506 0.3576 0.35022 0.83586 0.58593 1.1934 0.11719 0.47609 0.35155 0.8338 0.70313 1.1914 0.70248-0.9535 1.5228-1.9059 2.2266-2.8594-0.11653-0.2383-0.23499-0.47785-0.35351-0.71485 0 0.1185-0.11719 0.23828-0.11719 0.23828-0.11586 0.1192-0.23437 0.11914-0.35156 0.11914-0.11587-0.1192-0.23242-0.2382-0.34961-0.5957-0.11719-0.3576-0.23438-0.71531-0.23438-1.0723v-5.4805-5.5996c0-0.59594 0.11719-1.1912 0.23438-1.7871 0.11652-0.35756 0.46679-1.0713 0.81836-2.0234-0.11586-0.12052-0.23305-0.24085-0.35157-0.35937-0.23306 0.35756-0.58264 0.5975-0.81835 0.95507-1.1699-1.0734-2.3418-2.027-3.5137-2.9805zm-9.957 1.4277c0.81966 1.5488 1.6393 3.0984 2.459 4.5273-0.81967 0.95284-1.6393 1.7861-2.459 2.6211v-7.1484zm7.6152 0.5957c1.1706 0.95418 2.3418 1.9065 3.5137 2.9785v4.7656c-0.93818-0.95284-1.7585-1.7868-2.5781-2.7383-0.35024-1.6686-0.58464-3.3386-0.93554-5.0059zm-77.08 0.23828c1.1712 0.59461 2.2265 1.0714 3.3984 1.5488 0 1.5488 0.11719 2.9806 0.11719 4.4102-0.93686-0.47809-1.7585-0.95423-2.5781-1.5488-0.35157-1.4296-0.70312-2.8614-0.9375-4.4102zm87.738 3.0977c0.47009 0.59594 0.93816 0.95232 1.2891 1.3106 0.35224 0.35889 0.82097 0.5957 1.1719 0.5957 0.11652 0.11919 0.46873 0.11914 0.82031 0.11914h0.93555c-0.819 1.9057-1.7572 3.694-2.6934 5.4805-0.4681-0.59528-1.0547-1.3103-1.5234-1.9062v-5.5996zm-96.453 1.3926c0.96102-0.04486 1.7739 0.24486 2.3887 0.87109 0.82033 0.83365 1.2891 2.1445 1.2891 3.8125 0 1.0727-0.23436 2.2643-0.82031 3.8144-0.46876 1.4296-1.1706 2.6221-1.7559 3.3359-0.70314-0.2376-1.5234-0.47519-2.2266-0.71289 1.1712-1.1925 1.9902-2.266 2.459-2.9805 0.58595-0.95417 0.82031-2.0244 0.82031-2.9785 0-1.3117-0.58463-2.1451-1.5215-2.502-0.70314-0.23904-1.5241-0.23961-2.3438-0.12109 0 0-0.11718 0.12109-0.35156 0.12109-0.4681 0.11852-0.8203 0.23562-1.1719 0.35547-0.35157 0.11919-0.81835 0.23952-1.2871 0.47657 0.23438-0.83366 0.46679-1.6663 0.81836-2.502 0.46876-0.23837 0.93815-0.47585 1.4062-0.5957 0.46943-0.11719 0.8203-0.23828 1.2891-0.23828 0.3514-0.08939 0.68747-0.1413 1.0078-0.15625zm-10.496 0.03906c0.70314 0.95351 1.1719 1.6678 1.6406 2.0254 0.58595 0.47609 1.289 0.59446 1.9922 0.35742 0.23438-0.12052 0.58464-0.23947 1.0527-0.47851 0.4681-0.23904 0.8203-0.358 1.1719-0.59571-0.23438 0.83365-0.46808 1.7881-0.82031 2.623-0.35091 0.23904-0.70312 0.47584-0.9375 0.5957-0.3509 0.11852-0.58593 0.23824-0.9375 0.35743-1.4056 0.47742-2.459 0.35766-3.0449-0.23829-0.4681-0.47608-0.70312-1.3114-0.70312-2.3828 0-0.47608-6e-6 -0.95297 0.23438-1.3105 0-0.23904 0.23437-0.59556 0.35156-0.95313zm49.199 0.47461c0 1.0714 0.11719 2.1461 0.11719 3.2168-0.70314 0.71513-1.4062 1.43-2.1094 2.2637-1.7572-1.0727-3.6315-2.1442-5.5059-3.0977 0.35157-0.71514 0.58593-1.3096 0.9375-2.0234 2.226-0.11985 4.4518-0.24017 6.5605-0.35937zm-29.168 0.11914c0.93686 0.59595 1.7578 1.072 2.6953 1.668v4.5273c-0.58595 0.9535-1.289 1.7887-1.875 2.7422-0.46876-0.71514-0.82031-1.3122-1.0547-2.0273-0.23438-0.71646-0.35156-1.5491-0.35156-2.6211 0-0.71379-2e-6 -1.43 0.11719-2.2637 0.11719-0.71512 0.23437-1.4294 0.46875-2.0254zm77.078 0.35742c0.93686 0.95351 1.7578 1.9059 2.6953 2.8594v5.0039c-0.70314 0.7158-1.2891 1.3129-1.875 1.9082-0.58596-0.83499-0.9375-1.7894-1.0547-2.623-0.23371-0.83364-0.35156-1.7874-0.35156-2.8594 0-0.7138-6.6e-4 -1.5499 0.11719-2.2637 0.11719-0.83498 0.35155-1.4294 0.46875-2.0254zm-87.678 5.2871c0.205-0.01506 0.34961 0.01591 0.4082 0.07617 0.23438 0.12052 0.35156 0.59481 0.35156 1.1914 0 0.35757-0.2337 0.95147-0.70312 1.7871-0.4681 0.83498-0.8203 1.3111-1.1719 1.5488-1.4056-0.1185-2.9284-0.35805-4.334-0.47656 0.11719-0.83366 0.35155-1.6671 0.70313-2.3809 0.70314-0.47741 1.4062-0.71737 1.7578-0.95508 0.46876-0.11985 1.1725-0.35867 2.2266-0.59571 0.29264-0.12052 0.55672-0.18024 0.76172-0.19531zm99.627 0.3125c0.58595 0.83498 1.0527 1.5486 1.6387 2.2637v6.1973c-0.93686-1.311-1.7572-2.0266-2.6934-2.3828-0.3509-0.1179-0.70379-0.11778-1.0547-0.23828h-0.9375c0.93687-1.9077 1.9928-3.8136 3.0469-5.8398zm-106.95 7.9824c0.93686 0 1.8737 0.12092 2.6934 0.47852-0.82033 1.0714-1.4043 1.7864-1.6387 2.0234-0.81967 0.9535-1.7585 1.6684-2.8125 2.1445-0.58529 0.2397-1.0527 0.12127-1.5215-0.23633-0.4681-0.4761-0.70312-0.95417-0.70312-1.668 0-0.5966 0.11784-1.0721 0.46875-1.4297 0.35157-0.476 0.8203-0.71727 1.1719-0.95507 0.58529-0.1185 1.2877-0.35743 2.3418-0.35743z" style="fill:#fff;stroke-width:.66586"/>
 </g>
 <style type="text/css">.st0{fill:#FFFFFF;}</style>
 <style type="text/css">.st0{fill:#FFFFFF;}</style>
 <style type="text/css">.st0{fill:#FFFFFF;}</style>
 <style type="text/css">.st0{fill:#FFFFFF;}</style>
 <style type="text/css">.st0{fill:#FFFFFF;}</style>
</svg>
