<svg style="clip-rule:evenodd;fill-rule:evenodd;stroke-linejoin:round;stroke-miterlimit:2" version="1.1" viewBox="0 0 192 192" xml:space="preserve" xmlns="http://www.w3.org/2000/svg">
    <path d="m172.5 29.5c0-5.519-4.481-10-10-10h-133c-5.519 0-10 4.481-10 10v133c0 5.519 4.481 10 10 10h133c5.519 0 10-4.481 10-10z" style="fill:#73ada4"/><path d="m96 59.25-17.789 16.604v20.826l17.857-17.855 17.721 17.719v-20.689l-17.789-16.604zm-42.111 15.057v38.312l4.5176 4.5176h17.574l-2.1094-11.461h-3.3398v-8.9746l3.252-3.1465-19.895-19.248zm84.223 0-19.895 19.248 3.252 3.1465v8.9746h-3.3398l-2.1094 11.461h17.572l4.5195-4.5176v-38.312zm-42.043 7.3066-16.561 16.561 16.561 16.561 16.561-16.561-16.561-16.561zm-17.857 18.055v17.469h17.469l-17.469-17.469zm35.578 0.13672-17.334 17.332h17.334v-17.332zm-53.984 19.391-4.5449 5.9004h81.48l-4.5449-5.9004h-72.391zm0 7.6543-4.5449 5.8984h81.48l-4.5449-5.8984h-72.391z" style="fill:#f9de81;stroke-width:.80292"/><g transform="matrix(.67705 0 0 .67705 31.014 32.295)">
                            <path d="m96 80.067v34.472l-17.236-17.236z" style="fill:#9abeff"/>
                        </g><path d="m96.011 86.504 0.05755-0.05687 11.727 11.727-11.727 11.727-0.05755-0.0576z" style="fill:#ff837d;stroke-width:.67705"/>
</svg>
