<svg width="192" height="192" version="1.1" viewBox="0 0 192 192" xmlns="http://www.w3.org/2000/svg">
 <circle cx="96" cy="96" r="88" style="fill:#ff837d;stroke-width:4"/>
 <circle cx="95.75" cy="95.75" r="76.25" style="fill:#4a4a4a;paint-order:stroke fill markers;stroke-width:4"/>
 <path d="m77.74 57.113c-0.62024-8e-6 -1.1231 0.5028-1.123 1.123v11.252c-8e-6 0.62024 0.5028 1.1231 1.123 1.123h10.725l2.8809 8.1875-29.307 47.324c-0.46357 0.74763 0.07344 1.7138 0.95313 1.7148h13.283c0.38486 3e-4 0.74307-0.19649 0.94922-0.52148l20.004-31.52 13.641 34.572c0.21287 0.53897 0.80088 0.82748 1.3574 0.66602l21.479-6.1992c0.59921-0.17272 0.94295-0.80057 0.76562-1.3984l-3.3203-11.16c-0.17989-0.6053-0.82332-0.94334-1.4238-0.74804l-8.9531 2.918-22.266-56.621c-0.16889-0.43051-0.58442-0.71347-1.0469-0.71289z" style="color-rendering:auto;color:#000000;dominant-baseline:auto;fill:#ff837d;font-feature-settings:normal;font-variant-alternates:normal;font-variant-caps:normal;font-variant-ligatures:normal;font-variant-numeric:normal;font-variant-position:normal;image-rendering:auto;isolation:auto;mix-blend-mode:normal;shape-padding:0;shape-rendering:auto;solid-color:#000000;text-decoration-color:#000000;text-decoration-line:none;text-decoration-style:solid;text-indent:0;text-orientation:mixed;text-transform:none;white-space:normal"/>
 <style type="text/css">.st0{fill:#FFFFFF;}</style>
</svg>
