<svg width="192" height="192" version="1.1" viewBox="0 0 192 192" xmlns="http://www.w3.org/2000/svg">
 <style type="text/css">.st0{fill:#FFFFFF;}</style>
 <path d="m84 24c-41.974 0-76 34.026-76 76s34.026 76 76 76c36.159-2e-3 62.862-24.961 75.284-58.92 5.5156-15.078 16.716-45.08 23.513-62.283 3.2866-8.3186 1.2031-30.797-22.797-30.797z" style="fill:#83868c;stroke-width:4"/>
 <circle cx="83.784" cy="99.784" r="65.852" style="fill:#9abeff;paint-order:stroke fill markers;stroke-width:3.4545"/>
 <path d="m68.23 66.416c-0.53566 0-0.96995 0.43424-0.96986 0.96988v9.7176c-8e-6 0.53564 0.43424 0.96996 0.96986 0.96984h9.2625l2.488 7.071-25.311 40.871c-0.40036 0.64568 0.06343 1.4801 0.82316 1.481h11.472c0.33236 2.8e-4 0.64174-0.1696 0.81978-0.45036l17.276-27.222 11.781 29.858c0.18383 0.46548 0.69167 0.71464 1.1723 0.5752l18.55-5.3538c0.5175-0.1492 0.81437-0.6914 0.66122-1.2077l-2.8675-9.6382c-0.15537-0.52276-0.71105-0.81472-1.2296-0.64604l-7.7322 2.5201-19.23-48.9c-0.14584-0.372-0.50473-0.61616-0.90414-0.61568z" style="color-rendering:auto;color:#000000;dominant-baseline:auto;fill:#83868c;font-feature-settings:normal;font-variant-alternates:normal;font-variant-caps:normal;font-variant-ligatures:normal;font-variant-numeric:normal;font-variant-position:normal;image-rendering:auto;isolation:auto;mix-blend-mode:normal;shape-padding:0;shape-rendering:auto;solid-color:#000000;stroke-width:.86364;text-decoration-color:#000000;text-decoration-line:none;text-decoration-style:solid;text-indent:0;text-orientation:mixed;text-transform:none;white-space:normal"/>
 <path d="m160.57 32.096c-5.5843 0-10.229 3.8607-9.916 9.6016h5.0625c-0.20876-3.0792 1.9301-4.9584 4.5918-4.9062 2.4007 0 4.6445 1.3585 4.6445 4.6465 0 1.8266-0.57381 3.0784-4.2793 7.4102l-12.682 15.031h22.807v-4.6445h-12.838l6.3144-7.4121c4.4361-5.2712 5.7924-7.3057 5.7402-10.959-0.10436-5.219-4.1742-8.7154-9.4453-8.7676z" style="fill:#9abeff"/>
</svg>
