<svg width="192" height="192" version="1.1" viewBox="0 0 192 192" xmlns="http://www.w3.org/2000/svg">
 <ellipse cx="94" cy="94" rx="66" ry="74" style="fill:#ff837d;paint-order:stroke fill markers"/>
 <ellipse cx="94" cy="94" rx="54" ry="62" style="fill:#4a4a4a;paint-order:stroke fill markers"/>
 <rect transform="rotate(90)" x="148" y="-124" width="36" height="12" ry="4" style="fill:#ff837d;paint-order:stroke fill markers"/>
 <rect x="8" y="84" width="48" height="12" ry="4" style="fill:#ff837d;paint-order:stroke fill markers"/>
 <rect x="128" y="68" width="56" height="12" ry="4" style="fill:#ff837d;paint-order:stroke fill markers"/>
 <rect x="128" y="100" width="56" height="12" ry="4" style="fill:#ff837d;paint-order:stroke fill markers"/>
 <rect transform="rotate(90)" x="8" y="-98" width="48" height="12" ry="4" style="fill:#ff837d;paint-order:stroke fill markers"/>
 <rect x="64" y="48" width="56" height="12" ry="4" style="fill:#ff837d;paint-order:stroke fill markers;stroke-width:.96609"/>
 <rect x="104" y="68" width="16" height="12" ry="4" style="fill:#ff837d;paint-order:stroke fill markers"/>
 <rect x="84" y="68" width="16" height="12" ry="4" style="fill:#ff837d;paint-order:stroke fill markers"/>
 <rect x="64" y="68" width="16" height="12" ry="4" style="fill:#ff837d;paint-order:stroke fill markers"/>
 <rect x="104" y="84" width="16" height="12" ry="4" style="fill:#ff837d;paint-order:stroke fill markers"/>
 <rect x="84" y="84" width="16" height="12" ry="4" style="fill:#ff837d;paint-order:stroke fill markers"/>
 <rect x="64" y="84" width="16" height="12" ry="4" style="fill:#ff837d;paint-order:stroke fill markers"/>
 <rect x="104" y="100" width="16" height="12" ry="4" style="fill:#ff837d;paint-order:stroke fill markers"/>
 <rect x="84" y="100" width="16" height="12" ry="4" style="fill:#ff837d;paint-order:stroke fill markers"/>
 <rect x="64" y="100" width="16" height="12" ry="4" style="fill:#ff837d;paint-order:stroke fill markers"/>
 <path d="m93.912 124a6.0006 6.0006 0 0 0-4.1543 1.7578l-24 24a6.0006 6.0006 0 1 0 8.4844 8.4844l19.758-19.758 19.758 19.758a6.0006 6.0006 0 1 0 8.4844-8.4844l-24-24a6.0006 6.0006 0 0 0-4.3301-1.7578z" style="color-rendering:auto;color:#000000;dominant-baseline:auto;fill:#ff837d;font-feature-settings:normal;font-variant-alternates:normal;font-variant-caps:normal;font-variant-ligatures:normal;font-variant-numeric:normal;font-variant-position:normal;image-rendering:auto;isolation:auto;mix-blend-mode:normal;shape-padding:0;shape-rendering:auto;solid-color:#000000;text-decoration-color:#000000;text-decoration-line:none;text-decoration-style:solid;text-indent:0;text-orientation:mixed;text-transform:none;white-space:normal"/>
</svg>
