<svg width="192" height="192" version="1.1" viewBox="0 0 192 192" xmlns="http://www.w3.org/2000/svg">
 <path d="m48 8c-3.1824 6e-4 -6.2342 1.2652-8.4844 3.5156l-4 4c-2.2504 2.2501-3.515 5.302-3.5156 8.4844v32c0.0056 0.66008 0.06575 1.3186 0.17969 1.9688-0.11742 0.67076-0.17753 1.3503-0.17969 2.0312v36c0.0056 0.66008 0.06575 1.3186 0.17969 1.9688-0.11742 0.67076-0.17753 1.3503-0.17969 2.0312v68c6.12e-4 3.1824 1.2652 6.2342 3.5156 8.4844l4 4c2.2501 2.2504 5.302 3.515 8.4844 3.5156h28c3.1824-6e-4 6.2342-1.2652 8.4844-3.5156l4-4c2.2504-2.2501 3.515-5.302 3.5156-8.4844v-15.031l8-8v27.031c6.6e-4 6.6272 5.3729 11.999 12 12h32c3.1824-6e-4 6.2342-1.2652 8.4844-3.5156l4-4c2.2504-2.2501 3.515-5.302 3.5156-8.4844v-28c-6e-3 -1.3636-0.2432-2.7163-0.70312-4 0.45991-1.2837 0.69769-2.6364 0.70312-4v-20c-6.1e-4 -3.1824-1.2652-6.2342-3.5156-8.4844l-7.5156-7.5156 7.5156-7.5156c2.2504-2.2501 3.515-5.302 3.5156-8.4844v-32c-6e-3 -1.3636-0.2432-2.7163-0.70312-4 0.45991-1.2837 0.69769-2.6364 0.70312-4v-12c-6.1e-4 -3.1824-1.2652-6.2342-3.5156-8.4844l-8-8c-2.2501-2.2504-5.302-3.515-8.4844-3.5156h-28c-6.6271 6.8e-4 -11.999 5.3728-12 12v43.031l-8 8v-35.031c-0.0056-1.3636-0.2432-2.7163-0.70312-4 0.45992-1.2837 0.6977-2.6364 0.70312-4v-8c-6.64e-4 -6.6272-5.3729-11.999-12-12z" style="color-rendering:auto;color:#000000;dominant-baseline:auto;fill:#54688c;font-feature-settings:normal;font-variant-alternates:normal;font-variant-caps:normal;font-variant-ligatures:normal;font-variant-numeric:normal;font-variant-position:normal;image-rendering:auto;isolation:auto;mix-blend-mode:normal;paint-order:stroke fill markers;shape-padding:0;shape-rendering:auto;solid-color:#000000;text-decoration-color:#000000;text-decoration-line:none;text-decoration-style:solid;text-indent:0;text-orientation:mixed;text-transform:none;white-space:normal"/>
 <path d="m112 20v48l-32 32v-64l-4-4 4-4v-8h-32l-4 4v32h4l-4 4v36h4l-4 4v68l4 4h28l4-4v-20l32-32v56h32l4-4v-28l-4-4 4-4v-20l-16-16 16-16v-32l-4-4 4-4v-12l-8-8z" style="fill:#ccc;paint-order:stroke fill markers;stroke-width:4"/>
 <path d="m132 100-36 24-4 4-12-16-8 8v-16l-16 8-12-8v64l4 4h28l4-4v-20l32-32v56h32l4-4v-28l-4-4 4-4v-4l-4-4-4 4-8 4-4-4h-4l-4-4v-8z" style="fill:#b1b5bd;stroke-width:4"/>
 <path d="m80 28-8 4h4zm68 12-8 4h4zm-68 8-8 14.336 8-4.4687zm-36 4v4h12zm36 36-12 24 12-12zm-36 4v4h4zm88 4-20 20v20l8-2.2734-4-1.7266 4-16 16-16zm-88 16v8l6.7422-4zm104 20-8 4h4z" style="fill:#a0a5af;stroke-width:4"/>
 <path d="m68 16c-8 0-20 4-20 4s18.173 4 28 4c0 4 4 12 4 12s4-4 4-16c0-4-10.503-4-16-4zm36 60s-4 0-8 4c-2.1082 2.1082-4 8-4 8s4 0 8-4c2.1082-2.1082 4-8 4-8zm-56.875 13.555c-1.7077 0.0888-3.125 0.336-3.125 0.336s3.1875 5 5.7578 6.1094c1.9094 0.82404 7.9688 0 7.9688 0s-3.6627-4.6863-5.7266-5.8203c-1.1693-0.64248-3.1673-0.71372-4.875-0.625zm8.875 38.445s-4.627-0.104-8 1.5625c-2.697 1.3324-4 4.875-4 4.875s2.4403 2.4485 6.4375 1.5625c3.1704-0.70272 5.5625-8 5.5625-8z" style="fill:#98dc9a;stroke-width:4"/>
</svg>
