<svg width="192" height="192" version="1.1" viewBox="0 0 192 192" xmlns="http://www.w3.org/2000/svg">
 <style type="text/css">.st0{fill:#FFFFFF;}</style>
 <circle cx="30" cy="162" r="10" style="fill:#ff837d;paint-order:stroke fill markers;stroke-width:4"/>
 <g transform="scale(4)">
  <path d="m15.746 39.668c-1.3687-1.1496-1.9766-2.3315-3.8185-2.7731-1.6009-0.38376 0.25702-1.2263-1.6387-1.6724-1.6184-0.38085-1.3696-2.7146-1.813-3.8771-0.4313-1.1308-0.55531-1.9567-0.65661-2.564-0.059482-0.35663 0.36825-3.0442-1.2331-3.0469-2.3611-4e-3 -3.9402-2.7252-2.5151-4.5593 1.2815-1.7948 4.1757-1.0962 4.9395 0.86871 0.87255 2.2447 3.4097 1.5077 3.8405 1.1891 0.4358-0.32226 0.79192-1.2523 0.98213-1.3703 0.0951-0.05901 0.47564-0.26491 0.77933 0.12002 0.28499 0.36123-0.14487 0.52045 0.27509 0.58498 2.8157 0.4326 0.02935-2.8221 1.3968-4.1058 1.6907-1.1536 1.9492-3.3885 2.8393-5.1279-0.24991-1.7571 0.81252-3.3286 1.8173-4.5075 0.65978-1.0097 2.7805-2.5681 2.7699-3.1061-1.1944-0.15077-1.4738 1.7083-2.3016 1.4473-0.77838 0.11643-0.07991-1.74 0.52231-0.87553-0.09417-1.5309 1.595-0.64382 1.9197-2.2256 0.67648-0.77308 2.1134 0.38545 2.3269 0.7554 0.36682 0.63572 0.88004-0.19712 1.4509 0.075043 0.25216 0.12022 0.59149 0.62782 1.0065 0.70334 0.41505 0.075516 0.42278-0.25562 1.1558-0.16032 0.55054 0.071576 0.70994 0.62948 1.3149 0.099562 1.5613-1.3675 3.0724-0.37129 3.0495 1.9485-0.0094 0.9527 1.363 0.55729 2.1112-0.70595 0.63926-1.0794 2.1664-0.94939 1.9609 0.55891-0.20631 1.5147-0.20429 3.4509 1.6436 2.4174 2.7852-1.5578 1.3896 2.2827 2.7701 3.8638 1.2502 1.4319 1.8523 3.56 1.8063 5.4719-0.04558 1.8951 0.06237 3.7968-0.62454 5.5866-0.77486 2.019-0.06159 4.8373-2.0044 6.009-1.1736 0.70784-4.7683 0.73895-3.0475 2.7218 0.66913 0.77102 0.21347 0.89679-0.55113 0.79695-0.3823-0.04992-0.41037 0.74262-0.84515 0.63235-0.43478-0.11027-1.2763-1.1234-1.5595-1.1891-0.40624-0.09423-0.36198 0.55627-0.71014 0.73033-0.34816 0.17405-1.0887-0.12835-1.0512-0.69021 0.05629-0.84264-1.8063 0.56222-1.033 1.0794 1.2773 0.85435 1.0004 1.5266-0.38848 0.91858-1.1149-0.48808-0.9759 0.06244-0.46176 0.61313 0.51414 0.55069 0.936 0.84986-0.11654 1.3692-0.86828 0.42842-0.27494-1.5392-1.6188-0.99243-0.83055 0.33789-2.2293 1.5915-2.4062-0.24432-0.1023-1.0618-1.4141-0.95107-2.4564-1.3755-1.3521-0.55064-1.5606 0.59488-2.6708-0.56955-1.0491-1.1003-0.77252 0.38348-1.2847 1.121-0.55386 0.79754-3.3082 1.6765-4.5906 2.6324 1.6145-1.0839 3.3143 0.97489 1.1812 1.7816-1.0549 0.4331-2.0757-0.03288-2.462-0.35732z" style="fill:#ff837d;stroke-width:.17188"/>
 </g>
 <path d="m124.03 35.914c-3.4814-0.052-6.3753 0.2956-9.9297 1.914-3.135 1.4274-10.318 10.588-14.437 16.68-2.8199 4.1694-4.0567 9.2835-6.9219 13.422-1.0929 1.5786-2.8188 2.6599-3.8594 4.2734-0.92154 1.429-1.2479 3.1746-2.0391 4.6797-4.0526 7.7098-12.406 18.102-12.406 18.102s-0.49167 2.4931 2.2422 1.625c-1.5178 2.1467-2.6872 3.4609-2.6484 5.4922 0.0248 1.3038 0.91821 2.5344 1.8359 3.4609 1.3022 1.3147 3.2857 1.6928 4.875 2.6406 1.8088 1.0787 3.2228 3.0532 5.2891 3.461 8.7591 1.7283 15.85 1.6557 26.445 2.6406 2.8094 0.2612 5.6543 3.8185 6.5078 6.5078 0.75885 2.391-0.6696 5.106 0 7.5234 0.52762 1.9049 1.4288 3.9507 3.0469 5.086 2.6014 1.8253 6.1832 1.7368 9.3594 1.8359 2.5972 0.0812 5.5392 0.3792 7.7266-1.0234 2.3593-1.513 4.4766-7.1172 4.4766-7.1172l-2.0312-7.1172h2.6406l3.0547-9.3594s9.5863-0.0592 9.5547-9.1484c-0.014-3.9816-5.6338-7.0371-8.7422-8.1328-1.5831-0.55804-3.6185-1.783-3.6641-3.4609-0.25308-9.325 0.40625-27.055 0.40625-27.055s3.3218-3.3897 4.8828-4.875c0.73838-0.70256 0.62268-2.1258 0.20312-3.0547-0.45773-1.0134-1.6928-2.6127-2.6406-2.0313-1.6543 1.0149-3.4609 2.6406-3.4609 2.6406s0.0844-7.6275-0.20312-12.813c-0.14368-2.591-3.5066-6.3104-6.1016-6.3047-5.9099 0.012-9.9796-0.44024-13.461-0.49216zm-9.9297 36.898c1.4688-0.2412 2.9955 1.0358 3.8672 2.2422 0.97339 1.3472 0.55298 3.2786 1.0156 4.875 0.48372 1.6691 0.67204 3.5854 1.8281 4.8828 1.9768 2.2185 7.8852 2.5284 7.9297 4.0703 0.0548 1.9006-6.0686 2.9273-9.3516 3.4531-3.6843 0.59016-7.6827 0.87392-11.188-0.40624-1.8599-0.67932-4.211-1.7324-4.6797-3.6562-0.61762-2.5349 1.8396-4.9272 3.2578-7.1172 2.0107-3.1049 3.6701-7.7445 7.3203-8.3438z" style="fill:#fff;stroke-width:4"/>
</svg>
