<svg width="192" height="192" version="1.1" viewBox="0 0 192 192" xmlns="http://www.w3.org/2000/svg">
 <style type="text/css">.st0{fill:#FFFFFF;}</style>
 <path d="m97.879 15.225c-0.93272-0.02271-1.8001 0.26793-2.4766 1.041-1.299 6.327-8.0544 2.7786-7.6777 8.9023-2.4089-3.4579-5.2034 3.9677-2.0898 3.502 3.3112 1.0442 4.4295-6.3921 9.207-5.7891 0.04254 2.152-8.4409 8.3849-11.08 12.424-4.0191 4.7157-8.2692 11.001-7.2695 18.029-3.5606 6.9577-4.5945 15.897-11.357 20.512-5.4697 5.1348 5.6768 18.154-5.5859 16.424-1.6799-0.25809 0.04034-0.89494-1.0996-2.3398-1.2147-1.5397-2.7387-0.71651-3.1191-0.48047-0.76082 0.47206-2.1845 4.1914-3.9277 5.4805-1.7233 1.2743-11.871 4.223-15.361-4.7559-3.0551-7.8596-14.632-10.654-19.758-3.4746-5.7002 7.3366 0.61622 18.22 10.061 18.236 6.4055 0.0108 4.6937 10.761 4.9316 12.188 0.11324 0.67895-0.68463 2.2763-1.4732 2.5572-6.5895 2.347-9.7935 7.3248-9.8022 14.32 0.0044 2.7624 0.7715 5.47 2.2168 7.8242-1.45 3.02-2.2074 6.3257-2.2168 9.6758 0 12.426 10.074 22.5 22.5 22.5 8.8624-8e-3 28.789-1.1904 32.41-9.2793 1.5657 1.2966 5.62 3.1284 9.8145 1.4062 8.5324-3.2267 1.7332-11.463-4.7246-7.127 5.1297-3.8238 4.2533-8.0586 6.4688-11.249 2.0487-2.9501 0.9423-8.8857 5.1387-4.4844 4.4409 4.6577 5.2754 0.0767 10.684 2.2793 4.169 1.6979 9.415-2.0529 9.8242 2.1941 0.70754 7.3435 6.3028 2.3282 9.625 0.97657 5.3756-2.187 3.0034 5.6844 6.4766 3.9707 4.2102-2.0773 2.5214-3.2738 0.46484-5.4766s-2.6119-4.4054 1.8477-2.4531c5.5554 2.432 6.6639-0.25642 1.5547-3.6738-3.093-2.0688 4.356-7.6889 4.1309-4.3184-0.15014 2.2474 2.8124 3.4579 4.2051 2.7617 1.3926-0.69622 1.2149-3.2988 2.8398-2.9219 1.1332 0.26284 4.4992 4.3148 6.2383 4.7559 1.7391 0.44109 1.8517-2.729 3.3809-2.5293 3.0584 0.39936 4.8816-0.10342 2.2051-3.1875-6.8831-7.9312 7.495-8.0554 12.189-10.887 7.7712-4.687 4.9182-15.961 8.0176-24.037 2.7476-7.1593 2.3157-14.765 2.498-22.346 0.18393-7.6473-2.2236-16.159-7.2246-21.887-5.522-6.3245 0.0607-21.686-11.08-15.455-7.3914 4.1342-7.3995-3.611-6.5742-9.6699 0.82174-6.0332-5.2867-6.5539-7.8438-2.2363-2.9926 5.053-8.4829 6.635-8.4453 2.8242 0.0917-9.2793-5.9521-13.265-12.197-7.7949-2.42 2.1197-3.0576-0.11213-5.2598-0.39844-2.932-0.3812-2.9628 0.94464-4.623 0.64258s-3.0187-2.3336-4.0274-2.8145c-2.2834-1.0887-4.3355 2.2441-5.8027-0.29883-0.64039-1.1098-4.0339-3.9944-6.832-4.0625z" style="fill:#ff837d;stroke-width:.6875"/>
 <path d="m124.03 35.914c-3.4814-0.052-6.3753 0.2956-9.9297 1.914-3.135 1.4274-10.318 10.588-14.437 16.68-2.8199 4.1694-4.0567 9.2835-6.9219 13.422-1.0929 1.5786-2.8188 2.6599-3.8594 4.2734-0.92154 1.429-1.2479 3.1746-2.0391 4.6797-4.0526 7.7098-12.406 18.102-12.406 18.102s-0.49167 2.4931 2.2422 1.625c-1.5178 2.1467-2.6872 3.4609-2.6484 5.4922 0.0248 1.3038 0.91821 2.5344 1.8359 3.4609 1.3022 1.3147 3.2857 1.6928 4.875 2.6406 1.8088 1.0787 3.2228 3.0532 5.2891 3.461 8.7591 1.7283 15.85 1.6557 26.445 2.6406 2.8094 0.2612 5.6543 3.8185 6.5078 6.5078 0.75885 2.391-0.6696 5.106 0 7.5234 0.52762 1.9049 1.4288 3.9507 3.0469 5.086 2.6014 1.8253 6.1832 1.7368 9.3594 1.8359 2.5972 0.0812 5.5392 0.3792 7.7266-1.0234 2.3593-1.513 4.4766-7.1172 4.4766-7.1172l-2.0312-7.1172h2.6406l3.0547-9.3594s9.5863-0.0592 9.5547-9.1484c-0.014-3.9816-5.6338-7.0371-8.7422-8.1328-1.5831-0.55804-3.6185-1.783-3.6641-3.4609-0.25308-9.325 0.40625-27.055 0.40625-27.055s3.3218-3.3897 4.8828-4.875c0.73838-0.70256 0.62268-2.1258 0.20312-3.0547-0.45773-1.0134-1.6928-2.6127-2.6406-2.0313-1.6543 1.0149-3.4609 2.6406-3.4609 2.6406s0.0844-7.6275-0.20312-12.813c-0.14368-2.591-3.5066-6.3104-6.1016-6.3047-5.9099 0.012-9.9796-0.44024-13.461-0.49216zm-9.9297 36.898c1.4688-0.2412 2.9955 1.0358 3.8672 2.2422 0.97339 1.3472 0.55298 3.2786 1.0156 4.875 0.48372 1.6691 0.67204 3.5854 1.8281 4.8828 1.9768 2.2185 7.8852 2.5284 7.9297 4.0703 0.0548 1.9006-6.0686 2.9273-9.3516 3.4531-3.6843 0.59016-7.6827 0.87392-11.188-0.40624-1.8599-0.67932-4.211-1.7324-4.6797-3.6562-0.61762-2.5349 1.8396-4.9272 3.2578-7.1172 2.0107-3.1049 3.6701-7.7445 7.3203-8.3438z" style="fill:#fff;stroke-width:4"/>
 <path d="m37.758 154.97c0.15064 1.2219 1.7687 2.1117 2.9991 2.1556 8.7804 0.31342 15.847-0.1772 23.243 0 2.4626 0.059 5.3362-0.27238 7.1229-1.9682 0.9315-0.88414 1.5641-2.4183 1.2184-3.6552-0.5847-2.0919-3.0024-3.2917-4.9673-4.2175-1.6076-0.75748-5.2128 0.46791-5.5296-1.4995-0.6587-4.0905 9.4154-7.9628 9.091-18.651-0.26129-8.6101-7.0954-14.32-13.871-14.995-7.023-0.70031-20.837 3.8518-22.212 12.184-0.33126 2.0071 2.1112 4.2028 4.1238 4.4987 1.5107 0.2221 2.4103-2.3978 3.9363-2.343 1.2558 0.0451 1.8375 2.2137 3.0928 2.1556 3.3572-0.15532 1.6188-3.6323 3.1865-4.6861 1.6171-1.087 4.8321-1.3381 5.8108-1.3121 0.83798 0.0222 0.3634-1.6486 1.0309-2.1556 0.91237-0.693 2.7453-1.6139 3.374-0.65605 0.72755 1.1083-2.056 1.671-1.9682 2.8116 0.11492 1.4929 1.231 5.179 0.74978 7.4978-0.9037 4.3546-7.0291 11.34-7.0291 11.34s-2.8232 2.6054-6.4668 5.9982c-0.57341 0.53395-2.3919 0.44211-2.9991 0.93722-0.78158 0.63727-0.36676 2.0167-0.8435 2.9054-0.75452 1.4064-3.2881 2.0711-3.0928 3.6552z" style="fill:#fff;stroke-width:.65167"/>
 <circle cx="100" cy="157" r="5" style="fill:#ff837d;paint-order:stroke fill markers"/>
</svg>
