<svg width="192" height="192" version="1.1" viewBox="0 0 192 192" xmlns="http://www.w3.org/2000/svg">
 <style type="text/css">.st0{fill:#FFFFFF;}</style>
 <style type="text/css">.st0{fill:#FFFFFF;}</style>
 <rect x="32.501" y="8.0014" width="127" height="176" rx="9.9998" style="fill:#f9de81;stroke-width:4"/>
 <path d="m44 12c-4.432 0-8 3.568-8 8v152c0 4.432 3.568 8 8 8h104c4.432 0 8-3.568 8-8v-152c0-4.432-3.568-8-8-8zm0 4h104c2.216 0 4 1.784 4 4v152c0 2.216-1.784 4-4 4h-104c-2.216 0-4-1.784-4-4v-152c0-2.216 1.784-4 4-4z" style="fill:#c39a54;paint-order:stroke fill markers;stroke-width:4"/>
 <rect x="44" y="20" width="104" height="152" ry="0" style="fill:#56595b;paint-order:stroke fill markers;stroke-width:4"/>
 <path d="m120 140 52-8-4-120-60 64z" style="fill:#979797;stroke-width:4"/>
 <path d="m81.763 109.42s6.44-1.2971 6.7119-3.8644c0.83704-7.9046-1.8305-14.441-1.8305-14.441l20.339-1.4237 11.39 48.407-52.271 13.424-4.0678-10.373 8.1356-18.102 2.6441-10.576z" style="fill:#f1e9e0;stroke-width:4"/>
 <path d="m69.966 113.08s-4.5113 3.9642-5.0847 6.7118c-0.4132 1.9799-0.30508 6-0.30508 6s-7.9878 12.549-8.2373 20.034c-0.33899 10.169 7.661 14.169 7.661 14.169l-0.339-9.6949z" style="fill:#71a372;stroke-width:4"/>
 <path d="m81.763 109.42s-1.0954-2.8266-4.8814-3.2542c-1.7568-0.1984-3.0885 1.3254-4.4746 2.8475-3.9885 4.3797-3.1894 10.761-5.0847 16.373-1.7174 5.0854-5.5774 7.3896-6.9153 14.542-0.86664 4.6334-1.0151 6.5444 9.1525 10.78 7.3226 3.0502 23.797 0.2036 23.797 0.2036s-28.616-5.0783-28.068-9.356c0.73434-5.7318 4.9323-10.508 6.5085-16.068 1.2191-4.3 0.39988-8.9675 3.2542-12.407 1.7534-2.1127 6.7119-3.661 6.7119-3.661z" style="fill:#98dc9a;stroke-width:4"/>
 <path d="m100.54 90.148-13.898 0.96876s2.673 6.5408 1.8359 14.445c-0.21336 2.0146-4.1265 3.2112-5.8438 3.6484l0.04688 1.2266 7.7266 4.1719s-1.551-4.0542-1.2187-6.1016c0.17512-1.079 1.625-2.8437 1.625-2.8437s-0.26 2.4458-0.10156 3.6562c0.24776 1.893 1.625 5.4922 1.625 5.4922s2.3378-1.4771 3.6641-1.7266c2.4044-0.45224 7.3203 0.50784 7.3203 0.50784z" style="fill:#d6c8ba;stroke-width:4"/>
 <path d="m86.062 107.99-2.3672 0.92188-0.0236-0.016c-1.267 2.1961-3.2083 6.1444-3.3594 10.445-0.1064 3.0286 0.23144 6.4106 1.4844 9.3282 0.41716 0.97136 0.99232 1.857 1.6406 2.6875a4.7797 7.137 27.677 0 0-1.7891 2.0469 4.7797 7.137 27.677 0 0-0.18748 9.0469 4.7797 7.137 27.677 0 0 7.6016-2.8203 4.7797 7.137 27.677 0 0 1.625-4.5c3.0694 0.1204 6.873-0.91928 10.281-2.0938 4.1209-1.4201 7.5234-3.0234 7.5234-3.0234 1.0541-0.41888 0.31524-1.99-0.67968-1.4453 0 0-3.3326 1.5733-7.3594 2.961-3.3616 1.1584-7.1738 2.0579-9.7734 1.9844a4.7797 7.137 27.677 0 0-1.4295-2.9219 4.7797 7.137 27.677 0 0-4.5078-0.1248c-0.57796-0.7314-1.089-1.5272-1.4766-2.4297-1.1148-2.5959-1.4522-5.7761-1.3516-8.6406 0.20032-5.703 4.1172-11.336 4.1172-11.336 0.0176-0.024 0.0164-0.0476 0.0312-0.0704z" style="fill:#a0a5af;paint-order:stroke fill markers;stroke-linecap:round;stroke-width:2.1695"/>
 <ellipse transform="matrix(.76573 .64316 -.54881 .83594 0 0)" cx="147.3" cy="49.988" rx="3.2302" ry="4.7343" style="fill:#f8c18c;paint-order:stroke fill markers;stroke-linecap:round;stroke-width:1.4526"/>
 <path d="m28 164s1.7833 8.4134 4 12c1.9827 3.208 4.2288 8 8 8h108c12 0 12-12 12-12v-68z" style="fill:#b1b5bd;stroke-width:4"/>
 <path d="m79.388 82.123s-5.8339-1.6933-6.328-4.1707c-2.102-10.539-0.45117-10.124-2.1573-14.813-0.65504-1.8003-2.7786-2.9893-3.0202-4.8898-1.4812-11.651-0.30164-14.344 2.7325-19.703 3.0602-5.4047 5.1938-8.6667 14.669-10.93 9.5053-2.2705 28.907 4.8898 28.907 4.8898l8.4853 42.858z" style="fill:#8e6f60;stroke-width:4"/>
 <path d="m92.188 93.053c-10.166 1.1017-15.035-9.9736-17.258-17.977-1.8838-6.781-1.582-11.937-1.582-11.937s-1.627-3.0656-1.7258-4.746c-0.88831-15.1 7.6849-16.489 10.067-20.566 1.5488-2.5481 5.3213-7.1909 5.3213-7.1909s-1.6934 4.099-2.4449 6.0404c-0.78577 2.0064 15.389 4.0269 15.389 4.0269l11.074 47.172s-12.365 4.4758-18.84 5.1775z" style="fill:#f1e9e0;stroke-width:4"/>
 <path d="m69.896 45.881 2.4449-6.6156s4.85-8.9965 14.526-10.211c4.8042-0.60308 14.238 2.8764 14.238 2.8764s-10.107-0.0828-15.101 0.57528c-9.1066 1.2002-16.108 13.375-16.108 13.375z" style="fill:#ececec;stroke-width:4"/>
 <path d="m83.558 73.206c-0.91737-0.1936-1.5959-1.4394-1.5101-2.373 0.132-1.4355 1.5425-2.8447 2.9483-3.164 2.6868-0.6102 7.6943 3.0202 7.6943 3.0202s-1.1353-2.2091-2.0854-2.9483c-1.054-0.82-3.7868-0.71532-3.7393-1.4382 0.16868-2.564 1.143-5.0528 1.1505-7.6224 0.0048-1.6712-1.0349-3.3206-0.71909-4.9617 0.66975-3.4801 5.3213-9.2044 5.3213-9.2044l8.7729 5.9684 1.1506 20.638-12.296 0.93484-4.0988-0.43148 1.2225 1.582-1.7258-0.072-0.791 0.2876 0.21572-1.2224s-0.91816 1.1317-1.5101 1.0067z" style="fill:#d6c8ba;stroke-width:4"/>
 <path d="m82.767 80.469c-0.16172-1.7344 3.2046-1.2814 3.3078-3.0202 0.0368-0.62072-1.2704-1.1842-0.86291-1.6539 0.28316-0.3264 0.8697 0.68104 1.2225 0.43144 0.64572-0.45684-0.74421-2.105 0-2.373 1.6978-0.61144 1.6688 4.4501 3.4516 4.1707 0.38256-0.06 0.0714-0.93612 0.43146-1.0786 0.36892-0.146 0.78491 0.77012 1.0786 0.50336 0.9036-0.82056-1.9918-2.504-1.2225-3.4516 1.0214-1.258 4.4584-0.64716 4.4584-0.64716l6.8314 30.346s-5.4073 2.4194-5.9685 0.50336c-0.2742-0.9364 2.6085-0.3908 2.5887-1.3663-0.0352-1.7258-4.7571-0.50504-4.6741-2.2292 0.04048-0.84068 2.2601-0.028 2.373-0.86292 0.14984-1.1072-2.5422-0.84048-2.7325-1.9415-0.14952-0.86496 2.0494-1.4647 1.5101-2.1573-0.7877-1.0116-2.9216 2.457-3.5955 1.3663-0.856-1.3854 3.7983-1.692 3.5955-3.3078-0.35272-2.8092-8.5387-1.4016-7.4786-4.0269 0.53137-1.3158 3.4553 2.4154 4.0988 1.1506 0.71978-1.4147-4.5015-1.556-3.7393-2.9483 0.87736-1.6024 3.9455 3.1468 5.1775 1.7977 0.74512-0.81588-2.1944-2.2886-1.3663-3.0202 0.75792-0.66952 1.7838 2.1942 2.5887 1.582 0.69445-0.52824-1.4279-2.008-0.71909-2.5168 0.68592-0.49244 1.381 1.9039 2.0854 1.4382 0.99994-0.66112 0.1274-2.6748-0.71909-3.5236-1.0025-1.0052-3.0699-1.7593-4.1707-0.86292-0.55761 0.45408 0.6282 1.8074 0 2.1573-0.51718 0.288-0.92292-0.85928-1.5101-0.9348-0.64672-0.0832-1.6744-0.0468-1.8696 0.57528-0.20964 0.66792 1.74 1.114 1.2944 1.6539-0.70289 0.85156-2.0308-0.89576-2.9483-1.5101-1.0737-0.71888-2.9404-1.2247-2.9483-2.5168-0.0031-0.5096 1.1336-0.49744 1.1505-1.0068 0.0112-0.3388-0.68762-0.3816-0.71909-0.71908z" style="fill:#ffb0ac;stroke-width:4"/>
 <path d="m98.836 92.047-4.5156 1.2031c0.08376 0.1488 0.21936 0.2712 0.2422 0.45312 0.20288 1.6158-4.4497 1.9193-3.5937 3.3047 0.6739 1.0907 2.806-2.3788 3.5937-1.3672 0.53929 0.69256-1.6651 1.2913-1.5156 2.1562 0.19032 1.101 2.8842 0.83804 2.7344 1.9453-0.11284 0.83408-2.3345 0.02-2.375 0.85936-0.08304 1.7242 4.6445 0.50856 4.6797 2.2344 0.02 0.97552-2.8679 0.423-2.5937 1.3594 0.56112 1.9161 5.9688-0.5 5.9688-0.5z" style="opacity:.25;stroke-width:4"/>
 <path d="m82.271 82.271c-0.08816-0.45284 3.8587-2.6815 7.4746-3.1017 2.8297-0.3288 8.6058 1.3416 8.2881 2.0848-0.44187 1.0339-5.2521-0.1388-7.8814 0.036-2.4729 0.1636-7.4078 3.4147-7.8814 0.98204z" style="fill:#fff;opacity:.25;stroke-width:4"/>
 <path d="m84 8 9.7258 88.072 14.274 27.928-4 36 56 20s4-23.926 4-36c0-12-4-18.572-4-28v-84c0-4.2164 4-4 4-12v-4l4-4s0-4-4-4z" style="fill:#ccc;stroke-width:4"/>
 <path d="m84.814 80.847s1.02-1.6751 1.8814-1.9322c0.59895-0.1788 1.7771-0.216 1.8305 0.4068-2.1737 0.51924-3.7119 1.5254-3.7119 1.5254z" style="fill:#fff;stroke-width:4"/>
 <path d="m73.06 63.426 1.5101-0.791s1.3266-3.6896 3.955-3.8831c2.8688-0.2112 5.1056 1.9416 5.1056 1.9416s-2.6017 1.8902-4.2216 2.3679c-1.5181 0.4476-4.6952 0.3648-4.6952 0.3648z" style="fill:#4a4a4a;stroke-width:4"/>
 <path d="m74.949 63.407s0.78002-3.4634 3.5593-3.9661c2.5404-0.45948 5.1356 1.2712 5.1356 1.2712s-0.94306 1.3995-3.9661 2.3898c-2.5515 0.83588-4.7288 0.3052-4.7288 0.3052z" style="fill:#fff;stroke-width:4"/>
 <ellipse cx="78.925" cy="61.324" rx="2.0085" ry="1.9576" style="fill:#8e6f60;paint-order:stroke fill markers;stroke-width:4"/>
 <ellipse cx="78.976" cy="61.274" rx=".83898" ry=".838" style="fill:#4a4a4a;paint-order:stroke fill markers;stroke-width:3.9384"/>
 <ellipse cx="78.187" cy="61.731" rx=".55932" ry=".58475" style="fill:#fff;paint-order:stroke fill markers;stroke-width:4"/>
 <path d="m83.415 72.271c-0.32944-0.3812-0.27156-1.0474-0.07192-1.5101 0.08752-0.2028 0.28852-0.48312 0.50336-0.43148 0.66208 0.1592 1.2008 1.4781 0.76919 1.5907-0.70601 0.1844-0.94968 0.64132-1.2006 0.3508z" style="opacity:.25;stroke-width:4"/>
 <path d="m86.363 70.761c-0.25304-0.3204-0.23236-0.95036 0.07192-1.2225 0.33992-0.304 0.9724-0.158 1.3663 0.072 0.53983 0.3152 1.3542 1.0624 1.0067 1.582-0.23 0.344-0.81497-0.1436-1.2225-0.2156-0.40749-0.072-0.96593 0.1088-1.2225-0.2156z" style="opacity:.25;stroke-width:4"/>
 <path d="m72.556 58.033s1.9974-1.7709 3.164-1.9416c2.0048-0.2932 3.0533 0.0516 5.9685 1.1506 0.41174 0.1552 1.0576-0.2172 1.1505-0.6472 0.0942-0.4358-0.35668-0.97784-0.791-1.0786-2.4066-0.55844-4.0512-0.98172-5.9685-0.43144-2.5252 0.72476-3.5235 2.9483-3.5235 2.9483z" style="fill:#d4c6b8;stroke-width:4"/>
</svg>
