<svg width="192" height="192" version="1.1" viewBox="0 0 192 192" xmlns="http://www.w3.org/2000/svg">
 <rect transform="rotate(90)" x="32" y="-184" width="128" height="176" rx="10.079" style="fill:#56595b"/>
 <path d="m38.429 83.746s8.7886-6.0064 19.345-6.1091c6.2516-0.06088 9.8312 3.6945 12.033 3.795 1.5065 0.06886 1.7748-0.54833 1.9437-1.2959 0.16172-0.71533-0.55537-2.129-0.55537-2.129" style="fill:none;stroke-linecap:round;stroke-width:1.8977;stroke:#bd9aff"/>
 <path d="m44.168 80.691s-7.2494 5.1601-7.7752 15.55c-0.23335 4.6113 1.0406 9.4675 3.4248 13.422 1.3536 2.2448 5.8313 5.276 5.8313 5.276" style="fill:none;stroke-linecap:round;stroke-linejoin:round;stroke-width:1.8977;stroke:#bd9aff"/>
 <path d="m39.632 115.59s7.176-0.28373 14.44-1.1107c8.042-0.91563 16.754 0.37024 16.754 0.37024" style="fill:none;stroke-linecap:round;stroke-linejoin:round;stroke-width:1.8977;stroke:#bd9aff"/>
 <path d="m61.712 114.15s6.4354-1.4422 8.3728-3.7512c2.4006-2.8611 2.4448-7.1878 2.4991-10.922 0.05761-3.9629-1.1798-7.8651-2.314-11.662-1.087-3.6395-4.6281-8.0529-4.6281-8.0529" style="fill:none;stroke-linecap:round;stroke-linejoin:round;stroke-width:1.8977;stroke:#bd9aff"/>
 <rect x="53.713" y="88.932" width="1.5" height="16.929" ry=".75" style="fill-rule:evenodd;fill:#bd9aff;paint-order:normal;stroke-width:.30213"/>
 <rect transform="rotate(90)" x="96.361" y="-62.999" width="1.5" height="16.929" ry=".75" style="fill-rule:evenodd;fill:#bd9aff;paint-order:normal;stroke-width:.30213"/>
 <circle cx="54.642" cy="97.29" r="4.9286" style="fill-rule:evenodd;fill:#56595b;paint-order:normal;stroke-linecap:round;stroke-linejoin:round;stroke-width:1.8977;stroke:#bd9aff"/>
 <circle cx="54.571" cy="97.268" r="1.6429" style="fill:none;paint-order:stroke fill markers;stroke-linecap:round;stroke-linejoin:round;stroke-width:1.2086;stroke:#bd9aff"/>
 <path d="m47.856 118.15s4.5397-1.1082 8.7143-1.1429c4.1745-0.0346 8.0714 0.85715 8.0714 0.85715" style="fill:none;stroke-linecap:round;stroke-linejoin:round;stroke-width:1.8977;stroke:#bd9aff"/>
 <path d="m54.142 73.147s2.2981-0.56372 4.2143-0.57142c2.5645-0.01043 3.6858 0.48371 6.5714 1.3572 1.9205 0.58128 2.1133 0.0046 2.2143-0.49999 0.10098-0.50509-0.85714-1.2857-0.85714-1.2857" style="fill:none;stroke-linecap:round;stroke-linejoin:round;stroke-width:1.8977;stroke:#bd9aff"/>
 <path d="m136.35 86.504s-5.2257 6.7588-6.8571 14.714c-0.86287 4.2076-1.1432 7.3303-0.85714 12.857 0.0789 1.5226 0.65809 2.654 2.1428 3 8.6174 2.0086 16.523-0.19341 19.143-8.8572 2.5346-8.3813-2.1608-13.148-4.5714-14.714-2.434-1.581-3.8442-2.2923-5.7142-4.5714-0.403-0.49115-0.65607-1.264-0.42858-1.8571 2.2391-5.8383 4.2429-11.127 7.1428-17 1.6025-3.2452 4.164-3.9839 6.5714-3.4286 1.3271 0.30613 3.3501 1.7956 1.7143 4.7143-3.8196 6.8145-9.8568 16.429-9.8568 16.429" style="fill:none;stroke-linecap:round;stroke-linejoin:round;stroke-width:1.8977;stroke:#fff"/>
 <rect transform="rotate(58.778)" x="136.87" y="-52.801" width="1.6799" height="27.438" ry="1.2156" style="fill-rule:evenodd;fill:#ff837d;paint-order:normal;stroke-width:.40705"/>
 <rect transform="rotate(148.78)" x="-39.881" y="-150.77" width="1.599" height="26.117" ry="1.1571" style="fill-rule:evenodd;fill:#ff837d;paint-order:normal;stroke-width:.38747"/>
 <circle transform="rotate(58.778)" cx="137.64" cy="-39.074" r="8.4471" style="fill-rule:evenodd;fill:#56595b;paint-order:normal;stroke-linecap:round;stroke-linejoin:round;stroke-width:1.8977;stroke:#ff837d"/>
 <circle transform="rotate(58.778)" cx="137.36" cy="-39.059" r="3.8395" style="fill-rule:evenodd;fill:#56595b;paint-order:normal;stroke-linecap:round;stroke-linejoin:round;stroke-width:1.8977;stroke:#ff837d"/>
 <path d="m81.213 96.861c0.01336 1.3687 0.92856 4 0.92856 4l2.5714 3.1428 3.7143 0.35714 5.8571-2.7857 9.5712-8.0714 5.6429-3.2857 12.428-2.9286 7.1428-0.28568-1.9286-15.428-41.008 4.1766s-5.0186 11.459-4.921 21.109z" style="fill:#56595b;stroke-width:.30213"/>
 <path d="m85.195 95.551s-0.42786 3.688 2.5254 3.5356c3.0023-0.15504 6.4383-5.1515 8.7884-8.5863 2.4714-3.6123 6.1619-5.2528 6.1619-5.2528" style="fill:none;stroke-linecap:round;stroke-linejoin:round;stroke-width:1.8977;stroke:#ff837d"/>
 <path d="m81.784 98.634s-0.23642 5.0598 5 5.4285c5.5212 0.38886 9.8568-4.9014 14-8.5715 4.3916-3.8902 7.286-5.0345 11.428-6.4285 6.313-2.1245 14.428-2.4286 14.428-2.4286" style="fill:none;stroke-linecap:round;stroke-linejoin:round;stroke-width:1.8977;stroke:#ff837d"/>
 <path d="m91.571 107.29s2.7138 5.1023 13.714 5.1428c8.6373 0.032 14.618-3.597 17.358-11.428 1.4951-4.2752-2.0715-13.428-2.0715-13.428" style="fill:none;stroke-linecap:round;stroke-linejoin:round;stroke-width:1.8977;stroke:#ff837d"/>
 <path d="m89.927 111.29s1.8032-0.36735 3.3572-0.35714c2.5858 0.017 4.7143 0.64285 4.7143 0.64285" style="fill:none;stroke-linecap:round;stroke-linejoin:round;stroke-width:1.8977;stroke:#ff837d"/>
 <path d="m122.12 102.38s0.55589-2.1261 2.3066-4.5158c0.9016-1.2307 2.0715-2.1428 2.0715-2.1428" style="fill:none;stroke-linecap:round;stroke-linejoin:round;stroke-width:1.8977;stroke:#ff837d"/>
 <path d="m94.856 114.72s5.0396 1.7048 10.642 2c4.7355 0.24946 9.4286-1.1428 9.4286-1.1428" style="fill:none;stroke-linecap:round;stroke-linejoin:round;stroke-width:1.8977;stroke:#ff837d"/>
 <path d="m102.95 95.661s-0.88402 0.60178-1.7214 1.3487c-0.46459 0.4144-1.2669 1.2478-1.2669 1.2478" style="fill:none;stroke-linecap:round;stroke-linejoin:round;stroke-width:1.2086;stroke:#56595b"/>
 <path d="m109 91.825c1.1819-0.44605 3.8628-1.5393 5.8215-2" style="fill:none;stroke-linecap:round;stroke-linejoin:round;stroke-width:1.2086;stroke:#56595b"/>
 <rect x="55.222" y="99.797" width="1.0489" height="4.2829" ry=".52444" style="fill-rule:evenodd;fill:#56595b;paint-order:normal;stroke-width:.36971"/>
</svg>
