<svg width="192" height="192" fill="none" version="1.1" viewBox="0 0 192 192" xmlns="http://www.w3.org/2000/svg">
 <path d="m91.97 9.9017c3.1099-1.7942 6.943-1.7835 10.043 0.02814l67.033 39.175c3.068 1.7932 4.954 5.0799 4.954 8.6337v77.524c0 3.553-1.886 6.84-4.954 8.633l-67.033 39.175c-3.0996 1.812-6.9327 1.823-10.043 0.028l-67.968-39.212c-3.0956-1.786-5.0028-5.088-5.0028-8.662v-77.448c0-3.5738 1.9072-6.8759 5.0028-8.6618z" clip-rule="evenodd" fill="#9abeff" fill-rule="evenodd" style="fill:#d3b69a"/>
 <path d="m172.9 53.213-75.896 43.787v87.438c1.7317-0.00554 3.4621-0.46139 5.0098-1.3652l0.0039-0.00196 67.033-39.176c3.068-1.793 4.9531-5.0798 4.9531-8.6328v-77.523c0-1.6034-0.40031-3.1434-1.1035-4.5254z" style="clip-rule:evenodd;fill-rule:evenodd;fill:#8e6f60"/>
 <path d="m96.996 8.5645c-1.7345-0.00486-3.4704 0.44079-5.0254 1.3379l-31.152 17.973-36.816 21.238c-0.003631 0.002095-0.006137 0.005713-0.009765 0.007813-1.5428 0.89263-2.7906 2.1604-3.6523 3.6523l76.66 44.227 75.896-43.787c-0.85536-1.6811-2.1658-3.1233-3.8496-4.1074l-67.033-39.176c-1.5498-0.9058-3.2831-1.3604-5.0176-1.3652z" style="clip-rule:evenodd;fill-rule:evenodd;fill:#98dc9a"/>
 <path d="m20.354 52.754c-0.8713 1.5003-1.3535 3.2264-1.3535 5.0215v6.1348c0 1.6544 1.3363 3.7753 3.0059 4.75l3.7383 2.1836c1.6596 0.9688 3.0059 3.0985 3.0059 4.7598v5.3125c0 1.6594 1.3363 3.7851 3.0059 4.7598l3.7383 2.1836c1.6596 0.9688 3.0059 0.4112 3.0059-1.25v-5.3145c0-1.6594 1.3363-2.2247 3.0059-1.25l3.7383 2.1836c1.6596 0.9688 3.0059 3.0986 3.0059 4.7461v13.574c0 1.652 1.3363 3.7711 3.0059 4.7461l3.7383 2.1836c1.6596 0.969 3.0059 0.40871 3.0059-1.2383v-13.574c0-1.6523 1.3363-2.213 3.0059-1.2383l3.7383 2.1836c1.6596 0.9688 3.0059 3.0946 3.0059 4.7559v3.7773c0 1.657 1.3363 3.7799 3.0059 4.7539l3.7383 2.1836c1.6596 0.969 3.0059 0.41591 3.0059-1.2461v-3.7774c0-1.657 1.3363-2.2201 3.0059-1.2461l3.7383 2.1836c1.6596 0.969 3.0059 3.101 3.0059 4.752v2.7539c0 1.656 1.3363 3.777 3.0059 4.752l3.7383 2.1836c1.4999 0.575 2.1425 0.57422 3.0059 0.57422v-24.012l-74.99-42.777c-0.61225-0.35741-1.181-0.50408-1.6562-0.46875z" style="clip-rule:evenodd;fill-rule:evenodd;fill:#98dc9a"/>
 <path d="m172.85 53.115c-0.27357 0.078186-0.55729 0.18609-0.85743 0.36133l-74.99 42.779v23.783s1.8866-6.5e-4 3.0059-0.34765l3.7383-2.1816c1.67-0.975 3.0059-3.0979 3.0059-4.7539v-2.752c0-1.651 1.3459-3.783 3.0059-4.752l3.7383-2.1836c1.67-0.975 3.0059-0.41091 3.0059 1.2461v13.777c0 1.661 1.3459 2.2151 3.0059 1.2461l3.7383-2.1836c1.67-0.975 3.0059-3.0969 3.0059-4.7539v-13.779c0-1.6612 1.3459-3.7851 3.0059-4.7539l3.7383-2.1836c1.67-0.9747 3.0059-0.41412 3.0059 1.2383v5.5742c0 1.6479 1.3459 2.2066 3.0059 1.2383l3.7383-2.1836c1.67-0.9747 3.0059-3.0938 3.0059-4.7461v-5.5762c0-1.6474 1.3459-3.7753 3.0059-4.7441l3.7383-2.1836c1.67-0.9747 3.0059-0.4094 3.0059 1.25v5.3125c0 1.6613 1.3459 2.2208 3.0059 1.252l3.7383-2.1836c1.67-0.9747 3.0059-3.1004 3.0059-4.7598v-5.3125c0-1.6613 1.3459-3.791 3.0059-4.7598l3.7383-2.1836c0.77698-0.45354 1.4746-1.1581 2.0059-1.9453v-9.2324c0-1.6411-0.41732-3.2167-1.1523-4.623z" style="clip-rule:evenodd;fill-rule:evenodd;fill:#71a372"/>
 <path d="m96.996 8.5645c-1.7345-0.00486-3.4704 0.44079-5.0254 1.3379l-67.969 39.211c-1.3546 0.78147-2.4635 1.8652-3.3027 3.123l76.301 44.02 75.889-43.059c-0.85562-1.6744-2.1632-3.1107-3.8418-4.0918l-67.033-39.176c-1.5498-0.9058-3.2831-1.3604-5.0176-1.3652z" style="clip-rule:evenodd;fill-opacity:.25;fill-rule:evenodd;fill:#fff"/>
</svg>
