<svg width="192" height="192" version="1.1" viewBox="0 0 192 192" xmlns="http://www.w3.org/2000/svg" xmlns:xlink="http://www.w3.org/1999/xlink">
 <defs>
  <linearGradient id="linearGradient858" x1="100" x2="100" y1="32" y2="164" gradientUnits="userSpaceOnUse">
   <stop style="stop-color:#ba6561" offset="0"/>
   <stop style="stop-color:#728dbe" offset="1"/>
  </linearGradient>
 </defs>
 <path d="m12 32c-2.4401 9.4837-2.7097 18.247-1.9629 25.779l10.439 5.4297-8.6055 0.89062 11.275 5.0449-8.3086 2.0762 7.7148 4.1543-7.084 3.9746c1.259 2.9671 2.2305 4.6504 2.2305 4.6504s-1.6992 8-1.6992 20c0 36 36 60 80 60s80-24 80-60c0-12-1.6992-20-1.6992-20s13.273-22.566 5.6992-52c-24.427 5.4343-42.604 21.416-42.604 21.416s-2.5465-1.4442-9.3848-2.8418c1.595-1.5811 4.7125-4.4148 9.6816-7.8418-9.6885 0.14674-17.508 2.375-17.508 2.375s1.7962-2.8475 8.0117-7.7168c-9.5123 1.233-14.838 2.6719-14.838 2.6719s0.55594-2.3499 2.498-5.25c-16.278 5.0583-29.122 10.576-35.949 13.719-19.169 1.3622-25.305 4.8848-25.305 4.8848s-18.177-15.982-42.604-21.416z" style="fill:url(#linearGradient858)"/>
 <path d="m95.652 56.939c-0.82781 0.02767-1.4766 0.721-1.4492 1.5488l0.14844 7.8652c0.03776 2 3.0378 1.9434 3-0.05664l-0.14844-7.8652c-4e-3 -0.84556-0.70569-1.5207-1.5508-1.4922zm7.7012 5.4922c-0.65663 0.03136-1.2164 0.48658-1.3809 1.123l-2.9688 10.83c-0.52922 1.93 2.3653 2.723 2.8945 0.79297l2.9668-10.83c0.28632-0.98806-0.48415-1.9646-1.5117-1.916zm-13.674 9.6465c-1.0708 0.05746-1.7373 1.1874-1.2695 2.1523l4.3027 9.1992c0.82634 1.869 3.6225 0.5604 2.7168-1.2715l-4.3027-9.1992c-0.25458-0.56401-0.82934-0.91384-1.4473-0.88086zm-33.68 7.9219c-13.064 0-21.908 5.3884-27.141 10.799s-7.1758 11.07-7.1758 11.07c-0.29902 0.87672-0.28453 1.83 0.04102 2.6973 0 0 2.0824 5.4954 7.4238 10.715 5.3414 5.2194 14.243 10.396 27.271 10.396 12.982 0 21.972-4.9047 27.471-9.8691 5.4984-4.9644 7.7852-10.232 7.7852-10.232 0.37262-0.86825 0.4259-1.8404 0.15039-2.7441 0 0-1.8347-5.9368-7.2227-11.592-5.388-5.655-14.629-11.24-28.604-11.24zm80 0c-13.974 0-23.216 5.5853-28.604 11.24-5.388 5.655-7.2226 11.592-7.2226 11.592-0.2755 0.90377-0.22223 1.8759 0.15039 2.7441 0 0 2.2867 5.268 7.7852 10.232 5.4984 4.9644 14.489 9.8691 27.471 9.8691 13.029 0 21.93-5.1771 27.271-10.396s7.4238-10.715 7.4238-10.715c0.32554-0.86722 0.34004-1.8206 0.041-2.6973 0 0-1.9431-5.6599-7.1758-11.07-5.2326-5.4105-14.076-10.799-27.141-10.799zm-64.547 48.176c-1.7493 0.0478-2.0146 2.5424-0.31445 2.957l12.463 3.2637c1.9498 0.5322 2.7203-2.4109 0.75977-2.9023l-12.463-3.2637c-0.14486-0.0404-0.29497-0.0589-0.44531-0.0547zm31.527 0.30274c-4.2087-0.0163-6.6189 0.0967-10.266 0.14843-0.95881 0.0133-1.6592 0.91036-1.4395 1.8438 0.82604 3.4963 2.7832 6.9702 4.9805 10.287-0.96985 1.5287-1.8863 3.1224-2.8945 4.5-3.513 4.8003-6.7734 8.334-6.7734 8.334-1.3568 1.47 0.84831 3.5052 2.2051 2.0352 0 0 3.3671-3.6495 6.9883-8.5976 0.80888-1.1053 1.5504-2.4231 2.3555-3.6328 0.78311 1.0619 1.5114 2.2494 2.291 3.2129 3.725 4.6036 7.1445 7.8926 7.1445 7.8926 1.4411 1.4776 3.611-0.77587 2.0801-2.1602 0 0-3.2924-3.1698-6.8926-7.6191-0.9881-1.2212-1.8976-2.6725-2.8613-4.043 2.0644-3.4412 3.8707-6.9889 4.5469-10.41 0.18275-0.92461-0.52236-1.7867-1.4648-1.791zm20.301 0.74023c-0.0352 7.1e-4 -0.0704 3e-3 -0.10547 6e-3l-12.463 1.0391c-1.9935 0.16537-1.7454 3.1556 0.24805 2.9902l12.465-1.0391c1.9518-0.13725 1.8115-3.0474-0.14453-2.9961zm-12.984 4.8984c-1.9264 0.0964-1.8873 2.9544 0.041 2.998l16.32 0.59375c2.0245 0.10084 2.1358-2.9511 0.10938-2.998l-16.32-0.59375c-0.0501-3e-3 -0.10029-3e-3 -0.15039 0zm-43.08 1.6289c-1.9251-0.0256-2.0718 2.8217-0.1543 2.9941l14.541 1.4844c2.0192 0.23982 2.3307-2.8112 0.30469-2.9844l-14.541-1.4844c-0.04994-6e-3 -0.10013-9e-3 -0.15039-0.01zm42.223 2.5176c-1.6586 0.0467-2.0253 2.3534-0.46289 2.9121l13.502 5.0449c1.8739 0.7009 2.9246-2.1096 1.0508-2.8105l-13.502-5.0449c-0.18719-0.0729-0.3871-0.10741-0.58789-0.10156zm-28.443 4.0098c-0.08466 3e-3 -0.16895 0.0124-0.25195 0.0293l-10.535 1.9277c-1.9674 0.36068-1.4264 3.3118 0.54102 2.9512l10.533-1.9297c1.8328-0.31285 1.5717-3.0215-0.28711-2.9785z" style="color-rendering:auto;color:#000000;dominant-baseline:auto;fill:#4a4a4a;font-feature-settings:normal;font-variant-alternates:normal;font-variant-caps:normal;font-variant-ligatures:normal;font-variant-numeric:normal;font-variant-position:normal;image-rendering:auto;isolation:auto;mix-blend-mode:normal;shape-padding:0;shape-rendering:auto;solid-color:#000000;text-decoration-color:#000000;text-decoration-line:none;text-decoration-style:solid;text-indent:0;text-orientation:mixed;text-transform:none;white-space:normal"/>
 <path d="m56.584 84.088c-0.03321-1e-3 -0.06646-3.52e-4 -0.09961 2e-3 -0.47322 0.03173-0.85908 0.39148-0.92383 0.86133l-1.0137 7.3301-1.8965-2.7266c-0.62285-0.88979-2.0181-0.28838-1.7988 0.77539l0.74414 3.5352-6.334-4.3555c-0.92697-0.63362-2.0337 0.50614-1.373 1.4141l3.7344 5.1055-2.6777-0.39062c-1.0185-0.14899-1.5707 1.1523-0.75586 1.7812l2.834 2.1914-7.123 1.2793c-1.098 0.197-1.098 1.7718 0 1.9688l7.123 1.2793-2.834 2.1914c-0.8148 0.62894-0.2626 1.9302 0.75586 1.7812l2.6777-0.39063-3.7344 5.1055c-0.66062 0.90792 0.44608 2.0477 1.373 1.4141l6.334-4.3555-0.74414 3.5352c-0.21924 1.0638 1.176 1.6652 1.7988 0.77539l1.8965-2.7266 1.0137 7.3301c0.16226 1.1466 1.8182 1.1466 1.9805 0l1.0137-7.3301 1.8965 2.7266c0.62285 0.88979 2.0181 0.28838 1.7988-0.77539l-0.74414-3.5352 6.334 4.3555c0.92697 0.63362 2.0337-0.50614 1.373-1.4141l-3.7344-5.1055 2.6797 0.39063c1.0185 0.14899 1.5707-1.1523 0.75586-1.7812l-2.8359-2.1914 7.123-1.2793c1.098-0.197 1.098-1.7718 0-1.9688l-7.123-1.2793 2.8359-2.1914c0.8148-0.62894 0.2626-1.9302-0.75586-1.7812l-2.6797 0.39062 3.7344-5.1055c0.66062-0.90792-0.44608-2.0477-1.373-1.4141l-6.334 4.3554 0.74414-3.5352c0.21923-1.0638-1.176-1.6652-1.7988-0.77539l-1.8965 2.7266-1.0137-7.3301c-0.06633-0.48236-0.47041-0.84685-0.95703-0.86328z" style="color-rendering:auto;color:#000000;dominant-baseline:auto;fill:#e0f4e0;font-feature-settings:normal;font-variant-alternates:normal;font-variant-caps:normal;font-variant-ligatures:normal;font-variant-numeric:normal;font-variant-position:normal;image-rendering:auto;isolation:auto;mix-blend-mode:normal;shape-padding:0;shape-rendering:auto;solid-color:#000000;text-decoration-color:#000000;text-decoration-line:none;text-decoration-style:solid;text-indent:0;text-orientation:mixed;text-transform:none;white-space:normal"/>
 <path d="m134.44 84.088c0.0332-1e-3 0.0665-3.52e-4 0.0996 2e-3 0.47322 0.03173 0.85908 0.39148 0.92383 0.86133l1.0137 7.3301 1.8965-2.7266c0.62285-0.88979 2.0181-0.28838 1.7988 0.77539l-0.74414 3.5352 6.334-4.3555c0.92697-0.63362 2.0337 0.50614 1.373 1.4141l-3.7344 5.1055 2.6777-0.39062c1.0185-0.14899 1.5707 1.1523 0.75586 1.7812l-2.834 2.1914 7.123 1.2793c1.098 0.197 1.098 1.7718 0 1.9688l-7.123 1.2793 2.834 2.1914c0.8148 0.62894 0.2626 1.9302-0.75586 1.7812l-2.6777-0.39063 3.7344 5.1055c0.66062 0.90792-0.44608 2.0477-1.373 1.4141l-6.334-4.3555 0.74414 3.5352c0.21924 1.0638-1.176 1.6652-1.7988 0.77539l-1.8965-2.7266-1.0137 7.3301c-0.16226 1.1466-1.8182 1.1466-1.9805 0l-1.0137-7.3301-1.8965 2.7266c-0.62285 0.88979-2.0181 0.28838-1.7988-0.77539l0.74414-3.5352-6.334 4.3555c-0.92697 0.63362-2.0337-0.50614-1.373-1.4141l3.7344-5.1055-2.6797 0.39063c-1.0185 0.14899-1.5707-1.1523-0.75586-1.7812l2.8359-2.1914-7.123-1.2793c-1.098-0.197-1.098-1.7718 0-1.9688l7.123-1.2793-2.8359-2.1914c-0.8148-0.62894-0.2626-1.9302 0.75586-1.7812l2.6797 0.39062-3.7344-5.1055c-0.66062-0.90792 0.44608-2.0477 1.373-1.4141l6.334 4.3554-0.74414-3.5352c-0.21923-1.0638 1.176-1.6652 1.7988-0.77539l1.8965 2.7266 1.0137-7.3301c0.0663-0.48236 0.4704-0.84685 0.95703-0.86328z" style="color-rendering:auto;color:#000000;dominant-baseline:auto;fill:#e0f4e0;font-feature-settings:normal;font-variant-alternates:normal;font-variant-caps:normal;font-variant-ligatures:normal;font-variant-numeric:normal;font-variant-position:normal;image-rendering:auto;isolation:auto;mix-blend-mode:normal;shape-padding:0;shape-rendering:auto;solid-color:#000000;text-decoration-color:#000000;text-decoration-line:none;text-decoration-style:solid;text-indent:0;text-orientation:mixed;text-transform:none;white-space:normal"/>
</svg>
