<svg width="192" height="192" version="1.1" viewBox="0 0 192 192" xmlns="http://www.w3.org/2000/svg">
 <rect transform="matrix(1 0 0 -1 20 172)" width="152" height="152" rx="10" fill="#4A4A4A" style="fill:#56595b"/>
 <path d="m98.608 88.688c8.8464-1.2653 15.646-8.8729 15.646-18.069 0-5.8812-2.782-11.113-7.101-14.451 8.822 4.1806 14.924 13.167 14.924 23.578 0 0.6509-0.024 1.2963-0.071 1.9353 0.577 0.2789 1.147 0.5809 1.711 0.9064 9.017 5.2055 13.748 14.982 12.958 24.712-0.732-5.409-3.872-10.434-8.965-13.374-7.964-4.5979-17.952-2.5128-23.471 4.5154l-1.76-1.0161c0.026-0.2395 0.04-0.4829 0.04-0.7295 0-2.6733-1.609-4.9707-3.9114-5.9767v-2.0312zm-5.2153 2.0312v-2.0312c-8.846-1.2653-15.646-8.8729-15.646-18.069 0-5.8812 2.7813-11.113 7.1003-14.451-8.822 4.1806-14.923 13.167-14.923 23.578 0 0.6509 0.0239 1.2963 0.0707 1.9353-0.5768 0.2789-1.1476 0.5809-1.7113 0.9064-9.0164 5.2055-13.748 14.982-12.957 24.712 0.7316-5.409 3.8716-10.434 8.9648-13.374 7.9638-4.5979 17.952-2.5128 23.471 4.5154l1.76-1.0161c-0.0266-0.2395-0.0403-0.4829-0.0403-0.7295 0-2.6733 1.609-4.9707 3.9115-5.9767zm-1.2634 11.223-1.7601 1.016c3.3271 8.293 0.1388 17.986-7.8251 22.584-5.0932 2.941-11.014 3.148-16.065 1.076 8.0315 5.55 18.864 6.341 27.881 1.136 0.5637-0.326 1.1107-0.669 1.6406-1.029 0.53 0.36 1.0769 0.703 1.6407 1.029 9.0164 5.205 19.849 4.414 27.88-1.136-5.05 2.072-10.972 1.865-16.065-1.076-7.964-4.598-11.152-14.291-7.825-22.584l-1.7601-1.016c-1.0825 0.8-2.4215 1.273-3.871 1.273-1.4494 0-2.7884-0.473-3.871-1.273zm18.314-22.12c-3.688-3.359-8.891-5.2912-14.443-5.2912-5.5032 0-10.665 1.8984-14.348 5.2057l3.4845 3.8804c2.7068-2.4306 6.6229-3.8708 10.864-3.8708 4.2771 0 8.2231 1.4652 10.931 3.9314l3.512-3.8555zm4.752 27.956c-2.775 4.808-7.05 8.348-11.803 9.862l-1.583-4.969c3.489-1.112 6.731-3.796 8.87-7.501 2.12-3.672 2.831-7.7838 2.079-11.343l5.103-1.0775c1.023 4.8433 0.086 10.263-2.666 15.029zm-41.03-15.153c-1.0652 4.8729-0.1368 10.345 2.6391 15.153 2.7516 4.766 6.9766 8.287 11.682 9.823l1.6183-4.958c-3.4584-1.128-6.6637-3.8-8.7841-7.473-2.1387-3.704-2.8428-7.8538-2.0607-11.431l-5.095-1.1138z" clip-rule="evenodd" fill="#fff" fill-rule="evenodd"/>
</svg>
