<svg width="192" height="192" version="1.1" viewBox="0 0 192 192" xmlns="http://www.w3.org/2000/svg">
 <style type="text/css">.st0{fill:#FFFFFF;}</style>
 <path d="m110.58 46.984s20.986 15.039 31.526 24.407c1.8991 1.688 2.4407 4.2712 2.4407 4.2712l4.8812 21.559s10.202 8.9424 17.668 14.394c2.8069 2.0496 7.3876 4.5524 3.661 9.7628-4.1156 5.754-8.2004 1.4363-11.186-0.81356-6.9928-5.2688-11.141-9.212-17.668-14.191-2.9475-2.2482-3.0508-5.0848-3.0508-5.0848l-3.4576-16.678-22.983 26.441s12.994 18.69 19.729 27.864c2.445 3.3305 3.9143 7.7436 0.2034 11.797-7.3812 8.0616-23.186 23.186-23.186 23.186l0.2034-21.152 7.7288-7.932-7.322-9.7628z" style="fill:#9abeff;stroke-width:4"/>
 <rect x="108" y="8" width="4" height="176" ry="2" style="fill:#9abeff;paint-order:stroke fill markers;stroke-width:4"/>
 <circle cx="142.2" cy="45.456" r="17.797" style="fill:#9abeff;paint-order:stroke fill markers;stroke-width:4"/>
 <path d="m20 124v20h72v-24h-32c12-12 32-20 32-36 0-16.056-4-32-36-32-36 0-36 32-36 32h24s0-12 12-12 12 6.3432 12 12c0 8-48 32-48 40z" style="fill:#ececec;stroke-width:4"/>
</svg>
