<svg enable-background="new 0 0 192 192" version="1.1" viewBox="0 0 192 192" xml:space="preserve" xmlns="http://www.w3.org/2000/svg"><style type="text/css">
	.st0{fill:#CD201F;}
	.st1{fill:#FFFFFF;}
</style><path d="m116.27 10.469-0.0703 0.032 32.789 79.961 19.734-43.852a88 88 0 0 0-52.453-36.141zm53.859 38.766-31.859 80.344 44.219-17.727a88 88 0 0 0 1.5078-15.852 88 88 0 0 0-13.414-46.602zm11.594 66.281-78.891 34.391 43.242 18.328a88 88 0 0 0 35.648-52.719zm-118.02 24.008 17.234 43.086a88 88 0 0 0 15.062 1.3906 88 88 0 0 0 46.305-13.242z" style="fill:#9abeff;stroke-width:4"/><path d="m96 8c-20.501 0.012-40.355 7.1834-56.133 20.273h80.148l-7.3516-18.609c-5.4892-1.0832-11.069-1.6404-16.664-1.6641zm-57.977 21.898c-8.8631 7.7749-16.074 17.252-21.203 27.867h51.203c8.2239-6.0607 18.167-9.3395 28.383-9.3594 10.216 0.02 20.159 3.2987 28.383 9.3594h6.875l-11.008-27.867zm-21.93 29.492c-4.6279 10.053-7.3182 20.888-7.9297 31.937h40.531c1.3379-12.487 7.5167-23.953 17.211-31.937zm110.84 0c3.7237 3.0695 6.9633 6.6831 9.6094 10.719l-4.2344-10.719zm-118.84 38.266c0.21894 11.699 2.7687 23.236 7.5 33.938h48.266c-9.4941-8.7769-15.046-21.013-15.398-33.938zm14.227 46.305c12.582 19.295 32.227 32.887 54.719 37.859l-14.961-37.859z" style="fill:#f8c18c;stroke-width:4"/></svg>
