<svg version="1.1" viewBox="0 0 192 192" xmlns="http://www.w3.org/2000/svg">
 <title>Progressbar95</title>
 <rect x="84.1" y="124.9" width="20.4" height="23.8" rx="4" fill="#f9de81"/>
 <rect x="67.1" y="124.9" width="20.4" height="23.8" rx="4" fill="#9abeff"/>
 <rect x="50.1" y="124.9" width="20.4" height="23.8" rx="4" fill="#f9de81"/>
 <rect x="33.1" y="124.9" width="20.4" height="23.8" rx="4" fill="#9abeff"/>
 <rect x="36.5" y="80.7" width="17" height="17" rx="4" fill="#728dbe"/>
 <rect x="36.5" y="46.7" width="17" height="17" rx="4" fill="#96dfd3"/>
 <rect x="70.5" y="63.7" width="17" height="17" rx="4" fill="#f8c18c"/>
 <rect x="70.5" y="29.7" width="17" height="17" rx="4" fill="#ff837d"/>
 <rect x="138.5" y="29.7" width="17" height="17" rx="4" fill="#f8c18c"/>
 <rect x="104.5" y="80.7" width="17" height="17" rx="4" fill="#96dfd3"/>
 <rect x="104.5" y="46.7" width="17" height="17" rx="4" fill="#728dbe"/>
 <rect x="138.5" y="63.7" width="17" height="17" rx="4" fill="#ff837d"/>
 <path d="m23.5 111.3a4 4 0 0 0-4 4v43a4 4 0 0 0 4 4h145a4 4 0 0 0 4-4v-43a4 4 0 0 0-4-4zm128 34h-111a4 4 0 0 1-4-4v-9a4 4 0 0 1 4-4h111a4 4 0 0 1 4 4v9a4 4 0 0 1-4 4z" fill="#56595b"/>
</svg>
