<svg width="192" height="192" version="1.1" viewBox="0 0 192 192" xmlns="http://www.w3.org/2000/svg">
 <rect x="20" y="20" width="152" height="152" rx="9.9346" opacity=".63" style="fill:#9abeff;opacity:1"/>
 <circle cx="108" cy="76" r="4" style="fill:#fff;paint-order:stroke fill markers"/>
 <circle cx="108" cy="64" r="4" style="fill:#fff;paint-order:stroke fill markers"/>
 <circle cx="108" cy="52" r="4" style="fill:#fff;paint-order:stroke fill markers"/>
 <circle cx="120" cy="64" r="4" style="fill:#fff;paint-order:stroke fill markers"/>
 <circle cx="120" cy="76" r="4" style="fill:#fff;paint-order:stroke fill markers"/>
 <circle cx="132" cy="76" r="4" style="fill:#fff;paint-order:stroke fill markers"/>
 <circle cx="132" cy="88" r="4" style="fill:#fff;paint-order:stroke fill markers"/>
 <circle cx="108" cy="88" r="4" style="fill:#fff;paint-order:stroke fill markers"/>
 <circle cx="108" cy="100" r="4" style="fill:#fff;paint-order:stroke fill markers"/>
 <circle cx="108" cy="112" r="4" style="fill:#fff;paint-order:stroke fill markers"/>
 <circle cx="108" cy="124" r="4" style="fill:#fff;paint-order:stroke fill markers"/>
 <circle cx="96" cy="112" r="4" style="fill:#fff;paint-order:stroke fill markers"/>
 <circle cx="96" cy="124" r="4" style="fill:#fff;paint-order:stroke fill markers"/>
 <circle cx="96" cy="136" r="4" style="fill:#fff;paint-order:stroke fill markers"/>
 <circle cx="84" cy="112" r="4" style="fill:#fff;paint-order:stroke fill markers"/>
 <circle cx="72" cy="124" r="4" style="fill:#fff;paint-order:stroke fill markers"/>
 <circle cx="72" cy="136" r="4" style="fill:#fff;paint-order:stroke fill markers"/>
 <circle cx="84" cy="136" r="4" style="fill:#fff;paint-order:stroke fill markers"/>
 <circle cx="84" cy="124" r="4" style="fill:#fff;paint-order:stroke fill markers"/>
 <circle cx="72" cy="112" r="4" style="fill:#fff;paint-order:stroke fill markers"/>
 <circle cx="60" cy="124" r="4" style="fill:#fff;paint-order:stroke fill markers"/>
</svg>
