<svg width="192" height="192" version="1.1" viewBox="0 0 192 192" xmlns="http://www.w3.org/2000/svg" xmlns:xlink="http://www.w3.org/1999/xlink">
 <defs>
  <linearGradient id="linearGradient898" x1="44" x2="156" y1="40" y2="156" gradientUnits="userSpaceOnUse">
   <stop style="stop-color:#56595b" offset="0"/>
   <stop style="stop-color:#728dbe" offset="1"/>
  </linearGradient>
  <linearGradient id="linearGradient898-5" x1="92" x2="168" y1="96" y2="172" gradientTransform="translate(-192,3e-6)" gradientUnits="userSpaceOnUse">
   <stop style="stop-color:#ff837d;stop-opacity:.015385" offset="0"/>
   <stop style="stop-color:#ff837d" offset="1"/>
  </linearGradient>
 </defs>
 <rect x="20" y="20" width="152" height="152" rx="9.9346" opacity=".63" style="fill:url(#linearGradient898);opacity:1"/>
 <rect transform="scale(-1,1)" x="-172" y="20" width="152" height="152" rx="9.9346" style="fill:url(#linearGradient898-5)"/>
 <path d="m84 76c-4.432 0-8 3.568-8 8v24c0 4.432 3.568 8 8 8h24c4.432 0 8-3.568 8-8v-24c0-4.432-3.568-8-8-8h-24zm4 8h16c2.216 0 4 1.784 4 4v16c0 2.216-1.784 4-4 4h-16c-2.216 0-4-1.784-4-4v-16c0-2.216 1.784-4 4-4z" style="fill:#9abeff;paint-order:stroke fill markers"/>
 <rect x="44" y="84" width="24" height="24" ry="4" style="fill:#fff;paint-order:stroke fill markers"/>
 <rect x="124" y="84" width="24" height="24" ry="4" style="fill:#fff;paint-order:stroke fill markers"/>
</svg>
