<svg width="192" height="192" version="1.1" viewBox="0 0 192 192" xmlns="http://www.w3.org/2000/svg">
 <path d="m60 20c-20.975 0-35.726 12.256-42.67 25.941-3.4721 6.8429-5.236 14.053-5.3086 20.854-0.07262 6.8008 1.407 13.469 6.0586 18.586 39.318 43.25 71.107 94.813 71.107 94.813 3.1247 5.0737 10.5 5.0737 13.625 0 0 0 31.789-51.562 71.107-94.813 4.6516-5.1166 6.1312-11.785 6.0586-18.586-0.0726-6.8008-1.8365-14.011-5.3086-20.854-6.9443-13.686-21.695-25.941-42.67-25.941-17.569 0-29.205 11.052-36 20.348-6.7953-9.2953-18.431-20.348-36-20.348z" style="color-rendering:auto;color:#000000;dominant-baseline:auto;fill:#ff837d;font-feature-settings:normal;font-variant-alternates:normal;font-variant-caps:normal;font-variant-ligatures:normal;font-variant-numeric:normal;font-variant-position:normal;image-rendering:auto;isolation:auto;mix-blend-mode:normal;shape-padding:0;shape-rendering:auto;solid-color:#000000;text-decoration-color:#000000;text-decoration-line:none;text-decoration-style:solid;text-indent:0;text-orientation:mixed;text-transform:none;white-space:normal"/>
 <path d="m96 60c-19.882 0-36 14.327-36 32 0.01645 6.684 2.3871 13.196 6.7793 18.621l-2.1074 3.1602c-1.3346 2.0019-0.61283 4.7206 1.5391 5.7969l6.8086 3.4024 3.4023 6.8086c0.19254 0.3844 0.44579 0.73526 0.75 1.0391 0 0 1.8295 1.6818 4.8418 2.8867s7.5419 2.2852 13.986 2.2852c6.4444 0 10.974-1.0802 13.986-2.2852 3.0123-1.2049 4.8418-2.8867 4.8418-2.8867 0.30421-0.3038 0.55746-0.65466 0.75-1.0391l3.4024-6.8086 6.8086-3.4024c2.1519-1.0763 2.8737-3.7949 1.5391-5.7969l-2.0976-3.1484c4.3913-5.4296 6.7587-11.946 6.7695-18.633 0-17.673-16.118-32-36-32z" style="fill:#fff;paint-order:normal"/>
 <rect x="32" y="92" width="16" height="44" ry="8" style="fill:#ff837d;paint-order:normal"/>
 <rect x="136" y="104" width="16" height="48" ry="8" style="fill:#ff837d;paint-order:normal"/>
 <rect x="84" y="118.7" width="2" height="12" ry="1" style="fill:#a0a5af;paint-order:normal;stroke-width:.35355"/>
 <ellipse cx="110" cy="100" rx="10" ry="12" style="fill:#56595b;paint-order:normal"/>
 <ellipse cx="82" cy="100" rx="10" ry="12" style="fill:#56595b;paint-order:normal"/>
 <path d="m72 88 20 12h8l20-12-24-4z" style="fill:#fff"/>
 <path d="m73 122.7c-0.13637 0-0.26652 0.02912-0.38477 0.07812l0.4043 0.20313 0.85938 1.7188h44.242l0.85938-1.7188 0.4043-0.20313c-0.11825-0.049-0.2484-0.07812-0.38477-0.07812h-46z" style="fill:#a0a5af;paint-order:normal;stroke-width:.70711"/>
 <rect x="106" y="118.7" width="2" height="12" ry="1" style="fill:#a0a5af;paint-order:normal;stroke-width:.35355"/>
 <rect x="95" y="118.7" width="2" height="12" ry="1" style="fill:#a0a5af;paint-order:normal;stroke-width:.35355"/>
 <path d="m98.217 39.365-4.7109 0.050782c-0.63701 0.00689-1.1436 0.52706-1.1367 1.1641l0.017578 1.5938c0.006891 0.63701 0.5251 1.1456 1.1621 1.1387l1.291-0.013672 0.11914 5.1758-3.9199-2.4375a1.0001 1.0001 0 0 0-1.4414 0.44141l-1.6797 3.7539-2.3965-4.582 1.4102-0.62695c0.58195-0.25915 0.84118-0.93758 0.58203-1.5195l-0.64844-1.457c-0.25915-0.58195-0.93563-0.84118-1.5176-0.58203l-4.3047 1.916c-0.58195 0.25915-0.84118 0.93758-0.58203 1.5195l0.64844 1.457c0.25915 0.58195 0.93563 0.84118 1.5176 0.58203l1.0645-0.47461 2.1504 4.1133-3.7109-1.502a1.0001 1.0001 0 1 0-0.75 1.8535l4.8301 1.9551-2.6582 1.3301a1.0001 1.0001 0 1 0 0.89453 1.7891l7.7891-3.8945h7.5273l7.7891 3.8945a1.0001 1.0001 0 1 0 0.89454-1.7891l-2.1777-1.0898 4.3203-1.5898a1.0001 1.0001 0 1 0-0.6914-1.877l-3.8711 1.4258 2.2598-4.3242 1.0644 0.47461c0.58196 0.25915 1.2604-7.8e-5 1.5195-0.58203l0.64844-1.457c0.25915-0.58195-8e-5 -1.2604-0.58203-1.5195l-4.3047-1.916c-0.58195-0.25915-1.2584 0.002031-1.5176 0.58398l-0.64843 1.457c-0.25915 0.58195 8e-5 1.2584 0.58203 1.5176l1.4062 0.62695-2.0781 3.9766-1.6914-3.4727a1.0001 1.0001 0 0 0-0.88086-0.5625 1.0001 1.0001 0 0 0-0.52539 0.13867l-4.3164 2.5469-0.12305-5.2969 1.4199-0.015625c0.63701-0.006891 1.1436-0.5251 1.1367-1.1621l-0.017578-1.5938c-0.006891-0.63701-0.5251-1.1456-1.1621-1.1387zm3.1465 8.9336 1.5293 3.1387-2.4453-1.2227a1.0001 1.0001 0 0 0-0.44727-0.10547h-1.707l3.0703-1.8105zm-10.408 0.042969 2.8457 1.7676h-1.8008a1.0001 1.0001 0 0 0-0.44727 0.10547l-1.8496 0.92383 1.252-2.7969z" style="color-rendering:auto;color:#000000;dominant-baseline:auto;fill:#f9de81;font-feature-settings:normal;font-variant-alternates:normal;font-variant-caps:normal;font-variant-ligatures:normal;font-variant-numeric:normal;font-variant-position:normal;image-rendering:auto;isolation:auto;mix-blend-mode:normal;shape-padding:0;shape-rendering:auto;solid-color:#000000;text-decoration-color:#000000;text-decoration-line:none;text-decoration-style:solid;text-indent:0;text-orientation:mixed;text-transform:none;white-space:normal"/>
 <path d="m69.608 100 10.392 8" style="fill:none;stroke-linecap:round;stroke-linejoin:round;stroke-width:4;stroke:#56595b"/>
 <path d="m122.39 100-10.392 8" style="fill:none;stroke-linecap:round;stroke-linejoin:round;stroke-width:4;stroke:#56595b"/>
</svg>
