<svg width="192" height="192" version="1.1" viewBox="0 0 192 192" xmlns="http://www.w3.org/2000/svg">
 <path d="m107.66 7.873c-2.4789 0.12982-4.2424 2.4624-3.6914 4.8828 0 0 3.095 14.253 3.1641 20.227 0.0634 5.4816-1.2112 13.769-2.3398 20.336-1.0847-3.3788-2.32-8.1484-2.9434-13.92-0.41097-3.8102-5.4272-4.9177-7.4043-1.6348-3.5311 5.861-5.414 11.787-6.5801 16.424-1.9323-1.7479-4.0814-3.9259-4.166-4.0703-1.7101-2.9169-6.0433-2.5282-7.207 0.64648-2.3886 6.5307-1.8961 14.021-1.0645 20.061 0.28045 2.0367 0.62147 3.5403 0.94922 5.1387-1.201-0.17134-2.6284-0.33714-3.041-0.48828-1.7061-0.62493-5.1216-2.7353-7.7812-4.6445-2.6596-1.9092-4.7031-3.5918-4.7031-3.5918-3.0476-2.5044-7.4969 0.44687-6.375 4.2285 0 0 0.97401 3.2859 1.9688 7.4238 0.99474 4.1379 1.9646 9.2279 2.0195 11.992 0.14947 7.5257-2.9975 17.187-3.6543 19.127-1.8666 2.7294-3.4366 5.222-4.6016 7.4043-1.2234 2.2917-2.2051 3.9193-2.2051 6.5859s0.98167 4.2942 2.2051 6.5859 2.8828 4.9167 4.875 7.8086c3.9844 5.7839 9.2959 12.605 14.867 19.189 5.5713 6.5842 11.383 12.911 16.424 17.693 2.5205 2.3912 4.8375 4.3948 6.9453 5.9004 2.1078 1.5056 3.6836 2.8223 6.6836 2.8223s4.5758-1.3167 6.6836-2.8223c2.1078-1.5055 4.4248-3.5091 6.9453-5.9004 5.041-4.7825 10.853-11.109 16.424-17.693 5.5713-6.5842 10.883-13.406 14.867-19.189 1.9922-2.8919 3.6516-5.5168 4.875-7.8086s2.2051-3.9193 2.2051-6.5859-0.98167-4.2942-2.2051-6.5859-2.8828-4.9167-4.875-7.8086c-0.33639-0.48831-0.73323-1.0211-1.0879-1.5234-0.92228-2.461-2.2924-7.1418-2.293-13.422-3e-5 -0.37177 0.68371-2.8356 1.5547-4.707s1.7422-3.3379 1.7422-3.3379c1.8575-3.1294-1.0893-6.9123-4.5781-5.877 0.0964-2.0655 0.24877-4.2023 0.07813-6.0352-0.62105-6.672-4.0215-17.137-4.0215-17.137-1.2254-3.9423-6.8939-3.6704-7.7363 0.37109 0 0-0.31575 1.5071-0.87304 3.2949-0.5573 1.7878-1.6012 3.8803-1.7871 4.0938-8e-3 0.0093-0.23011 0.1353-0.25586 0.15625 0.16872-1.6266 0.22791-1.6234 0.37891-3.6387 0.46135-6.1573 0.77861-13.408-0.30274-18.986-1.2679-6.5406-4.8633-14.494-8.1367-21.139s-6.2715-11.848-6.2715-11.848c-0.75128-1.3041-2.1709-2.0761-3.6738-1.998zm-44.02 17.277c-0.94395 0.02786-1.8262 0.47545-2.4062 1.2207 0 0-6.7602 8.36-7.9297 18.256-0.50702 4.2907 0.2647 8.0649 2.1992 10.859s5.3377 4.485 8.7539 3.9141c0.32045-0.05378 0.63072-0.15654 0.91992-0.30469 2.072-0.70649 3.4454-2.3625 4.291-3.9707 0.97036-1.8454 1.5228-3.8643 1.9238-5.8008 0.80201-3.8731 0.91211-7.5098 0.91211-7.5098 0.08544-2.5281-2.6808-4.1315-4.832-2.8008 0 0-1.206 0.74512-2.623 1.457-0.08106 0.04072-0.15243 0.06338-0.23438 0.10352-0.0393-5.1175 2.0371-11.023 2.0371-11.023 0.89956-2.126-0.70424-4.4693-3.0117-4.4004zm-15.682 54.533c-0.18521-0.006421-0.37513-0.003625-0.56836 0.007812-3.4096 0.20178-5.4366 2.7898-6.4238 4.9316-0.98725 2.1419-1.3739 4.3184-1.1836 6.5273 0.17736 2.0591 0.86042 3.9527 2.0996 5.7637 1.2025 1.7573 3.4944 3.8506 6.6484 3.5156a4.0004 4.0004 0 0 0 0.28906-0.0293c1.7404-0.26404 3.2466-1.3047 4.1582-2.4199 0.9116-1.1152 1.391-2.2849 1.7168-3.4121 0.65168-2.2544 0.69923-4.4161 0.46094-6.332-0.19558-1.5722-0.6469-3.2078-1.627-4.8711-0.9188-1.5593-2.7922-3.5853-5.5703-3.6816z" style="color-rendering:auto;color:#000000;dominant-baseline:auto;fill:#73ada4;font-feature-settings:normal;font-variant-alternates:normal;font-variant-caps:normal;font-variant-ligatures:normal;font-variant-numeric:normal;font-variant-position:normal;image-rendering:auto;isolation:auto;mix-blend-mode:normal;paint-order:normal;shape-padding:0;shape-rendering:auto;solid-color:#000000;text-decoration-color:#000000;text-decoration-line:none;text-decoration-style:solid;text-indent:0;text-orientation:mixed;text-transform:none;white-space:normal"/>
 <path d="m117.36 35.023c-2.3397 20.097-9.793 28.785-9.793 28.785s-3.6157-1.6006-6.8242-6.2324c-2.744 8.0008-3.3008 13.926-3.3008 13.926s-5.1108-0.19693-8.8066-7.6445c-3.6813 10.067-4.2148 16.865-4.2148 16.865s-3.3646-3.9874-3.2637-8.0137c-4.1796 6.2089-5.6387 13.355-5.6387 13.355l-10.684-7.4199s2.6232 8.6144 2.6719 13.057c0.045599 4.1603-1.8227 11.453-2.752 14.816-1.0669 1.5269-2.0821 3.0234-2.9961 4.4492-1.6215 2.5296-2.9739 4.8561-3.9746 6.9453s-1.7832 3.7546-1.7832 6.0879 0.78248 3.9986 1.7832 6.0879 2.3531 4.4158 3.9746 6.9453c3.243 5.0591 7.5629 10.898 12.146 16.5 4.5836 5.6022 9.4102 10.948 13.732 15.008 2.1611 2.0301 4.1852 3.7393 6.1074 5.0391s3.5892 2.4199 6.2559 2.4199c2.6667 0 4.3336-1.1201 6.2559-2.4199s3.9463-3.0089 6.1074-5.0391c4.3222-4.0603 9.1488-9.4056 13.732-15.008 4.5836-5.6022 8.9035-11.441 12.146-16.5 1.6215-2.5296 2.9739-4.8561 3.9746-6.9453 1.0007-2.0892 1.7832-3.7546 1.7832-6.0879s-0.78248-3.9986-1.7832-6.0879c-1.0007-2.0892-2.3531-4.4158-3.9746-6.9453-2.0343-3.1735-4.5182-6.6611-7.1992-10.197-1.3859-2.7161-3.9396-8.2649-3.5938-11.738 0.3951-3.9679 1.2083-6.5486 5.1934-8.6055-3.4742-1.226-6.3809 0.29688-6.3809 0.29688s4.7812-6.9302 4.748-13.947c-3.9378 5.7142-10.385 10.684-10.385 10.684s5.7649-22.557-3.2656-42.436zm-55.789 2.0703c1e-6 0-5.3708 3.793-5.6387 12.465-0.0998 3.2281 3.0137 7.6833 6.2324 7.418 6.528-0.538 6.5293-12.762 6.5293-12.762s-2.5516 2.6446-5.3418 3.2656c-2.0113-4.1227-1.7812-10.387-1.7812-10.387zm-13.799 48.965a4.5997 5.49 0 0 0-4.5996 5.4902 4.5997 5.49 0 0 0 4.5996 5.4902 4.5997 5.49 0 0 0 4.5996-5.4902 4.5997 5.49 0 0 0-4.5996-5.4902z" style="color-rendering:auto;color:#000000;dominant-baseline:auto;fill:#96dfd3;font-feature-settings:normal;font-variant-alternates:normal;font-variant-caps:normal;font-variant-ligatures:normal;font-variant-numeric:normal;font-variant-position:normal;image-rendering:auto;isolation:auto;mix-blend-mode:normal;paint-order:normal;shape-padding:0;shape-rendering:auto;solid-color:#000000;text-decoration-color:#000000;text-decoration-line:none;text-decoration-style:solid;text-indent:0;text-orientation:mixed;text-transform:none;white-space:normal"/>
 <path d="m100 91.881c-1.6469 0-2.6762 0.69338-3.8633 1.4961-1.1871 0.80272-2.4368 1.8576-3.7715 3.1113-2.6693 2.5075-5.6498 5.8097-8.4805 9.2695-2.8307 3.4598-5.4991 7.065-7.502 10.189-1.0014 1.5622-1.8371 2.9988-2.4551 4.2891-0.61802 1.2903-1.1016 2.3188-1.1016 3.7598 0 1.441 0.48355 2.4695 1.1016 3.7598 0.61801 1.2903 1.4537 2.7268 2.4551 4.2891 2.0028 3.1244 4.6693 6.7297 7.5 10.189 2.8307 3.4598 5.8131 6.762 8.4824 9.2695 1.3347 1.2538 2.5843 2.3086 3.7715 3.1113s2.2164 1.4942 3.8633 1.4942c1.6469 0 2.6762-0.69143 3.8633-1.4942 1.1871-0.80271 2.4368-1.8576 3.7715-3.1113 2.6693-2.5075 5.6498-5.8098 8.4805-9.2695 2.8307-3.4598 5.4991-7.065 7.502-10.189 1.0014-1.5622 1.837-2.9988 2.4551-4.2891 0.61802-1.2903 1.1016-2.3188 1.1016-3.7598 0-1.441-0.48355-2.4695-1.1016-3.7598-0.61802-1.2903-1.4537-2.7268-2.4551-4.2891-2.0028-3.1244-4.6693-6.7297-7.5-10.189-2.8307-3.4598-5.8131-6.762-8.4824-9.2695-1.3347-1.2538-2.5843-2.3086-3.7715-3.1113s-2.2164-1.4961-3.8633-1.4961z" style="color-rendering:auto;color:#000000;dominant-baseline:auto;fill:#fff;font-feature-settings:normal;font-variant-alternates:normal;font-variant-caps:normal;font-variant-ligatures:normal;font-variant-numeric:normal;font-variant-position:normal;image-rendering:auto;isolation:auto;mix-blend-mode:normal;paint-order:normal;shape-padding:0;shape-rendering:auto;solid-color:#000000;text-decoration-color:#000000;text-decoration-line:none;text-decoration-style:solid;text-indent:0;text-orientation:mixed;text-transform:none;white-space:normal"/>
</svg>
