<svg width="192" height="192" fill="none" version="1.1" viewBox="0 0 192 192" xmlns="http://www.w3.org/2000/svg" xmlns:xlink="http://www.w3.org/1999/xlink">
 <defs>
  <linearGradient id="linearGradient905" x1="8.1254" x2="39.875" y1="-24" y2="-24" gradientTransform="scale(4)" gradientUnits="userSpaceOnUse">
   <stop style="stop-color:#f8c18c" offset="0"/>
   <stop style="stop-color:#8c72bd" offset="1"/>
  </linearGradient>
 </defs>
 <rect transform="rotate(90)" x="32.501" y="-184" width="127" height="176" rx="9.9998" style="fill:url(#linearGradient905);stroke-width:4"/>
 <path d="m157.02 37.992s-6.9557 4.7136-8.3437 10.07c-6.9349-6.3962-17.836-8.914-17.836-8.914s14.554 7.1192 13.664 16.539c-10.916-4.9567-16.66 2.7208-17.594 4.1016-1.2982-1.549-7.5941-8.1668-17.773-2.4219-1.7102-9.306 12.164-17.672 12.164-17.672s-10.636 3.467-16.984 10.445c-1.8513-5.2147-9.1875-9.3047-9.1875-9.3047s3.4468 4.1895 4.3906 10.594c-10.214-5.653-23.336 0.60156-23.336 0.60156s11.734 0.61232 18.555 4.1484c-18.46 5.9491-20.781 16.547-20.781 16.547s11.705-9.7832 24.016-9.3281c-9.9171 11.424-12.813 25.094-12.813 25.094s6.7462-9.9436 15.445-18.102c-2.5995 8.7056-2.7812 20.891-2.7812 20.891s4.4417-9.08 6.6094-20.078c2.5653 26.66 15.561 64.814 22.039 82.594l-3.5234 5.7031h17.203l-4.5234-6.0625c4.8855-18.212 14.549-57.518 14.773-84.375 3.1214 10.766 8.3438 19.414 8.3438 19.414s-1.2506-12.125-4.6016-20.57c9.3794 7.3658 16.969 16.688 16.969 16.688s-4.0826-13.362-14.961-23.875c12.223-1.5302 24.742 7.1875 24.742 7.1875s-3.239-10.352-22.148-14.664c6.4857-4.1192 18.117-5.7578 18.117-5.7578s-13.616-5.0873-23.297 1.4375c0.38008-6.4623 3.4531-10.93 3.4531-10.93zm-133.43 17.383s4.2792 9.1874 4.0234 12.937c-8.545-0.68948-15.242 4.0313-15.242 4.0313s9.3011-1.0616 12.945 0c-7.3353 2.0744-9.7812 6.9062-9.7812 6.9062s4.6548-2.8848 10.359-3.1641c-11.057 9.3818-12.375 15.82-12.375 15.82s5.0846-5.7979 12.945-11.797c-7.1722 13.13-6.8984 21.57-6.8984 21.57s5.3916-15.437 12.453-13.273c-0.36055 11.834 0.48438 52.391 0.48438 52.391l-2.4531 18.703h6.7109c-0.05588-2.1033-1.2577-47.382-1.6641-71.336 3.8634 2.795 8.9141 15.82 8.9141 15.82s1.1778-13.258-2.0156-17.547c4.6666-3.052 10.93 11.789 10.93 11.789s1.1038-13.79-6.6094-18.977c2.1494-1.8802 7.7656 0.2812 7.7656 0.2812s-5.0061-7.9245-10.93-6.8984c-0.54137-3.6309 7.1875-8.3438 7.1875-8.3438s-7.2747-0.2452-11.508 3.4531c-2.8603-6.4548-15.242-12.367-15.242-12.367zm111.53 3.0703c2.9324 0.1956 6.2938 1.2937 9.5312 4.289-8.1718-1.2885-14.062 2.9088-17.359 6.2734-3.6007-3.0378-9.757-6.5816-17.68-4.6094 6.9822-7.6985 15.155-5.0451 17.055-4.2969-0.012 0.02-0.14064 0.1876-0.14064 0.1876s0.25208-0.1124 0.28908-0.1328c0.16628 0.068 0.63282 0.2264 0.63282 0.2264s-0.26888-0.2924-0.32812-0.3672c0.88266-0.45704 3.8308-1.8486 8-1.5703zm6.2422 7.789c1.5447 0.04 2.8884 0.45032 3.8594 1.3906-0.73051 20.284-9.6966 55.076-14.727 73.227-6.6083-17.677-18.535-51.436-21.031-71.531 3.0924-3.57 11.242-1.0467 16.539 1.125-1.1326 1.3472-1.7734 2.3516-1.7734 2.3516s1.2432-0.78704 3.0781-1.7969c2.0723 0.90312 3.5234 1.6406 3.5234 1.6406s-0.80096-1.04-2.1562-2.3672c3.6408-1.8948 8.7706-4.1366 12.688-4.0391z" style="fill:#000;opacity:.25;stroke-width:4"/>
 <path d="m157.02 37.992s-6.9557 4.7136-8.3437 10.07c-6.9349-6.3962-17.836-8.914-17.836-8.914s14.554 7.1192 13.664 16.539c-10.916-4.9567-16.66 2.7208-17.594 4.1016-1.2982-1.549-7.5941-8.1668-17.773-2.4219-1.7102-9.306 12.164-17.672 12.164-17.672s-10.636 3.467-16.984 10.445c-1.8513-5.2147-9.1875-9.3047-9.1875-9.3047s3.4468 4.1895 4.3906 10.594c-10.214-5.653-23.336 0.60156-23.336 0.60156s11.734 0.61232 18.555 4.1484c-18.46 5.9491-20.781 16.547-20.781 16.547s11.705-9.7832 24.016-9.3281c-9.9171 11.424-12.813 25.094-12.813 25.094s6.7462-9.9436 15.445-18.102c-2.5995 8.7056-2.7812 20.891-2.7812 20.891s4.4417-9.08 6.6094-20.078c2.5653 26.66 15.561 64.814 22.039 82.594l-3.5234 5.7031h17.203l-4.5234-6.0625c4.8855-18.212 14.549-57.518 14.773-84.375 3.1214 10.766 8.3438 19.414 8.3438 19.414s-1.2506-12.125-4.6016-20.57c9.3794 7.3658 16.969 16.688 16.969 16.688s-4.0826-13.362-14.961-23.875c12.223-1.5302 24.742 7.1875 24.742 7.1875s-3.239-10.352-22.148-14.664c6.4857-4.1192 18.117-5.7578 18.117-5.7578s-13.616-5.0873-23.297 1.4375c0.38008-6.4623 3.4531-10.93 3.4531-10.93zm-133.43 17.383s4.2792 9.1874 4.0234 12.937c-8.545-0.68948-15.242 4.0313-15.242 4.0313s9.3011-1.0616 12.945 0c-7.3353 2.0744-9.7812 6.9062-9.7812 6.9062s4.6548-2.8848 10.359-3.1641c-11.057 9.3818-12.375 15.82-12.375 15.82s5.0846-5.7979 12.945-11.797c-7.1722 13.13-6.8984 21.57-6.8984 21.57s5.3916-15.437 12.453-13.273c-0.36055 11.834 0.48438 52.391 0.48438 52.391l-2.4531 18.703h6.7109c-0.05588-2.1033-1.2577-47.382-1.6641-71.336 3.8634 2.795 8.9141 15.82 8.9141 15.82s1.1778-13.258-2.0156-17.547c4.6666-3.052 10.93 11.789 10.93 11.789s1.1038-13.79-6.6094-18.977c2.1494-1.8802 7.7656 0.2812 7.7656 0.2812s-5.0061-7.9245-10.93-6.8984c-0.54137-3.6309 7.1875-8.3438 7.1875-8.3438s-7.2747-0.2452-11.508 3.4531c-2.8603-6.4548-15.242-12.367-15.242-12.367zm111.53 3.0703c2.9324 0.1956 6.2938 1.2937 9.5312 4.289-8.1718-1.2885-14.062 2.9088-17.359 6.2734-3.6007-3.0378-9.757-6.5816-17.68-4.6094 6.9822-7.6985 15.155-5.0451 17.055-4.2969-0.012 0.02-0.14064 0.1876-0.14064 0.1876s0.25208-0.1124 0.28908-0.1328c0.16628 0.068 0.63282 0.2264 0.63282 0.2264s-0.26888-0.2924-0.32812-0.3672c0.88266-0.45704 3.8308-1.8486 8-1.5703zm6.2422 7.789c1.5447 0.04 2.8884 0.45032 3.8594 1.3906-0.73051 20.284-9.6966 55.076-14.727 73.227-6.6083-17.677-18.535-51.436-21.031-71.531 3.0924-3.57 11.242-1.0467 16.539 1.125-1.1326 1.3472-1.7734 2.3516-1.7734 2.3516s1.2432-0.78704 3.0781-1.7969c2.0723 0.90312 3.5234 1.6406 3.5234 1.6406s-0.80096-1.04-2.1562-2.3672c3.6408-1.8948 8.7706-4.1366 12.688-4.0391z" style="opacity:.25;stroke-width:4"/>
 <path d="m25.424 149.29 13.831-7.9322 39.051 4.8814 25.424 1.2204 4.2712-32.339-81.966 8.1356-3.4576 23.186z" style="fill:#c39a54;stroke-width:4"/>
 <rect x="79.119" y="129.97" width="31.729" height="29.288" rx="8.1356" ry="14.644" style="fill:#4a4a4a;paint-order:stroke fill markers;stroke-width:4"/>
 <path d="m87.859 132a6.8197 12.508 0 0 0-6.8206 12.508 6.8197 12.508 0 0 0 6.8206 12.508 6.8197 12.508 0 0 0 6.8141-12.508 6.8197 12.508 0 0 0-6.8141-12.508zm-2.2453 2.75 5.7597 0.40624-2.0371 4.0625-2.6228-0.1016zm6.6058 2.1328 1.2691 10.477-2.0306-1.5234-1.2691-5.7969zm-7.966 0.1952 1.5294 3.0469-1.2756 5.0859-2.1152 1.4219zm0.68336 10.281 2.1152 2.4375-0.76146 5.1875-3.6446-5.8984zm6.0136 0.71096 1.8613 1.7266-3.8984 5.4922-0.50764-4.5781z" style="fill:#979797;paint-order:stroke fill markers;stroke-width:3.6509"/>
 <rect x="142.98" y="129.76" width="31.729" height="29.288" rx="8.1356" ry="14.644" style="fill:#4a4a4a;paint-order:stroke fill markers;stroke-width:4"/>
 <rect x="25.424" y="130.17" width="31.729" height="29.288" rx="8.1356" ry="14.644" style="fill:#4a4a4a;paint-order:stroke fill markers;stroke-width:4"/>
 <path d="m16.678 136.47c0.05986-2.7691 3.0508-7.7288 3.0508-7.7288s-0.09508-5.0406 0.81356-7.322c1.2894-3.2374 3.404-6.4083 6.3051-8.339 2.2724-1.5123 7.9322-2.0339 7.9322-2.0339s16.235-10.45 26.034-13.017c8.247-2.1605 21.271-3.2212 31.525-3.0508 8.7823 0.146 18.481 0.78352 26.847 3.4576 7.1216 2.2762 19.729 14.441 19.729 14.441s13.918 2.9972 25.83 9.3559c4.5116 2.4082 7.9056 7.1607 9.5593 12 1.5567 4.5554 1.6028 10.182-0.2034 14.644-1.1876 2.9342-3.3438 6.6408-6.5085 6.7118-39.207 0.8808-59.797 0.6102-59.797 0.6102s-10.428 1.1988-10.169-8.9492c0.13444-5.2679-2.4601-21.276-9.3559-21.153-6.8838 0.1232-9.7774 11.06-9.3559 18.915 0.19664 3.6645 1.6271 9.1525 1.6271 9.1525l-37.831 0.2032s-4.4799-0.2136-4.2712-10.78c0.0894-4.5267-1.7734-15.392-6.7119-15.254-4.43 0.1232-6.4026 7.1627-6.5085 11.593-0.11822 4.9489 0.81356 10.17 0.81356 10.17s-9.549-4.6946-9.3559-13.627z" style="fill:#f9de81;stroke-width:4"/>
 <path d="m32.578 133.9a5.6808 11.146 0 0 0-5.6875 11.145 5.6808 11.146 0 0 0 5.6875 11.145 5.6808 11.146 0 0 0 5.6797-11.145 5.6808 11.146 0 0 0-5.6797-11.145zm-1.8672 2.3233 4.8203 0.366-1.7031 3.6609-2.1953-0.0916zm5.5312 1.922 1.0625 9.441-1.7031-1.3728-1.0625-5.2239zm-6.6719 0.3028 1.2812 2.7527-1.0625 4.5832-1.7734 1.2813zm0.57031 9.1382 1.7734 2.1966-0.64062 4.6748-3.0469-5.3154zm5.0391 0.64068 1.5625 1.5559-3.2656 4.9493-0.42969-4.1256z" style="fill:#979797;paint-order:stroke fill markers;stroke-width:3.7326"/>
 <path d="m109.09 136.34c-1.235 0-2.2266 0.9916-2.2266 2.2266v2.3047c0 1.235 0.99159 2.2266 2.2266 2.2266h65.008c0.48539 0 0.90818-0.184 1.2734-0.44532 0.11516-2.087-0.0645-4.165-0.50781-6.164-0.24084-0.0888-0.49327-0.1484-0.76563-0.1484z" style="fill:#4a4a4a;paint-order:stroke fill markers;stroke-width:4"/>
 <path d="m112.03 138.07c-0.55773 0-1 0.45008-1 1.0078v1.4375c0 0.55772 0.44227 1.0078 1 1.0078h4.1719c0.55773 0 1.0078-0.45008 1.0078-1.0078v-1.4375c0-0.55772-0.45009-1.0078-1.0078-1.0078zm53.358 0.43144c-0.55773 0-1.0078 0.45008-1.0078 1.0078v1.4375c0 0.55772 0.45009 1.0078 1.0078 1.0078h6.6172c0.55773 0 1.0078-0.45008 1.0078-1.0078v-1.4375c0-0.55772-0.45009-1.0078-1.0078-1.0078zm-44.006-0.00176c-0.55773 0-1.0078 0.45008-1.0078 1.0078v1.4375c0 0.55772 0.45008 1.0078 1.0078 1.0078h6.6172c0.55773 0 1.0078-0.45008 1.0078-1.0078v-1.4375c0-0.55772-0.45008-1.0078-1.0078-1.0078z" style="fill:#fff;paint-order:stroke fill markers;stroke-width:4"/>
 <rect x="127.85" y="146.12" width="36.961" height="4.4584" ry="2.2292" style="fill:#4a4a4a;paint-order:stroke fill markers;stroke-width:4"/>
 <path d="m33.864 117.36s16.742-18.164 31.729-17.898c3.0021 0.0532 8.3313 11.361 8.2373 17.39-0.013824 0.88712-1.8305 1.9322-1.8305 1.9322s-1.962-6.86-4.8814-7.6271c-3.8883-1.0217-9.0088-0.65068-8.9492 2.339 0.0268 1.3429 2.5699 3.7939 4.5333 3.926 1.872 0.126 1.365 1.5656 1.365 1.5656z" style="fill:#4a4a4a"/>
 <path d="m89.164 98.211c-4.7354-0.016-9.7868 0.128-16.352 0.7344 4.3491 5.4685 8.3437 17.391 8.3437 17.391s18.188-3.2502 56.918-2.4066c-0.15904-0.1532-9.2274-10.593-19.071-14.376-5.2535-1.7052-9.9031-1.4074-14.739-1.4386-5.3072-0.036-10.365 0.112-15.1 0.096z" style="fill:#4a4a4a;stroke-width:4"/>
 <path d="m111.25 126.02c6.4164-0.1048 7.8084 0.0775 11.572-0.0349 0.81921 1.5168 0.86291 3.4516 0.86291 3.4516s4e-3 1.5448-2.5394 1.582c-3.788 0.0556-3.7535 0.1052-7.8156 0.0756-3.4452-0.024-6.6156-4.6777-6.6156-4.6777 1.5091-0.77496 2.9509-0.20067 4.5354-0.39659z" style="fill:#fff;stroke-width:4"/>
 <path d="m167.42 126.28-12.453-0.12644 1.6662 2.8589s0.88319 1.7728 3.427 1.8101c3.788 0.0556 2.5957 0.021 6.6578-9e-3 3.4452-0.024 1.4208-3.8148 1.4208-3.8148z" style="fill:#fff;stroke-width:4"/>
</svg>
