<svg width="192" height="192" version="1.1" viewBox="0 0 192 192" xmlns="http://www.w3.org/2000/svg">
 <style type="text/css">.st0{fill:#FFFFFF;}</style>
 <style type="text/css">.st0{fill:#FFFFFF;}</style>
 <path d="m183.55 55.028c0.26224-1.1244-1.2091-2.9635-2.3011-2.5887-11.182 3.8371-28.299 12.111-28.299 12.111l12.656 16.108s7.598-6.0888 11.476-13.073c1.8851-3.3945 5.1752-7.0164 6.4676-12.557z" style="fill:#4a4a4a;stroke-width:4"/>
 <path d="m35.872 50.644s35.724 45.064 40.068 45.968c27.436 5.6888 44.544 0.4068 44.544 0.4068l18.102 8.7456 14.441-2.6441s16.524-15.315 18.915-18.712c1.3473-1.9141 2.0344-4.7208 1.2203-6.9152-0.33512-0.90344-2.2373-1.8305-2.2373-1.8305s-4.2836-14.351-7.7288-20.949c-3.1466-6.026-18.261-33.574-55.324-35.186-18.801-0.81808-35.39 10.373-35.39 10.373s18.978 4.3504 24.814 8.1356c2.4186 1.5686 5.6948 6.5084 5.6948 6.5084s-9.112-0.1056-13.424-0.61016c-4.7348-0.55408-33.356-21.763-33.356-21.763s5.2412 23.408 6.712 25.424c1.6984 2.3275 14.034 13.017 14.034 13.017s-7.5292 2.4923-11.39 2.2373c-3.5316-0.23328-29.695-12.203-29.695-12.203z" style="fill:#56595b;stroke-width:4"/>
 <path d="m127.6 62.852-1.6591 21.377 12.237-7.3456zm40.072 20.234-2.3438 4.2736 0.10156 2.9453z" style="fill:#ff837d;stroke-width:4"/>
 <path d="m125.82 84.712c-0.02-4.5912 2.0259-11.965 6.6156-12.081 8.898-0.2246 10.924 26.17 20.854 26.606 9.7476 0.42884 13.34-17.79 12.656-11.793-1.3299 11.654-9.492 14.957-9.492 14.957h-19.703s-10.892-8.8912-10.93-17.69z" style="fill:#fff;stroke-width:4"/>
 <ellipse transform="rotate(5.2232)" cx="139.79" cy="77.239" rx="2.9492" ry="7.3728" style="fill:#ff837d;paint-order:stroke fill markers;stroke-width:4"/>
 <path d="m160.3 95.8c-1.4534 1.5826-3.1502 2.8966-5.2264 3.3047a1.6271 3.9661 37.774 0 0 0.0547 2.0703 1.6271 3.9661 37.774 0 0 3.711-2.1406 1.6271 3.9661 37.774 0 0 1.4609-3.2344z" style="fill:#ff837d;paint-order:stroke fill markers;stroke-width:4"/>
 <path d="m56.212 22.173s5.24 23.406 6.7108 25.422c1.6984 2.3275 14.039 13.016 14.039 13.016s-0.08444 0.0228-0.08592 0.0236l6.7264 3.367s-11.739-9.7764-16-16c-5.316-7.764-11.391-25.828-11.391-25.828zm16.274 7.7264s18.976 4.3476 24.812 8.1328c2.4186 1.5686 5.6952 6.508 5.6952 6.508l10.984 1.4297s-6.72-8.4324-11.391-10.781c-9.1016-4.5768-30.102-5.2892-30.102-5.2892zm-36.609 20.742s35.947 44.312 40.064 45.968c19.285 7.76 44.464-0.91176 53.86-0.74296 0 0-47.224-3.5595-54.196-7.8664-15.465-9.5532-39.726-37.359-39.726-37.359z" style="fill:#4a4a4a;stroke-width:4"/>
 <path d="m117.84 95.188c0.0692-2.4817 3.6193-4.3112 6.1016-4.2712 2.9294 0.0472 8.4256 8.7832 14.034 10.17 6.5244 1.6129 11.146-1.3139 15.254-1.017 1.724 0.1246 4.25 2.3282 3.4576 3.8644-1.646 3.1915-13.944 6.7364-20.746 5.4916-7.5512-1.3818-18.316-6.5636-18.102-14.237z" style="fill:#fdc394;stroke-width:4"/>
 <path d="m130.14 105.78c0.16836-0.91076 2.8478-0.72088 4.4584-0.57528s4.9616 1.582 4.9616 1.582-3.6768-0.819-5.1056-0.86292c-1.4288-0.0439-2.6502 0.50288-3.3797 0.35956s-1.1032 0.40736-0.9348-0.50336z" style="fill:#eda56e;stroke-width:4"/>
 <path d="m121.8 21.548c5.008 3.4775 20.745 15.485 26.742 34.18 1.976 6.1596 12.414 17.289 12.414 17.289s3.4717-8.0976 2.4375-12.812c-0.81536-3.7173-4.7184-11.178-8.336-17.594-6.5352-7.8784-17.106-17.028-33.258-21.062zm-61.46 3.6484c2.0363 3.2926 16.099 25.889 19.258 26.805 5.5404 1.6062 34.375-6.0312 34.375-6.0312l-11.047-1.5156c2e-3 0.0025 0.0625 0.08596 0.0625 0.08596s-9.11-0.1048-13.422-0.60936c-3.6583-0.42812-21.268-12.955-29.226-18.734zm-24.469 25.445s22.144 20.528 27.726 21.359c7.1212 1.0604 28-8 28-8l-14.641-3.3906s-7.53 2.4894-11.391 2.2344c-3.5316-0.23328-29.695-12.203-29.695-12.203z" style="fill:#ff837d;stroke-width:4"/>
 <path d="m120.21 60.408s2.6072-16.356 4.1708-25.6c12.085 9.5316 18.409 21.429 18.409 21.429s-7.7956-16.332-20.422-27.038c-1.3692 2.9456-2.1573 7.0472-2.1573 7.0472l-4.746-1.0067s3.5191 7.5856 4.3144 11.649c0.86612 4.4248 0.43144 13.519 0.43144 13.519z" style="fill:#4a4a4a;stroke-width:4"/>
 <ellipse transform="rotate(5.6645)" cx="140.23" cy="78.78" rx="1.1186" ry="3.1526" style="fill:#56595b;paint-order:stroke fill markers;stroke-width:4"/>
 <ellipse transform="rotate(6.424)" cx="141.21" cy="75.95" rx=".55932" ry="1.2712" style="fill:#fff;paint-order:stroke fill markers;stroke-width:4"/>
 <path d="m158.4 97.588c-0.60048 0.43336-1.2357 0.80216-1.9141 1.0781a0.6356 1.9576 35.004 0 0-0.43752 1.7109 0.6356 1.9576 35.004 0 0 1.6406-1.2422 0.6356 1.9576 35.004 0 0 0.71096-1.5469z" style="fill:#56595b;paint-order:stroke fill markers;stroke-width:4"/>
 <ellipse transform="rotate(27.901)" cx="185" cy="14.237" rx=".35593" ry=".661" style="fill:#fff;paint-order:stroke fill markers;stroke-width:4"/>
 <path d="m153.36 103.26c0.15088-1.1431 1.0861-1.5748 2.5887-1.4382 1.943 0.1766 4.5212 0.76168 6.472 0.791 1.7537 0.0264 3.5142-0.10404 5.2492-0.35956 0.9824-0.14468 2.3126 0.8468 2.2292 1.7977-0.18524 2.1128-4.0668 3.2036-6.6876 3.3078-3.6311 0.14448-10.027-2.7701-9.8516-4.0988z" style="fill:#56595b;stroke-width:4"/>
 <ellipse cx="163.21" cy="103.88" rx="2.4449" ry=".82696" style="fill:#fff;paint-order:stroke fill markers;stroke-width:4"/>
 <path d="m124.41 57.792s1.2009-11.898 2.0134-17.977c4.2656 4.0224 7.878 9.726 11.074 15.964-7.3516 0.0284-13.088 2.0134-13.088 2.0134z" style="fill:#fdc394;stroke-width:4"/>
 <path d="m126.42 39.812c-0.808 6.0452-1.9944 17.742-2.0078 17.875l0.0236 0.09376c3e-3 -0.0011 0.46088-0.11476 0.51564-0.1328 0.319-2.3899 1.4976-10.795 3.1953-11.219 1.3317-0.33212 4.1752 1.8355 5.8828 3.2109-2.3068-3.7712-4.8056-7.184-7.6092-9.828z" style="fill:#eda56e;stroke-width:4"/>
 <path d="m8.1976 85.944c-0.26222-1.1244 1.2091-2.9635 2.3011-2.5887 11.182 3.8371 23.011 9.0604 23.011 9.0604l-12.656 16.108s-4.7504-4.6652-8.6292-11.649c-1.8851-3.3945-2.7346-5.3892-4.0268-10.93z" style="fill:#54688c;stroke-width:4"/>
 <path d="m17.402 112.26 9.2044 23.586 19.703 8.6292 22.436-3.0202s22.294 1.6617 39.55 30.202c7.1088-20.071-0.57528-40.268-0.57528-40.268s18.412 1.4088 36.386 16.108c-2.3201-36.104-46.02-51.488-46.02-51.488s7.1676-8.0828 25.887-9.7796c0 0-12.3-14.63-44.008-14.526-28.938 0.09536-49.184 20.422-49.184 20.422l-8.4852 11.506s-1.8757 0.11308-3.5954 2.5887c-2.3925 3.4442-1.2944 6.0404-1.2944 6.0404z" style="fill:#728dbe;stroke-width:4"/>
 <path d="m123.97 86.228s-19.089-0.2506-38.953 8.9608c8.4908-0.53148 9.9748-0.15836 13.07 0.82032 0 0 7.1632-8.0844 25.883-9.7812zm-35.969 29.774c10.839 4.7044 19.719 15.391 19.719 15.391s18.417 1.4106 36.391 16.109c0 0-23.686-31.458-56.108-31.5zm-13.766 14.781c-6.2372 8.2712-13.609 11.352-13.609 11.352l0.54688 0.34376 7.5704-1.0234s22.298 1.663 39.555 30.203c0 0-15.683-27.726-35.484-37.219-0.25412-1.2845 1.0613-1.0615 1.4219-3.6562z" style="fill:#54688c;stroke-width:4"/>
 <path d="m19.991 120.32c0.10442-2.1718-0.58764-6.4696 1.582-6.328 1.762 0.11492 1.7378 17.631 7.4784 18.552 9.5864 1.5391 17.647-19.959 26.894-19.416 6.8144 0.40072 7.1456 8.5652 5.3212 15.245-2.538 9.292-15.532 12.8-15.532 12.8l-16.827-4.0268s-5.892-3.3988-8.054-11.074c-0.52572-1.8664-0.95604-3.816-0.86292-5.7528z" style="fill:#fff;stroke-width:4"/>
 <path d="m24.164 124.39a5.8476 2.0339 77.211 0 0 0.08594 5.2656 5.8476 2.0339 77.211 0 0 3.2812 5.25 5.8476 2.0339 77.211 0 0 1.0625-2.5312c-2.2657-0.76768-3.5524-4.2376-4.4296-7.9844z" style="fill:#98dc9a;paint-order:stroke fill markers;stroke-width:4"/>
 <ellipse cx="52.372" cy="131.75" rx="2.8474" ry="7.4744" style="fill:#98dc9a;paint-order:stroke fill markers;stroke-width:4"/>
 <ellipse cx="52.372" cy="133.42" rx="1.322" ry="3.8644" style="fill:#56595b;paint-order:stroke fill markers;stroke-width:4"/>
 <path d="m24 136c0.06528-1.5684 2.4983-2.4027 4.0676-2.3729 5.9056 0.11224 10.25 5.956 15.966 6 5.7532 0.0442 10.315-5.4488 15.966-5.7968 3.4228-0.21072 4.996 3.4996 4.8812 6.1016-0.29368 6.656-10.778 8.214-17.085 8.1356-8.8932-0.11076-24.044-6.1268-23.797-12.068z" style="fill:#fdc394;stroke-width:4"/>
 <path d="m13.088 133.26c0.39951-1.752 2.6795-2.6989 6.6156-0.28764 2.8524 1.7474 7.4364 2.453 7.3348 3.8831-0.11247 1.5851-5.5368 1.5484-8.1976 0.86292-2.434-0.62708-6.3116-2.0078-5.7528-4.4584z" style="fill:#56595b;stroke-width:4"/>
 <ellipse transform="rotate(18.511)" cx="59.764" cy="120.98" rx="2.3011" ry=".86292" style="fill:#fff;paint-order:stroke fill markers;stroke-width:4"/>
 <path d="m44.224 145.84s8.0956-1.8779 11.074-4.5304c2.0101-1.79 2.3714-1.9535 1.9416-3.0921-0.23844-0.63148-1.9416-0.57528-1.9416-0.57528s2.3839-0.9524 4.5304-0.43144c1.4886 0.36132 2.5343 2.2872 1.2225 4.4584-1.6072 2.6599-8.4852 2.8044-8.4852 2.8044z" style="fill:#fff;stroke-width:4"/>
 <path d="m58.828 139.83a0.40004 0.40004 0 0 0-0.07812 8e-3 0.40004 0.40004 0 0 0-0.0156 0.78908s0.24788 0.0542 0.53904 0.14844c0.2912 0.0942 0.62836 0.25508 0.71876 0.33592 0.17508 0.15664 0.4434 0.6146 0.6328 1.0234 0.14588-0.15244 0.32508-0.28784 0.42968-0.46092 0.05608-0.0928 0.05396-0.17384 0.10156-0.26564-0.1704-0.33216-0.36548-0.65932-0.6328-0.89844-0.29444-0.26336-0.66832-0.38484-1-0.4922-0.33168-0.10732-0.6172-0.17188-0.6172-0.17188a0.40004 0.40004 0 0 0-0.07812-0.0156zm-1.5 1.7344a0.40048 0.40048 0 0 0-0.08592 0.77344s0.1736 0.0661 0.375 0.16408c0.2014 0.0979 0.43076 0.25248 0.46876 0.29688 0.07248 0.0847 0.19528 0.37192 0.28908 0.6328 0.2496-0.0897 0.51788-0.13556 0.75-0.2422-0.09936-0.3102-0.20228-0.64832-0.42968-0.91408-0.21332-0.24928-0.4874-0.37592-0.72656-0.4922s-0.44532-0.19532-0.44532-0.19532a0.40048 0.40048 0 0 0-0.19532-0.0236z" style="color-rendering:auto;color:#000000;dominant-baseline:auto;font-feature-settings:normal;font-variant-alternates:normal;font-variant-caps:normal;font-variant-ligatures:normal;font-variant-numeric:normal;font-variant-position:normal;image-rendering:auto;isolation:auto;mix-blend-mode:normal;opacity:.25;shape-padding:0;shape-rendering:auto;solid-color:#000000;stroke-width:4;text-decoration-color:#000000;text-decoration-line:none;text-decoration-style:solid;text-indent:0;text-orientation:mixed;text-transform:none;white-space:normal"/>
 <ellipse cx="52.728" cy="134.95" rx=".55932" ry="1.2203" style="fill:#fff;paint-order:stroke fill markers;stroke-width:4"/>
 <path d="m25.445 128.53a3.1888 0.93948 79.133 0 0 0.1875 1.9453 3.1888 0.93948 79.133 0 0 1.5312 2.8672 3.1888 0.93948 79.133 0 0 0.47656-1.4766c-0.90496-0.69452-1.606-1.8976-2.1953-3.3359z" style="fill:#56595b;paint-order:stroke fill markers;stroke-width:3.3777"/>
 <ellipse transform="rotate(-14.749)" cx="-7.5929" cy="134.5" rx=".35593" ry=".81356" style="fill:#fff;paint-order:stroke fill markers;stroke-width:4"/>
 <path d="m53.592 96.816s13.276-12.63 25.119-14.339c0.48552 5.4636-3.3559 24.814-3.3559 24.814s8.7952-12.076 9.356-18.508c-1.9413-1.1925-4.068-1.017-4.068-1.017s0.60104-4.0032-0.30508-7.0168c-3.952-0.4014-9.5228 1.7493-15.5 6.1804s-11.246 9.8872-11.246 9.8872z" style="fill:#54688c;stroke-width:4"/>
 <path d="m59.288 97.22s9.4064-7.1436 15.864-10.068c-1.4328 8.2012-3.4576 15.966-3.4576 15.966z" style="fill:#fdc394;stroke-width:4"/>
 <path d="m75.156 87.156c-6.458 2.9242-15.867 10.062-15.867 10.062s10.58-6.5564 12.203-5.6952c1.6756 0.88888 0.20312 11.594 0.20312 11.594s2.0282-7.76 3.4609-15.961z" style="fill:#eda56e;stroke-width:4"/>
</svg>
