<svg width="192" height="192" version="1.1" viewBox="0 0 192 192" xmlns="http://www.w3.org/2000/svg">
 <g transform="translate(0 -860.36)">
  <circle cx="96" cy="956.36" r="72.321" style="fill:#9abeff"/>
  <path d="m51.304 940.03-0.70704-9e-3s-10.282 1.3565-12.446 5.3147c-0.6321 1.1561-0.10451 2.8216 0.65522 3.8982 2.4323 3.4466 6.9547 5.1703 11.056 6.1583 2.3515 0.5665 5.0276 0.69333 7.2519-0.25694 0.6897-0.29465 1.612-1.5696 1.612-1.5696s2.8545 1.4163 4.4002 1.473c1.5856 0.0582 3.1779-0.49785 4.6123-1.1761 3.0045-1.4207 8.0343-5.9039 8.0343-5.9039l-9.4532-7.0209z" style="fill:#ccc"/>
  <path d="m39.862 933.17-0.70704-9e-3s-10.282 1.3565-12.446 5.3147c-0.6321 1.1561-0.10451 2.8216 0.65522 3.8982 2.4323 3.4466 6.9547 5.1703 11.056 6.1583 2.3515 0.5665 5.0276 0.69333 7.2519-0.25694 0.6897-0.29465 1.612-1.5696 1.612-1.5696s2.8545 1.4163 4.4002 1.473c1.5856 0.0582 3.1779-0.49785 4.6123-1.1761 3.0045-1.4207 8.0343-5.9039 8.0343-5.9039l-9.4532-7.0209z" style="fill:#d8d8d8"/>
  <path d="m80.802 939.4-8.8145-1.8854s-7.1983-3.8696-10.886-5.6256c-1.0968-0.52227-2.1522-1.2025-3.3396-1.4588-3.8591-0.83299-7.9748 0.63228-11.843-0.15783-7.6976-1.5723-21.803-8.9534-21.803-8.9534s-3.3139 0.11717-3.9076 1.3623c-1.7336 3.6355 1.7543 8.089 4.0915 11.369 1.6074 2.256 3.9223 4.1301 6.4718 5.2132 4.3661 1.8549 9.3774 1.8998 14.12 1.7793 4.3785-0.11124 10.673-2.9878 12.937-2.3027 2.1383 0.64733 7.5159 6.4647 7.5159 6.4647l10.493 8.6259z" style="fill:#ececec"/>
  <g transform="matrix(-.73472 .40345 .48133 .87654 -286.01 58.695)">
   <path d="m51.304 940.03-0.70704-9e-3s-10.282 1.3565-12.446 5.3147c-0.6321 1.1561-0.10451 2.8216 0.65522 3.8982 2.4323 3.4466 6.9547 5.1703 11.056 6.1583 2.3515 0.5665 5.0276 0.69333 7.2519-0.25694 0.6897-0.29465 1.612-1.5696 1.612-1.5696s2.8545 1.4163 4.4002 1.473c1.5856 0.0582 3.1779-0.49785 4.6123-1.1761 3.0045-1.4207 8.0343-5.9039 8.0343-5.9039l-9.4532-7.0209z" style="fill:#ccc"/>
   <path d="m39.862 933.17-0.70704-9e-3s-10.282 1.3565-12.446 5.3147c-0.6321 1.1561-0.10451 2.8216 0.65522 3.8982 2.4323 3.4466 6.9547 5.1703 11.056 6.1583 2.3515 0.5665 5.0276 0.69333 7.2519-0.25694 0.6897-0.29465 1.612-1.5696 1.612-1.5696s2.8545 1.4163 4.4002 1.473c1.5856 0.0582 3.1779-0.49785 4.6123-1.1761 3.0045-1.4207 8.0343-5.9039 8.0343-5.9039l-9.4532-7.0209z" style="fill:#d8d8d8"/>
   <path d="m80.802 939.4-8.8145-1.8854s-7.1983-3.8696-10.886-5.6256c-1.0968-0.52227-2.1522-1.2025-3.3396-1.4588-3.8591-0.83299-7.9748 0.63228-11.843-0.15783-7.6976-1.5723-21.803-8.9534-21.803-8.9534s-3.3139 0.11717-3.9076 1.3623c-1.7336 3.6355 1.7543 8.089 4.0915 11.369 1.6074 2.256 3.9223 4.1301 6.4718 5.2132 4.3661 1.8549 9.3774 1.8998 14.12 1.7793 4.3785-0.11124 10.673-2.9878 12.937-2.3027 2.1383 0.64733 7.5159 6.4647 7.5159 6.4647l10.493 8.6259z" style="fill:#ececec"/>
  </g>
  <path d="m146.93 941.28s5.1882-1.7347 6.5048-3.8911c1.1991-1.964 0.44539-6.889 0.44539-6.889s1.9814-2.9871 1.6521-4.5746c-0.25818-1.2445-1.4066-2.3807-2.6149-2.7751-0.9997-0.32633-3.1016 0.57744-3.1016 0.57744l-1.5166 1.0405s1.0877-6.9706 0.1166-8.7497-1.9159-1.8487-2.893-1.8065c-0.97711 0.0422-1.9644 1.4766-1.9644 1.4766s-1.5582-0.85553-2.2036-0.47135c-1.3146 0.78241-1.2962 4.4025-1.2962 4.4025l-1.2409 0.24865-1.5684 4.9293-2.7669 1.9962-2.6962 3.3231-3.6954 5.3429z" style="fill:#ececec"/>
  <path d="m132.56 932.57c2.4253-0.54613 5.1276-0.16889 7.4145 0.80598 2.6583 1.1332 5.0979 3.1277 6.6439 5.5691 0.94838 1.4976 1.7613 3.4216 1.3458 5.1449-0.42101 1.746-1.9317 3.3273-3.5894 4.0184-1.4152 0.58996-4.5934-0.23801-4.5934-0.23801l-9.293-5.7812-3.276-6.2314s3.3062-2.8281 5.3476-3.2878z" style="fill:#d8d8d8"/>
  <path d="m42.334 964.97c1.4623-0.17819 3.078-0.0312 4.3663 0.68325 0.87755 0.48667 5.3787 4.4471 5.3787 4.4471l-27.185 18.389s-1.5609-2.1479-1.5799-3.3964c-0.03149-2.0735 1.3011-3.9924 2.4514-5.7178 1.1771-1.7657 2.8004-3.2144 4.4362-4.5663 1.3184-1.0896 4.2879-2.8181 4.2879-2.8181s1.4918-3.6984 2.9414-4.9612c1.3366-1.1644 3.1432-1.8454 4.9029-2.0598z" style="fill:#c39a54"/>
  <path d="m67.577 958.21s-1.4089-2.1643-1.5332-2.2081c-0.91352-0.32158-1.7718-1.0504-2.7373-0.97406-2.0737 0.16389-4.0007 1.5251-5.4778 2.9898-1.2775 1.2667-1.9243 2.9423-2.6256 4.7154-0.51036 1.2905-0.87458 2.7534-0.61742 4.1171 0.12116 0.64252 0.35248 1.6924 0.35248 1.6924l-1.5348 2.6048 2.7239 1.974 0.54909-3.6805z" style="fill:#c39a54"/>
  <path d="m24.528 989.02c0.24283 2.794 2.1201 5.4828 4.3236 7.2177 2.2705 1.7876 5.3854 2.5408 8.2748 2.5853 2.3025 0.0355 6.6544-1.856 6.6544-1.856l13.661-23.508-6.658-4.5085s-4.067-1.5825-6.169-1.4082c-2.3942 0.19862-4.7532 1.2865-6.6662 2.7398-2.0598 1.5649-4.7666 6.1242-4.7666 6.1242s-4.0781 2.4054-5.4489 4.2588c-1.7738 2.3982-3.4635 5.3832-3.2052 8.3549z" style="fill:#8e6f60"/>
  <path d="m55.992 973.87s-0.55097-4.6317 0.21494-6.7477c1.4664-5.0536 3.2265-10.003 9.3858-10.126 2.7273 0.0337 9.0676 4.3712 9.0676 4.3712l-13.949 14.815z" style="fill:#8e6f60"/>
  <path d="m70.924 960.32s-7.0818 4.822-9.6357 10.122c-0.74571 1.5477-1.3165 4.9829-1.3165 4.9829l-3.963-2.8031s-10.245 0.70829-13.555 4.0697c-3.1488 3.1975-4.0338 8.4791-3.6729 12.952 0.2308 2.8606 1.6379 5.7494 3.6464 7.7993 1.3565 1.3845 3.3179 2.1783 5.2162 2.5697 2.5354 0.5227 7.756-0.39669 7.756-0.39669l1.7598-0.72658 16.445 4.2195s5.7663 4.52 8.9159 6.3694c3.6338 2.1337 7.2743 4.6993 11.429 5.4028 4.1377 0.7007 8.4775-0.2027 12.519-1.3333 3.3021-0.9238 6.5818-2.2983 9.3091-4.3764 4.1416-3.1556 7.5448-7.3626 10.159-11.866 1.9676-3.3892 3.9641-11.068 3.9641-11.068z" style="fill:#728dbe"/>
  <path d="m91.919 979.6s-5.1707 1.1678-7.286 2.6532c-1.406 0.98724-3.303 3.9563-3.303 3.9563l-24.424 12.926 4.7029 3.563 3.6164 10.049 18.872-8.9994s5.164 2.5609 7.9593 3.1064c1.7176 0.3352 5.2495 0.07 5.2495 0.07s3.6078-5.0065 4.1063-7.9459c0.63456-3.7417-1.5999-11.272-1.5999-11.272l1.2999-3.733 6.986 1.0932s3.3808 5.3436 4.3897 8.3092c0.73695 2.1663 1.1075 4.4784 1.1599 6.7661 0.0346 1.5088-0.55992 4.4929-0.55992 4.4929s8.4924-3.0825 11.336-6.3495c2.8045-3.2225 4.6595-11.939 4.6595-11.939l9.9389-32.87 5.6194-8.9259s-3.6723-6.3468-8.146-7.8592c-5.2506-1.7751-11.006 0.35338-11.006 0.35338l-8.8458 7.1328z" style="fill:#dc505e"/>
  <path d="m87.75 977.61s4.388 5.6709 7.25 7.75c3.4988 2.5417 7.5287 4.561 11.75 5.5 4.3926 0.97719 9.0435 0.62416 13.5 0 2.4032-0.33659 4.9759-0.66141 7-2 1.878-1.242 3.184-3.2668 4.25-5.25 0.78611-1.4625 0.97932-3.1734 1.5-4.75 0.80163-2.4274 2.0036-4.7423 2.5-7.25 0.82663-4.1763 0.86945-8.4943 0.75-12.75-0.0612-2.1802-0.18954-4.3922-0.75-6.5-0.97851-3.68-2.6285-7.1837-4.5-10.5-1.9663-3.4843-4.0214-7.0789-7-9.75-4.4171-3.9611-15.5-8.75-15.5-8.75l-22 7.75-8 15 3 12s-5.8844-2.5471-8.75-1.75c-2.5005 0.6955-4.7026 2.8753-5.75 5.25-0.80713 1.8299-0.58665 4.088 0 6 0.91526 2.983 2.825 5.7864 5.25 7.75 2.237 1.8113 5.1447 2.8864 8 3.25 2.5019 0.31861 7.5-1 7.5-1z" style="fill:#e2c9b0"/>
  <path d="m112.12 978.66c1.3908 3.2804 2.4062 5.1083 5.9182 5.5953 2.7451 0.37349 5.1589-0.56158 6.8318-2.2952 1.686-1.777 4-6.6001 4-6.6001z" style="fill:#dc505e"/>
  <path d="m111.94 980.14s4.6137 1.4889 7 1.5c1.8713 9e-3 3.8002-0.34253 5.5-1.125 1.2946-0.59595 3.375-2.625 3.375-2.625l-2.8125-1.25-10.062 1.3125z" style="fill:#ececec"/>
  <path d="m127.62 976.55 6.6988-1.0986 0.57897-1.6204-5.5685-0.22097z" style="fill:#bf9e73"/>
  <path d="m100.74 963.68s2.9853 2.7248 4.7958 3.5465c1.7576 0.79772 3.7335 1.0746 5.6569 1.2374 1.2638 0.10696 2.5373-0.0661 3.8007-0.17678 2.7522-0.24116 8.2201-1.0607 8.2201-1.0607l7.7782-3.3588 3.0052-3.0936 0.7955-4.331-0.13907-2.4313s-0.73366-1.2154-0.83322-1.8997c-0.10261-0.70518-0.28397-1.6672 0.26517-2.1213 0.70529-0.5833 2.74 0.17678 2.74 0.17678s2.2155 1.1833 3.0052 2.1213c0.84031 0.99807 1.4047 2.2601 1.6794 3.5355 0.32259 1.498-0.0884 4.5962-0.0884 4.5962s-7.7768 12.282-12.907 17.25c-1.1175 1.0823-2.865 1.6688-4.3289 2.1952-1.4151 0.50876-3.0863 0.66719-4.5078 0.17677-1.2054-0.41585-2.9168-2.4749-2.9168-2.4749s-1.641 1.4404-2.6516 1.7678c-1.4586 0.47242-3.1049 0.53276-4.5962 0.17677-1.1802-0.28173-2.4398-0.80784-3.182-1.7678-0.57694-0.74626-0.70711-2.74-0.70711-2.74s-2.0108 0.63256-3.0052 0.44194c-1.2706-0.24355-2.4631-1.0111-3.3588-1.9446-0.92154-0.96045-1.6299-2.2238-1.8562-3.5355-0.21243-1.2318-0.05258-2.6066 0.53033-3.7123 0.59188-1.1228 2.8056-2.5743 2.8056-2.5743z" style="fill:#4a4a4a"/>
  <path d="m128.75 953.36c3.4931-0.18472 7.4043 0.21578 10.25 2.25 2.2207 1.5874 3.959 4.2858 4.25 7 0.27249 2.5418-0.89019 5.2642-2.5 7.25-1.836 2.2648-4.6903 3.7218-7.5 4.5-3.1321 0.86753-6.7838 1.3281-9.75 0-2.855-1.2783-4.9909-4.1365-6.25-7-1.0113-2.3-1.8408-5.2366-0.75-7.5 1.3347-2.7695 4.9782-3.6701 7.75-5 1.4255-0.68398 2.9211-1.4165 4.5-1.5z" style="fill:#e2c9b0"/>
  <g transform="translate(3.4375,3.625)">
   <path d="m96.875 949.74c-0.18089-1.9857 0.19137-4.1132 1.125-5.875 0.6346-1.1975 1.6327-2.3333 2.875-2.875 1.0319-0.44999 2.2696-0.33828 3.375-0.125 1.6118 0.31098 3.2387 0.94947 4.5 2 1.4741 1.2278 2.5483 2.9645 3.25 4.75 0.61645 1.5685 0.81925 3.3161 0.75 5-0.0598 1.4541-9e-3 3.1838-1 4.25-1.0405 1.1199-2.8567 1.1972-4.375 1.375-1.7425 0.20411-3.6605 0.36772-5.25-0.375-1.5217-0.71105-2.5945-2.2103-3.5-3.625-0.86765-1.3555-1.604-2.8972-1.75-4.5z" style="fill:#ececec"/>
   <path d="m99.25 942.24c0.92268-0.48525 2.1423-0.22294 3.125 0.125 1.3472 0.47699 2.5713 1.4257 3.4375 2.5625 1.1115 1.4586 1.9374 3.2923 2 5.125 0.05 1.4619-0.36407 3.0738-1.3125 4.1875-0.51347 0.60292-1.3489 0.90469-2.125 1.0625-0.98186 0.19966-2.0545 0.14407-3-0.1875-1.129-0.39593-2.2275-1.0995-2.9375-2.0625-0.80544-1.0924-1.0804-2.5284-1.25-3.875-0.16954-1.3461-0.16644-2.7713 0.25-4.0625 0.34773-1.0782 0.80983-2.3477 1.8125-2.875z" style="fill:#9abeff"/>
   <path d="m100.12 943.8c0.98519-0.10155 1.9993 0.47902 2.75 1.125 1.1402 0.98109 2 2.4036 2.3125 3.875 0.21799 1.0262 0.16651 2.2264-0.375 3.125-0.51006 0.84641-1.3566 1.4851-2.3438 1.5312-1.2411 0.058-2.3036-0.70645-2.6562-0.96875-0.45865-0.3412-1.5265-1.4547-2-2.375-0.42303-0.82224-0.68848-1.7628-0.6875-2.6875 7.04e-4 -0.66699 0.11528-1.3926 0.5-1.9375 0.57992-0.82131 1.4999-1.5844 2.5-1.6875z" style="fill:#4a4a4a"/>
   <circle cx="100.12" cy="946.45" r="1.3438" style="fill:#ececec"/>
  </g>
  <path d="m81.375 957.61s2.9972 7.5869 5 11.125c1.1502 2.0319 2.0663 4.4415 4 5.75 0.4604 0.31154 1.1242 0.61627 1.625 0.375 0.95703-0.46105 1.4415-1.8148 1.375-2.875-0.0868-1.3842-1.4295-2.3818-2.25-3.5-0.38504-0.52474-1.25-1.5-1.25-1.5s1.1636 0.82467 1.75 0.625c0.65645-0.22354 1.0166-1.0651 1.125-1.75 0.128-0.80855-0.625-2.375-0.625-2.375l-3.25-3.375s-1.6716-1.6282-2.25-2.625c-0.93271-1.6072-2.625-8.75-2.625-8.75l-3 1.875z" style="fill:#8e6f60"/>
  <path d="m85.56 947.51s9.5658-2.6919 14.142-4.5962c4.5256-1.8832 8.3811-5.3268 13.081-6.7175 4.4867-1.3275 13.965-1.4142 13.965-1.4142l-5.3033-5.4801-17.324 4.0659z" style="fill:#bf9e73"/>
  <path d="m95.049 946.02s2.3296-4.1109 4.375-4.875c4.0909-1.5283 13 1.625 13 1.625-3.3426-3.9512-6.1583-6.8104-11.352-6.8826-4.7548-0.0287-6.481 3.3543-6.0225 10.133z" style="fill:#4a4a4a"/>
  <path d="m129.13 937.99s-5.4824-2.8663-7.32-2.6867c-3.6754 0.35917-6.6682 7.0181-6.6682 7.0181 0.20136-4.3781-0.86439-8.9163 4.3394-10.314 2.7595-0.74128 9.6489 5.9828 9.6489 5.9828z" style="fill:#4a4a4a"/>
  <g transform="translate(1 .25)">
   <path d="m118.22 944.22 2.25 7.5s0.49841 2.3992 1.375 3.125c0.85638 0.70903 2.163 0.98344 3.25 0.75 1.2792-0.27471 2.4159-1.2755 3.125-2.375 0.8108-1.2572 1.0543-2.88 1-4.375-0.0981-2.7001-0.9455-5.4572-2.375-7.75-0.96696-1.5509-2.2179-3.3447-4-3.75-0.80953-0.18412-1.7033 0.26209-2.375 0.75-0.87 0.63195-1.4927 1.62-1.875 2.625-0.41718 1.0967-0.375 3.5-0.375 3.5z" style="fill:#ececec"/>
   <path d="m119.33 939.26s-0.48038 0.68759-0.7732 1.5813c-0.24216 0.73907-0.35353 1.7951-0.3518 2.3875 7e-3 2.5567 0.98316 5.022 1.9062 7.4062 0.23892 0.61713 0.5625 1.5938 0.5625 1.5938s1.0962 0.71523 2.1562 0.0937c1.0956-0.64233 2.0459-1.689 2.5-2.875 0.47684-1.2453 0.40142-2.7103 0.0625-4-0.50312-1.9145-1.4703-3.8687-3-5.125-0.83502-0.68577-3.0625-1.0625-3.0625-1.0625z" style="fill:#9abeff"/>
   <path d="m118.63 940.58s-0.74803 1.8188-0.50823 4.1764c0.17806 1.7506 1.5689 4.7509 1.5689 4.7509s1.445 0.28261 2.0771 0c0.68573-0.3066 1.2242-0.9817 1.5026-1.6794 0.3714-0.93081 0.32906-2.0324 0.0884-3.0052-0.2804-1.1334-0.84358-2.282-1.7236-3.0494-0.81233-0.70838-3.0052-1.1932-3.0052-1.1932z" style="fill:#4a4a4a"/>
   <circle cx="119.52" cy="943.13" r="1.0469" style="fill:#ececec"/>
  </g>
  <path d="m75.886 961.81c1.6232 0.51977 2.9496 1.8521 4.0493 3.1544 1.0266 1.2157 1.8124 2.6964 2.1876 4.2426 0.22752 0.9377 0.47554 1.9935-0.15625 2.7228-0.26416 0.30494-0.65012 0.44145-1.0417 0.3444-0.22442-0.0556-0.56093-0.40801-0.56093-0.40801s1.0107 0.26017 1.3218-0.15912c0.36875-0.49689 0.33635-1.5665 0.19398-2.1687-0.40721-1.3306-1.119-2.4874-2.1213-3.425 0 0-0.67836 0.42137-1.0607 0.50823-0.2083 0.0473-0.87303 0.11664-0.98332-0.0663-0.15482-0.25677 0.05137-0.6039 0.4309-0.72921 0.37953-0.12531 1.0007-0.24941 1.8236-0.0423-0.13021-0.46364-0.83772-1.0418-1.3154-1.4603-0.74494-0.65267-1.3853-1.16-2.321-1.4848-0.75872-0.26337-1.7112-0.58004-2.6288-0.34928-0.43811 0.11018-0.55243-0.53032-0.55243-0.53032 0.79874-0.15284 1.9414-0.37361 2.7345-0.14915z" style="fill:#c39a54"/>
  <path d="m64.5 954.47c-0.28018-1.374 1.6099-12.876 4-18.8 2.7768-6.8826 6.5108-13.66 11.75-18.8 3.6227-3.5543 8.1927-6.2995 13-7.7262 4.2471-1.2605 8.8965-1.3008 13.25-0.51509 3.7192 0.67128 7.117 2.6506 10.5 4.3782 2.7786 1.4189 5.8613 2.5796 8 4.8933 1.1054 1.1958 1.8636 2.7756 2.25 4.3782 0.62272 2.5828 0 7.9838 0 7.9838l-28.75 2.3179-8.942 8.7224-8.2777 12.002 0.2565 4.9218s-6.292-1.8014-7.9445-1.9604c-1.9917-0.19154-5.2097 3.0686-5.2097 3.0686s-3.4681-2.8308-3.8826-4.8634z" style="fill:#dc505e"/>
  <ellipse transform="matrix(.94793 -.31848 .2805 .95985 0 0)" cx="-160.16" cy="907.1" rx="10.196" ry="8.5557" style="fill:#ececec"/>
  <path d="m98.058 917.62-1.2728 8.8388 2.8991 0.63639 0.28284-6.7882 3.4648 2.4042 1.2021-3.8184 3.8891 4.9498 1.6971-2.3334-6.364-6.0811-1.4849 3.8891z" style="fill:#dc505e"/>
  <path d="m82.477 951.48s6.8619-13.851 12.773-18.623c4.395-3.5478 9.6359-6.5482 15.22-7.399 4.3787-0.66723 13.78 2.149 13.78 2.149s6.3868 1.178 6.2552 2.6464c-0.19389 2.1644-4.9697 3.3232-4.9697 3.3232s-4.3432-1.893-5.5494-2.1755c-6.012-1.4076-11.652 3.4019-16.611 7.0808-4.5563 3.3802-6.971 4.5297-10.415 6.9192-3.1222 2.1661-10.482 6.0784-10.482 6.0784z" style="fill:#b02a3c"/>
  <path d="m103.47 1005.2c2.0072-0.5728 6.2216-1.3228 6.9277 0.7799 0.65484 1.95-1.1995 3.5789-3.0614 4.5846-2.6601 1.3081-4.5648 1.5624-6.3261 0.9783-0.7787-0.2786-1.6452-0.8493-1.8532-1.6498-0.19877-0.7652 0.30181-1.6102 0.77992-2.2398 0.86707-1.1418 2.1925-1.9447 3.533-2.4532z" style="fill:#f8c18c"/>
  <path d="m54.84 995.5c2.0971-0.53189 3.963 1.859 5.614 3.2571 2.3607 1.9991 4.3162 4.5026 5.9157 7.1505 0.9961 1.6491 2.1919 3.4071 2.2272 5.3334 0.02874 1.5655-0.44141 3.4022-1.6497 4.3979-1.0169 0.8379-2.5934 0.8386-3.8982 0.6552-0.83548-0.1174-1.6815-0.5004-2.2838-1.0912-2.5588-2.5099-2.9398-6.5608-4.8221-9.6111-1.1698-1.8956-3.8919-3.1319-3.9948-5.357-0.08548-1.8474 1.0992-4.2802 2.8918-4.7348z" style="fill:#d8d8d8"/>
  <path d="m41.735 1005.4s-13.048 1.4683-16.7 6.1419c-0.7654 0.9795-0.92958 2.5813-0.40299 3.7073 0.50545 1.0808 2.0755 1.2051 2.979 1.9844 0.85251 0.7353 1.2391 2.0416 2.2649 2.5053 1.6645 0.7524 3.6682 0.3093 5.4796 0.073 4.1416-0.5402 12.067-3.375 12.067-3.375z" style="fill:#d8d8d8"/>
  <path d="m51.973 998.75c0.90435 0.045 1.7769 0.5321 2.4856 1.0957 2.407 1.914 4.1059 4.6596 5.527 7.3868 0.91643 1.7587 1.902 3.6676 1.8624 5.6503-0.02829 1.4165-0.73431 2.7825-1.4907 3.9805-1.0228 1.6201-2.3114 3.2163-3.993 4.1347-1.6639 0.9088-3.6824 1.1596-5.5778 1.1133-0.81332-0.02-2.3673-0.5941-2.3673-0.5941s-3.2079 2.9102-5.2304 3.1805c-1.7984 0.2404-3.8821-0.2931-5.2304-1.5073-0.95748-0.8622-1.6268-2.3056-1.4524-3.5822 0.14104-1.0321 1.1595-1.7505 1.9082-2.4748 0.93134-0.901 3.1555-2.2706 3.1555-2.2706s-2.3575-0.5986-3.5555-0.5474c-3.0946 0.1322-5.9345 2.3026-9.03 2.1923-1.2843-0.046-2.904-0.1437-3.6722-1.174-0.7476-1.0027-0.75779-2.7035-0.075-3.7514 1.4008-2.1499 4.6675-2.1594 7.1027-2.9681 1.3908-0.4619 4.2646-1.0682 4.2646-1.0682s2.8524-4.058 4.8845-5.3729c3.0865-1.9971 6.8124-3.6061 10.484-3.4231z" style="fill:#ececec"/>
  <path d="m59.979 974.92 14.389 8.4425s-3.985-3.7072-7.3044-5.3478c-1.7949-0.88712-7.0844-3.0947-7.0844-3.0947z" style="fill:#54688c"/>
 </g>
 <style type="text/css">.st0{fill:#FFFFFF;}</style>
</svg>
