<svg width="192" height="192" version="1.1" viewBox="0 0 192 192" xmlns="http://www.w3.org/2000/svg" xmlns:xlink="http://www.w3.org/1999/xlink">
 <defs>
  <linearGradient id="linearGradient869" x1="128" x2="128" y1="72" y2="124" gradientTransform="translate(0,4)" gradientUnits="userSpaceOnUse">
   <stop style="stop-color:#f9de81" offset="0"/>
   <stop style="stop-color:#ff837d" offset="1"/>
  </linearGradient>
 </defs>
 <circle cx="96" cy="96" r="88" opacity=".63" style="fill:#8c72bd;opacity:1"/>
 <path d="m96 56-10 18 10-2 10 2zm0 24-15 3-5 9 20-4 20 4-5-9zm0 16-25 5-5 9 30-6 30 6-5-9zm0 16-35 7-5 9 40-8 40 8-5-9z" style="fill:url(#linearGradient869)"/>
 <path d="m56 128 40 8 40-8-40-8z" style="opacity:.25"/>
 <path d="m96 56-10 18 10-2zm0 24-15 3-5 9 20-4zm0 16-25 5-5 9 30-6zm0 16-35 7-5 9 40-8z" style="fill:#ba6561;opacity:.25"/>
</svg>
