<svg width="192" height="192" version="1.1" viewBox="0 0 192 192" xmlns="http://www.w3.org/2000/svg">
 <style type="text/css">.st0{fill:#FFFFFF;}</style>
 <path d="m94.116 8.1191a88 88 0 0 0-83.23 65.925l52.833 6.1297a36 36 0 0 1 24.269-19.23zm23.84 2.766-6.1297 52.833a36 36 0 0 1 19.23 24.269l52.825 6.1288a88 88 0 0 0-65.925-83.23zm-109.84 86.999a88 88 0 0 0 65.925 83.23l6.1297-52.833a36 36 0 0 1-19.23-24.269zm120.16 13.941a36 36 0 0 1-24.269 19.23l-6.1288 52.825a88 88 0 0 0 83.23-65.925z" style="fill:#f8c18c;stroke-width:4"/>
</svg>
