<svg width="192" height="192" fill="none" version="1.1" viewBox="0 0 192 192" xmlns="http://www.w3.org/2000/svg">
 <circle cx="96" cy="96" r="88" style="fill:#56595b;stroke-width:4"/>
 <path d="m96 44a52 52 0 0 0-52 52 52 52 0 0 0 1.8891 13.867h11.978l13.867 13.867v18.22a52 52 0 0 0 24.267 6.0464 52 52 0 0 0 24.267-6.0464v-18.22l13.867-13.867h11.93a52 52 0 0 0 1.9365-13.867 52 52 0 0 0-52-52zm-24.267 38.133 13.867 13.867v20.8l-24.267-24.267zm48.533 0 10.4 10.4-24.267 24.267v-20.8z" style="fill:#fff;paint-order:stroke fill markers;stroke-width:3.4667"/>
</svg>
