<svg width="192" height="192" fill="none" version="1.1" viewBox="0 0 192 192" xmlns="http://www.w3.org/2000/svg">
 <rect x="11.5" y="35.5" width="169" height="121" rx="7.5" fill="#71A372" stroke="#fff" stroke-width="5"/>
 <path d="m31.049 61.359v2.6641h2.4473v14.977h2.5918v-14.977h2.4473v-2.6641h-7.4863zm8.4961 0v17.641h2.5918v-7.6797h2.0156v7.6797h2.5918v-17.641h-2.5918v7.2969h-2.0156v-7.2969h-2.5918zm9.1191 0v2.4238h2.4238v-2.4238h-2.4238zm4.3438 0v17.641h2.4004v-11.832h0.14453l0.095704 0.74414 1.6562 11.088h1.1035l1.6562-11.088 0.095703-0.74414h0.14453v11.832h2.3984v-17.641h-3.168l-1.5352 8.0645-0.11914 0.93555h-0.048828l-0.11914-0.93555-1.5371-8.0645h-3.168zm11.617 0v17.641h3.1914c1.536-0.072 2.568-0.67198 3.168-1.584s0.83984-2.0882 0.83984-3.4082c0-0.888-0.097063-1.6082-0.28906-2.1602-0.384-1.128-0.86372-1.8002-1.5117-2.1602 0.6-0.552 1.0094-1.0314 1.2734-1.6074s0.33594-1.201 0.33594-2.041c0-1.752-0.40917-2.9044-1.2012-3.6484s-1.9913-1.0312-3.5273-1.0312h-2.2793zm8.7344 0v17.641h6.0254v-2.4004h-3.4336v-15.24h-2.5918zm7.0801 0v17.641h5.9277v-2.6641h-3.3359v-4.8477h2.4004v-2.832h-2.4004v-4.6328h3.3359v-2.6641h-5.9277zm7.3691 0v17.641h3.168l1.5352-8.0645 0.12109-0.93555h0.046876l0.12109 0.93555 1.5352 8.0645h3.168v-17.641h-2.4004v11.832h-0.14258l-0.097657-0.74414-1.6543-11.088h-1.1055l-1.6562 11.088-0.095704 0.74414h-0.14258v-11.832h-2.4004zm11.615 0v17.641h5.9277v-2.6641h-3.3359v-4.8477h2.4004v-2.832h-2.4004v-4.6328h3.3359v-2.6641h-5.9277zm7.3691 0v17.641h5.9277v-2.6641h-3.3359v-4.8477h2.3984v-2.832h-2.3984v-4.6328h3.3359v-2.6641h-5.9277zm7.3672 0v17.641h2.0391c2.4 0 3.6966-0.48022 4.3926-1.8242 0.672-1.344 0.76758-3.5284 0.76758-6.9844s-0.09558-5.6638-0.76758-7.0078c-0.696-1.344-1.9926-1.8242-4.3926-1.8242h-2.0391zm12.623 0v17.641h2.5938v-7.0566c1.128 0 2.2551-0.33634 3.1191-1.1523s1.4395-2.1363 1.4395-4.1523-0.57546-3.3598-1.4395-4.1758-1.9911-1.1035-3.1191-1.1035h-2.5938zm10.393 0-2.6641 17.641h2.5195l0.48047-3.6016h2.4961l0.48047 3.6016h2.5195l-2.6641-17.641h-3.168zm7.0312 0v17.641h2.5938v-7.4414h0.69531l1.3438 7.4414h2.5918l-1.6562-8.5449c0.984-0.672 1.4414-2.2558 1.4414-4.0078 0-3.336-1.32-5.0879-4.416-5.0879h-2.5938zm8.6641 0v17.641h2.5938v-6.2402l0.59961-1.4395 0.14258-0.36133h0.07227l0.07226 0.36133 1.8008 7.6797h2.5195l-2.6875-11.832 2.375-5.8086h-2.5195l-2.1602 5.8809-0.11914 0.28711h-0.09571v-6.168h-2.5938zm-85.654 2.5684c0.216 0 0.71839-0.024328 1.1504 0.26367 0.432 0.288 0.76953 0.86389 0.76953 2.0879s-0.33753 1.7999-0.76953 2.0879c-0.432 0.288-0.93439 0.26367-1.1504 0.26367v-4.7031zm79.584 0c0.36 0 0.83866 0.023375 1.2227 0.35938s0.69726 1.0079 0.69726 2.2559-0.31326 1.8964-0.69726 2.2324-0.86266 0.38476-1.2227 0.38476v-5.2324zm-30.049 0.023438c0.888 0 1.3922 0.095547 1.6562 0.93555 0.12 0.432 0.21624 1.057 0.24024 1.873 0.024 0.84 0.02344 1.9682 0.02344 3.4082s5.6e-4 2.5682-0.02344 3.4082-0.12024 1.4631-0.24024 1.8711c-0.264 0.864-0.76825 0.96094-1.6562 0.96094v-12.457zm12.625 0.048828c0.792 0 1.296 0.19105 1.584 0.62305s0.35937 1.1293 0.35937 2.1133-0.07137 1.6316-0.35937 2.0156c-0.288 0.408-0.79199 0.55078-1.584 0.55078v-5.3027zm-80.713 1.8711v13.129h2.4238v-13.129h-2.4238zm90.023 0.76758h0.14453l0.07227 0.45703 0.74414 5.5684h-1.7774l0.74414-5.5684 0.07227-0.45703zm-71.471 4.3691c0.216 1e-6 0.71839-0.048328 1.1504 0.26367 0.432 0.312 0.76953 1.0073 0.76953 2.4473s-0.33753 2.1372-0.76953 2.4492-0.93439 0.26367-1.1504 0.26367v-5.4238zm-2.5488 28.85c-1.54 0-2.778 0.47574-3.709 1.4277-0.938 0.952-1.4004 2.1911-1.4004 3.7031 0 1.526 0.43359 2.7573 1.3086 3.6953 0.875 0.952 2.0298 1.4277 3.4648 1.4277 1.54 0 2.7433-0.50372 3.6113-1.5117l-0.53125-0.58008c-0.056-0.056-0.12612-0.0848-0.20312-0.0918-0.07 0-0.14647 0.03547-0.23047 0.10547-0.364 0.329-0.77824 0.57419-1.2402 0.74219-0.294 0.112-0.73426 0.16797-1.3223 0.16797-1.008 0-1.8337-0.34297-2.4707-1.043-0.672-0.728-1.0078-1.6941-1.0078-2.9121 0-1.204 0.34248-2.1696 1.0215-2.8906 1.064-1.12 2.6386-1.3455 4.7246-0.6875 7e-3 0.056 0.020828 0.26686 0.048828 0.63086 0.028 0.371 0.050453 0.58071 0.064453 0.63671 0.035 0.161 0.13311 0.23829 0.28711 0.23829h0.67774v-1.5547-0.78321c-1.274-0.47599-2.3028-0.7137-3.0938-0.7207zm3.9453 0.11133v0.60156c0 0.147 0.055969 0.23096 0.16797 0.25196 0.112 0.028 0.39184 0.08396 0.83984 0.16796v7.9883l-0.79883 0.16015c-0.14 0.028-0.20898 0.11977-0.20898 0.25977v0.60156h3.3809v-0.60156c0-0.14-0.055969-0.22396-0.16797-0.25196-0.112-0.021-0.39966-0.07696-0.84766-0.16796v-7.9883l0.79883-0.16015c0.14-0.021 0.2168-0.11277 0.2168-0.25977v-0.60156h-3.3809zm4.1172 0v2.2188h0.67969c0.154 7e-3 0.24462-0.04067 0.26562-0.13867 0.014-0.098 0.056953-0.40664 0.12695-0.93164h2.3652v7.8672c-0.364 0.07-0.62334 0.11929-0.77734 0.15429-0.154 0.028-0.23047 0.11863-0.23047 0.26563v0.60351h3.3809v-0.60351c0-0.147-0.056297-0.23096-0.1543-0.25196s-0.32855-0.06281-0.68555-0.13281c-0.112-0.028-0.17578-0.03515-0.17578-0.03515v-7.8672h2.3594c0.056 0.518 0.09814 0.83364 0.11914 0.93164 0.014 0.098 0.10544 0.14648 0.27344 0.14648h0.67773v-2.2187l-0.1875-0.007812h-0.48438-7.5527zm8.7637 0v0.60156c0 0.147 0.062312 0.23177 0.19531 0.25977 0.126 0.028 0.36484 0.08397 0.71484 0.16797l3.0508 5.0195v2.9668l-0.79688 0.1621c-0.14 0.028-0.21094 0.11082-0.21094 0.25782v0.60351h1.0078 1.3516 1.0078v-0.60351c0-0.147-0.068984-0.22982-0.20898-0.25782-0.469-0.098-0.73583-0.1481-0.79883-0.1621v-2.9668l3.0586-5.0195c0.371-0.091 0.61538-0.14697 0.73438-0.16797 0.119-0.028 0.18359-0.11195 0.18359-0.25196v-0.60156l-3.3809-0.007812v0.60156c0 0.147 0.068984 0.23177 0.20898 0.25977 0.476 0.098 0.74283 0.15315 0.79883 0.16015l-1.877 3.1934c-0.14 0.238-0.27244 0.53868-0.39844 0.88868-0.119-0.329-0.25144-0.62268-0.39844-0.88868l-1.877-3.1934c0.049-7e-3 0.31502-0.06215 0.79102-0.16015 0.14-0.021 0.2168-0.11277 0.2168-0.25977v-0.60156h-3.373zm21.012 0v0.60156c0 0.147 0.05597 0.23096 0.16797 0.25196 0.112 0.028 0.39184 0.08396 0.83984 0.16796v7.9883l-0.79883 0.16015c-0.14 0.028-0.20898 0.11977-0.20898 0.25977v0.60156h3.3809v-0.60156c0-0.14-0.05597-0.22396-0.16797-0.25196-0.112-0.021-0.39966-0.07696-0.84766-0.16796v-7.9883l0.79883-0.16015c0.14-0.021 0.2168-0.11277 0.2168-0.25977v-0.60156h-3.3809zm4.2773 0v0.60156c0 0.147 0.07094 0.23177 0.21094 0.25977 0.084 0.021 0.35083 0.07615 0.79883 0.16015v7.9883l-0.79883 0.16015c-0.14 0.028-0.21094 0.11977-0.21094 0.25977v0.60156h3.3398v-0.60156c0-0.14-0.06932-0.22396-0.19532-0.25196s-0.44131-0.08396-0.94531-0.16796v-6.3496c0-0.203-0.02083-0.43469-0.04883-0.67969l3.5137 6.293c0.119 0.21 0.28023 0.3164 0.49023 0.3164h0.19531c0.21 0 0.37824-0.1064 0.49024-0.3164l3.4375-6.2715c-0.014 0.238-0.0293 0.45521-0.0293 0.65821v6.3496c-0.483 0.084-0.7975 0.13215-0.9375 0.16015-0.133 0.028-0.19612 0.11977-0.20313 0.25977v0.60156h3.3457v-0.60156c0-0.14-0.0698-0.23177-0.2168-0.25977-0.077-0.014-0.34187-0.06915-0.79687-0.16015v-7.9883c7e-3 0 0.27187-0.04815 0.79687-0.16015 0.147-0.021 0.2168-0.11277 0.2168-0.25977v-0.60156h-2.0156c-0.119 0-0.20929 0.014156-0.27929 0.03516-0.063 0.028-0.12646 0.09031-0.18946 0.19531l-3.3945 6.168c-0.112 0.224-0.22426 0.46837-0.32226 0.73437-0.126-0.343-0.23046-0.58851-0.31446-0.72851l-3.4648-6.1738c-0.056-0.105-0.11945-0.16731-0.18945-0.19531-0.063-0.021004-0.15444-0.03516-0.27344-0.03516h-2.0098zm13.359 0v0.60156c0 0.147 0.05597 0.23096 0.16797 0.25196 0.112 0.028 0.39184 0.08396 0.83984 0.16796v7.9883l-0.79883 0.16015c-0.14 0.028-0.20898 0.11977-0.20898 0.25977v0.60156h3.3809v-0.60156c0-0.14-0.05597-0.22396-0.16797-0.25196-0.112-0.021-0.39966-0.07696-0.84766-0.16796v-7.9883l0.79883-0.16015c0.14-0.021 0.2168-0.11277 0.2168-0.25977v-0.60156h-3.3809zm4.1172 0v2.2188h0.67968c0.154 7e-3 0.24463-0.04067 0.26563-0.13867 0.014-0.098 0.055-0.40664 0.125-0.93164h2.3672v7.8672c-0.364 0.07-0.62335 0.11929-0.77735 0.15429-0.154 0.028-0.23047 0.11863-0.23047 0.26563v0.60351h3.3809v-0.60351c0-0.147-0.05629-0.23096-0.15429-0.25196s-0.32855-0.06281-0.68555-0.13281c-0.112-0.028-0.17578-0.03515-0.17578-0.03515v-7.8672h2.3594c0.056 0.518 0.09814 0.83364 0.11914 0.93164 0.014 0.098 0.10544 0.14648 0.27344 0.14648h0.67774v-2.2187l-0.1875-0.007812h-0.48438-7.5527zm-29.738 0.007812v0.60156c0 0.126 0.082985 0.23177 0.20898 0.25977 0.119 0.021 0.79883 0.15234 0.79883 0.15234v7.9942s-0.67983 0.13329-0.79883 0.15429c-0.126 0.028-0.20898 0.13377-0.20898 0.25977v0.60937h1.0078 5.5723 0.125 0.31641v-2.1855h-0.67383c-0.14 0-0.26497 0.09828-0.29297 0.23828-7e-3 0.056-0.04231 0.39982-0.07031 0.79883h-3.6191v-7.8692c0.021 0 0.67202-0.13134 0.79102-0.15234 0.126-0.028 0.2168-0.13377 0.2168-0.25977v-0.60156h-1.0078-1.3574-1.0078zm-49.941 23.881c-0.742 0-1.4136 0.12496-2.0156 0.37696-0.609 0.25199-1.1265 0.60945-1.5605 1.0644s-0.76981 0.995-1.0078 1.625-0.35742 1.3154-0.35742 2.0644c0 0.756 0.11942 1.4423 0.35742 2.0723s0.57381 1.168 1.0078 1.623c0.434 0.448 0.95155 0.79879 1.5605 1.0508 0.602 0.25199 1.2736 0.37695 2.0156 0.37695 0.735 0 1.4066-0.12496 2.0156-0.37695 0.609-0.25201 1.1344-0.60279 1.5684-1.0508 0.434-0.455 0.76981-0.99304 1.0078-1.623s0.35742-1.3163 0.35742-2.0723c0-0.749-0.11942-1.4344-0.35742-2.0644s-0.57381-1.17-1.0078-1.625c-0.434-0.455-0.95936-0.81245-1.5684-1.0644s-1.2806-0.37696-2.0156-0.37696zm20.377 0.00586c-0.462-7e-3 -0.87509 0.06313-1.2461 0.20313-0.371 0.133-0.68517 0.32254-0.95117 0.56054s-0.47524 0.51785-0.61524 0.83985c-0.147 0.322-0.21875 0.66611-0.21875 1.0371 0 0.539 0.13439 1.0006 0.40039 1.3926s0.66527 0.68486 1.1973 0.88086c-0.63 0.175-1.1074 0.47063-1.4434 0.89063s-0.50391 0.9517-0.50391 1.5957c0 0.434 0.078094 0.83164 0.24609 1.1816 0.161 0.35 0.39041 0.6523 0.69141 0.9043 0.294 0.245 0.65226 0.43341 1.0723 0.56641 0.413 0.133 0.86709 0.19531 1.3711 0.19531 0.497 0 0.95305-0.06231 1.373-0.19531 0.413-0.133 0.77045-0.32222 1.0645-0.57422 0.294-0.245 0.52341-0.54649 0.69141-0.89649 0.168-0.35 0.24609-0.74764 0.24609-1.1816 0-0.644-0.16791-1.1757-0.50391-1.5957s-0.81336-0.71563-1.4434-0.89063c0.525-0.196 0.92426-0.48886 1.1973-0.88086 0.266-0.392 0.40625-0.85357 0.40625-1.3926 0-0.371-0.076797-0.71511-0.2168-1.0371-0.147-0.322-0.34923-0.60185-0.61523-0.83985s-0.58798-0.42754-0.95898-0.56054c-0.378-0.14-0.79224-0.20313-1.2402-0.20313zm7.8691 0c-0.518-7e-3 -0.99259 0.0986-1.4336 0.3086-0.441 0.203-0.82644 0.51749-1.1484 0.9375-0.329 0.42-0.58753 0.95251-0.76953 1.6035-0.189 0.644-0.28125 1.3992-0.28125 2.2812 0 0.875 0.09225 1.6314 0.28125 2.2754 0.182 0.644 0.44053 1.1757 0.76953 1.5957 0.322 0.42 0.70744 0.72946 1.1484 0.93946 0.441 0.203 0.91559 0.30664 1.4336 0.30664 0.504 0 0.98169-0.10364 1.4297-0.30664 0.448-0.21 0.83311-0.51946 1.1621-0.93946 0.322-0.42 0.58053-0.9517 0.76953-1.5957s0.28711-1.3992 0.28711-2.2812c0-0.875-0.098109-1.6392-0.28711-2.2832s-0.44753-1.1757-0.76953-1.5957c-0.329-0.42001-0.71411-0.7345-1.1621-0.9375-0.448-0.21-0.92569-0.3086-1.4297-0.3086zm76.234 0.08399-2.9824 2.584 0.39258 0.53906c0.07 0.105 0.18194 0.1543 0.33594 0.1543 0.077 0 0.16095-0.03547 0.25195-0.10547l1.793-1.5332c-0.014 0.21-0.02148 0.42086-0.02148 0.63086v6.8379l-1.9609 0.14648c-0.134 0.028-0.19531 0.1061-0.19531 0.2461v0.14648 0.41406h5.377v-0.56054c0-0.14-0.07126-0.22396-0.19726-0.25196-0.084-0.014-0.67135-0.06248-1.7774-0.14648v-9.1016h-1.0156zm-41.107 0.02148v0.60156c0 0.147 0.06899 0.23177 0.20899 0.25977 0.084 0.021 0.35083 0.07697 0.79883 0.16797v7.9863l-0.79883 0.1621c-0.14 0.028-0.20899 0.11082-0.20899 0.25782v0.60351h7.1895v-2.3379h-0.67188c-0.168 0-0.26692 0.07533-0.29492 0.23633-0.014 0.042-0.04084 0.37114-0.08984 0.99414h-3.7598v-3.4219h3.6953v-1.0645h-3.6953v-3.332h3.752c0.049 0.672 0.08366 1.0283 0.09766 1.0703 0.028 0.161 0.12692 0.2391 0.29492 0.2461h0.67188v-2.4219l-7.1895-0.00781zm16.201 0v0.60156c0 0.147 0.06898 0.23177 0.20898 0.25977 0.084 0.021 0.35083 0.07697 0.79883 0.16797v7.9863l-0.79883 0.1621c-0.14 0.028-0.20898 0.11082-0.20898 0.25782v0.60351h7.1894v-2.3379h-0.67187c-0.16801 0-0.26693 0.07533-0.29493 0.23633-0.014 0.042-0.04279 0.37114-0.09179 0.99414h-3.7578v-3.4219h3.6953v-1.0645h-3.6953v-3.332h3.752c0.049 0.672 0.08365 1.0283 0.09765 1.0703 0.028 0.161 0.12692 0.2391 0.29493 0.2461h0.67187v-2.4219l-7.1894-0.00781zm15.062 0v0.60156c0 0.147 0.07093 0.23177 0.21093 0.25977 0.084 0.021 0.34888 0.07697 0.79688 0.16797l-2.541 6.377c-0.105 0.252-0.20864 0.62361-0.30664 1.0996-0.126-0.504-0.23989-0.86861-0.33789-1.0996l-2.5547-6.377c0.30099-0.063 0.54651-0.11149 0.72851-0.14649 0.182-0.042 0.2723-0.13344 0.2793-0.27344v-0.60156h-3.332v0.60156c0 0.14001 0.07093 0.23177 0.21093 0.25977 0.084 0.014 0.31504 0.06916 0.70703 0.16016l3.668 9.0098h1.2246l3.6758-9.0098 0.69922-0.16016c0.14-0.028 0.21094-0.11977 0.21094-0.25977v-0.60156l-3.3398-0.00781zm18.326 0-4.8809 6.4746 0.12695 0.63672c0.014 0.084 0.055 0.14712 0.125 0.20312s0.1481 0.07813 0.2461 0.07813h4.4453v2.6387h1.0976v-2.6387h1.2461c0.091 0 0.16112-0.02213 0.20312-0.07813 0.042-0.049 0.07032-0.1105 0.07032-0.1875v-0.71484h-1.5195v-6.4121h-1.1602zm-126.03 0.00781v0.60156c0 0.14001 0.070937 0.23177 0.21094 0.25977 0.084 0.014 0.34888 0.06916 0.79688 0.16016v7.9863l-0.79688 0.1621c-0.14 0.028-0.21094 0.11082-0.21094 0.25782v0.60351h3.3672v-0.60351c0-0.147-0.068984-0.22982-0.20898-0.25782-0.448-0.091-0.71483-0.14811-0.79883-0.1621v-2.7285h1.4219c1.183 0 2.1053-0.30263 2.7773-0.89063 0.637-0.574 0.95898-1.3292 0.95898-2.2812 0-1.491-0.69212-2.4574-2.0781-2.8984-0.476-0.14-1.0282-0.20899-1.6582-0.20899h-3.7812zm18.854 0v0.60156c0 0.14001 0.070937 0.23177 0.21094 0.25977 0.084 0.014 0.34888 0.06916 0.79688 0.16016v7.9863l-0.79688 0.1621c-0.14 0.028-0.21094 0.11082-0.21094 0.25782v0.60351h3.3672v-0.60351c0-0.147-0.068984-0.22982-0.20898-0.25782-0.448-0.091-0.71483-0.14811-0.79883-0.1621v-2.7285h1.4219c1.183 0 2.1053-0.30263 2.7773-0.89063 0.637-0.574 0.95898-1.3292 0.95898-2.2812 0-1.491-0.69212-2.4574-2.0781-2.8984-0.476-0.14-1.0282-0.20899-1.6582-0.20899h-3.7812zm65.795 0v0.60156c0 0.126 0.08298 0.23177 0.20898 0.25977 0.119 0.021 0.79883 0.15234 0.79883 0.15234v7.9942s-0.67983 0.13329-0.79883 0.15429c-0.126 0.028-0.20898 0.13377-0.20898 0.25977v0.60937h1.0078 5.5723 0.125 0.3164v-2.1855h-0.67187c-0.14 0-0.26692 0.09828-0.29492 0.23828-7e-3 0.056-0.04232 0.39982-0.07032 0.79883h-3.6191v-7.8692c0.021 0 0.67202-0.13134 0.79102-0.15234 0.126-0.028 0.2168-0.13377 0.2168-0.25977v-0.60156h-1.0078-1.3574-1.0078zm-51.211 0.85352c0.301 0 0.56702 0.04181 0.79102 0.13281 0.224 0.084 0.41241 0.20928 0.56641 0.36328s0.26675 0.32906 0.34375 0.53906c0.077 0.203 0.11133 0.42021 0.11133 0.65821 0 0.224-0.027656 0.44901-0.097656 0.66601-0.063 0.21-0.16745 0.39841-0.31445 0.56641-0.14 0.168-0.32955 0.30044-0.56055 0.39844s-0.51084 0.15429-0.83984 0.15429c-0.322 0-0.60298-0.05629-0.83398-0.15429-0.231-0.098-0.41941-0.23044-0.56641-0.39844-0.14-0.168-0.24445-0.35641-0.31445-0.56641-0.063-0.217-0.099609-0.44201-0.099609-0.66601 0-0.238 0.04214-0.45521 0.11914-0.65821 0.077-0.21 0.18975-0.38506 0.34375-0.53906s0.34241-0.27928 0.56641-0.36328c0.224-0.091 0.49116-0.13281 0.78516-0.13281zm7.875 0.0918c0.308 0 0.60362 0.06117 0.89062 0.20117 0.28 0.14 0.53105 0.3655 0.74805 0.6875 0.217 0.315 0.39158 0.73395 0.51758 1.252s0.19027 1.1616 0.19727 1.9316c0 0.763-0.071266 1.4078-0.19727 1.9258s-0.30058 0.93191-0.51758 1.2539c-0.217 0.315-0.46805 0.53773-0.74805 0.67773-0.287 0.14-0.58262 0.21094-0.89062 0.21094s-0.60867-0.07094-0.88867-0.21094c-0.287-0.14-0.53805-0.36273-0.74805-0.67773-0.217-0.322-0.39158-0.73591-0.51758-1.2539s-0.18945-1.1628-0.18945-1.9258c0-0.77 0.063453-1.4136 0.18945-1.9316s0.30058-0.93695 0.51758-1.252c0.21-0.322 0.46105-0.5475 0.74805-0.6875 0.28-0.14 0.58067-0.20118 0.88867-0.20117zm-28.246 0.11132c0.539 0 1.0297 0.09144 1.4707 0.27344 0.434 0.182 0.81114 0.4472 1.1191 0.7832s0.54684 0.7491 0.71484 1.2461c0.168 0.49 0.25195 1.0363 0.25195 1.6523s-0.083953 1.1682-0.25195 1.6582-0.40684 0.90424-0.71484 1.2402-0.68514 0.59339-1.1191 0.77539c-0.441 0.182-0.9317 0.26758-1.4707 0.26758s-1.0289-0.08558-1.4629-0.26758c-0.441-0.182-0.81895-0.43939-1.127-0.77539s-0.54684-0.75024-0.71484-1.2402-0.25195-1.0422-0.25195-1.6582 0.083953-1.1702 0.25195-1.6602c0.168-0.48999 0.40684-0.90228 0.71484-1.2383s0.68595-0.6012 1.127-0.7832c0.434-0.182 0.92389-0.27344 1.4629-0.27344zm-10.707 0.01368h1.4219c0.798-7e-3 1.3912 0.17506 1.7832 0.53906 0.392 0.357 0.5887 0.85323 0.5957 1.4902 0 0.637-0.21005 1.1494-0.62305 1.5274-0.42 0.378-0.99986 0.57421-1.7559 0.57421h-1.4219v-4.1308zm18.854 0h1.4219c0.798-7e-3 1.3912 0.17506 1.7832 0.53906 0.392 0.357 0.5887 0.85323 0.5957 1.4902 0 0.637-0.21005 1.1494-0.62305 1.5274-0.42 0.378-0.99986 0.57421-1.7559 0.57421h-1.4219v-4.1308zm104.93 0.37109c-0.028 0.154-0.04183 0.2944-0.04883 0.44141-7e-3 0.133-0.00586 0.26576-0.00586 0.38476v4.1367h-3.5918l3.6465-4.9629zm-92.709 3.8926c0.28 0 0.53902 0.03351 0.79102 0.10351 0.252 0.07 0.47588 0.18975 0.67187 0.34375 0.196 0.154 0.34894 0.35071 0.46094 0.59571s0.16797 0.53867 0.16797 0.88867c7e-3 0.28-0.040672 0.53267-0.13867 0.76367s-0.23206 0.42575-0.41406 0.59375-0.3992 0.29376-0.6582 0.38477c-0.259 0.09099-0.55186 0.14062-0.88086 0.14062-0.322 0-0.616-0.04963-0.875-0.14062-0.259-0.09101-0.4762-0.21677-0.6582-0.38477s-0.31606-0.36275-0.41406-0.59375-0.14648-0.48367-0.14648-0.76367c0-0.35 0.063781-0.64367 0.17578-0.88867s0.26494-0.44171 0.46094-0.59571 0.41402-0.27375 0.66602-0.34375 0.51802-0.10351 0.79102-0.10351z" style="fill:#fff"/>
 <path d="m46.5 104c4.1421 0 7.5-3.358 7.5-7.5 0-4.1421-3.3579-7.5-7.5-7.5s-7.5 3.3579-7.5 7.5c0 4.142 3.3579 7.5 7.5 7.5z" clip-rule="evenodd" fill="#4A4A4A" fill-rule="evenodd"/>
 <path d="m19 33c-5.4968 0-10 4.5032-10 10v106c0 5.4968 4.5032 10 10 10h154c5.4968 0 10-4.5032 10-10v-106c0-5.4968-4.5032-10-10-10zm0 5h154c2.8132 0 5 2.1868 5 5v106c0 2.8132-2.1868 5-5 5h-154c-2.8132 0-5-2.1868-5-5v-106c0-2.8132 2.1868-5 5-5z" style="color-rendering:auto;color:#000000;dominant-baseline:auto;fill:#fff;font-feature-settings:normal;font-variant-alternates:normal;font-variant-caps:normal;font-variant-ligatures:normal;font-variant-numeric:normal;font-variant-position:normal;image-rendering:auto;isolation:auto;mix-blend-mode:normal;shape-padding:0;shape-rendering:auto;solid-color:#000000;text-decoration-color:#000000;text-decoration-line:none;text-decoration-style:solid;text-indent:0;text-orientation:mixed;text-transform:none;white-space:normal"/>
</svg>
