<svg width="192" height="192" version="1.1" viewBox="0 0 192 192" xmlns="http://www.w3.org/2000/svg">
 <g transform="translate(0 -860.36)">
  <path d="m96 900.33c-26.785 0.98927-39.21 8.9449-84.879 19.36-11.763 2.9832 19.876 25.368 19.876 43.522l65.003 19.598 65.003-19.598c0-18.153 31.639-40.538 19.876-43.522-45.669-10.416-58.093-18.371-84.879-19.36-2.17e-4 -1e-5 0 1e-5 0 0z" style="fill:#738dbe;paint-order:stroke markers fill;stroke-dashoffset:7.556;stroke-linejoin:round;stroke-width:2.0418"/>
  <path d="m161 973.43c0 12.226-12.39 28.268-32.501 34.381-20.112 6.1129-44.891 6.1129-65.003 0-20.112-6.1132-32.501-22.155-32.501-34.381h65.003z" style="fill:#575a5c;paint-order:stroke markers fill;stroke-dashoffset:7.556;stroke-linejoin:round;stroke-width:2.1835"/>
  <path transform="translate(0 860.36)" d="m96 64.365c-2.4329 3.6514-6.4557 6.5927-11.445 7.9297-2.1688 0.58105-4.3317 0.80714-6.4062 0.71875-0.11031 8.7299 11.158 26.912 17.852 26.912 6.6938 0 17.962-18.182 17.852-26.912-2.0746 0.088-4.2375-0.1377-6.4062-0.71875-4.9896-1.337-9.0124-4.2782-11.445-7.9297zm-65.002 37.893v10.809c15.032 4.4375 37.857 9.3828 65.002 9.3828 27.145-1e-4 49.972-4.9472 65.004-9.3848v-10.807c-14.038 4.3902-37.042 9.8163-65.004 9.8164-27.961 0-50.964-5.4262-65.002-9.8164z" style="color-rendering:auto;color:#000000;dominant-baseline:auto;fill:#f8dd81;font-feature-settings:normal;font-variant-alternates:normal;font-variant-caps:normal;font-variant-ligatures:normal;font-variant-numeric:normal;font-variant-position:normal;image-rendering:auto;isolation:auto;mix-blend-mode:normal;shape-padding:0;shape-rendering:auto;solid-color:#000000;text-decoration-color:#000000;text-decoration-line:none;text-decoration-style:solid;text-indent:0;text-orientation:mixed;text-transform:none;white-space:normal"/>
 </g>
</svg>
