<svg width="192" height="192" version="1.1" viewBox="0 0 192 192" xmlns="http://www.w3.org/2000/svg">
 <path d="m87.551 8-0.63563 0.42157 0.63563 3.7922-0.77773 0.35194 1.3433 3.3001s-0.4388 1.5546 0 4.3549c0.31161 1.9887 2.192 2.9491 2.192 2.9491l-2.8987 0.28136-3.3932 0.91276-1.6265-4.705-1.6265-0.14116-3.9587-10.394-3.3231-0.35099-0.28228 4.4246 2.0499 7.304-1.6966 1.1245 1.5554 6.5314-1.2021 0.4912 1.5555 3.0902-0.98992 0.56177-1.8387 2.599 0.21219 1.6853s-2.1062 2.2569-2.7192 3.6396c-0.70804 1.5971-0.88623 4.9987-0.88623 4.9987s-1.4999 1.7683-2.025 2.7888c-0.45534 0.8849-0.94479 2.8298-0.94479 2.8298s-1.1653 0.1906-1.5794 0.56464c-0.55813 0.50412-0.96592 2.0334-0.96592 2.0334l-2.4033 2.599s-1.9319 0.93042-2.5454 1.7559c-0.6463 0.86963-0.98993 3.0893-0.98993 3.0893l-2.3332 5.0569-2.2247 5.0769 0.52808 10.163s-1.047 0.81062-0.91887 1.3343c0.0822 0.33587 0.91887 0.49119 0.91887 0.49119v1.5451l-0.63658 0.77256 0.35334 4.3549s-0.32276 3.1851 0.42439 4.4942c0.6486 1.1364 1.8715 2.2073 3.1819 2.3177 1.2077 0.10165 3.4036-0.4202 3.252-1.6147-0.11153-0.87925-1.5632-0.78221-2.6164-0.56178-0.49352 0.10331-0.91887-1.1941-0.91887-1.1941s0.7664 0.2464 1.1311 0.1402c0.52989-0.15432 0.94862-0.60919 1.2732-1.053 0.59674-0.81595 2.1432-2.7298 1.1311-2.8098-0.84122-0.06653-3.0398 1.5451-3.0398 1.5451s0.9281-4.0235 3.0398-4.354c0.6945-0.1087 1.923 0.18522 2 0.78972 0.10369 0.81321-0.1407 1.3494-0.02013 2.1603 0.11974 0.8056-0.38758 2.1329 0.77773 2.3167 1.1058 0.1744 1.228-1.4749 1.3461-2.5809 0.21104-1.9762 0.41482-3.4502 0.27077-5.3411-0.16201-2.1265-3.1023-4.8595-3.1023-4.8595s2.799-4.803 2.7076-6.0736c-0.0266-0.36942-0.44455-1.0196-0.44455-1.0196l3.6054-3.7226 2.2621-0.77256-0.35334-1.7559 3.011-2.3959 0.31205-2.2395 3.6563-1.7931 3.4143-5.7913 2.9688 1.1941-1.1224 1.7263 1.061 1.7559 1.06 0.1402 0.91022-1.1646 0.07104 1.4049 1.3433 0.49119s-0.99435 1.1841-0.98993 1.8961c0.0042 0.60264 1.2732 2.3883 1.2732 2.3883s-1.6969 2.5004-1.7676 3.2457c-0.05466 0.57589 2.0499 3.075 2.0499 3.075l-1.5555 2.4579-0.35333 0.07057-0.77773 2.3177 0.21219 1.6853-2.2007 2.2767 0.77772 0.98334 1.8473-0.16978s-0.98871 1.643-1.3433 2.5285c-0.87696 2.1903-1.254 4.6765-1.9088 6.8119-0.50859 1.6585-2.9698 4.2843-2.9698 4.2843l0.56554 3.1608-1.1311 1.404-5.1618-1.3343 0.28324-1.4745-0.70667-0.07057 1.06-5.6883s0.77049-0.74866 1.061-1.1941c0.30963-0.47482 0.84091-0.99533 0.70668-1.5451-0.13447-0.55074-0.81293-0.84408-1.3433-1.053-1.0116-0.39845-2.1726-0.4184-3.252-0.28136-1.5379 0.19526-4.3841 1.5451-4.3841 1.5451l-0.28229 5.1265-0.91887 4.4951-2.4753 1.8961-0.42343 1.0539-2.121-1.1941-1.3442 0.63236-2.1911 7.304-0.56553 2.3873 0.63562 1.1236v1.2647l-1.2012 1.2638 0.14115 1.2647-3.3941 4.2138 0.42439 2.3873-2.4743 7.5148-1.6265 1.2647 2.6164 5.5481-4.1008 14.608-0.07104 2.95 1.6265 3.9324-0.98992 3.1608-1.4143 0.28042-0.70667 0.77255-3.5353 0.28136-0.70667 0.56178 0.28324 5.7589-0.35429 4.0736-1.5555 0.91276-2.2621 4.4951-0.07104 8.1462 5.4441-0.21079 0.63658-1.6853 1.8387-0.84217 0.70667-2.5284 0.98992-0.0706 0.42439 1.8961 1.1311 3.3716 8.2007-0.351 1.2732-3.301-0.28325-3.7932 1.5555-0.1402 0.56553 2.1775 2.4753 2.1069 3.4642 0.4912 0.35334 2.8794 6.434 0.14116 0.63562-2.95-1.5555-6.251-2.7566-2.5981-2.9697-1.5451 0.14114-4.8461-2.0499-1.4049-0.70763-5.3373-6.0797 0.56178 0.28229-2.5981 2.4042-2.599 5.9386-22.123 5.3029-0.14021 0.35334-1.4745 1.9088-1.0539-0.07009-1.4746 5.6553 1.6853 2.6875-0.0706 1.6966-5.8285 0.49448 1.2638 2.4743 1.0539 2.6875-4.4246-0.84878-2.3882-1.7676-0.63236 0.07104-1.8961s2.6889-1.5715 3.518-3.6024c0.17036-0.4173-0.33701-1.2437-0.33701-1.2437h1.9088l4.1719-5.5481 0.07104-1.1941 0.77774-0.0697 3.6764-3.2304 0.28229 2.1069-2.7576 1.053-0.49448 1.1236 0.70668 2.599-4.313 2.3177-0.91887 2.5981 3.252 11.167 3.6063-0.91276 9.1906 8.7089 5.8684 14.467 0.98992 0.28136 0.84877 3.7922-0.77772 1.6863-10.11 2.6687-1.6265 2.5284-0.35334 2.9491 4.4542 0.91276 6.7873-0.77256 1.4143 2.4588 5.9386 0.21078 2.192-1.7559 7.7772 2.3873v3.8628l17.887 3.2304 1.7676-1.2638-1.6265-2.4579 2.6164-0.28136 0.91887-2.1765-1.2021-1.4755 1.4143 0.35099 1.3432-1.404-3.8886-4.9863-1.7676-0.28136-1.5554-2.2471-5.7974-0.84314 0.63659 2.3883-1.6966 0.56177-1.6966 0.77256-5.5862-2.1775 0.14209-1.8961 0.2122-3.301-2.6164-2.1775-0.77773-0.84218-3.181-0.21079-0.63658-2.0363-0.98993-3.2314 0.35334-0.77256-5.8685-14.257 3.182-3.5108 1.9798-1.1236 0.42439-0.98335 2.0499-0.28135 6.5041-3.4412 1.2732-2.3882-0.77773-1.8961-1.4844-3.0902 1.7667-2.1069-0.77772-1.1941 0.071-1.3343 1.4844-2.3177-1.06-1.2638v-2.1069l0.84781-3.4412-4.4542-1.7559-0.77773-0.77255-0.14113-1.4745-0.98993-0.84314 0.70764-1.053-0.84878-2.599-2.4042-4.354 0.70762-0.07057 0.28229-1.3343-3.5343-3.7226-0.63657 0.28136-1.1311-1.6157-1.061 0.07057-2.0499-2.95 0.49449-0.98334-2.6155-2.9491-1.9885-4.7727 1.2021-2.0249-0.53672-1.4574 0.80749 0.09917 0.56553 1.2761 3.181 0.42157 0.63657-0.70198c0 1e-5 1.4926 0.67636 2.2698 0.59039 0.5327-0.05896 1.4278-0.73441 1.4278-0.73441l1.1311-0.56177s1.2975 2.4321 4.7576 1.8084c1.5117-0.27253 3.0898-3.1436 3.0898-3.1436s0.98071-0.28015 1.4767-0.50836c0.6358-0.29254 1.7052-1.3544 1.7052-1.3544s1.8095-0.52984 2.4119-1.1913c0.39741-0.43636 0.62793-1.651 0.62793-1.651s1.0862 0.09471 1.3433-0.28136c0.29689-0.43442 0.67959-1.1589 0.86894-1.9572 0.17596-0.74187-0.60282-2.7643-1.5967-2.1412-0.37921 0.23772-0.42042 0.98901 0.0212 1.7807 0.17434 0.31258-0.91887 0.56177-0.91887 0.56177s-0.169-0.88314-0.70764-0.7716c-0.8721 0.18059-0.63562 0.91276-0.63562 0.91276l-0.98991 0.1402s2.3746-2.1092 2.266-3.5614c-0.0593-0.79239-0.59678-1.9111-1.3471-1.6357-0.82736 0.30366 5e-3 1.2753-0.32069 1.7349-0.68847 0.96993-1.8823 1.3768-3.0734 1.2847-2.0441-0.15797-2.3442-0.84983-2.2794-1.8084 0.0448-0.66395 1.9293-0.51142 1.806-1.1655-0.22354-1.1861-2.2999-1.7621-3.4652-1.4211-0.46606 0.13636-0.57665 0.63884-0.86896 1.0244-0.57029 0.7522-1.6255 2.3177-1.6255 2.3177l-2.4042-1.1941-0.56552 0.63235-0.77773-0.14116-0.071-0.6314-0.98897-1.4049-1.9098 0.21078-2.4032-0.98334 0.0701-0.77256-0.56552-0.77256-1.06 0.42157-0.14117 0.42157-1.9097-0.84314s-0.25158-2.372-0.5492-3.5232c-0.32955-1.2747-1.3596-3.7102-1.3596-3.7102s0.27739-1.6342 0.28324-2.4588c5e-3 -0.7058-5e-3 -1.4316-0.21219-2.1069-0.33459-1.0921-0.85156-2.1766-1.6265-3.0196-0.72283-0.78634-1.7095-1.3177-2.6865-1.7559-1.4694-0.659-4.6664-1.2638-4.6664-1.2638s-1.1065-0.84238-1.2021-1.5451c-0.0286-0.21008-0.0701-0.63235-0.0701-0.63235s1.2848-0.42674 1.4844-0.98334c0.10755-0.29996-0.28228-0.91276-0.28228-0.91276l0.35334-0.77256-0.2122-0.42157 0.56553-0.63235-0.42439-1.1235s1.3097-0.63601 1.2021-1.2638c-0.1042-0.60842-1.5554-2.4579-1.5554-2.4579l0.42439-1.8961-1.4143-2.8804s1.1431-1.1515 1.2021-1.8961c0.0564-0.71096-0.3816-1.4242-0.84878-1.9657-0.57869-0.67078-1.3821-1.2775-2.2621-1.4049-0.70156-0.10156-1.4929 0.27279-2.2007 0.31379-1.2378 0.071717-2.2859-0.32582-3.5257-0.31379-1.1003 0.010684-2.2189 0.18832-3.253 0.56177-1.2191 0.44024-1.5554 1.3343-1.5554 1.3343l-0.63566-1.6156zm39.426 51.5s0.88565 1.4189 2.2496 1.6386c1.9135 0.30812 3.0494 0.24894 3.0494 0.24894s-0.67776 2.0091-2.8997 1.9858c-1.2767-0.01336-2.2496-1.0425-2.2496-1.0425l-0.0499-0.6457-0.39942-1.093zm-20.647 30.243 0.99952 1.1426 1.5497 0.49691 0.20067 1.4898 2.4494 2.4331-0.24964 2.5323 1.6995 1.7387s-0.55309-0.1044-0.74989 0.04964c-0.21943 0.17171-0.24964 0.79449-0.24964 0.79449l-6.2496 1.5394-1.9501-4.2214s0.13329-0.71133 0-1.0921c-0.14273-0.40772-0.699-0.74489-0.699-0.74489s0.60052-0.94436 0.44936-1.4898c-0.11328-0.40877-0.84973-0.89464-0.84973-0.89464l2-3.0788s0.47833 0.07232 0.69996 0c0.37363-0.12198 0.94959-0.6953 0.94959-0.6953z" style="fill:#ececec;stroke-width:.48996"/>
</svg>
