<svg width="192" height="192" version="1.1" viewBox="0 0 192 192" xmlns="http://www.w3.org/2000/svg">
 <circle cx="96" cy="96" r="88" style="fill:#83868c;stroke-width:4"/>
 <path d="m53.72 68 15.242 44.428 15.156-44.428zm40.592 0-20.297 56h20.383v-56zm-41.916 24.484v31.516h11.422z" style="fill:#fff;paint-order:stroke fill markers;stroke-width:3.1704"/>
 <path d="m99.9 68v8.3984c6.9892 0.06276 13.283 0.11436 20.859 0.09376 4.7708 0 8.328 3.2712 8.328 8.0312 0 4.76-3.5574 8.0236-8.328 8.0236h-11.695v-11.75h-9.164v43.204h9.164v-23.524h7.7656l14.875 23.524h10.289l-16.086-24.359c7.0156-1.4933 12.156-7.6508 12.156-15.211 0-9.1468-7.106-16.43-16.18-16.43z" style="fill:#fff;stroke-width:4"/>
</svg>
