<svg width="192" height="192" version="1.1" viewBox="0 0 192 192" xmlns="http://www.w3.org/2000/svg">
 <rect x="32" y="8" width="128" height="176" rx="10.079" opacity=".63" stroke-width="1.0068" style="fill:#54688c;opacity:1"/>
 <path d="m80 48v16h4v8h4v8h-4v-8h-12v24h4v4h12v4h-8v4h-4v32h4v4h32v-4h4v-32h-4v-4h-8v-4h12v-4h4v-24h-12v8h-4v-8h4v-8h4v-16h-12v16 8h-8v-8-16h-12zm12 64h16v4h4v4h-4-16-4v-4h4v-4zm-4 16h8v8h-8v-8zm16 0h8v8h-8v-8z" style="fill:#96dfd3;paint-order:stroke fill markers"/>
</svg>
