<svg id="SVGRoot" width="16px" height="16px" version="1.1" viewBox="0 0 16 16" xmlns="http://www.w3.org/2000/svg">
 <path d="m14.029-0.021484a0.50084 0.50084 0 0 0-0.38281 0.16797l-1.3359 1.3359c-1.1872-0.92761-2.6804-1.4824-4.3105-1.4824-1.6302 0-3.1233 0.55481-4.3105 1.4824l-1.3359-1.3359a0.50084 0.50084 0 0 0-0.35938-0.15234 0.50084 0.50084 0 0 0-0.34766 0.85937l1.3008 1.3008c-1.2048 1.2562-1.9473 2.9596-1.9473 4.8457h14c0-1.8861-0.74246-3.5895-1.9473-4.8457l1.3008-1.3008a0.50084 0.50084 0 0 0-0.32422-0.875zm-9.5293 3.0215a0.5 0.5 0 0 1 0.5 0.5 0.5 0.5 0 0 1-0.5 0.5 0.5 0.5 0 0 1-0.5-0.5 0.5 0.5 0 0 1 0.5-0.5zm7 0a0.5 0.5 0 0 1 0.5 0.5 0.5 0.5 0 0 1-0.5 0.5 0.5 0.5 0 0 1-0.5-0.5 0.5 0.5 0 0 1 0.5-0.5zm-10.5 5v1 1 5c0 0.554 0.446 1 1 1h12c0.554 0 1-0.446 1-1v-5-1-1h-14z" style="fill:#ececec;paint-order:stroke fill markers"/>
</svg>
