<svg id="SVGRoot" width="16px" height="16px" version="1.1" viewBox="0 0 16 16" xmlns="http://www.w3.org/2000/svg">
 <path d="m7.9902 0c-0.46473 0.0018997-0.9143 0.16557-1.2715 0.46289l-6 5c-0.45581 0.38032-0.71914 0.94347-0.71875 1.5371v7c1.1044e-4 1.1045 0.89548 1.9999 2 2h12c1.1045-1.1e-4 1.9999-0.89548 2-2v-7c3.88e-4 -0.59364-0.26294-1.1568-0.71875-1.5371l-6-5c-0.36234-0.30162-0.81957-0.46556-1.291-0.46289z" style="color-rendering:auto;color:#000000;dominant-baseline:auto;fill:#ececec;font-feature-settings:normal;font-variant-alternates:normal;font-variant-caps:normal;font-variant-ligatures:normal;font-variant-numeric:normal;font-variant-position:normal;image-rendering:auto;isolation:auto;mix-blend-mode:normal;shape-padding:0;shape-rendering:auto;solid-color:#000000;text-decoration-color:#000000;text-decoration-line:none;text-decoration-style:solid;text-indent:0;text-orientation:mixed;text-transform:none;white-space:normal"/>
 <polygon transform="matrix(.65536 0 0 .65536 46.61 -33.586)" points="66.475 105.04 35.059 105.04 35.69 37.516 69.881 37.516 76 40.665 83.373 38.148 117.17 37.516 116.7 104.31 82.929 105.41 76 108.55" style="fill-opacity:0"/>
</svg>
