<svg id="SVGRoot" width="16px" height="16px" version="1.1" viewBox="0 0 16 16" xmlns="http://www.w3.org/2000/svg">
 <polygon transform="matrix(.65536 0 0 .65536 46.61 -33.586)" points="66.475 105.04 35.059 105.04 35.69 37.516 69.881 37.516 76 40.665 83.373 38.148 117.17 37.516 116.7 104.31 82.929 105.41 76 108.55" style="fill-opacity:0"/>
 <path d="m5.8338 0.37812 5.5104 9.6505h4.5836l-4.5505-8.0316c-0.46662-0.82356-1.8328-1.619-2.7778-1.619zm-0.94892 0.5564-4.5394 8.012c-0.46893 0.82762-0.47425 2.1359-0.012771 2.9653l1.3482 2.5235 5.5215-9.4505zm0.13282 10.084-2.3926 3.9813h9.1814c0.94632 0 2.3039-0.79909 2.7625-1.6233l1.3674-2.3579z" style="fill-rule:evenodd;fill:#ececec;stroke-width:.21797"/>
</svg>
