<svg id="SVGRoot" width="16px" height="16px" version="1.1" viewBox="0 0 16 16" xmlns="http://www.w3.org/2000/svg">
 <polygon transform="matrix(.65536 0 0 .65536 46.61 -33.586)" points="66.475 105.04 35.059 105.04 35.69 37.516 69.881 37.516 76 40.665 83.373 38.148 117.17 37.516 116.7 104.31 82.929 105.41 76 108.55" style="fill-opacity:0"/>
 <path d="m7.4132 9.4268c0.32965-0.31589 0.85249-0.3042 1.1677 0.026147l1.177 1.4427c0.14698 0.15401 0.22901 0.3589 0.22901 0.57198v3.7051c0 0.45705-0.36979 0.82766-0.82592 0.82759l-2.3531-3.45e-4c-0.45616-6.7e-5 -0.82592-0.37054-0.82592-0.82759v-3.7051c0-0.21309 0.082031-0.41799 0.22901-0.57198l1.1761-1.4424c0.00853-0.0089 0.017202-0.01762 0.026086-0.02615zm7.7609-3.4336c0.45616 0 0.82592 0.37054 0.82592 0.82759v2.3424c0 0.45708-0.36976 0.82759-0.82592 0.82759h-3.7213c-0.21151 0-0.41494-0.08131-0.5684-0.22716l-1.4427-1.1712c-0.35449-0.28777-0.34474-0.83838-0.030811-1.17 0.01-0.010567 0.020265-0.020855 0.030811-0.030873l1.4427-1.1712c0.15345-0.14585 0.35691-0.22716 0.5684-0.22716zm-10.627-3.69e-5c0.21151 0 0.41494 0.081305 0.5684 0.22716l1.4427 1.1713c0.010537 0.010009 0.020813 0.020306 0.030811 0.030873 0.31393 0.33162 0.30014 0.85543-0.030811 1.17l-1.4427 1.1712c-0.15345 0.14586-0.35691 0.22716-0.5684 0.22716h-3.7213c-0.45616 0-0.82592-0.37051-0.82592-0.82759v-2.3424c0-0.45705 0.36976-0.82759 0.82592-0.82759zm4.6128-5.9932c0.45613 0 0.82592 0.37051 0.82592 0.82759v3.7051c0 0.21309-0.08203 0.41796-0.22901 0.57198l-1.1761 1.4424c-0.31525 0.33032-0.83806 0.34204-1.1677 0.026148-0.00889-0.0085509-0.017588-0.017237-0.026086-0.026148l-1.1769-1.4424c-0.14698-0.15401-0.22901-0.3589-0.22901-0.57198v-3.7051c0-0.45708 0.36976-0.82759 0.82592-0.82759z" style="fill-rule:evenodd;fill:#ececec;stroke-width:.27558"/>
</svg>
