<svg id="SVGRoot" width="16px" height="16px" version="1.1" viewBox="0 0 16 16" xmlns="http://www.w3.org/2000/svg">
 <polygon transform="matrix(.65536 0 0 .65536 46.61 -33.586)" points="66.475 105.04 35.059 105.04 35.69 37.516 69.881 37.516 76 40.665 83.373 38.148 117.17 37.516 116.7 104.31 82.929 105.41 76 108.55" style="fill-opacity:0"/>
 <path d="m7.9414 0c-2.2366 0-4.0488 1.8575-4.0488 4.1484 0 2.2911 1.8123 4.1484 4.0488 4.1484 2.2366 0 4.0508-1.8575 4.0508-4.1484-1e-6 -2.2911-1.8143-4.1484-4.0508-4.1484zm0.058594 9.9688c-3.1897 0-4.5312 0.41016-4.5312 0.41016-1.2649 0.21914-2.4065 1.7195-2.4018 3.1123s1.2925 2.5087 2.7338 2.5087h8.4004c1.44 0 2.827-1.1138 2.8318-2.5065 0.0048-1.3927-1.2378-2.878-2.5018-3.1146 0 0-1.3415-0.41016-4.5312-0.41016z" style="fill-rule:evenodd;fill:#ececec;stroke-width:.2823"/>
</svg>
