<svg id="SVGRoot" width="16px" height="16px" version="1.1" viewBox="0 0 16 16" xmlns="http://www.w3.org/2000/svg">
 <path d="m8 2c-2.4666 0-4.501 1.7701-4.918 4.1133-1.7691 0.41391-3.082 1.9879-3.082 3.8867 0 2.216 1.784 4 4 4h3c0.085664 0 0.16571-0.020137 0.25-0.025391 0.08414 6e-3 0.16428 0.025391 0.25 0.025391h5c1.939 0 3.5-1.561 3.5-3.5 0-1.7676-1.3017-3.2081-3-3.4512v-0.048828c0-2.77-2.23-5-5-5z" style="fill:#ececec;paint-order:stroke fill markers"/>
 <polygon transform="matrix(.65536 0 0 .65536 46.61 -33.586)" points="66.475 105.04 35.059 105.04 35.69 37.516 69.881 37.516 76 40.665 83.373 38.148 117.17 37.516 116.7 104.31 82.929 105.41 76 108.55" style="fill-opacity:0"/>
 <polygon transform="matrix(.65536 0 0 .65536 -41.588 -36.633)" points="76 108.55 66.475 105.04 35.059 105.04 35.69 37.516 69.881 37.516 76 40.665 83.373 38.148 117.17 37.516 116.7 104.31 82.929 105.41" style="fill-opacity:0"/>
</svg>
