<svg id="SVGRoot" width="16px" height="16px" version="1.1" viewBox="0 0 16 16" xmlns="http://www.w3.org/2000/svg">
 <polygon transform="matrix(.65536 0 0 .65536 46.61 -33.586)" points="66.475 105.04 35.059 105.04 35.69 37.516 69.881 37.516 76 40.665 83.373 38.148 117.17 37.516 116.7 104.31 82.929 105.41 76 108.55" style="fill-opacity:0"/>
 <path d="m8 0c2.2052 0 4.0898 0.78204 5.6538 2.3462 1.564 1.5641 2.3462 3.4487 2.3462 5.6538 0 2.2052-0.78212 4.0898-2.3462 5.6538s-3.4487 2.3462-5.6538 2.3462c-2.2052 0-4.0898-0.78212-5.6538-2.3462-1.5641-1.564-2.3462-3.4487-2.3462-5.6538 0-2.2052 0.78204-4.0898 2.3462-5.6538 1.5641-1.5641 3.4487-2.3462 5.6538-2.3462zm-0.84616 14.808c0.051274-0.10259 0.12178-0.24358 0.21154-0.42315 0.089746-0.17939 0.16026-0.32038 0.21154-0.42296 0.051274-0.10259 0.07693-0.21158 0.07693-0.32696s-0.064115-0.22438-0.19232-0.32696c-0.41026-0.35896-0.70513-0.62814-0.88461-0.80772-0.051274-0.051199-0.12821-0.19859-0.23078-0.44235-0.10255-0.24358-0.14103-0.39096-0.11538-0.44216 0.12821-0.23078 0.23076-0.53854 0.30769-0.92311 0.076918-0.30776-0.089746-0.58974-0.50001-0.84612-0.17947-0.10259-0.35896-0.23078-0.53844-0.38475-0.1795-0.15379-0.37822-0.32038-0.59616-0.49995-0.21796-0.17939-0.39102-0.32047-0.51923-0.42304-0.46155-0.33334-0.71795-0.57692-0.76924-0.73077-0.23076-0.66667-0.35896-1.0257-0.3846-1.0769-0.23078-0.33333-0.3718-0.68589-0.42308-1.0577-0.051294-0.3718-0.038475-0.76282 0.038456-1.1731 0-0.17948-0.025637-0.49999-0.076931-0.96152-1.0769 1.2308-1.6154 2.7179-1.6154 4.4616 0 1.8974 0.66665 3.5128 2 4.8461 1.1026 1.1027 2.436 1.7564 4 1.9616zm5.6922-1.9616c0.89751-0.89732 1.5-1.9486 1.8078-3.1539l-0.73092-0.076804c-0.53835-0.61553-0.83332-1.1924-0.88452-1.7308-0.02559-0.23076-0.03858-0.58974-0.03858-1.0769 0-0.48719-0.02561-0.85897-0.07681-1.1154-0.051386-0.23077-0.22437-0.55128-0.51934-0.96154-0.29478-0.41026-0.46795-0.67949-0.51915-0.8077-0.076989-0.17948-0.19878-0.44872-0.36537-0.80768-0.16678-0.35898-0.30136-0.62822-0.40395-0.8077 0.02579 0 0.07059 0.012819 0.13478 0.038456 0.064 0.025656 0.10899 0.051294 0.13459 0.076931 0.25638-0.051274 0.43576-0.076931 0.53835-0.076931-0.82052-0.58974-1.7948-0.96152-2.9231-1.1154v0.30769l0.15398 0.34615-0.5385 0.50001-0.34615-0.11539-0.38462-0.38462-0.3846-0.46153-0.53847-0.1923c-0.53847 0.076913-1.1154 0.24358-1.7308 0.49999v0.26923c0.076918-0.051276 0.21794-0.10257 0.42308-0.15384 0.20512-0.051275 0.35896-0.10257 0.46153-0.15384 0.051274-0.025637 0.25641 0.089732 0.61538 0.34615-0.025643 0.025637-0.16666 0.14744-0.42308 0.36538-0.25641 0.21796-0.39744 0.36538-0.42308 0.44232 0 0.025638 0.044879 0.083331 0.13463 0.17308 0.089733 0.089732 0.13461 0.16024 0.13461 0.21154 0 0.076913-0.00641 0.18588-0.019223 0.32691-0.012841 0.14103-0.019236 0.25001-0.019236 0.32693 0.53847-0.53847 0.82052-0.80768 0.84616-0.80768 0.23076-0.051294 0.51281 0.057676 0.84615 0.32691 0.33333 0.26923 0.52563 0.49359 0.57692 0.67309 0.025644 0.076912-0.025643 0.18588-0.15384 0.32691-0.12821 0.14103-0.33335 0.32693-0.6154 0.5577-0.28205 0.23076-0.44872 0.37178-0.49999 0.42308-0.051299 0.051275-0.16666 0.13461-0.34616 0.25-0.17948 0.11539-0.30769 0.22436-0.3846 0.32693-0.07693 0.10255-0.089746 0.21794-0.038471 0.34615 0.25641 0.51283 0.32053 0.82052 0.19232 0.92309-0.051299 0.051276-0.11539 0.057694-0.19232 0.019219-0.076918-0.038456-0.13461-0.083332-0.17306-0.13461-0.038471-0.051294-0.089746-0.11539-0.15385-0.19232-0.064115-0.076912-0.10898-0.12819-0.13463-0.15384-0.15385-0.17948-0.64102-0.26923-1.4615-0.26923 0 0.82052 0.1923 1.3718 0.57692 1.6539 1.0513 0.76926 1.6539 1.1922 1.8077 1.2692 0.15385 0.076993 0.46153 0.076993 0.92307 0s0.7564-0.064002 0.88461 0.038396c0.84608 0.58974 1.4488 0.96169 1.8078 1.1155 0.23078 0.07699 0.48715 0.24998 0.76913 0.51915 0.28216 0.26936 0.35896 0.49374 0.23078 0.67313-0.33336 0.51275-0.51275 0.80772-0.53835 0.88471-0.20518 0.43576-0.46155 0.75633-0.76932 0.96151-0.33336 0.25638-0.60254 0.62814-0.80772 1.1153 1.3847-0.28198 2.5641-0.91012 3.5384-1.8846z" style="clip-rule:evenodd;fill-rule:evenodd;fill:#ececec;stroke-width:.18824"/>
</svg>
