<svg id="SVGRoot" width="16px" height="16px" version="1.1" viewBox="0 0 16 16" xmlns="http://www.w3.org/2000/svg">
 <polygon transform="matrix(.65536 0 0 .65536 46.61 -33.586)" points="66.475 105.04 35.059 105.04 35.69 37.516 69.881 37.516 76 40.665 83.373 38.148 117.17 37.516 116.7 104.31 82.929 105.41 76 108.55" style="fill-opacity:0"/>
 <path d="m2 0c-1.108 0-2 0.892-2 2v12c0 1.108 0.892 2 2 2h12c1.108 0 2-0.892 2-2v-12c0-1.108-0.892-2-2-2zm8.209 7.7 4 5.334h-12.418l3.084-4 2.25 2.666z" style="fill:#ececec;paint-order:stroke fill markers"/>
</svg>
