<svg id="SVGRoot" width="16px" height="16px" version="1.1" viewBox="0 0 16 16" xmlns="http://www.w3.org/2000/svg">
 <polygon transform="matrix(.65536 0 0 .65536 46.61 -33.586)" points="66.475 105.04 35.059 105.04 35.69 37.516 69.881 37.516 76 40.665 83.373 38.148 117.17 37.516 116.7 104.31 82.929 105.41 76 108.55" style="fill-opacity:0"/>
 <path d="m8 15.5-1.1643-1.0742c-1.3271-1.2276-2.2911-2.1355-2.892-2.7238-0.60094-0.58826-1.2707-1.3172-2.0094-2.1867-0.73867-0.86958-1.2457-1.656-1.5211-2.3593-0.27543-0.7033-0.41316-1.4259-0.41316-2.1675 0-1.2532 0.41942-2.3146 1.2582-3.1841 0.83883-0.86958 1.8842-1.3043 3.1362-1.3043 1.4523 0 2.6542 0.57544 3.6056 1.7263 0.95151-1.1509 2.1533-1.7263 3.6056-1.7263 1.252 0 2.2973 0.43479 3.1362 1.3043 0.83883 0.86958 1.2582 1.931 1.2582 3.1841 0 0.99745-0.3255 2.0332-0.97653 3.1074-0.65102 1.0742-1.3584 2.0077-2.1221 2.8005-0.76369 0.79283-2.0094 1.9821-3.7371 3.5678z" style="fill-rule:evenodd;fill:#ececec;stroke-width:.40012"/>
</svg>
