<svg id="SVGRoot" width="16px" height="16px" version="1.1" viewBox="0 0 16 16" xmlns="http://www.w3.org/2000/svg">
 <polygon transform="matrix(.65536 0 0 .65536 46.61 -33.586)" points="66.475 105.04 35.059 105.04 35.69 37.516 69.881 37.516 76 40.665 83.373 38.148 117.17 37.516 116.7 104.31 82.929 105.41 76 108.55" style="fill-opacity:0"/>
 <path d="m11.572 0.5c-0.31719 0-0.57227 0.25508-0.57227 0.57227v0.048828c-2.9511 0.26249-3 0.87891-3 0.87891s0-1-6-1c-1 0-1 1-1 1h-0.40625c-0.32894 0-0.59375 0.26481-0.59375 0.59375v10.812c0 0.32894 0.26481 0.59375 0.59375 0.59375h10.41l0.001953 0.49609a0.50005 0.50005 0 0 0 0.76758 0.41992l0.22461-0.14062 0.21875 0.14062a0.50005 0.50005 0 0 0 0.76953-0.41602l0.00586-0.5h2.4141c0.32894 0 0.59375-0.26481 0.59375-0.59375v-10.812c0-0.32894-0.26481-0.59375-0.59375-0.59375h-0.40625s0-1-1-1c-0.38239 0-0.67456 0.013878-1.0098 0.021484-0.02682-0.29191-0.26336-0.52148-0.5625-0.52148h-0.85547zm-9.5723 1.5c5 0 5.6992 0.80078 5.6992 0.80078v10.199c-2e-7 0-0.69922-1-5.6992-1v-10zm12 0v10c-0.37123 0-0.6742 0.015184-1 0.025391v-10.004c0.32581-0.0081733 0.62877-0.021484 1-0.021484zm-3.0078 0.125c0.002271-2.204e-4 0.005537 2.2e-4 0.007812 0v10.031c-2.3263 0.28097-2.75 0.84375-2.75 0.84375v-10.199s0.42188-0.45056 2.7422-0.67578zm-7.7266 1.3438c-0.14716 0-0.26562 0.11847-0.26562 0.26562s0.11847 0.26562 0.26562 0.26562h3.4688c0.14716 0 0.26562-0.11847 0.26562-0.26562s-0.11847-0.26562-0.26562-0.26562h-3.4688zm0 2c-0.14716 0-0.26562 0.11847-0.26562 0.26562s0.11847 0.26562 0.26562 0.26562h3.4688c0.14716 0 0.26562-0.11847 0.26562-0.26562s-0.11847-0.26562-0.26562-0.26562h-3.4688zm0 2c-0.14716 0-0.26562 0.11847-0.26562 0.26562s0.11847 0.26562 0.26562 0.26562h3.4688c0.14716 0 0.26562-0.11847 0.26562-0.26562s-0.11847-0.26562-0.26562-0.26562h-3.4688zm0 2c-0.14716 0-0.26562 0.11847-0.26562 0.26562s0.11847 0.26562 0.26562 0.26562h3.4688c0.14716 0 0.26562-0.11847 0.26562-0.26562s-0.11847-0.26562-0.26562-0.26562h-3.4688z" style="fill:#ececec;paint-order:stroke fill markers"/>
</svg>
