<svg id="SVGRoot" width="16px" height="16px" version="1.1" viewBox="0 0 16 16" xmlns="http://www.w3.org/2000/svg">
 <polygon transform="matrix(.65536 0 0 .65536 46.61 -33.586)" points="66.475 105.04 35.059 105.04 35.69 37.516 69.881 37.516 76 40.665 83.373 38.148 117.17 37.516 116.7 104.31 82.929 105.41 76 108.55" style="fill-opacity:0"/>
 <polygon transform="matrix(.65536 0 0 .65536 -41.588 -36.633)" points="76 108.55 66.475 105.04 35.059 105.04 35.69 37.516 69.881 37.516 76 40.665 83.373 38.148 117.17 37.516 116.7 104.31 82.929 105.41" style="fill-opacity:0"/>
 <path d="m12.922-0.0062834-4.0164 1.3292 1.3002 4.0452 1.1558-2.2538s2.9209 1.6145 2.8895 5.4033c-0.030741 3.7026-3.3862 6.004-6.1546 6.0101-3.0581 0.006784-6.0375-2.5483-6.1546-5.7212-0.0966-2.618 0.88848-4.0729 2.4012-5.3908 1.0422-0.90796 2.9412-1.279 3.7534-1.284v-1.358c-1.2138 0.027934-2.9253 0.22954-4.525 1.4394-1.5997 1.2099-3.1743 3.2836-3.0455 6.4489 0.17362 4.2647 3.7074 7.2641 7.5415 7.2526 3.4021-0.010237 7.0807-2.3338 7.5416-6.8769 0.49888-4.9175-3.6119-7.1948-3.6119-7.1948zm-5.2051 3.4573a0.2664 0.2664 0 0 0-0.26237 0.27012v5.2589a0.2664 0.2664 0 0 0 0.13121 0.22954l3.0918 1.8203a0.2664 0.2664 0 1 0 0.27027-0.45908l-2.9605-1.7431v-5.1066a0.2664 0.2664 0 0 0-0.27038-0.27012z" style="fill:#ececec"/>
</svg>
