<svg id="SVGRoot" width="16px" height="16px" version="1.1" viewBox="0 0 16 16" xmlns="http://www.w3.org/2000/svg">
 <polygon transform="matrix(.65536 0 0 .65536 46.61 -33.586)" points="66.475 105.04 35.059 105.04 35.69 37.516 69.881 37.516 76 40.665 83.373 38.148 117.17 37.516 116.7 104.31 82.929 105.41 76 108.55" style="fill-opacity:0"/>
 <path d="m15 11.223c0 1.6115-1.309 2.9178-2.9237 2.9178-1.6148 0-2.9237-1.3064-2.9237-2.9178 0-1.6114 1.309-2.9178 2.9237-2.9178 0.39852 0 0.57885 0.079571 0.92503 0.22366l-6.7e-5 -6.3426-5.9481 1.4638 1.831e-4 9.3685c0 1.5867-1.4686 2.8776-3.0491 2.9168l-0.07431 9.74e-4c-1.6148-5.2e-5 -2.9237-1.3064-2.9237-2.9178 0-1.6114 1.309-2.9178 2.9237-2.9178 0.39852 0 0.67817 0.07957 1.0244 0.22366l-6.52e-5 -8.0794 10.046-2.2445z" style="fill-rule:evenodd;fill:#ececec;stroke-width:.24397"/>
</svg>
