<svg id="SVGRoot" width="16px" height="16px" version="1.1" viewBox="0 0 16 16" xmlns="http://www.w3.org/2000/svg">
 <polygon transform="matrix(.65536 0 0 .65536 46.61 -33.586)" points="66.475 105.04 35.059 105.04 35.69 37.516 69.881 37.516 76 40.665 83.373 38.148 117.17 37.516 116.7 104.31 82.929 105.41 76 108.55" style="fill-opacity:0"/>
 <path d="m8 0c-3.46 0-6.0828 1.6342-5.998 3.3086 0.092816 1.8345 0.26397 3.5023 0.41016 5.1758 0.16729 1.9149 0.25334 2.8751 0.43555 4.6465 0.22215 2.1598 2.5018 2.8732 5.1523 2.8594 2.6505 0.01385 4.9282-0.6996 5.1504-2.8594 0.18221-1.7714 0.26826-2.7315 0.43555-4.6465 0.14618-1.6734 0.31734-3.3413 0.41016-5.1758 0.084712-1.6743-2.5361-3.3086-5.9961-3.3086zm0.00977 1.065c2.7908 2.641e-4 5.0528 1.0263 5.0527 2.4155 1.1e-4 1.3891-2.262 2.5154-5.0527 2.5156-2.7915 2.728e-4 -5.0548-1.1261-5.0547-2.5156-1.099e-4 -1.3895 2.2631-2.4157 5.0547-2.4155z" style="fill:#ececec;stroke-width:.37378"/>
</svg>
