<svg id="SVGRoot" width="16px" height="16px" version="1.1" viewBox="0 0 16 16" xmlns="http://www.w3.org/2000/svg">
 <polygon transform="matrix(.65536 0 0 .65536 46.61 -33.586)" points="66.475 105.04 35.059 105.04 35.69 37.516 69.881 37.516 76 40.665 83.373 38.148 117.17 37.516 116.7 104.31 82.929 105.41 76 108.55" style="fill-opacity:0"/>
 <path d="m8.0046 0.36902c-0.15266-0.0016107-0.29273 0.08441-0.36024 0.22126l-2.2574 4.5702-5.0468 0.7329c-0.32558 0.047316-0.45553 0.44724-0.21985 0.67668l3.6518 3.5572-0.86187 5.023c-0.055747 0.32413 0.28469 0.57138 0.57596 0.41828l4.5137-2.3715 4.5142 2.3715c0.29112 0.15243 0.63088-0.09454 0.57544-0.41828l-0.86187-5.023 3.6518-3.5572c0.23569-0.22944 0.10573-0.62936-0.21985-0.67668l-5.0468-0.7329-2.2568-4.5702c-0.066096-0.13402-0.20197-0.21954-0.35146-0.22126z" style="color-rendering:auto;color:#000000;dominant-baseline:auto;fill-rule:evenodd;fill:#ececec;font-feature-settings:normal;font-variant-alternates:normal;font-variant-caps:normal;font-variant-ligatures:normal;font-variant-numeric:normal;font-variant-position:normal;image-rendering:auto;isolation:auto;mix-blend-mode:normal;shape-padding:0;shape-rendering:auto;solid-color:#000000;text-decoration-color:#000000;text-decoration-line:none;text-decoration-style:solid;text-indent:0;text-orientation:mixed;text-transform:none;white-space:normal"/>
</svg>
