<?xml version="1.0" encoding="UTF-8" standalone="no"?>
<svg
   xmlns:dc="http://purl.org/dc/elements/1.1/"
   xmlns:cc="http://creativecommons.org/ns#"
   xmlns:rdf="http://www.w3.org/1999/02/22-rdf-syntax-ns#"
   xmlns:svg="http://www.w3.org/2000/svg"
   xmlns="http://www.w3.org/2000/svg"
   xmlns:sodipodi="http://sodipodi.sourceforge.net/DTD/sodipodi-0.dtd"
   xmlns:inkscape="http://www.inkscape.org/namespaces/inkscape"
   width="192"
   height="192"
   viewBox="0 0 192 192"
   version="1.1"
   id="svg861"
   sodipodi:docname="folder-books.svg"
   inkscape:version="0.92.4 (f8dce91, 2019-08-02)">
  <metadata
     id="metadata867">
    <rdf:RDF>
      <cc:Work
         rdf:about="">
        <dc:format>image/svg+xml</dc:format>
        <dc:type
           rdf:resource="http://purl.org/dc/dcmitype/StillImage" />
        <dc:title></dc:title>
      </cc:Work>
    </rdf:RDF>
  </metadata>
  <defs
     id="defs865" />
  <sodipodi:namedview
     pagecolor="#ffffff"
     bordercolor="#666666"
     borderopacity="1"
     objecttolerance="10"
     gridtolerance="10"
     guidetolerance="10"
     inkscape:pageopacity="0"
     inkscape:pageshadow="2"
     inkscape:window-width="1920"
     inkscape:window-height="1004"
     id="namedview863"
     showgrid="false"
     inkscape:zoom="2.9794239"
     inkscape:cx="5.8530404"
     inkscape:cy="102.08685"
     inkscape:window-x="0"
     inkscape:window-y="0"
     inkscape:window-maximized="1"
     inkscape:current-layer="svg861" />
  <rect
     style="fill:#728dbe;fill-rule:evenodd"
     id="rect855"
     rx="10"
     y="20"
     x="20"
     height="152"
     width="152" />
  <path
     style="fill:#9abeff;fill-rule:evenodd"
     inkscape:connector-curvature="0"
     id="path857"
     d="M 20,42.996537 C 20,37.475602 24.477592,33 29.998474,33 h 33.568298 c 8.458718,0 11.573767,13.256422 15.366043,13.256422 h 83.064475 c 5.52434,0 10.00271,4.475281 10.00271,9.998342 V 162.00166 C 172,167.52359 167.523,172 161.99748,172 H 30.002517 C 24.478279,172 20,167.53265 20,162.00346 Z" />
  <polygon
     id="polygon2280"
     points="83.373,38.148 117.168,37.516 116.695,104.308 82.929,105.413 76,108.552 66.475,105.038 35.059,105.038 35.69,37.516 69.881,37.516 76,40.665 "
     style="fill:#ff0000;fill-opacity:0"
     transform="matrix(0.6553622,0,0,0.6553622,46.192466,58.129119)" />
  <path
     id="path2282"
     d="m 75.080834,95.368332 h 15.252742 c 0.735926,0 1.332515,-0.596587 1.332515,-1.332513 0,-0.735927 -0.596589,-1.332514 -1.332515,-1.332514 H 75.080834 c -0.735926,0 -1.332516,0.596587 -1.332516,1.332514 0,0.735926 0.59659,1.332513 1.332516,1.332513 z m 0,5.330048 h 15.252742 c 0.735926,0 1.332515,-0.59658 1.332515,-1.332509 0,-0.735927 -0.596589,-1.332513 -1.332515,-1.332513 H 75.080834 c -0.735926,0 -1.332516,0.596586 -1.332516,1.332513 0,0.735929 0.59659,1.332509 1.332516,1.332509 z m 0,5.33653 h 15.252742 c 0.735926,0 1.332515,-0.59659 1.332515,-1.33252 0,-0.73592 -0.596589,-1.33251 -1.332515,-1.33251 H 75.080834 c -0.735926,0 -1.332516,0.59659 -1.332516,1.33251 0,0.73593 0.59659,1.33252 1.332516,1.33252 z m 0,5.33005 h 15.252742 c 0.735926,0 1.332515,-0.59659 1.332515,-1.33251 0,-0.73593 -0.596589,-1.33252 -1.332515,-1.33252 H 75.080834 c -0.735926,0 -1.332516,0.59658 -1.332516,1.33252 0,0.73592 0.59659,1.33251 1.332516,1.33251 z m 0,5.33652 h 15.252742 c 0.735926,0 1.332515,-0.59659 1.332515,-1.33252 0,-0.73592 -0.596589,-1.33251 -1.332515,-1.33251 H 75.080834 c -0.735926,0 -1.332516,0.59659 -1.332516,1.33251 0,0.73593 0.59659,1.33252 1.332516,1.33252 z"
     inkscape:connector-curvature="0"
     style="fill:#728dbe;stroke-width:0.65536219;fill-opacity:1" />
  <path
     id="path2284"
     d="m 75.080834,116.70148 h 15.252742 c 0.735926,0 1.332515,-0.59659 1.332515,-1.33252 0,-0.73592 -0.596589,-1.33251 -1.332515,-1.33251 H 75.080834 c -0.735926,0 -1.332516,0.59659 -1.332516,1.33251 0,0.73593 0.59659,1.33252 1.332516,1.33252 z m 0,5.33005 h 15.252742 c 0.735926,0 1.332515,-0.59659 1.332515,-1.33251 0,-0.73593 -0.596589,-1.33252 -1.332515,-1.33252 H 75.080834 c -0.735926,0 -1.332516,0.59659 -1.332516,1.33252 0,0.73592 0.59659,1.33251 1.332516,1.33251 z m 0,-32.090278 h 15.252742 c 0.735926,0 1.332515,-0.596587 1.332515,-1.332513 0,-0.735927 -0.596589,-1.332514 -1.332515,-1.332514 H 75.080834 c -0.735926,0 -1.332516,0.596587 -1.332516,1.332514 0,0.735926 0.59659,1.332513 1.332516,1.332513 z"
     inkscape:connector-curvature="0"
     style="fill:#728dbe;stroke-width:0.65536219;fill-opacity:1" />
  <path
     id="path2286"
     d="m 126.66074,83.938474 h -2.64563 v -1.332513 c 0,-0.735926 -0.59658,-1.332513 -1.33251,-1.332513 h -8.02096 v -1.332513 c 0.004,-0.722419 -0.57148,-1.314902 -1.29369,-1.332513 h -5.33653 c -0.3534,0 -0.69234,0.14039 -0.94222,0.390284 -0.2499,0.249895 -0.39029,0.588825 -0.39029,0.942229 v 1.332513 h -0.99615 c -5.58879,0 -8.370256,1.144927 -9.702765,2.12814 -1.358389,-0.983213 -4.139851,-2.12814 -9.702768,-2.12814 H 69.317388 c -0.735926,0 -1.332508,0.596587 -1.332508,1.332513 v 1.332513 h -2.645625 c -0.35851,-3.7e-5 -0.702057,0.143694 -0.953729,0.399015 -0.251673,0.255321 -0.390446,0.600902 -0.385393,0.959373 v 45.279568 c 0.0039,0.73697 0.602141,1.33252 1.339122,1.33251 h 26.35271 c 0.847377,0.40105 2.943173,1.33252 4.30803,1.33252 1.364851,0 3.460653,-0.93147 4.308025,-1.33252 h 6.35855 v 3.99754 c -1.6e-4,0.46469 0.24063,0.89623 0.63616,1.14014 0.39553,0.24391 0.88924,0.26531 1.30439,0.0566 l 2.06992,-1.03496 2.06993,1.03496 c 0.18775,0.0899 0.39338,0.13637 0.60157,0.13584 0.72073,-0.021 1.29401,-0.61148 1.2937,-1.33252 v -3.97167 h 12.0185 c 0.73698,2e-5 1.33541,-0.59554 1.33912,-1.3325 V 85.296862 c 0.005,-0.358471 -0.13372,-0.704052 -0.3854,-0.959373 -0.25167,-0.255321 -0.59522,-0.399052 -0.95372,-0.399015 z m -11.99262,0 h 6.68197 v 41.327306 h -6.68197 z m -17.335616,1.817652 c 0.562766,-0.504544 2.587409,-1.817652 8.409066,-1.817652 h 0.93793 v 41.327306 h -1.33251 c -3.33775,0 -6.028654,0.64685 -8.00155,1.94056 z m -26.6826,-1.817652 h 15.647323 c 5.821661,0 7.833367,1.293702 8.409063,1.817652 v 41.456684 c -1.940553,-1.29371 -4.663793,-1.94056 -8.001546,-1.94056 h -16.05484 z"
     inkscape:connector-curvature="0"
     style="fill:#728dbe;stroke-width:0.65536219;fill-opacity:1" />
</svg>
