<svg xmlns="http://www.w3.org/2000/svg" width="192" height="192" viewBox="0 0 192 192">
  <g fill="none" fill-rule="evenodd">
    <rect width="152" height="152" x="20" y="20" fill="#728DBE" rx="10"/>
    <path fill="#9ABEFF" d="M20,42.9965372 C20,37.4756022 24.4775919,33 29.9984742,33 L63.5667725,33 C72.0254898,33 75.1405393,46.256422 78.9328151,46.256422 L161.997289,46.256422 C167.521634,46.256422 172,50.7317026 172,56.254764 L172,162.001658 C172,167.52359 167.522997,172 161.997483,172 L30.0025173,172 C24.4782795,172 20,167.532652 20,162.003463 L20,42.9965372 Z"/>
    <path fill="#728DBE" d="M129.22093,136.39423 L129.22093,141.847718 L63.7790698,141.847718 L63.7790698,136.39423 L129.22093,136.39423 Z M122.988372,126.231999 L122.988372,131.685487 L70.0116279,131.685487 L70.0116279,126.231999 L122.988372,126.231999 Z M77.8023256,98.1511628 L77.8023256,121.523256 L70.0116279,121.523256 L70.0116279,98.1511628 L77.8023256,98.1511628 Z M100.395349,98.1511628 L100.395349,121.523256 L92.6046512,121.523256 L92.6046512,98.1511628 L100.395349,98.1511628 Z M122.988372,98.1511628 L122.988372,121.523256 L115.197674,121.523256 L115.197674,98.1511628 L122.988372,98.1511628 Z M96.5,74 L130,93.44242 L63,93.44242 L96.5,74 Z"/>
  </g>
</svg>
