<svg xmlns="http://www.w3.org/2000/svg" width="192" height="192" viewBox="0 0 192 192">
  <g fill="none" fill-rule="evenodd">
    <rect width="152" height="152" x="20" y="20" fill="#728DBE" rx="10"/>
    <path fill="#9ABEFF" d="M20,42.9965372 C20,37.4756022 24.4775919,33 29.9984742,33 L63.5667725,33 C72.0254898,33 75.1405393,46.256422 78.9328151,46.256422 L161.997289,46.256422 C167.521634,46.256422 172,50.7317026 172,56.254764 L172,162.001658 C172,167.52359 167.522997,172 161.997483,172 L30.0025173,172 C24.4782795,172 20,167.532652 20,162.003463 L20,42.9965372 Z"/>
    <path fill="#728DBE" d="M124,121.001006 C124,127.606476 118.634413,132.961268 112.015625,132.961268 C105.396837,132.961268 100.03125,127.606476 100.03125,121.001006 C100.03125,114.395536 105.396837,109.040744 112.015625,109.040744 C113.649108,109.040744 115.206261,109.366893 116.625269,109.957497 L116.625,83.96 L88.968,89.96 L88.96875,128.361167 C88.96875,134.865014 83.7669876,140.15637 77.2889527,140.317641 L76.984375,140.321429 C70.3655875,140.321429 65,134.966637 65,128.361167 C65,121.755697 70.3655875,116.400905 76.984375,116.400905 C78.6178578,116.400905 80.1750111,116.727054 81.5940186,117.317658 L81.59375,84.2002012 L124,75 Z"/>
  </g>
</svg>
