<svg width="192" height="192" version="1.1" viewBox="0 0 192 192" xmlns="http://www.w3.org/2000/svg">
 <rect x="20" y="20" width="152" height="152" rx="10" style="fill-rule:evenodd;fill:#728dbe"/>
 <path d="m20 42.997c0-5.5209 4.4776-9.9965 9.9985-9.9965h33.568c8.4587 0 11.574 13.256 15.366 13.256h83.064c5.5243 0 10.003 4.4753 10.003 9.9983v105.75c0 5.5219-4.477 9.9983-10.003 9.9983h-131.99c-5.5242 0-10.003-4.4674-10.003-9.9965z" style="fill-rule:evenodd;fill:#9abeff"/>
 <path d="m125.47 85.81-16.393-16.31h-35.076c-4.1426 0-7.506 3.3622-7.506 7.5055v68.335c0 4.1504 3.3537 7.5055 7.4961 7.5055h43.983c4.1412 0 7.4961-3.3566 7.4961-7.4994z" style="fill:none;stroke-width:5;stroke:#728dbe"/>
 <path d="m108 70.554c0-3.3145 1.9047-4.0968 4.2415-1.76l13.857 13.857c2.3425 2.3425 1.5467 4.2415-1.76 4.2415h-10.337c-3.3146 0-6.0015-2.6948-6.0015-6.0015z" style="fill-rule:evenodd;fill:#728dbe"/>
</svg>
