<svg xmlns="http://www.w3.org/2000/svg" width="192" height="192" viewBox="0 0 192 192">
  <g fill="none" fill-rule="evenodd">
    <rect width="152" height="152" x="20" y="20" fill="#728DBE" rx="10"/>
    <path fill="#9ABEFF" d="M20,42.9965372 C20,37.4756022 24.4775919,33 29.9984742,33 L63.5667725,33 C72.0254898,33 75.1405393,46.256422 78.9328151,46.256422 L161.997289,46.256422 C167.521634,46.256422 172,50.7317026 172,56.254764 L172,162.001658 C172,167.52359 167.522997,172 161.997483,172 L30.0025173,172 C24.4782795,172 20,167.532652 20,162.003463 L20,42.9965372 Z"/>
    <g fill="#728DBE" stroke="#9ABEFF" stroke-linecap="round" stroke-linejoin="round" stroke-width="5" transform="translate(56 72)">
      <path d="M11.3147909,49.2749088 L11.3147909,72.9999088 L57.8006734,72.9999088 C63.3241699,72.9999088 69.9812102,69.0822075 72.6600263,64.2666685 L80.9997297,49.2749088 L11.3147909,49.2749088 Z"/>
      <path d="M26.0356154,-9.12500001e-05 L3.04353937,40.5789546 C0.322363283,45.3815975 0.295850244,53.19261 2.97475776,58.008149 L11.3147459,72.9999087 L43.1574102,17.3424275 L26.0356154,-9.12500001e-05 Z"/>
      <path d="M26.0356154,-9.12500001e-05 L54.2295942,49.2749087 L80.9996847,49.2749087 L58.0079796,8.69586286 C55.2868474,3.89322002 48.5997792,-9.12500001e-05 43.0870956,-9.12500001e-05 L26.0356154,-9.12500001e-05 Z"/>
    </g>
  </g>
</svg>
