<svg width="192" height="192" version="1.1" viewBox="0 0 192 192" xmlns="http://www.w3.org/2000/svg">
 <rect x="20" y="20" width="152" height="152" rx="10" style="fill-rule:evenodd;fill:#728dbe"/>
 <path d="m20 42.997c0-5.5209 4.4776-9.9965 9.9985-9.9965h33.568c8.4587 0 11.574 13.256 15.366 13.256h83.064c5.5243 0 10.003 4.4753 10.003 9.9983v105.75c0 5.5219-4.477 9.9983-10.003 9.9983h-131.99c-5.5242 0-10.003-4.4674-10.003-9.9965z" style="fill-rule:evenodd;fill:#9abeff"/>
 <polygon transform="matrix(.65536 0 0 .65536 46.192 58.129)" points="83.373 38.148 117.17 37.516 116.7 104.31 82.929 105.41 76 108.55 66.475 105.04 35.059 105.04 35.69 37.516 69.881 37.516 76 40.665" style="fill-opacity:0"/>
 <path d="m123.04 140.09c8.8537-0.232 15.959-7.3927 15.959-16.192 0-8.9459-7.3434-16.198-16.402-16.198-0.1595 0-0.31846 3e-3 -0.47687 7e-3 0.0223-0.43724 0.0335-0.87736 0.0335-1.3201 0-14.265-11.71-25.829-26.155-25.829-12.823 0-23.49 9.1127-25.724 21.138-9.7225 1.0925-17.276 9.2442-17.276 19.138 0 10.638 8.7328 19.262 19.505 19.262h50.536v-6e-3z" style="fill-rule:evenodd;fill:#728dbe;stroke-width:.85149"/>
</svg>
