<svg width="192" height="192" version="1.1" viewBox="0 0 192 192" xmlns="http://www.w3.org/2000/svg">
 <rect x="20" y="20" width="152" height="152" rx="10" style="fill-rule:evenodd;fill:#ff837d"/>
 <path d="m172 55.069v-25.067c0-5.5255-4.4783-10.003-10.003-10.003h-131.99c-5.5255 0-10.003 4.4783-10.003 10.003v11.864c0.59774-4.9892 4.8601-8.8668 9.9985-8.8668h33.568c8.4587 0 11.574 13.256 15.366 13.256h83.064c5.1232 0 9.3771 3.8475 10.003 8.8127zm-75.719 70.649-2.9409-2.6563c-3.3521-3.0358-5.787-5.281-7.3049-6.7357-1.5179-1.4547-3.2097-3.2572-5.0755-5.4075-1.8658-2.1504-3.1465-4.0952-3.8422-5.8344s-1.0436-3.526-1.0436-5.3601c0-3.0991 1.0594-5.7238 3.1781-7.8741 2.1188-2.1504 4.7592-3.2255 7.9216-3.2255 3.6683 0 6.7041 1.423 9.1074 4.2691 2.4034-2.8461 5.4391-4.2691 9.1074-4.2691 3.1623 0 5.8028 1.0752 7.9216 3.2255 2.1188 2.1504 3.1781 4.7751 3.1781 7.8741 0 2.4666-0.82219 5.028-2.4666 7.6844-1.6444 2.6563-3.4311 4.9648-5.3601 6.9254-1.929 1.9606-5.0755 4.9015-9.4395 8.8228z" style="fill-rule:evenodd;opacity:.25"/>
</svg>
