<svg xmlns="http://www.w3.org/2000/svg" width="192" height="192" viewBox="0 0 192 192">
  <g fill="none" fill-rule="evenodd">
    <rect width="152" height="152" x="20" y="20" fill="#728DBE" rx="10"/>
    <path fill="#9ABEFF" d="M20,42.9965372 C20,37.4756022 24.4775919,33 29.9984742,33 L63.5667725,33 C72.0254898,33 75.1405393,46.256422 78.9328151,46.256422 L161.997289,46.256422 C167.521634,46.256422 172,50.7317026 172,56.254764 L172,162.001658 C172,167.52359 167.522997,172 161.997483,172 L30.0025173,172 C24.4782795,172 20,167.532652 20,162.003463 L20,42.9965372 Z"/>
    <path stroke="#728DBE" stroke-width="5" d="M125.474919,85.8100557 L109.082039,69.5 L74.0060221,69.5 C69.8633999,69.5 66.5,72.8621563 66.5,77.0055355 L66.5,145.340782 C66.5,149.491165 69.853734,152.846317 73.9960811,152.846317 L117.978838,152.846317 C122.119999,152.846317 125.474919,149.489764 125.474919,145.346915 L125.474919,85.8100557 Z"/>
    <path fill="#728DBE" d="M108,70.553597 C108,67.2390495 109.904734,66.456812 112.241485,68.7935629 L126.098963,82.651041 C128.441471,84.9935485 127.645668,86.8925259 124.338929,86.8925259 L114.001519,86.8925259 C110.686972,86.8925259 108,84.1977459 108,80.8910069 L108,70.553597 Z"/>
  </g>
</svg>
