<svg width="192" height="192" version="1.1" viewBox="0 0 192 192" xmlns="http://www.w3.org/2000/svg">
 <rect x="20" y="20" width="152" height="152" rx="10" style="fill-rule:evenodd;fill:#728dbe"/>
 <path d="m20 42.997c0-5.5209 4.4776-9.9965 9.9985-9.9965h33.568c8.4587 0 11.574 13.256 15.366 13.256h83.064c5.5243 0 10.003 4.4753 10.003 9.9983v105.75c0 5.5219-4.477 9.9983-10.003 9.9983h-131.99c-5.5242 0-10.003-4.4674-10.003-9.9965z" style="fill-rule:evenodd;fill:#9abeff"/>
 <polygon transform="matrix(.65536 0 0 .65536 46.192 58.129)" points="83.373 38.148 117.17 37.516 116.7 104.31 82.929 105.41 76 108.55 66.475 105.04 35.059 105.04 35.69 37.516 69.881 37.516 76 40.665" style="fill-opacity:0"/>
 <path transform="scale(-1)" d="m-96-76.624-8.891-18.015-19.881-2.8889 14.386-14.023-3.396-19.8 17.782 9.3485 17.782-9.3485-3.396 19.8 14.386 14.023-19.881 2.8889z" style="fill-rule:evenodd;fill:#728dbe;stroke-linejoin:round;stroke-width:3.004;stroke:#728dbe"/>
</svg>
