<svg width="192" height="192" version="1.1" viewBox="0 0 192 192" xmlns="http://www.w3.org/2000/svg">
 <path d="m96 63.93a32.068 32.068 0 0 0-32.07 32.07 32.068 32.068 0 0 0 32.07 32.07 32.068 32.068 0 0 0 32.07-32.07 32.068 32.068 0 0 0-32.07-32.07zm0 20.07a12 12 0 0 1 12 12 12 12 0 0 1-12 12 12 12 0 0 1-12-12 12 12 0 0 1 12-12z" style="fill:#fff;opacity:.25;paint-order:stroke fill markers;stroke-width:4.5811"/>
 <path d="m96 8a88 88 0 0 0-88 88 88 88 0 0 0 88 88 88 88 0 0 0 88-88 88 88 0 0 0-88-88zm0 60a28 28 0 0 1 28 28 28 28 0 0 1-28 28 28 28 0 0 1-28-28 28 28 0 0 1 28-28z" style="fill:#ccc;stroke-width:4"/>
 <path d="m142.62 21.414-31.797 50.875a28 28 0 0 1 13.18 23.711 28 28 0 0 1-1.4609 8.8438l56.844 18.953a88 88 0 0 0 4.6172-27.797 88 88 0 0 0-41.383-74.586zm-130 46.789a88 88 0 0 0-4.6172 27.797 88 88 0 0 0 41.383 74.586l31.797-50.875a28 28 0 0 1-13.18-23.711 28 28 0 0 1 1.4609-8.8438z" style="fill:#fff;opacity:.25;stroke-width:4"/>
</svg>
