<svg width="192" height="192" fill="none" version="1.1" viewBox="0 0 192 192" xmlns="http://www.w3.org/2000/svg">
 <rect x="20" y="20" width="152" height="152" rx="10" fill="#98DC9A" style="fill:#98dc9a"/>
 <path d="m20.343 157.71 0.9656 4.906 33.105-6.516 3.5276 15.903h0.5514l4.3751-0.874-3.5482-15.995 89.052-17.528c9.693-1.908 18.261-8.307 23.629-16.676v-12.343c-2.909 11.637-12.857 21.803-24.595 24.113l-89.066 17.531-21.857-109.42 135.52 23.046v-5.0822l-126.96-21.814c-4.4553-0.7656-10.649-6.9115-11.568-11.338l-1.0839-5.6193h-2.3901c-0.9351 0-1.8403 0.1284-2.6988 0.3684l23.972 120.01c1.1924 5.97-2.6899 11.772-8.6625 12.948z" style="clip-rule:evenodd;fill-rule:evenodd;fill:#fff"/>
 <path d="m97.365 45.881c-16.929-0.22356-36.586 13.758-35.535 36.289 0.25278 5.4212 1.976 11.077 3.6621 15.254 1.0663 2.6412 2.3001 6.1169 6.3047 6.1016 2.9784-0.0114 5.9477 0.8104 8.7461 1.8301 4.2392 1.5447 5.0256 6.282 5.6934 9.5606 2.0443 10.037 5.0859 30.305 5.0859 30.305h10.255s3.0396-20.268 5.084-30.305c0.66778-3.2785 1.4561-8.0159 5.6953-9.5606 2.7984-1.0197 5.7677-1.8415 8.7461-1.8301 4.0046 0.0154 5.2384-3.4604 6.3047-6.1016 1.6861-4.1765 3.4093-9.8327 3.6621-15.254 1.0506-22.531-17.197-36.071-33.705-36.289z" style="fill:#fff"/>
 <path d="m96.203 51.457c-15.069-0.47238-27.555 13.73-28.272 27.051-0.53395 9.925 3.8652 18.713 3.8652 18.713s12.002 1.8591 14.033 4.2703c8.0707 9.5792 10.779 37.628 10.779 37.628s2.7105-28.659 10.781-38.238c2.0315-2.4112 14.033-3.6602 14.033-3.6602s4.3992-8.7879 3.8652-18.713c-0.71662-13.32-12.998-26.547-29.086-27.051z" style="fill:#9abeff"/>
</svg>
