<svg width="192" height="192" version="1.1" viewBox="0 0 192 192" xmlns="http://www.w3.org/2000/svg">
 <circle cx="96" cy="96" r="88" opacity=".63" style="fill:#9abeff;opacity:1"/>
 <rect x="44" y="88" width="104" height="40" ry="20" style="fill:#fff;paint-order:stroke fill markers"/>
 <ellipse cx="76" cy="90" rx="20" ry="22" style="fill:#fff;paint-order:stroke fill markers"/>
 <circle cx="104" cy="84" r="28" style="fill:#fff;paint-order:stroke fill markers"/>
 <path d="m110.37 105.97c0 3.9185-3.183 7.0948-7.1091 7.0948-3.9264 0-7.1091-3.1765-7.1091-7.0948s3.183-7.0949 7.1091-7.0949c0.96901 0 1.8927 0.19348 2.7345 0.54383l-1.6e-4 -15.422-16.407 3.5593 4.44e-4 22.78c0 3.8582-3.0858 6.997-6.9287 7.0925l-0.18068 2e-3c-3.9264-1.3e-4 -7.1091-3.1767-7.1091-7.0948s3.183-7.0948 7.1091-7.0948c0.96902 0 1.8927 0.19347 2.7345 0.54383l-1.6e-4 -19.645 25.156-5.4577z" style="fill-rule:evenodd;fill:#9abeff;stroke-width:.59321"/>
</svg>
