<svg width="192" height="192" version="1.1" viewBox="0 0 192 192" xmlns="http://www.w3.org/2000/svg">
 <path d="m120 20c-16 0-24 4-28 40-3.1235 28.111-4 64-4 64h-36s32.813-32.895 36-56c2.0775-15.06 4-44-12-44-7.5425 0-16 8-16 16 0 5.4975 4.8091 10.562 4 16-2.2886 15.38-14.795 27.468-24 40-9.5047 12.94-32 32-32 40 0 6.6667 4 12 12 12 4.8074 0 8-8 12-8h52v24c0 4-8 4-8 4h-8c-4 0-8 4.2288-8 8s4 8 8 8h32c8 0 8-8 8-8v-24c0-8 16-8.4575 16-16 0-8-12-8-12-12 0-8 4-8 4-8s68 8 68-44-36.513-52-64-52zm8 12s28 0 28 40c0 32-28 32-28 32s-8 0-8-8v-56c0-8 8-8 8-8z" style="fill:#9abeff"/>
</svg>
