<svg width="192" height="192" version="1.1" viewBox="0 0 192 192" xmlns="http://www.w3.org/2000/svg">
 <rect x="19.5" y="19.5" width="153" height="153" rx="10" style="fill:#b1b5bd;stroke-width:4"/>
 <path d="m92 19.602v76.398c0 2.216 1.784 4 4 4s4-1.784 4-4v-76.398z" style="fill:#4a4a4a;paint-order:stroke fill markers;stroke-width:3.909"/>
 <path d="M 88.921876,32 C 88.411992,32 88,32.412 88,32.92188 v 2.15624 C 88,35.588 88.411992,36 88.921876,36 h 6.156248 C 95.588008,36 96,35.588 96,35.07812 V 32.92188 C 96,32.412 95.588008,32 95.078124,32 Z m 8,4 C 96.411992,36 96,36.412 96,36.92188 v 2.15624 C 96,39.588 96.411992,40 96.921876,40 h 6.156244 C 103.58801,40 104,39.588 104,39.07812 V 36.92188 C 104,36.412 103.58801,36 103.07812,36 Z m -8,4 C 88.411992,40 88,40.412 88,40.92188 v 2.15624 C 88,43.588 88.411992,44 88.921876,44 h 6.156248 C 95.588008,44 96,43.588 96,43.07812 V 40.92188 C 96,40.412 95.588008,40 95.078124,40 Z m 8,4 C 96.411992,44 96,44.412 96,44.92188 v 2.15624 C 96,47.588 96.411992,48 96.921876,48 h 6.156244 C 103.58801,48 104,47.588 104,47.07812 V 44.92188 C 104,44.412 103.58801,44 103.07812,44 Z m -8,4 C 88.411992,48 88,48.412 88,48.92188 v 2.15624 C 88,51.588 88.411992,52 88.921876,52 h 6.156248 C 95.588008,52 96,51.588 96,51.07812 V 48.92188 C 96,48.412 95.588008,48 95.078124,48 Z m 8,4 C 96.411992,52 96,52.412 96,52.92188 v 2.15624 C 96,55.588 96.411992,56 96.921876,56 h 6.156244 C 103.58801,56 104,55.588 104,55.07812 V 52.92188 C 104,52.412 103.58801,52 103.07812,52 Z m -8,4 C 88.411992,56 88,56.412 88,56.92188 v 2.15624 C 88,59.588 88.411992,60 88.921876,60 h 6.156248 C 95.588008,60 96,59.588 96,59.07812 V 56.92188 C 96,56.412 95.588008,56 95.078124,56 Z m 8,4 C 96.411992,60 96,60.412 96,60.92188 v 2.15624 C 96,63.588 96.411992,64 96.921876,64 h 6.156244 C 103.58801,64 104,63.588 104,63.07812 V 60.92188 C 104,60.412 103.58801,60 103.07812,60 Z m -8,4 C 88.411992,64 88,64.412 88,64.92188 v 2.15624 C 88,67.588 88.411992,68 88.921876,68 h 6.156248 C 95.588008,68 96,67.588 96,67.07812 V 64.92188 C 96,64.412 95.588008,64 95.078124,64 Z m 8,4 C 96.411992,68 96,68.412 96,68.92188 v 2.15624 C 96,71.588 96.411992,72 96.921876,72 h 6.156244 C 103.58801,72 104,71.588 104,71.07812 V 68.92188 C 104,68.412 103.58801,68 103.07812,68 Z m -8,4 C 88.411992,72 88,72.412 88,72.92188 v 2.15624 C 88,75.588 88.411992,76 88.921876,76 h 6.156248 C 95.588008,76 96,75.588 96,75.07812 V 72.92188 C 96,72.412 95.588008,72 95.078124,72 Z m 8,4 C 96.411992,76 96,76.412 96,76.92188 v 2.15624 C 96,79.588 96.411992,80 96.921876,80 h 6.156244 C 103.58801,80 104,79.588 104,79.07812 V 76.92188 C 104,76.412 103.58801,76 103.07812,76 Z m -8,4 C 88.411992,80 88,80.412 88,80.92188 v 2.15624 C 88,83.588 88.411992,84 88.921876,84 h 6.156248 C 95.588008,84 96,83.588 96,83.07812 V 80.92188 C 96,80.412 95.588008,80 95.078124,80 Z m 8,4 C 96.411992,84 96,84.412 96,84.92188 v 2.15624 C 96,87.588 96.411992,88 96.921876,88 h 6.156244 C 103.58801,88 104,87.588 104,87.07812 V 84.92188 C 104,84.412 103.58801,84 103.07812,84 Z m -8,4 C 88.411992,88 88,88.412 88,88.92188 v 2.15624 C 88,91.588 88.411992,92 88.921876,92 h 6.156248 C 95.588008,92 96,91.588 96,91.07812 V 88.92188 C 96,88.412 95.588008,88 95.078124,88 Z m 8,4 C 96.411992,92 96,92.412 96,92.92188 v 2.15624 C 96,95.588 96.411992,96 96.921876,96 h 6.156244 C 103.58801,96 104,95.588 104,95.07812 V 92.92188 C 104,92.412 103.58801,92 103.07812,92 Z" style="fill:#979797;paint-order:stroke fill markers;stroke-width:4"/>
 <rect x="88" y="24" width="16" height="20" ry="4" style="fill:#ccc;paint-order:stroke fill markers;stroke-width:4"/>
 <path d="m92.5 32c-1.939 0-3.5 1.6725-3.5 3.75v22.5c0 2.0775 1.561 3.75 3.5 3.75h7c1.939 0 3.5-1.6725 3.5-3.75v-22.5c0-2.0775-1.561-3.75-3.5-3.75zm1.7363 3.75h3.5273c0.96299 0 1.7363 0.8286 1.7363 1.8604v7.5293c0 1.0318-0.77335 1.8604-1.7363 1.8604h-3.5273c-0.96299 0-1.7363-0.8286-1.7363-1.8604v-7.5293c0-1.0318 0.77335-1.8604 1.7363-1.8604zm0 15h3.5273c0.96299 0 1.7363 0.8286 1.7363 1.8604v3.7793c0 1.0318-0.77335 1.8604-1.7363 1.8604h-3.5273c-0.96299 0-1.7363-0.8286-1.7363-1.8604v-3.7793c0-1.0318 0.77335-1.8604 1.7363-1.8604z" style="fill:#ececec;paint-order:stroke fill markers;stroke-width:3.6228"/>
 <rect x="93" y="26" width="6" height="16" ry="1.9865" style="fill:#d8d8d8;paint-order:stroke fill markers;stroke-width:3.4641"/>
</svg>
