<svg width="192" height="192" version="1.1" viewBox="0 0 192 192" xmlns="http://www.w3.org/2000/svg">
 <circle cx="96" cy="96" r="88" opacity=".63" style="fill:#98dc9a;opacity:1"/>
 <path d="m75.959 71.959a4.0004 4.0004 0 0 0-2.7871 6.8691l17.172 17.172-17.172 17.172a4.0004 4.0004 0 1 0 5.6562 5.6562l17.172-17.172 17.172 17.172a4.0004 4.0004 0 1 0 5.6562-5.6562l-17.172-17.172 17.172-17.172a4.0004 4.0004 0 0 0-2.9062-6.8672 4.0004 4.0004 0 0 0-2.75 1.2109l-17.172 17.172-17.172-17.172a4.0004 4.0004 0 0 0-2.8691-1.2129zm-20 4a4.0004 4.0004 0 0 0-2.7871 6.8691l13.172 13.172-13.172 13.172a4.0004 4.0004 0 1 0 5.6562 5.6562l16-16a4.0004 4.0004 0 0 0 0-5.6562l-16-16a4.0004 4.0004 0 0 0-2.8691-1.2129zm79.963 0.001954a4.0004 4.0004 0 0 0-2.75 1.2109l-16 16a4.0004 4.0004 0 0 0 0 5.6562l16 16a4.0004 4.0004 0 1 0 5.6562-5.6562l-13.172-13.172 13.172-13.172a4.0004 4.0004 0 0 0-2.9062-6.8672z" style="color-rendering:auto;color:#000000;dominant-baseline:auto;fill:#71a372;font-feature-settings:normal;font-variant-alternates:normal;font-variant-caps:normal;font-variant-ligatures:normal;font-variant-numeric:normal;font-variant-position:normal;image-rendering:auto;isolation:auto;mix-blend-mode:normal;shape-padding:0;shape-rendering:auto;solid-color:#000000;text-decoration-color:#000000;text-decoration-line:none;text-decoration-style:solid;text-indent:0;text-orientation:mixed;text-transform:none;white-space:normal"/>
</svg>
