<svg width="192" height="192" version="1.1" viewBox="0 0 192 192" xmlns="http://www.w3.org/2000/svg">
 <path d="m96.129 20.002c-5.9438-0.12725-11.071 2.9031-15.74 7.0293s-9.0966 9.6474-13.479 16.158c-8.7639 13.022-17.257 30.044-24.637 47.273-7.3794 17.229-13.602 34.617-17.609 48.297-2.0038 6.8398-3.4565 12.725-4.2246 17.4-0.38407 2.3377-0.61125 4.35-0.58594 6.2773 0.02532 1.9273-0.41022 4.0784 2.4727 6.8711 3.9405 3.8172 7.8324 3.0169 11.824 2.5137 3.9919-0.50326 8.5598-1.6648 13.711-3.2559 10.302-3.1821 22.819-8.1295 35.053-13.332 24.467-10.405 47.734-21.85 47.734-21.85 2.8879-1.4236 4.1375-4.8727 2.8317-7.8158-1.3058-2.943-4.7016-4.331-7.695-3.1452 0 0-21.083 8.3742-42.762 15.74-10.839 3.683-21.845 7.1104-30.199 9.0723-3.473 0.81564-6.0674 1.1847-8.2676 1.4219 0.72988-2.971 1.8284-6.8942 3.3691-11.709 3.2825-10.258 8.1977-23.736 13.949-37.063 5.7515-13.327 12.382-26.539 18.873-36.137 3.2458-4.7986 6.473-8.6801 9.2871-11.162 2.8141-2.4821 5.0515-3.3481 6.1973-3.3926 0.53298-0.02069 2.8285 0.68273 5.9121 3.4629 3.0836 2.7802 6.7597 7.2273 10.553 12.73 7.5861 11.006 15.745 26.205 23.135 41.467 14.779 30.523 26.564 61.289 26.564 61.289 1.1593 3.0169 4.4998 4.5736 7.5556 3.521 3.0558-1.0526 4.7289-4.3364 3.7843-7.4272 0 0-10.758-35.036-25.246-70.285-7.2439-17.625-15.396-35.305-23.826-48.965-4.2148-6.83-8.4756-12.665-13.002-17.086s-9.5151-7.7716-15.533-7.9004z" style="color-rendering:auto;color:#000000;dominant-baseline:auto;fill:#9abeff;font-feature-settings:normal;font-variant-alternates:normal;font-variant-caps:normal;font-variant-ligatures:normal;font-variant-numeric:normal;font-variant-position:normal;image-rendering:auto;isolation:auto;mix-blend-mode:normal;shape-padding:0;shape-rendering:auto;solid-color:#000000;text-decoration-color:#000000;text-decoration-line:none;text-decoration-style:solid;text-indent:0;text-orientation:mixed;text-transform:none;white-space:normal"/>
</svg>
