<svg width="192" height="192" version="1.1" viewBox="0 0 192 192" xmlns="http://www.w3.org/2000/svg" xmlns:xlink="http://www.w3.org/1999/xlink">
 <defs>
  <rect id="camera-a" width="152" height="152" rx="10"/>
 </defs>
 <use transform="rotate(180,87,87)" width="100%" height="100%" style="fill-rule:evenodd;fill:#D8D8D8" xlink:href="#camera-a"/>
 <g transform="matrix(.76293 0 0 .76293 52.672 46.201)" style="fill:#83868C" aria-label="à">
  <path d="m99.725 79.403-10.899-18.455h-12.014l15.234 18.455zm26.505 46.198c-2.3533 0-4.5827-1.2386-4.5827-5.5735v-34.308h-11.766v5.202c-4.2111-3.8395-9.6608-6.1928-15.977-6.1928-13.996 0-25.143 11.395-25.143 25.762s11.147 25.762 25.143 25.762c7.1837 0 13.5-3.2202 17.711-8.2984 2.4771 4.9542 7.3075 8.2984 13.376 8.2984 1.4863 0 2.8487-0.37156 3.9634-0.99084v-9.6608zm-30.84-0.24772c-8.2984 0-14.863-6.5644-14.863-14.863 0-8.2984 6.5644-14.863 14.863-14.863 8.1745 0 14.863 6.5644 14.863 14.863 0 8.2984-6.6882 14.863-14.863 14.863z" style="fill:#83868C;stroke-width:2.4771"/>
 </g>
</svg>
