<svg width="192" height="192" fill="none" version="1.1" viewBox="0 0 192 192" xmlns="http://www.w3.org/2000/svg">
 <path d="m96 183c48.049 0 87-38.951 87-87 0-48.049-38.951-87-87-87-48.049 0-87 38.951-87 87 0 48.049 38.951 87 87 87z" clip-rule="evenodd" fill="#9ABEFF" fill-rule="evenodd"/>
 <path d="m67.766 120.95c6.811 7.566 16.637 12.316 27.563 12.316 11.306 0 21.435-5.087 28.264-13.117" style="clip-rule:evenodd;fill-rule:evenodd;fill:#9abeff"/>
 <path d="m67.766 120.95c6.811 7.566 16.637 12.316 27.563 12.316 11.306 0 21.435-5.087 28.264-13.117" style="stroke-linecap:round;stroke-width:10;stroke:#728dbe"/>
 <path d="m95.299 34.244c-33.855 0-61.299 27.703-61.299 61.877 0 34.174 27.444 61.879 61.299 61.879 33.855 0 61.301-27.705 61.301-61.879 0-34.174-27.446-61.877-61.301-61.877zm-23.246 21.086c6.0378-0.11307 13.896 1.8418 23.24 8.748 22.601 16.705 30.727 26.64 49.979 20.338 0.85853 3.7633 1.3281 7.6768 1.3281 11.705 0 28.672-22.99 51.879-51.301 51.879-28.311 0-51.299-23.207-51.299-51.879 0-14.24 5.6749-27.126 14.852-36.496 1.4398-1.1199 5.9807-4.1597 13.201-4.2949z" style="clip-rule:evenodd;fill-rule:evenodd;fill:#728dbe"/>
 <path d="m73.293 103.08c3.866 0 7-3.134 7-7s-3.134-7-7-7-7 3.134-7 7 3.134 7 7 7z" style="clip-rule:evenodd;fill-rule:evenodd;fill:#728dbe"/>
 <path d="m117.29 103.08c3.866 0 7-3.134 7-7s-3.134-7-7-7-7 3.134-7 7 3.134 7 7 7z" style="clip-rule:evenodd;fill-rule:evenodd;fill:#728dbe"/>
</svg>
