<svg width="192" height="192" version="1.1" viewBox="0 0 192 192" xmlns="http://www.w3.org/2000/svg">
 <rect class="cls-1" x="19.5" y="19.5" width="153" height="153" rx="10" ry="10" style="fill:#FF837D"/>
 <rect class="cls-2" x="29.5" y="30" width="132" height="132" style="fill:#56595b"/>
 <path d="m114.28 64.52v25.898c-2.4279-2.1851-5.5018-3.4805-9.2246-3.4805-8.9834 0-16.025 7.446-16.025 16.834s7.042 16.834 16.025 16.834c3.7228 0 6.7967-1.2953 9.2246-3.4805v2.9141l10.279-0.08203v-55.437h-10.279zm-43.57 6.8789v48.559h10.684v-48.559h-10.684zm36.369 24.686c4.2084 0 7.6875 3.3981 7.6875 7.6875s-3.4791 7.6895-7.6875 7.6895c-4.2894 0-7.6895-3.4001-7.6895-7.6895s3.4001-7.6875 7.6895-7.6875z" style="fill:#ff837d;stroke-width:1.6186"/>
 <style type="text/css">.st0{fill:#FFFFFF;}</style>
</svg>
