<svg width="192" height="192" version="1.1" viewBox="0 0 192 192" xmlns="http://www.w3.org/2000/svg">
 <rect class="cls-1" x="19.5" y="19.5" width="153" height="153" rx="10" ry="10" style="fill:#ababff"/>
 <rect class="cls-2" x="29.5" y="30" width="132" height="132" style="fill:#56595b"/>
 <path d="m106.5 64.52v55.437h10.359v-18.289c0-2.8326 2.3476-5.584 5.5039-5.584 2.9135 0 4.9356 2.2651 4.9356 5.0977v18.775h10.359v-20.475c0-7.122-5.1789-12.545-11.734-12.545-3.561 0-6.7984 1.6183-9.0644 4.2891v-26.707h-10.359zm-28.953 6.2324c-13.758 0-24.928 11.167-24.928 24.926 0 13.758 11.169 24.928 24.928 24.928 9.6308 0 17.966-5.4222 22.094-13.354l-9.2266-4.7754c-2.347 4.6131-7.1211 7.6895-12.867 7.6895-8.1741 0-14.406-6.3142-14.406-14.488s6.2322-14.486 14.406-14.486c5.7461 0 10.52 3.0764 12.867 7.6895l9.2266-4.7754c-4.1275-7.9313-12.463-13.354-22.094-13.354z" style="fill:#ababff;stroke-width:1.6186"/>
 <style type="text/css">.st0{fill:#FFFFFF;}</style>
 <style type="text/css">.st0{fill:#FFFFFF;}</style>
</svg>
