<svg width="192" height="192" version="1.1" viewBox="0 0 192 192" xmlns="http://www.w3.org/2000/svg">
 <rect class="cls-1" x="19.5" y="19.5" width="153" height="153" rx="10" ry="10" style="fill:#f8c18c"/>
 <rect class="cls-2" x="29.5" y="30" width="132" height="132" style="fill:#56595b"/>
 <path d="m63.5 71.398v48.559h22.418c8.0931 0 14.406-4.6928 14.406-13.271 0-5.908-3.0753-9.5496-7.6074-11.33 3.6419-1.9424 5.9883-5.3427 5.9883-10.441 0-8.5787-6.4744-13.516-14.648-13.516h-20.557zm10.684 9.4688h8.5781c2.9135 0 5.2598 2.2662 5.2598 5.1797 0 2.8326-2.3462 5.2617-5.2598 5.2617h-8.5781v-10.441zm52.746 6.0703c-3.8038 0-6.9602 1.9433-9.0645 5.0996v-4.4512h-10.359v32.371h10.359v-15.457c0-5.3415 3.6416-8.416 8.7402-8.416 1.214 0 2.2677 0.1604 2.9961 0.32227v-9.1445c-0.72838-0.24279-1.7007-0.32422-2.6719-0.32422zm-52.746 13.111h10.197c2.9945 0 5.2598 2.4272 5.2598 5.2598 0 2.9135-2.2653 5.1797-5.2598 5.1797h-10.197v-10.439z" style="fill:#f8c18c;stroke-width:1.6186"/>
 <style type="text/css">.st0{fill:#FFFFFF;}</style>
</svg>
