<svg width="192" height="192" version="1.1" viewBox="0 0 192 192" xmlns="http://www.w3.org/2000/svg">
 <rect class="cls-1" x="19.5" y="19.5" width="153" height="153" rx="10" ry="10" style="fill:#F8C18C"/>
 <rect class="cls-2" x="29.5" y="30" width="132" height="132" style="fill:#56595b"/>
 <path d="m67.506 71.398v48.559h10.682v-19.584h15.863v-9.3887h-15.863v-10.197h18.533v-9.3887h-29.215zm45.352 15.539c-7.3648 0-12.059 4.856-12.059 10.359 0 6.4745 6.4744 8.6593 10.197 10.035 2.9135 1.133 3.8848 1.9431 3.8848 3.0762 0 1.2949-1.1344 2.0234-2.834 2.0234s-3.9651-0.64873-5.4219-3.4004l-7.6074 3.8047c1.9424 5.0177 7.9316 7.7695 13.678 7.7695 7.2838 0 11.734-4.4516 11.734-10.521 0-6.4745-5.342-9.0633-9.9551-10.844-2.347-0.97118-3.4785-1.4579-3.4785-2.6719 0-1.0521 0.80936-1.8613 2.5898-1.8613 2.1042 0 4.0464 1.1337 5.0176 2.3477l5.1797-5.8281c-2.4279-2.4279-6.3936-4.2891-10.926-4.2891z" style="fill:#f8c18c;stroke-width:1.6186"/>
 <style type="text/css">.st0{fill:#FFFFFF;}</style>
</svg>
