<svg width="192" height="192" version="1.1" viewBox="0 0 192 192" xmlns="http://www.w3.org/2000/svg">
 <rect class="cls-1" x="19.5" y="19.5" width="153" height="153" rx="10" ry="10" style="fill:#96dfd3"/>
 <rect class="cls-2" x="29.5" y="30" width="132" height="132" style="fill:#56595b"/>
 <path d="m75.062 65.752c-7.6885 0-15.539 4.6125-15.539 14.324 0 16.51 22.418 12.545 22.418 21.043 0 2.6707-2.2654 4.4512-5.9883 4.4512-4.4512 0-7.9305-2.5087-9.7109-6.3125l-8.8223 5.502c3.1563 6.0698 9.9553 10.846 18.453 10.846 9.0643 0 16.752-5.342 16.752-14.406 0-17.967-22.338-13.515-22.338-21.932 0-2.7517 2.1055-4.0469 4.6953-4.0469 2.7517 0 5.5037 1.5383 7.9316 4.209l7.1211-6.7988c-3.561-4.1275-8.9837-6.8789-14.973-6.8789zm37.912 16.186c-8.9834 0-16.025 7.365-16.025 16.834 0 9.388 7.042 16.834 16.025 16.834 4.0466 0 7.6066-1.538 10.277-4.0469v4.2891c0 5.9889-3.3176 9.6309-8.5781 9.6309-3.7228 0-6.5556-2.0225-7.7695-5.2598l-9.4688 3.8027c2.6707 6.6364 8.7405 10.441 17.238 10.441 11.816 0 18.857-7.2038 18.857-19.182l-0.08203-32.695h-10.359v3.2363c-2.6707-2.4279-6.1496-3.8848-10.115-3.8848zm2.5898 9.1445c4.2894 0 7.7695 3.4001 7.7695 7.6895s-3.4802 7.6875-7.7695 7.6875c-4.2894 0-7.6894-3.3981-7.6894-7.6875s3.4001-7.6895 7.6894-7.6895z" style="fill:#96dfd3;stroke-width:1.6186"/>
 <style type="text/css">.st0{fill:#FFFFFF;}</style>
 <style type="text/css">.st0{fill:#FFFFFF;}</style>
 <style type="text/css">.st0{fill:#FFFFFF;}</style>
</svg>
