<svg width="192" height="192" version="1.1" viewBox="0 0 192 192" xmlns="http://www.w3.org/2000/svg">
 <rect class="cls-1" x="19.5" y="19.5" width="153" height="153" rx="10" ry="10" style="fill:#ff837d"/>
 <rect class="cls-2" x="29.5" y="30" width="132" height="132" style="fill:#56595b"/>
 <path d="m71.555 71.398-17.482 48.559h11.412l2.9941-9.1445h18.129l2.9941 9.1445h11.412l-17.482-48.559h-11.977zm5.9883 11.25 6.2324 19.262h-12.465l6.2324-19.262zm46.834 4.2891c-3.7228 0-6.9605 1.7807-9.2266 4.6133v-3.9648h-10.359v32.371h10.359v-18.775c0-2.9135 2.4274-5.0977 5.4219-5.0977s5.0996 2.1841 5.0996 5.0977v18.775h10.277v-20.475c0-7.122-5.1787-12.545-11.572-12.545z" style="fill:#ff837d;stroke-width:1.6186"/>
 <style type="text/css">.st0{fill:#FFFFFF;}</style>
</svg>
