<svg width="192" height="192" version="1.1" viewBox="0 0 192 192" xmlns="http://www.w3.org/2000/svg">
 <rect class="cls-1" x="19.5" y="19.5" width="153" height="153" rx="10" ry="10" style="fill:#F8C18C"/>
 <rect class="cls-2" x="29.5" y="30" width="132" height="132" style="fill:#56595b"/>
 <path d="m97.754 64.52v55.437l10.359 0.08203v-2.9141c2.4279 2.1851 5.5037 3.4805 9.2266 3.4805 8.9024 0 15.943-7.446 15.943-16.834s-7.0409-16.834-15.943-16.834c-3.7228 0-6.7986 1.2953-9.2266 3.4805v-25.898h-10.359zm-34.748 6.8789v48.559h10.682v-19.584h15.863v-9.3887h-15.863v-10.197h18.533v-9.3887h-29.215zm52.311 24.686c4.2894 0 7.6894 3.3981 7.6894 7.6875s-3.4001 7.6895-7.6894 7.6895c-4.2894 0-7.6875-3.4001-7.6875-7.6895s3.3982-7.6875 7.6875-7.6875z" style="fill:#f8c18c;stroke-width:1.6186"/>
 <style type="text/css">.st0{fill:#FFFFFF;}</style>
</svg>
