<svg width="192" height="192" version="1.1" viewBox="0 0 192 192" xmlns="http://www.w3.org/2000/svg">
 <rect class="cls-1" x="19.5" y="19.5" width="153" height="153" rx="10" ry="10" style="fill:#F8C18C"/>
 <rect class="cls-2" x="29.5" y="30" width="132" height="132" style="fill:#56595b"/>
 <path d="m118.13 70.832c-3.0754 0-5.6641 2.5097-5.6641 5.666 0 3.0754 2.5887 5.6641 5.6641 5.6641s5.666-2.5887 5.666-5.6641c0-3.1563-2.5906-5.666-5.666-5.666zm-38.578 0.56641-17.482 48.559h11.412l2.9941-9.1445h18.129l2.9941 9.1445h11.412l-17.482-48.559h-11.977zm5.9883 11.25 6.2324 19.262h-12.465l6.2324-19.262zm27.41 4.9375v32.371h10.279v-32.371h-10.279z" style="fill:#f8c18c;stroke-width:1.6186"/>
 <style type="text/css">.st0{fill:#FFFFFF;}</style>
</svg>
