<svg width="192" height="192" version="1.1" viewBox="0 0 192 192" xmlns="http://www.w3.org/2000/svg">
 <rect x="19.5" y="19.5" width="153" height="153" rx="10" style="fill-rule:evenodd;fill:#545859"/>
 <path d="m29.5 19.5c-2.5435 0-4.8522 0.94688-6.6133 2.5h146.23c-1.7611-1.5531-4.0698-2.5-6.6133-2.5h-133zm-9.6758 7.5c-0.20484 0.79993-0.32422 1.6345-0.32422 2.5v2.5h153v-2.5c0-0.86554-0.11938-1.7001-0.32422-2.5h-152.35zm-0.32422 10v5h153v-5h-153zm0 10v5h153v-5h-153zm0 10v5h153v-5h-153zm0 10v5h153v-5h-153zm0 10v5h153v-5h-153zm0 10v5h153v-5h-153zm0 10v5h153v-5h-153zm0 10v5h153v-5h-153zm0 10v5h153v-5h-153zm0 10v5h153v-5h-153zm0 10v5h153v-5h-153zm0 10v5h153v-5h-153zm0 10v5h153v-5h-153zm1.0723 10c1.1841 2.3536 3.2631 4.1699 5.8027 5h139.25c2.5396-0.8301 4.6186-2.6464 5.8027-5h-150.86z" style="opacity:.25;paint-order:stroke fill markers"/>
 <path d="m71.555 71.398-17.482 48.559h11.412l2.9941-9.1445h18.129l2.9941 9.1445h11.412l-17.482-48.559h-11.977zm5.9883 11.25 6.2324 19.262h-12.465l6.2324-19.262zm46.834 4.2891c-3.7228 0-6.9605 1.7807-9.2266 4.6133v-3.9648h-10.359v32.371h10.359v-18.775c0-2.9135 2.4274-5.0977 5.4219-5.0977s5.0996 2.1841 5.0996 5.0977v18.775h10.277v-20.475c0-7.122-5.1787-12.545-11.572-12.545z" style="fill:#8c72bd;stroke-width:1.6186"/>
 <style type="text/css">.st0{fill:#FFFFFF;}</style>
</svg>
