<svg width="192" height="192" version="1.1" viewBox="0 0 192 192" xmlns="http://www.w3.org/2000/svg">
 <rect class="cls-1" x="19.5" y="19.5" width="153" height="153" rx="10" ry="10" style="fill:#bd9aff"/>
 <rect class="cls-2" x="29.5" y="30" width="132" height="132" style="fill:#56595b"/>
 <path d="m59.5 71.398v48.559h10.684v-18.775h4.2891l11.977 18.775h11.979l-13.596-19.988c5.7461-1.6996 9.793-7.0414 9.793-13.678 0-8.255-6.1524-14.893-14.488-14.893h-20.637zm10.684 9.4688h8.3359c3.3991 0 5.9082 2.4279 5.9082 5.7461 0 3.3991-2.5091 5.7461-5.9082 5.7461h-8.3359v-11.492zm31.836 6.7188v19.99c0 7.9313 5.4222 13.029 15.215 13.029s15.215-5.098 15.215-13.029v-19.99h-10.277v18.613c0 3.0754-2.1049 5.2617-4.9375 5.2617-2.7517 0-4.8555-2.1863-4.8555-5.2617v-18.613h-10.359z" style="fill:#bd9aff;stroke-width:1.6186"/>
 <style type="text/css">.st0{fill:#FFFFFF;}</style>
 <style type="text/css">.st0{fill:#FFFFFF;}</style>
</svg>
