<svg width="192" height="192" version="1.1" viewBox="0 0 192 192" xmlns="http://www.w3.org/2000/svg">
 <rect class="cls-1" x="19.5" y="19.5" width="153" height="153" rx="10" ry="10" style="fill:#FFB0AC"/>
 <rect class="cls-2" x="29.5" y="30" width="132" height="132" style="fill:#56595b"/>
 <path d="m125.38 64.52v25.898c-2.4279-2.1851-5.5037-3.4805-9.2266-3.4805-8.9834 0-16.023 7.446-16.023 16.834s7.0401 16.834 16.023 16.834c3.7228 0 6.7986-1.2953 9.2266-3.4805v2.9141l10.279-0.08203v-55.437h-10.279zm-70.834 6.8789 15.861 23.551-16.834 25.008h12.303l10.277-16.266 10.279 16.266h12.221l-16.754-25.088 15.863-23.471h-12.221l-9.3887 14.73-9.3867-14.73h-12.221zm63.631 24.686c4.2084 0 7.6894 3.3981 7.6894 7.6875s-3.481 7.6895-7.6894 7.6895c-4.2894 0-7.6875-3.4001-7.6875-7.6895s3.3982-7.6875 7.6875-7.6875z" style="fill:#ffb0ac;stroke-width:1.6186"/>
 <style type="text/css">.st0{fill:#FFFFFF;}</style>
</svg>
