<svg width="192" height="192" version="1.1" viewBox="0 0 192 192" xmlns="http://www.w3.org/2000/svg">
 <rect class="cls-1" x="19.5" y="19.5" width="153" height="153" rx="10" ry="10" style="fill:#98dc9a"/>
 <rect class="cls-2" x="29.5" y="30" width="132" height="132" style="fill:#56595b"/>
 <path d="m48.6 71.398v48.559h16.025c13.354 0 24.279-10.845 24.279-24.279 0-13.435-10.926-24.279-24.279-24.279h-16.025zm10.684 9.4688h5.2598c7.6885 0 13.678 6.3937 13.678 14.811 0 8.4168-5.9893 14.811-13.678 14.811h-5.2598v-29.621zm32.189 6.7188 11.17 32.371h10.844l6.0703-18.289 6.0703 18.289h10.926l11.006-32.371h-11.492l-5.5039 21.527-6.959-21.527h-8.0938l-6.8789 21.445-5.4219-21.445h-11.736z" style="fill:#98dc9a;stroke-width:1.6186"/>
 <style type="text/css">.st0{fill:#FFFFFF;}</style>
 <style type="text/css">.st0{fill:#FFFFFF;}</style>
</svg>
