<svg width="192" height="192" version="1.1" viewBox="0 0 192 192" xmlns="http://www.w3.org/2000/svg">
 <rect class="cls-1" x="19.5" y="19.5" width="153" height="153" rx="10" ry="10" style="fill:#FF837D"/>
 <rect class="cls-2" x="29.5" y="30" width="132" height="132" style="fill:#56595b"/>
 <path d="m71.705 71.398v48.559h10.684v-48.559h-10.684zm36.369 15.539c-10.845 0-18.049 7.1222-18.049 16.834s7.204 16.834 18.049 16.834c9.7118 0 16.347-5.6647 17.723-13.758h-10.682c-1.0521 2.7517-3.7228 4.5324-7.041 4.6133-4.4512-0.0809-7.6894-3.3192-7.6894-7.6895s3.2382-7.6066 7.6894-7.6875c3.3182 0.08093 5.9889 1.8597 7.041 4.6113h10.682c-1.3758-8.0931-8.0109-13.758-17.723-13.758z" style="fill:#ff837d;stroke-width:1.6186"/>
 <style type="text/css">.st0{fill:#FFFFFF;}</style>
</svg>
