<svg width="192" height="192" version="1.1" viewBox="0 0 192 192" xmlns="http://www.w3.org/2000/svg">
 <rect class="cls-1" x="19.5" y="19.5" width="153" height="153" rx="10" ry="10" style="fill:#98dc9a"/>
 <rect class="cls-2" x="29.5" y="30" width="132" height="132" style="fill:#56595b"/>
 <path d="m49.5 71.398v48.559h10.684v-28.973l13.109 28.973h6.1523l13.191-28.893v28.893h10.682v-48.559h-11.492l-15.457 33.588-15.297-33.588h-11.572zm62.625 16.188v19.99c0 7.9313 5.4222 13.029 15.215 13.029s15.217-5.098 15.217-13.029v-19.99h-10.279v18.613c0 3.0754-2.1049 5.2617-4.9375 5.2617-2.7517 0-4.8555-2.1863-4.8555-5.2617v-18.613h-10.359z" style="fill:#98dc9a;stroke-width:1.6186"/>
 <style type="text/css">.st0{fill:#FFFFFF;}</style>
 <style type="text/css">.st0{fill:#FFFFFF;}</style>
</svg>
