<svg width="192" height="192" version="1.1" viewBox="0 0 192 192" xmlns="http://www.w3.org/2000/svg">
 <rect class="cls-1" x="19.5" y="19.5" width="153" height="153" rx="10" ry="10" style="fill:#ababff"/>
 <rect class="cls-2" x="29.5" y="30" width="132" height="132" style="fill:#56595b"/>
 <path d="m71.555 71.398-17.482 48.559h11.412l2.9941-9.1445h18.129l2.9941 9.1445h11.412l-17.482-48.559h-11.977zm5.9883 11.25 6.2324 19.262h-12.465l6.2324-19.262zm42.787 4.209c-10.44 0-17.805 6.7977-17.805 16.914 0 10.116 7.2841 16.834 18.129 16.834 8.9834 0 14.971-4.7754 16.59-11.816h-9.9531c-0.89025 2.5898-3.2379 4.127-6.7988 4.127-4.694 0-7.1227-2.8322-7.5274-7.4453h24.766v-1.7793c0-10.116-6.9603-16.834-17.4-16.834zm0.16211 7.9316c3.48 0 5.5026 1.6186 6.5547 4.4512h-13.434c1.0521-2.7517 3.237-4.4512 6.8789-4.4512z" style="fill:#ababff;stroke-width:1.6186"/>
 <style type="text/css">.st0{fill:#FFFFFF;}</style>
</svg>
