<svg width="192" height="192" version="1.1" viewBox="0 0 192 192" xmlns="http://www.w3.org/2000/svg">
 <rect class="cls-1" x="19.5" y="19.5" width="153" height="153" rx="10" ry="10" style="fill:#9abeff"/>
 <rect class="cls-2" x="29.5" y="30" width="132" height="132" style="fill:#56595b"/>
 <path d="m65.199 71.398v48.559h10.684v-19.666h9.9551c8.1741 0 14.486-6.0701 14.486-14.244 0-8.0931-6.3123-14.648-14.486-14.648h-20.639zm10.684 9.3887h8.2559c3.3991 0 5.9883 2.1855 5.9883 5.3418 0 3.2372-2.5892 5.3418-5.9883 5.3418h-8.2559v-10.684zm40.133 6.1504c-7.3647 0-12.061 4.856-12.061 10.359 0 6.4745 6.4744 8.6593 10.197 10.035 2.9135 1.133 3.8848 1.9431 3.8848 3.0762 0 1.2949-1.1325 2.0234-2.832 2.0234s-3.9651-0.64873-5.4219-3.4004l-7.6074 3.8047c1.9424 5.0177 7.9316 7.7695 13.678 7.7695 7.2838 0 11.734-4.4516 11.734-10.521 0-6.4745-5.342-9.0633-9.9551-10.844-2.347-0.97118-3.4805-1.4579-3.4805-2.6719 0-1.0521 0.80937-1.8613 2.5898-1.8613 2.1042 0 4.0484 1.1337 5.0195 2.3477l5.1777-5.8281c-2.4279-2.4279-6.3917-4.2891-10.924-4.2891z" style="fill:#9abeff;stroke-width:1.6186"/>
 <style type="text/css">.st0{fill:#FFFFFF;}</style>
</svg>
