<svg width="192" height="192" version="1.1" viewBox="0 0 192 192" xmlns="http://www.w3.org/2000/svg">
 <rect class="cls-1" x="19.5" y="19.5" width="153" height="153" rx="10" ry="10" style="fill:#96dfd3"/>
 <rect class="cls-2" x="29.5" y="30" width="132" height="132" style="fill:#56595b"/>
 <path d="m56.801 71.398v48.559h16.023c13.354 0 24.279-10.845 24.279-24.279 0-13.435-10.926-24.279-24.279-24.279h-16.023zm10.682 9.4688h5.2617c7.6885 0 13.676 6.3937 13.676 14.811 0 8.4168-5.9873 14.811-13.676 14.811h-5.2617v-29.621zm56.955 6.0703c-3.7228 0-6.9585 1.7807-9.2246 4.6133v-3.9648h-10.359v32.371h10.359v-18.775c0-2.9135 2.4274-5.0977 5.4219-5.0977 2.9944 0 5.0976 2.1841 5.0976 5.0977v18.775h10.279v-20.475c0-7.122-5.1806-12.545-11.574-12.545z" style="fill:#96dfd3;stroke-width:1.6186"/>
 <style type="text/css">.st0{fill:#FFFFFF;}</style>
 <style type="text/css">.st0{fill:#FFFFFF;}</style>
</svg>
