<svg width="192" height="192" version="1.1" viewBox="0 0 192 192" xmlns="http://www.w3.org/2000/svg">
 <rect x="20" y="20" width="152" height="152" rx="10" fill="#9ABEFF"/>
 <path d="m113.95 73.254c0 5.1108-4.143 9.2539-9.254 9.2539-5.1104 0-9.2535-4.1431-9.2535-9.2539s4.1431-9.2539 9.2535-9.2539c5.111 0 9.254 4.1431 9.254 9.2539zm9.011 21.46c-5.238 2.2905-20.923 1.9949-20.923 1.9949s-1.243 0.5795-0.468 1.3033c5.042 4.714 10.295 12.222 13.286 18.006 1.345 2.176 2.485 4.481 3.277 6.962 0.051 0.123 0.078 0.188 0.078 0.188l-0.196-0.145-9.061 3.37c-1.682-4.524-4.499-8.526-8.159-12.008-2.2336-2.125-4.6398-3.924-7.0401-5.391-0.1883-0.115-0.3733-0.226-0.5546-0.333-7.2124 8.163-20.96 11.071-24.331 11.678-0.4748 0.119-0.8328 0.202-1.0578 0.25l-2.0726-9.695c0.1275-0.028 0.42-0.096 0.8531-0.207 0.7512-0.192 1.5956-0.43 2.5087-0.715 2.604-0.812 5.2037-1.827 7.5937-3.042 4.4587-2.267 7.5512-4.92 8.8016-7.7044 0.8813-1.9629 1.5528-3.5737 2.1701-5.1645 0.0699-0.1802 0.2273-0.5951 0.4103-1.0777 0.3187-0.8403 0.7151-1.8854 0.8623-2.2516 0.2209-0.5494 0.4322-1.0374 0.661-1.5188 1.0399-2.1881 2.4177-4.2034 5.5992-8.2578l0.2216 0.1739 0.0395-0.1878s0.148 0.2372 0.5144 0.6225l2.3993 1.8827c1.9724 1.2156 5.1374 2.5922 10.042 3.4366 4.813 0.3015 9.368 0.2403 13.515-0.6882l1.03 8.5189z" clip-rule="evenodd" fill="#F9DE81" fill-rule="evenodd"/>
</svg>
