<svg width="192" height="192" version="1.1" viewBox="0 0 192 192" xmlns="http://www.w3.org/2000/svg">
 <path d="m91 57c0 22.091-17.909 40-40 40s-40-17.909-40-40 17.909-40 40-40 40 17.909 40 40zm91 0c0 22.091-17.909 40-40 40s-40-17.909-40-40 17.909-40 40-40 40 17.909 40 40z" style="clip-rule:evenodd;fill-rule:evenodd;fill:#728dbe"/>
 <path d="m169 103c0 40.317-32.683 73-73 73-40.317 0-73-32.683-73-73 0-40.317 32.683-73 73-73 40.317 0 73 32.683 73 73z" style="fill:#fff"/>
 <rect x="91" y="45" width="10" height="64" rx="5" style="fill:#4a4a4a"/>
 <rect transform="rotate(60)" x="135.68" y="-33.007" width="5" height="64" rx="2.5" style="fill:#ff837d"/>
 <rect transform="rotate(90)" x="99" y="-139" width="10" height="48" rx="5" style="fill:#4a4a4a"/>
 <path d="m102.5 103c0 3.59-2.9101 6.5-6.5 6.5s-6.5-2.91-6.5-6.5 2.9101-6.5 6.5-6.5 6.5 2.91 6.5 6.5z" style="fill:#fff"/>
 <path d="m96 25c-43.019 0-78 34.981-78 78 0 43.019 34.981 78 78 78 43.019 0 78-34.981 78-78 0-43.019-34.981-78-78-78zm0 10c37.615 0 68 30.385 68 68 0 37.615-30.385 68-68 68-37.615 0-68-30.385-68-68 0-37.615 30.385-68 68-68z" style="color-rendering:auto;color:#000000;dominant-baseline:auto;fill:#9ABEFF;font-feature-settings:normal;font-variant-alternates:normal;font-variant-caps:normal;font-variant-ligatures:normal;font-variant-numeric:normal;font-variant-position:normal;image-rendering:auto;isolation:auto;mix-blend-mode:normal;shape-padding:0;shape-rendering:auto;solid-color:#000000;text-decoration-color:#000000;text-decoration-line:none;text-decoration-style:solid;text-indent:0;text-orientation:mixed;text-transform:none;white-space:normal"/>
 <path d="m96 95c-4.4005 0-8 3.5994-8 8s3.5995 8 8 8c4.4005 0 8-3.5994 8-8s-3.5995-8-8-8zm0 3c2.7793 0 5 2.2206 5 5s-2.2207 5-5 5-5-2.2206-5-5 2.2207-5 5-5z" style="color-rendering:auto;color:#000000;dominant-baseline:auto;fill:#4a4a4a;font-feature-settings:normal;font-variant-alternates:normal;font-variant-caps:normal;font-variant-ligatures:normal;font-variant-numeric:normal;font-variant-position:normal;image-rendering:auto;isolation:auto;mix-blend-mode:normal;shape-padding:0;shape-rendering:auto;solid-color:#000000;text-decoration-color:#000000;text-decoration-line:none;text-decoration-style:solid;text-indent:0;text-orientation:mixed;text-transform:none;white-space:normal"/>
</svg>
