<svg width="192" height="192" version="1.1" viewBox="0 0 192 192" xmlns="http://www.w3.org/2000/svg">
 <path d="m36 172s-8 0-8-8 8-8 8-8v-24h12v40z" style="fill:#d2d2d2"/>
 <path d="m36 128c0-16 8-18.037 8-24 0-8-4-8-4-8l36-28s16 16 32 20c11.57 2.8924 23.25 7.8971 32 16 11.409 10.565 24 40 24 40l-4 28h-112s-8 0-8-8 8-8 8-8-12-12-12-28z" style="fill:#ececec"/>
 <path d="m68 40s24-13.6 36-17.6c12.712-4.2374 40-2.4 40 1.6 0 8-17.247 16.008-28 20-13.807 5.1253-44 4-44 4z" style="fill:#d8d8d8"/>
 <path d="m40 96c10.048 1.4665 20.016-5.7254 28-12 5.2416-4.1195 11.207-9.3807 12-16 1.2086-10.082-4-28-12-28s-29.067 6.6891-40 16c-5.919 5.0408-12 12.225-12 20 0 8 13.696 18.496 24 20z" style="fill:#fff"/>
 <path d="m16 76v-8c0-8 8-8 8-8s5.3333 5.3333 4 8c-4 8-12 8-12 8z" style="fill:#ff837d"/>
 <path d="m44 64c0-4 7.1926-8 12-8 4 0 8 4.2288 8 8 0 4-4 4-8 4s-12 0.21637-12-4z" style="fill:#56595b"/>
 <circle cx="162" cy="158" r="14" style="fill:#fff;paint-order:stroke fill markers"/>
 <path d="m64 172c-4 0-8-4.2288-8-8 0-5.6568 4-12 12-12 4.2164 0 8 4 12 4h8s-4-12.225-4-20c0-16 11.739-27.12 24-28 14.137-1.015 32 12 32 28 0 7.5425-16 8-16 16 0 4.8074 8 4 8 12s-8 8-8 8z" style="fill:#fff"/>
 <path d="m68 40s36-4 52-4c13.92 0 40 4 40 12s-27.889 20-44 20c-12 0-40-8-40-8z" style="fill:#fff"/>
</svg>
