<svg width="192" height="192" version="1.1" viewBox="0 0 192 192" xmlns="http://www.w3.org/2000/svg">
 <path d="m96 12c-24.182 0-41.605 10.817-51.338 26.848-9.733 16.031-12.662 36.352-12.662 57.152 0 19.88 12.107 40.448 25.207 57.145 6.5501 8.3481 13.452 15.615 19.789 21.02 3.1687 2.7023 6.1811 4.943 9.1445 6.6582 2.9635 1.7152 5.7233 3.1777 9.8594 3.1777 7.9541 0 13.953-4.2678 20.596-9.7559 6.6428-5.488 13.469-12.827 19.795-21.225 12.651-16.795 23.609-37.467 23.609-57.02 0-20.8-2.9291-41.121-12.662-57.152s-27.156-26.848-51.338-26.848z" style="color-rendering:auto;color:#000000;dominant-baseline:auto;fill:#9abeff;font-feature-settings:normal;font-variant-alternates:normal;font-variant-caps:normal;font-variant-ligatures:normal;font-variant-numeric:normal;font-variant-position:normal;image-rendering:auto;isolation:auto;mix-blend-mode:normal;shape-padding:0;shape-rendering:auto;solid-color:#000000;text-decoration-color:#000000;text-decoration-line:none;text-decoration-style:solid;text-indent:0;text-orientation:mixed;text-transform:none;white-space:normal"/>
 <path d="m48.041 96c-1.8279-0.01855-3.4358 1.2043-3.9062 2.9707 0 0-0.29355 1.2291-0.31641 2.7422-0.02285 1.5131 0.15239 3.5939 0.83789 6.123 1.371 5.0583 4.785 11.864 12.49 19.703 4.4512 4.5285 10.823 7.346 16.17 9.3359 5.3473 1.9899 9.7754 3.0215 9.7754 3.0215 3.0165 0.70334 5.6536-2.1408 4.7246-5.0957 0 0-4.5836-15.366-14.08-25.531-10.943-11.713-25.297-13.246-25.297-13.246-0.13234-0.014437-0.26532-0.02226-0.39844-0.023438z" style="color-rendering:auto;color:#000000;dominant-baseline:auto;fill:#fff;font-feature-settings:normal;font-variant-alternates:normal;font-variant-caps:normal;font-variant-ligatures:normal;font-variant-numeric:normal;font-variant-position:normal;image-rendering:auto;isolation:auto;mix-blend-mode:normal;shape-padding:0;shape-rendering:auto;solid-color:#000000;text-decoration-color:#000000;text-decoration-line:none;text-decoration-style:solid;text-indent:0;text-orientation:mixed;text-transform:none;white-space:normal"/>
 <path d="m144.04 96c-0.16113-0.0019-0.32223 0.0059-0.48242 0.02344 0 0-14.354 1.5334-25.297 13.246-9.4964 10.165-14.08 25.531-14.08 25.531-0.92899 2.9549 1.7081 5.799 4.7246 5.0957 0 0 4.4281-1.0316 9.7754-3.0215 5.3473-1.9899 11.719-4.8075 16.17-9.3359 7.7052-7.8391 11.119-14.645 12.49-19.703 0.68551-2.5292 0.86074-4.6099 0.83789-6.123-0.0228-1.5131-0.31641-2.7422-0.31641-2.7422-0.46238-1.7362-2.0256-2.9512-3.8223-2.9707z" style="color-rendering:auto;color:#000000;dominant-baseline:auto;fill:#fff;font-feature-settings:normal;font-variant-alternates:normal;font-variant-caps:normal;font-variant-ligatures:normal;font-variant-numeric:normal;font-variant-position:normal;image-rendering:auto;isolation:auto;mix-blend-mode:normal;shape-padding:0;shape-rendering:auto;solid-color:#000000;text-decoration-color:#000000;text-decoration-line:none;text-decoration-style:solid;text-indent:0;text-orientation:mixed;text-transform:none;white-space:normal"/>
</svg>
