<svg width="192" height="192" version="1.1" viewBox="0 0 192 192" xmlns="http://www.w3.org/2000/svg">
 <circle cx="96" cy="96" r="88" opacity=".63" style="fill:#728dbe;opacity:1"/>
 <circle cx="96" cy="96" r="78.767" style="fill:#ececec;stroke-width:.89508"/>
 <path d="m111.3 164.46c1.2982-5.7283-0.71983-11.727-0.38242-17.591 0.62441-10.852 0.70681-23.352 5.6088-33.015 2.338-4.6087 6.1698-6.9982 10.325-10.07 3.7906-2.8024 7.1345-4.165 11.6-6.3736 2.0922-1.0348 3.5656-1.253 3.6967-3.5692 0.0714-1.2613-0.75134-2.4194-1.2747-3.5692-0.62723-1.378-0.23841-2.0361-3.4791-1.3339-1.7167 0.37198-3.551 1.6017-5.2728 1.9494-4.4351 0.89577-9.8591-0.1056-9.8591-0.1056s2.4048-7.4835 3.9516-11.09c1.7078-3.9818 5.8637-11.6 5.8637-11.6s1.7217-2.8099 0-5.6088c-1.1801-1.9185-2.6057-3.6753-3.9516-5.4813-1.711-2.2958-4.0791-0.12747-4.0791-0.12747s-14.177 10.176-27.615 21.534c-0.86227 0.7288-2.8858 1.8545-3.998 2.0486-2.7626 0.48213-5.6089-0.02708-8.4132 0-2.9639 0.02862-4.0822 1.1848-5.8637 2.2945-5.7692 3.5936-9.2567 7.5962-14.231 12.054-1.1214 1.0052-6.2875 1.653-8.7145 2.7324-3.2215 1.4327-5.108 4.9117-8.0308 6.8835-5.3566 3.6137-17.643 7.0973-17.209 8.9231 0.64402 2.7097 4.1463 6.1444 6.6286 8.7318 5.3526 5.5794 9.8791 8.0308 9.8791 8.0308s-1.3825 3.4512-2.8681 5.0352c-1.6528 1.7622-11.926 11.201-11.926 11.201l12.185 11.819 20.268 12.747 21.67 5.6088 22.049-0.47013s2.9163-9.2693 3.4418-11.588z" style="fill:#728dbe;stroke-width:.85911"/>
 <path d="m75.478 104.93c-0.33223-1.7292 1.2041-7.0843 3.5692-10.708 1.8593-2.8485 4.7498-5.4756 8.0308-6.3736 1.9612-0.5368 4.7696-1.0873 5.6088 0.76483 0.93533 2.0644-1.8633 4.2374-3.4418 5.8637-1.5025 1.5482-3.7944 2.0969-5.4813 3.4418-3.1951 2.5472-7.607 10.544-8.2857 7.011z" style="fill:#fff;stroke-width:.85911"/>
</svg>
