<svg width="192" height="192" version="1.1" viewBox="0 0 192 192" xmlns="http://www.w3.org/2000/svg">
 <rect transform="scale(1,-1)" x="20" y="-172" width="152" height="152" rx="10" style="fill-rule:evenodd;fill:#f8c18c"/>
 <path d="m96.037 65c-13.762 0-21.084 8.5555-21.084 16.262l11.502 1.0234s2.5631-7.7031 8.5098-7.7031c5.9467 0 5.5391 4.7918 5.5391 5.8281v4.9805c-7.6182 0.25527-26.537 2.4209-26.537 18.287 0 17.062 21.653 17.777 28.754 6.75 0.2742 0.44727 0.58612 0.88669 0.97657 1.2969 2.6125 2.7316 6.0976 5.9863 6.0976 5.9863l8.8789-8.7285c4e-3 -2e-3 -5.043-3.9422-5.043-8.2207v-22.926c0-3.9382-3.8292-12.836-17.594-12.836zm4.4688 27.578v6.3086c-2e-3 12.495-13.186 10.602-13.186 2.6797 0-7.3287 7.8947-8.8137 13.186-8.9883zm25.117 24.787c-0.73128 0.00935-1.4417 0.05505-2.0625 0.13086-2.4875 0.29454-6.2211 1.8052-5.8965 2.7129 0.16671 0.34036 0.50608 0.1879 2.2148 0.03516 1.7132-0.17018 6.5134-0.77106 7.5137 0.5293 1.0046 1.3091-1.5313 7.5469-1.9941 8.5527-0.44748 1.0058 0.16963 1.2655 1.0098 0.59571 0.82916-0.66982 2.331-2.4048 3.3379-4.8594 1.0002-2.4676 1.6096-5.91 1.0195-6.6758-0.58239-0.75437-2.9488-1.0495-5.1426-1.0215zm-61.926 0.61133c-0.59061 0.02332-1.0735 0.55086-0.28711 1.4492 3.8277 4.6167 16.373 15.744 32.748 15.744 16.386 0 26.134-8.8921 27.354-10.443 1.2108-1.5382 0.35486-2.3873-0.86914-1.8789-28.922 13.691-46.872 2.2371-58.361-4.7207-0.17768-0.10963-0.38711-0.15816-0.58398-0.15039z" style="fill-rule:evenodd;fill:#fff"/>
</svg>
