<svg width="192" height="192" version="1.1" viewBox="0 0 192 192" xmlns="http://www.w3.org/2000/svg">
 <rect x="20" y="20" width="152" height="152" rx="9.9346" opacity=".63" style="fill:#73ada4;opacity:1"/>
 <path d="m82.576 59.5c-0.42115 4e-3 -0.84706 0.17018-1.1797 0.49609-0.66525 0.65182-0.69782 1.6897-0.07227 2.3281l3.7129 3.7891c-1.1649 0.83984-2.2178 1.8128-3.1426 2.8906-5.49e-4 -2e-3 -0.0014-0.0039-2e-3 -0.0059-2.5854 3.0143-4.1425 6.8783-4.1425 11.106v0.65625h36.5v-0.65625c0-5.7396-2.8644-10.801-7.2871-13.99l3.7109-3.7891c0.62557-0.63846 0.59493-1.6763-0.0703-2.3281-0.66526-0.65182-1.7045-0.66193-2.3301-0.02344l-4.3008 4.3887c-2.409-1.1202-5.1062-1.7656-7.9727-1.7656s-5.5636 0.64538-7.9727 1.7656l-4.3008-4.3887c-0.31278-0.31923-0.72924-0.47702-1.1504-0.47266zm-12.459 24.105c-2.5713 0-4.6426 1.9873-4.6426 4.4551v21.877c0 2.4678 2.0712 4.4531 4.6426 4.4531 2.5713 0 4.6406-1.9854 4.6406-4.4531v-21.877c0-2.4678-2.0693-4.4551-4.6406-4.4551zm51.766 0c-2.5714 0-4.6406 1.9873-4.6406 4.4551v21.877c0 0.13112 0.0276 0.25464 0.0391 0.38281 0.2045 2.2838 2.1671 4.0703 4.6016 4.0703 2.5713 0 4.6426-1.9854 4.6426-4.4531v-21.877c0-2.4678-2.0712-4.4551-4.6426-4.4551zm-44.133 0.19922v30.633c0 1.5116 1.3304 2.7285 2.9824 2.7285h2.9766v10.879c0 2.2895 1.7678 4.1644 4.0996 4.4258 6e-4 -8e-3 0.0014-0.0156 2e-3 -0.0234 0.17962 0.0204 0.3555 0.0527 0.54102 0.0527 2.5713 0 4.6406-1.9873 4.6406-4.4551v-10.879h6.0156v10.879c1e-6 2.4678 2.0693 4.4551 4.6406 4.4551 2.5713 0 4.6426-1.9873 4.6426-4.4551v-10.879h2.9766c1.652 0 2.9824-1.217 2.9824-2.7285v-30.633h-28.949z" style="fill:#fefefe"/>
 <circle cx="88.429" cy="73.017" r="1.4575" style="fill:#73ada4"/>
 <circle cx="103.57" cy="73.017" r="1.4575" style="fill:#73ada4"/>
</svg>
