<svg width="192" height="192" version="1.1" viewBox="0 0 192 192" xmlns="http://www.w3.org/2000/svg">
 <rect x="20" y="20" width="152" height="152" rx="9.9346" opacity=".63" style="fill:#728dbe;opacity:1"/>
 <path d="m59.804 99.042c-0.5429-19.908 27.069-22.662 27.069-22.662l-0.36863 2.8535s-21.12 2.0672-21.366 17.36c-0.15801 9.7976 18.636 17.932 31.901 17.212 18.784-1.0206 29.243-8.6964 29.824-17.509 0.57366-8.7001-12.612-14.838-12.612-14.838l2.2256-1.3354s15.806 5.4305 15.431 16.47c-0.48149 14.19-12.369 23.711-35.165 24.037-15.447 0.22107-36.55-7.3322-36.938-21.588z" style="fill:#fff"/>
 <path d="m92.5 60-28.5 72h14l18-44 9.418 23.023c5.1303-0.99852 10.582-3.0234 12.432-4.5352l-18.35-46.488zm29.344 56.449c-3.4203 2.0631-7.532 3.6161-12.318 4.6152l4.4746 10.936h14z" style="fill:#fff"/>
 <circle cx="113.36" cy="80.272" r="3.4127" style="fill:#fff;paint-order:stroke fill markers"/>
</svg>
