<svg width="192" height="192" version="1.1" viewBox="0 0 192 192" xmlns="http://www.w3.org/2000/svg">
 <path d="m96 9c-43.398 0-79.369 31.776-85.928 73.33 2.9431 7.3108 11.688 25.627 27.32 31.145 19.559 6.9033 35.742 2.4583 42.57 0-2.8142-27.099 2.5065-52.976 16.971-70.758 14.914-18.335 41.666-18.69 48.254-18.482-13.992-9.6084-30.932-15.234-49.188-15.234zm44.703 19.445c-6.3118 0.03686-12.928 1.7625-18.746 3.9162-21.327 7.8951-28.691 28.336-31.926 41.133 25.567 8.0121 51.846 35.849 56.088 59.828 3.8315 21.656-6.7773 36.025-10.18 39.984 27.954-14.472 47.061-43.656 47.061-77.307 0-27.027-12.324-51.174-31.658-67.131-0.71432-0.06946-4.8478-0.45764-10.639-0.42383zm-131.65 64.736c-0.029804 0.93615-0.050781 1.875-0.050781 2.8184 0 48.049 38.951 87 87 87 12.249 0 23.905-2.5355 34.477-7.1035 4.1677-5.5072 14.691-21.713 10.465-40.273-5.0442-22.153-20.709-33.365-20.709-33.365s-32.596 22.188-64.143 20.996c-35.753-1.3513-44.989-25.433-47.039-30.072z" style="fill:#8c72bd"/>
</svg>
