<svg width="192" height="192" version="1.1" viewBox="0 0 192 192" xmlns="http://www.w3.org/2000/svg">
 <rect x="21" y="20" width="152" height="152" rx="10" style="fill-rule:evenodd;fill:#56595b"/>
 <rect x="28" y="25" width="20" height="86" style="fill-rule:evenodd;fill:#f9de81"/>
 <path d="m28 29h6.5195-6.5195zm0 7h6.5195-6.5195zm0 6h10-10zm0 7h6.5195-6.5195zm0 7h6.5195-6.5195zm0 7h6.5195-6.5195zm0 7h6.5195-6.5195zm0 6h10-10zm0 7h6.5195-6.5195zm0 7h6.5195-6.5195zm0 7h6.5195-6.5195zm0 7h6.5195-6.5195zm0 6h10-10zm0 7h6.5195-6.5195zm0 7h6.5195-6.5195zm0 7h6.5195-6.5195zm0 7h6.5195-6.5195zm0 6h10-10zm0 7h6.5195-6.5195zm0 7h6.5195-6.5195zm0 7h6.5195-6.5195z" style="fill:none;stroke-width:3;stroke:#56595b"/>
 <g transform="translate(58,25)" style="fill-rule:evenodd;fill:none">
  <rect width="13" height="83" rx="6.5" style="fill:#fff"/>
  <rect x="2" y="25" width="9" height="52" rx="4.5" style="fill:#ff837d"/>
 </g>
 <rect x="119" y="25" width="20" height="86" style="fill-rule:evenodd;fill:#fff"/>
 <rect x="119" y="49" width="20" height="62" style="fill-rule:evenodd;fill:#98dc9a"/>
 <rect x="151" y="37" width="14" height="74" style="fill-rule:evenodd;fill:#ff837d"/>
 <polygon transform="matrix(1,0,0,-1,0,61.817)" points="158 37 151 24.817 165 24.817" style="fill-rule:evenodd;fill:#d3b69a"/>
 <polygon transform="matrix(1,0,0,-1,0,53.221)" points="158 28.351 156 24.87 160 24.87" style="fill-rule:evenodd;fill:#4a4a4a"/>
 <path d="m93.726 31.022c-4.9675 0.17347-8.8539 4.3411-8.6804 9.3086 0.17347 4.9675 4.3411 8.8539 9.3086 8.6804 0.68694-0.02399 1.3532-0.12436 1.9909-0.29266l1.9273 55.189 6.9957-0.2443-2.2336-63.961-0.0131-0.26507c-0.30947-4.84-4.4167-8.5857-9.2955-8.4154z" style="fill-rule:evenodd;fill:#728dbe"/>
 <rect x="92" y="25" width="4" height="10" style="fill-rule:evenodd;fill:#728dbe"/>
 <path d="m94.274 31.022c4.9675 0.17347 8.8539 4.3411 8.6804 9.3086s-4.3411 8.8539-9.3086 8.6804c-0.68694-0.02399-1.3532-0.12436-1.9909-0.29266l-1.9273 55.189-6.9957-0.2443 2.2336-63.961 0.0131-0.26507c0.30947-4.84 4.4167-8.5857 9.2955-8.4154z" style="fill-rule:evenodd;fill:#9abeff"/>
 <circle cx="94" cy="40" r="4" style="fill-rule:evenodd;fill:#728dbe"/>
 <path d="m85.922 85.083s7.5016 0.81436 15.125-0.5163c7.6232-1.3307 11.296-3.4243 11.296-3.4243" style="fill:none;stroke-width:5;stroke:#9abeff"/>
 <path d="m21 96h66.006c5.5197 0 9.9943 4.4704 9.9943 9.9943v66.006h-66.006c-5.5197 0-9.9943-4.4704-9.9943-9.9943z" style="fill-rule:evenodd;fill:#b1b5bd"/>
 <path d="m97 105.99c0-5.5197 4.4704-9.9943 9.9943-9.9943h66.006v66.006c0 5.5197-4.4704 9.9943-9.9943 9.9943h-66.006z" style="fill-rule:evenodd;fill:#d2d2d2"/>
 <path d="m54.728 148.24h5.243v-10.756h10.756v-5.297h-10.756v-10.756h-5.243v10.756h-10.81v5.297h10.81zm70.05-13.621h25.945v-4.3241h-25.945zm0 8.6482h25.945v-4.3241h-25.945z" style="fill-rule:evenodd;fill:#fff"/>
</svg>
