<svg width="192" height="192" version="1.1" viewBox="0 0 192 192" xmlns="http://www.w3.org/2000/svg">
 <circle cx="96.5" cy="96.5" r="88.052" style="fill:#73ada4"/>
 <path d="m62.766 63.875c-17.476 0-31.164 13.715-31.164 31.223 0 0.197 0.010672 0.38898 0.013672 0.58398h0.00586c-0.007199 0.27296-0.019532 0.54534-0.019532 0.82031 0 17.508 14.082 31.221 31.166 31.221 12.327 0 22.716-6.7318 28.965-18.008 1.4452-2.607 2.8385-5.3737 4.2988-8.2832 1.4605 2.9098 2.8535 5.676 4.2988 8.2832 6.249 11.276 16.64 18.008 28.967 18.008 17.084 0 31.166-13.713 31.166-31.221 0-0.27497-0.01233-0.54735-0.01953-0.82031h0.00586c3e-3 -0.195 0.01367-0.38698 0.01367-0.58398 0-17.508-13.688-31.223-31.164-31.223-16.265 0-25.99 11.427-33.268 24.484-7.2772-13.057-17.001-24.484-33.266-24.484zm0 5.6133c14.853 0 23.139 12.434 29.891 25.322-0.028072 0.056822-0.05793 0.1131-0.085938 0.16992h-0.005859c-0.061181 0.12414-0.11879 0.24698-0.17969 0.37109-0.053946 0.10999-0.11035 0.22011-0.16406 0.33008h0.005859c-0.56953 1.1652-1.1335 2.3309-1.6797 3.4883-1.444 3.06-2.9501 5.8805-4.4141 8.5215-5.325 9.608-13.652 14.418-24.068 14.418-14.174 0-24.861-11.009-24.861-25.609 0-0.511 0.015016-1.0185 0.041016-1.5195h-0.039063c0.061226-14.304 11.266-25.492 25.561-25.492zm66.533 0c14.295 0 25.497 11.189 25.559 25.492h-0.03906c0.026 0.501 0.04297 1.0085 0.04297 1.5195 0 14.6-10.689 25.609-24.863 25.609-10.416 0-18.741-4.81-24.066-14.418-1.464-2.641-2.9701-5.4615-4.4141-8.5215-0.54622-1.1574-1.1121-2.323-1.6816-3.4883h0.007812c-0.074076-0.15167-0.15204-0.30338-0.22656-0.45508-0.040442-0.082295-0.078577-0.16379-0.11914-0.24609h-0.003906c-0.028264-0.057344-0.057608-0.11453-0.085938-0.17188 6.751-12.888 15.038-25.32 29.891-25.32zm-4.8516 17.775v6.0801h-6.0801v5.8457h6.0801v6.082h5.8496v-6.082h6.0801v-5.8457h-6.0801v-6.0801h-5.8496zm-68.523 6.0801v5.8457h18.008v-5.8457h-18.008z" style="fill:#fff"/>
</svg>
