<svg width="192" height="192" version="1.1" viewBox="0 0 192 192" xmlns="http://www.w3.org/2000/svg">
 <style type="text/css">.st0{fill:#FFFFFF;}</style>
 <style type="text/css">.st0{fill:#FFFFFF;}</style>
 <path d="m48 20c-2.216 0-4 1.784-4 4v8h-8c-2.216 0-4 1.784-4 4v8h-8c-2.216 0-4 1.784-4 4v96c0 2.216 1.784 4 4 4h8v8c0 2.216 1.784 4 4 4h8v8c0 2.216 1.784 4 4 4h96c2.216 0 4-1.784 4-4v-8h8c2.216 0 4-1.784 4-4v-8h8c2.216 0 4-1.784 4-4v-96c0-2.216-1.784-4-4-4h-8v-8c0-2.216-1.784-4-4-4h-8v-8c0-2.216-1.784-4-4-4z" style="fill:#56595b;paint-order:stroke fill markers;stroke-width:4"/>
 <path d="m44 32v12h-12v104h12v12h104v-12h12v-104h-12v-12z" style="fill:#ececec;paint-order:stroke fill markers;stroke-width:4"/>
 <rect x="60" y="64" width="16" height="40" ry="4" style="fill:#56595b;paint-order:stroke fill markers;stroke-width:4"/>
 <rect x="116" y="64" width="16" height="40" ry="4" style="fill:#56595b;paint-order:stroke fill markers;stroke-width:4"/>
 <path d="m32 124v24h12v12h104v-12h12v-24h-8c-2.216 0-4 1.784-4 4v8h-104v-8c0-2.216-1.784-4-4-4h-8z" style="fill:#73ada4;paint-order:stroke fill markers;stroke-width:4"/>
 <path d="m32 124v24h12v12h104v-12h12v-24h-8c-2.216 0-4 1.784-4 4v8h-104v-8c0-2.216-1.784-4-4-4h-8z" style="fill:#fff;opacity:.25;paint-order:stroke fill markers;stroke-width:4"/>
</svg>
