<svg width="192" height="192" version="1.1" viewBox="0 0 192 192" xmlns="http://www.w3.org/2000/svg">
 <path d="m96 63.93a32.068 32.068 0 0 0-32.07 32.07 32.068 32.068 0 0 0 32.07 32.07 32.068 32.068 0 0 0 32.07-32.07 32.068 32.068 0 0 0-32.07-32.07zm0 20.07a12 12 0 0 1 12 12 12 12 0 0 1-12 12 12 12 0 0 1-12-12 12 12 0 0 1 12-12z" style="fill:#fff;opacity:.25;paint-order:stroke fill markers;stroke-width:4.5811"/>
 <path d="m96 8a88 88 0 0 0-88 88 88 88 0 0 0 88 88 88 88 0 0 0 88-88 88 88 0 0 0-88-88zm0 60a28 28 0 0 1 28 28 28 28 0 0 1-28 28 28 28 0 0 1-28-28 28 28 0 0 1 28-28z" style="fill:#ccc;stroke-width:4"/>
 <path d="m142.62 21.414-31.797 50.875a28 28 0 0 1 13.18 23.711 28 28 0 0 1-1.4609 8.8438l56.844 18.953a88 88 0 0 0 4.6172-27.797 88 88 0 0 0-41.383-74.586zm-130 46.789a88 88 0 0 0-4.6172 27.797 88 88 0 0 0 41.383 74.586l31.797-50.875a28 28 0 0 1-13.18-23.711 28 28 0 0 1 1.4609-8.8438z" style="fill:#fff;opacity:.25;stroke-width:4"/>
 <path d="m96 8a88 88 0 0 0-17.275 1.7227l18.498 21.141-14.59 13.678c-0.87354 0.81873-0.83701 2.2163 0.078126 2.9883l17.938 15.105-1.9629 5.5a28 28 0 0 1 8.3711 2.1504l7.3086-6.8223c0.78928-0.73665 0.85152-1.9667 0.14063-2.7793l-12.498-14.285 19.102-12.734c0.73609-0.49056 1.0626-1.4064 0.80273-2.252l-6.502-21.131a88 88 0 0 0-19.41-2.2812z" style="color-rendering:auto;color:#000000;dominant-baseline:auto;font-feature-settings:normal;font-variant-alternates:normal;font-variant-caps:normal;font-variant-ligatures:normal;font-variant-numeric:normal;font-variant-position:normal;image-rendering:auto;isolation:auto;mix-blend-mode:normal;opacity:.25;shape-padding:0;shape-rendering:auto;solid-color:#000000;text-decoration-color:#000000;text-decoration-line:none;text-decoration-style:solid;text-indent:0;text-orientation:mixed;text-transform:none;white-space:normal"/>
</svg>
