<svg width="192" height="192" version="1.1" viewBox="0 0 192 192" xmlns="http://www.w3.org/2000/svg">
 <circle cx="96" cy="96" r="88" style="fill:#98dc9a;stroke-width:4"/>
 <path d="m80.039 55.398c-1.4898-0.016-3.0345 0.2856-4.5547 1.0703-3.3504 1.7293-4.9258 5.3147-5.375 9.1875-0.44921 3.8728 0.06225 8.3273 1.0859 13 0.08789 0.40116 0.23264 0.81488 0.32812 1.2188-0.84009 0.1492-1.7137 0.2456-2.5312 0.42188-4.3357 0.93596-8.3157 2.2526-11.461 4.3047-3.1452 2.0521-5.5337 5.1087-5.7422 8.9453-0.25144 4.6259 2.6041 8.0292 5.1719 10.078 2.5678 2.049 5.1641 3.0547 5.1641 3.0547a2.4455 2.4455 0 1 0 1.7969-4.5469s-1.9893-0.80004-3.9141-2.3359-3.4711-3.4976-3.3359-5.9844c0.11221-2.0641 1.2019-3.5974 3.5312-5.1172 2.3293-1.5198 5.8253-2.7548 9.8203-3.6172 0.8795-0.19 1.8455-0.304 2.7656-0.46092 1.0348 3.4804 2.2628 6.8872 3.6094 10.164-2.7279 4.8846-5.4499 10.328-7.3125 15.664-1.4617 4.1878-2.4161 8.2696-2.3047 12.023 0.1114 3.7538 1.4832 7.3843 4.6484 9.5625 3.9411 2.712 8.583 1.7196 11.898 0.3748 3.3155-1.3446 5.7656-3.2344 5.7656-3.2344a2.4462 2.4462 0 1 0-2.9766-3.8828s-2.0117 1.5261-4.625 2.5859c-2.6133 1.0598-5.3621 1.451-7.2891 0.1248-1.7029-1.1719-2.4488-2.8997-2.5312-5.6797-0.08248-2.78 0.6844-6.4069 2.0312-10.266 1.3254-3.7973 3.1855-7.8157 5.1797-11.633 0.79398 1.6572 1.5938 3.2887 2.3828 4.7109 3.5164 6.3382 8.7348 14.888 14.625 21.43 2.9451 3.2708 6.0482 6.0625 9.3828 7.7969 3.3347 1.7344 7.133 2.3696 10.625 0.82812 2.0686-0.91312 3.592-2.5982 4.5078-4.5234 0.91581-1.9252 1.3163-4.0945 1.4375-6.4063 0.2424-4.6236-0.64591-9.8833-1.8828-14.945-2.4738-10.124-6.4531-19.461-6.4531-19.461a2.4455 2.4455 0 1 0-4.5 1.9141s3.8522 9.082 6.2031 18.703c1.1755 4.8105 1.9479 9.7574 1.75 13.531-0.0989 1.8869-0.44389 3.4592-0.96875 4.5625-0.52485 1.1034-1.1395 1.7376-2.0703 2.1484-1.9142 0.845-3.8886 0.60604-6.3906-0.69528-2.502-1.3014-5.2956-3.7144-8.0078-6.7266-5.4244-6.0244-10.563-14.356-13.984-20.523-1.2199-2.1989-2.4774-4.8756-3.7031-7.6953 1.1093-1.9228 2.2033-3.7441 3.2109-5.3516 1.2737-2.0319 2.8636-4.2806 4.5625-6.5703 1.9047-0.036 3.7393-0.0504 5.3906-0.032 7.4045 0.0852 18.081 1.4878 26.586 4.1406 4.2524 1.3264 7.9632 2.9827 10.391 4.7656s3.4053 3.4004 3.3359 5.0703c-0.0941 2.2633-1.8292 4.0155-3.9609 5.3281s-4.2656 1.9141-4.2656 1.9141a2.4458 2.4458 0 1 0 1.2891 4.7187s2.7381-0.73916 5.5469-2.4687 6.084-4.7309 6.2734-9.2891c0.15655-3.7671-2.178-6.903-5.3203-9.2109-3.1423-2.308-7.2616-4.0756-11.828-5.5-9.1332-2.8488-20.04-4.2679-27.992-4.3594-0.4888-4e-3 -1.0799 8e-3 -1.5938 8e-3 2.6478-3.1947 5.4761-6.3087 8.3203-8.8984 3.1726-2.8888 6.3381-5.1352 8.9766-6.2344 2.6384-1.0992 4.4137-1.0928 5.8359-0.1408 1.8823 1.2602 2.4678 3.6528 2.4766 6.1562 9e-3 2.5034-0.59375 4.6406-0.59375 4.6406a2.4467 2.4467 0 0 0 4.7031 1.3516s0.79283-2.7171 0.78125-6.0156c-0.0117-3.2985-0.85748-7.6572-4.6484-10.195-1.5498-1.0376-3.2859-1.4834-5.0703-1.4844-1.7844-8.8e-4 -3.6209 0.44436-5.3672 1.1719-3.4926 1.455-6.9698 4.018-10.391 7.1328-4.0599 3.6967-7.9464 8.1783-11.367 12.617-3.4541 0.114-7.0904 0.3392-10.734 0.77344-0.11992-0.49492-0.2994-1.0123-0.40625-1.5-0.95328-4.3513-1.3548-8.3988-1.0078-11.391 0.34704-2.9918 1.2726-4.6396 2.7578-5.4062 2.0129-1.039 4.39-0.3972 6.5859 0.80468 2.196 1.202 3.7812 2.7578 3.7813 2.7578a2.4455 2.4455 0 1 0 3.4531-3.4532s-1.9894-2.0099-4.8828-3.5937c-1.4467-0.79192-3.2305-1.5348-5.1563-1.8125-0.48145-0.0696-0.97214-0.112-1.4687-0.1172zm3.375 28c-0.87378 1.2685-1.7685 2.5472-2.5078 3.7266-0.42688 0.68096-0.90752 1.4998-1.3594 2.2422-0.66937-1.8099-1.3186-3.6236-1.8828-5.461 1.9181-0.2128 3.836-0.3912 5.75-0.5078z" style="color-rendering:auto;color:#000000;dominant-baseline:auto;fill:#fff;font-feature-settings:normal;font-variant-alternates:normal;font-variant-caps:normal;font-variant-ligatures:normal;font-variant-numeric:normal;font-variant-position:normal;image-rendering:auto;isolation:auto;mix-blend-mode:normal;shape-padding:0;shape-rendering:auto;solid-color:#000000;text-decoration-color:#000000;text-decoration-line:none;text-decoration-style:solid;text-indent:0;text-orientation:mixed;text-transform:none;white-space:normal"/>
 <circle cx="96.168" cy="96.407" r="5.1872" style="fill:#fff;paint-order:stroke fill markers;stroke-width:4.4974"/>
</svg>
