<svg width="192" height="192" version="1.1" viewBox="0 0 192 192" xmlns="http://www.w3.org/2000/svg">
 <path d="m96.297 84.414a8.0008 8.0008 0 0 0-8.2266 6.9297l-0.77344 5.7969a8.0008 8.0008 0 0 0-15.188 1.9453l-0.96094 5.75a8.0008 8.0008 0 0 0-15.086 2.5703l-0.70312 5.6484a8.0008 8.0008 0 0 0-10.789 10.32l8 20a8.0008 8.0008 0 0 0 11.094 4.125l0.49218 2.4688a8.0008 8.0008 0 0 0 15.492 0.75l0.44532 2.8984a8.0008 8.0008 0 0 0 15.836-0.1564l0.070312-0.52332 0.07032 0.52344a8.0008 8.0008 0 0 0 15.836 0.1564l0.44531-2.8984a8.0008 8.0008 0 0 0 15.492-0.75l0.49218-2.4687a8.0008 8.0008 0 0 0 11.094-4.125l8-20a8.0008 8.0008 0 0 0-10.789-10.32l-0.70312-5.6484a8.0008 8.0008 0 0 0-15.086-2.5703l-0.96094-5.75a8.0008 8.0008 0 0 0-15.188-1.9375l-0.77343-5.8047a8.0008 8.0008 0 0 0-7.6328-6.9297z" style="color-rendering:auto;color:#000000;dominant-baseline:auto;fill:#f9de81;font-feature-settings:normal;font-variant-alternates:normal;font-variant-caps:normal;font-variant-ligatures:normal;font-variant-numeric:normal;font-variant-position:normal;image-rendering:auto;isolation:auto;mix-blend-mode:normal;shape-padding:0;shape-rendering:auto;solid-color:#000000;text-decoration-color:#000000;text-decoration-line:none;text-decoration-style:solid;text-indent:0;text-orientation:mixed;text-transform:none;white-space:normal"/>
 <path d="m95.875 92.008c-0.95224 0.0584-1.7307 0.78128-1.8594 1.7266l-6.1562 46.188-5.8828-38.227c-0.33656-2.2605-3.5896-2.2799-3.9531-0.024l-6.2031 37.227-5.8594-29.289c-0.44557-2.2215-3.6591-2.1069-3.9453 0.1408l-3.0391 24.305-5.1172-12.797c-0.9894-2.4796-4.7081-0.99524-3.7188 1.4844l8 16.399c0.76426 1.9232 3.5886 1.5617 3.8438-0.49204l2.4687-16.172 5.5859 24.313c0.42764 2.1912 3.5796 2.1412 3.9375-0.0624l5.9453-32.078 6.1016 36.055c0.34652 2.2909 3.6598 2.2581 3.9609-0.04l6.0156-41.515 6.0156 41.516c0.30112 2.2973 3.6144 2.3301 3.9609 0.04l6.1016-36.055 5.9453 32.078c0.35784 2.2037 3.5099 2.2537 3.9375 0.0624l5.5859-24.313 2.4687 16.172c0.25504 2.0538 3.0794 2.4154 3.8438 0.49216l8-16.399c0.98968-2.4792-2.7291-3.9637-3.7188-1.4846l-5.1172 12.797-3.0391-24.305c-0.28624-2.2476-3.4997-2.3621-3.9453-0.1408l-5.8594 29.289-6.2031-37.227c-0.36352-2.2563-3.6166-2.2369-3.9531 0.024l-5.8828 38.226-6.1562-46.188c-0.1414-1.0397-1.0622-1.7934-2.1094-1.7266z" style="color-rendering:auto;color:#000000;dominant-baseline:auto;fill:#ff837d;font-feature-settings:normal;font-variant-alternates:normal;font-variant-caps:normal;font-variant-ligatures:normal;font-variant-numeric:normal;font-variant-position:normal;image-rendering:auto;isolation:auto;mix-blend-mode:normal;shape-padding:0;shape-rendering:auto;solid-color:#000000;text-decoration-color:#000000;text-decoration-line:none;text-decoration-style:solid;text-indent:0;text-orientation:mixed;text-transform:none;white-space:normal"/>
 <path d="m96 20c-34.167 0-52.841 14.971-61.047 30.211-8.0465 14.944-6.9822 29.63-6.9375 30.203l-0.015625-0.41408v0.42188c-9.6161 5.0626-20 15.941-20 39.578 0 52 36 52 36 52h4s8 0 8-8v-80c0-8-8-8-8-8h-3.9297c0.20384-3.9859 1.081-10.976 4.9766-18.211 5.7939-10.76 17.12-21.789 46.953-21.789 29.833 0 41.159 11.029 46.953 21.789 3.8956 7.2346 4.7727 14.225 4.9766 18.211h-3.9297s-8 0-8 8v80c0 8 8 8 8 8h4s36 0 36-52c0-23.637-10.384-34.516-20-39.578v-0.42188l-0.0156 0.41408c0.0447-0.5734 1.109-15.26-6.9375-30.203-8.2061-15.24-26.88-30.211-61.047-30.211z" style="fill:#728dbe"/>
 <rect x="44" y="76" width="4" height="96" style="fill:#54688c;paint-order:stroke fill markers;stroke-width:4"/>
 <rect transform="scale(-1,1)" x="-148" y="76" width="4" height="96" style="fill:#54688c;paint-order:stroke fill markers;stroke-width:4"/>
</svg>
