<svg width="192" height="192" version="1.1" viewBox="0 0 192 192" xmlns="http://www.w3.org/2000/svg" xmlns:xlink="http://www.w3.org/1999/xlink">
 <rect transform="matrix(.99451 -.1046 .10386 .99459 0 0)" x="16.058" y="48.79" width="148.42" height="19.859" rx="9.8944" style="fill:#56595b;paint-order:stroke fill markers;stroke-width:.99119"/>
 <rect x="20" y="72" width="152" height="88" rx="10" style="fill-rule:evenodd;fill:#56595b"/>
 <line x1="45.5" x2="147.5" y1="112.5" y2="112.5" style="fill:none;stroke-linecap:round;stroke-width:5;stroke:#fff"/>
 <line x1="45.5" x2="147.5" y1="134.5" y2="134.5" style="fill:none;stroke-linecap:round;stroke-width:5;stroke:#fff"/>
 <path d="m45 72-20 20h25l20-20zm49 0-20 20h25l20-20zm49 0-20 20h25l18.787-18.787c-1.4206-0.77293-3.0498-1.2129-4.7871-1.2129z" style="fill-rule:evenodd;fill:#fff"/>
 <path d="m159.81 32.301c-0.33509 0.0014-0.67491 0.02081-1.0156 0.05664l-17.113 1.7988-17.676 21.828 24.865-2.6152 15.959-19.707c-1.4838-0.86979-3.2002-1.3689-5.0195-1.3613zm-42 4.3672-24.865 2.6152-17.674 21.826 24.865-2.6152zm-48.732 5.125-24.867 2.6152-16.439 20.303c1.5605 0.71685 3.3249 1.045 5.1641 0.85156l18.465-1.9414z" style="fill-rule:evenodd;fill:#fff"/>
</svg>
