<svg width="192" height="192" version="1.1" viewBox="0 0 192 192" xmlns="http://www.w3.org/2000/svg">
 <rect x="20" y="20" width="152" height="152" rx="9.9346" opacity=".63" style="fill:#ff837d;opacity:1"/>
 <path d="m80 64v8h8v-8h-8zm24 0v8h8v-8h-8zm-36 8v8h8v-8h-8zm24 0v8h8v-8h-8zm24 0v8h8v-8h-8zm-60 4v8h8v-8h-8zm24 0v8h8v-8h-8zm24 0v8h8v-8h-8zm24 0v8h8v-8h-8zm-60 8v8h8v-8h-8zm24 0v8h8v-8h-8zm24 0v8h8v-8h-8zm-60 4v8h8v-8h-8zm24 0v8h8v-8h-8zm24 0v8h8v-8h-8zm24 0v8h8v-8h-8zm-60 8v8h8v-8h-8zm24 0v8h8v-8h-8zm24 0v8h8v-8h-8zm-60 4v8h8v-8h-8zm24 0v8h8v-8h-8zm24 0v8h8v-8h-8zm24 0v8h8v-8h-8zm-60 8v8h8v-8h-8zm24 0v8h8v-8h-8zm24 0v8h8v-8h-8zm-36 4v8h8v-8h-8zm24 0v8h8v-8h-8zm-12 8v8h8v-8h-8z" style="fill:#fff;paint-order:stroke fill markers;stroke-width:.57735"/>
</svg>
