<svg width="192" height="192" version="1.1" viewBox="0 0 192 192" xmlns="http://www.w3.org/2000/svg">
 <rect x="32" y="8" width="128" height="176" rx="10.079" opacity=".63" stroke-width="1.0068" style="fill:#fff;opacity:1"/>
 <path d="m87.893 135.16c-3.7771-0.27672-8.3509-1.2977-11.321-2.527-9.515-3.9387-14.896-10.8-16.951-21.613-1.3319-7.0076-1.2041-14.766 0.37263-22.626 1.8674-9.3082 5.3714-16.905 10.041-21.77 2.9905-3.1157 5.2712-4.3769 9.5124-5.2602 2.9219-0.60855 11.219-1.5042 15.898-1.7162 1.2494-0.05661 2.3015-0.15138 2.3381-0.2106 0.0366-0.05922-0.1734-0.23689-0.46667-0.39483-0.29327-0.15793-0.53321-0.36307-0.53321-0.45586 0-0.73721 3.2849-2.0921 4.4885-1.8514 0.26239 0.05248 0.93237 0.3541 1.4889 0.67027 0.55648 0.31617 1.945 1.0165 3.0855 1.5564 5.2185 2.4701 8.3169 4.0681 9.4766 4.8877 6.0922 4.3054 9.2848 7.4268 12.222 11.949 3.5359 5.4441 5.4703 11.343 5.9484 18.138 0.46935 6.6707-1.2418 15.152-4.1617 20.629-4.3784 8.2118-12.459 14.673-22.662 18.12-5.9397 2.0069-12.807 2.912-18.776 2.4746zm11.194-5.5406c3.7254-0.39671 7.3888-1.3742 10.213-2.725 10.944-5.2346 18.825-18.773 18.818-32.325-3e-3 -5.4664-0.89656-9.5007-3.0696-13.855-1.2047-2.4142-2.4974-4.3007-4.2509-6.204-2.2323-2.4229-4.007-3.7025-8.2123-5.9213l-1.6325-0.86133-1.4331 0.48014c-0.98731 0.33078-1.6024 0.45488-1.9773 0.39896-0.29929-0.04465-1.7913-0.74024-3.3157-1.5458-5.7292-3.0275-8.0969-3.6084-12.897-3.1636-4.1856 0.38787-8.8511 1.5904-13.027 3.3576-2.2991 0.97305-3.7302 1.9375-5.4875 3.6981-4.9173 4.9266-8.1955 13.632-9.0696 24.085-0.23154 2.7686-0.10227 8.9904 0.23697 11.406 0.8643 6.1537 2.5341 10.732 5.0956 13.972 5.2875 6.6868 17.751 10.51 30.008 9.2046zm-6.2979-14.283c-5.6941-0.64019-10.934-2.8693-14.299-6.0827-2.7732-2.6486-4.1999-5.587-4.3958-9.0535-0.08419-1.49-0.07339-1.5656 0.24833-1.7377 0.80324-0.42988 1.1133-0.11741 1.87 1.8848 2.2726 6.0125 12.567 10.742 21.675 9.9567 6.4288-0.55404 11.546-3.18 15.35-7.8772 1.071-1.3225 1.2956-1.5248 1.6478-1.484 0.39914 0.0462 0.40707 0.0686 0.3757 1.0624-0.0199 0.63135-0.20764 1.5606-0.49646 2.4577-1.9539 6.0691-7.6098 9.9774-15.754 10.886-1.6071 0.17934-4.5673 0.17334-6.2211-0.0126zm13.73-22.578c-0.70949-0.20575-1.6842-1.3468-1.9686-2.3044-0.66179-2.2285 0.14648-3.9258 2.1577-4.5311 1.0103-0.30407 1.5514-0.27072 2.4582 0.15153 1.2838 0.59779 1.9279 1.6678 1.9218 3.1927-4e-3 1.0929-0.38649 1.8778-1.3098 2.6905-0.99778 0.87827-2.0774 1.1436-3.2593 0.80082zm-25.096-0.53895c-1.2658-0.54892-1.9941-1.8203-1.9965-3.4852-0.0026-1.8004 0.68417-2.8623 2.1212-3.2801 0.89319-0.25966 1.9379-0.18819 2.6527 0.18148 0.54185 0.2802 1.3158 1.1833 1.6115 1.8804 0.49988 1.1785 0.2401 3.2281-0.51724 4.081-0.71238 0.80226-2.7147 1.1242-3.8716 0.62248z" style="fill:#56595b;stroke-width:.15361"/>
</svg>
