<svg width="192" height="192" version="1.1" viewBox="0 0 192 192" xmlns="http://www.w3.org/2000/svg">
 <circle cx="96" cy="96" r="88" opacity=".63" style="fill:#9abeff;opacity:1"/>
 <path d="m96 8a88 88 0 0 0-88 88 88 88 0 0 0 25.812 62.188l62.188-62.188v-88z" style="fill:#98dc9a"/>
 <path d="m96 96-62.188 62.188a88 88 0 0 0 62.188 25.812 88 88 0 0 0 88-88h-88z" style="fill:#f9de81"/>
 <rect x="96" y="96" width="88" height="8" style="fill:#728dbe;paint-order:stroke fill markers"/>
 <path d="m96 96-62.188 62.188a88 88 0 0 0 4.1426 3.8574l58.045-58.045v-8z" style="fill:#71a372"/>
</svg>
