<svg width="192" height="192" fill="none" version="1.1" viewBox="0 0 192 192" xmlns="http://www.w3.org/2000/svg">
 <path d="m160.46 149 0.415 0.267-0.19-0.162-0.225-0.105z" fill="#96DFD3"/>
 <path d="m43.1 16c-6.6271 6.63e-4 -11.999 5.3729-12 12v72c0 22.4 15.586 39.949 29.34 53.004 13.754 13.055 27.416 21.719 27.416 21.719 3.8332 2.4399 8.7157 2.5056 12.613 0.16992 0 0 14.45-8.6227 29.025-21.645s31.205-30.448 31.205-53.248v-72c-6.6e-4 -6.6271-5.3729-11.999-12-12z" style="color-rendering:auto;color:#000000;dominant-baseline:auto;fill:#fff;font-feature-settings:normal;font-variant-alternates:normal;font-variant-caps:normal;font-variant-ligatures:normal;font-variant-numeric:normal;font-variant-position:normal;image-rendering:auto;isolation:auto;mix-blend-mode:normal;shape-padding:0;shape-rendering:auto;solid-color:#000000;text-decoration-color:#000000;text-decoration-line:none;text-decoration-style:solid;text-indent:0;text-orientation:mixed;text-transform:none;white-space:normal"/>
 <path d="m96 160v-129.65l50.263-0.14382-0.0719 62.777c-0.0118 10.283-6.5059 31.046-20.7 44.409-9.0191 8.491-29.492 22.61-29.492 22.61z" style="fill:#9abeff"/>
</svg>
