<svg width="192" height="192" version="1.1" viewBox="0 0 192 192" xmlns="http://www.w3.org/2000/svg">
 <path d="m98.243 181.89 42.86-27.537c3.246-2.085 6.673-6.817 7.643-10.562l18.883-72.87c0.278-1.0752 0.212-2.7827-0.145-3.8269l-2.848-8.3345c-0.719-2.1027-0.384-5.3361 0.742-7.2387l0.714-1.2056c1.126-1.9032 0.743-4.6799-0.856-6.2033l-13.544-12.908c-1.596-1.5209-4.618-2.2716-6.744-1.6709l-2.759 0.7794c-2.123 0.5997-5.114-0.1814-6.672-1.7466l-7.579-7.6106c-2.724-2.7352-8.07-4.9585-11.933-4.9585h-35.879c-3.8633 0-9.2092 2.2233-11.933 4.9585l-7.5789 7.6106c-1.5587 1.5652-4.5493 2.3463-6.6721 1.7466l-2.7589-0.7794c-2.1262-0.6007-5.1483 0.15-6.7441 1.6709l-13.544 12.908c-1.5985 1.5234-1.9819 4.3001-0.8555 6.2033l0.7135 1.2056c1.126 1.9026 1.4609 5.136 0.7423 7.2387l-2.8485 8.3345c-0.3568 1.0442-0.423 2.7517-0.1444 3.8269l18.882 72.87c0.9704 3.745 4.397 8.477 7.6433 10.562l42.86 27.537v0.229l0.1776-0.114 0.1776 0.114v-0.229z" clip-rule="evenodd" fill="#F8C18C" fill-rule="evenodd" style="fill:#bd9aff"/>
 <path d="m79.635 44.888 18.576-4.8883 18.576 4.8883c0.28 0.0736 0.572 0.0857 0.856 0.0354l13.618-2.4031c1.817-0.3205 3.662 0.3847 4.801 1.8348l14.869 18.924c3.041 3.8697 2.814 9.3764-0.535 12.983l-17.557 18.908c-1.548 1.6667-1.776 4.1678-0.555 6.0863l3.406 5.352c0.911 1.433 0.819 3.284-0.229 4.619l-6.73 8.565c-1.467 1.867-4.044 2.445-6.168 1.383l-12.352-6.176-6.416-5.833c-2.357-2.143-2.135-5.916 0.458-7.768l14.538-10.384c0.814-0.5812 1.073-1.6741 0.607-2.559l-6.146-11.679c-1.636-3.1086-0.264-6.9515 2.971-8.3203l19.988-8.4564-14.242-1.899c-0.501-0.0667-1.009-0.0381-1.499 0.0843l-11.656 2.914c-2.032 0.5079-3.328 2.4966-2.972 4.5602l3.857 22.368c0.282 1.6392-0.823 3.1954-2.463 3.4689l-9.0247 1.504-9.0242-1.504c-1.6408-0.2735-2.7458-1.8297-2.4632-3.4689l3.8564-22.368c0.3558-2.0636-0.9401-4.0523-2.9716-4.5602l-11.656-2.914c-0.4898-0.1224-0.9983-0.151-1.4988-0.0843l-14.242 1.899 19.988 8.4564c3.2352 1.3688 4.6077 5.2117 2.9716 8.3203l-6.1467 11.679c-0.4657 0.8849-0.2063 1.9778 0.6074 2.559l14.538 10.384c2.593 1.852 2.815 5.625 0.4571 7.768l-6.4158 5.833-12.352 6.176c-2.1235 1.062-4.7009 0.484-6.1677-1.383l-6.7295-8.565c-1.0489-1.335-1.1408-3.186-0.2294-4.619l3.4058-5.352c1.2211-1.9185 0.9933-4.4196-0.5543-6.0863l-17.558-18.908c-3.3487-3.6063-3.5757-9.113-0.5352-12.983l14.869-18.924c1.1393-1.4501 2.9844-2.1553 4.8005-1.8348l13.618 2.4031c0.2848 0.0503 0.577 0.0382 0.8566-0.0354zm2.3804 78.666 16.366-7.554 16.366 7.554c3.839 1.771 3.986 7.434 0.489 9.811-1.598 1.086-3.26 2.308-4.855 3.635-7.447 4.595-12 9-12 9s-4.5526-4.405-12-9c-1.5945-1.327-3.2566-2.549-4.8552-3.635-3.4971-2.377-3.3499-8.04 0.4892-9.811z" clip-rule="evenodd" fill="#fff" fill-rule="evenodd"/>
</svg>
