<svg width="192" height="192" version="1.1" viewBox="0 0 192 192" xmlns="http://www.w3.org/2000/svg">
 <path d="m20 162c0 5.5242 4.477 10.003 10.003 10.003h131.99c5.5242 0 10.003-4.477 10.003-10.003v-131.99c0-5.5242-4.477-10.003-10.003-10.003h-131.99c-5.5242 0-10.003 4.477-10.003 10.003z" style="fill-rule:evenodd;fill:#83868c"/>
 <rect x="32" y="32" width="128" height="128" style="fill:#e0f4e0;paint-order:stroke fill markers;stroke-width:.9697"/>
 <rect x="32" y="36" width="128" height="112" ry="12" style="fill:#f9de81;paint-order:stroke fill markers"/>
 <rect x="32" y="32" width="128" height="112" ry="12" style="fill:#fdf5d9;paint-order:stroke fill markers"/>
 <rect x="32" y="36" width="128" height="96" ry="12" style="fill:#ff837d;paint-order:stroke fill markers"/>
 <rect x="32" y="32" width="128" height="96" ry="12" style="fill:#ffd6d4;font-variant-east_asian:normal;paint-order:stroke fill markers"/>
 <rect x="32" y="36" width="128" height="80" ry="12" style="fill:#96dfd3;paint-order:stroke fill markers"/>
 <rect x="32" y="32" width="128" height="80" ry="12" style="fill:#e0f4e0;paint-order:stroke fill markers"/>
</svg>
