<svg width="192" height="192" version="1.1" viewBox="0 0 192 192" xmlns="http://www.w3.org/2000/svg">
 <rect x="20" y="20" width="152" height="152" rx="9.9346" opacity=".63" style="fill:#96dfd3;opacity:1"/>
 <path d="m87.125 56.123c-13.054 0-23.563 10.509-23.563 23.563v32.626c0 1.3463 0.11795 2.6639 0.33278 3.9473-0.21755 1.0661-0.33278 2.1708-0.33278 3.303 0 9.0375 7.2757 16.313 16.313 16.313h29.001c13.054 0 23.563-10.509 23.563-23.563 0-11.18-7.712-20.486-18.126-22.93v-9.6966c0-13.054-10.509-23.563-23.563-23.563z" style="fill:#fff;paint-order:stroke fill markers;stroke-width:.90629"/>
 <path d="m70.811 85.125v-7.2503s0-14.501 18.126-14.501c18.126 0 18.126 14.501 18.126 14.501v7.2503s0 3.6252-3.6252 3.6252h-29.001c-3.6252 0-3.6252-3.6252-3.6252-3.6252z" style="fill:#96dfd3;stroke-width:.90629"/>
 <circle cx="88.937" cy="106.88" r="7.2503" style="fill:#96dfd3;paint-order:stroke fill markers;stroke-width:.90629"/>
 <rect x="85.312" y="106.88" width="7.2503" height="14.501" ry="3.6252" style="fill:#96dfd3;paint-order:stroke fill markers;stroke-width:.90629"/>
</svg>
