<svg width="192" height="192" version="1.1" viewBox="0 0 192 192" xmlns="http://www.w3.org/2000/svg">
 <path d="m20 36c-4 36 16 56 16 56l28-36s-24-20-44-20z" style="fill:#bf9e73"/>
 <path d="m172 36c4 36-16 56-16 56l-28-36s24-20 44-20z" style="fill:#bf9e73"/>
 <path d="m20 32a4.0004 4.0004 0 0 0-3.9746 3.5586c-4.1796 37.616 17.146 59.27 17.146 59.27a4.0004 4.0004 0 0 0 5.9863-0.37305l28-36a4.0004 4.0004 0 0 0-0.59766-5.5273s-6.2378-5.2012-15.033-10.375c-8.7954-5.1738-20.194-10.553-31.527-10.553zm152 0c-11.333 0-22.732 5.3789-31.527 10.553-8.7954 5.1738-15.033 10.375-15.033 10.375a4.0004 4.0004 0 0 0-0.59765 5.5273l28 36a4.0004 4.0004 0 0 0 5.9863 0.37305s21.326-21.653 17.146-59.27a4.0004 4.0004 0 0 0-3.9746-3.5586zm-148.18 8.4492c7.8412 1.0424 16.598 4.8509 23.648 8.998 4.9861 2.933 8.4653 5.4277 10.902 7.2695l-22.492 28.92c-4.8128-6.4609-13.492-21.888-12.059-45.188zm144.35 0c1.4336 23.3-7.2458 38.727-12.059 45.188l-22.492-28.92c2.4371-1.8419 5.9162-4.3365 10.902-7.2695 7.0502-4.1471 15.807-7.9556 23.648-8.998z" style="color-rendering:auto;color:#000000;dominant-baseline:auto;fill:#d3b69a;font-feature-settings:normal;font-variant-alternates:normal;font-variant-caps:normal;font-variant-ligatures:normal;font-variant-numeric:normal;font-variant-position:normal;image-rendering:auto;isolation:auto;mix-blend-mode:normal;shape-padding:0;shape-rendering:auto;solid-color:#000000;text-decoration-color:#000000;text-decoration-line:none;text-decoration-style:solid;text-indent:0;text-orientation:mixed;text-transform:none;white-space:normal"/>
 <path d="m32 108c0-32 32-64 64-64s60 32 60 64c0 24-44 60-60 60-12 0-64-36-64-60z" style="fill:#d3b69a;stroke-linecap:round;stroke-linejoin:round;stroke-width:16;stroke:#d3b69a"/>
 <path d="m38.93 79.418a2.0002 2.0002 0 0 0-0.59961 0.125s-3.3818 1.2614-6.7988 2.9023c-1.7085 0.82045-3.4266 1.7274-4.8223 2.6973-0.69785 0.48493-1.3199 0.97767-1.8477 1.5742-0.52775 0.59655-1.0761 1.3615-1.0508 2.5078 0.0464 2.0966 1.5037 3.2356 2.9219 4.2246 1.4182 0.989 3.1297 1.8282 4.8203 2.5566 3.3812 1.4569 6.6992 2.4355 6.6992 2.4355a2.0002 2.0002 0 0 0 2.5449-2.2207s-0.73959-5.1346-0.71094-7.2227c0.02875-2.0958 0.91211-7.2246 0.91211-7.2246a2.0002 2.0002 0 0 0-2.0684-2.3555zm-2.3086 5.1992c-0.25872 1.6656-0.51273 2.6917-0.53516 4.3262-0.02392 1.7433 0.22232 2.9293 0.44531 4.625-1.2006-0.4043-1.7104-0.50983-3.3965-1.2363-1.5522-0.66881-3.0868-1.4469-4.1152-2.1641-0.89059-0.62105-0.99971-0.97313-1.0488-0.89453 0.20693-0.21468 0.53475-0.50884 1.0195-0.8457 1.0772-0.74853 2.6673-1.6066 4.2715-2.377 1.666-0.80006 2.1295-0.9324 3.3594-1.4336z" style="color-rendering:auto;color:#000000;dominant-baseline:auto;fill:#54688c;font-feature-settings:normal;font-variant-alternates:normal;font-variant-caps:normal;font-variant-ligatures:normal;font-variant-numeric:normal;font-variant-position:normal;image-rendering:auto;isolation:auto;mix-blend-mode:normal;shape-padding:0;shape-rendering:auto;solid-color:#000000;text-decoration-color:#000000;text-decoration-line:none;text-decoration-style:solid;text-indent:0;text-orientation:mixed;text-transform:none;white-space:normal"/>
 <ellipse transform="rotate(18.388)" cx="125.26" cy="19.66" rx="67.457" ry="15.232" style="fill:#56595b;paint-order:stroke fill markers"/>
 <rect transform="rotate(18.112)" x="98.395" y="-24.847" width="60" height="48" rx="30" ry="8" style="fill:#56595b;paint-order:stroke fill markers"/>
 <path d="m90.994 38.309-2.1855 6.6816c-1.3778 4.2124 10.231 11.763 26.027 16.93 15.796 5.1668 29.622 5.9351 31 1.7227l2.2109-6.7578c-4.3278 2.3588-16.678 1.0991-30.488-3.418-13.706-4.4831-24.354-10.704-26.564-15.158z" style="fill:#83868c;paint-order:stroke fill markers"/>
 <path d="m106.84 11.859c-4.4908-0.014993-7.4753 0.87387-8.0781 2.7168l-0.24023 0.73438c1.6883 4.4767 12.588 10.967 26.758 15.602 13.41 4.3861 25.437 5.7001 30.086 3.6133l0.42383-1.2969c1.3778-4.2124-10.231-11.763-26.027-16.93-8.8855-2.9063-17.148-4.4202-22.922-4.4395z" style="fill:#4a4a4a;paint-order:stroke fill markers"/>
 <path d="m80 140s0 16 16 16 16-16 16-16l-16-8z" style="fill:#bf9e73"/>
 <path d="m112 112 4 12s20-4 20 4c0 8.1104-4 12-4 24 0 6.6667 16 16 16 12s-12-6.3432-12-12c0-8 8-15.567 8-24 0-16-32-16-32-16z" style="fill:#8e6f60"/>
 <circle cx="96" cy="124" r="16" style="fill:#4a4a4a;paint-order:stroke fill markers"/>
 <path d="m68.186 79.449c-6.157-0.12034-14.33 2.3066-14.33 2.3066s5.6156 19.355 22.145 20.031c4.4371 0.18161 12-5.7871 12-5.7871s-4-12-16-16c-1.0809-0.3603-2.3936-0.52301-3.8145-0.55078zm55.629 0c-1.4208 0.027769-2.7335 0.19048-3.8144 0.55078-12 4-16 16-16 16s7.5629 5.9687 12 5.7871c16.529-0.67653 22.145-20.031 22.145-20.031s-8.1731-2.427-14.33-2.3066z" style="fill:#e0f4e0"/>
 <path d="m75.072 84.129s-3.6802 2.8546-4.5996 4.8965c-1.3256 2.9438-0.89062 9.6445-0.89062 9.6445s4.5026-3.2066 5.4902-5.6367c1.1173-2.7492 0-8.9043 0-8.9043zm41.855 0s-1.1173 6.1551 0 8.9043c0.98767 2.4302 5.4902 5.6367 5.4902 5.6367s0.43496-6.7007-0.89063-9.6445c-0.91946-2.0419-4.5996-4.8965-4.5996-4.8965z" style="fill:#56595b"/>
 <circle cx="64.42" cy="88.131" r="24.761" style="fill:#9abeff;opacity:.25;paint-order:stroke fill markers;stroke-width:1.0926"/>
 <path d="m64 60a28 28 0 0 0-28 28 28 28 0 0 0 28 28 28 28 0 0 0 28-28 28 28 0 0 0-28-28zm0 4a24 24 0 0 1 24 24 24 24 0 0 1-24 24 24 24 0 0 1-24-24 24 24 0 0 1 24-24z" style="fill:#54688c;paint-order:stroke fill markers"/>
 <path d="m80 112-4 12s-20-4-20 4c0 8.1104 4 12 4 24 0 6.6667-16 16-16 12s12-6.3432 12-12c0-8-8-15.567-8-24 0-16 32-16 32-16z" style="fill:#8e6f60"/>
 <path d="m80 112-4 12s-20-4-20 4c0 8.1104 4 12 4 24 0 6.6667-16 16-16 12s12-6.3432 12-12c0-8-8-15.567-8-24 0-16 32-16 32-16z" style="opacity:.25"/>
 <circle cx="80" cy="128" r="16" style="fill:#8e6f60;paint-order:stroke fill markers"/>
 <path d="m112 112 4 12s20-4 20 4c0 8.1104-4 12-4 24 0 6.6667 16 16 16 12s-12-6.3432-12-12c0-8 8-15.567 8-24 0-16-32-16-32-16z" style="opacity:.25"/>
 <circle cx="112" cy="128" r="16" style="fill:#8e6f60;paint-order:stroke fill markers"/>
</svg>
