<svg width="192" height="192" version="1.1" viewBox="0 0 192 192" xmlns="http://www.w3.org/2000/svg" xmlns:xlink="http://www.w3.org/1999/xlink">
 <path d="m118.96 56.996-8.2574 71.402-60.859 41.912-0.05078 0.0605c13.968 8.8677 30.164 13.593 46.709 13.629 46.957-0.0555 85.499-37.166 87.33-84.088z" style="fill-rule:evenodd;fill:#f9de81"/>
 <path d="m55.656 19.182c-28.678 15.136-46.633 44.891-46.656 77.318 0.043561 30.219 15.677 58.277 41.352 74.215l61.273-36.189-50.414-40.426z" style="fill-rule:evenodd;fill:#98dc9a"/>
 <path d="m96.5 9a87.5 87.5 0 0 0-40.971 10.254l0.77734 72.953 60.842-30.672 66.676 38.492a87.5 87.5 0 0 0 0.17578-3.5273 87.5 87.5 0 0 0-87.5-87.5z" style="fill-rule:evenodd;fill:#ff837d"/>
 <circle cx="96" cy="96" r="41" style="fill-rule:evenodd;fill:#fff"/>
 <circle cx="96.5" cy="96.5" r="31.5" style="fill-rule:evenodd;fill:#9abeff"/>
</svg>
