<svg width="192" height="192" fill="none" version="1.1" viewBox="0 0 192 192" xmlns="http://www.w3.org/2000/svg">
 <g clip-rule="evenodd" fill-rule="evenodd">
  <path d="m96 183c48.049 0 87-38.951 87-87 0-48.049-38.951-87-87-87-48.049 0-87 38.951-87 87 0 48.049 38.951 87 87 87z" fill="#fff"/>
  <path d="m90 160c31.48 0 57-25.52 57-57 0-31.48-25.52-57-57-57-31.48 0-57 25.52-57 57 0 31.48 25.52 57 57 57z" fill="#9ABEFF" fill-opacity=".5"/>
  <path d="m96.5 147c27.89 0 50.526-22.61 50.5-50.5-0.048-50.5 26.279-40.497 26.279-40.497s-5.613-10.716-13.242-19.124c-7.629-8.4082-16.273-13.527-16.273-13.527s-4.445 23.181-47.264 22.649c-27.888-0.3466-50.5 22.61-50.5 50.5 0 27.89 22.61 50.5 50.5 50.5z" fill="#728DBE"/>
 </g>
 <mask x="46" y="23" width="128" height="124" mask-type="alpha" maskUnits="userSpaceOnUse">
  <path d="m96.5 147c27.89 0 50.526-22.61 50.5-50.5-0.048-50.5 26.279-40.497 26.279-40.497s-5.613-10.716-13.242-19.124c-7.629-8.4082-16.273-13.527-16.273-13.527s-4.445 23.181-47.264 22.649c-27.888-0.3466-50.5 22.61-50.5 50.5 0 27.89 22.61 50.5 50.5 50.5z" clip-rule="evenodd" fill="#fff" fill-rule="evenodd"/>
 </mask>
 <path d="m131 96.5c0 19.054-15.446 34.5-34.5 34.5-19.054 0-34.5-15.446-34.5-34.5 0-19.054 15.446-34.5 34.5-34.5 6.203 0 12.023 1.6368 17.053 4.5021-2.257-0.7058-4.658-1.0863-7.147-1.0863-13.206 0-23.911 10.705-23.911 23.911 0 13.205 10.705 23.911 23.911 23.911 13.106 0 23.749-10.545 23.909-23.613 0.449 2.2216 0.685 4.5206 0.685 6.8747z" clip-rule="evenodd" fill="#9ABEFF" fill-rule="evenodd"/>
</svg>
