<svg width="192" height="192" version="1.1" viewBox="0 0 192 192" xmlns="http://www.w3.org/2000/svg">
 <circle cx="96" cy="96" r="88" opacity=".63" style="fill:#9abeff;opacity:1"/>
 <path d="m96 8a88 88 0 0 0-66.336 30.268c9.2155 20.937 27.205 45.783 62.336 61.732 43.665 19.824 76.472 10.729 91.602 3.9551a88 88 0 0 0 0.39844-7.9551 88 88 0 0 0-88-88z" style="fill:#fff;opacity:.25"/>
 <path d="m31.941 35.787a88 88 0 0 0-2.2773 2.4805c9.2155 20.937 27.205 45.783 62.336 61.732 43.665 19.824 76.472 10.729 91.602 3.9551a88 88 0 0 0 0.15625-3.1309c-15.721 6.6735-47.78 14.602-90.08-4.6016-34.413-15.623-52.355-39.775-61.736-60.436z" style="fill:#fff;opacity:.25"/>
</svg>
