<?xml version="1.0" encoding="UTF-8"?>
<svg version="1.1" viewBox="0 0 192 192" xmlns="http://www.w3.org/2000/svg">
 <defs>
  <linearGradient id="Gradient_1" x1="200" x2="296.66" y1="214.3" y2="307.57" gradientTransform="translate(-154.1 -170.77)" gradientUnits="userSpaceOnUse">
   <stop stop-color="#62A0EA" offset="0"/>
   <stop stop-color="#1A5FB4" offset="1"/>
  </linearGradient>
 </defs>
 <circle cx="96" cy="96" r="88" opacity=".63" style="fill:#fff;opacity:1"/>
 <path d="m94.263 48.251c-2.854 1.831-3.677 5.624-1.838 8.468 10.109 15.655 12.495 27.463 11.46 37.811-4.184 19.816-13.279 23.836-21.227 23.836-7.76 0-5.682-12.771 0.151-16.509 3.482-2.174 7.942-3.587 11.365-3.587 3.392 0 6.142-2.741 6.142-6.123 0-3.383-2.75-6.124-6.142-6.124-3.998 0-7.92 0.84-11.581 2.27 0.748-3.529 1.024-7.343 0.057-11.397-1.468-6.156-5.694-12.036-13.032-17.736-1.285-1-2.915-1.449-4.532-1.249s-3.088 1.032-4.089 2.314c-2.082 2.67-1.6 6.518 1.078 8.595 5.978 4.643 7.952 8.08 8.627 10.909s0.132 5.864-1.224 10.034c-1.733 5.62-3.745 10.637-4.627 15.448-0.434 2.368-0.471 4.945-0.583 7.004-4.305-4.196-5.99-9.736-5.99-17.831-1e-3 -3.382-2.751-6.124-6.142-6.123-3.389 3e-3 -6.135 2.743-6.136 6.123 0 11.056 3.233 21.576 11.898 28.594 7.844 7.473 27.791 4.711 27.791 16.708 0 3.386 4.956 5.034 8.347 5.034 3.478 0 7.855-2.325 7.855-5.034 0-13.612 14.345-21.885 37.96-21.849 3.392 5e-3 6.144-2.734 6.149-6.116 6e-3 -3.383-2.738-6.13-6.13-6.136-1.615-2e-3 -3.189 0.053-4.741 0.145 2.64-6.209 3.811-13.045 3.569-20.429-0.112-3.381-2.95-6.031-6.339-5.921-3.393 0.11-6.051 2.943-5.94 6.326 0.32 9.668-0.042 18.301-7.245 22.852-2.048 1.293-4.429 2.415-6.687 2.415 1.753-4.768 3.077-9.801 3.619-15.226 0.346-3.462 0.383-7.575-0.012-10.77-0.613-4.95-1.353-10.564 0.526-14.793 1.688-3.642 5.47-5.167 11.023-5.167 3.389-3e-3 6.135-2.744 6.136-6.123 2e-3 -3.383-2.745-6.127-6.136-6.13-8.252 0-14.507 4.343-18.053 9.59-1.854-3.96-4.112-8.041-6.84-12.265-0.881-1.365-2.269-2.324-3.86-2.669-0.788-0.171-1.602-0.186-2.396-0.044-0.794 0.143-1.552 0.44-2.231 0.875z" fill="url(#Gradient_1)" style="fill:#9abeff"/>
</svg>
