<svg width="192" height="192" version="1.1" viewBox="0 0 192 192" xmlns="http://www.w3.org/2000/svg">
 <path d="m66.702 178.59c-1.3727-0.94587-5.1086-3.8795-8.302-6.5193-4.1369-3.4197-7.7928-5.3912-12.717-6.8576-13.214-3.9354-17.818-9.1635-17.818-20.235 0-8.2093 3.5896-16.104 10.015-22.027 5.444-5.0181 9.1408-6.8881 23.297-11.785 6.1073-2.1124 12.169-4.8483 13.471-6.0798l2.3672-2.239-2.5789-0.64727c-1.4745-0.37007-4.4337 0.0425-6.9098 0.96336-30.334 11.281-49.566 8.2348-57.438-9.0975-3.0373-6.6872-2.5249-12.601 1.5922-18.375 8.1505-11.43 9.4642-13.838 11.08-20.31 0.93492-3.7439 2.8-8.694 4.1446-11 6.7586-11.592 27.441-12.038 40.64-0.87606 2.2753 1.9242 5.5309 7.3648 10.214 17.07 3.7811 7.835 7.8429 15.111 9.0262 16.169l2.1515 1.923v-4.2877c0-2.3582-1.688-9.5832-3.7511-16.056-5.9427-18.643-4.6655-28.321 5.0612-38.35 5.6509-5.8262 11.085-8.5135 17.399-8.6048 5.2778-0.07628 4.9196-0.24058 19.481 8.9331 2.9602 1.865 7.1621 3.6516 9.3376 3.9704 2.1754 0.31873 5.7493 0.84268 7.942 1.1643 5.0952 0.74743 12.574 7.1565 14.239 12.203 1.6816 5.0954 0.61674 13.208-2.5554 19.468-5.4705 10.796-14.136 17.505-31.451 24.353-9.1739 3.6282-12.594 6.2727-10.64 8.2271 1.3527 1.3527 1.954 1.1658 22.382-6.9551 8.3648-3.3253 10.622-3.8059 17.666-3.7616 18.178 0.11423 30.733 10.27 29.575 23.924-0.35402 4.1745-1.4032 6.6346-5.1672 12.116-4.3619 6.3519-4.7247 7.3552-4.7452 13.123-0.05 14.098-9.4596 22.902-24.479 22.902-11.374 0-21.276-7.1468-30.56-22.058-2.1957-3.5264-4.9399-7.574-6.0982-8.9946-2.8508-3.4964-4.7242-2.2206-3.8385 2.6143 2.433 13.282 18.192 35.569 30.931 43.744 4.6434 2.9797 4.8861 3.3288 3.1806 4.5759-1.0155 0.74256-4.308 2.1261-7.3167 3.0745l-5.4703 1.7244-4.9048-5.3342c-6.9591-7.5683-12.351-17.155-19.268-34.257-3.3072-8.1774-6.1656-15.021-6.3519-15.207-0.18631-0.18635-0.85825 0.63185-1.4932 1.8182-0.88962 1.6623-0.79261 3.9066 0.42294 9.7844 4.5363 21.935-0.05179 38.553-12.418 44.977-6.5139 3.384-15.3 3.8806-19.345 1.0934z" style="fill:#98dc9a;stroke-width:.80757"/>
</svg>
