<svg width="192" height="192" version="1.1" viewBox="0 0 192 192" xmlns="http://www.w3.org/2000/svg">
 <rect x="28" y="32" width="136" height="92" ry="0" style="fill:#bd9aff;paint-order:stroke fill markers;stroke-linecap:round;stroke-linejoin:round;stroke-width:15.347"/>
 <path d="m96 120c-4.432 0-8 3.568-8 8v12.463c-10.964 1.3292-18.247 5.3841-22.521 10.27-5.2405 5.9891-5.4785 13.268-5.4785 13.268a8.0008 8.0008 0 1 0 16 0s-0.23804-0.72153 1.5215-2.7324c1.7595-2.0109 6.0023-5.2676 18.479-5.2676s16.719 3.2567 18.479 5.2676c1.7595 2.0109 1.5215 2.7324 1.5215 2.7324a8.0008 8.0008 0 1 0 16 0s-0.23804-7.2785-5.4785-13.268c-4.2747-4.8854-11.558-8.9404-22.521-10.27v-12.463c0-4.432-3.568-8-8-8z" style="color-rendering:auto;color:#000000;dominant-baseline:auto;fill:#8c72bd;font-feature-settings:normal;font-variant-alternates:normal;font-variant-caps:normal;font-variant-ligatures:normal;font-variant-numeric:normal;font-variant-position:normal;image-rendering:auto;isolation:auto;mix-blend-mode:normal;shape-padding:0;shape-rendering:auto;solid-color:#000000;text-decoration-color:#000000;text-decoration-line:none;text-decoration-style:solid;text-indent:0;text-orientation:mixed;text-transform:none;white-space:normal"/>
 <path d="m64 56c-2.216 0-4 1.784-4 4v48c0-2.216-1.784-4-4-4h-4c-2.216 0-4 1.784-4 4v-12c0-2.216-1.784-4-4-4h-4c-2.216 0-4 1.784-4 4v24c0 2.216 1.784 4 4 4h4c2.216 0 4-1.784 4-4 0 2.216 1.784 4 4 4h4c2.216 0 4-1.784 4-4 0 2.216 1.784 4 4 4h4c2.216 0 4-1.784 4-4 0 2.216 1.784 4 4 4h4c2.216 0 4-1.784 4-4 0 2.216 1.784 4 4 4h4c2.216 0 4-1.784 4-4v-52c0-2.216-1.784-4-4-4h-4c-2.216 0-4 1.784-4 4v24c0-2.216-1.784-4-4-4h-4c-2.216 0-4 1.784-4 4v-32c0-2.216-1.784-4-4-4h-4zm96 0c-2.216 0-4 1.784-4 4v24c0-2.216-1.784-4-4-4h-4c-2.216 0-4 1.784-4 4v20c0-2.216-1.784-4-4-4h-4c-2.216 0-4 1.784-4 4v-36c0-2.216-1.784-4-4-4h-4c-2.216 0-4 1.784-4 4v16c0-2.216-1.784-4-4-4h-4c-2.216 0-4 1.784-4 4v36c0 2.216 1.784 4 4 4h4c2.216 0 4-1.784 4-4 0 2.216 1.784 4 4 4h4c2.216 0 4-1.784 4-4 0 2.216 1.784 4 4 4h4c2.216 0 4-1.784 4-4 0 2.216 1.784 4 4 4h4c2.216 0 4-1.784 4-4 0 2.216 1.784 4 4 4h4v-68h-4z" style="fill:#54688c;opacity:.25;paint-order:stroke fill markers;stroke-linecap:round;stroke-linejoin:round;stroke-width:16"/>
 <path d="m48 20c-15.512 0-28 12.488-28 28v60c0 15.512 12.488 28 28 28h96c15.512 0 28-12.488 28-28v-16c0-4.432-3.568-8-8-8s-8 3.568-8 8v12c0 8.864-7.136 16-16 16h-88c-8.864 0-16-7.136-16-16v-52c0-8.864 7.136-16 16-16h88c8.864 0 16 7.136 16 16v12c0 4.432 3.568 8 8 8s8-3.568 8-8v-16c0-15.512-12.488-28-28-28h-96z" style="fill:#8c72bd;paint-order:stroke fill markers"/>
</svg>
