<svg width="192" height="192" version="1.1" viewBox="0 0 192 192" xmlns="http://www.w3.org/2000/svg">
 <circle cx="96" cy="96" r="88" opacity=".63" style="fill:#9abeff;opacity:1"/>
 <rect x="48" y="84" width="96" height="48" ry="24" style="fill:#fff;paint-order:stroke fill markers"/>
 <rect x="72" y="60" width="48" height="72" ry="24" style="fill:#fff;paint-order:stroke fill markers"/>
 <path d="m106.62 101.64a2.0002 2.0002 0 0 0-1.541 3.1836l0.33594 0.47071c-1.4783 1.1952-4.5642 3.0944-9.4043 3.082-4.7525-0.01216-7.7626-1.8234-9.2422-3.0098l0.16211-0.22656a2.0002 2.0002 0 0 0-1.5996-3.1856 2.0002 2.0002 0 0 0-1.6543 0.85938l-2.623 3.6719a2.0002 2.0002 0 1 0 3.2539 2.3262l0.16797-0.23437c2.1189 1.5928 6.0208 3.7847 11.525 3.7988 5.6217 0.01443 9.595-2.2628 11.711-3.8672a2.0007 2.0007 0 0 0 3.2461-2.3379l-2.623-3.6719a2.0002 2.0002 0 0 0-1.7148-0.85937z" style="color-rendering:auto;color:#000000;dominant-baseline:auto;fill:#9abeff;font-feature-settings:normal;font-variant-alternates:normal;font-variant-caps:normal;font-variant-ligatures:normal;font-variant-numeric:normal;font-variant-position:normal;image-rendering:auto;isolation:auto;mix-blend-mode:normal;shape-padding:0;shape-rendering:auto;solid-color:#000000;text-decoration-color:#000000;text-decoration-line:none;text-decoration-style:solid;text-indent:0;text-orientation:mixed;text-transform:none;white-space:normal"/>
</svg>
