<svg width="192" height="192" version="1.1" viewBox="0 0 192 192" xmlns="http://www.w3.org/2000/svg">
 <rect x="32.501" y="8.0014" width="127" height="176" rx="9.9998" style="fill:#d2d2d2;stroke-width:4"/>
 <path d="m123.44 25.021-22.191 6.9785 7.293 22.242 5.6797-11.139a34.207 34.207 0 0 1 15.988 28.896 34.207 34.207 0 0 1-34.207 34.207 34.207 34.207 0 0 1-34.207-34.207 34.207 34.207 0 0 1 34.207-34.207v-9.793a44 44 0 0 0-44 44 44 44 0 0 0 44 44 44 44 0 0 0 44-44 44 44 0 0 0-21.328-37.631l4.7656-9.3477zm-27.438 34.979a12 12 0 0 0-12 12 12 12 0 0 0 12 12 12 12 0 0 0 12-12 12 12 0 0 0-12-12z" style="fill:#a0a5af;paint-order:stroke fill markers"/>
</svg>
