<svg version="1.1" viewBox="0 0 192 192" xmlns="http://www.w3.org/2000/svg">
 <path d="m131.81 127.57h4.497c1.3766 0 2.7533-.0918 4.1299 0 3.5792.0918 6.2407 2.3862 7.1585 5.8736 1.4684 5.7818 2.1108 11.747 1.652 17.621-.27532 4.1299-1.1013 8.168-1.9273 12.206-.45888 2.3862-3.4875 4.7723-5.9654 4.8641-5.0476.18355-10.095.0918-15.143.0918-3.8546 0-7.8009.0918-11.655 0-3.2121-.0918-4.0381-1.1931-4.4052-3.9463-.55065-4.497-1.5602-8.994-3.1204-13.216-.27533-.64242-.45888-1.3766-.73421-2.1108l-4.6805 1.652c-1.652.55065-3.3039 1.1931-5.0477 1.4684-1.1013.18356-2.3862-.18355-3.4875-.55065-2.5697-.82598-5.0476-1.8355-7.6174-2.6615-.45888-.18355-.91776-.45887-1.1013.27533-.64243 2.2026-1.4684 4.4052-2.0191 6.6078-.7342 2.9368-1.3766 5.9654-1.7437 8.9022-.3671 2.6615-2.2026 3.671-4.3134 3.671h-9.5446c-5.4148 0-10.738-.0918-16.152 0-2.845.0918-6.5161-2.2026-7.342-5.6901-1.4684-6.0572-2.0191-12.114-1.652-18.355.27533-4.0381.82598-7.9845 1.9273-11.839.82598-2.7533 3.7628-5.0476 6.6078-5.0476h8.9022c.3671 0 .7342 0 1.3766-.0918-.82598-1.4684-1.5602-2.7533-2.2026-4.1299-2.3862-4.2217-4.1299-8.7187-5.2312-13.491-.82598-3.3039-.55065-6.6996.09178-9.9117.82598-4.497 1.1013-8.994.64243-13.675-.3671-3.671-.09177-7.4338 0-11.197 0-1.1013.45888-1.7437 1.652-2.2026 7.8009-2.7533 15.969-3.4875 24.137-3.3039 4.497.09178 8.994.45888 13.216 1.652 2.9368.82598 5.5065.18355 8.2598-.3671 5.8736-1.1931 11.839-1.2849 17.804-1.1931 4.2217.09177 8.3516.7342 12.481 1.5602 2.0191.45888 3.9464 1.1931 5.9654 1.8355.73419.18355 1.0095.7342 1.1013 1.4684.36711 4.8641.45888 9.6364-.0918 14.501-.18355 1.8355-.0918 3.671.0918 5.5065.27533 3.0286.82598 5.9654 1.1931 8.9022.45888 4.2217-.45887 8.3516-2.1108 12.206-1.5602 3.671-3.4875 7.1585-5.2312 10.738-.0918.18355-.27533.45888-.3671.64243-.0918.3671-.0918.45887 0 .7342zm-29.185-30.837c.0918-3.4875-1.652-5.4148-4.3134-6.5161-3.1204-1.2849-7.342-.27533-9.0858 3.7628-1.3766 3.3039.3671 7.8009 3.5792 8.994.55065.18355 1.8355.18355 1.5602 1.5602-.55065 2.4779-1.0095 4.8641-1.4684 7.342-.55065 3.1204-1.1931 6.149-1.7437 9.2693-.09177.3671.09178 1.0095.18355 1.1013 1.652.36711 3.3039.82598 4.9559.91776.91776.0918 1.8355-.45888 2.7533-.7342.55065-.0918.82598-.36711.7342-1.0095-.18355-1.0095-.27532-2.0191-.45888-3.0286l-.82598-4.6806c-.55065-2.9368-1.0095-5.8736-1.5602-8.7187-.18355-1.1013.27533-1.652 1.2849-2.0191 2.845-1.1013 4.3134-3.2121 4.4052-6.2407zm-27.441 65.528c.18355 0 .3671 0 .45888.0918.3671-1.3766.64243-2.845 1.1931-4.1299 1.2849-3.4875 2.5697-6.8832 3.9463-10.371.27533-.82597.27533-1.1931-.55065-1.5602-.91775-.45888-1.7437-1.0095-2.5697-1.5602-1.3766-.82598-2.6615-1.7437-4.1299-2.7533-.45888 6.9749-.27533 13.766 1.652 20.282zm41.941-19.181h-.18356c-2.2026 1.2849-4.4052 2.6615-6.516 4.0381-.18355.0918-.27533.64243-.18355 1.0095 1.3766 3.8546 2.845 7.7091 4.2217 11.655.3671.91776.55065 1.8355.82598 2.845 1.9273-2.2944 2.9368-16.703 1.8355-19.548zm-40.565-76.632c-3.671.3671-7.6174.7342-11.564 1.2849-1.8355.18355-3.5792.7342-5.323 1.1013-.91775.18355-1.1013-.27533-1.1013-1.0095 0-1.652 0-3.2121.18355-4.8641.27533-3.0286.45888-6.149 1.1013-9.1775 1.2849-6.4243 3.5792-12.481 7.7091-17.713 3.2121-4.0381 7.1585-7.0667 11.931-9.1775 8.3516-3.5792 16.978-3.8546 25.697-2.3862 5.5983.91776 10.738 3.2121 15.143 6.9749 2.845 2.3862 5.1394 5.4148 6.9749 8.7187 4.4052 7.9845 5.6901 16.703 5.7818 25.605v2.1108c0 .7342-.3671.91776-1.1013.7342-3.671-.64243-7.342-1.3766-11.013-1.652-3.5792-.27533-7.2503-.18355-10.83-.09178-2.4779.09178-4.9559.45888-7.4338.82598-1.8355.27533-3.671.7342-5.4147 1.1013-.55065.09177-1.2849.18355-1.8355.09177-2.2944-.45887-4.5888-1.0095-6.8832-1.3766-3.9463-.3671-7.8009-.64243-12.023-1.1013zm30.745-16.061c2.1108 0 4.2217-.18355 6.2407.09177 2.2944.27533 3.1204-2.2026 2.3862-3.7628-1.0095-2.0191-2.3862-3.671-4.5888-4.6805-5.2312-2.3862-10.738-.27533-12.94 5.0476-.64243 1.652.18355 3.2121 2.0191 3.2121 2.2026.09177 4.497.09177 6.8832.09177zm-22.76 0c2.3862 0 4.7723 0 7.1585-.09177 1.5602-.09178 2.4779-1.5602 1.9273-3.0286-1.0095-2.7533-2.9368-4.6805-5.6901-5.6901-4.5888-1.652-9.9117.55065-11.839 5.1394-.91775 2.1108.18355 3.5792 2.3862 3.671zm11.288 11.288c.91775 0 1.9273-.82598 1.9273-1.7437 0-.82598-1.0095-1.8355-1.8355-1.8355s-1.9273 1.0095-1.9273 1.7437c.09178.91775 1.0095 1.8355 1.8355 1.8355zm-11.197 0c.82598 0 1.8355-.91776 1.8355-1.7437s-.91776-1.7437-1.7437-1.8355c-.91775-.09177-1.8355.91776-1.8355 1.7437 0 1.0095.82598 1.8355 1.7437 1.8355zm15.143-1.652c0 .91775.91775 1.7437 1.8355 1.652.91775 0 1.7437-.82598 1.7437-1.7437 0-1.0095-.91776-1.8355-1.8355-1.7437-.91775 0-1.7437.91775-1.7437 1.8355zm-7.7091 0c0-.91776-.82598-1.8355-1.652-1.8355-.91776 0-1.8355.82598-1.8355 1.652 0 .91775.82598 1.8355 1.7437 1.8355.91776 0 1.7437-.7342 1.7437-1.652zm15.143-1.8355c-.82598 0-1.8355.91775-1.8355 1.7437s.82598 1.8355 1.7437 1.8355c.91776 0 1.9273-.91775 1.9273-1.7437-.0918-.91776-1.0095-1.8355-1.8355-1.8355z" fill="#6FDD98"/>
 <path d="m46.553 93.066c-.3671.64243-.64243 1.1013-.91775 1.4684-2.5697 3.3957-3.7628 7.2503-4.5888 11.38-.91776 4.497-2.2026 8.9022-4.7723 12.757-1.3766 2.0191-1.652 2.2026-4.1299 1.8355-3.2121-.55065-6.2407-1.4684-9.1775-3.1204-1.652-.91776-2.2944-2.0191-1.9273-4.0381.7342-3.8546 1.4684-7.8009 3.5792-11.105 1.4684-2.2944 3.3957-4.4052 5.2312-6.4243.64243-.7342.82598-1.3766.82598-2.3862.09178-2.3862.27533-4.7723.55065-7.1585.09177-.91775.18355-1.652-1.1013-1.3766-.64243.09177-.82598-.27533-.82598-.82598.27533-5.8736 2.0191-11.013 7.2503-14.225 2.4779-1.5602 5.2312-2.1108 8.168-2.1108 1.8355 0 3.671.27533 5.5065.45888.82598.09178 1.0095.7342.91776 1.4684-.64243 6.8832-.64243 13.858-.09178 20.741.18355 2.4779.09178 4.9559 0 7.4338-.09177 1.1931-.91775 1.5602-1.8355 1.1013-.3671-.18355-.7342-.7342-.82598-1.1013-.3671-1.1013-.64243-2.2944-1.0095-3.4875-.27533-.27533-.55065-.64243-.82598-1.2849zm99.117.09178c-1.1931 1.4684-1.2849 3.2121-1.8355 4.7723-.18355.45888-.55065 1.1013-1.0095 1.2849-.7342.3671-1.4684-.09178-1.5602-.91775-.18355-2.1108-.3671-4.1299-.18355-6.2407.45887-5.5065.64243-11.013.3671-16.611l-.27533-6.0572c-.0918-1.1013.73421-1.3766 1.4684-1.4684 5.9654-.55065 11.747-.3671 16.244 4.497 2.4779 2.6615 3.671 6.0572 3.9464 9.6364 0 .3671 0 .82598.0918 1.1931.18355 1.4684.18355 1.5602-1.2848 1.652-.64243.09177-.64243.3671-.64243.91775.27533 2.2026.45888 4.4052.64243 6.6996v.18355c-.73421 2.1108.82598 3.2121 2.0191 4.4052 3.0286 2.9368 5.0476 6.5161 6.149 10.554.55065 2.1108 1.0095 4.2217 1.4684 6.4243.3671 1.4684 0 2.1108-1.7437 3.1204-2.4779 1.4684-5.1394 2.4779-7.9845 2.9368-.64243.0918-1.2848.27533-1.9273.45888-1.652.45887-2.6615-.3671-3.4875-1.652-2.3862-3.4875-3.5792-7.4338-4.5888-11.472-.64243-2.4779-1.0095-5.1394-1.8355-7.5256-.55065-1.7437-1.7437-3.2121-2.6615-4.7723-.45888-.64243-.91775-1.2849-1.3766-2.0191zm25.514 26.34c3.671.0918 6.9749 1.3766 10.004 3.5792 1.0095.73421 1.0095 1.2849-.0918 1.9273-1.1931.7342-1.2848 1.1013-.55065 2.4779 2.3862 4.497 3.7628 9.2693 3.3957 14.409-.3671 4.5888-2.4779 8.4433-5.9654 11.472-.45888.3671-1.0095.7342-1.4684 1.1931-1.9273 1.8355-4.2217 1.3766-6.4243.73421-1.0095-.36711-1.1931-1.7437-.45888-2.845.7342-.91776 1.5602-1.8355 2.2944-2.7533 2.5697-3.3039 3.3039-7.1585 3.1204-11.288-.0918-2.4779-.82598-4.8641-1.7437-7.2503-.64243-1.652-1.2849-1.9273-2.9368-1.4684-1.5602.3671-3.1204.64242-4.6805.91775-.73421.0918-1.1013.27533-1.3766 1.1013-.91775 3.5792-1.9273 7.1585-2.9368 10.738-.0918.45888.18355 1.0095.45888 1.4684 1.0095 1.652 2.2026 3.2121 3.1204 4.9559.3671.64243.18355 1.4684.27533 2.2944-.7342-.0918-1.4684-.0918-2.1108-.3671-2.4779-1.2849-4.3134-3.3957-6.2407-5.4148-1.0095-1.0095-.27532-2.2026-.18355-3.3957.27533-1.8355.64243-3.5792 1.0095-5.4148.27533-1.3766.45888-2.845.73421-4.2217.18355-.82598 0-1.2848-.91776-1.3766-1.5602-.18355-1.652-.45887-.82598-1.8355 2.1108-3.2121 4.5888-5.9654 7.9845-7.8009 2.0191-1.2849 4.2217-1.8355 6.516-1.8355zm-134.82 10.83c-.91775.27533-1.7437.45888-2.7533.64243.09177.45888.09177 1.1013.18355 1.7437.64243 3.4875 1.2849 6.8832 1.8355 10.371.18355 1.1013-.18355 1.9273-1.0095 2.6615-1.5602 1.2849-3.0286 2.7533-4.6805 4.1299-.45888.45888-1.1013.73421-1.7437.91776-.45888.18355-1.1013.18355-1.3766-.0918-.27533-.27532-.27533-1.0095-.09178-1.3766.64243-1.2848 1.3766-2.5697 2.1108-3.8546.09178-.18355.27533-.45887.45888-.64243 1.652-1.3766 1.2849-3.1204.82598-4.9559-.82598-2.845-1.5602-5.6901-2.3862-8.5351-.18355-.64242-.55065-.91775-1.1931-1.0095-1.8355-.27532-3.7628-.7342-5.5983-1.1931-.82598-.18355-1.2849-.0918-1.7437.64243-2.1108 3.8546-2.845 7.8927-2.2026 12.206.45888 3.5792 1.9273 6.6996 4.497 9.1775.7342.7342 1.4684 1.652 1.1931 2.845-.27533 1.1013-1.3766 1.1931-2.2944 1.3766-1.8355.3671-3.4875.0918-5.0476-1.1013-5.4148-4.1299-7.8927-9.5446-7.2503-16.428.3671-3.8546 1.652-7.342 3.3039-10.738.82598-1.652.82598-1.652-.7342-2.5697-.82598-.45888-1.0095-.91775-.18355-1.5602 1.8355-1.5602 3.8546-2.5697 6.149-3.2121.82598-.27533 1.7437-.45888 2.5697-.55065 3.4875-.36711 6.6996.55065 9.6364 2.5697 3.2121 2.3862 5.4148 5.2312 7.5256 8.5351z" fill="#6FDD98"/>
</svg>
