<svg width="192" height="192" version="1.1" viewBox="0 0 192 192" xmlns="http://www.w3.org/2000/svg">
 <path d="m132 8c-20 0-36 24-36 24s-5.5363-1.0205-8 0c-1.7421 0.7216-3.4967 2.1828-4 4-1.4675 5.298 4.4756 10.523 4 16-1.1361 13.083-12 20-16 36 0-48-4-68-28-68-14.422 0-24 16-24 36 0 51.034 44 128 84 128 20 0 24-8 28-8 6.7987 0 9.2032 4.1617 16 4 5.4959-0.13078 14.018 1.1276 16-4 1.7335-4.484-6-8-6-12s6-26.403 6-40c0-32-10-32-10-40 0-11.392 10-20.608 10-32 0-28-13.865-44-32-44z" style="fill:#8e6f60"/>
 <path d="m115.73 52.971s15.918 14.456 25.322 13.615c11.26-1.0071 11.843-11.911 12.96-18.511 4.0148 1.4263-0.74188 12.76-0.74188 12.76s11.291-9.7005 10.499-16.782c-2.58-23.061-15.773-31.56-30.316-32.303-17.63-0.90033-33.696 17.352-41.128 33.364-2.9157 6.2824-3.4877 12.201 0.41967 20.774-1.4546 0.86387-4.4066-2.518-4.4066-2.518s-16.727 36.941-16.997 56.656c-0.4089 29.925 18.046 46.794 18.046 46.794s-9.0248-29.645-2.3082-42.387c6.6997 11.977 17.614 22.703 27.069 24.971 2.1129 0.50666 4.1292-3.3569 3.5672-5.4558-4.5369-16.946-10.438-24.034-10.072-36.721 0.35322-12.249 9.851-30.582 11.751-34.833 2.6884-6.0148-3.6631-19.422-3.6631-19.422z" style="fill:#d3b69a"/>
 <path d="m137.19 32.297c-0.53131-4.778 7.277-7.103 12-8 4.2025-0.7982 11.541-0.92236 12.544 2.7079 0.77354 2.7994-3.6177 13.221-9.1994 14.541-5.812 1.374-15.06-6.6909-15.345-9.2488z" style="fill:#8e6f60"/>
 <path d="m155.62 62.674c-0.11697 0.0075-0.22758 0.05593-0.3125 0.13672 0 0-3.9648 3.7685-9.4375 5.2305-2.743 0.73274-8.8242 1.8262-8.8242 1.8262-0.24586 0.04469-0.421 0.26402-0.41016 0.51367 0 0 0.0504 1.2364 0.18164 2.7539 0.13127 1.5175 0.33442 3.3049 0.67579 4.498 0.41451 1.4488 1.5636 2.8407 3.0684 3.2793 0.88352 0.25753 1.6928 0.22236 2.4219-0.03516 0.72907-0.25752 1.3722-0.71519 2.0273-1.2695 1.1818-0.99998 2.0312-2.6352 2.7305-4.1816 0.28666-0.63389 0.4258-0.91494 0.66211-1.4707-0.0245 0.41887 4e-4 0.70703-0.0215 1.125-0.0333 0.63602-0.0473 1.2448 0.0234 1.7754 0.0708 0.53058 0.2154 1.0543 0.70312 1.334 0.24619 0.14116 0.55671 0.09171 0.74414-0.0078 0.18744-0.09952 0.32382-0.23417 0.46094-0.39062 0.27424-0.31291 0.5385-0.73455 0.80469-1.2266 0.53238-0.98403 1.0556-2.2375 1.3906-3.2695 1.0965-3.3782 3.6113-9.9434 3.6113-9.9434 0.13041-0.34066-0.13603-0.7018-0.5-0.67773z" style="color-rendering:auto;color:#000000;dominant-baseline:auto;fill:#fff;font-feature-settings:normal;font-variant-alternates:normal;font-variant-caps:normal;font-variant-ligatures:normal;font-variant-numeric:normal;font-variant-position:normal;image-rendering:auto;isolation:auto;mix-blend-mode:normal;shape-padding:0;shape-rendering:auto;solid-color:#000000;text-decoration-color:#000000;text-decoration-line:none;text-decoration-style:solid;text-indent:0;text-orientation:mixed;text-transform:none;white-space:normal"/>
 <path d="m114.57 35.986s3.0836-3.5744 7.9738-6.6099c3.1771-1.9721 6.1902-2.518 6.1902-2.518l-4.0918-0.20984s-2.8259-5.8093-7.5541-3.1476c-4.3723 2.4613-0.31475 7.8689-0.31475 7.8689z" style="fill:#8e6f60"/>
</svg>
