<svg width="192" height="192" version="1.1" viewBox="0 0 192 192" xmlns="http://www.w3.org/2000/svg">
 <path d="m96.5 27.974-76 15.947-0.5-0.24918v118.36c0 5.5217 4.46 9.967 10 9.967h133c5.54 0 10-4.4453 10-9.967v-119.27l-0.5 1.1602z" style="fill:#ececec;stroke-width:3.9934"/>
 <path d="m27.016 20c-3.116 0.97043-5.542 3.3885-6.5156 6.4942v17.427h152v-17.427c-0.97364-3.1057-3.3997-5.5237-6.5156-6.4942z" style="fill:#b1b5bd;paint-order:stroke fill markers;stroke-width:3.9934"/>
 <path d="m52 40 4-16h4l-4 16z" style="fill:#83868c"/>
 <rect x="68" y="28" width="8" height="8" style="fill:#83868c;paint-order:stroke fill markers"/>
 <path d="m84 40 4-16h4l-4 16z" style="fill:#83868c"/>
 <rect transform="scale(1,-1)" x="100" y="-32" width="40" height="4" style="fill:#83868c;paint-order:stroke fill markers;stroke-width:1.0541"/>
 <rect transform="scale(1,-1)" x="100" y="-40" width="40" height="4" style="fill:#728dbe;paint-order:stroke fill markers;stroke-width:1.0541"/>
 <rect x="36" y="88" width="44" height="12" ry="4" style="fill:#ccc;paint-order:stroke fill markers"/>
 <rect x="36" y="112" width="28" height="12" ry="4" style="fill:#ccc;paint-order:stroke fill markers"/>
 <rect x="88" y="88" width="68" height="36" ry="18" style="fill:#9abeff;paint-order:stroke fill markers"/>
 <circle cx="138" cy="106" r="18" style="fill:#fff;paint-order:stroke fill markers"/>
</svg>
