<svg width="192" height="192" fill="none" version="1.1" viewBox="0 0 192 192" xmlns="http://www.w3.org/2000/svg">
 <rect transform="rotate(180 172 172)" x="172" y="172" width="152" height="152" rx="10" fill="#FF837D"/>
 <mask x="20" y="20" width="152" height="152" mask-type="alpha" maskUnits="userSpaceOnUse">
  <rect transform="rotate(180 172 172)" x="172" y="172" width="152" height="152" rx="10" fill="#fff"/>
 </mask>
 <path d="m96 60c3.3137 0 6-2.6863 6-6s-2.6863-6-6-6-6 2.6863-6 6 2.6863 6 6 6zm-22 21c3.3137 0 6-2.6863 6-6s-2.6863-6-6-6-6 2.6863-6 6 2.6863 6 6 6zm44 42c3.314 0 6-2.686 6-6s-2.686-6-6-6-6 2.686-6 6 2.686 6 6 6zm6-27c0 3.3137-2.686 6-6 6s-6-2.6863-6-6 2.686-6 6-6 6 2.6863 6 6zm-6-15c3.314 0 6-2.6863 6-6s-2.686-6-6-6-6 2.6863-6 6 2.686 6 6 6zm-16 57c0 3.314-2.6863 6-6 6s-6-2.686-6-6 2.6863-6 6-6 6 2.686 6 6zm-50-36c3.3137 0 6-2.6863 6-6s-2.6863-6-6-6-6 2.6863-6 6 2.6863 6 6 6zm94-6c0 3.3137-2.686 6-6 6s-6-2.6863-6-6 2.686-6 6-6 6 2.6863 6 6zm-44 21c0 3.314-2.6863 6-6 6s-6-2.686-6-6 2.6863-6 6-6 6 2.686 6 6zm-6-15c3.3137 0 6-2.6863 6-6s-2.6863-6-6-6-6 2.6863-6 6 2.6863 6 6 6zm6-27c0 3.3137-2.6863 6-6 6s-6-2.6863-6-6 2.6863-6 6-6 6 2.6863 6 6zm-28 48c3.3137 0 6-2.686 6-6s-2.6863-6-6-6-6 2.686-6 6 2.6863 6 6 6zm6-27c0 3.3137-2.6863 6-6 6s-6-2.6863-6-6 2.6863-6 6-6 6 2.6863 6 6z" clip-rule="evenodd" fill="#000" fill-opacity=".25" fill-rule="evenodd"/>
</svg>
