<svg width="192" height="192" version="1.1" viewBox="0 0 192 192" xmlns="http://www.w3.org/2000/svg">
 <path d="m173.81 170.64s7.986-13.993 6.167-17.086c-1.6011-2.7171-16.317-1.3515-16.317-1.3515s7.2426-14.815 5.273-18.161c-1.9386-3.2942-19.784-3.3116-19.784-3.3116s22.638-10.18 23.298-13.949c0.69252-3.9527-18.291-18.232-18.291-18.232s20.139-25.711 18.654-29.219c-1.8634-4.403-32.442-7.2564-32.442-7.2564s5.1336-31.635 1.0249-34.227c-3.4529-2.176-33.109 11.728-33.109 11.728s-9.5301-27.031-15.91-27.031c-6.4197 0-21.911 27.07-21.911 27.07s-20.858-15.161-25.027-12.801c-3.6844 2.087-2.4286 28.859-2.4286 28.859z" style="fill-rule:evenodd;fill:#54688c;stroke-width:1.9105"/>
 <path d="m84.117 75.244c-37.939 0-67.527-9.7613-67.527 28.178 0 37.939 30.756 68.696 68.696 68.696 9.7251-0.0297 19.333-2.1242 28.188-6.1446 9.8606 2.4217 31.121 7.1004 58.334 9.8216 6.9437 0.6927 10.924-7.7054 5.9906-12.641-16.442-16.442-30.027-24.916-34.029-30.954 3.3655-8.2248 10.198-19.891 10.211-28.778 0-37.939-31.925-28.178-69.864-28.178z" style="color-rendering:auto;color:#000000;dominant-baseline:auto;fill:#96dfd3;font-feature-settings:normal;font-variant-alternates:normal;font-variant-caps:normal;font-variant-ligatures:normal;font-variant-numeric:normal;font-variant-position:normal;image-rendering:auto;isolation:auto;mix-blend-mode:normal;shape-padding:0;shape-rendering:auto;solid-color:#000000;stroke-width:.92832;text-decoration-color:#000000;text-decoration-line:none;text-decoration-style:solid;text-indent:0;text-orientation:mixed;text-transform:none;white-space:normal"/>
 <path d="m85.286 34.726c-37.939 0-68.696 30.756-68.696 68.696 0 4.2761 0.41095 8.4544 1.1585 12.514 1.6661 3.7888 5.5246 10.369 13.834 16.755 0.0023 0.0122 3e-3 0.0241 0.0055 0.0362 0 0 1.91 9.6564 5.3778 19.563 1.7338 4.9538 3.8115 10.002 6.6432 14.358 2.8318 4.3566 6.9161 9.1816 13.827 9.1816 5.2605 0 9.9562-1.8768 13.288-4.4403 3.3326-2.5636 5.4656-5.5535 7.1854-8.0104s3.0914-4.4156 4.0106-5.3052c0.9192-0.88956 0.78649-0.81047 1.5085-0.81047 2.166 0 3.0407 0.44399 4.2336 1.3617 1.193 0.91765 2.5412 2.5693 4.0705 4.754s3.1748 4.8676 5.8528 7.4592c2.678 2.5917 6.9882 4.9916 11.836 4.9916 5.5699 0 8.6127-2.9847 11.285-5.657 2.672-2.6723 4.9473-5.7674 6.9624-8.7901 3.5459-5.3188 3.4768-5.4198 4.8936-7.618 11.98 12.713 42.842 16.269 46.603 17.982 1.3375-2.6547 1.1522-6.0736-1.3671-8.5942-16.442-16.442-24.932-27.783-28.934-33.821 3.3655-8.2248 5.1032-17.024 5.1166-25.911 0-37.939-30.756-68.696-68.696-68.696z" style="color-rendering:auto;color:#000000;dominant-baseline:auto;fill:#73ada4;font-feature-settings:normal;font-variant-alternates:normal;font-variant-caps:normal;font-variant-ligatures:normal;font-variant-numeric:normal;font-variant-position:normal;image-rendering:auto;isolation:auto;mix-blend-mode:normal;shape-padding:0;shape-rendering:auto;solid-color:#000000;stroke-width:.92832;text-decoration-color:#000000;text-decoration-line:none;text-decoration-style:solid;text-indent:0;text-orientation:mixed;text-transform:none;white-space:normal"/>
 <circle cx="53.926" cy="85.695" r="6.4097" style="fill:#fff;paint-order:stroke fill markers;stroke-width:.8012"/>
</svg>
