<svg version="1.1" viewBox="0 0 192 192" xmlns="http://www.w3.org/2000/svg">
 <title>Debian</title>
 <circle cx="96" cy="96" r="87" style="fill:#dc505e;stroke-width:.98864"/>
 <path d="m100.66 136.26c-12.289-4.4686-19.634-9.8864-27.613-21.948a39.743 39.743 0 0 1-5.4276-20.504c-0.31636-9.7381 4.5477-20.91 13.722-26.812a30.855 30.855 0 0 1 26.98-3.9545 24.311 24.311 0 0 1 15.363 17.36c1.9081 6.9205-0.0791 18.507-9.659 23.223a18.547 18.547 0 0 1-14.681 1.1172 15.492 15.492 0 0 1-8.8977-9.9753c-2.3134-9.1844 4.6367-14.286 7.7509-14.77 12.447-4.2314 18.784 15.403 4.2215 17.084 6.6239 2.2343 13.485-4.6268 12.21-11.656-0.23727-6.9205-8.6901-13.841-18.033-11.013a17.054 17.054 0 0 0-9.0164 6.2284 18.122 18.122 0 0 0-2.6397 15.561 20.672 20.672 0 0 0 12.368 13.96 24.301 24.301 0 0 0 19.456-1.305c12.526-6.2185 15.077-21.384 12.605-29.768a30.569 30.569 0 0 0-19.13-21.513 37.064 37.064 0 0 0-32.239 4.5477c-10.776 6.9205-16.688 20.593-16.204 31.636a45.556 45.556 0 0 0 6.2185 23.46c9.1844 13.96 19.634 18.359 32.625 19.071z" style="fill-rule:evenodd;fill:#fff;stroke-width:.98864"/>
</svg>
