<svg width="192" height="192" version="1.1" viewBox="0 0 192 192" xmlns="http://www.w3.org/2000/svg">
 <rect x="20" y="20" width="152" height="152" rx="9.9346" opacity=".63" style="fill:#f8c18c;opacity:1"/>
 <path d="m86 56c-4.432 0-8 3.568-8 8v12c0 3.1759 1.8366 5.8997 4.5059 7.1934l-12.137 20.807h-10.369c-4.432 0-8 3.568-8 8v12c0 4.432 3.568 8 8 8h20c4.432 0 8-3.568 8-8v-12c0-4.432-3.568-8-8-8h-0.36914l11.668-20h9.4023l11.668 20h-0.36914c-4.432 0-8 3.568-8 8v12c0 4.432 3.568 8 8 8h20c4.432 0 8-3.568 8-8v-12c0-4.432-3.568-8-8-8h-10.369l-12.137-20.807c2.6692-1.2936 4.5059-4.0175 4.5059-7.1934v-12c0-4.432-3.568-8-8-8h-20z" style="color-rendering:auto;color:#000000;dominant-baseline:auto;fill:#fff;font-feature-settings:normal;font-variant-alternates:normal;font-variant-caps:normal;font-variant-ligatures:normal;font-variant-numeric:normal;font-variant-position:normal;image-rendering:auto;isolation:auto;mix-blend-mode:normal;shape-padding:0;shape-rendering:auto;solid-color:#000000;text-decoration-color:#000000;text-decoration-line:none;text-decoration-style:solid;text-indent:0;text-orientation:mixed;text-transform:none;white-space:normal"/>
</svg>
