<svg width="192" height="192" fill="none" version="1.1" viewBox="0 0 192 192" xmlns="http://www.w3.org/2000/svg">
 <path d="m157.12 75.837c0.135-0.0685 0.135-0.2612 0-0.3298l-56.911-28.921c-1.4238-0.7234-3.1072-0.7234-4.5307 0l-54.501 27.697c-1.6779 0.8526-2.7348 2.5753-2.7348 4.4574v54.34c0 1.882 1.0569 3.604 2.7348 4.457l54.485 27.688c1.4326 0.728 3.1279 0.723 4.556-0.013l54.092-27.885c1.664-0.857 2.709-2.572 2.709-4.444v-56.881c0-0.0696 0.039-0.1333 0.101-0.1649z" clip-rule="evenodd" fill="#728DBE" fill-rule="evenodd"/>
 <path d="m67.289 30.609c-0.77672 0-1.5539 0.17932-2.2656 0.54102l-48.252 24.521c-3.6464 1.8531-3.6464 7.0611 0 8.9141l21.533 10.943-21.533 10.943c-3.6464 1.8531-3.6464 7.061 0 8.9141l48.252 24.521c1.4235 0.723 3.1058 0.723 4.5293 0l28.373-14.42-58.953-29.959 58.953-29.959-28.373-14.42c-0.71175-0.3617-1.4869-0.54102-2.2637-0.54102zm61.422 0c-0.77675 0-1.5536 0.17932-2.2656 0.54102l-28.371 14.42 58.953 29.959-58.953 29.959 28.371 14.42c1.424 0.723 3.1072 0.723 4.5312 0l48.252-24.521c3.646-1.8531 3.646-7.061 0-8.9141l-21.533-10.943 21.533-10.943c3.646-1.853 3.646-7.061 0-8.9141l-48.252-24.521c-0.712-0.3617-1.4889-0.54102-2.2656-0.54102z" style="fill:#9abeff"/>
</svg>
