<svg width="192" height="192" fill="none" version="1.1" viewBox="0 0 192 192" xmlns="http://www.w3.org/2000/svg">
 <g clip-rule="evenodd" fill-rule="evenodd">
  <path d="m45 124.82c-19.489 0-35-11.729-35-37.763 0-7.2614 3.9363-14.412 3.9363-14.412 1.2477-2.8091 4.2529-3.4769 6.627-1.5408 0 0 12.537 11.507 24.437 11.507v42.209z" fill="#71A372"/>
  <path d="m150 124.82c19.489 0 35-11.729 35-37.763 0-7.2614-3.936-14.412-3.936-14.412-1.248-2.8091-4.253-3.4769-6.627-1.5408 0 0-12.538 11.507-24.437 11.507v42.209z" fill="#71A372"/>
  <path d="m35 58.026v53.994c0 33.149 26.864 60.003 60.002 60.003h5.9963c33.146 0 60.002-26.864 60.002-60.003v-53.994c0-6.7955-3.045-15.988-5.971-23.251-2.444-6.0679-10.125-7.6031-15.377-3.7029-10.723 7.9629-27.994 18.951-41.652 18.951-13.658 0-30.929-10.988-41.652-18.95-5.252-3.9-12.932-2.3648-15.377 3.7031-2.9256 7.263-5.9714 16.456-5.9714 23.25z" fill="#98DC9A"/>
  <path d="m66.5 109c11.874 0 21.5-9.6259 21.5-21.5s-9.6259-21.5-21.5-21.5-21.5 9.6259-21.5 21.5 9.6259 21.5 21.5 21.5z" fill="#fff"/>
  <path d="m67.5 96c5.2467 0 9.5-4.2533 9.5-9.5s-4.2533-9.5-9.5-9.5-9.5 4.2533-9.5 9.5 4.2533 9.5 9.5 9.5z" fill="#56595B"/>
  <path d="m58.5 88c5.2467 0 9.5-4.2533 9.5-9.5s-4.2533-9.5-9.5-9.5-9.5 4.2533-9.5 9.5 4.2533 9.5 9.5 9.5z" fill="#fff"/>
  <path d="m129.5 109c11.874 0 21.5-9.6259 21.5-21.5s-9.626-21.5-21.5-21.5-21.5 9.6259-21.5 21.5 9.626 21.5 21.5 21.5z" fill="#fff"/>
  <path d="m130.5 96c5.247 0 9.5-4.2533 9.5-9.5s-4.253-9.5-9.5-9.5-9.5 4.2533-9.5 9.5 4.253 9.5 9.5 9.5z" fill="#56595B"/>
  <path d="m121.5 88c5.247 0 9.5-4.2533 9.5-9.5s-4.253-9.5-9.5-9.5-9.5 4.2533-9.5 9.5 4.253 9.5 9.5 9.5z" fill="#fff"/>
  <g fill="#F9DE81">
   <path d="m98 135c5.523 0 10-14.477 10-20s-4.477-10-10-10c-5.5228 0-10 4.477-10 10s4.4772 20 10 20z"/>
   <path d="m56 174c3.3137 0 6-2.686 6-6s-2.6863-6-6-6-6 2.686-6 6 2.6863 6 6 6z"/>
   <path d="m140 174c3.314 0 6-2.686 6-6s-2.686-6-6-6-6 2.686-6 6 2.686 6 6 6z"/>
  </g>
 </g>
</svg>
