<svg width="192" height="192" version="1.1" viewBox="0 0 192 192" xmlns="http://www.w3.org/2000/svg">
 <style type="text/css">.st0{fill:#FFFFFF;}</style>
 <style type="text/css">.st0{fill:#FFFFFF;}</style>
 <circle cx="96" cy="96" r="88" style="fill:#f8c18c;stroke-width:4"/>
 <circle cx="104" cy="96" r="80" style="fill:#bd9aff;paint-order:stroke fill markers;stroke-linecap:round;stroke-linejoin:round;stroke-width:16"/>
 <path d="m30.719 64a80 80 0 0 0-5.0938 16h156.67a80 80 0 0 0-5.0781-16zm-6.3203 24a80 80 0 0 0-0.39844 8 80 80 0 0 0 0.48438 8h159.12a80 80 0 0 0 0.39844-8 80 80 0 0 0-0.48438-8zm1.3047 24a80 80 0 0 0 5.0781 16h146.5a80 80 0 0 0 5.0938-16z" style="fill:#fff;paint-order:stroke fill markers;stroke-linecap:round;stroke-linejoin:round;stroke-width:16"/>
</svg>
