<?xml version="1.0" encoding="UTF-8" standalone="no"?>
<svg
   width="192"
   height="192"
   version="1.1"
   viewBox="0 0 192 192"
   id="svg7102"
   sodipodi:docname="electron21.svg"
   inkscape:version="1.2.2 (b0a8486541, 2022-12-01)"
   xmlns:inkscape="http://www.inkscape.org/namespaces/inkscape"
   xmlns:sodipodi="http://sodipodi.sourceforge.net/DTD/sodipodi-0.dtd"
   xmlns="http://www.w3.org/2000/svg"
   xmlns:svg="http://www.w3.org/2000/svg">
  <defs
     id="defs7106" />
  <sodipodi:namedview
     id="namedview7104"
     pagecolor="#ffffff"
     bordercolor="#000000"
     borderopacity="0.25"
     inkscape:showpageshadow="2"
     inkscape:pageopacity="0.0"
     inkscape:pagecheckerboard="0"
     inkscape:deskcolor="#d1d1d1"
     showgrid="false"
     showguides="true"
     inkscape:zoom="5.1194531"
     inkscape:cx="112.60968"
     inkscape:cy="108.50768"
     inkscape:window-width="1551"
     inkscape:window-height="1288"
     inkscape:window-x="26"
     inkscape:window-y="23"
     inkscape:window-maximized="0"
     inkscape:current-layer="path2555">
    <sodipodi:guide
       position="0,127.32367"
       orientation="1,0"
       id="guide9372"
       inkscape:locked="false" />
    <sodipodi:guide
       position="95.88089,77.551452"
       orientation="1,0"
       id="guide2798"
       inkscape:locked="false" />
    <sodipodi:guide
       position="133,59"
       orientation="-0.70710678,-0.70710678"
       id="guide2802"
       inkscape:locked="false" />
    <sodipodi:guide
       position="132.5,96"
       orientation="0,-1"
       id="guide2804"
       inkscape:locked="false" />
  </sodipodi:namedview>
  <circle
     cx="96"
     cy="96"
     r="88"
     opacity="0.63"
     style="opacity:1;fill:#54688c"
     id="circle2" />
  <g
     fill="#9feaf9"
     fill-rule="nonzero"
     id="g2563"
     transform="matrix(0.52086774,0,0,0.52086774,29.309873,26.56659)"
     style="fill:#96dfd3">
    <g
       id="path2555">
      <path
         style="color:#000000;stroke-width:1.96019;-inkscape-stroke:none"
         d="m 127.61661,28.917737 c -7.04899,0 -12.76415,5.715164 -12.76415,12.764157 0,7.048993 5.71516,12.760407 12.76415,12.760407 4.91434,0 9.17275,-2.780141 11.30551,-6.850798 18.4208,10.501431 31.92164,45.324182 31.92164,85.876827 0,17.17698 -2.39655,33.6281 -6.83955,47.82809 a 2.667,2.667 0 1 0 5.08841,1.59365 c 4.61,-14.72799 7.08329,-31.71676 7.08329,-49.42174 0,-43.048632 -14.70121,-80.234286 -35.82889,-91.160228 0.0102,-0.208922 0.0338,-0.414766 0.0338,-0.626208 0,-7.048993 -5.71516,-12.764157 -12.76416,-12.764157 z m 2.91356,5.999604 a 7.43,7.43 0 0 1 2.77107,11.49674 7.1835723,8.7849855 0 0 0 0.78745,-3.914741 7.1835723,8.7849855 0 0 0 -3.55852,-7.581999 z M 82.128368,69.947526 c -17.138045,0.0615 -30.241352,5.512194 -36.387596,16.157683 -6.114994,10.591989 -4.366021,24.635141 4.24097,39.646131 a 2.667,2.667 0 1 0 4.623445,-2.65482 C 46.853194,109.57453 45.346472,97.456274 50.360467,88.771283 57.16846,76.980295 75.506992,72.559069 99.545968,76.937065 a 2.667,2.667 0 0 0 0.956182,-5.245904 C 94.000911,70.507162 87.84105,69.927026 82.128368,69.947526 Z m 91.640192,0.146241 a 2.6681622,2.6681622 0 0 0 -0.0675,5.335897 c 15.20498,0.198 26.1657,4.935619 31.09669,13.47661 6.792,11.764986 1.48893,29.809826 -14.24905,48.401806 a 2.6673083,2.6673083 0 1 0 4.07223,3.44602 C 211.64892,120.63812 217.5917,100.40419 209.41371,86.2402 203.39672,75.817211 190.67555,70.313767 173.76856,70.093767 Z m -22.91098,2.486086 c -15.39599,3.298996 -31.78263,9.749014 -47.52061,18.835005 -37.912979,21.888902 -62.912695,53.865612 -60.955976,77.724862 -3.943819,2.17143 -6.648311,6.31635 -6.648311,11.13677 0,7.04899 5.716164,12.76415 12.764157,12.76415 7.049993,0 12.764157,-5.71516 12.764157,-12.76415 0,-7.04899 -5.715164,-12.76041 -12.764157,-12.76041 -0.300575,0 -0.582056,0.0696 -0.877442,0.09 C 46.737207,146.3771 70.27432,116.65872 106.00304,96.030803 121.27003,87.215812 137.13802,80.971005 151.975,77.792008 a 2.667,2.667 0 1 0 -1.11742,-5.212155 z m -23.33096,51.652837 c -0.61347,0.007 -1.23675,0.0754 -1.85988,0.20999 a 9.236,9.236 0 0 0 -7.07578,10.97552 c 1.079,4.985 5.99053,8.15278 10.97552,7.07578 4.986,-1.07899 8.15279,-5.99053 7.07579,-10.97552 -0.945,-4.36187 -4.82133,-7.33275 -9.11565,-7.28577 z m -62.624614,15.35524 a 2.667,2.667 0 0 0 -1.398657,4.4097 c 10.514989,11.55499 24.174889,22.39519 39.754871,31.38918 36.60965,21.13719 75.45833,27.1833 95.81367,15.19025 2.10599,1.53294 4.67649,2.46358 7.48076,2.46358 7.04899,0 12.76416,-5.71516 12.76416,-12.76415 0,-7.04899 -5.71517,-12.76041 -12.76416,-12.76041 -7.04899,0 -12.76416,5.71142 -12.76416,12.76041 0,2.27412 0.64499,4.37915 1.68739,6.22834 -18.59655,10.10799 -54.96918,4.22843 -89.55158,-15.73771 -15.113988,-8.726 -28.341222,-19.22376 -38.476212,-30.36175 a 2.667,2.667 0 0 0 -2.546082,-0.81744 z m -16.405166,33.2603 a 7.43,7.43 0 0 1 4.735937,1.91987 7.1025357,6.1289473 0 0 0 -3.978487,-1.04993 7.1025357,6.1289473 0 0 0 -7.102031,6.1271 7.1025357,6.1289473 0 0 0 7.102031,6.13084 7.1025357,6.1289473 0 0 0 5.534634,-2.33609 7.43,7.43 0 0 1 -6.292084,4.06848 7.430135,7.430135 0 0 1 0,-14.86027 z m 155.76096,0.36372 a 7.43,7.43 0 0 1 2.15236,0 7.2677355,6.9720335 0 0 0 -3.35228,0.86995 7.43,7.43 0 0 1 1.19992,-0.86995 z m 2.64358,0 a 7.43,7.43 0 0 1 3.10104,0.83995 7.2677355,6.9720335 0 0 0 -3.10104,-0.83995 z m 4.82593,2.09237 a 7.43,7.43 0 0 1 1.08368,1.36491 7.2677355,6.9720335 0 0 0 -1.08368,-1.36491 z m -10.46181,0.0825 a 7.2677355,6.9720335 0 0 0 -0.94494,1.20742 7.43,7.43 0 0 1 0.94494,-1.20742 z m 12.50542,4.23347 a 7.43,7.43 0 0 1 0.21374,0.65621 7.43,7.43 0 0 1 -0.28873,0.88869 7.2677355,6.9720335 0 0 0 0.10124,-0.99369 7.2677355,6.9720335 0 0 0 -0.0263,-0.55121 z m -14.45904,0.0825 a 7.2677355,6.9720335 0 0 0 -0.0488,0.46871 7.2677355,6.9720335 0 0 0 0.0788,0.7762 7.43,7.43 0 0 1 -0.21749,-0.6712 7.43,7.43 0 0 1 0.18749,-0.57371 z m 13.70909,3.53601 a 7.43,7.43 0 0 1 -12.8654,0.21374 7.2677355,6.9720335 0 0 0 6.37458,3.68975 7.2677355,6.9720335 0 0 0 6.49082,-3.90349 z m -122.264422,0.94494 a 2.667,2.667 0 0 0 -2.984802,3.56976 c 8.903991,24.85998 23.466884,40.16735 39.844864,40.16735 11.94499,0 22.99617,-8.14478 31.61416,-22.47976 a 2.667,2.667 0 1 0 -4.57094,-2.74857 c -7.745,12.88298 -17.25823,19.89243 -27.04322,19.89243 -13.60498,0 -26.59495,-13.6496 -34.823946,-36.62758 a 2.667,2.667 0 0 0 -2.036116,-1.77363 z"
         id="path3355" />
      <path
         style="color:#000000;-inkscape-stroke:none"
         d="m 127.61719,27.9375 c -7.57874,0 -13.74414,6.165396 -13.74414,13.744141 0,7.578744 6.16574,13.740234 13.74414,13.740234 4.89629,0 9.11653,-2.629572 11.54883,-6.494141 8.59453,5.255595 16.23488,16.136789 21.70703,30.677735 5.62815,14.955491 8.99023,33.695741 8.99023,53.863281 0,17.07581 -2.38348,33.4254 -6.78711,47.50977 -0.37584,1.09736 -0.245,2.18974 0.23828,3.01367 0.48328,0.82392 1.26586,1.37997 2.12305,1.64843 0.85719,0.26847 1.81666,0.25848 2.68359,-0.14257 0.86577,-0.40051 1.59416,-1.22252 1.91211,-2.33594 4.64015,-14.83282 7.12305,-31.90543 7.12305,-49.69336 0,-21.63586 -3.68976,-41.80459 -10.06055,-57.986328 -6.25942,-15.898854 -15.10957,-27.950532 -25.74023,-33.707031 9.1e-4,-0.03721 0.006,-0.05417 0.006,-0.09375 0,-7.578745 -6.16539,-13.744141 -13.74414,-13.744141 z m 0,1.960937 c 6.51923,0 11.7832,5.263976 11.7832,11.783204 0,0.138575 -0.021,0.326945 -0.0332,0.578125 l -0.0293,0.628906 0.55859,0.289062 c 10.24324,5.297176 19.11328,17.118738 25.375,33.023438 6.26173,15.9047 9.92383,35.854848 9.92383,57.267578 0,17.61369 -2.46144,34.51061 -7.03711,49.12891 l -0.004,0.0117 -0.004,0.0117 c -0.18209,0.64036 -0.48593,0.92851 -0.85156,1.09766 -0.36564,0.16915 -0.83744,0.18795 -1.27539,0.0508 -0.43796,-0.13716 -0.81375,-0.42203 -1.01758,-0.76953 -0.20383,-0.3475 -0.28993,-0.75689 -0.0742,-1.38672 l 0.004,-0.0117 0.004,-0.0117 c 4.47743,-14.31 6.88477,-30.85296 6.88477,-48.12109 0,-20.38507 -3.38778,-39.333361 -9.11524,-54.552734 C 156.98153,63.696642 148.93402,52.170767 139.4082,46.740234 l -0.88281,-0.503906 -0.4707,0.900391 c -1.969,3.758092 -5.89281,6.326172 -10.4375,6.326172 -6.51957,0 -11.78516,-5.262023 -11.78516,-11.78125 0,-6.519228 5.26593,-11.783204 11.78516,-11.783204 z m 3.30664,4.121094 -0.96289,1.695313 c 1.8961,1.355366 3.14663,3.94537 3.14843,6.78125 -0.0103,1.236335 -0.25775,2.450661 -0.71289,3.539062 l 1.66407,0.998047 c 0.0628,-0.07702 0.0616,-0.175499 0.12109,-0.253906 l 0.0234,0.01367 c 0.0135,-0.0323 0.008,-0.07106 0.0215,-0.103516 3.07762,-4.159913 1.66088,-10.064239 -2.94531,-12.398437 -0.0663,-0.05052 -0.11377,-0.123358 -0.18164,-0.171875 l -0.0137,0.02344 c -0.0646,-0.03034 -0.0963,-0.09414 -0.16211,-0.123047 z M 82.125,68.966797 c -17.344041,0.06224 -30.857022,5.606044 -37.232422,16.648437 -6.339406,10.980702 -4.472427,25.416986 4.224609,40.597656 4.64e-4,8.7e-4 0.0015,0.001 0.002,0.002 0.5484,1.02571 1.438476,1.6765 2.373046,1.88282 0.935361,0.20649 1.877218,0.009 2.658204,-0.43946 0.780985,-0.44845 1.427543,-1.1623 1.720703,-2.07422 0.293159,-0.91191 0.179136,-2.01062 -0.431641,-3.00195 l 0.01563,0.0273 c -7.653577,-13.35033 -9.020203,-25.078187 -4.246094,-33.347661 3.239972,-5.611414 9.251891,-9.529143 17.511719,-11.517578 8.259828,-1.988436 18.731352,-2.014454 30.650391,0.15625 l 0.01172,0.0039 0.01172,0.002 c 1.096609,0.171689 2.113289,-0.120542 2.835939,-0.697266 0.72265,-0.576724 1.1601,-1.39444 1.31641,-2.251953 0.1563,-0.857512 0.0352,-1.779617 -0.4375,-2.574219 -0.4727,-0.794601 -1.32155,-1.424131 -2.40821,-1.65039 l -0.0117,-0.0039 -0.0117,-0.002 C 94.12466,69.533123 87.906557,68.94605 82.125,68.966797 Z m 91.65625,0.146484 c -1.13402,-0.01381 -2.11529,0.434312 -2.74805,1.128906 -0.63275,0.694595 -0.93412,1.589946 -0.94531,2.47461 -0.0112,0.884664 0.26757,1.78602 0.88281,2.496094 0.61488,0.709647 1.58366,1.182918 2.7168,1.197265 15.00756,0.195429 25.56671,4.854074 30.26172,12.986328 3.2323,5.598932 3.62401,12.745386 1.23242,20.873046 -2.39159,8.12766 -7.57783,17.18818 -15.38086,26.40625 -0.73289,0.86525 -1.01286,1.90602 -0.88086,2.83594 0.13208,0.93042 0.62925,1.73311 1.30469,2.30469 0.67544,0.57157 1.5487,0.92917 2.48828,0.90625 0.93958,-0.0229 1.92248,-0.46846 2.65625,-1.33399 v -0.002 c 8.58235,-10.13875 14.40187,-20.33168 17.04492,-29.85938 2.64305,-9.5277 2.0891,-18.431308 -2.15234,-25.77734 -6.24134,-10.811623 -19.36726,-16.414035 -36.48047,-16.636719 z m -91.648438,1.814453 c 5.638539,-0.02023 11.733046,0.554219 18.175778,1.726563 0.60469,0.128036 0.91457,0.393145 1.11524,0.730469 0.20173,0.339105 0.27222,0.788054 0.19336,1.220703 -0.0789,0.432648 -0.30098,0.826142 -0.60938,1.072265 -0.3084,0.246124 -0.69391,0.387559 -1.310544,0.291016 -12.109959,-2.202876 -22.820135,-2.204896 -31.435547,-0.130859 -8.621163,2.075421 -15.181986,6.263797 -18.75,12.443359 -5.25387,9.100491 -3.606253,21.6091 4.24414,35.30273 l 0.0059,0.0137 0.0098,0.0137 c 0.351195,0.57001 0.35593,0.98886 0.232422,1.37305 -0.123507,0.38418 -0.430598,0.74522 -0.830078,0.9746 -0.39948,0.22939 -0.8657,0.31161 -1.259766,0.22461 -0.394065,-0.087 -0.753097,-0.30388 -1.068359,-0.89453 l -0.0059,-0.0117 -0.0078,-0.0137 C 42.327754,110.43182 40.70286,96.792747 46.589844,86.595703 52.50692,76.34714 65.200798,70.988495 82.132812,70.927734 Z m 91.623048,0.146485 c 16.70073,0.217316 29.01597,5.621915 34.80859,15.65625 3.93654,6.817944 4.50177,15.114201 1.96094,24.273441 -2.54083,9.15923 -8.20673,19.13998 -16.65234,29.11718 -0.41717,0.49207 -0.80761,0.63284 -1.20703,0.64258 -0.39943,0.01 -0.83121,-0.15538 -1.17383,-0.44531 -0.34262,-0.28993 -0.57486,-0.68753 -0.63086,-1.08203 -0.056,-0.39451 0.0184,-0.80286 0.43554,-1.29492 7.93494,-9.3739 13.26919,-18.63321 15.76563,-27.11719 2.49644,-8.48398 2.14368,-16.242162 -1.41602,-22.408204 -5.16695,-8.949711 -16.53122,-13.766227 -31.93359,-13.966797 -0.64378,-0.0078 -0.99877,-0.218304 -1.25977,-0.519532 -0.26099,-0.301227 -0.40997,-0.738191 -0.40429,-1.1875 0.006,-0.449308 0.1648,-0.884623 0.43359,-1.179687 0.2688,-0.295064 0.62966,-0.496119 1.27344,-0.488281 z M 152.25,71.560547 c -0.50892,-0.08973 -1.06223,-0.07312 -1.62695,0.06836 -15.50412,3.325843 -31.96609,9.810331 -47.77539,18.9375 -19.054663,11.001134 -34.872228,24.534204 -45.710941,38.367184 -10.675905,13.6252 -16.530063,27.54932 -15.740235,39.72266 -3.938593,2.40898 -6.644531,6.66245 -6.644531,11.62109 0,7.57884 6.166321,13.74414 13.744141,13.74414 7.579669,0 13.74414,-6.16549 13.74414,-13.74414 0,-7.53327 -6.095413,-13.65519 -13.611328,-13.72851 -0.04216,-10.04801 5.392634,-22.19485 15.214844,-34.33985 10.149111,-12.5492 24.879889,-25.07143 42.64844,-35.330074 15.17471,-8.761713 30.94372,-14.965027 45.65429,-18.121094 1.15122,-0.204054 2.04821,-0.854237 2.53321,-1.683593 0.48499,-0.829356 0.58579,-1.788861 0.39648,-2.671875 -0.18931,-0.883014 -0.67468,-1.719692 -1.45703,-2.277344 -0.39118,-0.278826 -0.85839,-0.474402 -1.36914,-0.564453 z m -1.15234,1.96875 c 0.65315,-0.164657 1.05359,-0.0413 1.38281,0.193359 0.32921,0.23466 0.58078,0.637611 0.67773,1.089844 0.097,0.452233 0.0342,0.922491 -0.16992,1.271484 -0.20409,0.348993 -0.52034,0.624626 -1.18359,0.742188 l -0.0176,0.0039 -0.0176,0.0039 c -14.95409,3.20409 -30.9078,9.485855 -46.25586,18.347657 C 87.553536,105.5509 72.65137,118.20238 62.320312,130.97656 51.989255,143.75074 46.183729,156.65177 46.640625,167.64648 l 0.04102,1.00782 1.005859,-0.0703 c 0.405333,-0.0281 0.659208,-0.0879 0.808594,-0.0879 6.519574,0 11.785156,5.26203 11.785156,11.78125 0,6.51932 -5.264854,11.78321 -11.785156,11.78321 -6.518153,0 -11.783203,-5.26408 -11.783203,-11.78321 0,-4.45382 2.492592,-8.27072 6.140625,-10.27929 l 0.55664,-0.30664 -0.05273,-0.63086 C 42.409771,157.50537 48.029499,143.73496 58.679687,130.14258 69.329876,116.5502 84.96789,103.15142 103.82617,92.263672 119.48295,83.224559 135.78312,76.813071 151.0625,73.539062 l 0.0176,-0.0039 z m -23.58203,49.722653 c -0.67932,0.007 -1.36888,0.0838 -2.05665,0.23243 -5.50155,1.18986 -9.01349,6.63852 -7.82617,12.14062 1.19093,5.50213 6.63801,9.015 12.14063,7.82617 5.50308,-1.19089 9.01498,-6.63813 7.82617,-12.14062 -1.04294,-4.81392 -5.33127,-8.11059 -10.08398,-8.0586 z m 0.0215,1.96094 c 3.83591,-0.042 7.29942,2.60386 8.14648,6.51367 0.96393,4.46678 -1.85597,8.84165 -6.32422,9.8086 -4.46735,0.96516 -8.84348,-1.85636 -9.81054,-6.32422 -0.96393,-4.46689 1.85777,-8.84456 6.32422,-9.81055 0.55849,-0.12066 1.11644,-0.18151 1.66406,-0.1875 z m -62.843751,13.41797 c -2.705046,0.58759 -3.783972,3.99002 -1.912109,6.0293 10.593746,11.64105 24.326766,22.53624 39.98633,31.57617 18.39977,10.62341 37.36412,17.45963 54.33984,20.13672 16.72227,2.63711 31.51759,1.23968 41.96875,-4.70118 2.15694,1.42354 4.69038,2.34961 7.47656,2.34961 7.57875,0 13.74415,-6.16539 13.74414,-13.74414 0,-7.57874 -6.16574,-13.74218 -13.74414,-13.74218 -7.57839,0 -13.74414,6.16344 -13.74414,13.74218 0,2.06289 0.57073,3.95007 1.38672,5.68555 -8.98758,4.55814 -22.14862,5.59123 -37.33398,2.98438 -15.60475,-2.67885 -33.24886,-9.09981 -50.44727,-19.0293 -15.032729,-8.67909 -28.182901,-19.11991 -38.238279,-30.16992 -0.875376,-0.96838 -2.206942,-1.39502 -3.482422,-1.11719 z m 0.416016,1.91406 h 0.002 c 0.59223,-0.129 1.202921,0.0679 1.609375,0.51758 l 0.002,0.002 c 10.21435,11.22521 23.516627,21.77841 38.710934,30.55078 17.38396,10.03663 35.21943,16.53821 51.09571,19.26368 15.87627,2.72546 29.81018,1.70643 39.41406,-3.51368 l 0.875,-0.47461 -0.48828,-0.86718 c -0.97108,-1.72268 -1.56055,-3.6573 -1.56055,-5.7461 0,-6.51922 5.26363,-11.78125 11.7832,-11.78125 6.51958,0 11.78321,5.26203 11.78321,11.78125 0,6.51923 -5.26398,11.78321 -11.78321,11.78321 -2.58742,0 -4.9525,-0.85469 -6.90429,-2.27539 l -0.51953,-0.37891 -0.55469,0.32617 c -9.88065,5.82153 -24.47033,7.33708 -41.16016,4.70508 -16.68983,-2.632 -35.45617,-9.38663 -53.66601,-19.90039 -15.499479,-8.94752 -29.08357,-19.73107 -39.519534,-31.19922 l -0.002,-0.002 -0.002,-0.002 c -0.912989,-0.99464 -0.434604,-2.50247 0.884766,-2.78906 z m -16.613281,31.32227 c -4.633231,0 -8.410156,3.77888 -8.410157,8.41211 0,4.63322 3.776926,8.41015 8.410157,8.41015 h 0.02344 l 0.02148,-0.002 c 2.939302,-0.13381 5.567305,-1.8162 6.972656,-4.38672 0.04301,-0.0787 0.109741,-0.13839 0.15039,-0.21875 l -1.599609,-1.10351 c -1.131264,1.23917 -2.911239,2.00673 -4.814453,2.01757 -3.464137,-0.002 -6.118179,-2.3799 -6.117188,-5.15039 9.68e-4,-2.77035 2.656473,-5.14627 6.121094,-5.14648 1.249124,-4.8e-4 2.469819,0.32357 3.486328,0.91601 l 1.150391,-1.57421 c -0.05084,-0.0461 -0.120031,-0.0627 -0.171875,-0.10743 l 0.0078,-0.0117 c -0.0237,-0.0138 -0.05233,-0.0177 -0.07617,-0.0312 -1.44086,-1.21863 -3.229577,-1.957 -5.121094,-2.02148 l -0.01563,-0.002 z m 157.892576,0.36523 c -0.013,2.9e-4 -0.0241,0.009 -0.0371,0.01 -0.74291,-0.0906 -1.49521,-0.10849 -2.23633,0 l -0.1875,0.0273 -0.16406,0.0957 c -0.48442,0.28215 -0.93864,0.6117 -1.35742,0.98438 l 1.11133,1.59766 c 0.89098,-0.47301 1.89167,-0.73336 2.91406,-0.75586 l 0.12109,-1.94922 c -0.0544,-0.008 -0.10958,0.007 -0.16406,0 z m 0.5586,0 -0.0937,1.95899 c 6.3e-4,3e-5 0.001,-4e-5 0.002,0 0.94432,0.0471 1.86426,0.29665 2.6914,0.72851 5.6e-4,2.9e-4 0.001,-2.9e-4 0.002,0 l 0.9082,-1.73633 c -1.08611,-0.56881 -2.28313,-0.89379 -3.50781,-0.95117 -6.4e-4,-3e-5 -0.001,3e-5 -0.002,0 z m 5.46679,2.37305 L 211.03711,176 c 0.001,0.001 0.003,0.003 0.004,0.004 0.36081,0.35391 0.6731,0.74815 0.93164,1.17382 0.001,0.002 0.003,0.004 0.004,0.006 l 1.67188,-1.02343 c -0.001,-0.002 -0.003,-0.004 -0.004,-0.006 -0.34685,-0.56132 -0.75849,-1.07984 -1.22656,-1.54493 -0.001,-0.001 -0.003,-0.003 -0.004,-0.004 z m -11.84961,0.0977 c -0.001,0.001 -0.003,0.003 -0.004,0.004 -0.40604,0.41661 -0.76553,0.87344 -1.07032,1.36524 -0.001,0.002 -0.003,0.004 -0.004,0.006 l 1.66406,1.03711 c 0.001,-0.002 0.003,-0.004 0.004,-0.006 0.11535,-0.1865 0.27041,-0.34601 0.40625,-0.51953 0.13531,-0.17286 0.25381,-0.35921 0.40625,-0.51757 0.002,-0.002 0.002,-0.004 0.004,-0.006 z m 14.12305,4.57032 -1.89258,0.43359 c 0.0137,0.15325 0.0203,0.30716 0.0215,0.46094 -0.009,0.27644 -0.0374,0.55337 -0.0859,0.82617 l 1.87695,0.53125 c 0.12994,-0.32812 0.23845,-0.66403 0.32617,-1.00586 l 0.0645,-0.25195 -0.0684,-0.25196 c -0.0691,-0.2512 -0.15008,-0.49847 -0.24219,-0.74218 z m -16.29492,0.0879 c -0.0795,0.2135 -0.14902,0.42919 -0.21094,0.64844 l -0.0742,0.26171 0.0723,0.26172 c 0.07,0.257 0.15205,0.51056 0.24609,0.75977 l 1.88281,-0.5 c -0.0328,-0.20409 -0.052,-0.41106 -0.0625,-0.61719 0.009,-0.11283 0.0214,-0.2257 0.0371,-0.33789 z m 13.77148,3.40039 c -1.78062,3.20397 -5.53883,4.06427 -8.44531,2.64258 -0.0745,-0.0367 -0.16939,-0.025 -0.24219,-0.0645 -0.97341,-0.52624 -1.83823,-1.32231 -2.48047,-2.39257 l -1.69726,0.98242 c 0.005,0.009 0.0142,0.0159 0.0195,0.0254 l -0.004,0.002 c 0.0224,0.0373 0.0553,0.0609 0.0781,0.0977 1.4563,2.49908 4.17308,4.05373 7.13281,4.06836 h 0.004 0.006 c 3.07133,-0.0143 5.87604,-1.68339 7.28515,-4.33203 0.0163,-0.0285 0.0406,-0.0473 0.0566,-0.0762 l -0.002,-0.002 c 0.005,-0.0101 0.0144,-0.0172 0.0195,-0.0273 z M 90.9375,183.2207 c -2.749786,-0.51634 -5.073821,2.26189 -4.082031,4.87696 4.96e-4,0.001 -4.98e-4,0.003 0,0.004 4.486874,12.52128 10.404385,22.67666 17.335941,29.74414 6.93487,7.07087 14.93145,11.05469 23.42578,11.05469 12.38764,0 23.72392,-8.43989 32.44726,-22.94531 v -0.002 c 0.59974,-0.97404 0.71948,-2.05342 0.44141,-2.95703 -0.27823,-0.90412 -0.9031,-1.62132 -1.66602,-2.08007 -0.76292,-0.45876 -1.68815,-0.67427 -2.61718,-0.4961 -0.92904,0.17818 -1.82911,0.78992 -2.40821,1.77735 -7.64205,12.70697 -16.8829,19.4082 -26.19726,19.4082 -6.47472,0 -12.87007,-3.24258 -18.71875,-9.39258 -5.84517,-6.14629 -11.096755,-15.18324 -15.175784,-26.56641 -0.419489,-1.25171 -1.487741,-2.18192 -2.785156,-2.42578 z m -0.361328,1.92578 c 0.602515,0.11325 1.0923,0.54176 1.287109,1.12305 l 0.0039,0.01 0.002,0.008 c 4.148915,11.5851 9.504599,20.85611 15.609379,27.27539 6.10478,6.41928 13.00841,10.00195 20.13867,10.00195 10.25304,0 20.0361,-7.31502 27.88281,-20.36718 l 0.002,-0.004 0.004,-0.006 c 0.3303,-0.56319 0.69266,-0.76637 1.08594,-0.8418 0.39327,-0.0754 0.85001,0.0165 1.23828,0.25 0.38827,0.23347 0.683,0.59383 0.80078,0.97657 0.11778,0.38273 0.1082,0.79965 -0.23438,1.35546 l -0.002,0.004 -0.004,0.004 c -8.51181,14.15836 -19.27398,22.00586 -30.77343,22.00586 -7.88364,0 -15.35834,-3.67096 -22.02539,-10.46875 -6.667054,-6.7978 -12.480158,-16.71842 -16.896488,-29.04883 l -0.0039,-0.01 -0.0039,-0.01 c -0.486516,-1.27845 0.544278,-2.51026 1.888672,-2.25782 z"
         id="path3357" />
    </g>
  </g>
</svg>
