<svg version="1.1" viewBox="0 0 192 192" xmlns="http://www.w3.org/2000/svg">
 <title>Epic Games</title>
 <path d="M148,22.32H44c-8.42,0-11.53,3.1-11.53,11.53v101.7c0,.95,0,1.84.12,2.66.2,1.84.23,3.62,1.94,5.65.17.2,1.92,1.5,1.92,1.5.94.46,1.58.8,2.64,1.23L90.29,168c2.66,1.22,3.77,1.69,5.7,1.65h0c1.93,0,3-.43,5.7-1.65l51.17-21.44c1.06-.43,1.7-.77,2.64-1.23,0,0,1.75-1.3,1.92-1.5,1.71-2,1.74-3.81,1.94-5.65.08-.82.12-1.71.12-2.66V33.85c0-8.43-3.11-11.53-11.53-11.53" fill="#56595b" fill-rule="evenodd"/>
 <path d="m126.11 41.42c-7 0-10.439 3.4702-10.439 10.49v36.48c0 7 3.4494 10.5 10.439 10.5h4.2598c7 0 10.441-3.47 10.441-10.5v-13.15h-8.4805v12.76c0 2.26-1.0509 3.3105-3.2109 3.3105h-1.6094c-2.25 0-3.2988-1.0005-3.2988-3.3105v-35.689c0-2.26 1.0488-3.3105 3.2988-3.3105h1.4902c2.17 0 3.2207 1.0005 3.2207 3.3105v11.059h8.4297v-11.539c0-7-3.3713-10.41-10.361-10.41h-4.1797zm-74.869 0.48047v56.5h19.279v-7.8301h-10.689v-17.031h10.17v-7.8281h-10.17v-16h10.529v-7.8105h-19.119zm23.43 0v56.5h8.5898v-20.5h4.9004c7 0 10.439-3.4702 10.439-10.49v-15c0-7-3.4495-10.49-10.439-10.49v-0.019531h-13.49zm27.811 0v56.5h8.5996v-56.5h-8.5996zm-19.221 7.5898h3.541c2.16 0 3.209 1.0005 3.209 3.3105l-0.009766 14.199c0 2.26-1.0509 3.3105-3.2109 3.3105h-3.5293v-20.82zm-6.7891 62.57-0.089844 0.20898-0.091797 0.21094-0.099609 0.20898-0.070312 0.23047-0.089844 0.2207-0.089844 0.20899-0.099609 0.21094-0.089844 0.20898-0.089844 0.21094-0.099609 0.23047-0.089844 0.21875-0.070312 0.21093-0.089844 0.20899-0.099609 0.21094-0.091797 0.20898-0.089844 0.23047-0.099609 0.2207-0.089844 0.20899-0.089844 0.21093-0.070312 0.20899-0.09961 0.21094-0.089844 0.22851-0.089843 0.22071-0.09961 0.21093-0.089843 0.20899-0.091797 0.21093-0.09961 0.20899-0.070312 0.23047-0.089844 0.2207-0.089844 0.20899-0.099609 0.21093-0.089844 0.20899-0.089844 0.21093-0.099609 0.24024-0.089844 0.19922-0.070312 0.2207-0.089844 0.20899-0.10156 0.21093-0.089843 0.20899-0.089844 0.21093-0.099609 0.24024-0.089844 0.20898-0.089844 0.21094-0.080078 0.20899-0.089844 0.21093-0.089844 0.20899-0.099609 0.23047-0.089844 0.2207-0.091797 0.20898-0.099609 0.21094-0.089844 0.20899-0.070312 0.21093-0.089844 0.24024-0.099609 0.20898-0.089844 0.21094-0.089844 0.20898-0.099609 0.21094-0.089844 0.20899-0.089844 0.24023-0.070312 0.21094-0.099609 0.20898-0.091797 0.21094-0.089844 0.20898-0.099609 0.21094-0.089844 0.23828-0.089844 0.21094-0.099609 0.21094-0.070313 0.20898-0.089844 0.21094-0.089843 0.20898-0.09961 0.24024-0.089843 0.20898-0.091797 0.21094-0.09961 0.21094-0.089843 0.20898-0.070313 0.21094-0.089844 0.22852-0.099609 0.2207-0.089844 0.20898-0.089844 0.21094h4.709l0.10156-0.21094 0.06836-0.20898 0.091797-0.2207 0.089843-0.22852 0.06836-0.21094 0.10156-0.20898 0.089844-0.21094 0.070312-0.21094 0.089844-0.20898 0.099609-0.2207 0.070313-0.20899 0.089844-0.23047 0.089843-0.20898 0.070313-0.21094 0.099609-0.21094h6.6992l0.089844 0.21094 0.070312 0.21094 0.09961 0.20898 0.089843 0.23047 0.070313 0.20899 0.089844 0.2207 0.10156 0.20898 0.06836 0.21094 0.091797 0.21094 0.089843 0.20898 0.06836 0.21094 0.10156 0.22852 0.089844 0.2207 0.070312 0.20898 0.089844 0.21094h4.5801 0.22852l-0.089844-0.21094-0.089844-0.20898-0.089843-0.2207-0.080078-0.22852-0.089844-0.21094-0.089844-0.20898-0.099609-0.21094-0.089844-0.21094-0.089844-0.20898-0.10156-0.24024-0.089844-0.20898-0.068359-0.21094-0.091797-0.20898-0.09961-0.21094-0.089843-0.21094-0.089844-0.23828-0.09961-0.21094-0.089843-0.20898-0.089844-0.21094-0.070313-0.20898-0.099609-0.21094-0.089844-0.24023-0.089843-0.20899-0.10156-0.21094-0.089844-0.20898-0.089843-0.21094-0.09961-0.20898-0.070312-0.24024-0.089844-0.21093-0.089844-0.20899-0.099609-0.21094-0.089844-0.20898-0.10156-0.2207-0.089843-0.23047-0.089844-0.20899-0.070313-0.21093-0.089843-0.20899-0.09961-0.21094-0.089843-0.20898-0.09961-0.24024-0.089844-0.21093-0.089843-0.20899-0.09961-0.21093-0.060547-0.20899-0.099609-0.2207-0.089844-0.19922-0.091797-0.24024-0.099609-0.21093-0.089844-0.20899-0.099609-0.21093-0.089844-0.20899-0.070312-0.2207-0.089844-0.23047-0.099609-0.20899-0.089844-0.21093-0.089844-0.20899-0.10156-0.21093-0.089844-0.22071-0.089844-0.22851-0.070312-0.21094-0.09961-0.20899-0.089843-0.21093-0.089844-0.20899-0.09961-0.2207-0.089843-0.23047-0.089844-0.20898-0.099609-0.21094-0.070313-0.20899-0.089844-0.21093-0.089843-0.21875-0.10156-0.23047-0.089844-0.21094-0.089843-0.20898-0.09961-0.21094-0.089844-0.20899-0.070312-0.2207-0.089844-0.23047-0.099609-0.20898-0.089844-0.21094-0.10156-0.20898h-4.3184zm-18.352 0.05859-0.20898 0.07031h-0.23047l-0.20898 0.07032-0.21094 0.05078-0.20898 0.08984-0.23047 0.08008-0.18945 0.07031-0.23047 0.10938-0.21094 0.09961-0.20898 0.08984-0.21094 0.12109-0.20898 0.10938-0.21094 0.11914-0.18945 0.12109-0.18945 0.11914-0.18164 0.14063-0.18945 0.10937-0.18945 0.15039-0.16016 0.14063-0.18945 0.16015-0.16016 0.13868-0.33008 0.33008-0.14062 0.16015-0.16016 0.16992-0.13867 0.16016-0.14062 0.18945-0.14062 0.19141-0.13867 0.18945-0.12109 0.17969-0.11914 0.18945-0.11133 0.19141-0.11914 0.18945-0.12109 0.21094-0.089844 0.20898-0.089844 0.21094-0.099609 0.20899-0.089844 0.21093-0.089844 0.24024-0.070312 0.20898-0.080078 0.23047-0.060547 0.20899-0.048828 0.24023-0.070313 0.23047v0.20898 0.24024l-0.050781 0.23047v0.25976 0.23047 0.25977 0.25976 0.76953 0.23047 0.24024 0.23046 0.20899 0.24023 0.21094 0.24023l0.070312 0.20899v0.23047l0.070313 0.20898 0.050781 0.21094 0.089844 0.21094 0.070312 0.18945 0.089844 0.20899 0.099609 0.21093 0.089844 0.21875 0.089844 0.21094 0.070312 0.2207 0.11914 0.21875 0.11133 0.17969 0.11914 0.19141 0.14062 0.18945 0.11914 0.18945 0.14062 0.16016 0.14063 0.18945 0.13867 0.16016 0.16016 0.16992 0.16016 0.16016 0.16992 0.14062 0.16016 0.16992 0.16016 0.14063 0.16992 0.13867 0.17969 0.14063 0.18945 0.14062 0.19141 0.13867 0.17969 0.1211 0.18945 0.10937 0.21094 0.12109 0.18945 0.11915 0.20898 0.10937 0.21094 0.10156 0.20898 0.08985 0.21094 0.09961 0.23047 0.08984 0.20898 0.07031 0.21094 0.08985 0.20898 0.07031h0.24023l0.21094 0.07031h0.22852 0.21094 0.23047l0.24023 0.04883h0.22852 0.24023 0.23047 0.25977 0.23047 1 0.25977 0.23047 0.25976 0.23047 0.25977 0.23047l0.23828-0.04883h0.23047l0.21094-0.05078h0.24023l0.20898-0.07031 0.23047-0.07031 0.20898-0.07032 0.21094-0.06836 0.20898-0.07031 0.21094-0.09961 0.23047-0.08984 0.20898-0.10156 0.24024-0.08985 0.21094-0.11914 0.20898-0.08984 0.21094-0.1211 0.20898-0.10937 0.21094-0.11914 0.17969-0.1211 0.18945-0.11914 0.18945-0.14062 0.18164-0.10938 0.18945-0.14062 0.16992-0.11914 0.17969-0.14063 0.16992-0.14062v-7.6289h-7.709v3.4492h3.3887v2.1309l-0.18945 0.11914-0.16992 0.15039-0.21094 0.09961-0.18945 0.08984-0.20898 0.09961h-0.21094l-0.23047 0.07032h-0.24024-0.22852-0.23047-0.25977-0.25976-0.53125-0.25977-0.23047-0.23828-0.23047l-0.24023-0.07032-0.23047-0.07031-0.20898-0.09961-0.21094-0.08984-0.20898-0.09961-0.19141-0.10938-0.17969-0.12109-0.18945-0.13867-0.18945-0.14063-0.16016-0.14062-0.14062-0.16992-0.16016-0.16016-0.14062-0.16992-0.13867-0.17969-0.12109-0.18945-0.11914-0.19141-0.10938-0.20898-0.10156-0.21094-0.089844-0.23828-0.070312-0.18164-0.06836-0.20899v-0.2207-0.20899l-0.050781-0.21093v-0.23047-0.20899-0.24023-0.44922-0.23047-0.24023-0.25-0.2207l0.050781-0.22852 0.06836-0.23047 0.091797-0.21094 0.068359-0.21875 0.089844-0.21093 0.12109-0.17969 0.11914-0.2207 0.11133-0.17969 0.11914-0.16992 0.14062-0.18946 0.16016-0.16015 0.13867-0.16016 0.16992-0.14062 0.16016-0.13868 0.16016-0.15039 0.19141-0.10937 0.18945-0.1211 0.17969-0.11914 0.20898-0.08984 0.21094-0.10156 0.21094-0.06836 0.21875-0.07032h0.21094 0.22852 0.21094 0.23047 0.49023 0.25977 0.25976 0.23047 0.22852 0.24023 0.21094l0.20898 0.07032 0.21094 0.07812 0.17969 0.07032 0.18945 0.08984 0.19141 0.08984 0.20898 0.1211 0.17969 0.11914 0.18945 0.12109 0.19141 0.10938 0.18945 0.14062 0.17969 0.11914 0.18945 0.16016 0.19141 0.15039 0.13867-0.18946 0.16016-0.16992 0.14062-0.18164 0.16016-0.18945 0.14062-0.18945 0.13867-0.16016 0.16992-0.18945 0.14062-0.19141 0.16016-0.18945 0.14062-0.16016 0.13867-0.18945 0.16016-0.18946 0.14062-0.16015 0.14062-0.19141 0.16992-0.18945 0.13867-0.17969 0.16016-0.16992 0.14062-0.18945-0.17969-0.14063-0.19141-0.16015-0.18945-0.14063-0.18945-0.13867-0.17969-0.12109-0.19141-0.13868-0.20898-0.12109-0.18945-0.10938-0.21094-0.12109-0.17969-0.11914-0.029297-0.26953-0.21094-0.12109-0.20898-0.08985-0.21094-0.09961-0.20898-0.08984-0.21094-0.07031-0.18945-0.07032h-0.21094l-0.20898-0.07031h-0.21094-0.20898-0.21094-0.24024-0.22852-0.21094-0.25977-0.23047-0.23047-0.25977-0.25976-1-0.24024-0.23047-0.22852-0.23047-0.24023-0.23047-0.24023zm31.811 0.05078v17.029h4.4395v-10l0.14062 0.1914 0.12109 0.20899 0.13867 0.18945 0.11133 0.21094 0.13867 0.18945 0.12109 0.21094 0.13867 0.18945 0.12109 0.21094 0.13867 0.17969 0.11133 0.21875 0.13867 0.18164 0.12109 0.21875 0.14062 0.17969 0.11914 0.21093 0.14062 0.18946 0.10938 0.21093 0.15039 0.18946 0.12891 0.20898 0.12109 0.19141 0.14063 0.20898 0.11914 0.19141 0.14062 0.20898 0.10938 0.18946 0.15039 0.21093 0.10938 0.18946 0.14062 0.21093 0.11914 0.18946 0.14062 0.20898 0.11914 0.19141 0.14062 0.20898 0.10938 0.19141 0.14062 0.20898 0.11914 0.18946 0.14062 0.21093h0.089843l0.12109-0.18945 0.13867-0.21094 0.12109-0.18945 0.13867-0.18945 0.11133-0.21094 0.13867-0.18945 0.12109-0.17969 0.11914-0.2207 0.14062-0.17969 0.10938-0.19141 0.14062-0.18945 0.11914-0.20899 0.14063-0.1914 0.12109-0.18945 0.10937-0.20899 0.15039-0.1914 0.10938-0.17969 0.14062-0.21875 0.11915-0.18164 0.14062-0.18946 0.11914-0.20898 0.11133-0.19141 0.13867-0.18945 0.12109-0.21094 0.13868-0.18945 0.12109-0.18945 0.13867-0.17969 0.11133-0.2207 0.11914-0.17969 0.14063-0.18946 0.11914-0.21093 0.14062-0.18946 0.10938-0.18945 0.14062-0.21094 0.11914-0.18945v10.1h4.2715 0.24023v-17.08h-4.791l-0.11915 0.18946-0.11132 0.21093-0.13868 0.18946-0.12109 0.21093-0.11914 0.18946-0.11133 0.20898-0.13867 0.18164-0.12109 0.21875-0.11914 0.17969-0.10938 0.1914-0.14062 0.20899-0.1211 0.18945-0.11914 0.21094-0.11914 0.18945-0.13086 0.21094-0.11914 0.17969-0.12109 0.18945-0.11914 0.21094-0.11133 0.18945-0.13867 0.21094-0.1211 0.18945-0.11914 0.20899-0.10937 0.1914-0.14063 0.20899-0.12109 0.17969-0.11914 0.1914-0.10938 0.20899-0.14062 0.18945-0.11914 0.21094-0.12109 0.18945-0.10938 0.21094-0.14062 0.18945-0.11914 0.21094-0.12109 0.17968-0.10938-0.17968-0.12109-0.21094-0.13867-0.18945-0.12109-0.21094-0.10938-0.18945-0.11914-0.21094-0.12109-0.18945-0.14062-0.20899-0.10938-0.1914-0.11914-0.17969-0.12109-0.20899-0.10938-0.1914-0.15039-0.20899-0.10938-0.18945-0.12109-0.21094-0.10938-0.18945-0.11914-0.21094-0.14062-0.18945-0.12109-0.17969-0.11914-0.21094-0.10938-0.18945-0.14062-0.21094-0.11914-0.18945-0.12109-0.20899-0.10938-0.1914-0.12109-0.17969-0.13867-0.21875-0.12109-0.18164-0.10938-0.20898-0.11914-0.18946-0.12109-0.21093-0.14062-0.18946-0.10938-0.21093-0.11914-0.18946h-4.791zm21.32 0v17.08h13.381l0.22852-0.03906v-3.8711h-9.1602v-2.9102h8.1699v-3.6289h-8.1289v-2.8008h9v-3.8301h-13.49zm19.971 0.06055-0.21093 0.07031-0.23047 0.08984-0.24024 0.08008-0.20898 0.08985-0.21094 0.11914-0.20898 0.08984-0.21094 0.12109-0.18945 0.10938-0.17969 0.15039-0.18946 0.13867-0.16015 0.11133-0.19141 0.16992-0.1582 0.18946-0.16992 0.16015-0.16016 0.18946-0.14062 0.17968-0.14063 0.19141-0.11914 0.20898-0.11133 0.21094-0.09961 0.21875-0.08984 0.21094-0.08984 0.20898-0.04883 0.21094-0.07032 0.21094v0.20898 0.21094 0.23828 0.21094 0.23047 0.53906 0.25977 0.23046 0.24024 0.20898 0.24024l0.07032 0.18164 0.06836 0.20898 0.07031 0.18946 0.08984 0.16015 0.1211 0.2207 0.11914 0.17969 0.10937 0.16992 0.14063 0.16016 0.14062 0.16992 0.16992 0.16016 0.16016 0.16015 0.16016 0.15039 0.18945 0.10938 0.19922 0.15039 0.21094 0.11914 0.17968 0.12109 0.24024 0.10938 0.20898 0.11914 0.23047 0.10156 0.24024 0.08985 0.23046 0.08984 0.25977 0.09961 0.25 0.33008 0.21094 0.07031 0.20898 0.07031h0.23047l0.20899 0.06836 0.23046 0.07032h0.24024l0.23047 0.07031 0.22851 0.05078 0.26172 0.07031h0.22852l0.25976 0.06836h0.24024l0.23047 0.08008h0.21093l0.20899 0.07031 0.18945 0.05078h0.16016l0.28125 0.10938 0.22851 0.09961 0.21094 0.08984 0.18945 0.10156 0.19141 0.13868 0.1582 0.14062 0.1211 0.16016 0.08984 0.24023v0.2793 0.24023l-0.07031 0.21094-0.08985 0.18945-0.14062 0.16016-0.18945 0.13867-0.16016 0.10156-0.18945 0.06836h-0.21094-0.20899-0.23046-0.25977-0.51953-0.25-0.23047-0.24023-0.25977-0.23047-0.23047-0.23828l-0.21094-0.06836-0.23046-0.07031-0.22852-0.08008-0.21094-0.08984-0.20898-0.07031-0.21094-0.08985-0.21094-0.09961-0.20898-0.08984-0.18946-0.12109-0.21093-0.08985-0.18946-0.11914-0.21093-0.14062-0.18946-0.1211-0.20898-0.13867-0.18164-0.14062-0.20899-0.14063-0.18945-0.13867-0.14062 0.18945-0.16016 0.16016-0.14062 0.18945-0.16993 0.19141-0.13867 0.1582-0.14062 0.19141-0.16016 0.18945-0.16992 0.10938-0.16016 0.1914-0.14062 0.16016-0.16992 0.18945-0.13868 0.18945-0.14062 0.16016-0.16016 0.18945-0.14062 0.19141-0.16016 0.1582-0.13867 0.19141 0.17969 0.16015 0.16992 0.13868 0.17969 0.14062 0.18945 0.15039 0.1914 0.14063 0.17969 0.13867 0.18946 0.11133 0.18945 0.11914 0.21094 0.11914 0.17968 0.12109 0.21094 0.10938 0.20899 0.09961 0.21093 0.11132 0.20899 0.09961 0.21093 0.08985 0.24024 0.08984 0.20898 0.08008 0.23047 0.07031 0.20899 0.08985 0.24023 0.07031 0.23047 0.07031 0.21094 0.04883 0.22851 0.07031h0.24024l0.23047 0.05078h0.23046 0.24024 0.22852l0.23046 0.04883h0.25977 0.23047 0.24023 0.25 0.24024 1 0.22851 0.26172 0.22852 0.21093 0.24024 0.23047 0.20898 0.21094l0.22852-0.04883 0.21093-0.07031 0.24024-0.07031 0.22851-0.07031 0.23047-0.08985 0.24024-0.08984 0.21093-0.11914 0.20899-0.10156 0.21093-0.10938 0.18946-0.14062 0.17969-0.11915 0.18945-0.14062 0.16016-0.13867 0.1914-0.17188 0.29883-0.29883 0.14062-0.16015 0.11915-0.18946 0.14062-0.1914 0.11914-0.18945 0.11133-0.17969 0.09961-0.2207 0.08984-0.17969 0.08985-0.20899 0.07031-0.24023 0.05078-0.21094 0.06836-0.24023 0.05078-0.22852v-0.26172-0.22851l-0.11914-0.45117v-0.5586-0.26172-0.23828-0.23047-0.24023-0.21094l-0.07031-0.20898-0.07032-0.21094-0.08984-0.18945-0.12109-0.20899-0.11914-0.18164-0.14063-0.21875-0.13867-0.17969-0.16016-0.16992-0.16015-0.1914-0.19141-0.16016-0.18945-0.16016-0.17969-0.11914-0.18945-0.14062-0.19141-0.11914-0.20898-0.1211-0.21094-0.10937-0.22852-0.11914-0.23047-0.08985-0.24023-0.12109-0.25977-0.08984-0.21093-0.07032-0.20899-0.08007-0.23047-0.07032-0.20898-0.06836-0.23047-0.07031-0.24023-0.07031h-0.23047l-0.25977-0.07031-0.23047-0.07032h-0.25976l-0.25-0.07031-0.25977-0.06836-0.25976-0.07031h-0.23047l-0.20899-0.07031h-0.21093l-0.18946-0.07032h-0.18945l-0.28125-0.09961-0.25-0.08984-0.24023-0.09961-0.17969-0.11133-0.20899-0.11914-0.16992-0.16015-0.08984-0.15039-0.1211-0.25v-0.31055-0.23828l0.09961-0.21094 0.14063-0.21094 0.20898-0.18945 0.16016-0.08984 0.1914-0.09961h0.20899l0.23047-0.05078h0.25976 0.50977 0.21094 0.24023 0.22852 0.23047 0.24023 0.23047l0.23047 0.07031 0.23828 0.07031 0.25 0.07031 0.1914 0.09961 0.20899 0.07031 0.18945 0.08985 0.21094 0.09961 0.17969 0.08984 0.21093 0.08985 0.18946 0.12109 0.20898 0.09961 0.19141 0.14062 0.17969 0.10938 0.20898 0.11914 0.19141 0.14062 0.13867-0.18945 0.12109-0.17969 0.14063-0.1914 0.13867-0.18946 0.14062-0.20898 0.11915-0.19141 0.14062-0.18945 0.14062-0.17969 0.10938-0.18945 0.14062-0.19141 0.13868-0.18945 0.12109-0.17969 0.13867-0.2207 0.14063-0.17969 0.14062-0.18945 0.11914-0.19141 0.14063-0.18945-0.18946-0.13867-0.1914-0.14063-0.17969-0.14062-0.18945-0.11914-0.21094-0.14063-0.18945-0.10937-0.20899-0.1211-0.21093-0.11914-0.17969-0.08984-0.21094-0.12109-0.23828-0.08985-0.21094-0.09961-0.20898-0.08984-0.21094-0.07031-0.23047-0.08985h-0.20898l-0.21094-0.07031-0.24023-0.07031h-0.20899-0.23047-0.23047-0.20898-0.24024-0.25l-0.24023-0.04883h-0.25-0.28906-0.25-0.26172-1-0.22852-0.23047-0.24023-0.23047-0.20898-0.23047-0.21094-0.20898-0.18946zm-52.621 5.209 0.089844 0.21094 0.070313 0.20899 0.099609 0.24023 0.089844 0.21094 0.070312 0.20898 0.089844 0.21094 0.10156 0.24023 0.068359 0.20899 0.089844 0.21093 0.091797 0.20899 0.068359 0.21094 0.10156 0.24023 0.06836 0.20899 0.089843 0.21093 0.091797 0.20899 0.06836 0.2207 0.10156 0.23047 0.089844 0.20898 0.070313 0.21094 0.099609 0.20899 0.089844 0.24023 0.070312 0.25 0.099609 0.19922h-3.9395l0.089844-0.20899 0.068359-0.21093 0.091797-0.24024 0.09961-0.20898 0.058593-0.21094 0.10156-0.20898 0.089844-0.23047 0.099609-0.21875 0.070313-0.21094 0.089843-0.21094 0.089844-0.20898 0.070313-0.24024 0.099609-0.20898 0.089844-0.21094 0.070312-0.20898 0.089844-0.21094 0.089844-0.26953 0.089844-0.21094 0.070312-0.20898 0.089844-0.21094 0.099609-0.24023 0.070313-0.20899 0.089843-0.21094zm-7.0898 32.051 24.09 8.2793 25.121-8.2793h-49.211z" style="fill:#fff"/>
</svg>
