<svg width="192" height="192" version="1.1" viewBox="0 0 192 192" xmlns="http://www.w3.org/2000/svg">
 <path d="m96.486 9.3633c-1.7009-0.0047899-3.4029 0.4342-4.9277 1.3164l-66.035 38.186c2.8566 1.7503 26.329 16.13 43.951 26.703 9.3554 5.6132 17.012 9.9854 22.719 16.193 1.4601 1.5882 2.7508 3.3074 3.8672 5.1641 1.1164-1.8567 2.4071-3.5758 3.8672-5.1641 5.707-6.208 13.363-10.58 22.719-16.193 17.608-10.565 41.038-24.917 43.928-26.688l-65.168-38.174c-1.5198-0.89054-3.219-1.339-4.9199-1.3437zm-76.453 47.869c-0.008691 0.16872-0.033203 0.3338-0.033203 0.50391v76.129c0 3.5128 1.8706 6.7583 4.9062 8.5137l66.154 38.256v-63.635c0-9.1326-2.0438-13.919-6.2285-18.471-4.1847-4.5521-11.107-8.7499-20.502-14.387-17.852-10.711-41.812-25.388-44.297-26.91zm151.94 0.070312c-2.6465 1.6213-26.399 16.169-44.184 26.84-9.3946 5.6368-16.317 9.8346-20.502 14.387-4.1848 4.5521-6.2285 9.3381-6.2285 18.471v64.066c0.11407-0.0609 0.23352-0.10616 0.3457-0.17188l65.736-38.508c3.0086-1.7626 4.8574-4.9932 4.8574-8.4863v-76.201c0-0.13364-0.02001-0.26367-0.02539-0.39648z" style="clip-rule:evenodd;fill-rule:evenodd;fill:#98dc9a;stroke-width:.98179"/>
 <path d="m96.387 26.855c-1.3567-0.00382-2.7134 0.34515-3.9297 1.0488l-52.012 30.078c8.9711 5.4679 19.953 12.14 29.029 17.586 9.3554 5.6132 17.012 9.9854 22.719 16.193 1.4601 1.5882 2.7508 3.3074 3.8672 5.1641 1.1164-1.8567 2.4071-3.5758 3.8672-5.1641 5.707-6.208 13.363-10.58 22.719-16.193 9.0684-5.441 20.037-12.105 29.004-17.57l-51.338-30.07c-1.2123-0.71033-2.5691-1.0684-3.9258-1.0723zm-61.008 39.75v59.557c0 2.802 1.4927 5.3908 3.9141 6.791l51.768 29.938v-45.891c0-9.1326-2.0438-13.919-6.2285-18.471-4.1847-4.5521-11.107-8.7499-20.502-14.387-9.0675-5.4405-19.994-12.079-28.951-17.537zm121.24 0.074219c-8.9364 5.4456-19.801 12.045-28.83 17.463-9.3946 5.6368-16.317 9.8346-20.502 14.387-4.1848 4.5521-6.2285 9.3381-6.2285 18.471v46.236l51.686-30.275c2.3998-1.4059 3.875-3.9832 3.875-6.7695v-59.512z" style="clip-rule:evenodd;fill-rule:evenodd;fill:#71a372;stroke-width:.78311"/>
</svg>
