<?xml version="1.0" encoding="UTF-8"?>
<svg version="1.1" viewBox="0 0 192 192" xmlns="http://www.w3.org/2000/svg">
 <circle transform="matrix(1.3066 0 0 1.3066 -386.67 -174.72)" cx="369.42" cy="207.2" r="67.734" fill="#521737" stroke-width=".71868" style="fill:#ba6561"/>
 <g transform="matrix(1.3066 0 0 1.3066 -369.12 -196.77)">
  <g transform="matrix(.63874 0 0 .63874 119.22 93.041)" fill="#fff">
   <path d="m370.47 153.51c-1.9408 0-3.5026 1.6846-3.5026 3.777v54.445c0 2.0925 1.5618 3.777 3.5026 3.777s3.5026-1.6846 3.5026-3.777v-54.445c0-2.0924-1.5618-3.777-3.5026-3.777z" stroke-width=".62166" style="fill:#fff"/>
   <path d="m341.11 184.75a9.8353 9.8353 0 0 1-9.836 9.836 9.8353 9.8353 0 0 1 9.836 9.836 9.8353 9.8353 0 0 1 9.836-9.836 9.8353 9.8353 0 0 1-9.836-9.836z" fill="#fff" stroke-width=".63312" style="fill:#fff"/>
   <path d="m401.71 203.66a8.3455 8.3455 0 0 1-8.3461 8.3461 8.3455 8.3455 0 0 1 8.3461 8.3461 8.3455 8.3455 0 0 1 8.3461-8.3461 8.3455 8.3455 0 0 1-8.3461-8.3461z" fill="#fff" stroke-width=".53722" style="fill:#fff"/>
   <path d="m370.47 153.51v62c-1.9408 0-3.5026-1.6846-3.5026-3.777v-54.445c0-2.0924 1.5618-3.777 3.5026-3.777z" stroke-width=".62166" style="fill:#fff"/>
  </g>
  <path d="m355.86 191.1v39.602c1.2397 0 2.2373-1.076 2.2373-2.4125v-34.776c0-1.3365-0.99759-2.4125-2.2373-2.4125z" fill="#dfdfe0" stroke-width=".39707" style="fill:#fff"/>
  <path d="m355.86 226.81c-2.1539 0-10.622 0.6877-11.747 10.917l-2.1391 19.319h27.772l-2.1391-19.319c-1.1249-10.229-9.5932-10.917-11.747-10.917z" fill="#f8d057" stroke-width=".36673" style="fill:#f9de81"/>
  <path d="m344.11 237.73c1.1249-10.229 9.5932-10.917 11.747-10.917v30.235h-13.886z" fill="#f8d057" stroke-width=".36673" style="fill:#f9de81"/>
  <path d="m344.07 238.14 11.792-2e-5 1e-5 3.0228h-12.127z" fill="#e97043" stroke-width=".16694" style="fill:#f8c18c"/>
  <path d="m367.6 237.73c-1.1249-10.229-9.5932-10.917-11.747-10.917v30.235h13.886z" fill="#f2b55a" stroke-width=".36673" style="fill:#f9de81"/>
  <path d="m367.65 238.14h-11.792v3.0228h12.127z" fill="#a15439" stroke-width=".16694" style="fill:#f8c18c"/>
 </g>
</svg>
