<svg width="192" height="192" version="1.1" viewBox="0 0 192 192" xmlns="http://www.w3.org/2000/svg">
 <rect x="20" y="20" width="152" height="152" ry="10" style="fill:#9abeff;paint-order:stroke fill markers;stroke-width:4.6908"/>
 <path d="m20 145v17c0 5.54 4.46 10 10 10h132c5.54 0 10-4.46 10-10v-17h-152z" style="fill-opacity:.25;fill-rule:evenodd"/>
 <path d="m61.71 62.009c4.5221-4.3059 10.954-5.7603 17.022-5.9415 6.4172-0.0577 12.832-0.0228 19.249-0.02027 0.02533 6.7696 0.02758 13.542-0.0025 20.311-4.1472-0.0073-8.2971 0.01013-12.444-0.0073-2.6298-0.16381-5.3302 1.8295-5.8081 4.4365-0.06305 4.5297-0.0228 9.0619-0.02027 13.592 6.0825 0.02505 12.165-0.0076 18.247 0.0152-0.44528 6.5529-1.2582 13.076-2.2118 19.574-5.3727 0.0504-10.748-5e-3 -16.121 0.0279-0.04785 19.327 0.02505 38.654-0.03772 57.981-7.9802 0.0326-15.965-0.0152-23.945 0.0225-0.15115-19.33 0.01238-38.669-0.08303-58.001-3.8933-0.0405-7.7888 0.0279-11.682-0.0327 0.01492-6.4977 0.0051-12.995 0.0073-19.491 3.8905-0.04757 7.7837 0.01013 11.674-0.02758 0.11822-6.3167-0.1185-12.641 0.12328-18.952 0.39012-4.9983 2.2951-10.034 6.0321-13.487z" style="fill-rule:evenodd;fill:#fff"/>
</svg>
