<svg width="192" height="192" fill="none" version="1.1" viewBox="0 0 192 192" xmlns="http://www.w3.org/2000/svg">
 <rect x="10" y="34" width="174" height="126" rx="9" fill="#FF837D"/>
 <rect x="18" y="34" width="160" height="127" rx="9" fill="#fff"/>
 <path d="m30 30.863c0-5.9578 5.6845-10.272 11.422-8.6679l54.578 15.253v118.68l-54.518 15.641c-5.7515 1.65-11.482-2.667-11.482-8.651v-132.26z" clip-rule="evenodd" fill="#ECECEC" fill-rule="evenodd"/>
 <path d="m42 27.291c0-6.2449 6.2047-10.592 12.074-8.4587l41.926 15.236v126.27l-41.854 15.614c-5.8814 2.194-12.146-2.155-12.146-8.432v-140.23z" clip-rule="evenodd" fill="#fff" fill-rule="evenodd"/>
 <path d="m95 34v127.02h1v-127.02z" style="color-rendering:auto;color:#000000;dominant-baseline:auto;fill:#ececec;font-feature-settings:normal;font-variant-alternates:normal;font-variant-caps:normal;font-variant-ligatures:normal;font-variant-numeric:normal;font-variant-position:normal;image-rendering:auto;isolation:auto;mix-blend-mode:normal;shape-padding:0;shape-rendering:auto;solid-color:#000000;text-decoration-color:#000000;text-decoration-line:none;text-decoration-style:solid;text-indent:0;text-orientation:mixed;text-transform:none;white-space:normal"/>
 <path d="m53.182 36.811-0.74024 2.9082 1.4531 0.37109 34.473 8.7969 1.4551 0.37109 0.74023-2.9062-1.4531-0.37109-34.473-8.7988-1.4551-0.37109zm47.818 9.1895v3h1.5 65.008 1.5v-3h-1.5-65.008-1.5zm-47.914 3.8418-0.58398 2.9434 1.4707 0.29102 34.475 6.8438 1.4707 0.29102 0.58398-2.9414-1.4707-0.29297-34.475-6.8418-1.4707-0.29297zm47.914 7.1582v3h1.5 65.008 1.5v-3h-1.5-65.008-1.5zm-48.01 5.8789-0.41992 2.9707 1.4844 0.21094 34.475 4.8867 1.4844 0.21094 0.42188-2.9707-1.4863-0.20898-34.473-4.8887-1.4863-0.21094zm48.01 5.1211v3h1.5 65.008 1.5v-3h-1.5-65.008-1.5zm-48.102 7.9238-0.25586 2.9883 1.4961 0.12695 34.473 2.9336 1.4941 0.12695 0.25586-2.9902-1.4961-0.12695-34.473-2.9316-1.4941-0.12695zm48.102 3.0762v3h1.5 65.008 1.5v-3h-1.5-65.008-1.5zm-48.191 9.9727-0.085938 2.998 1.5 0.042969 34.475 0.97852 1.498 0.041015 0.085938-2.998-1.5-0.042968-34.473-0.97656-1.5-0.042969zm48.191 1.0273v3h1.5 65.008 1.5v-3h-1.5-65.008-1.5zm-10.805 10.967-1.498 0.04101-34.475 0.97852-1.5 0.04101 0.085938 3 1.498-0.04296 34.475-0.97657 1.5-0.04297-0.085938-2.998zm10.805 0.0332v3h1.5 65.008 1.5v-3h-1.5-65.008-1.5zm-10.895 10.9-1.4941 0.12695-34.473 2.9336-1.4961 0.12695 0.25586 2.9883 1.4941-0.12695 34.473-2.9336 1.4961-0.12695-0.25586-2.9883zm10.895 0.09961v3h1.5 65.008 1.5v-3h-1.5-65.008-1.5zm-10.986 10.842-1.4844 0.21093-34.475 4.8867-1.4844 0.21094 0.41992 2.9707 1.4863-0.21093 34.473-4.8887 1.4863-0.20898-0.42188-2.9707zm10.986 0.1582v3h1.5 65.008 1.5v-3h-1.5-65.008-1.5zm-11.082 10.789-1.4707 0.29102-34.475 6.8438-1.4707 0.29101 0.58398 2.9434 1.4707-0.29101 34.475-6.8438 1.4707-0.29297-0.58398-2.9414zm11.082 0.21094v3h1.5 65.008 1.5v-3h-1.5-65.008-1.5zm-11.178 10.742-1.4551 0.37109-34.473 8.7969-1.4531 0.37109 0.74024 2.9062 1.4551-0.36914 34.473-8.7988 1.4531-0.37109-0.74023-2.9062zm11.178 0.25781v3h1.5 65.008 1.5v-3h-1.5-65.008-1.5z" style="color-rendering:auto;color:#000000;dominant-baseline:auto;fill:#b1b5bd;font-feature-settings:normal;font-variant-alternates:normal;font-variant-caps:normal;font-variant-ligatures:normal;font-variant-numeric:normal;font-variant-position:normal;image-rendering:auto;isolation:auto;mix-blend-mode:normal;shape-padding:0;shape-rendering:auto;solid-color:#000000;text-decoration-color:#000000;text-decoration-line:none;text-decoration-style:solid;text-indent:0;text-orientation:mixed;text-transform:none;white-space:normal"/>
 <mask x="54" y="36" width="35" height="122" mask-type="alpha" maskUnits="userSpaceOnUse">
  <rect x="54" y="36" width="35" height="122" fill="#fff"/>
 </mask>
 <path d="m127 34h16v54l-8-5.4514-8 5.4514v-54z" clip-rule="evenodd" fill="#FF837D" fill-rule="evenodd"/>
</svg>
