<?xml version="1.0" encoding="UTF-8"?>
<svg version="1.1" viewBox="0 0 192 192" xmlns="http://www.w3.org/2000/svg"><rect x="60" y="8" width="72" height="112" ry="36" style="fill:#56595b"/><circle cx="96" cy="128" r="56" style="fill:#56595b"/><path d="m40 128c0-24 20-44 20-68h72c0 24 20 44 20 68z" style="fill:#56595b"/><circle cx="96" cy="132" r="40" style="fill:#fff"/><rect x="80" y="64" width="32" height="48" style="fill:#fff"/><path d="m56 132c0-24 24-44 24-52h32c0 8 24 28 24 52z" style="fill:#fff"/><path d="m78 64s2 20 18 20 18-20 18-20z" style="fill:#c39a54"/><ellipse cx="82" cy="52" rx="10" ry="12" style="fill:#fff"/><ellipse cx="110" cy="52" rx="10" ry="12" style="fill:#fff;paint-order:stroke fill markers;stroke-width:4"/><ellipse cx="84" cy="54" rx="4" ry="6" style="fill:#56595b"/><ellipse cx="108" cy="54" rx="4" ry="6" style="fill:#56595b"/><path d="m76 64c0 4 12 16 20 16s20-12 20-16-8-8-20-8-20 4-20 8z" style="fill:#f9de81"/><path d="m112 180s5.5037-77.579 16-118c2.7786-10.7 9.5117-13.532 16-12 5.8033 1.37 10.444 6.1522 8 16-8.8831 35.792-40 114-40 114z" style="fill:#d3b69a;stroke-linecap:round;stroke-linejoin:round;stroke-width:4;stroke:#d3b69a"/><path d="m108 112c.6381-4.7649 3.4393-10.48 8-12 12-4 28 4 28 4l-3.9731 24.863s-21.861.40581-28.027-4.8629c-3.2055-2.7391-4.5596-7.8209-4-12z" style="fill:#56595b"/><path d="m124 184c10.414 0 22.672-8.5676 31.767-15.982s15.6-5.9088 16.808-16.252c.77344-6.6216-5.892-9.6756-8-16-1.6866-5.0596.41212-11.468-3.7124-14.85-5.2576-4.3104-12.367 4.936-19.137 4.3144-7.15-.65648-12.863-4.2876-20.863-4.2876-6 0-4.8628 11.056-4.3092 30.234.54868 18.999-4.554 32.822 7.446 32.822z" style="fill:#f9de81"/><path d="m56 128c0 16 32 16 32 28 0 4.8072-12 12-12 12l-24-8s4-42.748 4-32z" style="fill:#56595b"/><path d="m68 184c-10.414 0-22.672-8.5676-31.767-15.982s-15.6-5.9088-16.808-16.252c-.77344-6.6216 5.892-9.6756 8-16 1.6866-5.0596-.41212-11.468 3.7124-14.85 5.2576-4.3104 12.367 4.936 19.137 4.3144 7.15-.65648 12.863-4.2876 20.863-4.2876 6 0 4.8628 11.056 4.3092 30.234-.54868 18.999 4.554 32.822-7.446 32.822z" style="fill:#f9de81"/><path d="m136 64c-6.2812-2.6017-6.1499-13.55-4-20 4-12 12-16 24-16 20 0 16 28 16 28s-12-8-12 0-15.117 11.679-24 8z" style="fill:#d8d8d8"/><path d="m156 28c-2.776 0-5.3279.22744-7.6758.70508-1.9151 1.6678-3.0022 4.34-4.0742 6.6777-1.0324 2.2512-3.855 5.7095-1.8691 7.1895 1.7074 1.2724 3.3619-2.9721 5.4648-3.3066 3.5486-.56445 9.3353-.95654 10.498 2.4434 1.1799 3.4501-7.4469 4.881-6.9023 8.4863.49051 3.2473 5.1563 4.2246 8.1973 5.4648.12178.04966.24768.08498.3711.12891.22076-7.63 11.99.21094 11.99.21094s4-28-16-28z" style="fill:#4a4a4a"/></svg>
