<svg width="192" height="192" version="1.1" viewBox="0 0 192 192" xmlns="http://www.w3.org/2000/svg">
 <path d="m24 60c4.2164 0 12 4 12 4l-4 56s-24-16-24-40c0-12 8-20 16-20z" style="fill:#c39a54"/>
 <path d="m168 60c-4.2164 0-12 4-12 4l4 56s24-16 24-40c0-12-8-20-16-20z" style="fill:#c39a54"/>
 <path d="m152 76s11.133-8 16-8c4 0 8 4 8 12 0 20-16 32-16 32z" style="fill:#f9de81"/>
 <path d="m40 76s-11.133-8-16-8c-4 0-8 4-8 12 0 20 16 32 16 32z" style="fill:#f9de81"/>
 <path d="m96 8s-80 12-68 92c3.7528 25.018 8 56 24 72 10.75 10.75 44 12 44 12s33.25-1.2503 44-12c16-16 20.247-46.982 24-72 12-80-68-92-68-92z" style="fill:#8e6f60"/>
 <path d="m80 56c-10 0-18 4.9854-23.5 11.979-5.5 6.9931-8.5 15.994-8.5 24.021 0 14 0 24 16 32 12.207 6.1033 32 8 32 8s19.793-1.8967 32-8c16-8 16-18 16-32 0-8.0277-3-17.028-8.5-24.021-5.5-6.9931-13.5-11.979-23.5-11.979-5.4975 0-16 4-16 4s-10.503-4-16-4z" style="fill:#f9de81"/>
 <path d="m96 104c-24 0-44 28-44 28h44 44s-20-28-44-28z" style="fill:#f8c18c"/>
 <path d="m78.57 129.24c-21.29 0.11479-26.57 2.7559-26.57 2.7559s-8 2.1712-8 8c0 2.431 4 6.0977 4 6.0977s0 25.902 48 25.902 48-25.902 48-25.902 4-3.6667 4-6.0977c0-5.8288-8-8-8-8s-8-3.9993-44-2.3672c-6.75-0.30603-12.517-0.41516-17.43-0.38867z" style="fill:#f9de81"/>
 <path d="m96 141.48s-29.109 0.58871-40 3.7832c2.3484 2.7388 3.252 3.0334 4 5.0449 4 10.756 36 11.275 36 11.275s32-0.51925 36-11.275c0.74803-2.0115 1.6516-2.3061 4-5.0449-10.891-3.1945-40-3.7832-40-3.7832z" style="fill:#c39a54"/>
 <path d="m96 141.48s-24.855 0.50682-37.217 3.1074c11.711 17.66 37.217 15.414 37.217 15.414s25.506 2.2455 37.217-15.414c-12.362-2.6006-37.217-3.1074-37.217-3.1074z" style="fill:#56595b;opacity:.5"/>
 <circle cx="120" cy="88" r="12" style="fill:#fcecdc;paint-order:stroke fill markers"/>
 <path d="m106.39 52.674c1.7921-2.1036 8.069-2.9048 12.167-2.374 11.09 1.4364 23.147 10.535 23.147 10.535l-4.5997-0.59351 5.6383 11.425s-11.639-12.06-19.141-15.283c-4.6336-1.9906-9.8675-2.5562-14.986-2.0773-0.91599 0.0857-2.8223-0.93184-2.2256-1.6321z" style="fill:#d3b69a"/>
 <path d="m96 141.48s-17.917 0.37179-30.895 2.0762l0.01758 0.90429s0.56319 1.6218 2.0234 2.3203c0.87303 0.41765 2.834 0.63086 2.834 0.63086s1.2339 1.4421 2.0977 1.6777c0.95426 0.26032 2.9375-0.41992 2.9375-0.41992 1e-5 0 1.722 1.1192 2.7402 1.2656 1.1714 0.16845 3.1348-0.63476 3.1348-0.63476 1e-5 0 2.3445 1.2674 3.7773 1.5352 2.0919 0.39091 5.6987-0.80078 5.6987-0.80078s3.3388 0.92969 5.6333 0.92969 5.7817-0.92969 5.7817-0.92969 3.4584 1.1917 5.5504 0.80078c1.4328-0.26775 3.7773-1.5352 3.7774-1.5352 0 0 1.9634 0.80321 3.1348 0.63476 1.0183-0.14643 2.7402-1.2656 2.7402-1.2656 0 0 1.9832 0.68024 2.9375 0.41992 0.86377-0.23564 2.0976-1.6777 2.0976-1.6777s1.961-0.21321 2.834-0.63086c1.4602-0.69857 2.0234-2.3203 2.0234-2.3203l0.0176-0.90429c-12.977-1.7044-30.895-2.0762-30.895-2.0762zm-29.592 6.6211c-0.79642 0.0592-1.4941 0.57422-1.4941 0.57422v2.6309c12.718 10.305 31.086 8.6953 31.086 8.6953s18.368 1.6101 31.086-8.6953v-2.6309s-0.69772-0.51501-1.4941-0.57422c-0.26548-0.0197-0.54115 0.0116-0.80664 0.12891-1.1521 0.50915-2.5215 2.375-2.5215 2.375s-1.6471-0.39202-2.4492-0.22266c-0.99599 0.2103-2.6699 1.4824-2.6699 1.4824s-1.8696-0.35413-2.8203-0.14844c-0.96576 0.20894-2.5957 1.3359-2.5957 1.3359s-2.0527-0.38451-3.6367-0.29687c-1.5454 0.0855-5.564 1.0391-5.564 1.0391s-3.9935-0.74219-6.5278-0.74219c-2.5342 0-6.3794 0.74219-6.3794 0.74219s-4.1671-0.95356-5.7124-1.0391c-1.584-0.0876-3.6367 0.29687-3.6367 0.29687s-1.6299-1.127-2.5957-1.3359c-0.95074-0.20569-2.8203 0.14844-2.8203 0.14844s-1.6739-1.2721-2.6699-1.4824c-0.80209-0.16936-2.4492 0.22266-2.4492 0.22266s-1.3694-1.8658-2.5215-2.375c-0.26549-0.11731-0.54116-0.14861-0.80664-0.12891z" style="fill:#fff"/>
 <circle transform="scale(-1,1)" cx="-72" cy="88" r="12" style="fill:#fcecdc;paint-order:stroke fill markers"/>
 <path d="m85.614 52.674c-1.7921-2.1036-8.069-2.9048-12.167-2.374-11.09 1.4364-23.147 10.535-23.147 10.535l4.5997-0.59351-5.6383 11.425s11.639-12.06 19.141-15.283c4.6336-1.9906 9.8675-2.5562 14.986-2.0773 0.91599 0.0857 2.8223-0.93184 2.2256-1.6321z" style="fill:#d3b69a"/>
 <circle cx="120" cy="88" r="4" style="fill:#56595b;paint-order:stroke fill markers"/>
 <circle cx="71.994" cy="88" r="5.5023" style="fill:#56595b;paint-order:stroke fill markers"/>
 <circle cx="73.352" cy="90.32" r="1.4745" style="fill:#fff;paint-order:stroke fill markers"/>
 <circle cx="118.58" cy="86.513" r="1.4745" style="fill:#fff;paint-order:stroke fill markers"/>
 <path d="m90.477 141.67c-2.6734 0.10077-5.7898 0.23009-9.6035 0.46484l0.017578 7.166c1e-5 0 2.3445 1.2674 3.7773 1.5352 2.0919 0.39091 5.6992-0.80078 5.6992-0.80078l0.10937-8.3652z" style="fill:#f9de81;opacity:.5"/>
</svg>
