<svg width="192" height="192" version="1.1" viewBox="0 0 192 192" xmlns="http://www.w3.org/2000/svg">
 <path d="m180.44 109.07c3.904-3.904 3.903-10.231 0-14.134l-77.378-77.379c-3.9037-3.9034-10.231-3.9028-14.134 0l-77.379 77.379c-3.9034 3.9034-3.9028 10.231 0 14.134 0 0 59.495 59.625 61.693 61.693 2.1983 2.068 3.7516 1.982 5.9997 1.982h16.744 16.744c4.338 0 6.066-2.032 6.066-2.032l61.643-61.643z" clip-rule="evenodd" fill="#98DC9A" fill-rule="evenodd"/>
 <path d="m95.266 52.502c-1.3016 0.0486-2.6069 0.5685-3.5794 1.6008l-44.595 47.04c-1.9486 2.057-1.8963 5.259 0.1497 7.2l3.8786 3.681 11.782-0.479 42.358-44.64c1.945-2.0571 1.747-5.2587-0.299-7.1999l-6.1154-5.76c-1.0248-0.9687-2.2778-1.4811-3.5794-1.44v-0.0037zm2.981 35.686c-1.3054 0.0486-2.5995 0.576-3.5794 1.6008l-28.336 29.6c-1.9561 2.046-1.8962 5.259 0.1497 7.2l3.8786 3.52 11.782-0.322 26.099-27.203c1.956-2.046 1.896-5.2585-0.15-7.1996l-6.264-5.76c-1.025-0.9687-2.2745-1.4736-3.5798-1.44v0.0038zm-2.8351 41.116c-1.2642 0-2.5957 0.58-3.5794 1.601l-5.9657 6.078c-1.9673 2.042-1.9075 5.442 0 7.518l3.4298 3.841 11.632 0.157 3.579-3.841c1.968-2.042 2.057-5.281 0.15-7.361l-5.8161-6.399c-0.9538-1.04-2.1656-1.429-3.4298-1.44v-0.154z" clip-rule="evenodd" fill="#fff" fill-rule="evenodd"/>
</svg>
