<svg width="192" height="192" version="1.1" viewBox="0 0 192 192" xmlns="http://www.w3.org/2000/svg">
 <circle cx="96" cy="96" r="88" style="fill-rule:evenodd;fill:#bd9aff"/>
 <path d="m82.929 64.323c-1.0645 0.0039-1.9504 0.27126-2.8436 0.77426-1.0576 0.59556-4.9847 4.3308-8.7289 8.2957-5.6913 6.0269-7.3551 7.4253-10.167 8.5722-4.4249 1.8047-8.1548 2.4832-11.217 1.5485-4.1575-1.2688-6.4054 0.85937-4.6179 4.6272 1.7043 3.5926 8.5222 6.8497 17.55 8.3878 12.533 2.1356 20.834 0.87288 29.643-6.3507 1.6888-1.3847 3.5562-2.5256 4.157-2.5256 0.60086 0 2.6529 1.2817 4.5534 2.8389 4.5137 3.6986 6.7145 4.1659 12.066 5.7701 3.8084 1.1418 5.2913 1.2721 10.646 0.93095 11.259-0.71727 18.791-3.1385 22.757-7.3186 1.3355-1.4065 1.8343-2.4866 1.8343-3.9497 0-2.9303-1.555-3.2033-5.5213-2.1661-2.4084 0.62982-3.7515 0.18557-6.1757-0.3687-5.9367-1.3592-8.6222-3.2235-15.54-10.789-5.3752-5.8759-7.5911-8.1455-10.517-8.2588-1.7553-0.06583-3.7648 0.64852-6.867 1.8343-3.29 1.2576-6.6743 2.8668-7.5214 2.8666-0.8471-2.17e-4 -3.4594-1.4116-5.7977-2.4242-3.6446-1.5782-5.9176-2.3019-7.692-2.2951z" style="fill:#fff;stroke-width:2.3596"/>
 <path d="m96 108c-3.4314-0.0118-10.17 0.51746-10.598 2.8066-0.69325 3.7098 7.296 25.286 10.598 25.193 3.3016 0.0927 11.291-21.484 10.598-25.193-0.42777-2.2892-7.1662-2.8184-10.598-2.8066z" style="fill:#fff"/>
</svg>
