<svg width="192" height="192" fill="none" version="1.1" viewBox="0 0 192 192" xmlns="http://www.w3.org/2000/svg" xmlns:xlink="http://www.w3.org/1999/xlink">
 <path d="m97.617 139.86c22.905 0 41.471-18.742 41.471-41.863 0-23.12-18.567-41.863-41.471-41.863-22.904 0-41.471 18.743-41.471 41.863 0 23.121 18.567 41.863 41.471 41.863z" style="clip-rule:evenodd;fill-rule:evenodd;fill:#bd9aff;stroke-width:1.021"/>
 <path d="m124 11c2.948 4.763 5.858 9.1787 8.73 13.247 5.568 7.8902 10.992 14.474 16.27 19.753 8 8 14 18 18 30-0.698-4.9377-1.698-9.6044-3-14s-2.969-8.729-5-13c2.684 1.2904 6.018 4.6237 10 10 3.172 4.2816 5.931 8.9587 8.28 14.032 3.655 9.4522 5.659 19.726 5.659 30.468 0 46.668-37.831 84.5-84.5 84.5-46.668 0-84.5-37.832-84.5-84.5 0-8.3552 1.2126-16.427 3.4715-24.05 3.934-9.6583 7.797-17.142 11.589-22.45 4.2443-5.942 9.9109-11.275 17-16 0.3787 4.3097 0.712 7.9763 1 11 0.2879 3.0237 0.9546 6.357 2 10 5.6949-5.6868 9.6949-9.3535 12-11s5.3051-3.3132 9-5c-1.3334 5-2 8.6667-2 11 0 2.181 0.2912 4.9446 0.8737 8.2906 0.0794 0.456 0.3145 0.8704 0.6653 1.1725 4.4364 3.8203 8.2567 7.3326 11.461 10.537 2.9694 2.9695 8.0551 5.6744 15.257 8.1148 1.0462 0.3545 1.6069 1.4899 1.2524 2.536-0.077 0.2272-0.1942 0.4387-0.3461 0.6244-1.2549 1.5343-2.3094 2.7759-3.1633 3.7248-1.0944 1.216-2.2594 2.3954-3.4949 3.5383-0.322 0.2979-0.733 0.4816-1.1697 0.523-8.0699 0.7638-14.182 2.0767-18.335 3.9387-6.4005 2.869-10 7-10 11 0 10 13 30 36 30 20 0 36-13 36-33 0-13.333-6.333-24-19-32 4.627-0.1365 6.627 0.1968 10 1s6.373 2.1365 9 4c-5-8-9.223-12.9-15-16s-13.444-5.7664-23-6c1.5602-11.318 4.5602-19.651 9-27 2.538-4.201 5.804-8.0703 9.798-11.608 2.992-2.6504 6.393-5.1145 10.202-7.3923z" clip-rule="evenodd" fill="#FF837D" fill-rule="evenodd"/>
 <path d="m14.166 95.26c-0.1503 2.0602-0.2268 4.141-0.2268 6.2396 0 46.668 37.832 84.5 84.5 84.5 46.668 0 84.5-37.832 84.5-84.5 0-10.742-2.004-21.016-5.659-30.468-2.349-5.0728-5.108-9.7499-8.28-14.032-3.982-5.3763-7.316-8.7096-10-10 2.031 4.271 3.698 8.6044 5 13s2.302 9.0623 3 14c0 0 9 24 3 45-10.437 36.528-43.177 53.934-74 53-66-2-82-71-82-71z" style="clip-rule:evenodd;fill-rule:evenodd;fill:url(#paint0_linear)"/>
 <path d="m46 39c-7.0891 4.7246-12.756 10.058-17 16-3.792 5.3087-7.6558 12.793-11.59 22.451-1.692 5.7094-2.7961 11.67-3.2441 17.814l-0.16602 5.7344s16 69 82 71c30.823 0.934 63.563-16.472 74-53 6-21-3-45-3-45s6 29-23 51c-18.621 14.126-38.021 15.048-49.555 13.906-1.6799-0.11072-3.3-0.3295-4.8633-0.64258-3.5202-0.60691-5.582-1.2637-5.582-1.2637l0.2168-0.24805c-14.968-5.4985-23.217-19.79-23.217-27.752 0-4 3.5995-8.131 10-11 4.1536-1.862 10.266-3.1757 18.336-3.9395 0.4367-0.0414 0.84792-0.22358 1.1699-0.52148 1.2355-1.1429 2.3997-2.3231 3.4941-3.5391 0.8539-0.9489 1.9092-2.1903 3.1641-3.7246 0.1519-0.1857 0.2687-0.3978 0.3457-0.625 0.3545-1.0461-0.20575-2.1807-1.252-2.5352-7.2019-2.4404-12.288-5.1457-15.258-8.1152-3.2043-3.2043-7.0245-6.7168-11.461-10.537-0.28379-0.24439-0.48844-0.56402-0.59961-0.91797-11.96-3.6658-19.939-3.5449-19.939-3.5449-1.0454-3.643-1.7121-6.9763-2-10-0.288-3.0237-0.6213-6.6903-1-11z" style="clip-rule:evenodd;fill-rule:evenodd;fill:url(#paint1_linear)"/>
 <path d="m70 44c-3.6949 1.6868-6.6949 3.3535-9 5s-6.3051 5.3132-12 11c0 0 13.406 0.89642 19.938 3.5312-0.024344-0.079409-0.050078-0.15768-0.064453-0.24023-0.5825-3.346-0.87305-6.11-0.87305-8.291 0-2.3333 0.6666-6 2-11z" style="clip-rule:evenodd;fill-rule:evenodd;fill:#f8c18c"/>
 <path d="m54 80c-9.5529-0.4065-19 6-19 6s5.6684 5.8958 9 8 10 4 10 4 0 5.002 6 20.002c2.3438 5.8594 8.3553 10.328 14.805 13.619-8.9713-6.7318-13.805-16.529-13.805-22.621 0-4 3.5995-8.131 10-11 4.1536-1.862 10.266-3.1757 18.336-3.9395 0.4367-0.0414 0.84792-0.22358 1.1699-0.52148 1.2355-1.1429 2.3997-2.3231 3.4941-3.5391 0.8539-0.9489 1.9092-2.1903 3.1641-3.7246 0.012506-0.015289 0.021172-0.033196 0.033204-0.048829-1.7515 0.48552-7.1874 1.7734-16.197 1.7734-11 0-17.447-7.5935-27-8zm41.848 58.969c0.012675 0.00258 0.15234 0.0332 0.15234 0.0332l0.001953-0.02929c-0.051471-0.00132-0.10293-0.00239-0.1543-0.00391z" style="clip-rule:evenodd;fill-rule:evenodd;fill:#f9de81"/>
 <path d="m124 11s-9.238 6.7918-13 24c-3.0107 13.772 0.88371 21.199 5.4551 27.221 0.52217 0.25772 1.0504 0.51398 1.5449 0.7793 5.777 3.0997 10 8 15 16 0 0 12 10 15 21s-1 24-1 24 17-18 20-30 0-20 0-20l-2.5078-6.6484c-3.8544-9.0933-9.0183-16.878-15.492-23.352-5.278-5.2783-10.702-11.862-16.27-19.752-2.872-4.0685-5.7825-8.485-8.7305-13.248z" style="clip-rule:evenodd;fill-rule:evenodd;fill:url(#paint2_linear)"/>
 <path d="m117.04 73.986c-0.89088-0.024601-1.8843-0.020453-3.041 0.013672 12.667 8 19 18.667 19 32 0 18.985-14.42 31.654-32.99 32.893-4e-5 3.7e-4 -0.00977 0.10742-0.00977 0.10742s11.871 2.7117 25-3c15.445-6.7191 23-14 23-14s3-15-1-25-14-18-14-18c-2.627-1.8635-5.627-3.1968-9-4-2.5298-0.6024-4.2864-0.93987-6.959-1.0137z" style="clip-rule:evenodd;fill-rule:evenodd;fill:url(#paint3_linear)"/>
 <path d="m116.12 62.043c-5.526-2.6746-12.567-4.8343-21.124-5.0434 1.5602-11.318 4.5602-19.651 9-27 2.538-4.201 5.804-8.0703 9.798-11.608 2.992-2.6504 6.393-5.1145 10.202-7.3923-6 5.3333-10.333 13.333-13 24-2.317 9.266-0.608 18.28 5.124 27.043z" style="clip-rule:evenodd;fill-rule:evenodd;fill:#f8c18c"/>
 <defs>
  <linearGradient id="paint0_linear" x1="107.31" x2="73.817" y1="54.681" y2="187.62" gradientUnits="userSpaceOnUse" xlink:href="#paint2_linear">
   <stop stop-color="#F9DE81" offset="0"/>
   <stop stop-color="#FF837D" stop-opacity=".01" offset=".6127"/>
   <stop stop-color="#8C72BD" offset="1"/>
  </linearGradient>
  <linearGradient id="paint1_linear" x1="63.424" x2="15.118" y1="53.166" y2="156.1" gradientUnits="userSpaceOnUse">
   <stop stop-color="#F9DE81" offset="0"/>
   <stop stop-color="#F9C28D" stop-opacity=".15046" offset="1"/>
  </linearGradient>
  <linearGradient id="paint2_linear" x1="139.49" x2="118.51" y1="58.263" y2="112.29" gradientUnits="userSpaceOnUse">
   <stop stop-color="#F9DE81" offset="0"/>
   <stop stop-color="#F9DE81" stop-opacity=".01" offset="1"/>
  </linearGradient>
  <linearGradient id="paint3_linear" x1="126.28" x2="112.59" y1="97.676" y2="127.61" gradientUnits="userSpaceOnUse">
   <stop stop-color="#F9DE81" offset="0"/>
   <stop stop-color="#F9DE81" stop-opacity=".01" offset="1"/>
  </linearGradient>
 </defs>
</svg>
