<svg width="192" height="192" version="1.1" viewBox="0 0 192 192" xmlns="http://www.w3.org/2000/svg">
 <path d="m24 33c-8.2235 0-15 6.7765-15 15v96c0 8.2235 6.7765 15 15 15h144c8.2235 0 15-6.7765 15-15v-96c0-8.2235-6.7765-15-15-15z" style="color-rendering:auto;color:#000000;dominant-baseline:auto;fill-rule:evenodd;fill:#b1b5bd;font-feature-settings:normal;font-variant-alternates:normal;font-variant-caps:normal;font-variant-ligatures:normal;font-variant-numeric:normal;font-variant-position:normal;image-rendering:auto;isolation:auto;mix-blend-mode:normal;shape-padding:0;shape-rendering:auto;solid-color:#000000;text-decoration-color:#000000;text-decoration-line:none;text-decoration-style:solid;text-indent:0;text-orientation:mixed;text-transform:none;white-space:normal"/>
 <path d="m24 43c-2.8565 0-5 2.1435-5 5v96c0 2.8565 2.1435 5 5 5h144c2.8565 0 5-2.1435 5-5v-96c0-2.8565-2.1435-5-5-5h-144z" style="fill-rule:evenodd;fill:#56595b"/>
 <path d="m73.244 80.314a4.4001 4.4001 0 0 1 2.5762 7.8987l-11.987 9.4076 11.975 9.3269a4.4001 4.4001 0 1 1-5.4067 6.9432l-16.416-12.785a4.4001 4.4001 0 0 1-0.01203-6.9328l16.416-12.883a4.4001 4.4001 0 0 1 2.8546-0.97617z" style="color-rendering:auto;color:#000000;dominant-baseline:auto;fill:#ff837d;font-feature-settings:normal;font-variant-alternates:normal;font-variant-caps:normal;font-variant-ligatures:normal;font-variant-numeric:normal;font-variant-position:normal;image-rendering:auto;isolation:auto;mix-blend-mode:normal;shape-padding:0;shape-rendering:auto;solid-color:#000000;text-decoration-color:#000000;text-decoration-line:none;text-decoration-style:solid;text-indent:0;text-orientation:mixed;text-transform:none;white-space:normal"/>
 <path d="m87.193 80.314a4.4001 4.4001 0 0 0-2.5762 7.8987l11.987 9.4076-11.975 9.3269a4.4001 4.4001 0 1 0 5.4067 6.9432l16.416-12.785a4.4001 4.4001 0 0 0 0.012-6.9328l-16.416-12.883a4.4001 4.4001 0 0 0-2.8546-0.97617z" style="color-rendering:auto;color:#000000;dominant-baseline:auto;fill:#f8c18c;font-feature-settings:normal;font-variant-alternates:normal;font-variant-caps:normal;font-variant-ligatures:normal;font-variant-numeric:normal;font-variant-position:normal;image-rendering:auto;isolation:auto;mix-blend-mode:normal;shape-padding:0;shape-rendering:auto;solid-color:#000000;text-decoration-color:#000000;text-decoration-line:none;text-decoration-style:solid;text-indent:0;text-orientation:mixed;text-transform:none;white-space:normal"/>
 <path d="m132.29 80.314a4.4001 4.4001 0 0 1 2.5762 7.8987l-11.987 9.4076 11.975 9.3269a4.4001 4.4001 0 1 1-5.4067 6.9432l-16.416-12.785a4.4001 4.4001 0 0 1-0.012-6.9328l16.416-12.883a4.4001 4.4001 0 0 1 2.8546-0.97617z" style="color-rendering:auto;color:#000000;dominant-baseline:auto;fill:#f9de81;font-feature-settings:normal;font-variant-alternates:normal;font-variant-caps:normal;font-variant-ligatures:normal;font-variant-numeric:normal;font-variant-position:normal;image-rendering:auto;isolation:auto;mix-blend-mode:normal;shape-padding:0;shape-rendering:auto;solid-color:#000000;text-decoration-color:#000000;text-decoration-line:none;text-decoration-style:solid;text-indent:0;text-orientation:mixed;text-transform:none;white-space:normal"/>
</svg>
