<svg width="192" height="192" version="1.1" viewBox="0 0 192 192" xmlns="http://www.w3.org/2000/svg">
 <g transform="translate(0 -860.36)">
  <path d="m59.38 870.22c-4.8378 8.0004-15.094 25.976-22.006 44.913-7.7819 21.319-10.454 39.391-4.0829 56.188 3.8262 10.087 15.74 27.004 26.218 39.303 9.7805 11.502 21.651 22.898 32.589 32.348 2.1421 1.8507 5.6626 1.8507 7.8047 0 10.938-9.4496 22.808-20.846 32.589-32.348 10.478-12.298 22.391-29.216 26.218-39.303 6.3711-16.796 3.699-34.868-4.0829-56.188-6.9126-18.938-17.169-36.913-22.007-44.913-1.4645-2.4218-4.0438-2.4789-5.6863-0.17334l-20.527 28.814s-2.3804-1.0861-10.406-1.0861c-8.0252 0-10.406 1.0861-10.406 1.0861l-20.527-28.814c-1.6425-2.3056-4.222-2.2482-5.6867 0.174z" style="fill:#fff"/>
  <path d="m143.44 968.48c-11.171 13.534-25.609 20.188-32.247 14.862-6.6385-5.3255-2.7294-20.898 8.4416-34.432s25.374-19.903 32.012-14.578c6.6384 5.3255-0.18157 24.425-8.207 34.147z" style="fill:#56595b;font-variation-settings:normal;stop-color:#000000"/>
  <path d="m49.105 968.48c11.171 13.534 25.609 20.188 32.247 14.862 6.6384-5.3255 2.7294-20.898-8.4416-34.432-11.171-13.534-25.374-19.903-32.012-14.578-6.6385 5.3255 0.18155 24.425 8.207 34.147z" style="fill:#56595b;font-variation-settings:normal;stop-color:#000000"/>
  <path d="m92.775 995.42c-0.40538 0.44403-15.82 18.15-15.82 18.15-1.1409 1.2919-1.0185 3.2641 0.27342 4.4051 1.2919 1.1409 3.2642 1.0185 4.4051-0.2734l14.372-16.273 14.372 16.273c1.1409 1.2919 3.1132 1.4143 4.4051 0.2734 1.292-1.141 1.4144-3.1132 0.27343-4.4051 0 0-15.35-17.675-15.82-18.15-0.46935-0.47434-1.2598-1.1067-3.308-1.1067-2.0482 0-2.7485 0.66265-3.1539 1.1067z" style="color-rendering:auto;color:#000000;dominant-baseline:auto;fill:#56595b;font-feature-settings:normal;font-variant-alternates:normal;font-variant-caps:normal;font-variant-east-asian:normal;font-variant-ligatures:normal;font-variant-numeric:normal;font-variant-position:normal;font-variation-settings:normal;image-rendering:auto;inline-size:0;isolation:auto;mix-blend-mode:normal;shape-margin:0;shape-padding:0;shape-rendering:auto;solid-color:#000000;stop-color:#000000;text-decoration-color:#000000;text-decoration-line:none;text-decoration-style:solid;text-indent:0;text-orientation:mixed;text-transform:none;white-space:normal"/>
 </g>
 <style type="text/css">.st0{fill:#FFFFFF;}</style>
 <style type="text/css">.st0{fill:#FFFFFF;}</style>
 <style type="text/css">.st0{fill:#FFFFFF;}</style>
</svg>
