<svg width="192" height="192" version="1.1" viewBox="0 0 192 192" xmlns="http://www.w3.org/2000/svg">
 <rect x="22" y="22" width="152" height="152" rx="10" style="fill-rule:evenodd;fill:#ff837d"/>
 <path d="m89.992 75c-4.4119 0-7.9922 3.5748-7.9922 7.9902v31.775c0 0.89539 0.1157 1.7627 0.43359 2.6563 0.64568 1.8152 1.9925 3.4076 4.2402 4.082 2.2544 0.67643 4.2627 0.0831 5.8027-1.0859 0.75769-0.57516 1.3305-1.2401 1.8223-1.9922l6.2129-9.502h4.4551c4.0191 0 7.5416-2.9809 8.209-6.9453l0.70117-4.1621c0.33656-1.9992-0.20525-4.0215-0.92195-5.1864 1.1308-1.0607 1.9978-3.042 2.2306-4.4347l0.70312-4.2148c0.79362-4.7498-2.7752-8.9805-7.6016-8.9805zm0 6.1445h18.295c1.0245 0 1.7093 0.81725 1.541 1.8242l-0.70312 4.2148c-0.16903 1.0116-1.1306 1.8223-2.1484 1.8223h-6.7168c-1.6618 0-3.0157 1.3303-3.0625 2.9863 0.04757 1.6607 1.3982 2.9844 3.0664 2.9844h6.0176c1.0207 0 1.7043 0.81353 1.5352 1.8184l-0.70118 4.1641c-0.16945 1.0065-1.1302 1.8184-2.1484 1.8184h-5.9356c-1.0234 0-2.2951 0.69286-2.8535 1.5469l-7.0215 10.738c-0.5626 0.86045-1.0117 0.72176-1.0117-0.29688v-31.775c0-1.02 0.82799-1.8457 1.8477-1.8457zm7.2051 10.848c-8.58e-4 -0.02994-0.0098-0.05774-0.0098-0.08789v0.17383c0-0.02947 0.0089-0.05667 0.0098-0.08594z" style="fill:#fff"/>
</svg>
