<svg width="192" height="192" version="1.1" viewBox="0 0 192 192" xmlns="http://www.w3.org/2000/svg">
 <circle cx="96" cy="96" r="88" style="fill-rule:evenodd;fill:#9abeff;stroke-opacity:.94118;stroke:#9abeff"/>
 <path d="m49.717 61.148c-0.44835-0.05344-0.93673 0.24652-1.5125 0.80666-0.94179 0.9163-1.1511 3.3142-1.452 16.456-0.19411 8.4609-0.25503 15.599-0.13113 15.866 0.69685 1.5034 8.6302-1.2787 11.439-4.0131l1.4016-1.3713-1.7293-2.8636c-1.1226-1.8621-2.4007-6.0222-3.6501-11.863-2.026-9.4672-3.0209-12.858-4.366-13.017zm91.767 0c-1.3451 0.15976-2.3401 3.5502-4.366 13.017-1.2494 5.8407-2.5276 10.001-3.6501 11.863l-1.7293 2.8636 1.4015 1.3713c2.8092 2.7344 10.743 5.5165 11.439 4.0131 0.12416-0.26711 0.063-7.4051-0.13113-15.866-0.30093-13.142-0.5102-15.54-1.452-16.456-0.57574-0.56014-1.0641-0.86009-1.5125-0.80666zm-60.893 18.064c-1.1645 0.0043-2.1336 0.29674-3.1107 0.84699-1.1569 0.6515-5.4529 4.7376-9.5488 9.0749-6.2259 6.593-8.046 8.1228-11.122 9.3774-4.8406 1.9742-8.9208 2.7165-12.271 1.694-4.548-1.388-7.0071 0.94009-5.0517 5.0618 1.8644 3.9301 9.3227 7.4931 19.198 9.1757 13.71 2.3362 22.791 0.95487 32.428-6.9473 1.8474-1.5148 3.8903-2.7628 4.5475-2.7628 0.6573 0 2.9021 1.4021 4.9811 3.1056 4.9377 4.046 7.3452 4.5572 13.199 6.3121 4.1661 1.249 5.7883 1.3916 11.646 1.0184 12.317-0.78465 20.556-3.4333 24.895-8.0061 1.461-1.5386 2.0066-2.7202 2.0066-4.3207 0-3.2056-1.7011-3.5042-6.0399-2.3696-2.6346 0.68899-4.1039 0.203-6.7558-0.40332-6.4944-1.4869-9.4321-3.5263-17-11.802-5.8801-6.4278-8.3042-8.9106-11.505-9.0346-1.9202-0.07202-4.1185 0.70944-7.512 2.0066-3.599 1.3757-7.3012 3.1361-8.2279 3.1359-0.92667-2.38e-4 -3.7843-1.5442-6.3423-2.6519-3.987-1.7264-6.4735-2.5181-8.4145-2.5107zm-30.804 41.301c-0.34112-0.0103-0.55322 8e-3 -0.59995 0.0604-0.18714 0.21295 0.16417 2.2049 0.7764 4.4164 1.3411 4.8444 4.213 8.5955 7.633 9.9723 3.4036 1.3701 12.466 1.3877 14.772 0.0302 1.843-1.0841 2.5813-3.3505 2.5813-7.9657 0-4.5481-0.143-4.6433-7.1742-4.6433-3.5192-5e-3 -9.0677-0.49014-12.327-1.089-2.4447-0.453-4.6383-0.75095-5.6617-0.78143zm91.46 0.0103c-0.23206 0.0233-0.53012 0.0896-0.90748 0.19153-4.5875 1.239-9.3509 1.915-16.274 2.309l-7.5725 0.43358-0.18147 4.5878c-0.16804 4.1274-0.0292 4.748 1.3915 6.2768 1.4628 1.5741 2.0032 1.7017 7.4414 1.6738 6.1106-0.031 9.7508-0.98428 11.999-3.1359 1.6575-1.5847 4.9206-8.8842 4.9206-11.006 3.1e-4 -1.0542-0.12055-1.3977-0.81675-1.331z" style="fill:#fff;stroke-width:2.5813"/>
</svg>
