<svg width="192" height="192" version="1.1" viewBox="0 0 192 192" xmlns="http://www.w3.org/2000/svg">
 <circle cx="96" cy="96" r="88" style="fill-rule:evenodd;fill:#9abeff"/>
 <path d="m54.076 64.164c-0.40985-0.04885-0.8563 0.22535-1.3826 0.73739-0.86092 0.83762-1.0523 3.0296-1.3273 15.043-0.17744 7.7344-0.23313 14.26-0.11987 14.504 0.63701 1.3743 7.8891-1.1689 10.457-3.6685l1.2812-1.2535-1.5808-2.6177c-1.0262-1.7022-2.1946-5.5051-3.3367-10.844-1.852-8.6543-2.7615-11.754-3.9911-11.899zm83.887 0c-1.2296 0.14604-2.1392 3.2454-3.9911 11.899-1.1421 5.3392-2.3106 9.1422-3.3367 10.844l-1.5808 2.6177 1.2812 1.2536c2.568 2.4996 9.8205 5.0428 10.457 3.6685 0.1135-0.24417 0.0576-6.7692-0.11987-14.504-0.27509-12.014-0.46639-14.206-1.3273-15.043-0.52631-0.51204-0.97273-0.78624-1.3826-0.73739zm-55.664 16.513c-1.0645 0.0039-1.9504 0.27126-2.8436 0.77426-1.0576 0.59556-4.9847 4.3308-8.7289 8.2957-5.6913 6.0269-7.3551 7.4253-10.167 8.5722-4.4249 1.8047-8.1548 2.4832-11.217 1.5485-4.1575-1.2688-6.4054 0.85937-4.6179 4.6272 1.7043 3.5926 8.5222 6.8497 17.55 8.3878 12.533 2.1356 20.834 0.87288 29.643-6.3507 1.6888-1.3847 3.5562-2.5256 4.157-2.5256 0.60086 0 2.6529 1.2817 4.5534 2.8389 4.5137 3.6986 6.7145 4.1659 12.066 5.7701 3.8084 1.1418 5.2913 1.2721 10.646 0.93095 11.259-0.71727 18.791-3.1385 22.757-7.3186 1.3355-1.4065 1.8343-2.4866 1.8343-3.9497 0-2.9303-1.555-3.2033-5.5213-2.1661-2.4084 0.62982-3.7515 0.18557-6.1757-0.3687-5.9367-1.3592-8.6222-3.2235-15.54-10.789-5.3752-5.8759-7.5911-8.1455-10.517-8.2588-1.7553-0.06583-3.7648 0.64852-6.867 1.8343-3.29 1.2576-6.6743 2.8668-7.5214 2.8666-0.8471-2.17e-4 -3.4594-1.4116-5.7977-2.4242-3.6446-1.5782-5.9176-2.3019-7.692-2.2951zm-28.159 37.755c-0.31183-9e-3 -0.50572 7e-3 -0.54843 0.0552-0.17107 0.19466 0.15007 2.0156 0.70973 4.0372 1.2259 4.4284 3.8512 7.8574 6.9776 9.116 3.1113 1.2524 11.396 1.2685 13.504 0.0276 1.6847-0.99102 2.3596-3.0628 2.3596-7.2817 0-4.1576-0.13072-4.2446-6.5582-4.2446-3.217-4e-3 -8.2891-0.44806-11.269-0.99549-2.2348-0.41411-4.24-0.68647-5.1755-0.71434zm83.607 9e-3c-0.21214 0.0213-0.4846 0.0819-0.82955 0.17508-4.1936 1.1326-8.548 1.7506-14.877 2.1107l-6.9223 0.39636-0.16589 4.1938c-0.15361 3.773-0.0267 4.3403 1.272 5.7378 1.3372 1.4389 1.8312 1.5556 6.8024 1.5301 5.5859-0.0283 8.9135-0.89976 10.969-2.8666 1.5152-1.4486 4.4981-8.1213 4.4981-10.061 2.8e-4 -0.96368-0.1102-1.2777-0.74662-1.2167z" style="fill:#fff;stroke-width:2.3596"/>
</svg>
