<svg width="192" height="192" version="1.1" viewBox="0 0 192 192" xmlns="http://www.w3.org/2000/svg">
 <circle cx="96" cy="96" r="88" opacity=".63" style="fill:#54688c;opacity:1"/>
 <path d="m93.377 53.297s-22.919 14.082-25.391 29.379c-2.1038 13.023 3.1484 18.465 3.1484 18.465s-10.471 10.666-10.072 21.404c0.28948 7.7922 5.422 13.551 11.332 13.639 7.928 0.11796 15.545-5.8441 15.736-17.836 0.13827-8.6521-8.1836-24.342-8.1836-24.342s26.321-30.671 37.352-29.377c4.9518 0.58106 7.9758 3.6232 8.3926 12.381 0.47698 10.021-9.8364 30.151-20.354 33.154-3.7144 1.0606-9.7552-2.2245-9.8613-6.0859-0.053846-1.959 3.02-2.5969 4.8262-3.3574 2.7593-1.1619 3.1856-3.3792 2.9375-5.2461-0.25419-1.9127-2.2924-3.874-4.1973-3.5664-4.5411 0.73327-7.1036 6.8024-6.5039 12.17 0.75135 6.7249 7.47 8.9865 12.59 8.8125 12.416-0.42195 30.87-19.578 30.426-35.041-0.21863-7.6142-4.7719-16.205-15.947-16.369-14.486-0.21219-41.758 29.588-41.758 29.588s-2.0274-2.7476-1.4688-9.8613c1.2267-15.622 18.676-25.182 18.676-25.182l-1.6797-2.7285zm-21.508 50.887s8.2211 12.354 8.3926 19.934c0.08985 3.9708-0.22413 9.2584-7.6582 9.1289-4.4728-0.0779-8.7938-5.3318-8.8125-10.387-0.03365-9.0821 8.0781-18.676 8.0781-18.676z" style="fill:#fff"/>
</svg>
