<svg width="192" height="192" version="1.1" viewBox="0 0 192 192" xmlns="http://www.w3.org/2000/svg">
 <path d="m46.275 45.676s11.247 23.193 37.558 22.538c55.138-1.3833 64.807-30.146 66.191-34.296 1.3833-4.1499 3.5-3.5213 3.9893 0.31405 17.983 163.23-124.8 93.195-129.87 65.393 28.358-8.2999 21.441-24.208 21.441-24.208z" style="color:#000000;fill-rule:evenodd;fill:#979797"/>
 <path d="m67.26 114.53c26.367 5.2736 39.794 0.38379 47.652-5.6841-2.075-2.6802-5.6197-5.6197-5.6197-5.6197s9.2076 2.5586 12.45 6.7437c3.233 4.1731 1.2004 6.7442 0.35432 12.084-1.8836-4.6896-5.3993-6.4483-5.8753-8.3117-7.0672 9.7695-24.675 9.3637-48.961 0.7883z" style="color:#000000;fill-rule:evenodd;fill:#4a4a4a"/>
 <path d="m74.979 80.604a15.908 15.908 0 1 1-31.816 0 15.908 15.908 0 1 1 31.816 0z" style="color:#000000;fill-rule:evenodd;fill:#f9f9f9"/>
 <path d="m43.289 86.598a23.862 16.946 54.192 1 1-27.485 19.829 23.862 16.946 54.192 1 1 27.485-19.829z" style="color:#000000;fill-rule:evenodd;fill:#4a4a4a"/>
 <path d="m70.45 82.961a7.6595 7.6595 0 1 1-15.319 0 7.6595 7.6595 0 1 1 15.319 0z" style="color:#000000;fill-rule:evenodd;fill:#4a4a4a;stroke-miterlimit:10;stroke-width:3.9126;stroke:#4a4a4a"/>
 <path d="m28.509 87.867a6.9166 8.2999 0 1 1-13.833 0 6.9166 8.2999 0 1 1 13.833 0z" style="color:#000000;fill-rule:evenodd;fill:#fff"/>
 <path d="m65.147 79.426a5.3027 5.3027 0 1 1-10.605 0 5.3027 5.3027 0 1 1 10.605 0z" style="color:#000000;fill-rule:evenodd;fill:#f9f9f9"/>
 <path d="m110.6 82.333a18.675 18.675 0 1 1-37.35 0 18.675 18.675 0 1 1 37.35 0z" style="color:#000000;fill-rule:evenodd;fill:#f9f9f9"/>
 <path d="m105.28 85.1a8.9916 8.9916 0 1 1-17.983 0 8.9916 8.9916 0 1 1 17.983 0z" style="color:#000000;fill-rule:evenodd;fill:#4a4a4a;stroke-miterlimit:10;stroke-width:3.9126;stroke:#4a4a4a"/>
 <path d="m99.058 80.95a6.2249 6.2249 0 1 1-12.45 0 6.2249 6.2249 0 1 1 12.45 0z" style="color:#000000;fill-rule:evenodd;fill:#f9f9f9"/>
 <path d="m148.83 138.11 3.6246-7.2183c-13.484-9.865-38.341-17.043-38.341-17.043-4.3086-2.007-5.6684 1.8637-2.6849 4.3799 0 0 21.258 15.239 37.401 19.881z" style="color:#000000;fill:#d3b69a"/>
 <path d="m166.12 144.76 1.9404-4.2955-15.054-9.6442-1.2003-0.1024-0.51897-1.6614c-2.1868 1.3695-5.3646 6.4567-4.5221 9.3168l1.6259-0.61496 0.88076 0.85122z" style="color:#000000;fill:#d8d8d8"/>
 <path d="m156.6 135.9 9.757 5.0054" style="color:#000000;fill:none;stroke-linecap:round;stroke-linejoin:round;stroke-width:1.613;stroke:#fff"/>
 <path d="m188 163c-4.6932-15.931-6.3578-28.58-18.623-27.455-9.8838 0.90707-10.576 15.069-0.36231 18.977 9.8388 3.7646 18.985 8.4778 18.985 8.4778z" style="color:#000000;fill:#4a4a4a"/>
 <path d="m170.35 137.63a3.2818 3.2818 0 1 1 1.8548 6.2962 3.2818 3.2818 0 1 1-1.8548-6.2962z" style="color:#000000;fill:#d8d8d8;opacity:.52778;stroke-width:.79764"/>
 <path d="m152.58 132.35a1.3492 1.3492 0 1 1 0.76254 2.5884 1.3492 1.3492 0 1 1-0.76254-2.5884z" style="color:#000000;fill:#fff"/>
 <path d="m182.11 153.47s-1.5285-5.7191-4.9024-8.6956c-1.1937-1.0531 0.31034-2.6042 1.4368-1.2419 2.433 2.9426 3.4657 9.9375 3.4657 9.9375z" style="color:#000000;fill:#d8d8d8;opacity:.42778"/>
</svg>
