<svg width="192" height="192" version="1.1" viewBox="0 0 192 192" xmlns="http://www.w3.org/2000/svg">
 <circle cx="96" cy="96" r="88" opacity=".63" style="fill:#56595b;opacity:1"/>
 <path d="m96 52.011c-7.1877-0.08666-25.295 21.231-25.875 34.108-0.06403 1.4216 0.75347 3.2675 2.1042 3.7153 4.613 1.529 6.935 13.245 6.935 13.245s-3.6772 1.9162-3.5908 6.315c0.09466 4.8186 4.704 6.1906 4.704 6.1906v18.201s-26.112-12.592-27.238-38.134c-1.0926-24.786 14.891-35.436 22.78-39.99 0.75059-0.43324 0.57181-1.9485 0-2.5998-0.63158-0.7193-2.0333-0.87621-2.8464-0.37106-10.599 6.5846-24.746 16.836-24.142 42.59 0.8403 35.839 36.028 44.323 36.028 44.323v-20.551c1.6416 0.94193 4.4551 1.4866 4.4551 1.4866l0.12446 24.264s-41.772-5.2833-45.065-49.522c-0.51067-6.8615 2.5038-16.29 3.713-20.305 0.25747-0.85486-0.61944-2.007-1.4843-2.2287-1.0371-0.26586-2.4611 0.48857-2.8487 1.4866-1.9619 5.0517-4.1523 14.053-3.4664 21.171 5.3387 55.396 53.362 53.855 53.362 53.855 0 0 0.25105-28.393 0-28.475 1.2178 0.3485 2.3508 0.3411 2.3508 0.3411s1.1331 7e-3 2.3509-0.3411c-0.25105 0.0827 0 28.475 0 28.475s48.023 1.5409 53.362-53.855c0.68597-7.118-1.5044-16.12-3.4664-21.171-0.38759-0.99799-1.8116-1.7524-2.8487-1.4866-0.86482 0.2217-1.7417 1.3738-1.4843 2.2287 1.2092 4.0147 4.2236 13.443 3.713 20.305-3.2925 44.239-45.065 49.522-45.065 49.522l0.12446-24.264s2.8135-0.54463 4.4551-1.4866v20.551s35.188-8.4838 36.028-44.323c0.60382-25.754-13.544-36.005-24.142-42.59-0.81309-0.50515-2.2148-0.34824-2.8464 0.37106-0.57181 0.65124-0.75058 2.1665 0 2.5998 7.8895 4.5538 23.873 15.204 22.78 39.99-1.126 25.542-27.238 38.134-27.238 38.134v-18.201s4.6094-1.372 4.704-6.1906c0.0864-4.3989-3.5908-6.315-3.5908-6.315s2.322-11.716 6.935-13.245c1.3508-0.44773 2.1683-2.2937 2.1042-3.7153-0.58001-12.877-18.188-34.015-25.875-34.108zm-13.557 52.309c2.6322 2e-4 4.766 2.134 4.7662 4.7662-1.96e-4 2.6322-2.134 4.766-4.7662 4.7662-2.6322-1.8e-4 -4.766-2.134-4.7662-4.7662 1.9e-4 -2.6322 2.134-4.766 4.7662-4.7662zm27.113 0c2.6322 1.9e-4 4.766 2.134 4.7662 4.7662-1.9e-4 2.6322-2.134 4.766-4.7662 4.7662-2.6322-2e-4 -4.766-2.134-4.7662-4.7662 1.9e-4 -2.6322 2.134-4.766 4.7662-4.7662z" style="fill:#73ada4;stroke-width:1.18"/>
</svg>
