<svg width="192" height="192" version="1.1" viewBox="0 0 192 192" xmlns="http://www.w3.org/2000/svg">
 <rect x="32" y="20" width="128" height="164" ry="12" style="fill:#d3b69a;paint-order:stroke fill markers"/>
 <rect x="44" y="32" width="104" height="140" style="fill:#fff;paint-order:stroke fill markers"/>
 <rect x="68" y="16" width="56" height="20" ry="4" style="fill:#b1b5bd;paint-order:stroke fill markers"/>
 <rect x="76" y="8" width="40" height="20" ry="4" style="fill:#b1b5bd;paint-order:stroke fill markers"/>
 <circle cx="96" cy="16" r="4" style="fill:#83868c;paint-order:stroke fill markers"/>
 <rect x="96" y="58" width="40" height="4" style="fill:#d8d8d8;paint-order:stroke fill markers;stroke-width:3.6515"/>
 <path d="m78.545 48.899c-0.29388 0-0.5878 0.1124-0.81194 0.3364l-10.837 10.837-5.01-5.01c-0.44848-0.44832-1.1754-0.44832-1.6239 0l-4.1769 4.1769c-0.4483 0.44848-0.4483 1.1756 0 1.6239l9.9964 9.9964c0.44848 0.44844 1.1762 0.44844 1.6245 0l15.826-15.826c0.44848-0.44848 0.44848-1.1754 0-1.6239l-4.1745-4.1745c-0.2242-0.2244-0.51802-0.3364-0.81194-0.3364z" style="fill:#56595b;stroke-width:.22316"/>
 <rect x="96" y="102" width="24" height="4" style="fill:#d8d8d8;paint-order:stroke fill markers;stroke-width:2.8284"/>
 <path d="m78.545 92.899c-0.29388 0-0.5878 0.1124-0.81194 0.3364l-10.837 10.837-5.01-5.01c-0.44848-0.44832-1.1754-0.44832-1.6239 0l-4.1769 4.1769c-0.4483 0.44848-0.4483 1.1756 0 1.6239l9.9964 9.9964c0.44848 0.44844 1.1762 0.44844 1.6245 0l15.826-15.826c0.44848-0.44848 0.44848-1.1754 0-1.6239l-4.1745-4.1745c-0.2242-0.2244-0.51802-0.3364-0.81194-0.3364z" style="fill:#56595b;stroke-width:.22316"/>
 <rect x="96" y="146" width="40" height="4" style="fill:#d8d8d8;paint-order:stroke fill markers;stroke-width:3.6515"/>
 <path d="m78.545 136.9c-0.29388 0-0.5878 0.1124-0.81194 0.3364l-10.837 10.837-5.01-5.01c-0.44848-0.44832-1.1754-0.44832-1.6239 0l-4.1769 4.1769c-0.4483 0.44848-0.4483 1.1756 0 1.6239l9.9964 9.9964c0.44848 0.44844 1.1762 0.44844 1.6245 0l15.826-15.826c0.44848-0.44848 0.44848-1.1754 0-1.6239l-4.1745-4.1745c-0.2242-0.2244-0.51802-0.3364-0.81194-0.3364z" style="fill:#56595b;stroke-width:.22316"/>
</svg>
