<svg width="192" height="192" version="1.1" viewBox="0 0 192 192" xmlns="http://www.w3.org/2000/svg">
 <rect x="19.5" y="19.5" width="153" height="153" rx="10" style="fill-rule:evenodd;fill:#728cba;stroke:#728cba"/>
 <path d="m88.578 146.9c-2.0088 2.0095-5.2677 2.0095-7.2773 0l-44.794-44.793c-2.0088-2.0088-2.0088-5.2677 0-7.2773l18.715-18.715c2.0096-2.0088 5.2677-2.0088 7.2773 0l44.793 44.794c2.0096 2.0088 2.0096 5.267 0 7.2766z" style="fill:#ccc"/>
 <path d="m88.578 146.9c-2.0088 2.0095-5.2677 2.0095-7.2773 0l-18.706-18.706c-2.0096-2.0088-2.0096-5.2677 0-7.2766l70.915-70.915c2.0088-2.0096 5.2677-2.0096 7.2766 0l18.706 18.706c2.0096 2.0096 2.0096 5.2677 0 7.2773z" style="fill:#fff;stroke-width:.78696"/>
</svg>
