<svg width="192" height="192" version="1.1" viewBox="0 0 192 192" xmlns="http://www.w3.org/2000/svg">
 <rect x="20" y="20" width="152" height="152" rx="10" style="fill-rule:evenodd;fill:#fcecdc"/>
 <path d="m20 29.998c0-5.5215 4.4708-9.9976 9.9981-9.9976h97.717c5.5218 0 9.9981 4.473 9.9981 9.9976v20.714c0 5.5215-4.4708 9.9976-9.9981 9.9976h-97.717c-5.5218 0-9.9981-4.473-9.9981-9.9976z" style="fill-rule:evenodd;fill:#98dc9a"/>
 <path d="m91.714 29.998c0-5.5215 4.4741-9.9976 10.006-9.9976h60.274c5.5262 0 10.006 4.473 10.006 9.9976v20.714c0 5.5215-4.4741 9.9976-10.006 9.9976h-60.274c-5.5262 0-10.006-4.473-10.006-9.9976z" style="fill-rule:evenodd;fill:#ffd6d4"/>
 <path d="m172.53 148.97h-74.999c-17.585 0-31.84-14.255-31.84-31.84 0-17.585-14.255-31.84-31.84-31.84h-13.747" style="fill:none;stroke-width:21;stroke:#f9de81"/>
 <path d="m109.46 120.01v51.988h-19.464v-98.536c0-4.4183-3.5817-8-8-8h-62v-19.464h62c4.4183 0 8-3.5817 8-8v-18h19.464v18c0 4.4183 3.5817 8 8 8h54.536v19.464h-54.536c-4.4183 0-8 3.5817-8 8v11.031c0 4.1644 3.1948 7.6323 7.3453 7.9732l55.191 4.532v19.464l-53.882-4.4245c-4.4035-0.3616-8.2663 2.915-8.6279 7.3184-0.0179 0.21778-0.0268 0.43621-0.0268 0.65472z" style="fill-rule:evenodd;fill:#fff"/>
 <path d="m106.46 64v32h-13.464v-24.536c0-4.9706-4.0294-9-9-9h-64v-13.464h71.464c8.2843 0 15 6.7157 15 15z" style="fill-rule:evenodd;fill:#9abeff"/>
 <circle cx="100" cy="100" r="20" style="fill:#fcecdc;paint-order:stroke fill markers;stroke-width:1.4127"/>
 <path d="m100 83c-9.4066 0-17 7.5934-17 17 0 9.4066 7.5934 17 17 17 9.4066 0 17-7.5934 17-17 0-9.4066-7.5934-17-17-17z" style="fill-rule:evenodd;fill:#9abeff"/>
 <path d="m93 109 7-18 7 18-7-5z" style="fill-rule:evenodd;fill:#fff"/>
</svg>
