<svg width="192" height="192" version="1.1" viewBox="0 0 192 192" xmlns="http://www.w3.org/2000/svg">
 <rect x="32" y="32" width="127.5" height="152" ry="10" style="fill:#d3b69a;paint-order:stroke fill markers;stroke-width:4"/>
 <path d="m96 8a16 16 0 0 0-15.469 12h-28.531c-4.432 0-8 3.568-8 8v4c0 4.432 3.568 8 8 8h88c4.432 0 8-3.568 8-8v-4c0-4.432-3.568-8-8-8h-28.523a16 16 0 0 0-15.477-12zm0 8c4.432 0 8 3.568 8 8s-3.568 8-8 8-8-3.568-8-8 3.568-8 8-8z" style="fill:#b1b5bd;paint-order:stroke fill markers;stroke-width:4"/>
 <rect x="44" y="32" width="104" height="8" style="fill:#b1b5bd;paint-order:stroke fill markers;stroke-width:4"/>
 <rect x="44" y="36" width="104" height="8" style="fill:#83868c;paint-order:stroke fill markers;stroke-width:5.6569"/>
 <rect x="44" y="44" width="104" height="128" style="fill:#fff;paint-order:stroke fill markers;stroke-width:4"/>
 <rect x="96" y="62" width="40" height="4" style="fill:#d8d8d8;paint-order:stroke fill markers;stroke-width:3.6515"/>
 <path d="m78.545 52.899c-0.29388 0-0.5878 0.1124-0.81194 0.3364l-10.837 10.837-5.01-5.01c-0.44848-0.44832-1.1754-0.44832-1.6239 0l-4.1769 4.1769c-0.4483 0.44848-0.4483 1.1756 0 1.6239l9.9964 9.9964c0.44848 0.44844 1.1762 0.44844 1.6245 0l15.826-15.826c0.44848-0.44848 0.44848-1.1754 0-1.6239l-4.1745-4.1745c-0.2242-0.2244-0.51802-0.3364-0.81194-0.3364z" style="fill:#56595b;stroke-width:.22316"/>
 <rect x="96" y="106" width="24" height="4" style="fill:#d8d8d8;paint-order:stroke fill markers;stroke-width:2.8284"/>
 <path d="m78.545 96.899c-0.29388 0-0.5878 0.1124-0.81194 0.3364l-10.837 10.837-5.01-5.01c-0.44848-0.44832-1.1754-0.44832-1.6239 0l-4.1769 4.1769c-0.4483 0.44848-0.4483 1.1756 0 1.6239l9.9964 9.9964c0.44848 0.44844 1.1762 0.44844 1.6245 0l15.826-15.826c0.44848-0.44848 0.44848-1.1754 0-1.6239l-4.1745-4.1745c-0.2242-0.2244-0.51802-0.3364-0.81194-0.3364z" style="fill:#56595b;stroke-width:.22316"/>
 <rect x="96" y="150" width="40" height="4" style="fill:#d8d8d8;paint-order:stroke fill markers;stroke-width:3.6515"/>
 <path d="m78.545 140.9c-0.29388 0-0.5878 0.1124-0.81194 0.3364l-10.837 10.837-5.01-5.01c-0.44848-0.44832-1.1754-0.44832-1.6239 0l-4.1769 4.1769c-0.4483 0.44848-0.4483 1.1756 0 1.6239l9.9964 9.9964c0.44848 0.44844 1.1762 0.44844 1.6245 0l15.826-15.826c0.44848-0.44848 0.44848-1.1754 0-1.6239l-4.1745-4.1745c-0.2242-0.2244-0.51802-0.3364-0.81194-0.3364z" style="fill:#56595b;stroke-width:.22316"/>
</svg>
