<svg width="192" height="192" version="1.1" viewBox="0 0 192 192" xmlns="http://www.w3.org/2000/svg" xmlns:xlink="http://www.w3.org/1999/xlink">
 <defs>
  <linearGradient id="linearGradient842" x1="108" x2="108" y1="8" y2="184" gradientUnits="userSpaceOnUse">
   <stop style="stop-color:#8c72bd" offset="0"/>
   <stop style="stop-color:#9abeff" offset="1"/>
  </linearGradient>
 </defs>
 <path d="m20 108c-1.1976 40.843 31.474 76.395 76 76 55.148-0.48867 70.478-40.658 70.611-55.371 0.0856-9.4985-8.1396-20.405-19.305-20.984-8.6221-0.44717-19.436 6.6892-19.41 16.997 0.0186 7.4195 5.2954 14.16 15.843 14.689 4.9437 0.24767 10.531-5.3396 10.702-9.4427 0.17414-4.1931-1.9438-9.603-7.5541-10.072-2.7068-0.22635-6.0609 2.0052-6.0853 4.7213-0.0108 1.2033 1.111 1.8721 2.3082 1.9934 1.3708 0.13894 1.9062-1.7617 3.7771-1.6787 1.2128 0.0538 2.3719 1.3436 2.4131 2.7279 0.11085 3.7193-2.9955 5.7646-5.7705 5.6656-3.9542-0.14104-8.6822-4.4473-8.3935-8.3935 0.56235-7.6859 6.6821-9.6979 11.751-9.6525 4.9615 0.0444 10.753 3.9327 11.331 9.6525 1.203 11.898-3.2891 20.167-18.466 30.636-15.941 10.997-38.439 10.077-58.754 3.3574-16.984-5.6174-21.006-17.882-22.243-25.18-0.56478-3.3331 0.97986-8.1934 4.1967-9.2328 3.2196-1.0403 6.7446 2.3586 8.8132 5.0361 5.7139 7.3959 10.384 21.284 16.787 22.243 10.392 1.5561 14.487-1.2813 14.663-5.8754 0.0999-2.6002-1.5701-6.224-4.1713-6.2951-1.3669-0.0374-3.6556 4.4716-7.1345 4.1967-1.775-0.14023-3.7087-1.9978-3.7771-3.7771-0.09899-2.5776 5.1294-3.2514 5.0361-5.8754-0.04688-1.3189-2.0384-2.1415-3.3574-2.0984-4.6264 0.15133-5.2669 6.4322-6.0238 6.2209-1.3134-0.36666-1.1475-2.7295-1.5303-6.6406-0.55186-5.6382-2.6201-11.809-5.9496-15.354-4.0236-4.2838-12.042-4.8761-12.885-12.544-0.89627-8.1581 9.524-19.618 10.935-19.474 1.1972 0.12167 4.6617-0.71024 3.2827 1.2081-4.0613 5.6498-11.072 14.254-10.64 17.675 0.24249 1.9232 5.2504 7.3165 8.9615 9.1841 6.8215 3.4329 22.662 3.3574 22.662 3.3574s0.9154 6.8668 4.3451 5.3583c3.7988-1.6709-1.9914-6.4602 0.22256-8.1709 5.7664-4.4556 7.905 5.7103 13.008-0.34767 3.5763-4.2458-3.4487-8.4523-7.5032-8.5906-7.0766-0.24135-11.751 4.6164-11.751 4.6164s-15.788-3.0543-16.613-5.1845c-0.40656-1.0495 9.059-14.121 9.059-14.121l32.315 13.01 51.62-11.331-0.83935-2.518s-27.3-0.73885-46.164-3.3574c-1.5492-0.21504-2.713-0.17624-3.1476-1.6787-0.88957-3.0756 19.422-4.2211 36.302-4.1967 1.2441-7.4311 0.83935-12.59 0.83935-12.59s10.907-11.289 2.9377-24.761c-6.42-10.853-11.606-9.0799-18.046-12.59-20.811-22.257-51.2-20.984-51.2-20.984s-1.7262 8.0659-3.3574 19.305c-0.32954 2.2706-2.4046 6.944-4.6164 7.5541-10.672 2.9438-64.173 9.5226-66.033 72.958z" style="fill:url(#linearGradient842)"/>
 <circle cx="106.44" cy="55.252" r="22.794" style="fill:#fff;paint-order:stroke fill markers;stroke-width:1.014"/>
 <path d="m152.98 40.359s1.7152 2.024 3.1159 5.9351c0.67142 1.8747 1.4838 5.9351 1.4838 5.9351s5.913-2.3356 3.4127-8.6059c-2.1294-5.3399-8.0124-3.2643-8.0124-3.2643z" style="fill:#fff"/>
 <circle cx="101.94" cy="52.674" r="8.9026" style="fill:#8c72bd;paint-order:stroke fill markers"/>
</svg>
