<?xml version="1.0" encoding="UTF-8"?>
<svg version="1.1" viewBox="0 0 192 192" xmlns="http://www.w3.org/2000/svg" xmlns:xlink="http://www.w3.org/1999/xlink"><defs><style>.a{fill:none;stroke:#b1b5bd;stroke-linecap:round;stroke-linejoin:round;isolation:isolate;opacity:0.63;}</style><linearGradient id="linearGradient864" x1="56" x2="56" y1="132" y2="56" gradientUnits="userSpaceOnUse"><stop style="stop-color:#728dbe" offset="0"/><stop style="stop-color:#bd9aff" offset="1"/></linearGradient><linearGradient id="linearGradient872" x1="92" x2="156" y1="164" y2="108" gradientUnits="userSpaceOnUse"><stop style="stop-color:#bd9aff" offset="0"/><stop style="stop-color:#8c72bd" offset="1"/></linearGradient><linearGradient id="linearGradient894" x1="64" x2="136" y1="64" y2="64" gradientUnits="userSpaceOnUse"><stop style="stop-color:#54688c" offset="0"/><stop style="stop-color:#9abeff" offset="1"/></linearGradient></defs><path d="m124.29 73.707v26.395c0 6.8252-4.441 12.888-9.8164 17.734l42.656 35.961c2.6103-1.6805 5.1876-3.412 7.7109-5.2266 12.877-9.2602 11.158-28.57 11.158-28.57l-6.3594-24.697z" style="fill:url(#linearGradient872)"/><path d="m64.305 80.426 20.635-11.997s11.544-6.3572 22.555 0c17.664 10.198 38.79 21.175 51.927 32.368 15.244 12.989 16.578 19.203 16.578 19.203s-.23994-34.392-.23994-51.588c0-22.617-12.358-25.657-12.358-25.657s-36.396-21.149-54.988-31.883c-11.02-6.3626-24.913-.02911-24.913-.02911s-16.249 9.6506-22.075 14.877c-13.594 12.193 2.8793 54.707 2.8793 54.707z" style="fill:url(#linearGradient894)"/><path d="m32.872 152.41 23.754 9.8377 41.75-30.233-13.917-8.638s-10.765-4.3645-16.532-13.706c-5.2466-8.4978-3.8632-21.806-3.8632-21.806s.23994-30.553.23994-48.949c0-18.475 19.196-28.073 19.196-28.073s-36.134 20.986-54.227 31.433c-14.277 8.2428-13.197 26.154-13.197 26.154s-.23994 37.591-.23994 56.387c0 19.572 17.036 27.594 17.036 27.594z" style="fill:url(#linearGradient864)"/><path d="m119.55 112.41c-8.1159 10.597-23.811 17.441-23.811 17.441s-25.574 14.914-38.393 22.314c-10.514 6.0703-24.473.24024-24.473.24024l47.748 27.113s15.334 9.0177 30.953 0c17.785-10.268 36.595-18.964 53.268-30.953.53912-.38769 1.044-.79437 1.5352-1.207l-46.828-34.949z" style="fill:url(#linearGradient872)"/></svg>
