<?xml version="1.0" encoding="UTF-8"?><svg xmlns="http://www.w3.org/2000/svg" viewBox="0 0 192 192"><path d="m31 123.98c0-2.6522 1.0536-5.1957 2.9274-7.0695l89.477-89.477c1.8754-1.8754 4.4189-2.9289 7.0711-2.9289l33.525 5e-6c5.54 0 10 4.46 10 10v33.525c0 2.6522-1.0536 5.1957-2.9277 7.0698l-89.477 89.477c-1.8754 1.8754-4.4189 2.9289-7.0711 2.9289h-33.525c-5.54 0-10-4.46-10-10z" fill="#728DBE"/><path d="m102.5 116c0-11.046 8.9543-20 20-20h27.667l20.906 20.906c1.8738 1.8738 2.9274 4.4174 2.9274 7.0695l-1e-5 33.525c0 5.54-4.46 10-10 10h-33.525c-2.6522 0-5.1957-1.0536-7.0711-2.9289l-20.906-20.906z" fill="#54688C"/><path d="m102.5 76c0 11.046-8.9543 20-20 20h-27.667l-20.906-20.906c-1.8738-1.8738-2.9274-4.4174-2.9274-7.0695l1e-5-33.525c0-5.54 4.46-10 10-10h33.525c2.6522 0 5.1957 1.0536 7.0711 2.9289l20.906 20.906z" fill="#9abeff"/><rect x="11" y="55" width="82" height="82" rx="5" fill="#54688C"/><path d="m65.237 82.506v-8.5067h-26.473v44h26.473v-8.5067h-16.793v-9.2401h14.373v-8.5067h-14.373v-9.2401z" fill="#FFF"/></svg>
