<svg width="192" height="192" version="1.1" viewBox="0 0 192 192" xmlns="http://www.w3.org/2000/svg">
 <path d="m33 18.996c0-5.5205 4.4729-9.9958 10.001-9.9958h80.821l35.178 35v129c0 5.5209-4.4844 9.9965-9.9923 9.9965h-106.02c-5.5186 0-9.9923-4.476-9.9923-9.9958z" style="fill-rule:evenodd;fill:#98dc9a"/>
 <path d="m120 13.998c0-5.5218 3.1644-6.8337 7.0694-2.9287l29.861 29.861c3.9043 3.9043 2.5878 7.0694-2.9287 7.0694h-24.004c-5.5218 0-9.998-4.4815-9.998-9.998z" style="fill-rule:evenodd;fill:#71a372"/>
 <path d="m64 101v44.545h63.803v-31.672h-2e-3v-12.873zm5 5h14.449v7.873h-14.449zm19.449 0h14.902v7.873h-14.902zm19.902 0h14.449v7.873h-14.449zm-39.352 12.873h14.449v8.7988h-14.449zm19.449 0h14.902v8.7988h-14.902zm19.902 0h14.449v8.7988h-14.449zm-39.352 13.799h14.449v7.873h-14.449zm19.449 0h14.902v7.873h-14.902zm19.902 0h14.451v7.873h-14.451z" style="color-rendering:auto;color:#000000;dominant-baseline:auto;fill:#fff;font-feature-settings:normal;font-variant-alternates:normal;font-variant-caps:normal;font-variant-ligatures:normal;font-variant-numeric:normal;font-variant-position:normal;image-rendering:auto;isolation:auto;mix-blend-mode:normal;shape-padding:0;shape-rendering:auto;solid-color:#000000;text-decoration-color:#000000;text-decoration-line:none;text-decoration-style:solid;text-indent:0;text-orientation:mixed;text-transform:none;white-space:normal"/>
</svg>
