<svg width="192" height="192" version="1.1" viewBox="0 0 192 192" xmlns="http://www.w3.org/2000/svg">
 <path d="m30.699 93.998-0.69922 48.002h130l1.2969-48.002z" style="fill:#008000"/>
 <path d="m96 12v0.0039c-1.9059 0.05485-4.2525-1.01e-4 -12.797 7.6445 0 0-52.73 45.945-57.967 50.461-5.2368 4.5163-5.2363 9.1287-5.2363 13.605v78.287c0 5.5184 4.4777 9.998 10.002 9.998 44.001 1.5e-4 87.995-2e-3 132-2e-3 5.5242 0 10.002-4.4816 10.002-10v-78.285c0-4.4767 4.3e-4 -9.0892-5.2363-13.605-5.2368-4.5163-57.967-50.463-57.967-50.463-8.5444-7.6446-10.891-7.5897-12.797-7.6445z" style="fill-rule:evenodd;fill:#728dbe"/>
 <path d="m172 84.627-10.703 9.3711s-11.142 8.232-36.297 25.002c-18 12-24 16-28 16h-2l-0.0039-4e-3v4e-3c-4 0-10-4-28-16-25.155-16.77-36.297-25.002-36.297-25.002l-10.699-8.1777v76.182c0 5.5184 4.4777 9.998 10.002 9.998h65.998v-2e-3h65.998c5.5242 0 10.002-4.4816 10.002-10z" style="fill-rule:evenodd;fill:#9abeff"/>
 <path d="m151.37 27.562-54.529 57.594-32.311-32.199-7.0586 7.084 39.578 39.441 61.582-65.045z" style="color-rendering:auto;color:#000000;dominant-baseline:auto;fill:#fff;font-feature-settings:normal;font-variant-alternates:normal;font-variant-caps:normal;font-variant-ligatures:normal;font-variant-numeric:normal;font-variant-position:normal;image-rendering:auto;isolation:auto;mix-blend-mode:normal;shape-padding:0;shape-rendering:auto;solid-color:#000000;text-decoration-color:#000000;text-decoration-line:none;text-decoration-style:solid;text-indent:0;text-orientation:mixed;text-transform:none;white-space:normal"/>
</svg>
