<?xml version="1.0" encoding="UTF-8" standalone="no"?>
<svg
   viewBox="0 0 192 192"
   version="1.1"
   id="svg17"
   sodipodi:docname="heroic.svg"
   inkscape:version="1.2.2 (b0a8486541, 2022-12-01)"
   inkscape:export-filename="ubank.png"
   inkscape:export-xdpi="121.26316"
   inkscape:export-ydpi="121.26316"
   xml:space="preserve"
   xmlns:inkscape="http://www.inkscape.org/namespaces/inkscape"
   xmlns:sodipodi="http://sodipodi.sourceforge.net/DTD/sodipodi-0.dtd"
   xmlns:xlink="http://www.w3.org/1999/xlink"
   xmlns="http://www.w3.org/2000/svg"
   xmlns:svg="http://www.w3.org/2000/svg"><defs
     id="defs21"><inkscape:path-effect
       effect="fillet_chamfer"
       id="path-effect4705"
       is_visible="true"
       lpeversion="1"
       nodesatellites_param="F,0,0,1,0,10,0,1 @ F,0,0,1,0,10,0,1 @ F,0,0,1,0,10,0,1 @ F,0,0,1,0,10,0,1 @ F,0,0,1,0,10,0,1 @ F,0,0,1,0,10,0,1"
       unit="px"
       method="auto"
       mode="F"
       radius="10"
       chamfer_steps="1"
       flexible="false"
       use_knot_distance="true"
       apply_no_radius="true"
       apply_with_radius="true"
       only_selected="false"
       hide_knots="false" /><linearGradient
       inkscape:collect="always"
       id="linearGradient3961"><stop
         style="stop-color:#9abeff;stop-opacity:1;"
         offset="0"
         id="stop3957" /><stop
         style="stop-color:#96dfd3;stop-opacity:1;"
         offset="1"
         id="stop3959" /></linearGradient><linearGradient
       inkscape:collect="always"
       xlink:href="#linearGradient3961"
       id="linearGradient3963"
       x1="96"
       y1="8"
       x2="95.208565"
       y2="184"
       gradientUnits="userSpaceOnUse"
       gradientTransform="translate(0.79142619,-0.15000063)" /></defs><sodipodi:namedview
     id="namedview19"
     pagecolor="#ffffff"
     bordercolor="#000000"
     borderopacity="0.25"
     inkscape:showpageshadow="2"
     inkscape:pageopacity="0.0"
     inkscape:pagecheckerboard="0"
     inkscape:deskcolor="#d1d1d1"
     showgrid="false"
     inkscape:zoom="1.8915107"
     inkscape:cx="99.127118"
     inkscape:cy="106.79295"
     inkscape:window-width="3440"
     inkscape:window-height="1371"
     inkscape:window-x="0"
     inkscape:window-y="0"
     inkscape:window-maximized="1"
     inkscape:current-layer="g4583"
     showguides="true"><sodipodi:guide
       position="86.372763,117.44815"
       orientation="0,-1"
       id="guide1910"
       inkscape:locked="false" /><sodipodi:guide
       position="95.149679,85.9329"
       orientation="1,0"
       id="guide2105"
       inkscape:locked="false" /></sodipodi:namedview><g
     id="g4583"
     transform="translate(3.8146973e-6,0.15000153)"><path
       id="rect4182-9"
       style="opacity:1;isolation:isolate;fill:url(#linearGradient3963);fill-opacity:1;stroke:none;stroke-linecap:round;stroke-linejoin:round;stroke-opacity:1"
       class="a"
       d="M 41.377334,28.376452 87.414088,11.323547 a 26.663093,26.663093 0.23296521 0 1 18.726122,0.07614 l 44.51101,16.900623 a 12.329352,12.329352 59.836097 0 1 7.80501,13.429808 L 141.54377,149.96988 a 20.274032,20.274032 125.1351 0 1 -10.32273,14.66864 l -26.44209,14.42296 a 18.333334,18.333334 1.0948238e-6 0 1 -17.55791,0 L 60.778952,164.63852 A 20.274033,20.274033 54.8649 0 1 50.456227,149.96988 L 33.543765,41.730119 a 12.227394,12.227394 120.39687 0 1 7.833569,-13.353667 z"
       sodipodi:nodetypes="ccccccc"
       inkscape:path-effect="#path-effect4705"
       inkscape:original-d="M 31.999996,31.849999 96.791426,7.8499996 160,31.849999 140,159.85 l -44.000004,24 -44,-24 z" /><path
       style="fill:#56595b;stroke-width:0.195667"
       d="m 93.092221,164.3217 c -1.506639,-1.06888 -2.842539,-2.00369 -2.968667,-2.07737 -0.170132,-0.0994 0.04299,-2.20461 0.825619,-8.15631 0.580232,-4.41231 1.057641,-8.11272 1.06091,-8.22313 0.0081,-0.27745 3.657669,-3.42026 3.964514,-3.41416 0.136577,0.003 1.054237,0.77317 2.039286,1.71209 l 1.790967,1.70716 1.01469,7.72886 c 0.5581,4.25088 1.05054,7.90497 1.09434,8.1202 0.0641,0.31496 -0.42186,0.73503 -2.4899,2.15234 -1.413248,0.96856 -2.799688,1.90337 -3.08098,2.07738 -0.507013,0.31362 -0.53515,0.29954 -3.250779,-1.62706 z M 71.095523,143.35548 c -1.192534,-2.18982 -2.16823,-4.09451 -2.16823,-4.23264 0,-0.52779 4.209883,-8.01283 4.51035,-8.01926 0.273192,-0.006 15.373179,2.57188 16.668849,2.84555 0.415168,0.0877 0.938891,0.68671 2.31913,2.65262 l 1.782842,2.53934 -1.614158,2.38611 c -0.887802,1.31236 -1.718684,2.50042 -1.846396,2.64013 -0.137398,0.15031 -3.580969,0.80961 -8.433834,1.61475 -4.510878,0.74841 -8.392567,1.40442 -8.625959,1.45781 -0.37713,0.0863 -0.66574,-0.34616 -2.592594,-3.88441 z m 38.947387,2.49585 c -4.66735,-0.78375 -8.58559,-1.46425 -8.7072,-1.51224 -0.12163,-0.048 -0.99962,-1.23852 -1.95114,-2.64564 l -1.730011,-2.55838 1.782101,-2.53827 1.78209,-2.53826 1.0241,-0.20412 c 2.07905,-0.41438 15.82888,-2.75714 16.14974,-2.75166 0.22895,0.004 1.00709,1.2557 2.50609,4.03155 l 2.17402,4.02591 -2.14706,3.94188 c -1.1809,2.16804 -2.20322,3.99417 -2.27186,4.05806 -0.0686,0.0639 -3.94354,-0.52508 -8.61087,-1.30883 z m -15.678851,-11.066 c -0.807128,-0.65406 -1.666597,-1.34668 -1.909948,-1.53917 -0.42953,-0.33978 -0.573463,-1.57666 -4.932796,-42.388607 C 85.0516,67.73631 82.98553,48.508541 82.930037,48.129169 c -0.09153,-0.625631 0.482027,-1.69894 6.169101,-11.544372 3.448501,-5.970042 6.330018,-10.913014 6.403393,-10.984395 0.07336,-0.07135 2.979388,4.80389 6.457849,10.833928 l 6.32447,10.963717 -4.22633,42.767912 c -2.32447,23.522351 -4.24596,42.780331 -4.26997,42.795501 -0.024,0.0151 -0.890172,0.70253 -1.924843,1.52745 -1.034649,0.82493 -1.915152,1.49666 -1.956673,1.49274 -0.04151,-0.004 -0.735847,-0.54227 -1.542975,-1.19632 z"
       id="path4703"
       sodipodi:nodetypes="ssssssccssssssssscsssssssscccssscssssssssssccssss" /></g></svg>
