<svg width="192" height="192" version="1.1" viewBox="0 0 192 192" xmlns="http://www.w3.org/2000/svg">
 <path d="m96 8c-2.5979 1.71e-5 -5.1951 0.97539-7.1481 2.9283l-77.924 77.924c-3.9059 3.9059-3.9053 10.39 0 14.297v2e-3l77.924 77.922c3.9059 3.9045 10.393 3.9053 14.299 0l77.922-77.922c3.9053-3.9053 3.9045-10.392 0-14.299l-2e-3 -2e-3 -77.92-77.922h-2e-3c-1.953-1.9527-4.5501-2.9283-7.148-2.9283z" style="color-rendering:auto;color:#000000;dominant-baseline:auto;fill:#98dc9a;font-feature-settings:normal;font-variant-alternates:normal;font-variant-caps:normal;font-variant-ligatures:normal;font-variant-numeric:normal;font-variant-position:normal;image-rendering:auto;isolation:auto;mix-blend-mode:normal;shape-padding:0;shape-rendering:auto;solid-color:#000000;stroke-width:1.011;text-decoration-color:#000000;text-decoration-line:none;text-decoration-style:solid;text-indent:0;text-orientation:mixed;text-transform:none;white-space:normal"/>
 <path d="m56.709 62.538c-0.98004 7e-6 -1.9598 0.36796-2.6965 1.1047l-29.396 29.396c-1.4734 1.4734-1.4732 3.9195 0 5.3932v7.55e-4l29.396 29.395c1.4734 1.4729 3.9206 1.4732 5.394 0l29.395-29.395c1.4732-1.4732 1.4729-3.9202 0-5.394l-7.49e-4 -7.55e-4 -29.394-29.395h-7.55e-4c-0.73672-0.73663-1.7165-1.1047-2.6965-1.1047z" style="color-rendering:auto;color:#000000;dominant-baseline:auto;fill:#fff;font-feature-settings:normal;font-variant-alternates:normal;font-variant-caps:normal;font-variant-ligatures:normal;font-variant-numeric:normal;font-variant-position:normal;image-rendering:auto;isolation:auto;mix-blend-mode:normal;shape-padding:0;shape-rendering:auto;solid-color:#000000;stroke-width:.3814;text-decoration-color:#000000;text-decoration-line:none;text-decoration-style:solid;text-indent:0;text-orientation:mixed;text-transform:none;white-space:normal"/>
 <path d="m96.923 103.59c-0.95526 1e-5 -1.9102 0.35865-2.6283 1.0768l-28.653 28.653c-1.4362 1.4362-1.436 3.8204 0 5.2569v7.3e-4l28.653 28.652c1.4362 1.4357 3.8215 1.436 5.2576 0l28.652-28.652c1.436-1.436 1.4357-3.8211 0-5.2576l-7.3e-4 -7.4e-4 -28.651-28.652h-7.39e-4c-0.7181-0.718-1.6731-1.0768-2.6283-1.0768z" style="color-rendering:auto;color:#000000;dominant-baseline:auto;fill:#fff;font-feature-settings:normal;font-variant-alternates:normal;font-variant-caps:normal;font-variant-ligatures:normal;font-variant-numeric:normal;font-variant-position:normal;image-rendering:auto;isolation:auto;mix-blend-mode:normal;shape-padding:0;shape-rendering:auto;solid-color:#000000;stroke-width:.37176;text-decoration-color:#000000;text-decoration-line:none;text-decoration-style:solid;text-indent:0;text-orientation:mixed;text-transform:none;white-space:normal"/>
 <path d="m56.905 69.672c-0.35397 3e-6 -0.70784 0.1329-0.97394 0.39899l-10.617 10.617c-0.53218 0.53218-0.5321 1.4157 0 1.948v2.75e-4l10.617 10.617c0.53218 0.532 1.4161 0.53211 1.9482 0l10.617-10.617c0.5321-0.53211 0.532-1.4159 0-1.9482l-2.71e-4 -2.66e-4 -10.617-10.617h-2.73e-4c-0.26609-0.26606-0.61996-0.39899-0.97393-0.39899z" style="color-rendering:auto;color:#000000;dominant-baseline:auto;fill:#83868c;font-feature-settings:normal;font-variant-alternates:normal;font-variant-caps:normal;font-variant-ligatures:normal;font-variant-numeric:normal;font-variant-position:normal;image-rendering:auto;isolation:auto;mix-blend-mode:normal;shape-padding:0;shape-rendering:auto;solid-color:#000000;stroke-width:.13776;text-decoration-color:#000000;text-decoration-line:none;text-decoration-style:solid;text-indent:0;text-orientation:mixed;text-transform:none;white-space:normal"/>
 <path d="m71.43 84.5c-0.34502 9e-6 -0.68994 0.12954-0.94932 0.3889l-10.349 10.349c-0.51873 0.51874-0.51865 1.3799 0 1.8987v2.66e-4l10.349 10.349c0.51873 0.51854 1.3803 0.51865 1.899 0l10.349-10.349c0.51865-0.51866 0.51854-1.3801 0-1.899l-2.64e-4 -2.66e-4 -10.348-10.349h-2.67e-4c-0.25936-0.25933-0.60428-0.3889-0.94931-0.3889z" style="color-rendering:auto;color:#000000;dominant-baseline:auto;fill:#83868c;font-feature-settings:normal;font-variant-alternates:normal;font-variant-caps:normal;font-variant-ligatures:normal;font-variant-numeric:normal;font-variant-position:normal;image-rendering:auto;isolation:auto;mix-blend-mode:normal;shape-padding:0;shape-rendering:auto;solid-color:#000000;stroke-width:.13427;text-decoration-color:#000000;text-decoration-line:none;text-decoration-style:solid;text-indent:0;text-orientation:mixed;text-transform:none;white-space:normal"/>
 <path d="m42.217 83.521c-0.35397 3e-6 -0.70784 0.1329-0.97394 0.39899l-10.617 10.617c-0.53218 0.53218-0.5321 1.4157 0 1.948v2.75e-4l10.617 10.617c0.53218 0.53199 1.4161 0.5321 1.9482 0l10.617-10.617c0.5321-0.53211 0.532-1.4159 0-1.9482l-2.71e-4 -2.66e-4 -10.617-10.617h-2.73e-4c-0.26609-0.26606-0.61996-0.39899-0.97393-0.39899z" style="color-rendering:auto;color:#000000;dominant-baseline:auto;fill:#83868c;font-feature-settings:normal;font-variant-alternates:normal;font-variant-caps:normal;font-variant-ligatures:normal;font-variant-numeric:normal;font-variant-position:normal;image-rendering:auto;isolation:auto;mix-blend-mode:normal;shape-padding:0;shape-rendering:auto;solid-color:#000000;stroke-width:.13776;text-decoration-color:#000000;text-decoration-line:none;text-decoration-style:solid;text-indent:0;text-orientation:mixed;text-transform:none;white-space:normal"/>
 <path d="m56.741 98.35c-0.34502 9e-6 -0.68994 0.12954-0.94932 0.3889l-10.349 10.349c-0.51873 0.51873-0.51865 1.3799 0 1.8987v2.6e-4l10.349 10.349c0.51873 0.51854 1.3803 0.51865 1.899 0l10.349-10.349c0.51865-0.51865 0.51854-1.3801 0-1.899l-2.64e-4 -2.7e-4 -10.348-10.349h-2.67e-4c-0.25936-0.25933-0.60428-0.3889-0.94931-0.3889z" style="color-rendering:auto;color:#000000;dominant-baseline:auto;fill:#83868c;font-feature-settings:normal;font-variant-alternates:normal;font-variant-caps:normal;font-variant-ligatures:normal;font-variant-numeric:normal;font-variant-position:normal;image-rendering:auto;isolation:auto;mix-blend-mode:normal;shape-padding:0;shape-rendering:auto;solid-color:#000000;stroke-width:.13427;text-decoration-color:#000000;text-decoration-line:none;text-decoration-style:solid;text-indent:0;text-orientation:mixed;text-transform:none;white-space:normal"/>
</svg>
