<svg width="192" height="192" version="1.1" viewBox="0 0 192 192" xmlns="http://www.w3.org/2000/svg">
 <path d="m79.397 12.723-66.447 67.996c-22.451 27.803 15.279 24.568 31.453 32.576 5.8019 5.9305-22.238 10.308-16.436 16.243 5.8019 5.9305 35.083 11.426 40.895 17.356 5.8019 5.9305-11.876 12.222-6.0739 18.153 5.8019 5.9305 19.221 0.3116 21.734 14.003 1.7905 9.7836 24.182 4.2043 35.133-3.8086 5.8019-5.9354-11.099-5.3765-5.2974-11.307 14.428-14.755 27.862-5.3617 32.798-20.146 2.4385-7.3055-21.239-11.263-15.427-17.193 16.693-9.749 74.391-16.095 47.014-43.472l-68.876-70.399c-8.4234-8.0871-22.481-8.1761-30.469 0zm76.325 131.06c0 3.3733 24.855 5.5843 24.855-0.79634-3.5415-10.249-21.917-9.5561-24.855 0.79634zm-111.96 17.925c5.886 5.0896 14.977-1.2662 17.702-8.369-5.703-7.5776-27.051 0.27205-17.702 8.369zm108.85-10.995c-7.5875 6.806 0.85075 13.711 8.3294 9.3137 1.6669-1.6916-0.0445-7.6221-8.3294-9.3137z" style="fill:#56595b;stroke-width:.49462"/>
 <path d="m62.436 116.79c1.7805 1.106 28.711 6.5764 35.292 7.6675 2.2814 0.48108 0.66458 2.8319-2.4798 4.419-7.0922 1.8846-41.492-12.086-32.812-12.086z" style="fill:#fff;stroke-width:.49595"/>
 <path d="m104.9 17.041 26.36 26.772c2.4996 2.5542 2.4649 7.5038 1.0663 8.9272l-13.088-10.47-2.574 15.504-10.936-5.7729-17.512 11.065-5.7977-23.325-9.4083 16.277h-14.383c-5.8622 0-6.5516-7.4393-1.225-12.766 9.3041-10.043 19.982-20.28 25.785-26.211 5.8324-5.9614 15.995-5.7928 21.713 0z" style="fill:#fff;stroke-width:.49595"/>
</svg>
