<svg width="192" height="192" fill="none" version="1.1" viewBox="0 0 192 192" xmlns="http://www.w3.org/2000/svg">
 <g clip-rule="evenodd" fill-rule="evenodd">
  <path d="m96.38 20.24c-20.743 0-23.344 0.0872-31.491 0.4586-8.1301 0.3705-13.682 1.6587-18.54 3.5424-5.0229 1.9476-9.2824 4.5536-13.529 8.7905s-6.8579 8.4875-8.8094 13.499c-1.8889 4.8479-3.1798 10.388-3.5505 18.5-0.3719 8.1287-0.4596 10.724-0.4596 31.422 0 20.699 0.0877 23.294 0.4596 31.422 0.3707 8.112 1.6616 13.652 3.5505 18.5 1.9515 5.012 4.5632 9.262 8.8094 13.499s8.5057 6.843 13.529 8.791c4.8578 1.884 10.41 3.172 18.54 3.542 8.1465 0.371 10.748 0.459 31.491 0.459 20.744 0 23.344-0.088 31.492-0.459 8.129-0.37 13.682-1.658 18.54-3.542 5.023-1.948 9.282-4.554 13.528-8.791s6.858-8.487 8.81-13.499c1.888-4.848 3.179-10.388 3.55-18.5 0.372-8.128 0.46-10.723 0.46-31.422 0-20.698-0.088-23.293-0.46-31.422-0.371-8.112-1.662-13.652-3.55-18.5-1.952-5.0116-4.564-9.2622-8.81-13.499s-8.505-6.8429-13.528-8.7905c-4.858-1.8837-10.411-3.1719-18.54-3.5424-8.147-0.3714-10.748-0.4586-31.492-0.4586" fill="#fff" style="fill:#ff837d"/>
  <path d="m96.38 121.86c-14.061 0-25.46-11.374-25.46-25.404s11.399-25.404 25.46-25.404c14.062 0 25.46 11.374 25.46 25.404s-11.398 25.404-25.46 25.404m0-64.54c-21.661 0-39.222 17.522-39.222 39.136 0 21.615 17.56 39.136 39.222 39.136 21.662 0 39.222-17.521 39.222-39.136 0-21.614-17.56-39.136-39.222-39.136" fill="#FF837D" style="fill:#fff"/>
  <path d="m146.32 55.771c0 5.0507-4.104 9.1456-9.166 9.1456s-9.166-4.0949-9.166-9.1456c0-5.051 4.104-9.1456 9.166-9.1456s9.166 4.0946 9.166 9.1456" fill="#FF837D" style="fill:#fff"/>
 </g>
</svg>
