<svg width="192" height="192" version="1.1" viewBox="0 0 192 192" xmlns="http://www.w3.org/2000/svg">
 <style type="text/css">.st0{fill:#FFFFFF;}</style>
 <style type="text/css">.st0{fill:#FFFFFF;}</style>
 <rect x="19.5" y="19.5" width="153" height="153" rx="10" style="fill:#f8c18c"/>
 <path d="m70.333 63c-2.3394 0.01467-7.3333 0-7.3333 0v11s4.9713 0.01467 7.3333 0c26.361-0.0014 47.668 21.305 47.667 47.667-0.0186 2.4568 0 7.3333 0 7.3333h11s-0.0256-4.8801 0-7.3333c0-32.4-26.266-58.667-58.667-58.667zm0 22c-2.388 0.0021-7.3333 0-7.3333 0v11s4.9061 0.0037 7.3333 0c14.036 0.0012 25.666 11.631 25.667 25.667-0.0049 2.4849 0 7.3333 0 7.3333h11s-0.0132-4.8685 0-7.3333c2e-3 -20.081-16.585-36.668-36.667-36.667z" style="fill:#fff;paint-order:stroke fill markers;stroke-width:3.6667"/>
 <ellipse cx="74" cy="118" rx="11" ry="11" style="fill:#fff;paint-order:stroke fill markers;stroke-width:3.6667"/>
</svg>
