<svg width="192" height="192" fill="none" version="1.1" viewBox="0 0 192 192" xmlns="http://www.w3.org/2000/svg">
 <path d="m165 49c5.523 0 10 4.4772 10 10v104c0 5.523-4.477 10-10 10h-14v13l-14-13h-75c-5.5229 0-10-4.477-10-10v-104c0-5.5228 4.4771-10 10-10h103z" clip-rule="evenodd" fill="#9ABEFF" fill-rule="evenodd"/>
 <path d="m32 22c-5.5228 0-10 4.4772-10 10v104c0 5.523 4.4772 10 10 10h14v13l14-13h75c5.523 0 10-4.477 10-10v-104c0-5.5228-4.477-10-10-10h-103z" clip-rule="evenodd" fill="#fff" fill-rule="evenodd"/>
 <path d="m52.818 67v5h2.5 57.438 2.5v-5h-2.5-57.438-2.5zm0 14v5h2.5 57.438 2.5v-5h-2.5-57.438-2.5zm0 14v5h2.5 25.814 2.5v-5h-2.5-25.814-2.5z" style="color-rendering:auto;color:#000000;dominant-baseline:auto;fill:#b1b5bd;font-feature-settings:normal;font-variant-alternates:normal;font-variant-caps:normal;font-variant-ligatures:normal;font-variant-numeric:normal;font-variant-position:normal;image-rendering:auto;isolation:auto;mix-blend-mode:normal;shape-padding:0;shape-rendering:auto;solid-color:#000000;text-decoration-color:#000000;text-decoration-line:none;text-decoration-style:solid;text-indent:0;text-orientation:mixed;text-transform:none;white-space:normal"/>
</svg>
