<?xml version="1.0" encoding="UTF-8"?>
<svg version="1.1" viewBox="0 0 192 192" xmlns="http://www.w3.org/2000/svg" xmlns:xlink="http://www.w3.org/1999/xlink">
 <g transform="matrix(4.1665 0 0 4.1665 21.09 20.915)">
  <path d="m4.861 9.147c0.94-0.657 2.357-0.531 3.201 0.166l-0.968-1.407c-0.779-1.111-0.5-2.313 0.612-3.093 1.112-0.777 4.263 1.312 4.263 1.312-0.786-1.122-0.639-2.544 0.483-3.331 1.122-0.784 2.67-0.513 3.456 0.611l10.42 14.72-1.328 12.875-11.083-4.042-9.667-14.333c-0.793-1.129-0.519-2.686 0.611-3.478z" fill="#ef9645" style="fill:#f8c18c"/>
  <path d="m2.695 17.336s-1.132-1.65 0.519-2.781c1.649-1.131 2.78 0.518 2.78 0.518l5.251 7.658c0.181-0.302 0.379-0.6 0.6-0.894l-7.288-10.627s-1.131-1.649 0.519-2.78c1.649-1.131 2.78 0.518 2.78 0.518l6.855 9.997c0.255-0.208 0.516-0.417 0.785-0.622l-7.947-11.591s-1.131-1.649 0.519-2.78c1.649-1.131 2.78 0.518 2.78 0.518l7.947 11.589c0.292-0.179 0.581-0.334 0.871-0.498l-7.428-10.832s-1.131-1.649 0.518-2.78 2.78 0.518 2.78 0.518l7.854 11.454 1.194 1.742c-4.948 3.394-5.419 9.779-2.592 13.902 0.565 0.825 1.39 0.26 1.39 0.26-3.393-4.949-2.357-10.51 2.592-13.903l-1.459-7.302s-0.545-1.924 1.378-2.47c1.924-0.545 2.47 1.379 2.47 1.379l1.685 5.004c0.668 1.984 1.379 3.961 2.32 5.831 2.657 5.28 1.07 11.842-3.94 15.279-5.465 3.747-12.936 2.354-16.684-3.11z" fill="#ffdc5d" style="fill:#f9de81"/>
  <g fill="#5dadec" style="fill:#b1b5bd">
   <path d="m12 32.042c-4 0-8.042-4.042-8.042-8.042 0-0.553-0.405-1-0.958-1s-1.042 0.447-1.042 1c0 6 4.042 10.042 10.042 10.042 0.553 0 1-0.489 1-1.042s-0.447-0.958-1-0.958z" style="fill:#b1b5bd"/>
   <path d="m7 34c-3 0-5-2-5-5 0-0.553-0.447-1-1-1s-1 0.447-1 1c0 4 3 7 7 7 0.553 0 1-0.447 1-1s-0.447-1-1-1zm17-32c-0.552 0-1 0.448-1 1s0.448 1 1 1c4 0 8 3.589 8 8 0 0.552 0.448 1 1 1s1-0.448 1-1c0-5.514-4-10-10-10z" style="fill:#b1b5bd"/>
   <path d="m29 0.042c-0.552 0-1 0.406-1 0.958s0.448 1.042 1 1.042c3 0 4.958 2.225 4.958 4.958 0 0.552 0.489 1 1.042 1s0.958-0.448 0.958-1c0-3.837-2.958-6.958-6.958-6.958z" style="fill:#b1b5bd"/>
  </g>
 </g>
</svg>
