<svg width="192" height="192" version="1.1" viewBox="0 0 192 192" xmlns="http://www.w3.org/2000/svg">
 <circle cx="96" cy="96" r="88" opacity=".63" style="fill:#ff837d;opacity:1"/>
 <path d="m105.22 50.346a0.74 0.74 0 0 0-0.27539 0.064453 0.73 0.73 0 0 0-0.42969 0.83984 15.92 15.92 0 0 1-1.7891 10.061c-1.2 2.08-3.7297 3.8695-6.6797 5.9395-4.22 3-9.0003 6.3304-11.57 11.9-4.48 9.71 9.1095 20.31 9.6895 20.75a0.72 0.72 0 0 0 0.46094 0.16016 0.75 0.75 0 0 0 0.6582-1.0606c-0.049999-0.1-4.9183-9.5598-4.7383-16.34 0.07-2.36 3.3689-5.0009 6.8789-7.8809 3.2-2.6 6.84-5.55 9-9 4.67-7.59-0.52031-15.049-0.57031-15.119a0.74 0.74 0 0 0-0.63477-0.31445zm8.1465 18.865a0.74 0.74 0 0 0-0.25195 0.048828c-0.72 0.27-17.559 6.7594-17.559 14.609a15 15 0 0 0 4 10.352 7.85 7.85 0 0 1 1.4395 2.1602c0.53 1.74-0.72 4.89-1.25 6a0.75 0.75 0 0 0 0.17969 0.89844 0.76 0.76 0 0 0 0.49023 0.18164 0.75 0.75 0 0 0 0.42969-0.13086c0.29-0.2 7.0813-5.001 5.8613-10.791a14.5 14.5 0 0 0-2.4902-5.2188c-1.47-2.19-2.5399-3.7809-0.91992-6.7109 1.86-3.46 10.439-9.9498 10.529-10.01a0.75 0.75 0 0 0 0.20898-1 0.74 0.74 0 0 0-0.66797-0.38867zm9.6797 29.238a15.61 15.61 0 0 0-6.5 1.7109 0.73 0.73 0 0 0-0.37109 0.83984 0.76 0.76 0 0 0 0.7207 0.57031c0.07 0 6.9996 0.05 7.5996 4 0.56 3.4-6.5306 8.9198-9.3106 10.76a0.74 0.74 0 0 0-0.27929 0.91015 0.76 0.76 0 0 0 0.68945 0.45899 0.44 0.44 0 0 0 0.16016 0c0.66-0.14 16.13-3.5488 14.49-12.549-0.99-5.54-4.4592-6.7012-7.1992-6.7012zm-37.871 1.2402c-2.34-0.02-13.97 0.16961-15.18 3.8496a2.67 2.67 0 0 0 0.39062 2.4805c1.83 2.53 8.299 3.9297 18.209 3.9297 1.34 0 2.7609-8e-5 4.2109-0.08008 15.86-0.57 21.74-5.5088 22-5.7188a0.75 0.75 0 0 0-0.67969-1.291c-5.59 1.53-16 2.0703-23.25 2.0703-8.09 0-12.22-0.58-13.23-1 0.52-0.71 3.7199-2 7.6699-2.75a0.75 0.75 0 0 0 0.59961-0.81055 0.73 0.73 0 0 0-0.74023-0.67969zm-3.3125 10.562a0.76 0.76 0 0 0-0.13672 0.01758c-3.72 0.9-5.5402 2.1602-5.4102 3.7402 0.24 2.8 6.7192 4.2294 12.199 4.6094 0.79 0.06 1.6412 0.08008 2.5312 0.08008 9.12 0 20.8-2.8587 20.92-2.8887a0.73 0.73 0 0 0 0.46875-0.58008 0.73 0.73 0 0 0-0.29883-0.75l-3.7109-2.5996a0.74 0.74 0 0 0-0.62891-0.11133 71.73 71.73 0 0 1-9.5508 1.6504 66.42 66.42 0 0 1-7.2402 0.38086c-5.63 0-9.3096-0.66062-9.8496-1.1406a0.25 0.25 0 0 1 0-0.23047 1.89 1.89 0 0 1 1-0.73047 0.74 0.74 0 0 0 0.45898-0.91992 0.76 0.76 0 0 0-0.75195-0.52735zm2.1836 9.6074c-0.5 0-4.8814 0.20999-5.1914 3a2.92 2.92 0 0 0 0.71094 2.2598c1.57 1.86 5.82 3.0006 13 3.3906 0.85 0.05 1.7105 0.07031 2.5605 0.07031a39.1 39.1 0 0 0 15.488-3 0.75 0.75 0 0 0 0.38086-0.58008 0.73 0.73 0 0 0-0.34961-0.67969l-4.6504-2.8906a0.81 0.81 0 0 0-0.55078-0.08985s-2.9983 0.62047-7.4883 1.2305a23.41 23.41 0 0 1-3.1719 0.17969c-4.49 0-9.4797-0.7307-10.43-1.2207a0.29 0.29 0 0 1 0.11133-0.29883 0.74 0.74 0 0 0-0.41992-1.3711zm-7.4023 6.4668a0.75 0.75 0 0 0-0.097657 0.00391c-0.1 0-0.43984 5.4e-4 -0.83984 0.06054-5.89 0.36-12.69 1.1595-13 4.1895a3.08 3.08 0 0 0 0.80859 2.5c1.59 1.78 6.1604 4.1602 27.4 4.1602l-0.060547-0.05078c20.85 0 32.001-3.7286 34.201-6.0586a2.62 2.62 0 0 0 0.77929-2.1211 3.31 3.31 0 0 0-1.4297-2.1094 0.76 0.76 0 0 0-1 0.13867 0.74 0.74 0 0 0 0 1c0.14 0.17 0.21007 0.4518-0.16993 0.8418-0.87 0.8-9.56 3.25-24 4-2 0.1-4.0597 0.1582-6.1797 0.1582-13 0-22.44-1.7786-23.68-2.8086 0.47-0.69 3.8284-1.7899 7.3984-2.4199a0.75 0.75 0 0 0-0.13086-1.4844zm52.143 5.3945a0.74 0.74 0 0 0-0.50196 0.24024s-3.1598 3.3085-12.59 5.2285c-3.61 0.73-10.379 1.0898-20.129 1.0898-9.75 0-19.06-0.37868-19.16-0.38868a0.75 0.75 0 0 0-0.19922 1.4785 111.58 111.58 0 0 0 23.158 2.3106 107.29 107.29 0 0 0 18.471-1.5488c10.95-1.92 11.72-7.3403 11.74-7.5703a0.73 0.73 0 0 0-0.42969-0.77149 0.74 0.74 0 0 0-0.35937-0.06836z" style="fill:#fff"/>
</svg>
