<svg width="192" height="192" version="1.1" viewBox="0 0 192 192" xmlns="http://www.w3.org/2000/svg">
 <rect x="32" y="8" width="128" height="176" rx="10.079" ry="10.057" style="fill-rule:evenodd;fill:#fff"/>
 <rect x="41.504" y="18.875" width="108.99" height="150.6" rx="0" ry="0" style="fill:#56595b"/>
 <g transform="matrix(.57437 0 0 .57437 56.759 57.986)" style="fill:#f2f2f2">
  <g transform="translate(19.32 28.476)" style="fill:#f2f2f2">
   <path d="m18.099 0.0201c-0.1947 0.0201-0.4053 0.0738-0.5517 0.2207l-6.7689 6.7688c-0.2843 0.2851-0.319 0.7216-0.1103 1.0667l7.9092 13.059c-1.4044 2.3608-2.5448 4.8933-3.3477 7.5781 0 0-14.531 3.0165-14.531 3.0165-0.40436 0.0836-0.69895 0.4685-0.69895 0.8829v9.5645c0 0.4044 0.30754 0.7507 0.69895 0.8461l14.089 3.4212c0.7534 3.1084 1.9174 6.0828 3.4579 8.792l-8.1666 12.434c-0.2278 0.3473-0.18337 0.8106 0.1103 1.1038l6.7689 6.7687c0.2851 0.2842 0.7224 0.3199 1.0667 0.1103l12.802-7.7619c2.5109 1.4495 5.2294 2.6109 8.0931 3.3844l2.9798 14.347c0.0835 0.405 0.432 0.699 0.846 0.699h9.5646c0.4014 0 0.7508-0.27 0.846-0.663l3.5316-14.42c2.9535-0.7964 5.7382-1.9786 8.3139-3.4947 0 0 12.618 8.277 12.618 8.277 0.3479 0.2266 0.8087 0.1828 1.1036-0.1103 0 0 6.7321-6.7689 6.7321-6.7689 0.2859-0.2853 0.3565-0.7224 0.1471-1.0668 0 0-4.5984-7.578-4.5984-7.578l-1.5083 0.4783c-0.2178 0.0671-0.4591-0.0314-0.5886-0.2209 0 0-2.9047-4.2728-6.6952-9.822-4.5332 8.8706-13.778 14.935-24.426 14.935-15.131 0-27.406-12.275-27.406-27.406 0-11.13 6.6555-20.689 16.186-24.978v-7.0631c-1.7346 0.6071-3.4103 1.3396-5.003 2.2072-3e-3 -0.0018 0.0029-0.0351 0-0.0367l-12.912-8.4611c-0.1737-0.1135-0.3572-0.1304-0.5519-0.1103zm39.031-17.29-17.216 1.6554v70.925s17.032-2.575 17.032-2.575v-30.239l22.918 33.55 17.952-5.7019-23.47-32.262 23.654-30.423-18.32-4.1937-22.734 30.423 0.1839-31.158z" style="fill:#f2f2f2"/>
  </g>
 </g>
 <rect x="81.753" y="11.927" width="28.494" height="3.0217" rx="1.5109" ry="1.5109" style="fill:#56595b;opacity:.98"/>
</svg>
