<svg width="192" height="192" version="1.1" viewBox="0 0 192 192" xmlns="http://www.w3.org/2000/svg">
 <rect x="20" y="20" width="152" height="152" rx="9.9346" opacity=".63" style="fill:#f9de81;opacity:1"/>
 <path d="m97.559 61.428a22.924 22.924 0 0 0-22.926 22.924 22.924 22.924 0 0 0 9.3711 18.459v9.7891h2.5 22.301 2.5v-9.9297a22.924 22.924 0 0 0 9.1777-18.318 22.924 22.924 0 0 0-22.924-22.924zm0 5.0449a18.028 18.028 0 0 1 18.027 18.027 18.028 18.028 0 0 1-8.7539 15.438v7.7852h-17.955v-7.4238a18.028 18.028 0 0 1-9.3477-15.799 18.028 18.028 0 0 1 18.029-18.027zm-13.555 49.527v5h2.5 22.301 2.5v-5h-2.5-22.301-2.5zm0 8v5h2.5 22.301 2.5v-5h-2.5-22.301-2.5z" style="color-rendering:auto;color:#000000;dominant-baseline:auto;fill:#bf9e73;font-feature-settings:normal;font-variant-alternates:normal;font-variant-caps:normal;font-variant-ligatures:normal;font-variant-numeric:normal;font-variant-position:normal;image-rendering:auto;isolation:auto;mix-blend-mode:normal;shape-padding:0;shape-rendering:auto;solid-color:#000000;text-decoration-color:#000000;text-decoration-line:none;text-decoration-style:solid;text-indent:0;text-orientation:mixed;text-transform:none;white-space:normal"/>
</svg>
