<svg width="192" height="192" fill="none" version="1.1" viewBox="0 0 192 192" xmlns="http://www.w3.org/2000/svg">
 <path d="m97 10c-47.99 0-87 39.01-87 87 0 47.989 39.01 87 87 87 47.989 0 87-39.011 87-87 0-47.99-39.011-87-87-87z" style="color-rendering:auto;color:#000000;dominant-baseline:auto;fill:#56595b;font-feature-settings:normal;font-variant-alternates:normal;font-variant-caps:normal;font-variant-ligatures:normal;font-variant-numeric:normal;font-variant-position:normal;image-rendering:auto;isolation:auto;mix-blend-mode:normal;shape-padding:0;shape-rendering:auto;solid-color:#000000;text-decoration-color:#000000;text-decoration-line:none;text-decoration-style:solid;text-indent:0;text-orientation:mixed;text-transform:none;white-space:normal"/>
 <path d="m98 120c12.15 0 22-9.85 22-22 0-12.15-9.85-22-22-22-12.15 0-22 9.8497-22 22 0 12.15 9.8497 22 22 22z" clip-rule="evenodd" fill="#4A4A4A" fill-rule="evenodd"/>
 <path d="m97.5 20c-42.743 0-77.5 34.757-77.5 77.5 0 42.743 34.757 77.5 77.5 77.5 42.743 0 77.5-34.757 77.5-77.5 0-42.743-34.757-77.5-77.5-77.5zm0 10c37.339 0 67.5 30.162 67.5 67.5 0 37.339-30.161 67.5-67.5 67.5-37.338 0-67.5-30.161-67.5-67.5 0-37.338 30.162-67.5 67.5-67.5z" style="color-rendering:auto;color:#000000;dominant-baseline:auto;fill:#979797;font-feature-settings:normal;font-variant-alternates:normal;font-variant-caps:normal;font-variant-ligatures:normal;font-variant-numeric:normal;font-variant-position:normal;image-rendering:auto;isolation:auto;mix-blend-mode:normal;shape-padding:0;shape-rendering:auto;solid-color:#000000;text-decoration-color:#000000;text-decoration-line:none;text-decoration-style:solid;text-indent:0;text-orientation:mixed;text-transform:none;white-space:normal"/>
</svg>
