<svg width="192" height="192" version="1.1" viewBox="0 0 192 192" xmlns="http://www.w3.org/2000/svg">
 <path d="m96 183c48.049 0 87-38.951 87-87s-38.951-87-87-87-87 38.951-87 87 38.951 87 87 87z" clip-rule="evenodd" fill="#98DC9A" fill-rule="evenodd" style="fill:#9abeff"/>
 <path d="m96.5 54c-11.715 0-21.726 4.1555-30.035 12.465-8.3094 8.309-12.465 18.32-12.465 30.035s4.1555 21.726 12.465 30.035c8.309 8.309 18.32 12.465 30.035 12.465s21.726-4.1558 30.035-12.465 12.465-18.32 12.465-30.035-4.1558-21.726-12.465-30.035-18.32-12.465-30.035-12.465zm9.0176 7.1582a36.575 36.575 0 0 1 15.443 8.209c-0.45757 0.41239-1.8818 1.5545-5.0859 2.9785-0.35884 0.15948-0.76001 0.32079-1.1582 0.48047-1.6482-3.1671-3.5289-5.8198-5.4297-7.9727-1.2635-1.431-2.5447-2.6521-3.7695-3.6953zm-18.385 0.099609c-1.2258 1.0008-2.5022 2.1589-3.7656 3.5098-2.0468 2.1884-4.0794 4.9003-5.8516 8.1543-0.48762-0.19132-0.95985-0.38472-1.3906-0.57617-2.3651-1.0511-3.7068-1.9253-4.4727-2.5a36.575 36.575 0 0 1 15.48-8.5879zm12.867 5.6445c0.9744 0.81921 2.0701 1.8635 3.2891 3.2441 1.2118 1.3726 2.4301 2.9969 3.5586 4.9004-2.0374 0.37919-4.3068 0.67173-6.8477 0.82422v-8.9688zm-8 0.66016v8.3086c-2.4149-0.14493-4.5836-0.41556-6.543-0.76758 1.1887-1.8869 2.4712-3.5017 3.752-4.8711 1.0075-1.0773 1.9341-1.9416 2.791-2.6699zm34.277 7.7461a36.575 36.575 0 0 1 6.541 16.691h-12.965c-0.29154-4.3767-1.0478-8.2923-2.1191-11.771 0.47467-0.19059 0.95535-0.38077 1.3906-0.57422 3.7089-1.6484 6.1366-3.4955 7.1523-4.3457zm-59.84 0.55078c1.2364 0.95934 3.3339 2.4155 6.4375 3.7949 0.46948 0.20866 0.98466 0.41393 1.5 0.61914-1.1227 3.4695-1.9141 7.3705-2.2207 11.727h-11.832a36.575 36.575 0 0 1 6.1152-16.141zm43.689 6.6836c0.84209 2.7522 1.4538 5.8854 1.7188 9.457h-11.846v-8.1094c3.8147-0.20458 7.1752-0.69696 10.127-1.3477zm-28.143 0.027343c2.9242 0.63806 6.2504 1.1184 10.016 1.3203v8.1094h-11.836c0.28083-3.5622 0.92836-6.686 1.8203-9.4297zm-21.791 17.43h11.957c0.2991 4.3671 1.0724 8.275 2.1699 11.75-0.49482 0.19786-0.99305 0.3947-1.4453 0.5957-3.5286 1.5683-5.8414 3.2824-6.9395 4.1816a36.575 36.575 0 0 1-5.7422-16.527zm19.967 0h11.84v8.1094c-3.7904 0.20327-7.1341 0.68951-10.072 1.334-0.86679-2.7475-1.4947-5.8768-1.7676-9.4434zm19.84 0h11.84c-0.27285 3.5665-0.90079 6.6958-1.7676 9.4434-2.9382-0.64447-6.2819-1.1307-10.072-1.334v-8.1094zm19.85 0h13.129a36.575 36.575 0 0 1-6.1719 17.154c-0.05553-0.05325-2.7312-2.6084-7.6816-4.8086-0.45227-0.201-0.95049-0.39784-1.4453-0.5957 1.0975-3.475 1.8708-7.3829 2.1699-11.75zm-27.85 16.129v8.6367c-0.9178-0.77704-1.9306-1.7355-3.041-2.957-1.2462-1.3708-2.4958-2.99-3.6543-4.8848 1.9986-0.36551 4.2176-0.64622 6.6953-0.79492zm8 0c2.4778 0.1487 4.6967 0.42941 6.6953 0.79492-1.1585 1.8948-2.4081 3.5139-3.6543 4.8848-1.1105 1.2215-2.1232 2.18-3.041 2.957v-8.6367zm-22.598 2.9961c1.7102 3.211 3.6651 5.8954 5.6387 8.0664 1.9404 2.1344 3.908 3.7906 5.666 5.0762a36.575 36.575 0 0 1-17.711-9.5957c0.37593-0.35099 1.7645-1.5223 5.1289-3.0176 0.39569-0.17587 0.83374-0.35338 1.2773-0.5293zm37.195 0c0.44359 0.17592 0.88165 0.35343 1.2773 0.5293 3.9976 1.7767 5.2969 3.1738 5.2969 3.1738a4.0004 4.0004 0 0 0 0.43164 0.38282 36.575 36.575 0 0 1-18.762 9.3965c1.8636-1.322 4.0128-3.1012 6.1172-5.416 1.9736-2.171 3.9285-4.8554 5.6387-8.0664z" style="clip-rule:evenodd;fill-rule:evenodd;fill:#728dbe"/>
</svg>
