<svg width="192" height="192" fill="none" version="1.1" viewBox="0 0 192 192" xmlns="http://www.w3.org/2000/svg">
 <path d="m102.04 17.89 77.074 77.075c1.953 1.9526 1.953 5.1185 0 7.0715l-77.074 77.074c-1.953 1.953-5.1189 1.953-7.0715 0l-77.075-77.074c-1.9526-1.953-1.9526-5.1189 0-7.0715l77.075-77.075c1.9526-1.9526 5.1185-1.9526 7.0715 0z" fill="#9ABEFF" stroke="#fff" stroke-width="10"/>
 <path d="m78.355 34.5-20.34 20.34v87.32l22.295 22.295v-57.838h7.2793l39.531 47.406 15.82-15.82-36.469-41.822 36.613-37.439-14.709-14.709-40.332 42.365h-7.7344v-52.098h-1.9551z" style="fill:#fff"/>
 <path d="m98.5 11.457c-2.5697 1.7e-5 -5.1386 0.96478-7.0703 2.8965l-77.076 77.076c-3.8634 3.8634-3.8628 10.277 0 14.141v2e-3l77.076 77.074c3.8634 3.862 10.28 3.8628 14.143 0l77.074-77.074c3.8628-3.8628 3.862-10.279 0-14.143l-2e-3 -2e-3 -77.072-77.074h-2e-3c-1.9317-1.9314-4.5006-2.8965-7.0702-2.8965zm0 9.9688 77.074 77.074-77.074 77.074-77.074-77.074z" style="color-rendering:auto;color:#000000;dominant-baseline:auto;fill:#fff;font-feature-settings:normal;font-variant-alternates:normal;font-variant-caps:normal;font-variant-ligatures:normal;font-variant-numeric:normal;font-variant-position:normal;image-rendering:auto;isolation:auto;mix-blend-mode:normal;shape-padding:0;shape-rendering:auto;solid-color:#000000;text-decoration-color:#000000;text-decoration-line:none;text-decoration-style:solid;text-indent:0;text-orientation:mixed;text-transform:none;white-space:normal"/>
</svg>
