<svg width="192" height="192" fill="none" version="1.1" viewBox="0 0 192 192" xmlns="http://www.w3.org/2000/svg">
 <path d="m20 91v71c0 5.523 4.4772 10 10 10h74c0.548 0 1.086-0.044 1.611-0.129 42.589-2.39 76.389-37.683 76.389-80.871 0-44.735-36.265-81-81-81-44.22 0-80.164 35.435-80.986 79.46-0.0096 0.1789-0.0144 0.3591-0.0144 0.5404v1z" clip-rule="evenodd" fill="#98DC9A" fill-rule="evenodd" style="fill:#9abeff"/>
 <path d="m116.36 56.806v7.1938c6.0079 0 10.75 7.5103 10.75 30.277 0 22.609-4.7421 29.962-10.75 30.041v7.1938c10.988 0 19.525-9.4873 19.525-37.235 0-27.905-8.537-37.471-19.525-37.471zm-47.114 23.717c-3.004 0-5.5348 2.529-5.5348 5.533 0 3.083 2.5309 5.6124 5.5348 5.6124 3.004 0 5.533-2.5294 5.533-5.6124 0-3.004-2.529-5.533-5.533-5.533zm16.704 12.331v6.9573h22.134v-6.9573zm-19.156 11.62-7.5097 19.527h6.1667l11.066-19.527z" style="fill:#728dbe"/>
</svg>
