<svg width="192" height="192" version="1.1" viewBox="0 0 192 192" xmlns="http://www.w3.org/2000/svg">
 <path d="m24 33c-8.2235 0-15 6.7765-15 15v96c0 8.2235 6.7765 15 15 15h144c8.2235 0 15-6.7765 15-15v-96c0-8.2235-6.7765-15-15-15z" style="color-rendering:auto;color:#000000;dominant-baseline:auto;fill-rule:evenodd;fill:#ccc;font-feature-settings:normal;font-variant-alternates:normal;font-variant-caps:normal;font-variant-ligatures:normal;font-variant-numeric:normal;font-variant-position:normal;image-rendering:auto;isolation:auto;mix-blend-mode:normal;shape-padding:0;shape-rendering:auto;solid-color:#000000;text-decoration-color:#000000;text-decoration-line:none;text-decoration-style:solid;text-indent:0;text-orientation:mixed;text-transform:none;white-space:normal"/>
 <path d="m24 43c-2.8565 0-5 2.1435-5 5v96c0 2.8565 2.1435 5 5 5h144c2.8565 0 5-2.1435 5-5v-96c0-2.8565-2.1435-5-5-5h-144z" style="fill-rule:evenodd;fill:#728dbe"/>
 <path d="m96.033 63.399c-15.209-0.04512-29.692 5.2025-39.128 13.965 2.2917 3.1291 4.5836 6.1934 6.9389 9.3875 21.58-14.537 42.778-14.407 64.103 0 2.419-3.3247 4.7746-6.5196 7.0663-9.6484-11.578-9.5035-25.561-13.663-38.98-13.704zm0.16671 23.352c-9.708-0.01593-19.497 2.9011-25.606 8.7667 2.4309 3.1877 4.8624 6.439 7.3573 9.7539 11.963-7.8418 23.926-7.8418 35.952 0 2.495-3.1877 4.8612-6.3123 7.4202-9.6911-5.7895-5.8654-15.416-8.8134-25.124-8.8295zm-0.56461 23.354c-4.0862 0.0653-7.9303 1.5524-10.547 4.4272 3.6178 4.7696 11.176 14.897 11.176 14.897s7.6153-9.9029 11.371-15.224c-3.5855-2.8095-7.9138-4.1654-12-4.1001z" style="fill:#fff;stroke-width:.80524"/>
</svg>
