<svg width="192" height="192" version="1.1" viewBox="0 0 192 192" xmlns="http://www.w3.org/2000/svg">
 <circle cx="96" cy="96" r="88" opacity=".63" style="fill:#9abeff;opacity:1"/>
 <path d="m96 32a64 64 0 0 0-64 64 64 64 0 0 0 64 64 64 64 0 0 0 64-64 64 64 0 0 0-64-64zm0 8a56 56 0 0 1 56 56 56 56 0 0 1-56 56 56 56 0 0 1-56-56 56 56 0 0 1 56-56z" style="fill:#fff;paint-order:stroke fill markers"/>
 <path d="m50.571 130.94 7.9738-4.6164 19.095-30.846s-8.8235-7.4443-6.2951-10.492c3.0217-3.6421 14.479-3.1476 14.479-3.1476s6.6386-4.2771 10.702-6.7148c3.1442-1.8864 9.2723 0.14706 11.751-1.6787 8.6555-6.3759 12.254-10.256 18.885-15.108 4.4258-3.2389 6.1123 12.81 2.9377 15.528 2.4748-0.30613 3.4549-0.52184 5.0361-1.0492 1.1043-0.3683 2.6338 0.76478 2.9377 1.8885 1.0862 4.0161-0.86133 8.4538-5.6656 11.121-4.9518 2.7495-9.0413 9.9785-11.961 15.948-2.1023 4.2984-3.1419 9.1066-3.7771 13.849-0.44564 3.3277 0.74943 6.7995 0 10.072-1.0405 4.5436-4.8018 8.1092-6.0853 12.59-1.4335 5.0049-1.6787 15.528-1.6787 15.528l-32.944-0.41968-24.131-17.207z" style="fill:#fff"/>
 <path d="m105.74 76.982c-0.0289 7.81e-4 -0.0576 0.0041-0.0859 0.0098l-4.1445 0.89258c-0.11595 0.02535-0.2191 0.09112-0.29101 0.18555l-2.3613 3.0957c-0.27245 0.36036 0.03476 0.86863 0.48047 0.79492l3.7246-0.62891c0.11852-0.01969 0.22598-0.0814 0.30273-0.17383l2.7793-3.3574c0.27529-0.33291 0.0274-0.83472-0.4043-0.81836z" style="color-rendering:auto;color:#000000;dominant-baseline:auto;fill:#9abeff;font-feature-settings:normal;font-variant-alternates:normal;font-variant-caps:normal;font-variant-ligatures:normal;font-variant-numeric:normal;font-variant-position:normal;image-rendering:auto;isolation:auto;mix-blend-mode:normal;shape-padding:0;shape-rendering:auto;solid-color:#000000;text-decoration-color:#000000;text-decoration-line:none;text-decoration-style:solid;text-indent:0;text-orientation:mixed;text-transform:none;white-space:normal"/>
</svg>
