<svg width="192" height="192" version="1.1" viewBox="0 0 192 192" xmlns="http://www.w3.org/2000/svg">
 <path d="m158.68 74.011v94.781l-0.0802 0.0803c-0.32102 1.2841-1.2038 2.1669-2.4076 2.5682-0.16051 0.0803-0.32102 0.16051-0.48153 0.24077h-119.42c-0.16051-0.0803-0.32102-0.16051-0.48153-0.24077-1.2841-0.40132-2.0867-1.2841-2.4879-2.5682-0.08026-0.16051-0.16051-0.32102-0.24076-0.48153-0.080255-48.394-0.080255-96.787-0.080255-145.18 0.08026-0.16051 0.24076-0.40127 0.32102-0.56178 0.48153-1.2841 1.3643-2.0866 2.7287-2.4076 0.08026 0 0.16051-0.08025 0.24076-0.08025h68.217c0.16051 0.08025 0.40127 0.16051 0.56178 0.16051 0.72229 0.24076 1.2841 0.72229 1.8459 1.2841l50.079 50.079c0.80255 0.64204 1.4446 1.3643 1.6854 2.3274zm-35.794-53.931h32.824c0.0803 0.08025 0.24077 0.08025 0.32102 0.16051 1.0433 0.32102 1.8459 0.96306 2.4076 1.9261 0.16051 0.24076 0.24076 0.56178 0.32102 0.80255v33.306c-0.0803 0.24076-0.16051 0.56178-0.32102 0.80255-1.0433 2.0866-3.8522 2.7287-5.6981 1.2038-0.24077-0.24076-0.48153-0.48153-0.7223-0.72229-10.273-10.273-20.465-20.545-30.738-30.738-0.16051-0.16051-0.32101-0.32102-0.56178-0.56178-1.8459-2.0866-0.8828-5.3771 1.8459-6.0994 0.0803 0 0.24076 0 0.32102-0.08025z" style="fill:#c39a54"/>
 <path d="m151.3 164.14h-110.67v-136.51c0.16051 0 0.24076-0.08025 0.40127-0.08025h60.593c0.64204 0 1.0433 0.16051 1.4446 0.64204 15.89 15.89 31.861 31.861 47.832 47.752 0.32102 0.32102 0.48153 0.64204 0.48153 1.1236v86.434c-0.0803 0.16051-0.0803 0.40127-0.0803 0.64204z" style="fill:#f9de81"/>
 <path d="m95.884 80a4.0004 4.0004 0 0 0-3.3906 2.0859l-24 44a4.0004 4.0004 0 0 0 3.5078 5.914h48a4.0004 4.0004 0 0 0 3.5078-5.914l-24-44a4.0004 4.0004 0 0 0-3.625-2.0859zm0.1172 12.344 17.266 31.656h-34.531z" style="color-rendering:auto;color:#000000;dominant-baseline:auto;fill:#fff;font-feature-settings:normal;font-variant-alternates:normal;font-variant-caps:normal;font-variant-ligatures:normal;font-variant-numeric:normal;font-variant-position:normal;image-rendering:auto;isolation:auto;mix-blend-mode:normal;shape-padding:0;shape-rendering:auto;solid-color:#000000;stroke-width:4;text-decoration-color:#000000;text-decoration-line:none;text-decoration-style:solid;text-indent:0;text-orientation:mixed;text-transform:none;white-space:normal"/>
 <circle cx="120" cy="128" r="12" style="fill:#f9de81;paint-order:stroke fill markers;stroke-width:4"/>
 <circle cx="72" cy="128" r="12" style="fill:#f9de81;paint-order:stroke fill markers;stroke-width:4"/>
 <circle cx="72" cy="128" r="8" style="fill:#fff;paint-order:stroke fill markers;stroke-width:4"/>
 <circle cx="96" cy="84" r="12" style="fill:#f9de81;paint-order:stroke fill markers;stroke-width:4"/>
 <circle cx="96" cy="84" r="8" style="fill:#fff;paint-order:stroke fill markers;stroke-width:4"/>
 <circle cx="120" cy="128" r="8" style="fill:#fff;paint-order:stroke fill markers;stroke-width:4"/>
</svg>
