<svg style="clip-rule:evenodd;fill-rule:evenodd;stroke-linejoin:round;stroke-miterlimit:2" version="1.1" viewBox="0 0 192 192" xml:space="preserve" xmlns="http://www.w3.org/2000/svg">
    
        <g transform="translate(8 8)">
            <circle cx="88" cy="88" r="88" style="fill:#fff"/>
        </g>
        <g transform="matrix(.74615 0 0 .74615 24.406 24.385)">
            <path d="m82.398 31.32s16.153-2.797 28.441-1.296c0 0 6.349-7.372 27.921-8.669 0 0 0.341 9.83-4.233 20.684 0 0 30.505 54.229 35.438 64.229s-5.6 23.866-24.267 28.8c0 0-9.083-16.533-25.504-26.506-25.882-15.72-38.866-31.078-34.496-49.894 0 0-0.639 24.512 36.517 43.788 8.543 4.432 22.664 16.13 26.55 23.278 0 0 16.933-2.533 14-16.8-1.301-6.328-7.217-12.934-15.067-25.303-12.009-18.923-17.882-30.708-23.066-38.297 0 0 4.096-7.992 4.437-13.637 0 0-9.404 0.459-19.132 8.992-4.393-0.82-8.94-1.252-13.596-1.252-37.473 0-67.896 27.922-67.896 62.313s30.082 63.473 67.555 63.473c19.309 0 31.664-3.681 49.312-20.002-6.194 11.891-22.741 25.633-50.638 25.541-39.496-0.128-73.562-31.815-73.562-70.345 0-35.127 26.651-64.229 61.286-69.097" style="fill:#4a4a4a"/>
        </g>
    
</svg>
