<?xml version="1.0" encoding="UTF-8" standalone="no"?>
<svg
   width="192"
   height="192"
   version="1.1"
   id="svg12"
   sodipodi:docname="lutris-working.svg"
   inkscape:version="1.2.2 (b0a8486541, 2022-12-01)"
   xmlns:inkscape="http://www.inkscape.org/namespaces/inkscape"
   xmlns:sodipodi="http://sodipodi.sourceforge.net/DTD/sodipodi-0.dtd"
   xmlns="http://www.w3.org/2000/svg"
   xmlns:svg="http://www.w3.org/2000/svg">
  <defs
     id="defs16">
    <linearGradient
       id="linearGradient4146">
      <stop
         id="stop4148"
         offset="0"
         style="stop-color:#ffba00;stop-opacity:1;" />
      <stop
         id="stop4150"
         offset="1"
         style="stop-color:#ff7f02;stop-opacity:1;" />
    </linearGradient>
    <linearGradient
       id="linearGradient4520">
      <stop
         id="stop4522"
         offset="0"
         style="stop-color:#794d3b;stop-opacity:1;" />
      <stop
         id="stop4524"
         offset="1"
         style="stop-color:#5e3c2e;stop-opacity:1;" />
    </linearGradient>
    <linearGradient
       id="linearGradient4214">
      <stop
         id="stop4216"
         offset="0"
         style="stop-color:#e5dfdd;stop-opacity:1;" />
      <stop
         id="stop4218"
         offset="1"
         style="stop-color:#ffffff;stop-opacity:1;" />
    </linearGradient>
  </defs>
  <sodipodi:namedview
     id="namedview14"
     pagecolor="#ffffff"
     bordercolor="#000000"
     borderopacity="0.25"
     inkscape:showpageshadow="2"
     inkscape:pageopacity="0.0"
     inkscape:pagecheckerboard="0"
     inkscape:deskcolor="#d1d1d1"
     showgrid="false"
     inkscape:zoom="0.95000001"
     inkscape:cx="292.10526"
     inkscape:cy="96.842104"
     inkscape:window-width="3440"
     inkscape:window-height="1371"
     inkscape:window-x="0"
     inkscape:window-y="0"
     inkscape:window-maximized="1"
     inkscape:current-layer="svg12" />
  <path
     style="fill:#f8c18c;fill-opacity:1;stroke:none;stroke-width:0.843586"
     d="m 142.10911,41.560933 -0.18625,6.729535 -49.576858,3.94032 -37.36068,24.505252 -8.852621,40.96383 c 0,0 6.018125,26.47681 11.153428,31.84354 5.135287,5.36673 15.754801,20.75933 28.858654,23.44269 13.103852,2.68337 24.259837,5.71609 34.884577,3.03272 10.62475,-2.68336 17.71619,-5.89941 17.71619,-5.89941 l 4.42631,-2.14725 c 0,0 -1.08934,0.96391 -2.83766,2.20259 21.14311,-13.69377 35.14753,-37.64887 35.14753,-64.9046 0,-26.485138 -13.22447,-49.844482 -33.37262,-63.709217 z"
     id="path2996-71-2"
     inkscape:connector-curvature="0"
     sodipodi:nodetypes="cccccssscccsc" />
  <path
     style="fill:#8e6f60;fill-opacity:1;stroke:none;stroke-width:0.843586"
     d="m 130.87081,16.946183 c 0,0 1.86854,-4.656211 3.6125,-4.782055 1.74396,-0.125844 2.74052,1.006752 3.86164,2.265184 1.12112,1.25844 3.36336,3.146092 3.36336,3.146092 0,0 10.21466,-3.523616 21.67501,2.76856 11.46034,6.292175 13.07974,8.179835 15.32198,12.584359 2.24225,4.404524 1.24569,15.478755 1.24569,15.478755 l 1.33913,6.606786 -2.83395,3.71239 -19.93105,-3.397772 -23.79267,-17.743947 z"
     id="path3970-2-2"
     inkscape:connector-curvature="0"
     sodipodi:nodetypes="csscsscccccc" />
  <path
     sodipodi:nodetypes="cccccssscccccsccsccccssssccc"
     style="fill:#000000;fill-opacity:0.14779212;stroke:none;stroke-width:0.843586"
     d="m 142.12163,41.563663 -3.96046,5.4583 L 92.366674,52.215297 54.99144,76.724653 46.152525,117.6884 c 0,0 6.011696,26.48219 11.147,31.84891 5.135287,5.36673 15.747205,20.76613 28.851057,23.4495 13.103853,2.68336 24.258808,5.70397 34.883548,3.02061 10.62476,-2.68337 17.73029,-5.88225 17.73029,-5.88225 l 4.43257,-2.14622 c 0,0 -1.11056,0.96053 -2.85888,2.19922 2.3944,-1.55079 4.69671,-3.25698 6.89803,-5.06085 -12.2693,7.75732 -27.23292,11.65686 -35.72285,11.6585 -31.54547,0 -57.125099,-25.81485 -57.125099,-57.6831 0,-11.25031 2.688818,-22.239451 8.156981,-31.186501 3.850875,1.670422 7.905399,4.510502 10.465065,8.664389 0.411855,0.599773 0.69512,1.28748 1.154042,1.854762 2.25959,2.79315 4.7001,3.51581 7.160308,3.63003 5.257154,0.15463 7.739184,-3.810385 7.973384,-9.141323 0.0067,-0.41818 0.03802,-0.209048 0.009,-0.575167 -0.166257,-3.552715 -5.349049,-16.679395 -13.962418,-18.184427 1.507582,-1.171972 3.078599,-2.267202 4.721082,-3.259082 5.547578,-3.350112 17.334589,-7.152064 33.677055,-4.663402 8.28787,1.262095 15.07827,3.066687 25.5463,6.438674 12.14907,3.913485 18.90051,9.379636 28.24781,10.466158 1.57292,0.182839 3.16072,0.109997 4.69485,-0.185476 C 167.13481,65.90908 156.36562,51.365523 142.12162,41.563663 Z"
     id="path2996-71-9-9"
     inkscape:connector-curvature="0" />
  <path
     style="fill:#8e6f60;fill-opacity:1;stroke:none;stroke-width:0.843586"
     d="m 94.390638,7.9674561 c -47.728597,0 -86.4210087,39.0883119 -86.4210087,87.3052589 0,48.216965 38.8698407,88.634705 86.4210087,88.640045 31.022292,0.93148 59.800362,-13.66156 69.286052,-37.43613 -3.49997,1.63166 -7.34994,5.56194 -10.25273,8.13436 -5.47328,4.85037 -11.41135,5.83336 -18.95993,9.80542 -14.63173,7.69919 -30.45657,6.6766 -45.219238,3.39996 C 77.245321,165.15302 64.083783,159.22509 57.021178,149.74257 49.958573,140.26005 45.81254,117.74139 45.81254,117.74139 l 8.896441,-41.16661 37.545629,-24.62656 49.82228,-3.959831 0.18717,-6.762848 c 7.52124,5.175664 14.07981,11.673258 19.35637,19.15399 h 12.00139 C 160.29126,29.533282 129.83704,7.9674561 94.390638,7.9674561 Z"
     id="path2996-7-5-8"
     inkscape:connector-curvature="0"
     sodipodi:nodetypes="ssccssazcccccccs" />
  <path
     style="fill:#ececec;fill-opacity:1;stroke:none;stroke-width:0.843586"
     d="m 126.80539,34.117881 c -16.7364,0.08629 -26.48312,2.04608 -43.84986,9.536648 -22.032329,10.354092 -44.153189,29.741388 -44.277758,61.429121 -0.145174,36.92857 29.63997,66.861 66.194808,66.861 18.88943,0 39.23036,-6.97092 51.28844,-19.79135 -12.977,10.97762 -34.3638,14.45509 -44.46133,14.45704 -31.545469,0 -57.332029,-23.70758 -57.332029,-55.57583 0,-20.135303 9.769594,-34.969211 25.687371,-44.581762 5.547578,-3.350112 17.327488,-7.160366 33.669948,-4.671703 8.28787,1.262094 15.07622,3.068289 25.54425,6.440277 12.14907,3.913484 18.91651,9.380322 28.26381,10.466844 10.64559,1.237438 21.89192,-8.896898 13.5869,-24.659925 0,0 -1.50529,1.517505 -2.76363,2.280234 -1.25833,0.762729 -3.01529,-0.24471 -8.04863,-2.024408 -5.03335,-1.77969 -5.7915,-3.823167 -12.83819,-8.653773 -7.04668,-4.830606 -7.04353,-10.163342 -27.68026,-11.434552 -0.96735,-0.05961 -1.968,-0.08817 -2.98384,-0.07784 z"
     id="path3004-7-2"
     inkscape:connector-curvature="0"
     sodipodi:nodetypes="ccssccssssscsssscc" />
  <ellipse
     style="fill:#56595b;fill-opacity:1;stroke:none;stroke-width:0.367401"
     id="path3026-6-2"
     cx="155.52246"
     cy="45.592304"
     rx="6.527431"
     ry="6.5942197" />
  <ellipse
     style="fill:#56595b;fill-opacity:1;stroke:none;stroke-width:0.212418"
     id="path3026-4-1-7"
     cx="179.66791"
     cy="50.226879"
     rx="3.3837051"
     ry="4.2521873" />
  <path
     style="fill:#8e6f60;fill-opacity:1;stroke:none;stroke-width:0.843586"
     d="m 69.229485,50.56363 c -4.253002,1.046273 -14.617167,3.589056 -20.774776,12.031416 -5.913883,8.10818 -5.433953,17.561803 -5.565715,20.079226 1.712582,-2.785043 6.401007,-2.390036 9.633349,-1.88487 7.621556,1.191126 15.437016,3.24081 20.323374,11.170509 0.411854,0.599773 0.704285,1.292551 1.163207,1.859832 2.25959,2.793149 4.701653,3.509524 7.161861,3.623743 5.257154,0.15463 7.739411,-3.809694 7.97361,-9.140632 0.0067,-0.41818 0.0017,-0.217857 -0.02745,-0.583976 -0.173711,-3.712051 -5.814217,-17.872505 -15.117988,-18.308245 -0.103688,-0.0034 -0.208743,-0.0025 -0.311525,-0.0092 -5.160852,-0.318553 -9.171807,-4.759502 -9.021463,-10.060196 0.518144,-3.434112 2.105107,-6.149831 5.219184,-8.353687 z"
     id="path3889-4-8"
     inkscape:connector-curvature="0"
     sodipodi:nodetypes="cscacscccccccc" />
  <path
     style="fill:#56595b;fill-opacity:1;stroke:none;stroke-width:0.843586"
     d="m 177.9507,56.477265 c 0,0 -0.84733,1.479443 -2.67486,2.366049 -0.7504,0.364059 -2.06823,-0.54918 -3.30511,0.720275 -2.62629,5.325613 3.78932,9.771963 6.77899,9.646119 2.98966,-0.125844 5.34826,-3.168985 5.22371,-5.811709 -0.12459,-4.089914 -6.02273,-6.920734 -6.02273,-6.920734 z"
     id="path3950-2-5"
     inkscape:connector-curvature="0"
     sodipodi:nodetypes="cscscc" />
  <path
     style="fill:#ffffff;fill-opacity:0.25087184;stroke:none;stroke-width:0.843586"
     d="m 94.390621,7.9674561 c -47.72858,0 -86.4209917,39.0883119 -86.4209917,87.3052589 0,0.753394 0.0141,1.49741 0.033152,2.24687 1.200364,-47.159991 39.4162697,-85.013901 86.3879737,-85.013901 13.158345,0 25.635035,2.971502 36.796915,8.286712 0.59297,-1.294289 1.97589,-3.997527 3.30313,-4.093305 1.74395,-0.125836 2.73253,1.010678 3.85366,2.269118 1.12113,1.258432 3.3692,3.147839 3.3692,3.147839 0,0 10.20821,-3.522531 21.66856,2.769653 11.46034,6.292176 13.08428,8.175707 15.32654,12.580231 0.93306,1.832844 1.3041,4.821008 1.42036,7.686066 0.12135,-3.62214 0.0503,-9.335367 -1.42036,-12.224294 -2.24226,-4.404524 -3.8662,-6.288055 -15.32654,-12.58023 -11.46035,-6.292184 -21.66856,-2.769654 -21.66856,-2.769654 0,0 -2.24807,-1.889407 -3.3692,-3.147839 -1.12113,-1.25844 -2.10971,-2.394953 -3.85366,-2.269118 -1.32724,0.09578 -2.71016,2.799017 -3.30313,4.093306 C 120.02579,10.938959 107.5491,7.9674561 94.390755,7.9674561 Z"
     id="path2996-7-8-5-3-8"
     inkscape:connector-curvature="0"
     sodipodi:nodetypes="cscscsscsscsscsscsc" />
</svg>
