<?xml version="1.0" encoding="UTF-8"?>
<svg version="1.1" viewBox="0 0 192 192" xmlns="http://www.w3.org/2000/svg"><rect x="20" y="20" width="152" height="152" rx="10" ry="10" style="fill:#98dc9a"/><path d="m105.48 43.248c-3.4985-.54611-7.2124-.73392-11.018-.58398-4.0304.15849-8.1739.70887-12.283 1.584-6.2603-4.7145-13.275-6.8568-20.691-7.498-3.15-.26-6.3706-.1993-9.5605.2207-2.6201.34889-4.709 2.1064-5.6055 4.4082-1.6448.08682-3.209.74806-4.4141 1.8906-2.3629 2.2284-2.8379 5.7154-1.3535 8.4395-.39989 2.1725-.61373 4.7891-.45703 7.9902.2367 4.8354 1.5394 10.708 4.9727 16.486-1.3052 4.3306-2.2201 9.0824-2.6719 14.115-1.0784 12.079 1.1558 25.97 10.752 36.299.41047 1.8032 1.1751 4.2901 2.6172 6.8203 1.5699 2.7603 4.4647 5.6872 8.291 7.5371-.3086 1.7206.0293 3.5366 1.0215 5.0606 0 0-11.144 18.186-15.67 25.982h112.59c5.54 0 10-4.46 10-10v-3.5898c-.6625-.13716-1.3406-.2056-2.0254-.19922.0177-.30058.0308-.60658.0352-.92188 0-1.16-.40996-2.2787-1.1699-3.1387-2.04-2.33-4.8291-2.5306-6.1191-2.6406-.4259-.0355-.73581-.0436-.99804-.041-.55346-2.9886-3.0235-5.3758-6.1934-5.6894-.36-.04-3.0094-.70832-5.8594-1.8184s-6.1691-2.5906-9.2891-4.0606c-.0996-.12857-.2025-.2514-.30469-.375.80722-.0179 1.616-.17618 2.3945-.48242 1.3808.37572 2.8954.33303 4.3789-.30274 7.03-3.26 11.721-10.392 12.131-18.562.35647-7.0947-2.678-14.755-9.1934-21.229 1.4638-10.057.35177-19.227-3.0898-27.029 4.6873-7.8164 5.1527-17.641 3.1855-28.688-.5881-3.6643-3.4943-5.9029-7.1094-6.0469-1.03-2.2702-3.1839-3.8202-5.6641-4.0781-15.231.51087-26.586 6.7816-31.627 10.141z" style="fill:#FFF"/><path d="m79.79 51.89c-4.28-5.89-16.38-9.38-26.94-7.975 0 0-2.05 2.955-2.02 5.27 0 0 .27 3.765-2.55.765-.98 2.49-3.68 14.2 4.51 25.21" style="fill:#98dc9a;stroke-linecap:round;stroke-linejoin:round;stroke-width:2.5;stroke:#56595b"/><path d="m107.11 50.69s11.78-9.97 30.23-10.58c0 0 .97 3.32 1.54 3.54 0 0 2.41-.09 4.075.52 2.165 11.89 1.225 20.3-3.995 26.61" style="fill:#98dc9a;stroke-linecap:round;stroke-linejoin:round;stroke-width:2.5;stroke:#56595b"/><path d="m116.25 53.57s6.4-5.86 9.35-6.68c2.96-.82 5.52-.45 6.76.225 0 0-.91 2.835 4.64 2.205 0 0 1.79 12.59-1.09 17.91" style="fill:#FFF;stroke-linecap:round;stroke-linejoin:round;stroke-width:2.5;stroke:#56595b"/><path d="m128.52 47.43c-3.62-.1-6.3 2.67-9.01 4.65-.31.29-1.87 1.08-1.01 1.42 5.16 2.54 10.76 5.42 14.88 9.51.7.63 1.37 1.7 2.12 2.15 1.14-3.9.94-8.22.94-12.22-.18-.71.33-2.39-.5-2.58-1.69-.04-3.48-.8-4.31-2.32-.66-.78-1.74-.48-2.64-.61z" style="fill:#FFF"/><path d="m73.93 53.79c-.87-1.47-11.76-4.7-16.33-4.96-2.78 1.24-1.79 4.67-1.79 4.67-1.49 1.1-4.17.58-4.17.58-.59 2.52.84 11.2 3.69 14.13" style="fill:#FFF;stroke-linecap:round;stroke-linejoin:round;stroke-width:2.5;stroke:#56595b"/><path d="m56.63 65.4c-3.26-7.35-1.27-8.67 1.03-8.68s-3.55-8.17 12.93-2.64" style="fill:#d3b69a"/><path d="m78.7 132.67-8.25-4.97c-1.1 6.32 2.85 8.1 2.85 8.1-12.32 1.15-13.625-12.54-13.625-12.54-18.075-17.12-9.155-49.51-.805-58.82 9.11-12.33 33.78-17.07 48.24-13.75 25.9 6.9 40.92 23.17 35.125 50.885 14.715 11.835 10.765 26.615 1.685 30.825 0-44.303-65.22.27-65.22.27z" style="fill:#98dc9a"/><path d="m120.34 55.15c5.3-5.5 7.8-4.66 7.82-3.07 0 1.1 1.71 1.27 2.76 1.28.44 0 .87-.09 1.25-.3 1.3-.69 4.85-1.73.84 10.67" style="fill:#d3b69a"/><path d="m105.88 130.09c-9.92 1.77-21.571-2.2698-29.601 3.2402-1.52 1.99-4.46 6.51-5.33 8.87 2.09 2.09 1.3991 1.9623 3.8091 3.6923-5.3787 8.9992-10.622 17.817-15.393 26.108h101.91c2.4286-4.2065 2.6343-9.6622 2.8679-14.2-1.6578-1.6578-5.7874-1.4788-8.5085-4.02-10.067-2.9287-20.616-7.6381-29.372-12.1 0 0-1.8889-1.6996-1.8789-3.4596-3.19-3.74-7.1013-6.9108-11.531-9.0508-2.3384-.62659-4.71.39676-6.9688.91992z" style="fill:#d3b69a"/><path d="m84.79 133.01c1.16 7.17 11.94 11.94 13.94 10.94 1.75-2.51 8.46-8.65 6.54-11.22-.79-1.19-2.7-2.42-4.12-2.46-4.422.0582-9.0461-.60359-13.39-.175-1.38.385-2.64 1.445-2.97 2.915z" style="fill:#FFF"/><path d="m77.84 134.03c4.8508 7.3499 18.269 18.788 31.811 25.061.90369.26366 2.2322.0435 3.2695.13086.55215.31878 1.4936 2.6153 2.0996 4.0781-2.6827 1.0819-5.5218 2.4558-8.0098 3.6211 0 1.2616.87661 4.2594 1.6973 5.0801h22.896c-2.6365-2.6365-4.8857-5.8954-6.9941-8.5-.33-.47-1.9815-1.9823-2.5215-2.0723-1.1211 0-2.4861.29121-3.9785.75586-.58066-1.5685-1.5556-3.8173-2.5-4.2734-4.0186-2.0317-29.537-20.146-32.76-24.75-1.69-.36686-3.4026.42404-5.0098.86914z" style="fill:#f9de81"/><path d="m166.93 162.53c-.30807.10943-.65544.24093-.96351.36018-.49746 2.9663-1.3026 5.9969-2.0449 8.9257 3.7794-.73148 6.7792-3.552 7.7605-7.3116" style="fill:#fcecdc"/><path d="m95.01 78.4c-4.59 6.54-6.85 13.87-6.67 19.71l-7.02-3.39c-4.2042-5.8326-3.3799-10.299-3.1885-17.079-1.4722 2.5498-5.2032 13.44-5.6344 17.032-.19315 1.4942-2.4796 1.5435-3.1796-1.7435-.27-1.29-1.5474-3.47-1.3374-4.61.21-1.16.07-1.08-.43.24-2.32 6.07-3.55 11.82-3.58 16.75-.06 3.61-3.41 2.51-4.37-.2-2.7228-8.9671-2.1341-16.494.84-25.15-7.1592 12.4-9.4603 30.803 7.77 41.98 9.4992 4.5818 19.179 6.8481 28.59 6.83 8.1184.1109 28.969-4.1996 32.71-11.27 1.5338-2.6566-2.52-9.45-2.52-9.45l-1e-4 5e-4c12.696-4.8641 2.0079-9.8518-2.82-11.48-10-3.78-17.97-5.86-23.16-15.59-1.0669-2.033-1.811-4.3316-2.525-6.455 0 0-2.215 2.085-3.475 3.875z" style="fill:#fcecdc"/><path d="m131.19 124.46c.92.69 2.7612-.92117 3.5312.29883.81 1.61 2.2802-2.3696 1.9902-.34961-.23 1.99-1.3509 4.7988-1.3809 6.0688l5.0509-8.2583c.71.42.46906-1.3103 1.2891-.57031 1.78 1.93.52938 4.6794-.64062 6.6094-.39.96999-1.4102 2.0501-1.4102 3.0801.97.17 1.7512-1.2407 2.5312-1.7207l1.6699 1.3203c.29.82 2.329-1.3296 2.709-1.5996 3.32-2.96 5.3417-7.5499 4.7817-11.92-.85064-2.7787-5.3398-13.583-5.5864-13.758-1.0966-.15535-4.8892-.55009-8.9121-.52149-.92835.007-1.8684.0359-2.791.0957-2.4604.15951-4.7589.49237-6.4824 1.4102-.86177.4589-1.6338 1.1191-1.9922 2.0781-.3584.95906-.19699 2.0694.33203 3.0977.31605.61377 1.0698.85512 1.6836.53906 5.6022 1.5011 5.8168 6.7022 3.627 14.1z" style="fill:#71a372;stroke-linecap:round;stroke-linejoin:round"/><path d="m68.21 102.59c.46-.88 1.67-2.13 2.81-3.02.35-.27 1.55-1.02 1.6-1.02l1.75 16.25c-.03-.01-.96-.2-1.45-.445-1.43-.715-2.45-1.365-3.55-2.265-.6-.49-1.77-1.66-2.28-2.28-.39-.47-1.33-1.77-1.34-1.81z" style="fill:#FFF"/><path d="m77.92 113.85c-5.67.15-6.18-10.29-5.68-14.05l-.01.01c.05-.35.26-1.27.45-1.5.31-.38 1.71-1 3.35-1.53 1.56-.5 3.19-.84 5.1-1.07 1.01-.12 2.17.06 3.04.62.73.47 1.54 1.49 2.01 2.43.27.54.27.85.59.99.33.02.14.64.14.64-1.11 2.57-1.62 6.55-2 8.88z" style="fill:#ba6561"/><path d="m57.15 116c-1.96-.56-2.15.48-.82 1.75 1.25 2.07 3.37 3.53 4.47 5.68.56 4.31 2.8 8.87 6.99 10.67.66.13 2.34 1.25 2.72.33-1.8495-6.9025 2.9167-5.7846 8.61-2.75 2.9126 1.6816 6.3152-1.2554 5.77-3.29-3.7169-.99595-15.99-5.75-15.99-5.75.48-.58.64-.34-.81-1.17-.36-.21-.72-.44-1.04-.7-2.21-1.8-4.64-4.51-6.53-6.47.71171 2.6561-1.6986 2.1478-3.37 1.7z" style="fill:#71a372"/><path d="m63.76 105.75c.41-9.91 3.75-16.98 3.75-16.98m6.68 6.06c.53-6.01 2.82-10.5 2.82-10.5m12.75 10.78s.85-9.53 9.41-19.52m.1-3.47c6.43 12.84 16.58 22.55 31.04 22.78m-51.8-16.51c-.19 1.97 1.63 12.33 6.41 16.64" style="fill:none;stroke-linecap:round;stroke-linejoin:round;stroke-opacity:.15;stroke-width:2.5;stroke:#000"/><path d="m74.656 144.68c-.38672.0198-.75781.22383-.97656.58008-5.2247 9.2701-10.479 17.007-15.809 26.74h2.9902c4.7703-8.6282 9.5656-16.657 14.889-25.499.34-.57.15984-1.3102-.41016-1.6602v.01c-.21375-.1275-.45156-.18182-.68359-.16992z" style="fill:#56595b"/><path d="m78.809 172h2.3574c-.09488-1.9406.0903-6.5885.48438-10.01.44-3.82.93945-7.1894.93945-7.1894.11-.75-.49-1.4209-1.25-1.3809v-.01l1.4e-5 2e-4c-.36.02-.69016.20023-.91016.49023-2.34 3.16-2.459 7.6094-2.459 7.6094-.03.66999.47867 1.2295 1.1592 1.2646-.34641 3.2423-.67774 6.9909-.32129 9.2256z" style="fill:#56595b"/><path d="m106.95 165.71c-.6066.02553-1.109.51251-1.1465 1.1406 0 0-.05109.93984.12891 2.0898.15912.96311.43388 2.0731 1.1875 3.0606h2.5918c.05169-.36085-.07694-.77457-.36914-1.0606-.53-.52-.87953-1.4989-1.0195-2.3789s-.10937-1.5703-.10937-1.5703c.04-.66999-.47063-1.2295-1.1406-1.2695v-.00976c-.04125-.0025-.0826-.00366-.12304-.00196z" style="fill:#56595b"/><path d="m130.1 167.46c-.02621.00046-.05198.00373-.07813.00586-.02618.00204-.052.00403-.07812.00781-.01435.00208-.02867.00521-.04297.00782-.01661.00302-.03234.00605-.04883.00976-.01568.00353-.03128.00754-.04688.01172-.03977.01062-.08045.02245-.11914.03711-.03823.01449-.07451.03235-.11133.05078-.00892.00449-.01848.00698-.02734.01172-.00794.0043-.01548.00939-.02344.01367-2.8056 1.5092-6.2383 1.877-6.2383 1.877-.30172.02743-.57564.1714-.77344.39454l-2.1562-.51563h-.00977c-.095-.0225-.19164-.03305-.28711-.0332-.28641-.00047-.5657.09992-.7832.29492l-1.4297 1.25c-.33549.29523-.46744.71987-.38867 1.1191h6.457l.15234-.19922c.66171-.07153 3.0511-.38528 5.6797-1.6016.69842.88443 1.3373 1.4479 1.8281 1.8008h4.3008c-2.0152-1.2049-3.4262-2.1969-4.7598-4.0098-.15991-.23827-.39126-.40021-.64844-.47851-.00196-6e-4-.00389-.00137-.00586-.00195-.00059-.00019-.00135.00018-.00195 0-.02315-.00689-.04679-.0121-.07031-.01758-.01433-.00337-.02846-.00891-.04297-.01172h.00977c-.02647-.00512-.05347-.0082-.08008-.01172-.05132-.00678-.10244-.01172-.1543-.01172-.00131-1e-5-.0026 0-.00391 0-.00586-1e-5-.01171-7e-5-.01757 0z" style="fill:#56595b"/><path d="m125.5 140.27s21.95 11.75 29.35 12.48m-44.69-24.87 2.91.05c4.47 1.98 9.34 5.88 12.49 9.83 0 0 .23 2.29-.87 4.43m-37.2-13.17s-3.28 1.36-3.7 3.85c-.14 3.89 15.31 14.5 22.38 18.84 3.83 2.35 10.46 5.69 10.46 5.69s2 1.32 2.22 4.23m-6.45-1.35c-6.57 1.02-30.45-16.53-36.12-26.95m30.73 33.59s13.35-8.09 18.195-4.635c-3.745-4.585-6.985-12.435-6.985-12.435m11.91 18.81-4.93-6.38m-41.4-29.41c-1-1.15-2.835-.58-2.835-.58l-4.685 1.04s-4.24 4.7-5.33 8.87c0 0 4.2 4.43 7.31 6.49" style="fill:none;stroke-linecap:round;stroke-linejoin:round;stroke-width:2.5;stroke:#56595b"/><path d="m154.85 151.54c-.55652-.004-1.0611.3893-1.1836.9668-.14.64999.27946 1.2897.93946 1.4297.28999.06.92148.60016 1.7715 1.4102s2.0092 1.801 3.6992 2.041c.09.01.17953.02.26953 0 0 0 .87133-.0705 1.8613.0195.77.07 1.4284.29023 1.8184.49023-.09 2.65-.55938 5.4899-1.1094 7.9199-.52287 2.2832-1.2986 4.869-1.6621 6.1797h.74219c.66034 0 1.2455-.0518 1.9258-.1837.29448-1.1402.82301-3.1724 1.3438-5.4569.62-2.71 1.2005-5.9701 1.2305-9.0801 0-.3-.10078-.5786-.30078-.8086-1.05-1.2-2.5591-1.3607-3.7891-1.4707-1.09-.09-1.8195-.0298-2.0195-.01-.90999-.13-1.5913-.67039-2.3613-1.4004s-1.5386-1.7295-2.9336-2.0195c-.0806-.0175-.16268-.0267-.24218-.0273z" style="fill:#56595b"/><path d="m167.37 162.24c-.62.24-.92969.94055-.67969 1.5606.24.62.94055.92969 1.5606.67969 1.33-.52 2.3208-.45063 3.0508-.14063.12069.0512.27362.11223.38219.17774.20867-.80485.31405-1.6342.31508-2.5059-.61643-.22482-1.2979-.34082-2.0274-.32227-.82.0198-1.7016.20078-2.6016.55078z" style="fill:#56595b"/><path d="m130.32 94.9s3.3-.17 3.45 2.41" style="fill:none;stroke-linecap:round;stroke-linejoin:round;stroke-width:2.5;stroke:#71a372"/><circle cx="96.36" cy="167.54" r="2.39" style="fill:#FFF;stroke-linecap:round;stroke-linejoin:round;stroke-width:2.5;stroke:#56595b"/><path d="m97.7 155.84c-1.9-.52-3.94.42-4.76 2.44 1.24 2.8 3.61 3.2 5.06 3.11 0 0 2.4-2.92-.3-5.56" style="fill:#FFF;stroke-linecap:round;stroke-linejoin:round;stroke-width:2.5;stroke:#56595b"/><path d="m127.55 110.03c.62 4.35.65 6.47.35 9.41" style="fill:none;stroke-linecap:round;stroke-linejoin:round;stroke-opacity:.15;stroke-width:3;stroke:#000"/><path d="m91.11 129.37c.0036 6.2539-.70275 12.453 6.74 16.75-1.4383-5.3679-.71118-11.006.90692-16.655z" style="fill:#fcecdc"/><path d="m114.8 118.29s-.17-1.98.27-2.62c.43-.63.99.94.99.94s.34-.24.06-1.62 2.14 1.31 2.14 1.31 1.12-.17.54-2.18m-6.42 4.62s-.28-2.07.61-2.56m-41.3-.09 1.46 2.54 1.5-1.71m-7.03-3.09-1.8 3.22s2.62-.61 3.16-1.17-.67 1.87-.67 1.87 2.54-.66 3.37-1.67-.26 1.07-1.26 1.81" style="fill:none;stroke-linecap:round;stroke-linejoin:round;stroke-width:2.5;stroke:#ff837d"/><path d="m115.74 109.7-10.38 1.59s-2.57-10.133-2.57-11.27c-.21961-.81961-.1132-1.2026.35-1.47.9-.81 2.18-1.91 3.44-2.51 1.82-.88 3.75-1.31 5.71-1.38 1.24-.04 2.8.11 3.29.33.97072.90146 1.3297 1.9556 1.85 3.2z" style="fill:#ba6561"/><path d="m115.58 94.99c2.2327.06432 5.25 2.06 6.3 3.63 1.38 2.3 1.34 3.33.29 6.93 0 .02-6.72 6.46-6.72 6.45 0 0 4.7517-12.388.13-17.01z" style="fill:#FFF"/><circle cx="114.18" cy="99.66" r="1.59" style="fill:#FFF"/><path d="m110.84 112.78c-.64-.09-1.91-.41-2.56-.64-1.95-.71-3.09-1.76-3.57-3.29-.1-.33-.29-1.22-.29-1.37.82954-.44207 2.2786-.78328 3.3-.85 1.7189-.12554 4.1254.16142 5.85.69.43.17 1.66.73 1.71.78.03.03-.31.91-.53 1.38-.82 1.7-1.98 2.93-3.03 3.22-.27.07-.66.11-.86.09z" style="fill:#ff837d"/><path d="m108.75 102c.41-1.88 3.46-1.8 3.92-.18.38 1.32.34 3.75.12 5.34-.11.82-.62 1.56-1.38 1.88-1.1.47-2.23.03-2.94-1.88-.44-1.55.28-5.16.28-5.16z" style="fill:#56595b"/><path d="m73.21 108.66c0-.25 3.16-1.1 4.57-1.21 1.76-.15812 3.9997.14187 5.31.26.18 0 1.86.43 1.92.49 0 4.1296-2.1722 5.5185-4.42 5.9-.62.09-3.59-.09-4.19-.2-1.9249-1.7904-2.7364-2.7194-3.19-5.24z" style="fill:#ff837d"/><path d="m78.2 103.89c.79-2.87 3.62-2.02 4.26-.21.64 1.82.62 4.97.18 5.84-.45.87-2.83 2.28-4.01 0 0 0-1.23-2.59-.43-5.64z" style="fill:#56595b"/><circle cx="83.64" cy="101" r="1.48" style="fill:#FFF"/><path d="m97.85 146.12c-1.79-7.44-1.46-14.85 1.73-16.32 3.39-1.57 8.59 2.31 6.49 5.89-2.15 3.67-8.22 10.43-8.22 10.43m-6.74-16.75c-.23 5.33-.90559 11.323 6.74 16.75" style="fill:none;stroke-linecap:round;stroke-linejoin:round;stroke-width:2.5;stroke:#56595b"/><path d="m72.96 100.96s-3.64 13.87 5.52 14.16c8.35.27 8.09-5.69 7.77-13.79m-7.55 31.34-8.25-4.97c-1.1 6.32 2.85 8.1 2.85 8.1-12.32 1.15-13.625-12.54-13.625-12.54-18.075-17.12-9.155-49.51-.805-58.82 9.11-12.33 33.78-17.07 48.24-13.75 25.9 6.9 40.92 23.17 35.125 50.885 14.715 11.835 10.765 26.615 1.685 30.825m-4 .135c9.54-5.835 6.75-11.865 6.75-11.865m-80.51-13.76s-.1-3.42 1.69-5.74 5.33-5.51 13.475-6.45c0 0 3.675-.69 5.985 4.04-.76-11.24 8.13-23.56 11.97-26.64 2.05 13.13 12.93 21.86 26.46 23.88 0 0 7.71 3.7 9.3 12.09m3.9 9.4s3.34 6.54-3.96 15.31m-7.99-23.55s12.15 3.79-.35 20.24c0 0 4.81-5.2 0 0 11.38-10.47 7.68.34 3.31 4.31m-60.84-44.73s-.78 6.49 3.205 7.46c.925-12.17 6.845-20.54 6.845-20.54-2.68 11.9-.61 13.42 2.16 18.73m-20.71-.6c-.83 3.3-1.79 10.5 2.05 12.79.17-6.1.39-13.13 7.87-27.94m-10.09.99c-4.19 4.34-9.31 24.6-.74 35.22m31.94 7.74c5.66 3.96 9.89 3.37 12.26-1.97m23.09-11.7c3.69 2.57 5.12 8.18 2.305 9.855-5.455 4.495-19.535 9.615-24.875 9.895-3.01.16-15.71 2.85-36.04-5.98" style="fill:none;stroke-linecap:round;stroke-linejoin:round;stroke-width:2.5;stroke:#56595b"/><path d="m103.63 100.39s-.73 5.01-.4 7.35c.31 2.23 1.23 5.15 7.24 6.2 3.64.64 6.01-4.6 6.2-6.55.1-1.02.23-7.12.13-8.23m-14.63-1.36c8.65-7.7 20.42-3.66 21.43 3.365 0 0 .16 1.775-1.52 3.165" style="fill:none;stroke-linecap:round;stroke-linejoin:round;stroke-width:2.5;stroke:#56595b"/></svg>
