<?xml version="1.0" encoding="UTF-8"?>
<svg version="1.1" viewBox="0 0 192 192" xmlns="http://www.w3.org/2000/svg">
 <g transform="matrix(7.1522 0 0 7.1522 -494.57 -371.61)" style="fill:#e5204c" aria-label="みる">
  <path d="m82.663 66.774-0.73312 1.3009q-0.86541-0.47956-1.8025-0.90399-0.79926 1.6316-1.9568 3.1585l-1.2513-0.76619q1.1135-1.3946 1.8411-2.9545-0.94258-0.37483-2.0671-0.60082-0.77721 1.7749-1.3891 2.3592-0.61185 0.57878-1.2733 0.57878-0.74414 0-1.2733-0.52917t-0.52917-1.3009q0-0.98116 0.96463-1.7859 0.97014-0.81029 2.5742-0.8599 0.47405-1.0638 0.88195-2.1663-1.5103 0.4079-2.508 0.52917l-0.36932-1.3505q1.6702-0.19844 4.0184-0.95912l0.61736 1.1245q-0.01102 0.11576-1.141 2.9711 0.98668 0.20946 2.0119 0.60082 0.31419-1.1135 0.48507-2.5852l1.4221 0.28112q-0.1819 1.5158-0.55122 2.8443 1.13 0.51814 2.0285 1.0142zm-7.5737-0.78824q-0.65044 0.13229-1.0253 0.51263-0.36931 0.37483-0.36931 0.678 0 0.3197 0.31419 0.3197 0.15985 0 0.47404-0.38034 0.31971-0.38034 0.60634-1.13z" style="fill:#ff837d"/>
  <path d="m88.991 64.079q0.48507-0.11576 0.94258-0.11576 1.367 0 2.1718 0.92604 0.81029 0.92053 0.81029 2.1718 0 1.3946-1.0638 2.2875-1.0583 0.88746-2.6899 0.88746-1.2788 0-2.0395-0.61736-0.75517-0.61736-0.75517-1.4883 0-0.74965 0.5457-1.2513 0.55122-0.50161 1.2954-0.50161 1.4332 0 2.3757 2.034 0.83785-0.39688 0.83785-1.2843 0-1.7694-1.9348-1.7694-1.0694 0-1.9348 0.47404-0.86541 0.47405-2.1497 1.8907l-1.0969-1.0804q2.5962-2.4639 4.4979-4.5034-1.582 0.15985-2.7451 0.13229l-0.28112-1.4773q0.42444 0.02205 0.86541 0.02205 1.7418 0 4.0569-0.38585l0.68902 1.152q-0.9977 1.0749-2.3978 2.497zm0.17088 4.7184q-0.47404-0.99219-0.9536-0.99219-0.35829 0-0.35829 0.30868 0 0.25907 0.33624 0.47405 0.34175 0.20946 0.97565 0.20946z" style="fill:#ff837d"/>
 </g>
</svg>
