<svg width="192" height="192" fill="none" version="1.1" viewBox="0 0 192 192" xmlns="http://www.w3.org/2000/svg">
 <path d="m97 23c-41.421 0-75 32.907-75 73.5l38-28.5 32 4 16 8 3.4902 6.8633c0.42141 0.71281 0.80741 1.4491 1.1289 2.2207l1.4824 2.916-0.32422 1.3164c0.13165 0.87802 0.22266 1.7689 0.22266 2.6836 0 4.586-1.3907 7.9562-3.0117 10.326-0.2861 0.41791-0.52478 0.87174-0.73828 1.3379l-0.00195 0.00391c-3.6e-4 7.7e-4 -0.0016 0.00118-0.00196 0.00195-1.217 2.6626-1.16 5.8922 1.375 7.2852 4.398 2.416 11.369 5.0449 20.879 5.0449 19.5 0 37.5-16.529 37.5-33.5 0-34-31.579-63.5-73-63.5z" style="fill:#96dfd3"/>
 <path d="m68.5 58c-23.676 0-43.205 13.512-46.113 30.984-2.67e-4 0.002571 2.66e-4 0.005242 0 0.007813-0.21492 2.0761-0.32061 4.1831-0.35547 6.3066 0.034985 2.3892 0.13891 5.2127 0.33789 8.4785 3.729 37.176 35.716 66.223 74.631 66.223 5.6336 0 10.778-0.49469 15.488-1.3594l-4.4883-16.641-40-36 10.406-29 8.4922-7 2.7637-0.82617c0.86881-0.32904 1.761-0.6108 2.6895-0.80273 0.001971-4.08e-4 0.003889-0.001547 0.00586-0.001953h0.003906c1.1737-0.24195 2.3905-0.36914 3.6387-0.36914 9.941 0 18 8.0589 18 18 0 4.586-1.3907 7.9562-3.0117 10.326-0.28692 0.4191-0.52635 0.87422-0.74023 1.3418 2.954-4.2179 4.752-8.9103 4.752-14.168 0-19.606-20.819-35.5-46.5-35.5z" style="fill:#9abeff"/>
 <path d="m95 78c-0.26017 0.02054-0.51674 0.061073-0.77539 0.089844 0.2738-0.026925 0.5546-0.028498 0.83203-0.042969-0.019909-0.012713-0.036197-0.035517-0.056641-0.046875zm-0.98047 0.11328c-0.55644 0.066638-1.1094 0.15213-1.6582 0.25586 0.54302-0.11194 1.0979-0.19424 1.6582-0.25586zm-1.6719 0.25977c-17.723 3.3599-31.331 25.697-30.998 44.9 0.35441 20.426 20.3 44.788 48.814 45.363 0.6812 0.01374 1.5628 7.3e-4 2.3242 0.0039 23.855-4.3787 36.352-18.43 42.229-27.908 2.188-3.53-1.2112-7.1513-5.1992-5.9883-6.897 2.012-16.128 4.2539-23.018 4.2539-23.305 0-48.5-18.596-48.5-42.998 0-8.5776 6.1133-15.923 14.348-17.627z" style="fill:#728dbe"/>
</svg>
