<svg width="192px" height="192px" enable-background="new 0 0 192 192" version="1.1" viewBox="0 0 192 192" xml:space="preserve" xmlns="http://www.w3.org/2000/svg"><defs>
	<linearGradient id="SVGID_1_" x1="65.856" x2="71.54" y1="117.57" y2="46.117" gradientUnits="userSpaceOnUse">
		<stop style="stop-color:#FDC394" offset=".0619"/>
		<stop style="stop-color:#FEA489" offset=".413"/>
		<stop style="stop-color:#FF8F82" offset=".7339"/>
		<stop style="stop-color:#FF877F" offset=".9433"/>
	</linearGradient>
	
	<linearGradient id="SVGID_2_" x1="45.239" x2="54.985" y1="103.15" y2="114.93" gradientUnits="userSpaceOnUse">
		<stop style="stop-color:#FDC394" offset=".0619"/>
		<stop style="stop-color:#FEA489" offset=".413"/>
		<stop style="stop-color:#FF8F82" offset=".7339"/>
		<stop style="stop-color:#FF877F" offset=".9433"/>
	</linearGradient>
	
	<linearGradient id="SVGID_3_" x1="133.06" x2="133.06" y1="48.015" y2="215.29" gradientUnits="userSpaceOnUse">
		<stop style="stop-color:#F9DE90" offset=".0052"/>
		<stop style="stop-color:#F9DB90" offset=".0437"/>
		<stop style="stop-color:#FCC993" offset=".3474"/>
		<stop style="stop-color:#FDC394" offset=".567"/>
	</linearGradient>
	
</defs>
<path d="m116.86 38.271-47.61 17.457s-9.246 2.232-9.246 13.803v52.775s1.339 8.932-7.17 13.6c0 0-13.872 7.713-13.872 7.714-6.395 3.527-12.958-2.792-12.958-8.932v-78.351s-0.471-10.149 8.663-15.427l51.372-29.432s10.565-8.119 22.135-0.609c12.122 7.868 8.686 27.402 8.686 27.402z" style="fill:url(#SVGID_1_)"/><path d="m117.52 144h-56.834s-7.389 0.332-8.911 7.031c-1.522 6.697 2.415 9.937 5.582 11.372l32.476 18.423s11.568 5.597 22.834-4.146c11.264-9.742 4.853-32.68 4.853-32.68z" style="fill:url(#SVGID_2_)"/><path d="m101.12 8.032s14.879 3.57 14.879 19.706v138.61s-1.559 13.005-13.736 15.745l50.854-14.31s11.883-3.349 11.883-17.658v-111.05s-0.61-13.172-14.92-17.13z" style="fill:url(#SVGID_3_)"/>
</svg>
