<svg width="192" height="192" fill="none" version="1.1" viewBox="0 0 192 192" xmlns="http://www.w3.org/2000/svg">
 <mask id="path-1-outside-1" x="10" y="12" width="126" height="95" fill="black" maskUnits="userSpaceOnUse">
  <rect x="10" y="12" width="126" height="95" fill="#fff"/>
  <path d="m105.07 94.993c10.501-0.2767 18.928-8.8158 18.928-19.309 0-10.668-8.71-19.316-19.454-19.316-0.189 0-0.377 0.0027-0.565 0.0081 0.026-0.5215 0.04-1.0463 0.04-1.5742 0-17.011-13.889-30.802-31.021-30.802-15.208 0-27.86 10.867-30.51 25.207-11.531 1.3029-20.49 11.024-20.49 22.822 0 12.686 10.358 22.971 23.134 22.971h59.938v-0.0069z" clip-rule="evenodd" fill-rule="evenodd"/>
 </mask>
 <path d="m73 12c-18.202 0-33.805 11.261-40.076 27.238-13.35 4.9299-22.924 17.701-22.924 32.791 0 19.394 15.811 34.971 35.135 34.971h71.938v-2.5918c11.11-4.8097 18.928-15.816 18.928-28.725 0-13.64-8.7302-25.158-20.848-29.482-4.0072-19.566-21.416-34.201-42.152-34.201z" mask="url(#path-1-outside-1)" style="fill:#fff"/>
 <path d="m152.92 168.99h0.066l0.065-2e-3c14.921-0.393 26.951-12.534 26.951-27.526 0-9.287-4.624-17.482-11.674-22.462 5e-3 -0.167 7e-3 -0.334 7e-3 -0.502 0-8.488-6.345-15.494-14.551-16.534-6.061-15.127-20.925-25.799-38.282-25.799-18.936 0-34.913 12.704-39.716 30.046-14.178 3.247-24.784 15.864-24.784 30.988 0 17.595 14.356 31.799 31.99 31.799h6e-4l69.928-8e-3z" fill="#9ABEFF" stroke="#fff" stroke-width="10"/>
 <path d="m105.07 94.993c10.501-0.2767 18.928-8.8158 18.928-19.309 0-10.668-8.71-19.316-19.454-19.316-0.189 0-0.377 0.0027-0.565 0.0081 0.026-0.5215 0.04-1.0463 0.04-1.5742 0-17.011-13.889-30.802-31.021-30.802-15.208 0-27.86 10.867-30.51 25.207-11.531 1.3029-20.49 11.024-20.49 22.822 0 12.686 10.358 22.971 23.134 22.971h59.938v-0.0069z" clip-rule="evenodd" fill="#9ABEFF" fill-rule="evenodd"/>
 <path d="m115.5 71.166c-20.17 0-37.297 12.976-43.553 31.045-14.987 4.6908-25.947 18.528-25.947 34.99 0 20.315 16.671 36.799 36.99 36.799l69.928-8e-3h0.14258l0.11914-4e-3c17.56-0.46222 31.82-14.856 31.82-32.523 0-10.004-4.7008-18.837-11.838-24.795-0.785-9.1718-7.2696-16.73-15.955-19.043-7.398-15.631-23.283-26.461-41.707-26.461zm0 10c15.307 0 28.327 9.399 33.641 22.66l1.0938 2.7305 2.9199 0.36914c5.7463 0.72826 10.178 5.578 10.178 11.574 0 0.12832-7e-4 0.24436-4e-3 0.35156l-0.0801 2.6856 2.1934 1.5488c5.7802 4.083 9.5586 10.752 9.5586 18.379 0 12.317-9.7998 22.204-22.082 22.527h-0.0117l-69.916 0.00781c-14.949 0-26.99-11.924-26.99-26.799 0-12.786 8.9414-23.376 20.9-26.115l2.9062-0.66406 0.79492-2.875c4.2102-15.199 18.198-26.381 34.898-26.381z" style="color-rendering:auto;color:#000000;dominant-baseline:auto;fill:#fff;font-feature-settings:normal;font-variant-alternates:normal;font-variant-caps:normal;font-variant-ligatures:normal;font-variant-numeric:normal;font-variant-position:normal;image-rendering:auto;isolation:auto;mix-blend-mode:normal;shape-padding:0;shape-rendering:auto;solid-color:#000000;text-decoration-color:#000000;text-decoration-line:none;text-decoration-style:solid;text-indent:0;text-orientation:mixed;text-transform:none;white-space:normal"/>
</svg>
