<?xml version="1.0" encoding="UTF-8"?>
<svg version="1.1" viewBox="0 0 192 192" xmlns="http://www.w3.org/2000/svg">
 <g style="clip-rule:evenodd;fill-rule:evenodd;stroke-linejoin:round;stroke-miterlimit:2">
  <path d="m7.5 96c0 48.91 39.66 88.5 88.5 88.5s88.5-39.59 88.5-88.5-39.59-88.5-88.5-88.5-88.5 39.59-88.5 88.5z" style="fill:#54688c;stroke-width:.70071"/>
  <path transform="matrix(.77793 0 0 .77793 22.774 21.319)" d="m35.361 84.473 5.474-7.642c0 0.057-0.342 11.006-0.342 11.006l1.54-8.269c4.562 9.238 15.738 22.012 25.946 28.855 1.083 0.74 1.996 1.54 2.623 2.338 1.311 0.513 2.623 0.798 3.935 1.026 0.684 0.114 1.425 0.171 2.11 0.228 0.684 0.057 1.425 0.057 2.11 0.057 0.684 0 1.368-0.057 2.052-0.114s1.369-0.171 2.053-0.285 1.369-0.228 1.996-0.456a26.2 26.2 0 0 0 1.996-0.57c0.627-0.172 1.311-0.457 1.939-0.685 0.627-0.285 1.254-0.513 1.881-0.855 0.628-0.342 1.255-0.627 1.825-0.97 0.627-0.285 1.198-0.684 1.825-1.026s1.197-0.741 1.825-1.083c0.627-0.343 1.197-0.742 1.767-1.084 0.57-0.399 1.198-0.741 1.768-1.14 0.57-0.4 1.198-0.742 1.825-1.14l0.57-0.343 0.285 0.171 4.106 2.737-4.163-1.083c-0.399 0.456-0.798 0.912-1.254 1.368-0.514 0.514-1.084 1.027-1.597 1.54-0.57 0.456-1.14 0.97-1.768 1.369-0.627 0.456-1.197 0.855-1.882 1.254a24.512 24.512 0 0 1-4.048 2.053 31.81 31.81 0 0 1-2.11 0.798c-0.741 0.228-1.426 0.457-2.167 0.628-0.741 0.17-1.483 0.342-2.224 0.456s-1.483 0.17-2.224 0.285c-1.483 0.057-3.022 0.057-4.505-0.171-0.741-0.114-1.482-0.228-2.224-0.4-0.741-0.17-1.425-0.398-2.11-0.627-1.197-0.456-2.395-1.026-3.478-1.71 0 0-3.935 0.57-2.338 3.535s3.992 2.68 2.851 6.159c-0.798 1.882-1.939 3.706-3.193 5.417-2.623 3.536-6.73 6.672-6.33 8.554 18.647 22.98 60.674 19.787 76.64-0.742-0.228-2.965-4.904-4.39-8.154-11.633 0.912 0.286 2.28 0.685 2.28 0.628s-3.877-6.33-4.048-6.957l2.51 0.17s-3.308-4.105-3.422-4.504l3.364-0.456s-4.22-4.847-4.277-5.246l4.277 0.684-4.676-5.646h2.224l-2.623-3.82c-0.456-0.171-0.912-0.285-1.368-0.4l-1.711-0.513c-6.387-1.995-12.431-3.82-18.248-7.47-8.154-5.075-15.453-11.29-20.928-16.137l-11.005-5.36c-10.55-0.799-20.472-0.514-26.516 0.684l3.877-6.615-5.93 7.128c-0.4-0.114-0.514-0.342-0.514-0.342l0.4-8.782-1.882 7.926c-0.57-0.285-1.255-0.399-1.939-0.399a4.721 4.721 0 0 0-4.733 4.733c0 2.395 1.768 4.391 4.106 4.676z" style="fill:#c39a54;stroke-width:.57024"/>
  <path transform="matrix(.77793 0 0 .77793 22.774 21.319)" d="m41.976 67.137c-0.57-0.228-1.255-0.399-1.882-0.399a4.721 4.721 0 0 0-4.733 4.733c0 2.281 1.654 4.22 3.82 4.676h0.115c1.425-0.456 4.276-4.277 3.82-6.672a5.281 5.281 0 0 0-1.14-2.338z" style="fill:#fdf5d9;stroke-width:.57024"/>
  <path transform="matrix(.77793 0 0 .77793 22.774 21.319)" d="m83.546 61.036c-0.855-2.338-0.627-5.36 0.57-8.212 1.711-3.934 4.962-6.558 8.04-6.558 0.628 0 1.198 0.114 1.769 0.343a20.427 20.427 0 0 1 6.101-3.821c12.603-5.018 31.021 3.935 35.754 16.309 2.281 5.987 1.597 12.545-0.342 18.533-1.596 4.904-7.413 11.975-5.246 17.335-0.855-0.228-18.875-5.816-23.893-9.01-8.04-5.018-15.283-11.177-20.7-15.967l-0.17-0.17-18.306-8.668a6.22 6.22 0 0 1-0.627-0.342c2.623 0 12.602 1.197 17.05 0.228" style="fill:#f9de81;stroke-width:.57024"/>
  <path transform="matrix(.77793 0 0 .77793 22.774 21.319)" d="m88.964 63.089c-0.514 0-0.97-0.115-1.312-0.286-0.912-0.399-1.597-1.14-2.053-2.28-0.798-1.94-0.57-4.62 0.513-7.129 1.426-3.25 4.106-5.53 6.558-5.53 0.456 0 0.913 0.113 1.369 0.284 1.197 0.513 2.053 1.711 2.338 3.422 0.342 1.824 0.057 3.934-0.856 5.93-1.425 3.25-4.162 5.589-6.557 5.589z" style="fill-rule:nonzero;fill:#fff;stroke-width:.57024"/>
  <g style="fill:#56595b">
   <path transform="matrix(.4436 0 0 .4436 10.091 5.01)" d="m191 122.3c0.6 0 1.2 0.1 1.8 0.4 1.6 0.7 2.8 2.5 3.2 4.9 0.5 2.9 0.1 6.3-1.4 9.5-2.2 5.1-6.5 8.8-10.1 8.8-0.6 0-1.2-0.1-1.7-0.3-1.5-0.6-2.3-2-2.7-3.1-1.2-3-0.9-7.4 0.8-11.4 2.3-5.1 6.5-8.8 10.1-8.8m0-3c-4.8 0-10.1 4.4-12.9 10.7-2.1 4.7-2.4 9.8-0.9 13.7 0.9 2.3 2.4 3.9 4.3 4.8 0.9 0.4 1.9 0.6 3 0.6 4.8 0 10.1-4.4 12.8-10.7 1.7-3.8 2.2-7.8 1.6-11.3s-2.4-6-5-7.1c-0.8-0.5-1.8-0.7-2.9-0.7z" style="fill-rule:nonzero;fill:#56595b"/>
  </g>
 </g>
</svg>
