<svg width="192" height="192" fill="none" version="1.1" viewBox="0 0 192 192" xmlns="http://www.w3.org/2000/svg">
 <g clip-rule="evenodd" fill-rule="evenodd">
  <path d="m95.605 181.81c46.727 0 84.606-38.237 84.606-85.404 0-47.167-37.879-85.404-84.606-85.404-46.726 0-84.605 38.237-84.605 85.404 0 47.167 37.879 85.404 84.605 85.404z" fill="#56595B" style="fill:#83868c"/>
  <g fill="#9ABEFF">
   <path d="m64 96c0 17.673 14.327 32 32 32 1.0544 0 2.097-0.051 3.1252-0.151 0.5648 0.099 1.1458 0.151 1.7388 0.151h27.136v-26.346c0-0.692-0.07-1.367-0.204-2.0196 0.135-1.1929 0.204-2.4055 0.204-3.6344 0-17.673-14.327-32-32-32-17.673 0-32 14.327-32 32z" style="fill:#b1b5bd"/>
   <path d="m95.225 38.734c2.5227 1.1231 5.4778-0.0114 6.6018-2.5341 1.123-2.5227-0.012-5.4782-2.5344-6.6014-2.5227-1.1232-5.4783 0.0114-6.6014 2.534-1.1232 2.5227 0.0113 5.4783 2.534 6.6015z"/>
   <path d="m51.249 56.372c2.5227 1.1232 5.4783-0.0113 6.6015-2.534 1.1231-2.5227-0.0114-5.4782-2.5341-6.6014s-5.4782 0.0113-6.6014 2.534 0.0114 5.4783 2.534 6.6014z"/>
   <path d="m32.133 99.309c2.5227 1.1232 5.4782-0.0114 6.6014-2.5341 1.1232-2.5226-0.0114-5.4782-2.534-6.6014-2.5227-1.1231-5.4783 0.0114-6.6015 2.5341-1.1231 2.5227 0.0114 5.4782 2.5341 6.6014z"/>
   <path d="m48.857 142.88c2.5227 1.123 5.4782-0.011 6.6014-2.534s-0.0114-5.478-2.534-6.601c-2.5227-1.124-5.4783 0.011-6.6014 2.534-1.1232 2.522 0.0113 5.478 2.534 6.601z"/>
   <path d="m92.707 162.4c2.5227 1.124 5.4782-0.011 6.6014-2.534 1.1232-2.522-0.0114-5.478-2.534-6.601-2.5227-1.123-5.4783 0.011-6.6015 2.534-1.1231 2.523 0.0114 5.478 2.5341 6.601z"/>
   <path d="m155.8 101.83c2.523 1.123 5.478-0.012 6.602-2.5344 1.123-2.5227-0.012-5.4783-2.534-6.6014-2.523-1.1232-5.479 0.0113-6.602 2.534s0.011 5.4778 2.534 6.6018z" style="fill:#ff837d"/>
   <path d="m139.08 58.257c2.523 1.1231 5.479-0.0114 6.602-2.5341s-0.012-5.4782-2.534-6.6014c-2.523-1.1232-5.479 0.0114-6.602 2.5341-1.123 2.5226 0.012 5.4782 2.534 6.6014z" style="fill:#ff837d"/>
  </g>
 </g>
</svg>
