<svg width="192" height="192" version="1.1" viewBox="0 0 192 192" xmlns="http://www.w3.org/2000/svg">
 <circle cx="96" cy="96" r="87" style="fill:#56595b;paint-order:stroke fill markers;stroke-width:1.635"/>
 <path d="m124 111c0 6.6055-5.3656 11.96-11.984 11.96-6.6188 0-11.984-5.3548-11.984-11.96s5.3656-11.96 11.984-11.96c1.6335 0 3.1906 0.32615 4.6096 0.91675l-2.7e-4 -25.997-27.657 6 7.5e-4 38.401c0 6.5038-5.2018 11.795-11.68 11.956l-0.30458 4e-3c-6.6188-2.1e-4 -11.984-5.355-11.984-11.96s5.3656-11.96 11.984-11.96c1.6335 0 3.1906 0.32615 4.6096 0.91676l-2.69e-4 -33.117 42.406-9.2002z" style="fill-rule:evenodd;fill:#f9de81"/>
</svg>
