<svg width="192" height="192" fill="none" version="1.1" viewBox="0 0 192 192" xmlns="http://www.w3.org/2000/svg">
 <path d="m91.97 9.9017c3.1099-1.7942 6.943-1.7835 10.043 0.02814l67.033 39.175c3.068 1.7932 4.954 5.0799 4.954 8.6337v77.524c0 3.553-1.886 6.84-4.954 8.633l-67.033 39.175c-3.0996 1.812-6.9327 1.823-10.043 0.028l-67.968-39.212c-3.0956-1.786-5.0028-5.088-5.0028-8.662v-77.448c0-3.5738 1.9072-6.8759 5.0028-8.6618z" clip-rule="evenodd" fill="#9abeff" fill-rule="evenodd" style="fill:#ba6561"/>
 <path d="m97.004 97-77.658 40.83c0.68089 2.5217 2.3334 4.7165 4.6562 6.0566l67.969 39.211c1.5575 0.89884 3.2961 1.3461 5.0332 1.3398v-87.438z" style="fill:#ff837d"/>
 <path d="m172.9 53.213-75.896 43.787v87.438c1.7317-0.00554 3.4621-0.46139 5.0098-1.3652l0.0039-0.00196 67.033-39.176c3.068-1.793 4.9531-5.0798 4.9531-8.6328v-77.523c0-1.6034-0.40031-3.1434-1.1035-4.5254z" style="clip-rule:evenodd;fill-rule:evenodd;fill:#728dbe"/>
 <path d="m97.084 96.953-0.080078 0.046875v87.438c1.7317-6e-3 3.4621-0.46142 5.0098-1.3652l0.00391-0.00196 67.033-39.176c2.4757-1.4469 4.1604-3.8719 4.7266-6.6191l-76.693-40.322z" style="fill:#9abeff"/>
 <path d="m96.996 8.5645c-1.7345-0.00486-3.4704 0.44079-5.0254 1.3379l-31.152 17.973-36.816 21.238c-0.003631 0.002095-0.006137 0.005713-0.009765 0.007813-1.5428 0.89263-2.7906 2.1604-3.6523 3.6523l76.66 44.227 75.896-43.787c-0.85536-1.6811-2.1658-3.1233-3.8496-4.1074l-67.033-39.176c-1.5498-0.9058-3.2831-1.3604-5.0176-1.3652z" style="clip-rule:evenodd;fill-rule:evenodd;fill:#98dc9a"/>
 <path d="m96.873 8.5723c-1.6934 0.016092-3.3842 0.45422-4.9023 1.3301l-31.152 17.973-36.816 21.238c-0.0036 0.0021-0.006066 0.005713-0.009765 0.007813-1.5428 0.89263-2.7906 2.1604-3.6523 3.6523l76.619 44.203 0.042969 0.021485h0.001953v-87.436l-0.13086-0.99023z" style="fill:#71a372"/>
 <path d="m93.684 42.661c1.9335-1.1155 4.3166-1.1088 6.2439 0.0175l41.676 24.356c1.9074 1.1149 3.08 3.1583 3.08 5.3677v48.198c0 2.209-1.1726 4.2525-3.08 5.3673l-41.676 24.356c-1.9271 1.1266-4.3102 1.1334-6.2439 0.0174l-42.257-24.379c-1.9246-1.1104-3.1103-3.1633-3.1103-5.3853v-48.151c0-2.2219 1.1857-4.2749 3.1103-5.3852z" style="clip-rule:evenodd;fill-rule:evenodd;fill:#ececec;stroke-width:.62172"/>
 <path d="m144 69.588-47.186 27.223v54.362c1.0766-4e-3 2.1524-0.28686 3.1147-0.84878l0.0025-2e-3 41.676-24.356c1.9074-1.1147 3.0794-3.1582 3.0794-5.3672v-48.197c0-0.99686-0.24888-1.9543-0.68606-2.8135z" style="clip-rule:evenodd;fill-rule:evenodd;fill:#d2d2d2;stroke-width:.62172"/>
 <path d="m96.809 41.829c-1.0784-3e-3 -2.1576 0.27405-3.1244 0.8318l-19.368 11.174-22.889 13.204c-0.0022 0.0013-0.0038 0.0036-0.0061 0.0049-0.95919 0.55496-1.735 1.3432-2.2707 2.2707l47.661 27.497 47.186-27.223c-0.53179-1.0452-1.3465-1.9418-2.3934-2.5536l-41.676-24.356c-0.96354-0.56315-2.0412-0.84578-3.1195-0.84877z" style="clip-rule:evenodd;fill-rule:evenodd;fill:#fff;stroke-width:.62172"/>
</svg>
