<svg width="192" height="192" version="1.1" viewBox="0 0 192 192" xmlns="http://www.w3.org/2000/svg">
 <rect x="20" y="20" width="152" height="152" ry="10" style="fill:#9abeff;paint-order:stroke fill markers"/>
 <path d="m79.515 88.96 17.28-21.96h-34.38v8.01h18.9l-16.11 20.97h14.58c4.95 0 8.82 3.33 8.82 8.37 0 5.13-3.78 9.09-8.91 9.09-4.59 0-8.55-3.24-8.55-7.47l-8.73 0.09c0 8.73 7.74 15.66 17.19 15.66 9.99 0 17.55-7.65 17.55-17.01 0-9.9-7.83-16.11-17.64-15.75zm39.2 32.04h8.64v-54h-17.28v8.01h8.64z" style="fill-rule:evenodd;fill:#fff"/>
 <path d="m30 20c-5.54 0-10 4.46-10 10v66h152v-66c0-5.54-4.46-10-10-10h-132z" style="fill-opacity:.25;fill-rule:evenodd"/>
</svg>
