<svg width="192" height="192" version="1.1" viewBox="0 0 192 192" xmlns="http://www.w3.org/2000/svg">
 <path d="m24 96s-1.835-0.0551-3.7891 0.92188c-1.9541 0.97701-4.2109 3.7448-4.2109 7.0781s2.2569 6.1011 4.2109 7.0781c1.553 0.77652 2.9881 0.89957 3.5293 0.91797 0.26603 0.0297 15.906 1.7834 34.789 4.0234 0.16561 1.595 0.59702 3.2 1.1953 4.9727 1.67 4.9478 4.791 10.992 8.9473 17.227 0.82425 1.2364 3.175 2.5687 5.1465 2.0488 1.9715-0.51985 2.7891-1.7817 3.3223-2.8184 1.0664-2.0733 1.1842-4.3476 0.62109-6.9941-0.56579-2.659-1.7299-5.0356-2.4121-6.8906 5.303-0.84119 12.664-1.8506 20.65-2.8984 7.9866 1.0479 15.347 2.0572 20.65 2.8984-0.68217 1.855-1.8463 4.2317-2.4121 6.8906-0.56316 2.6466-0.4453 4.9208 0.6211 6.9941 0.53319 1.0366 1.3508 2.2985 3.3223 2.8184 1.9715 0.51984 4.3222-0.81245 5.1465-2.0488 4.1563-6.2344 7.2773-12.279 8.9473-17.227 0.59829-1.7726 1.0297-3.3777 1.1953-4.9727 18.883-2.24 34.523-3.9937 34.789-4.0234 0.54118-0.0184 1.9763-0.14149 3.5293-0.91797 1.9541-0.97701 4.2109-3.7448 4.2109-7.0781s-2.2569-6.1011-4.2109-7.0781c-1.954-0.97703-3.7891-0.92188-3.7891-0.92188-0.1396-1.4e-4 -0.27912 7e-3 -0.41797 0.0215 0 0-39.051 4.1135-71.582 7.9297-32.531-3.8162-71.582-7.9297-71.582-7.9297-0.13885-0.01445-0.27837-0.02162-0.41797-0.02148z" style="color-rendering:auto;color:#000000;dominant-baseline:auto;fill:#4a4a4a;font-feature-settings:normal;font-variant-alternates:normal;font-variant-caps:normal;font-variant-ligatures:normal;font-variant-numeric:normal;font-variant-position:normal;image-rendering:auto;isolation:auto;mix-blend-mode:normal;shape-padding:0;shape-rendering:auto;solid-color:#000000;text-decoration-color:#000000;text-decoration-line:none;text-decoration-style:solid;text-indent:0;text-orientation:mixed;text-transform:none;white-space:normal"/>
 <path d="m33 18.996c0-5.5205 4.4729-9.9958 10.001-9.9958h80.821l35.178 35v129c0 5.5209-4.4844 9.9965-9.9923 9.9965h-106.02c-5.5186 0-9.9923-4.476-9.9923-9.9958z" style="fill-rule:evenodd;fill:#fff"/>
 <path d="m97.967 9a70.373 84 22.495 0 0-18.172 28.549 70.373 84 22.495 0 0 32.879 104.53 70.373 84 22.495 0 0 46.326 0.21289v-16.955a48.598 73.107 22.495 0 1-41.529 7.8203 48.598 73.107 22.495 0 1-16.932-86.139 48.598 73.107 22.495 0 1 25.135-36.18l-1.8516-1.8418h-25.855z" style="fill:#9abeff;paint-order:stroke fill markers;stroke-width:.96572"/>
 <path d="m120 13.998c0-5.5218 3.1644-6.8337 7.0694-2.9287l29.861 29.861c3.9043 3.9043 2.5878 7.0694-2.9287 7.0694h-24.004c-5.5218 0-9.998-4.4815-9.998-9.998z" style="fill-rule:evenodd;fill:#d8d8d8"/>
 <path d="m72 92-40 4-4 24 12 24 16 4 20-8 8-20v-12zm48 0-12 16v12l8 20 20 8 16-4 12-24-4-24z" style="fill:#fff;opacity:.25"/>
 <path d="m48 88c-16 0-24 8-24 8s-8 0-8 8 8 8 8 8 0 40 28 40c36 0 36-24 36-36 0-4 8-4 8-4s8 0 8 4c0 12 0 36 36 36 28 0 28-40 28-40s8 0 8-8-8-8-8-8-8-8-24-8c-32 0-32 4-40 8-3.5777 1.7888-5.0893 2.5-8 2.5s-4.4223-0.71115-8-2.5c-8-4-8-8-40-8zm8 8c16 0 24 8 24 20 0 16-8 28-24 28-13.333 0-24-12-24-28s4-20 24-20zm80 0c20 0 24 4 24 20s-10.667 28-24 28c-16 0-24-12-24-28 0-12 8-20 24-20z" style="fill:#56595b"/>
</svg>
