<svg width="192" height="192" version="1.1" viewBox="0 0 192 192" xmlns="http://www.w3.org/2000/svg">
 <rect x="20" y="20" width="152" height="152" rx="9.9346" opacity=".63" style="fill:#d2d2d2;opacity:1"/>
 <path d="m74 60c-7.756 0-14 6.244-14 14s6.244 14 14 14h6v16h-6c-7.756 0-14 6.244-14 14s6.244 14 14 14 14-6.244 14-14v-6h16v6c0 7.756 6.244 14 14 14s14-6.244 14-14-6.244-14-14-14h-6v-16h6c7.756 0 14-6.244 14-14s-6.244-14-14-14-14 6.244-14 14v6h-16v-6c0-7.756-6.244-14-14-14zm0 8c3.324 0 6 2.676 6 6v6h-6c-3.324 0-6-2.676-6-6s2.676-6 6-6zm44 0c3.324 0 6 2.676 6 6s-2.676 6-6 6h-6v-6c0-3.324 2.676-6 6-6zm-30 20h16v16h-16v-16zm-14 24h6v6c0 3.324-2.676 6-6 6s-6-2.676-6-6 2.676-6 6-6zm38 0h6c3.324 0 6 2.676 6 6s-2.676 6-6 6-6-2.676-6-6v-6z" style="fill:#a0a5af;paint-order:stroke fill markers"/>
</svg>
