<svg width="192" height="192" fill="none" version="1.1" viewBox="0 0 192 192" xmlns="http://www.w3.org/2000/svg">
 <path d="m35.391 51.254-19.867 11.648c-4.201 10.203-6.5234 21.379-6.5234 33.098 0 48.049 38.951 87 87 87 48.049 0 87-38.951 87-87l-67.475 67.932-43.525-9.3555-20.225-19.816-7.7676-12.943-4.2422-15.102-0.375-4.1289c-0.10044-0.87241-0.17769-1.7508-0.23828-2.6348l-0.003906-0.03711c-0.087896-1.2947-0.14844-2.5971-0.14844-3.9141 0-2.1838 0.13591-4.3351 0.375-6.4551v-0.003906l-1.1387-24.457-2.8457-13.83z" style="fill:#ff837d"/>
 <mask x="9" y="9" width="174" height="174" mask-type="alpha" maskUnits="userSpaceOnUse">
  <path d="m183 96c0-48.049-38.951-87-87-87-48.049 0-87 38.951-87 87 0 48.049 38.951 87 87 87 48.049 0 87-38.951 87-87zm-30 0c0 31.48-25.52 57-57 57-31.48 0-57-25.52-57-57 0-31.48 25.52-57 57-57 31.48 0 57 25.52 57 57z" clip-rule="evenodd" fill="#fff" fill-rule="evenodd"/>
 </mask>
 <path d="m96 9c-36.33 0-67.453 22.271-80.477 53.902 2.5611-0.53655 24.298-4.1983 23.852 26.643 3.2075-28.439 27.329-50.545 56.625-50.545 31.48 0 57 25.52 57 57 0 1.0017-0.02708 1.9974-0.07812 2.9863 15.313-3.8072 25.765-6.8289 29.928-8.0625-2.6294-45.685-40.505-81.924-86.85-81.924zm-57 87c-0.14112 1.4112-0.082848 2.7112 0.14844 3.9141-0.087896-1.2947-0.14844-2.5971-0.14844-3.9141z" style="clip-rule:evenodd;fill-rule:evenodd;fill:#fff"/>
 <path d="m111 24c-38.542 0-70.01 30.495-71.908 68.83 1.6453-30.005 26.492-53.83 56.908-53.83 31.48 0 57 25.52 57 57 0 31.48-25.52 57-57 57-31.396 0-56.859-25.386-56.994-56.75-2.82e-4 0.083784-0.005859 0.16615-0.005859 0.25 0 40.041 32.236 72.5 72 72.5 38.411 0 69.788-30.289 71.881-68.439 0.00145-0.0281 0.00443-0.05589 0.00586-0.08399 0.01797-0.35449 0.0273-0.7108 0.04101-1.0664 0.03093-0.78767 0.05283-1.5772 0.0586-2.3711 0.00277-0.23633 0.00888-0.47221 0.00976-0.70898-0.09158-39.962-32.288-72.33-71.996-72.33z" style="clip-rule:evenodd;fill-rule:evenodd;fill:#b1b5bd"/>
 <path d="m182.98 94.648c-1.2735 45.563-55.1 77.326-92.609 58.072-28.814-2.827-51.331-27.106-51.365-56.654-8.43e-4 0.14439-0.001953 0.2889-0.001953 0.43359 0 40.041 32.236 72.5 72 72.5 38.411 0 69.788-30.289 71.881-68.439 0.00145-0.0281 0.00443-0.05589 0.00586-0.08399 0.01797-0.35449 0.0273-0.7108 0.04101-1.0664 0.03093-0.78767 0.05283-1.5772 0.0586-2.3711 0.0031-0.26432 0.00903-0.52809 0.00976-0.79297-0.00187-0.53366-0.00658-1.0668-0.01953-1.5977z" style="clip-rule:evenodd;fill-rule:evenodd;fill:#fff"/>
</svg>
