<svg width="192" height="192" fill="none" version="1.1" viewBox="0 0 192 192" xmlns="http://www.w3.org/2000/svg">
 <path d="m165 49c5.523 0 10 4.4772 10 10v104c0 5.523-4.477 10-10 10h-14v13l-14-13h-75c-5.5229 0-10-4.477-10-10v-104c0-5.5228 4.4771-10 10-10h103z" clip-rule="evenodd" fill="#9ABEFF" fill-rule="evenodd" style="fill:#728dbe"/>
 <path d="m32 22c-5.5228 0-10 4.4772-10 10v104c0 5.523 4.4772 10 10 10h14v13l14-13h75c5.523 0 10-4.477 10-10v-104c0-5.5228-4.477-10-10-10h-103z" clip-rule="evenodd" fill="#fff" fill-rule="evenodd" style="fill:#96dfd3"/>
 <rect x="52.818" y="67" width="62.182" height="5" ry="2.5" style="fill:#e0f4e0;paint-order:stroke fill markers"/>
 <rect x="53" y="81" width="50" height="5" ry="2.5" style="fill:#e0f4e0;paint-order:stroke fill markers"/>
 <rect x="53" y="95" width="30" height="5" ry="2.5" style="fill:#e0f4e0;paint-order:stroke fill markers"/>
</svg>
