<svg width="192" height="192" fill="none" version="1.1" viewBox="0 0 192 192" xmlns="http://www.w3.org/2000/svg">
 <rect x="22" y="76" width="152" height="98" rx="10" fill="#9ABEFF"/>
 <path d="m17.857 11.859a5.0005 5.0005 0 0 0-3.4824 8.5859l12.59 12.59a5.0005 5.0005 0 1 0 7.0703-7.0703l-12.59-12.59a5.0005 5.0005 0 0 0-3.5879-1.5156zm161.13 0.001953a5.0005 5.0005 0 0 0-3.4375 1.5137l-12.59 12.59a5.0005 5.0005 0 1 0 7.0703 7.0703l12.59-12.59a5.0005 5.0005 0 0 0-3.6328-8.584z" style="color-rendering:auto;color:#000000;dominant-baseline:auto;fill:#71a372;font-feature-settings:normal;font-variant-alternates:normal;font-variant-caps:normal;font-variant-ligatures:normal;font-variant-numeric:normal;font-variant-position:normal;image-rendering:auto;isolation:auto;mix-blend-mode:normal;shape-padding:0;shape-rendering:auto;solid-color:#000000;text-decoration-color:#000000;text-decoration-line:none;text-decoration-style:solid;text-indent:0;text-orientation:mixed;text-transform:none;white-space:normal"/>
 <rect x="22" y="22" width="152" height="48" rx="10" fill="#98DC9A"/>
 <path d="m44 35c-5.5228 0-10 4.4772-10 10s4.4772 10 10 10 10-4.4772 10-10-4.4772-10-10-10zm108 0c-5.523 0-10 4.4772-10 10s4.477 10 10 10 10-4.4772 10-10-4.477-10-10-10z" style="fill:#71a372"/>
 <path d="m98 89c-19.271 0-35 15.729-35 35s15.729 35 35 35c19.271 0 35-15.729 35-35s-15.729-35-35-35zm0 10c13.867 0 25 11.133 25 25s-11.133 25-25 25c-13.866 0-25-11.133-25-25s11.134-25 25-25zm0 5c-9.2591 0-17.094 6.4107-19.336 15h10.656c1.7128-3.0011 4.9298-5 8.6797-5 5.5816 0 10 4.4184 10 10s-4.4184 10-10 10c-3.7499 0-6.9669-1.9989-8.6797-5h-10.656c2.2421 8.5893 10.077 15 19.336 15 10.986 0 20-9.0136 20-20s-9.0136-20-20-20z" style="color-rendering:auto;color:#000000;dominant-baseline:auto;fill:#728dbe;font-feature-settings:normal;font-variant-alternates:normal;font-variant-caps:normal;font-variant-ligatures:normal;font-variant-numeric:normal;font-variant-position:normal;image-rendering:auto;isolation:auto;mix-blend-mode:normal;shape-padding:0;shape-rendering:auto;solid-color:#000000;text-decoration-color:#000000;text-decoration-line:none;text-decoration-style:solid;text-indent:0;text-orientation:mixed;text-transform:none;white-space:normal"/>
</svg>
