<svg width="192" height="192" version="1.1" viewBox="0 0 192 192" xmlns="http://www.w3.org/2000/svg">
 <path d="m96 8c-39.263 0-60.023 19.159-70.037 38.133-10.014 18.974-9.9629 37.867-9.9629 37.867a4.0004 4.0004 0 1 0 8 0s0.05091-17.106 9.0371-34.133c8.9862-17.026 26.226-33.867 62.963-33.867 36.737 0 53.977 16.841 62.963 33.867 8.9862 17.026 9.0371 34.133 9.0371 34.133a4.0004 4.0004 0 1 0 8 0s0.0509-18.894-9.9629-37.867c-10.014-18.974-30.774-38.133-70.037-38.133z" style="color-rendering:auto;color:#000000;dominant-baseline:auto;fill:#979797;font-feature-settings:normal;font-variant-alternates:normal;font-variant-caps:normal;font-variant-ligatures:normal;font-variant-numeric:normal;font-variant-position:normal;image-rendering:auto;isolation:auto;mix-blend-mode:normal;shape-padding:0;shape-rendering:auto;solid-color:#000000;text-decoration-color:#000000;text-decoration-line:none;text-decoration-style:solid;text-indent:0;text-orientation:mixed;text-transform:none;white-space:normal"/>
 <rect x="8" y="76" width="176" height="60" ry="12" style="fill:#56595b;paint-order:stroke fill markers"/>
 <circle cx="96" cy="108" r="76" style="fill:#ff837d;paint-order:stroke fill markers"/>
 <path d="m96 8c-15.691 0-28.687 2.8232-39.336 7.4395a4.0004 4.0004 0 0 0-1.3477 6.3828l5.6582 6.1309a4.0004 4.0004 0 0 0 4.3574 1.0273c8.0932-3.0664 18.117-4.9805 30.668-4.9805 13.498 0 24.078 2.2097 32.471 5.6914a4.0004 4.0004 0 0 0 4.3613-0.86719l5.9062-5.9062a4.0004 4.0004 0 0 0-1.1191-6.4453c-11.057-5.224-24.788-8.4727-41.619-8.4727zm-10.377 8.4707c-0.24808 0.02185-0.47058 0.06447-0.7168 0.08789 0.24516-0.02438 0.46977-0.06512 0.7168-0.08789zm21.443 0.06641c0.31061 0.03072 0.59081 0.08587 0.89843 0.11914-0.3091-0.03199-0.58636-0.08964-0.89843-0.11914z" style="color-rendering:auto;color:#000000;dominant-baseline:auto;fill:#56595b;font-feature-settings:normal;font-variant-alternates:normal;font-variant-caps:normal;font-variant-ligatures:normal;font-variant-numeric:normal;font-variant-position:normal;image-rendering:auto;isolation:auto;mix-blend-mode:normal;shape-padding:0;shape-rendering:auto;solid-color:#000000;text-decoration-color:#000000;text-decoration-line:none;text-decoration-style:solid;text-indent:0;text-orientation:mixed;text-transform:none;white-space:normal"/>
 <path d="m79.558 94.366c0-6.862 7.5486-11.045 13.367-7.4069l21.904 13.696c5.4484 3.4064 5.4781 11.33 0.0568 14.778l-21.905 13.93c-5.8157 3.6987-13.423-0.47871-13.423-7.3711v-27.626z" style="clip-rule:evenodd;fill-rule:evenodd;fill:#fff;stroke-width:.87356"/>
</svg>
