<?xml version="1.0" encoding="UTF-8"?>
<svg version="1.1" viewBox="0 0 192 192" xmlns="http://www.w3.org/2000/svg"><path d="m20 96v26.71c-1e-6 27.304 21.987 49.29 49.297 49.29l44.703-.00041 58-76 .00041-26.703c0-27.311-21.987-49.297-49.29-49.297h-46.71z" fill="#728DBE"/><path d="m134.34 118.14c0-43.351-44.355-44.569-38.344-22.138s-38.344 21.211-38.344-22.138c0-36.3 38.344-53.861 38.344-53.861l-66 2e-6c-5.54 0-10 4.46-10 10l-2e-6 66s17.561 38.344 53.861 38.344c43.349 0 44.569-44.355 22.138-38.344s-21.213-38.344 22.138-38.344c36.301 0 53.862 38.344 53.862 38.344l.00041 66c0 5.54-4.46 10-10 10l-66-.00041s38.344-17.561 38.344-53.862z" fill="#F8C18C"/></svg>
