<svg width="192" height="192" version="1.1" viewBox="0 0 192 192" xmlns="http://www.w3.org/2000/svg">
 <rect x="20" y="20" width="152" height="152" rx="9.9346" opacity=".63" style="fill:#98dc9a;opacity:1"/>
 <path d="m56.613 55.777c-1.1546 0.094063-2.0347 1.1109-2.0293 2.7812 8e-3 2.4918 3.4797 8.2456 8.1484 13.502 2.444 2.7516 3.4275 4.3261 6.6367 10.639l3.7656 7.4102-0.95898 1.1152c-3.1349 3.6419 3.2415 11.25 7.834 9.3477 2.6659-1.1043 2.147-4.9266-1.1582-8.543-1.0361-1.1337-2.2452-2.114-2.6875-2.1797-0.59332-0.08806-1.0658-0.76981-1.8047-2.5977-0.55079-1.3626-1.5216-3.2433-2.1562-4.1797-0.63462-0.93642-1.3031-1.958-1.4863-2.2715-0.31166-0.53331 4.9441 3.6511 7.043 5.6074 0.5225 0.48703 1.6639 1.4336 2.5352 2.1035 0.87123 0.66987 1.6589 1.5605 1.752 1.9785 0.09304 0.418 0.79927 3.1392 1.5684 6.0469 1.3442 5.0821 1.3744 5.3427 0.81055 6.752-1.4274 3.5675-0.28395 10.775 2.6641 16.795 1.4695 3.0009 3.7281 5.9146 4.2129 5.4356 0.17241-0.17035 0.3165-4.1885 0.32031-8.9297 0.0065-8.1526-0.040426-8.7385-0.87695-10.811-0.48649-1.205-1.2907-2.6721-1.7852-3.2598-0.49448-0.58766-1.3111-2.1674-1.8164-3.5098-0.5053-1.3423-1.5572-3.7076-2.3379-5.2578l-1.4199-2.8184 2.6016 2.0352c7.4921 5.8648 7.1905 5.5584 7.877 8.0273l0.63672 2.2871-0.96094 0.75586c-1.2249 0.96355-1.234 2.2593-0.027344 4.3184 0.9623 1.642 2.4044 2.8418 3.4141 2.8418 0.31604 0 0.85614-0.43043 1.2012-0.95703 0.9608-1.4664 0.52677-4.2545-0.85742-5.5078-1.001-0.9062-3.0567-4.5547-2.5664-4.5547 0.11888 0 1.9134 1.5689 3.9863 3.4863 3.7363 3.4561 3.7695 3.5022 3.7695 5.2617 0 1.275-0.20975 1.9633-0.74024 2.4434-1.3668 1.237-1.3476 2.6512 0.07227 5.6406 1.1567 2.4354 3.0376 4.8841 7.7812 10.125l1.2246 1.3535 0.00586-3.2305c9e-3 -5.2498-1.3325-8.9865-4.1406-11.523-1.399-1.2639-3.0461-4.202-2.6035-4.6445 0.0967-0.0967 2.5552 2.3474 5.4629 5.4297 8.5147 9.0257 9.1235 9.6303 8.123 8.0781-0.80026-1.2416-0.73439-1.2107 0.98243 0.45898 1.7687 1.7202 1.8343 1.8625 1.7363 3.709-0.13235 2.4934 0.49357 4.319 1.8809 5.4863 0.62005 0.52174 2.8449 1.4668 5.0098 2.1289 2.1418 0.65505 4.0644 1.2511 4.2734 1.3242 0.67231 0.23515 1.7109 0.20092 1.7109-0.05664 0-1.0473-8.5585-10.01-9.5586-10.01-0.24612 0-0.36285-0.08632-0.25781-0.1914 0.10504-0.10504 1.1929 0.15341 2.416 0.57422 4.583 1.5768 9.4849 1.8095 9.2207 0.4375-0.15816-0.82124-4.6219-4.5056-7.5566-6.2363-2.643-1.5587-4.5424-1.826-5.9531-0.83789-0.75933 0.53186-1.1084 0.52542-3.7109-0.08008-2.4811-0.57721-3.0118-0.85331-3.8887-2.0137-1.4756-1.9525-6.559-7.9291-7.832-9.209-0.60021-0.60345-1.0289-1.1612-0.95117-1.2383 0.0777-0.077 2.0247 0.16517 4.3262 0.53907 4.1176 0.66895 4.2362 0.71715 7.4102 3.0098 1.774 1.2814 4.1122 2.7718 5.1953 3.3106 1.9065 0.9482 2.0765 0.96566 5.3203 0.57031 1.8429-0.22461 4.855-0.69752 6.6953-1.0508l3.3477-0.64258-2.207-1.252c-2.5422-1.4432-9.9728-3.961-14.383-4.873-3.7431-0.77416-13.135-1.3948-15.184-1.0039-1.4673 0.27992-1.5982 0.21696-3.8105-1.8262-5.1333-4.7405-6.1663-5.6579-8.3496-7.4219-3.4329-2.7736-5.2909-4.3848-5.0566-4.3848 0.11556 0 0.96018 0.32529 1.875 0.72266 0.91482 0.39737 2.9871 1.267 4.6055 1.9336 2.6623 1.0965 3.008 1.3629 3.6406 2.793 1.3018 2.9428 5.202 5.5463 8.332 5.5625 2.063 0.0107 3.1348-0.97439 3.1348-2.8789 0-1.9494-1.2655-3.4843-3.8965-4.7285-3.0697-1.4517-4.8534-1.7161-6.457-0.95508-1.2483 0.59235-1.3552 0.57388-4.1094-0.69141-1.5552-0.71446-4.2821-1.7543-6.0586-2.3105-1.7765-0.55623-3.6414-1.2794-4.1445-1.6074-0.83185-0.54234-5.4471-4.1903-8.7754-6.9375l-1.3301-1.0996 3.4219 0.93555c10.137 2.773 9.3295 2.4468 11.686 4.7402 3.4806 3.3882 8.0095 5.2812 12.635 5.2812 1.0315 0 1.9521 0.27191 2.5723 0.75977 1.2087 0.95076 1.6233 0.95076 2.832 0 0.5314-0.418 1.4467-0.75977 2.0332-0.75977 1.5397 0 1.6568-0.55238 0.34961-1.6523-3.0776-2.5896-12.8-6.2089-23.268-8.6621-2.8705-0.67271-5.1495-1.2939-5.0645-1.3789 0.08504-0.08504 2.9311-0.39663 6.3242-0.69336 5.3306-0.46615 6.5618-0.46646 9.0547 0 1.5868 0.297 4.0654 0.6639 5.5078 0.81445l2.623 0.27344-0.24609-1.2305c-0.21317-1.0659-0.1587-1.1964 0.41602-0.9707 1.0143 0.39838 10.715 1.1052 11.018 0.80273 0.50389-0.50388-0.87321-2.2928-2.5762-3.3457-2.3637-1.4614-8.2211-2.8631-14.234-3.4062-6.1916-0.55923-9.4263-0.16067-13.006 1.6016-1.3508 0.665-3.6866 1.5084-5.1895 1.875-2.8263 0.68938-4.3515 1.3569-6.7891 2.9688l-1.4238 0.94141-2.1797-1.8535c-3.0758-2.6145-7.6129-7.2422-9.4824-9.6719-4.3173-5.6111-5.2584-8.5502-3.3516-10.457l0.94922-0.95117-1.0449-0.91992c-0.75815-0.66728-1.5495-0.94316-2.2422-0.88672zm59.59 63.795c0.13944-7e-3 0.99887 0.30664 1.9102 0.69726 1.2398 0.53146 1.6738 0.93721 1.7246 1.6113 0.0375 0.49761 0.6289 1.3658 1.3203 1.9394 0.68846 0.57127 1.0801 1.0387 0.8711 1.0371-0.209-2e-3 -1.661-1.1881-3.2285-2.6367s-2.7371-2.6412-2.5977-2.6484zm-0.625 2.5176c-0.17616-0.01284-0.32551 0.09504-0.51953 0.28907-0.79931 0.79931-1.0031 4.4921-0.45507 8.2402 0.74287 5.0805 1.46 6.0057 2.9883 3.8555 2.3094-3.2491 2.0444-8.2444-0.58985-11.16-0.7645-0.84621-1.1302-1.2032-1.4238-1.2246z" style="fill:#fff"/>
</svg>
