<svg width="192" height="192" fill="none" version="1.1" viewBox="0 0 192 192" xmlns="http://www.w3.org/2000/svg">
 <path d="m165 49c5.523 0 10 4.4772 10 10v104c0 5.523-4.477 10-10 10h-14v13l-14-13h-75c-5.5229 0-10-4.477-10-10v-104c0-5.5228 4.4771-10 10-10h103z" clip-rule="evenodd" fill="#9ABEFF" fill-rule="evenodd" style="fill:#e0f4e0"/>
 <path d="m32 22c-5.5228 0-10 4.4772-10 10v104c0 5.523 4.4772 10 10 10h14v13l14-13h75c5.523 0 10-4.477 10-10v-104c0-5.5228-4.477-10-10-10h-103z" clip-rule="evenodd" fill="#fff" fill-rule="evenodd" style="fill:#728dbe"/>
 <path d="m95.407 67c-1.2482 6.07e-4 -2.3853 0.7178-2.9235 1.844l-4.8435 10.14-11.099 1.7586c-2.6523 0.42155-3.6714 3.7003-1.7253 5.5511l8.147 7.7402-1.7586 11.099c-0.42014 2.6538 2.3848 4.6376 4.747 3.3572l9.8786-5.3564 10.012 5.1016c2.3942 1.2199 5.148-0.83512 4.6599-3.4775l-2.0403-11.05 7.9444-7.946c1.8981-1.8997 0.79583-5.1513-1.8662-5.5052l-11.14-1.4736-5.1016-10.013c-0.55389-1.0866-1.6707-1.7704-2.8903-1.7696z" style="color-rendering:auto;color:#000000;dominant-baseline:auto;fill:#e0f4e0;font-feature-settings:normal;font-variant-alternates:normal;font-variant-caps:normal;font-variant-ligatures:normal;font-variant-numeric:normal;font-variant-position:normal;image-rendering:auto;isolation:auto;mix-blend-mode:normal;paint-order:stroke fill markers;shape-padding:0;shape-rendering:auto;solid-color:#000000;text-decoration-color:#000000;text-decoration-line:none;text-decoration-style:solid;text-indent:0;text-orientation:mixed;text-transform:none;white-space:normal"/>
 <path d="m61.805 58c-0.61302 2.98e-4 -1.1714 0.35251-1.4358 0.90561l-2.3787 4.9797-5.4508 0.86363c-1.3026 0.20702-1.803 1.8172-0.84731 2.7262l4.001 3.8012-0.86363 5.4508c-0.20634 1.3033 1.1712 2.2775 2.3313 1.6488l4.8514-2.6305 4.9167 2.5054c1.1758 0.59911 2.5282-0.41013 2.2885-1.7078l-1.002-5.4267 3.9015-3.9023c0.93215-0.93297 0.39084-2.5298-0.91649-2.7036l-5.471-0.72371-2.5054-4.9175c-0.27202-0.53362-0.82049-0.86943-1.4194-0.86907z" style="color-rendering:auto;color:#000000;dominant-baseline:auto;fill:#e0f4e0;font-feature-settings:normal;font-variant-alternates:normal;font-variant-caps:normal;font-variant-ligatures:normal;font-variant-numeric:normal;font-variant-position:normal;image-rendering:auto;isolation:auto;mix-blend-mode:normal;paint-order:stroke fill markers;shape-padding:0;shape-rendering:auto;solid-color:#000000;text-decoration-color:#000000;text-decoration-line:none;text-decoration-style:solid;text-indent:0;text-orientation:mixed;text-transform:none;white-space:normal"/>
</svg>
