<svg width="192" height="192" version="1.1" viewBox="0 0 192 192" xmlns="http://www.w3.org/2000/svg">
 <path d="m96 8a88 88 0 0 0-88 88h68a20 20 0 0 1 20-20v-68zm20 88a20 20 0 0 1-20 20v68a88 88 0 0 0 88-88h-68z" style="fill:#56595b"/>
 <path d="m96 32a64 64 0 0 0-64 64 64 64 0 0 0 64 64 64 64 0 0 0 64-64h-44a20 20 0 0 1-20 20 20 20 0 0 1-20-20 20 20 0 0 1 20-20v-44z" style="fill:#979797;paint-order:stroke fill markers"/>
 <path d="m96 60a36 36 0 0 0-36 36 36 36 0 0 0 36 36 36 36 0 0 0 36-36 36 36 0 0 0-36-36zm0 16a20 20 0 0 1 20 20 20 20 0 0 1-20 20 20 20 0 0 1-20-20 20 20 0 0 1 20-20z" style="fill:#98dc9a"/>
</svg>
