<svg width="192" height="192" version="1.1" viewBox="0 0 192 192" xmlns="http://www.w3.org/2000/svg">
 <rect transform="rotate(-19.421)" x="-13.524" y="53.595" width="116" height="140" ry="12" style="fill:#9abeff;paint-order:stroke fill markers"/>
 <path d="m20.374 62.369 2.6601 7.5448 52.814-18.621-2.6601-7.5448zm3.9901 11.317 11.97 33.952 30.179-10.64-6.6502-18.862 56.586-19.951-5.3202-15.09zm40.602 6.8916 18.621 52.814 52.814-18.621-18.621-52.814zm-27.301 30.832 10.64 30.179 22.634-7.9802-3.9901-11.317 7.5448-2.6601-6.6502-18.862zm15.961 45.269 5.3202 15.09 79.22-27.931-2.6601-7.5448 7.5448-2.6601-2.6601-7.5448z" style="fill:#728dbe;paint-order:stroke fill markers"/>
 <rect x="40" y="20" width="116" height="140" ry="12" style="fill:#bd9aff;paint-order:stroke fill markers"/>
 <path d="m52 32v8h56v-8zm0 12v36h32v-20h60v-16zm36 20v56h56v-56zm-36 20v32h24v-12h8v-20zm0 48v16h84v-8h8v-8z" style="fill:#8c72bd;paint-order:stroke fill markers"/>
 <rect transform="rotate(19.957)" x="79.231" y="-11.555" width="116" height="140" ry="12" style="fill:#98dc9a;paint-order:stroke fill markers"/>
 <path d="m85.601 31.557-2.7305 7.5196 52.637 19.114 2.7305-7.5196zm-4.0958 11.279-12.287 33.838 30.078 10.922 6.8263-18.799 56.397 20.479 5.4611-15.039zm27.012 31.086-19.114 52.637 52.637 19.114 19.114-52.637zm-40.664 6.5116-10.922 30.078 22.559 8.1916 4.0958-11.279 7.5196 2.7305 6.8263-18.799zm-16.383 45.118-5.4611 15.039 78.956 28.671 2.7305-7.5196 7.5196 2.7305 2.7305-7.5196z" style="fill:#71a372;paint-order:stroke fill markers"/>
 <path d="m143.38 95.095-1.3653 3.7598c-6.6927-2.4303-11.561-0.95638-15.738 1.6948 0.55148 1.5736 0.99383 3.1494 1.3661 4.6726 0.32979 1.3495 0.61548 2.6125 0.90868 3.8666 3.5708-2.4714 6.983-4.0762 10.733-2.7144l-1.3653 3.7598 10.25-4.789zm-31.444-7.1623-2.7305 7.5196c15.039 5.4611 3.0878 26.655 21.887 33.481l-1.3653 3.7598 10.25-4.789-4.789-10.25-1.3653 3.7598c-11.279-4.0958-3.0878-26.655-21.887-33.481zm4.1596 20.498c-3.559 2.4501-7.3737 3.8678-12.351 2.0604l-2.7305 7.5196c6.7306 2.444 12.098 1.1149 16.738-1.4026-0.40696-1.5394-0.71021-3.0779-0.98142-4.5704-0.22647-1.2463-0.44407-2.4436-0.67461-3.607z" style="fill:#98dc9a"/>
</svg>
