<svg width="192" height="192" fill="none" version="1.1" viewBox="0 0 192 192" xmlns="http://www.w3.org/2000/svg">
 <rect x="19.5" y="19.5" width="153" height="153" rx="10" style="fill:#73ada4;stroke-width:4"/>
 <path d="m98 60c-19 0-29.816 10.546-34.242 20.578-4.2045 9.5301-3.8083 18.534-3.7578 19.438v72.484h12v-72.5a6.0006 6.0006 0 0 0-8e-3 -0.3516s-0.32424-7.2583 2.75-14.227c3.0746-6.9683 8.258-13.422 23.258-13.422 8.8 0 14.015 2.4993 17.258 5.7422s4.7422 7.5911 4.7422 12.258c0 4.8448-1.7237 10.801-4.8438 15.062-3.1201 4.2616-7.1197 6.9375-13.156 6.9375-1.7333 0-4.9393-0.96836-7.1094-2.4531-2.1701-1.4848-2.8906-3.0136-2.8906-3.5469 0-4 1.1108-4.3484 2.6797-5.1328 1.5689-0.78448 3.3203-0.8672 3.3203-0.8672a6.0006 6.0006 0 1 0 0-12s-4.2486-0.0828-8.6797 2.1328c-4.4311 2.2156-9.3203 7.8672-9.3203 15.867 0 6.1333 3.9461 10.605 8.1094 13.453s8.9573 4.5469 13.891 4.5469c9.9634 0 17.964-5.1785 22.844-11.844s7.1562-14.708 7.1562-22.156c0-7.3333-2.5007-14.985-8.2578-20.742s-14.542-9.2578-25.742-9.2578z" style="color-rendering:auto;color:#000000;dominant-baseline:auto;fill:#fff;font-feature-settings:normal;font-variant-alternates:normal;font-variant-caps:normal;font-variant-ligatures:normal;font-variant-numeric:normal;font-variant-position:normal;image-rendering:auto;isolation:auto;mix-blend-mode:normal;shape-padding:0;shape-rendering:auto;solid-color:#000000;text-decoration-color:#000000;text-decoration-line:none;text-decoration-style:solid;text-indent:0;text-orientation:mixed;text-transform:none;white-space:normal"/>
</svg>
