<svg width="192" height="192" version="1.1" viewBox="0 0 192 192" xmlns="http://www.w3.org/2000/svg">
 <path d="m131.11 20-15.104 60 32 64-16 24-28 4h-74.064c-5.5038 0-9.9356-4.4318-9.9356-9.9356v-74.064l4-16 44-12-8.0801-40h71.184z" style="fill:#bd9aff"/>
 <path d="m59.921 20 13.941 22.387-13.43 31.475s-8.4374 0.91853-17.633 2.3438c-4.9606 0.76886-9.6333 1.1355-12.584 1.8535-9.6138 2.3395-10.072 11.121-10.072 11.121l-0.14258-0.43359v-58.811c0-5.5038 4.4318-9.9355 9.9356-9.9355h29.984z" style="fill:#ff837d"/>
 <path d="m162.07 20c5.5038 0 9.9355 4.4318 9.9355 9.9355v132.13c0 5.5038-4.4318 9.9356-9.9355 9.9356h-61.482c6.1262-2.4745 15.726-6.2434 27.615-10.418 5.745-2.0172 7.3625-9.6873 7.7168-14.689 2.3197-32.753-27.617-89.706-27.617-89.706l22.807-37.187z" style="fill:#8c72bd"/>
 <rect x="40" y="40" width="112" height="112" ry="9.0789" style="fill:#4a4a4a;paint-order:stroke fill markers"/>
 <path d="m108.9 53.535c-7.6018 0-16.004 4.4002-16.004 14.643 0 16.644 21.844 12.644 21.844 19.926 0 1.9204-1.6 3.2812-4.7207 3.2812-4.161 0-7.5208-2.241-9.2012-5.8418l-10.004 6.2402c3.2008 6.0814 10.243 11.043 19.045 11.043 9.2022 0 17.125-5.3603 17.125-14.562 0-18.244-21.766-13.683-21.766-20.965 0-2.0805 1.601-3.041 3.5215-3.041 2.4006 0 5.041 1.4395 7.6016 4.1602l8.002-7.7617c-3.7609-4.401-9.442-7.1211-15.443-7.1211zm-55.109 0.64062v48.01h12.244v-18.803h9.1211c8.322 0 14.725-6.0823 14.725-14.404 0-8.1619-6.4027-14.803-14.725-14.803h-21.365zm12.244 10.643h7.1211c2.8807 0 4.9609 1.7597 4.9609 4.2402 0 2.5606-2.0803 4.4004-4.9609 4.4004h-7.1211v-8.6406z" style="fill:#fff;stroke-width:1.6004"/>
 <rect x="54.009" y="125.08" width="44.958" height="11.722" style="fill:#fff;paint-order:stroke fill markers"/>
</svg>
