<svg width="192" height="192" version="1.1" viewBox="0 0 192 192" xmlns="http://www.w3.org/2000/svg">
 <path d="m96 8c-26.592 0-48 21.408-48 48v36c0 26.592 21.408 48 48 48s48-21.408 48-48v-36c0-26.592-21.408-48-48-48zm0 16c17.728 0 32 14.272 32 32v36c0 17.728-14.272 32-32 32s-32-14.272-32-32v-36c0-17.728 14.272-32 32-32z" style="fill:#ccc;paint-order:stroke fill markers"/>
 <rect x="32" y="72" width="128" height="112" ry="10" style="fill:#f9de81;paint-order:stroke fill markers"/>
 <g transform="matrix(.98603 0 0 .98603 1.016 -816.65)" style="fill:#c39a54">
  <circle cx="96" cy="950.36" r="20.838" style="fill:#c39a54"/>
  <rect x="88.521" y="949.92" width="14.958" height="39.207" rx="4.2371" ry="4.2371" style="fill:#c39a54"/>
 </g>
 <style type="text/css">.st0{fill:#FFFFFF;}</style>
 <style type="text/css">.st0{fill:#FFFFFF;}</style>
 <style type="text/css">.st0{fill:#FFFFFF;}</style>
</svg>
