<svg width="192" height="192" version="1.1" viewBox="0 0 192 192" xmlns="http://www.w3.org/2000/svg">
 <path d="m44 32c-14 0-20.11 4.0325-23.61 11.032s-4.3903 16.968-4.3903 16.968l60-20s-11.58-3.4688-14.08-5.4688-7.9199-2.5312-17.92-2.5312zm104 0c-10 0-15.42 0.53125-17.92 2.5312s-14.08 5.4688-14.08 5.4688l60 20s0.89026-9.9675-2.6097-16.968-11.39-11.032-25.39-11.032z" style="fill:#b1b5bd"/>
 <path d="m52 36c-12 0-26.905 1.8107-32 12-4 8-12 32-12 84 0 11.47 8.5305 28.084 20 28 32 0 28-43.699 40-43.699h56c12 0 8 43.699 40 43.699 11.469 0.0843 20-16.53 20-28 0-52-8-76-12-84-5.0947-10.189-20-12-32-12-4.8074 0-11.193 4-16 4h-56c-4.8074 0-11.193-4-16-4z" style="fill:#ececec"/>
 <path d="m30.916 74.914c0-2.2159 2.2159-2.2159 2.2159-2.2159h10.193l5.3182 5.3182-5.3182 5.3182h-10.193s-2.2159 0-2.2159-2.2159z" style="fill:#83868c;stroke-width:.88636"/>
 <path d="m69.916 81.119c0 2.2159-2.2159 2.2159-2.2159 2.2159h-10.193l-5.3182-5.3182 5.3182-5.3182h10.193s2.2159 0 2.2159 2.2159z" style="fill:#83868c;stroke-width:.88636"/>
 <path d="m47.314 97.516c-2.2159 0-2.2159-2.2159-2.2159-2.2159v-10.193l5.3182-5.3182 5.3182 5.3182v10.193s0 2.2159-2.2159 2.2159z" style="fill:#83868c;stroke-width:.88636"/>
 <path d="m53.518 58.516c2.2159 0 2.2159 2.2159 2.2159 2.2159v10.193l-5.3182 5.3182-5.3182-5.3182v-10.193s0-2.2159 2.2159-2.2159z" style="fill:#83868c;stroke-width:.88636"/>
 <circle cx="124.5" cy="78" r="6" style="fill:#ff837d;paint-order:stroke fill markers"/>
 <circle cx="138" cy="91.5" r="6" style="fill:#ba6561;paint-order:stroke fill markers"/>
 <circle cx="151.5" cy="78" r="6" style="fill:#ba6561;paint-order:stroke fill markers"/>
 <circle cx="138" cy="64.5" r="6" style="fill:#ff837d;paint-order:stroke fill markers"/>
 <path d="m9.1855 99.807c-0.7311 9.2993-1.1855 19.943-1.1855 32.193 0 11.47 8.5305 28.084 20 28 32 0 28-43.699 40-43.699h-36c-14.484 0-20.556-10.621-22.814-16.494zm173.63 0c-2.259 5.8727-8.3306 16.494-22.814 16.494h-36c12 0 8 43.699 40 43.699 11.469 0.0843 20-16.53 20-28 0-12.25-0.45444-22.894-1.1856-32.193z" style="fill:#ccc"/>
</svg>
