<svg width="192" height="192" version="1.1" viewBox="0 0 192 192" xmlns="http://www.w3.org/2000/svg">
 <circle cx="96" cy="96" r="88" style="fill-rule:evenodd;fill:#8c72bd;stroke:#8c72bd"/>
 <path d="m76.521 49.285v69.955h5.8086v-4.9434c3.5601 3.5167 8.3375 5.7031 13.678 5.7031 10.774 0 19.488-8.8392 19.488-19.77 0-10.93-8.7142-19.77-19.488-19.77-5.3402 0-10.118 2.1864-13.678 5.7031v-36.879h-5.8086zm-30.033 31.176c-9.0877 0-16.488 5.9882-16.488 15.018h5.8086c0-5.8929 4.6836-9.125 10.586-9.125s10.588 3.2321 10.588 9.125v3.1367h-14.334c-7.7761 0-12.648 4.1821-12.648 10.74 0 6.4631 4.8724 10.645 12.742 10.645 6.6518 0 11.992-2.5667 14.709-6.8438 1.2179 4.087 4.2159 6.8438 8.7129 6.8438 1.0306 0 2.061-0.28454 2.8105-0.75977v-4.9434h-2.3418c-2.0611 0-3.8418-1.4247-3.8418-4.9414v-13.877c0-9.0294-7.3087-15.018-16.303-15.018zm96.961 0c-10.774 0-19.486 8.8392-19.486 19.77 0 10.93 8.7122 19.77 19.486 19.77 8.713 0 16.021-5.7036 18.551-13.688h-6.1836c-2.2485 4.6572-6.9333 7.7949-12.367 7.7949-7.5887 0-13.678-6.0832-13.678-13.877 0-7.7938 6.089-13.877 13.678-13.877 5.4339 0 10.119 3.1377 12.367 7.7949h6.1836c-2.5296-7.9839-9.8378-13.688-18.551-13.688zm-47.441 5.8926c7.5887 0 13.68 6.1782 13.68 13.877 0 7.6987-6.091 13.877-13.68 13.877-7.5887 0-13.678-6.1782-13.678-13.877 0-7.6987 6.089-13.877 13.678-13.877zm-52.143 17.203h13.117v2.4707c-1.8738 5.4176-6.7464 8.8398-13.023 8.8398-4.5907 0-7.5879-2.1858-7.5879-5.6074 0-3.4216 2.9034-5.7031 7.4941-5.7031z" style="fill:#fff"/>
</svg>
