<svg width="192" height="192" fill="none" version="1.1" viewBox="0 0 192 192" xmlns="http://www.w3.org/2000/svg">
 <path d="m95.605 181.81c46.727 0 84.606-38.237 84.606-85.404 0-47.167-37.879-85.404-84.606-85.404-46.726 0-84.605 38.237-84.605 85.404 0 47.167 37.879 85.404 84.605 85.404z" clip-rule="evenodd" fill="#F9DE81" fill-rule="evenodd"/>
 <path d="m48.672 133.91c11.391 12.664 27.824 20.615 46.096 20.615 18.908 0 35.848-8.514 47.268-21.956" stroke="#C39A54" stroke-linecap="round" stroke-width="10"/>
 <path d="m58.707 102.44c6.4655 0 11.707-5.2463 11.707-11.718s-5.2414-11.717-11.707-11.717-11.707 5.2461-11.707 11.717 5.2414 11.718 11.707 11.718z" clip-rule="evenodd" fill="#C39A54" fill-rule="evenodd"/>
 <path d="m132.29 102.44c6.466 0 11.707-5.2463 11.707-11.718s-5.241-11.717-11.707-11.717c-6.465 0-11.707 5.2461-11.707 11.717s5.242 11.718 11.707 11.718z" clip-rule="evenodd" fill="#C39A54" fill-rule="evenodd"/>
</svg>
