<svg width="192" height="192" version="1.1" viewBox="0 0 192 192" xmlns="http://www.w3.org/2000/svg">
 <path d="m24 33c-8.2235 0-15 6.7765-15 15v96c0 8.2235 6.7765 15 15 15h144c8.2235 0 15-6.7765 15-15v-96c0-8.2235-6.7765-15-15-15z" style="color-rendering:auto;color:#000000;dominant-baseline:auto;fill-rule:evenodd;fill:#b1b5bd;font-feature-settings:normal;font-variant-alternates:normal;font-variant-caps:normal;font-variant-ligatures:normal;font-variant-numeric:normal;font-variant-position:normal;image-rendering:auto;isolation:auto;mix-blend-mode:normal;shape-padding:0;shape-rendering:auto;solid-color:#000000;text-decoration-color:#000000;text-decoration-line:none;text-decoration-style:solid;text-indent:0;text-orientation:mixed;text-transform:none;white-space:normal"/>
 <path d="m24 43c-2.8565 0-5 2.1435-5 5v96c0 2.8565 2.1435 5 5 5h144c2.8565 0 5-2.1435 5-5v-96c0-2.8565-2.1435-5-5-5h-144z" style="fill-rule:evenodd;fill:#54688c"/>
 <path d="m135 53a31.606 31.606 0 0 1 12.287 24.967 31.606 31.606 0 0 1-31.605 31.605 31.606 31.606 0 0 1-6.3184-0.63867 31.606 31.606 0 0 0 19.318 6.6387 31.606 31.606 0 0 0 31.605-31.605 31.606 31.606 0 0 0-25.287-30.967z" style="fill:#ececec"/>
 <circle cx="102.5" cy="74.5" r="2.5" style="fill:#fff;paint-order:stroke fill markers"/>
 <circle cx="122.5" cy="84.5" r="2.5" style="fill:#fff;opacity:.5;paint-order:stroke fill markers"/>
 <circle cx="92.5" cy="99.5" r="2.5" style="fill:#fff;opacity:.25;paint-order:stroke fill markers"/>
 <circle cx="82.5" cy="64.5" r="2.5" style="fill:#fff;opacity:.5;paint-order:stroke fill markers"/>
 <circle cx="117.5" cy="129.5" r="2.5" style="fill:#fff;opacity:.5;paint-order:stroke fill markers"/>
 <circle cx="157.5" cy="129.5" r="2.5" style="fill:#fff;opacity:.25;paint-order:stroke fill markers"/>
 <circle cx="137.5" cy="139.5" r="2.5" style="fill:#fff;paint-order:stroke fill markers"/>
 <circle cx="72.5" cy="109.5" r="2.5" style="fill:#fff;paint-order:stroke fill markers"/>
 <circle cx="112.5" cy="54.5" r="2.5" style="fill:#fff;opacity:.25;paint-order:stroke fill markers"/>
 <circle cx="87.5" cy="124.5" r="2.5" style="fill:#fff;opacity:.25;paint-order:stroke fill markers"/>
 <circle cx="52.5" cy="99.5" r="2.5" style="fill:#fff;opacity:.5;paint-order:stroke fill markers"/>
 <circle cx="47.5" cy="74.5" r="2.5" style="fill:#fff;paint-order:stroke fill markers"/>
 <circle cx="57.5" cy="64.5" r="2.5" style="fill:#fff;opacity:.25;paint-order:stroke fill markers"/>
 <circle cx="67.5" cy="54.5" r="2.5" style="fill:#fff;paint-order:stroke fill markers"/>
 <circle cx="52.5" cy="119.5" r="2.5" style="fill:#fff;opacity:.5;paint-order:stroke fill markers"/>
 <circle cx="62.5" cy="134.5" r="2.5" style="fill:#fff;opacity:.25;paint-order:stroke fill markers"/>
 <circle cx="37.5" cy="124.5" r="2.5" style="fill:#fff;paint-order:stroke fill markers"/>
 <circle cx="97.5" cy="139.5" r="2.5" style="fill:#fff;paint-order:stroke fill markers"/>
 <circle cx="32.5" cy="59.5" r="2.5" style="fill:#fff;paint-order:stroke fill markers"/>
 <circle cx="32.5" cy="84.5" r="2.5" style="fill:#fff;opacity:.25;paint-order:stroke fill markers"/>
 <circle cx="32.5" cy="134.5" r="2.5" style="fill:#fff;opacity:.25;paint-order:stroke fill markers"/>
 <circle cx="72.5" cy="84.5" r="2.5" style="fill:#fff;opacity:.25;paint-order:stroke fill markers"/>
 <circle cx="37.5" cy="109.5" r="2.5" style="fill:#fff;opacity:.25;paint-order:stroke fill markers"/>
</svg>
