<svg width="192" height="192" version="1.1" viewBox="0 0 192 192" xmlns="http://www.w3.org/2000/svg">
 <g transform="translate(0 -860.36)">
  <path d="m91.428 870.27c-23.685 23.173-53.662 33.776-66.548 37.503-3.4869 1.0082-6.3686 4.5956-6.3023 8.2254 1.3626 74.599 26.322 100 71.749 126.98 3.1215 1.8537 8.2257 1.8537 11.347 0 45.426-26.976 70.386-52.378 71.749-126.98 0.0663-3.6298-2.8154-7.2172-6.3024-8.2254-12.887-3.7263-42.864-14.33-66.548-37.503-2.5946-2.5386-6.5484-2.5385-9.1431 9e-5z" style="fill:#bd9aff"/>
  <g transform="matrix(.98603 0 0 .98603 1.3412 15.506)" style="fill:#8c72bd">
   <circle cx="96" cy="950.36" r="20.838" style="fill:#8c72bd;stop-color:#000000"/>
   <rect x="88.521" y="949.92" width="14.958" height="39.207" rx="4.2371" ry="4.2371" style="fill:#8c72bd;stop-color:#000000"/>
  </g>
 </g>
 <style type="text/css">.st0{fill:#FFFFFF;}</style>
 <style type="text/css">.st0{fill:#FFFFFF;}</style>
 <style type="text/css">.st0{fill:#FFFFFF;}</style>
</svg>
