<svg width="192" height="192" version="1.1" viewBox="0 0 192 192" xmlns="http://www.w3.org/2000/svg">
 <g fill="none" fill-rule="evenodd">
  <path d="m76.59 180.38c-2.0481 1.8561-5.7137 2.3651-8.1884 1.1364l-18.924-9.3953c-2.4743-1.2284-4.3392-4.4543-4.1649-7.2156l0.6855-10.856c0.17407-2.7566-1.0851-6.7349-2.8099-8.8825l-5.0767-6.3212c-1.726-2.1491-5.3267-4.2495-8.0689-4.6958l-9.8047-1.5957c-2.7304-0.44437-5.3997-2.9939-5.9614-5.6902l-4.5236-21.718c-0.56202-2.6983 0.81887-6.1696 3.0798-7.7502l7.2847-5.0929c2.263-1.5821 4.5788-5.0584 5.1688-7.747l1.9146-8.7259c0.59166-2.6965-0.027115-6.8375-1.3756-9.2379l-3.8487-6.8507c-1.3514-2.4055-1.029-6.0909 0.71804-8.2291l14.659-17.941c1.748-2.1394 5.3165-3.2375 7.9605-2.4558l6.6115 1.9547c2.6485 0.78303 6.808 0.43088 9.2913-0.78694l9.0086-4.4179c2.4829-1.2176 5.3398-4.2832 6.3759-6.8347l2.45-6.0333c1.0384-2.5571 4.1239-4.6393 6.8815-4.6507l23.404-0.096926c2.7622-0.011439 5.8455 2.0581 6.8842 4.6161l2.3982 5.9058c1.0399 2.5608 3.9057 5.6107 6.3903 6.8069l9.5562 4.601c2.4893 1.1985 6.663 1.5328 9.3011 0.75287l6.646-1.9649c2.6475-0.78273 6.2173 0.30689 7.9801 2.4419l14.458 17.511c1.7598 2.1314 2.0878 5.8148 0.73536 8.222l-3.7727 6.7152c-1.3537 2.4095-1.9672 6.5486-1.372 9.2375l2.2072 9.9709c0.59597 2.6922 2.9091 6.154 5.1722 7.7362l7.2387 5.0607c2.2605 1.5804 3.6309 5.0596 3.0634 7.7591l-4.4391 21.113c-0.56869 2.7048-3.2472 5.2584-5.9665 5.701l-9.7909 1.5935c-2.7265 0.44375-6.3414 2.5347-8.0841 4.6827l-5.7441 7.0799c-1.7382 2.1424-3.0062 6.1139-2.8326 8.8633l0.67756 10.73c0.17382 2.7526-1.7034 5.9672-4.1747 7.1712l-18.772 9.1453c-2.4795 1.208-6.152 0.68046-8.1974-1.1731l-8.3991-7.6118c-2.0478-1.8558-5.9493-3.2287-8.6948-3.0674l1.1817-0.0694c-2.7542 0.16175-7.2114 0.15327-9.9826-0.020654l0.60463 0.037947c-2.759-0.17316-6.6496 1.1853-8.704 3.0472l-8.3153 7.5358z" fill="#B1B5BD"/>
  <circle cx="98" cy="96" r="35" fill="#4A4A4A"/>
  <circle cx="98.5" cy="96.5" r="53.5" stroke="#F9DE81" stroke-width="10"/>
 </g>
</svg>
