<svg width="192" height="192" version="1.1" viewBox="0 0 192 192" xmlns="http://www.w3.org/2000/svg">
 <circle cx="96" cy="96" r="88" style="fill:#728dbe"/>
 <path d="m96 56c-5.5228 0-10 4.4772-10 10s4.4772 10 10 10c5.5228 0 10-4.4772 10-10s-4.4772-10-10-10zm-32.039 15.969c-3.9904-8e-3 -5.5303 5.1921-2.1797 7.3594 0 0 5.559 2.4816 14.367 5.9844 2.0265 0.80592 5.2428 3.294 6.6484 6.6875 2.041 4.9274 1.2031 10.667 1.2031 16 0 3.7214 0.14676 8.6616-1.8125 12.094l-5.6641 9.9219c-2.6473 4.6358 4.3059 8.6046 6.9531 3.9687l7.8834-15.095c1.3629-2.6097 3.1751-4.8906 4.64-4.8906 1.46 0 3.1993 2.1543 4.528 4.6953l7.9954 15.29c2.6454 4.6369 9.5986 0.66812 6.9531-3.9687l-5.6641-9.9219c-1.9593-3.4321-1.8125-8.3724-1.8125-12.094 0-5.3333-0.43942-11.073 1.6016-16 1.4065-3.3956 4.5488-5.8878 6.2656-6.6875 8.5851-3.999 14.352-5.9844 14.352-5.9844 4.5547-2.9344 0.0228-9.732-4.4375-6.6562 0 0-10.848 7.3281-29.781 7.3281-18.933 0-29.781-7.3281-29.781-7.3281-0.66455-0.45656-1.4516-0.70164-2.2578-0.70312z" style="color-rendering:auto;color:#000000;dominant-baseline:auto;fill:#fff;font-feature-settings:normal;font-variant-alternates:normal;font-variant-caps:normal;font-variant-ligatures:normal;font-variant-numeric:normal;font-variant-position:normal;image-rendering:auto;isolation:auto;mix-blend-mode:normal;shape-padding:0;shape-rendering:auto;solid-color:#000000;text-decoration-color:#000000;text-decoration-line:none;text-decoration-style:solid;text-indent:0;text-orientation:mixed;text-transform:none;white-space:normal"/>
</svg>
