<svg width="192" height="192" fill="none" version="1.1" viewBox="0 0 192 192" xmlns="http://www.w3.org/2000/svg">
 <rect x="20" y="20" width="152" height="152" rx="10" fill="#56595B"/>
 <path d="m93.371 63c-9.5628 0-17.371 7.9222-17.371 17.5v12.5 0.072266l15.225 14.141c3.8747 3.5988 9.8125 3.5773 13.662-0.04883l15.035-14.164h0.07812v-12.5c0-9.579-7.8093-17.5-17.371-17.5h-9.2578zm0 10h9.2578c4.1022 0 7.3711 3.2688 7.3711 7.5v12.5h-24v-12.5c0-4.2294 3.2687-7.5 7.3711-7.5zm26.629 26.795-11.686 11.01c-5.7304 5.3978-14.724 5.4275-20.492 0.07031l-11.822-10.979v20.104c0 2.761 2.2386 5 5 5h34c2.761 0 5-2.239 5-5v-20.205z" style="fill:#fff"/>
</svg>
