<svg width="192" height="192" version="1.1" viewBox="0 0 192 192" xmlns="http://www.w3.org/2000/svg">
 <g transform="translate(13 11)" fill-rule="evenodd">
  <path d="m84.833 0.0014237c-7.0803 0.032984-13.842 0.63839-19.791 1.6939-17.526 3.1043-20.709 9.6019-20.709 21.585v15.825h41.417v5.2752h-41.417-15.543c-12.037 0-22.577 7.2535-25.874 21.052-3.8028 15.817-3.9714 25.686 0 42.201 2.9441 12.293 9.9749 21.052 22.012 21.052h14.24v-18.971c0-13.706 11.828-25.795 25.874-25.795h41.369c11.516 0 20.709-9.506 20.709-21.101v-39.54c0-11.253-9.469-19.707-20.709-21.585-7.1148-1.1874-14.497-1.7268-21.577-1.6939zm-22.398 12.728c4.2781 0 7.7717 3.5598 7.7717 7.9369-3.1e-6 4.3616-3.4936 7.8886-7.7717 7.8886-4.2934-1.6e-6 -7.7717-3.527-7.7717-7.8886-1.5e-6 -4.3771 3.4783-7.9369 7.7717-7.9369z" fill="#98DC9A" style="fill:#728dbe"/>
  <path d="m132.28 44.381v18.439c0 14.295-12.089 26.327-25.874 26.327h-41.369c-11.332 0-20.709 9.7233-20.709 21.101v39.54c0 11.253 9.7603 17.872 20.709 21.101 13.11 3.8649 25.682 4.5634 41.369 0 10.427-3.0267 20.709-9.118 20.709-21.101v-15.825h-41.369v-5.2752h41.369 20.709c12.037 0 16.522-8.4177 20.709-21.052 4.3241-13.007 4.1401-25.516 0-42.201-2.9747-12.014-8.6563-21.052-20.709-21.052h-15.544zm-23.267 100.13c4.2934 4e-6 7.7717 3.527 7.7717 7.8885-3e-6 4.3771-3.4783 7.9369-7.7717 7.9369-4.2781 0-7.7717-3.5599-7.7717-7.9369 3e-6 -4.3616 3.4936-7.8885 7.7717-7.8885z" fill="#F9DE81"/>
 </g>
</svg>
