<svg width="192" height="192" fill="none" version="1.1" viewBox="0 0 192 192" xmlns="http://www.w3.org/2000/svg">
 <rect x="21" y="20" width="152" height="152" rx="10" fill="#fff" style="fill:#ff837d"/>
 <path d="m40 39v3.4531 0.001953 3.4531h3.4551v-3.4531h3.4531v-3.4551h-3.4531-3.4551zm6.9102 0v3.4551h3.4531 3.4551 3.4551 3.4531v3.4531h3.4551v-3.4551-3.4531h-3.4551-3.4531-3.4551-3.4551-3.4531zm27.635 0v3.4551 3.4531h3.4551v-3.4551-3.4531h-3.4551zm6.9102 0v3.4551h3.4531v-3.4551h-3.4531zm3.4551 0v3.4551 3.4531h3.4531 3.4551 3.4551 3.4531v-3.4531h3.4551v3.4531h3.4551v-3.4531h3.4531v-3.4551h-3.4531-3.4551-3.4551v3.4531h-3.4531-3.4551-3.4551v-3.4531h-3.4531zm24.182 0v3.4551 3.4531h3.4531v-3.4531h3.4551 3.4551 3.4551v-3.4551h-3.4551-3.4551-3.4551-3.4531zm20.727 0v3.4551 3.4531h3.4551v-3.4531h3.4551 3.4531 3.4551 3.4531v-3.4551h-3.4531-3.4551-3.4531-0.00196-3.4531-3.4551zm17.273 0v3.4551h3.4531v3.4531h3.4551v-3.4551-3.4531h-3.4551-3.4531zm-79.455 3.4531v3.4551h3.4531v-3.4551h-3.4531zm-27.637 3.457v3.4531 3.4551 3.4551 3.4531 3.4551h3.4551 3.4531v-3.4551h-3.4531v-3.4531-3.4551-3.4551-3.4531h-3.4551zm6.9102 0v3.4531 3.4551 3.4551h3.4531 3.4551 3.4551v-3.4551-3.4551-3.4531h-3.4551-3.4551-3.4531zm13.816 0v3.4531 3.4551 3.4551 3.4531h-3.4531-3.4551-3.4551-3.4531v3.4551h3.4531 3.4551 3.4551 3.4531 3.4551v-3.4551-3.4531-3.4551-3.4551-3.4531h-3.4551zm20.729 0v3.4531 3.4551h3.4531v-3.4551-3.4531h-3.4531zm24.182 0v3.4531 3.4551h-3.4551v3.4551h3.4551 3.4531v-3.4551-3.4551-3.4531h-3.4531zm-3.4551 6.9082v-3.4551h-3.4551-3.4531-3.4551-3.4551-3.4531v3.4551h3.4531 3.4551 3.4551v3.4551h3.4531v-3.4551h3.4551zm-6.9082 3.4551h-3.4551-3.4551v3.4531 3.4551h3.4551v-3.4551h3.4551v-3.4531zm0 3.4531v3.4551 3.4551h3.4531v-3.4551-3.4551h-3.4531zm3.4531 6.9102v3.4531h-3.4531v-3.4531h-3.4551-3.4551-3.4531v3.4551h3.4531 3.4551 3.4551v3.4531h3.4531 3.4551v-3.4531h3.4551v3.4531h3.4531v-3.4551h-3.4531v-3.4531h3.4531v-3.4551h-3.4531v-3.4551h-3.4551v3.4551 3.4551h-3.4551zm10.365-20.727v3.4531 3.4551h3.4531v-3.4551h3.4551v-3.4531h-3.4551-3.4531zm6.9082 3.4531v3.4551h3.4551v3.4551h3.4531v3.4531 3.4551h3.4551v-3.4551-3.4531h-3.4531v-3.4551h3.4531v-3.4551h-3.4531v-3.4531h-3.4551v3.4531h-3.4551zm3.4551 6.9102h-3.4551v-3.4551h-3.4551v3.4551h-3.4531v3.4531 3.4551h3.4531v-3.4551h3.4551v3.4551h-3.4551v3.4551h3.4551 3.4551v-3.4551-3.4551-3.4531zm-6.9102 10.363h-3.4531v3.4551 3.4531h3.4531v-3.4551-3.4531zm17.273-20.727v3.4531 3.4551 3.4551 3.4531 3.4551h3.4551 3.4551 3.4531 3.4551 3.4531v-3.4551h-3.4531-3.4551-3.4531-0.00196-3.4531v-3.4531-3.4551-3.4551-3.4531h-3.4551zm6.9082 0v3.4531 3.4551 3.4551h3.4551 3.4551 3.4531v-3.4551-3.4551-3.4531h-3.4531-3.4551-3.4551zm13.818 0v3.4531 3.4551 3.4551 3.4531h-3.4531v3.4551h3.4531 3.4551v-3.4551-3.4531-3.4551-3.4551-3.4531h-3.4551zm-82.908 3.4531v3.4551h3.4531v3.4551h-3.4531v3.4531 3.4551h3.4531v-3.4551h3.4551v-3.4531-3.4551h3.4551v-3.4551h-3.4551-3.4551-3.4531zm6.9082 10.363v3.4551h-3.4551v3.4551h-3.4531-3.4551-3.4551v3.4551h3.4551 3.4551v3.4531h3.4531v-3.4531h3.4551v3.4531h3.4551v-3.4531h3.4551v3.4531h3.4531v-3.4551h-3.4531v-3.4531-3.4551h-3.4551v-3.4551h-3.4551zm3.4551 0h3.4551v3.4551h3.4531v-3.4551-3.4531h-3.4531-3.4551v3.4531zm-38 6.9102v3.4551h3.4551 3.4531v-3.4551h-3.4531-3.4551zm6.9102 0v3.4551h3.4531 3.4551v3.4531h3.4551v-3.4551-3.4531h-3.4551-3.4551-3.4531zm27.635 0h3.4551v3.4531h-3.4551v-3.4531zm51.818 0v3.4551h3.4551v3.4531h3.4551v-3.4531h3.4551v-3.4551h-3.4551v3.4531h-3.4551v-3.4531h-3.4551zm13.818 0v3.4551h3.4551v3.4531h3.4531v-3.4551h-3.4531v-3.4531h-3.4551zm6.9102 0v3.4551 3.4531h3.4531 3.4551v-3.4551h-3.4551v-3.4531h-3.4531zm-27.637 3.4531v3.4551h3.4551v-3.4551h-3.4551zm-72.545 3.457v3.4531 3.4551h3.4531 3.4551 3.4551v3.4531h3.4531 3.4551 3.4551 3.4531 3.4551 3.4551v-3.4551h-3.4551-3.4551-3.4531v-3.4531h-3.4551v3.4531h-3.4551v-3.4531h3.4551v-3.4531h-3.4551-3.4531v3.4531h-3.4551-3.4551v-3.4531h-3.4531zm27.635 0v3.4531h3.4551v-3.4531h-3.4551zm13.818 0v3.4531 3.4531h-3.4531v3.4551h3.4531 3.4551v-3.4531h3.4551v-3.4551h3.4531v-3.4531h-3.4531-3.4551-3.4551zm27.637 0v3.4531h-3.4551-3.4531v3.4551h3.4531 3.4551v3.4531h3.4551v-3.4531h3.4551 3.4531v3.4531h3.4551v-3.4531h3.4551v3.4531h3.4551 3.4531 3.4551v-3.4531h3.4531v-3.4551h-3.4531v3.4531h-3.4551v-3.4531h3.4551v-3.4531h-3.4551-3.4551v3.4531 3.4531h-3.4531v-3.4531-3.4531h-3.4551-3.4551v3.4531h-3.4531-0.00196-3.4531v-3.4531h-3.4551zm31.092 0v3.4531h3.4531v-3.4531h-3.4531zm-107.09 3.4531v3.4551 3.4531h3.4551v-3.4551-3.4531h-3.4551zm41.455 0v3.4551 3.4531h3.4531v-3.4551-3.4531h-3.4531zm17.271 3.4531v3.4551h3.4551v-3.4551h-3.4551zm6.9102 0v3.4551h3.4531v-3.4551h-3.4531zm-65.637 3.457v3.4531h3.4551 3.4531v-3.4531h-3.4531-3.4551zm6.9102 0v3.4531h3.4531 3.4551v-3.4531h-3.4551-3.4531zm6.9082 3.4531v3.4551h3.4551 3.4531 3.4551v-3.4551h-3.4551-3.4531-3.4551zm10.363 3.4551v3.4551h3.4551v-3.4551h-3.4551zm3.4551 0h3.4531 3.4551v-3.4551-3.4531h-3.4551v3.4531h-3.4531v3.4551zm6.9082 0v3.4551 3.4531h3.4551 3.4551v-3.4531-3.4551h3.4531v-3.4551h-3.4531-3.4551v3.4551h-3.4551zm6.9102 6.9082v3.4551h3.4531v-3.4551h-3.4531zm-13.818-3.4531v3.4531h3.4531v-3.4531h-3.4531zm-3.4551 0h-3.4551-3.4531-3.4551v-3.4551h-3.4551v3.4551 3.4531h3.4551v3.4551 3.4551h3.4551v-3.4551-3.4551h3.4531 3.4551v-3.4531zm-6.9082 10.363v3.4551h-3.4551-3.4551-3.4531v3.4531h3.4531 3.4551 3.4551 3.4531 3.4551 3.4551 3.4531v-3.4531-3.4551h-3.4531-3.4551v3.4551h-3.4551v-3.4551h-3.4531zm3.4531 0h3.4551v-3.4551h-3.4551v3.4551zm10.363 0h3.4551v-3.4551h-3.4551v3.4551zm-20.727-6.9102h-3.4531v3.4551h3.4531v-3.4551zm34.547-13.816v3.4531h3.4531v-3.4531h-3.4531zm3.4531 3.4531v3.4551h3.4551v3.4551h-3.4551-3.4531v3.4531h3.4531v3.4551 3.4551h3.4551v3.4551h3.4551 3.4531v-3.4551h-3.4531v-3.4551h-3.4551v-3.4551h3.4551v-3.4531h3.4531v-3.4551h3.4551v-3.4551h-3.4551v-3.4531h-3.4531v3.4531h-3.4551-3.4551zm10.363 6.9102v3.4531h3.4551v-3.4531h-3.4551zm3.4551 3.4531v3.4551h3.4551 3.4531v-3.4551-3.4531h-3.4531v3.4531h-3.4551zm-3.4551 0h-3.4531v3.4551h3.4531v-3.4551zm0 10.365v3.4531h3.4551v-3.4531h-3.4551zm-6.9082 0h-3.4551-3.4531v3.4531h3.4531 3.4551v-3.4531zm13.818-24.182v3.4531h3.4531v-3.4531h-3.4531zm3.4551 0v3.4531 3.4551h3.4531v3.4551h3.4551v3.4531h-3.4551-3.4531v3.4551 3.4551h3.4531v3.4551h3.4551v-3.4551-3.4551h3.4551 3.4551 3.4531v-3.4551h3.4551v-3.4531h3.4551v-3.4551h-3.4551v-3.4551h-3.4551v3.4551 3.4551h-3.4531v-3.4551h-3.4551-3.4551v-3.4551-3.4531h-3.4551-3.4531zm20.727 3.4531h3.4551v-3.4531h-3.4551v3.4531zm3.4551 6.9102v3.4531h3.4551 3.4531v-3.4531h-3.4531-0.00196-3.4531zm6.9082 3.4531v3.4551h-3.4531-0.00196-3.4531v-3.4551h-3.4551v3.4551h-3.4551v3.4551h3.4551 3.4551 3.4531v3.4551h-3.4531v3.4531h3.4551 3.4531v-3.4531-3.4551h3.4551v-3.4551-3.4551h-3.4551zm3.4551 6.9102v3.4551h3.4531v-3.4551h-3.4531zm-27.637 3.4551v3.4531h3.4551 3.4551 3.4531 3.4551v-3.4531h-3.4551-3.4531-0.00196-3.4531-3.4551zm3.4551-24.182v3.4531h3.4551v-3.4531h-3.4551zm27.637 0v3.4531 3.4551h3.4531v-3.4551h3.4551v-3.4531h-3.4551-3.4531zm-10.365 3.4531v3.4551h3.4551v-3.4551h-3.4551zm6.9102 3.4551v3.4551h3.4531v-3.4551h-3.4531zm-103.64 3.4551v3.4531 3.4551 3.4551h3.4551v-3.4551h3.4531v-3.4551h-3.4531v-3.4531h-3.4551zm3.4551 10.363v3.4551 3.4531h3.4531v-3.4531-3.4551h-3.4531zm103.64-10.363v3.4531 3.4551 3.4551h3.4531v-3.4551h3.4551v-3.4551h-3.4551v-3.4531h-3.4531zm-65.637 10.363v3.4551 3.4531h3.4531v-3.4531-3.4551h-3.4531zm-6.9102 3.4551v3.4531h3.4551v-3.4531h-3.4551zm72.547 0v3.4531h3.4531v-3.4531h-3.4531zm-103.64 3.4551v3.4531 3.4551 3.4531 3.4551h3.4531v-3.4551-3.4551-3.4531-3.4531h-3.4531zm31.09 0v3.4531h-3.4551-3.4531-3.4551-3.4551-3.4531-3.4551v3.4551 3.4531h3.4551v3.4551h3.4531 3.4551v-3.4551h-3.4551v-3.4531h3.4551v3.4531h3.4551v-3.4531h3.4531v3.4531h-3.4531v3.4551 3.4551 3.4551h3.4531 3.4551v-3.4551h-3.4551v-3.4551h3.4551v3.4551h3.4551v-3.4551h3.4551v-3.4551-3.4531h3.4531v-3.4551h-3.4531-3.4551v-3.4531h-3.4551zm6.9102 13.816v3.4551h3.4531v-3.4551h-3.4531zm13.818-13.816v3.4531h3.4531v-3.4531h-3.4531zm3.4531 3.4531v3.4531h-3.4531v-3.4531h-3.4551v3.4531h-3.4551v3.4551h3.4551v-3.4531h3.4551v3.4531h3.4531v-3.4531h3.4551v3.4531h3.4551v-3.4551-3.4531h3.4531v-3.4531h-3.4531-3.4551v3.4531h-3.4551zm3.4551 6.9082h-3.4551v3.4551h3.4551v-3.4551zm6.9102-10.361v3.4531h3.4531v3.4531h-3.4531v3.4551 3.4551 3.4551 3.4551 3.4531h3.4531 3.4551 3.4551 3.4551 3.4531v-3.4551-3.4531-3.4551h3.4551 3.4551 3.4531v3.4551 3.4551 3.4531h3.4551 3.4551 3.4531v-3.4551-3.4531-3.4551h-3.4531v3.4551 3.4531h-3.4551v-3.4531-3.4551h3.4551v-3.4551h3.4531v-3.4551h-3.4531v-3.4531-3.4531h-3.4551v3.4531 3.4531h-3.4531-0.00196-3.4531v3.4551h-3.4551v-3.4551-3.4531h-3.4551v3.4551 3.4531h-3.4531v-3.4551h-3.4551v3.4551h-3.4551v3.4551h-3.4551v-3.4551h3.4551v-3.4551-3.4531h3.4551 3.4551v-3.4531h-3.4551-3.4551-3.4551-3.4531zm20.727 3.4531h3.4551 3.4551v-3.4531h-3.4551-3.4551v3.4531zm17.273-3.4531v3.4531 3.4551h3.4531v-3.4551h3.4551v-3.4531h-3.4551-3.4531zm-100.18 10.361v3.4551h3.4531v-3.4551h-3.4531zm103.63 0v3.4551 3.4551h3.4551v-3.4551-3.4551h-3.4551zm0 6.9102h-3.4531v3.4551 3.4531h3.4531v-3.4551-3.4531zm-65.635-3.4551v3.4551 3.4551 3.4531h3.4531v-3.4531h3.4551v3.4531h3.4551 3.4531v-3.4531h3.4551 3.4551v-3.4551h-3.4551-3.4551-3.4531-3.4551-3.4551v-3.4551h-3.4531zm20.727 3.4551h3.4531v-3.4551h-3.4531v3.4551zm13.818-3.4551h3.4531v3.4551h-3.4531v3.4531h-3.4551-3.4551v-3.4531h3.4551 3.4551v-3.4551zm-79.455 3.4551v3.4551 3.4531h3.4551v-3.4531h3.4531v-3.4551h-3.4531-3.4551zm6.9102 0v3.4551h3.4531 3.4551 3.4551 3.4531v3.4531h3.4551v-3.4551-3.4531h-3.4551-3.4531-3.4551-3.4551-3.4531zm82.908 0v3.4551h3.4551v-3.4551h-3.4551zm-48.363 3.4531v3.4551h3.4531v-3.4551h-3.4531zm-41.455 3.457v3.4531 3.4551 3.4551 3.4531h3.4551v-3.4531-3.4551-3.4551-3.4531h-3.4551zm6.9102 0v3.4531 3.4551 3.4551h3.4531 3.4551 3.4551v-3.4551-3.4551-3.4531h-3.4551-3.4551-3.4531zm13.816 0v3.4531 3.4551 3.4551 3.4531h3.4551v-3.4531-3.4551-3.4551-3.4531h-3.4551zm6.9102 0v3.4531 3.4551 3.4551 3.4531h3.4531 3.4551 3.4551 3.4551v-3.4531h3.4531v-3.4551h-3.4531-3.4551v3.4551h-3.4551-3.4551v-3.4551-3.4551h3.4551v3.4551h3.4551v-3.4551-3.4531h-3.4551-3.4551-3.4531zm13.818 0v3.4531h3.4531v-3.4531h-3.4531zm6.9082 0v3.4531h3.4551 3.4551v-3.4531h-3.4551-3.4551zm6.9102 3.4531v3.4551h3.4531 3.4551v3.4551h3.4551v-3.4551h3.4531v-3.4551h-3.4531-3.4551v-3.4531h-3.4551v3.4531h-3.4531zm0 3.4551h-3.4551v3.4551h-3.4551v3.4531h3.4551 3.4551 3.4531v-3.4531h-3.4531v-3.4551zm27.635-6.9082v3.4531h-3.4531v3.4551h3.4531v3.4551h3.4551v-3.4551h-3.4531v-3.4551h3.4531 3.4551 3.4551 3.4531v3.4551h3.4551 3.4551v-3.4551h-3.4551v-3.4531h-3.4531-0.00196-3.4531-3.4551-3.4551-3.4551zm20.729 6.9082v3.4551h-3.4551v3.4531h3.4551 3.4531v-3.4531-3.4551h-3.4531zm-17.273 3.4551v3.4531h3.4551 3.4551v-3.4531-3.4551h-3.4551v3.4551h-3.4551zm-6.9082-3.4551h-3.4551v3.4551h-3.4551-3.4531v3.4531h3.4531 3.4551 3.4551v-3.4531-3.4551zm-10.363-3.4551v3.4551h3.4531v-3.4551h-3.4531zm38 3.4551v3.4551h3.4531v-3.4551h-3.4531zm-107.09 6.9102v3.4531h3.4551 3.4531v-3.4531h-3.4531-3.4551zm6.9102 0v3.4531h3.4531 3.4551 3.4551 3.4531 3.4551v-3.4531h-3.4551-3.4531-3.4551-3.4551-3.4531zm20.727 0v3.4531h3.4531 3.4551v-3.4531h-3.4551-3.4531zm10.363 0v3.4531h3.4551v-3.4531h-3.4551zm13.818 0v3.4531h3.4551 3.4531 3.4551v-3.4531h-3.4551-3.4531-3.4551zm24.182 0v3.4531h3.4551 3.4551 3.4531v-3.4531h-3.4531-0.00196-3.4531-3.4551zm13.818 0v3.4531h3.4551 3.4551v-3.4531h-3.4551-3.4551zm17.273 0v3.4531h3.4531v-3.4531h-3.4531z" style="fill:#ba6561"/>
</svg>
