<?xml version="1.0" encoding="UTF-8" standalone="no"?>
<svg
   xmlns:dc="http://purl.org/dc/elements/1.1/"
   xmlns:cc="http://creativecommons.org/ns#"
   xmlns:rdf="http://www.w3.org/1999/02/22-rdf-syntax-ns#"
   xmlns:svg="http://www.w3.org/2000/svg"
   xmlns="http://www.w3.org/2000/svg"
   xmlns:sodipodi="http://sodipodi.sourceforge.net/DTD/sodipodi-0.dtd"
   xmlns:inkscape="http://www.inkscape.org/namespaces/inkscape"
   width="192"
   height="192"
   version="1.1"
   viewBox="0 0 192 192"
   id="svg14"
   sodipodi:docname="radio-garden.svg"
   inkscape:version="0.92.5 (2060ec1f9f, 2020-04-08)">
  <metadata
     id="metadata20">
    <rdf:RDF>
      <cc:Work
         rdf:about="">
        <dc:format>image/svg+xml</dc:format>
        <dc:type
           rdf:resource="http://purl.org/dc/dcmitype/StillImage" />
        <dc:title></dc:title>
      </cc:Work>
    </rdf:RDF>
  </metadata>
  <defs
     id="defs18">
    <clipPath
       id="a"
       transform="translate(-4.59 -8)">
      <circle
         style="fill:none"
         cx="96"
         cy="96"
         r="88"
         id="circle4-3" />
    </clipPath>
  </defs>
  <sodipodi:namedview
     pagecolor="#ffffff"
     bordercolor="#666666"
     borderopacity="1"
     objecttolerance="10"
     gridtolerance="10"
     guidetolerance="10"
     inkscape:pageopacity="0"
     inkscape:pageshadow="2"
     inkscape:window-width="1280"
     inkscape:window-height="745"
     id="namedview16"
     showgrid="true"
     inkscape:zoom="3.3697918"
     inkscape:cx="78.612084"
     inkscape:cy="54.970032"
     inkscape:window-x="-12"
     inkscape:window-y="-2"
     inkscape:window-maximized="1"
     inkscape:current-layer="svg14"
     inkscape:document-rotation="0">
    <inkscape:grid
       type="xygrid"
       id="grid819"
       spacingx="4"
       spacingy="4" />
  </sodipodi:namedview>
  <path
     style="fill:#728dbe;opacity:1"
     d="M 96 8 A 88 88 0 0 0 89.664062 8.234375 L 76 12 L 40 40 L 10.621094 75.119141 A 88 88 0 0 0 8 96 A 88 88 0 0 0 10.574219 116.7207 L 16 124 L 52.115234 172.1875 A 88 88 0 0 0 96 184 A 88 88 0 0 0 158.70117 157.63477 L 158.70117 157.63281 L 156 120 L 164 68 L 140.14258 19.970703 A 88 88 0 0 0 96 8 z "
     id="circle4" />
  <circle
     cx="96"
     cy="96"
     r="36.499908"
     opacity="0.63"
     id="circle6"
     style="fill:#96dfd3;opacity:1" />
  <path
     style="fill:#98dc9a"
     d="M 140.14258 19.970703 C 139.50306 20.841568 138.73456 21.724116 137.75977 22.609375 C 132.94977 26.989375 129.58977 25.739062 127.75977 29.289062 C 126.68977 31.359062 127.04094 33.330703 132.21094 47.470703 C 136.08094 58.040703 136.56016 58.780703 137.41016 59.720703 C 142.16016 64.940703 146.40938 63.000859 152.60938 68.630859 C 153.91938 69.850859 160.11992 75.389766 158.91992 80.509766 C 158.13992 83.849766 154.90977 84.029687 150.75977 87.929688 C 149.60977 89.009687 147.12961 91.549375 141.84961 106.10938 C 137.94961 116.85937 136.00039 122.22906 136.65039 125.03906 C 138.50039 132.81906 145.93039 132.89914 152.65039 141.36914 C 157.21903 147.09922 158.30905 152.74757 158.70117 157.63281 A 88 88 0 0 0 184 96 A 88 88 0 0 0 140.14258 19.970703 z "
     id="path13" />
  <path
     style="fill:#ffffff"
     d="M 89.664062 8.234375 A 88 88 0 0 0 68.154297 12.638672 C 68.781094 13.415639 69.887027 14.417796 71.300781 16.699219 C 72.640781 18.829219 74.460625 21.800234 74.640625 25.240234 C 74.930625 30.850234 70.579063 34.24 72.039062 36 C 72.829063 36.93 74.669609 36.599141 76.099609 36.369141 C 79.519609 35.799141 82.01 34.040781 85.75 30.800781 C 91.28 26.020781 94.040156 23.630391 94.660156 21.150391 A 12.84 12.84 0 0 0 92.800781 11.5 C 91.890554 10.102568 90.795049 9.046967 89.664062 8.234375 z "
     id="path15" />
  <path
     style="fill:#98dc9a"
     d="M 80.388672 9.4277344 A 88 88 0 0 0 10.621094 75.119141 A 21.38 21.38 0 0 0 13.439453 74.109375 C 13.509453 73.999375 13.589922 73.899063 13.669922 73.789062 A 24.62 24.62 0 0 1 20.099609 67.609375 C 22.629609 65.969375 24.259531 65.610625 27.769531 64.390625 C 40.459531 59.940625 42.019531 56.390703 47.769531 57.220703 C 50.429531 57.580703 51.630938 58.530937 53.460938 57.710938 C 56.210938 56.480938 57.289922 52.710781 58.169922 49.550781 A 31.35 31.35 0 0 0 59.169922 43.859375 C 59.739922 37.859375 58.520156 37.279219 59.410156 35.199219 C 61.220156 30.999219 66.550547 32.619531 69.060547 28.269531 C 71.160547 24.629531 68.240781 22.069141 70.550781 18.619141 C 72.650781 15.469141 75.810938 16.529688 78.460938 13.179688 C 79.257119 12.185639 79.964298 10.827462 80.388672 9.4277344 z "
     id="path17" />
  <path
     style="fill:#98dc9a"
     d="M 12.472656 115.24414 C 11.766343 115.14775 11.111852 115.83653 10.574219 116.7207 A 88 88 0 0 0 52.115234 172.1875 C 53.617559 172.06154 55.145741 171.85414 56.699219 171.53906 C 66.699219 169.53906 78.309219 163.12969 77.699219 157.92969 C 77.189219 153.14969 66.900703 155.22055 54.720703 146.81055 C 38.720703 135.81055 35.719297 117.91938 25.029297 118.35938 C 21.669297 118.49938 18.769141 120.35937 16.619141 118.60938 A 3.79 3.79 0 0 1 15.779297 117.60938 A 5 5 0 0 1 15.269531 117.33984 C 14.389531 116.78984 13.719062 115.79984 12.789062 115.33984 C 12.682187 115.28922 12.577583 115.25846 12.472656 115.24414 z "
     id="path21" />
</svg>
