<svg width="192" height="192" version="1.1" viewBox="0 0 192 192" xmlns="http://www.w3.org/2000/svg">
 <path d="m135.12 110.5-17.887 0.2372-10.922-14.167 10.448-21.607s10.448-21.607-11.159-32.054c-9.3752-4.5332-23.229 2.0971-28.453 12.9-3.4825 7.2022-1.9194 10.764-1.9194 10.764s-6.6757-0.4487-16.403 0.2372c-8.5779 0.60484-17.214 3.799-17.214 3.799s-0.2372-14.326 6.7278-28.73c12.189-25.208 44.414-36.715 73.052-22.437 30.982 15.447 32.884 51.445 24.178 69.451z" style="fill:#9abeff"/>
 <path d="m85.5 70.5 8 16-8 16h-24s-24 0-24 24c0 10.414 12 20 24 20 8 0 12-4 12-4s2.9924 9.2644 8 16c5.1306 6.901 12 12 12 12s-16 8-32 8c-28 0-52.388-24.002-52-56 0.41967-34.616 32-52 52-52z" style="fill:#728dbe"/>
 <path d="m70.612 132.77 9.7111-15.023 17.845-1.2451 12.201 20.667s12.201 20.667 32.868 8.466c8.9675-5.2941 11.122-20.501 5.0215-30.835-4.0671-6.889-6.2808-8.5968-6.2808-8.5968s3.1923-6.99 6.4468-14.726c3.3343-7.9265 4.233-16.434 4.233-16.434s15.023 9.7111 23.157 23.489c14.235 24.112 5.9639 57.315-21.788 73.248-30.023 17.237-61.047-1.1204-71.215-18.343z" style="fill:#e0f4e0"/>
</svg>
