<svg width="192" height="192" fill="none" version="1.1" viewBox="0 0 192 192" xmlns="http://www.w3.org/2000/svg">
 <g clip-rule="evenodd" fill-rule="evenodd">
  <path d="m96 184c48.601 0 88-39.399 88-88 0-48.601-39.399-88-88-88-48.601 0-88 39.399-88 88 0 48.601 39.399 88 88 88z" fill="#FF837D"/>
  <g fill="#fff">
   <path d="m96.5 141c21.815 0 39.5-14.775 39.5-33 0-18.225-17.685-33-39.5-33-21.815 0-39.5 14.775-39.5 33 0 18.225 17.685 33 39.5 33z"/>
   <path d="m124 96c6.627 0 12-5.3726 12-12s-5.373-12-12-12-12 5.3726-12 12 5.373 12 12 12z"/>
   <path d="m112.5 61c4.694 0 8.5-3.8056 8.5-8.5s-3.806-8.5-8.5-8.5-8.5 3.8056-8.5 8.5 3.806 8.5 8.5 8.5z"/>
  </g>
  <path d="m80.5 109c4.6944 0 8.5-3.806 8.5-8.5 0-4.6944-3.8056-8.5-8.5-8.5s-8.5 3.8056-8.5 8.5c0 4.694 3.8056 8.5 8.5 8.5z" fill="#FF837D"/>
  <path d="m111.5 109c4.694 0 8.5-3.806 8.5-8.5 0-4.6944-3.806-8.5-8.5-8.5s-8.5 3.8056-8.5 8.5c0 4.694 3.806 8.5 8.5 8.5z" fill="#FF837D"/>
  <path d="m69 96c6.6274 0 12-5.3726 12-12s-5.3726-12-12-12-12 5.3726-12 12 5.3726 12 12 12z" fill="#fff"/>
 </g>
 <path d="m96 77v-24h14" stroke="#fff" stroke-width="5"/>
</svg>
