<svg width="192" height="192" version="1.1" viewBox="0 0 192 192" xmlns="http://www.w3.org/2000/svg">
 <rect x="20" y="20" width="152" height="152" rx="9.9346" opacity=".63" style="fill:#728dbe;opacity:1"/>
 <path d="m56 60c-2.216 0-4 1.784-4 4v8c0 2.216 1.784 4 4 4h2 60c3.324 0 6 2.676 6 6s-2.676 6-6 6h-60-2c-2.216 0-4 1.784-4 4v8c0 2.216 1.784 4 4 4h2 60c3.324 0 6 2.676 6 6s-2.676 6-6 6h-60-2c-2.216 0-4 1.784-4 4v8c0 2.216 1.784 4 4 4h66c9.972 0 18-8.028 18-18v-4c0-5.6691-2.5985-10.705-6.6699-14 4.0714-3.2947 6.6699-8.3309 6.6699-14v-4c0-9.972-8.028-18-18-18h-66z" style="fill:#fff;paint-order:stroke fill markers"/>
</svg>
