<svg width="192" height="192" version="1.1" viewBox="0 0 192 192" xmlns="http://www.w3.org/2000/svg">
 <path d="m149.15 138.25c-2.9534-0.20261-5.8932-1.4e-4 -8.5508 0.26562-5.3153 0.53153-9.5723 1.5996-9.5723 1.5996-0.20697 0.0521-0.40944 0.12068-0.60547 0.20508l-28 12c-3.9931 1.716-2.77 7.6722 1.5762 7.6758 0 0 18.379 0.7789 24.672 10.219 0.74189 1.1127 1.9907 1.7811 3.3281 1.7812h24c1.0608-2.1e-4 2.0781-0.42173 2.8281-1.1719l2.8281-2.8281h6.3438c2.6025-5e-5 4.5121-2.4459 3.8809-4.9707 0 0-1.0702-4.3026-3.2266-9.1543-2.1563-4.8517-5.1956-10.618-10.865-13.453-2.7155-1.3578-5.6833-1.9654-8.6367-2.168z" style="color-rendering:auto;color:#000000;dominant-baseline:auto;fill:#f9de81;font-feature-settings:normal;font-variant-alternates:normal;font-variant-caps:normal;font-variant-ligatures:normal;font-variant-numeric:normal;font-variant-position:normal;image-rendering:auto;isolation:auto;mix-blend-mode:normal;shape-padding:0;shape-rendering:auto;solid-color:#000000;text-decoration-color:#000000;text-decoration-line:none;text-decoration-style:solid;text-indent:0;text-orientation:mixed;text-transform:none;white-space:normal"/>
 <path d="m42.848 138.25c-2.9534 0.2026-5.9212 0.81019-8.6367 2.168-5.6696 2.8348-8.7089 8.6014-10.865 13.453-2.1563 4.8517-3.2266 9.1543-3.2266 9.1543-0.63125 2.5248 1.2783 4.9706 3.8809 4.9707h6.3438l2.8281 2.8281c0.75005 0.75015 1.7673 1.1717 2.8281 1.1719h24c1.3374-1.1e-4 2.5862-0.66851 3.3281-1.7812 6.2932-9.4398 24.672-10.219 24.672-10.219 4.3462-4e-3 5.5693-5.9598 1.5762-7.6758l-28-12c-0.19603-0.0844-0.3985-0.15298-0.60547-0.20508 0 0-4.257-1.0681-9.5723-1.5996-2.6576-0.26576-5.5974-0.46823-8.5508-0.26562z" style="color-rendering:auto;color:#000000;dominant-baseline:auto;fill:#f9de81;font-feature-settings:normal;font-variant-alternates:normal;font-variant-caps:normal;font-variant-ligatures:normal;font-variant-numeric:normal;font-variant-position:normal;image-rendering:auto;isolation:auto;mix-blend-mode:normal;shape-padding:0;shape-rendering:auto;solid-color:#000000;text-decoration-color:#000000;text-decoration-line:none;text-decoration-style:solid;text-indent:0;text-orientation:mixed;text-transform:none;white-space:normal"/>
 <path d="m32.168 20.004c-3.5173-0.14793-5.4969 3.9917-3.1738 6.6367 0 0 3.0522 3.482 5.9844 8.0371 2.9322 4.5551 5.2982 10.311 5.041 12.932-0.66083 6.7337-1.1326 13.859 0.03125 21.031 1.5561 9.5889 8.2676 24.922 8.2676 24.922 0.76905 1.8123 2.7424 2.7956 4.6523 2.3184l16-4c2.1124-0.52814 3.4144-2.6487 2.9297-4.7715 0 0-1.1288-4.9453-1.8906-11.141-0.76178-6.1954-0.96557-13.72 0.19922-17.645 1.6151-5.4427 6.5508-11.446 11.209-15.834s8.8066-7.166 8.8066-7.166c3.0457-2.0406 1.9707-6.7622-1.6582-7.2832l-56-8c-0.13211-0.01901-0.26509-0.03139-0.39844-0.03711z" style="color-rendering:auto;color:#000000;dominant-baseline:auto;fill:#f9de81;font-feature-settings:normal;font-variant-alternates:normal;font-variant-caps:normal;font-variant-ligatures:normal;font-variant-numeric:normal;font-variant-position:normal;image-rendering:auto;isolation:auto;mix-blend-mode:normal;shape-padding:0;shape-rendering:auto;solid-color:#000000;text-decoration-color:#000000;text-decoration-line:none;text-decoration-style:solid;text-indent:0;text-orientation:mixed;text-transform:none;white-space:normal"/>
 <path d="m96 60-20 4-12 8-12 16-20 52 12 4h16l24 12h24l24-12h16l12-4-20-52-12-16-12-8z" style="fill:#98dc9a"/>
 <path d="m95.99 56a4.0004 4.0004 0 0 0-0.77539 0.078125l-20 4a4.0004 4.0004 0 0 0-1.4336 0.59375l-12 8a4.0004 4.0004 0 0 0-0.98047 0.92773l-12 16a4.0004 4.0004 0 0 0-0.5332 0.96484l-20 52a4.0004 4.0004 0 0 0 2.4668 5.2305l12 4a4.0004 4.0004 0 0 0 1.2656 0.20508h11.789a4.0005 4.0005 0 0 0 0.4707 0h2.7969l23.154 11.578a4.0004 4.0004 0 0 0 1.7891 0.42188h12 12a4.0004 4.0004 0 0 0 1.7891-0.42188l23.154-11.578h15.057a4.0004 4.0004 0 0 0 1.2656-0.20508l12-4a4.0004 4.0004 0 0 0 2.4668-5.2305l-20-52a4.0004 4.0004 0 0 0-0.5332-0.96484l-12-16a4.0004 4.0004 0 0 0-0.98047-0.92773l-12-8a4.0004 4.0004 0 0 0-1.4336-0.59375l-20-4a4.0004 4.0004 0 0 0-0.79492-0.078125zm0.009766 8.0781 18.439 3.6895 10.771 7.1797 1.0781 1.4375a4.0004 4.0004 0 0 0-0.04883 0.023437s-7.8009 3.6416-12.154 7.1465c-2.3276 1.8738-4.8116 4.6304-6.6445 6.7988-0.51779-0.2479-1.0417-0.45926-1.5547-0.64648-2.0831-0.76019-4.2553-1.1401-6.2969-1.3789-0.90723-0.10612-1.7754-0.17219-2.6055-0.22461a4.0004 4.0004 0 0 0-0.83008-0.09961s-0.90889-0.014669-1.8691-0.013672c-0.14433-0.002371-0.15125-7.13e-4 -0.28516-0.001953-0.13391 0.00124-0.14083-4.18e-4 -0.28516 0.001953-0.96029-9.97e-4 -1.8691 0.013672-1.8691 0.013672a4.0004 4.0004 0 0 0-0.83203 0.09961c-0.82949 0.052415-1.697 0.11857-2.6035 0.22461-2.0416 0.2388-4.2138 0.61873-6.2969 1.3789-0.51303 0.18722-1.0369 0.3986-1.5547 0.64648-1.8329-2.1684-4.317-4.925-6.6445-6.7988-2.7244-2.1933-6.6311-4.3345-9.2988-5.709l2.1738-2.8984 10.771-7.1797 18.439-3.6895zm35.004 18.592 5.4629 7.2852 18.299 47.574-7.4141 2.4707h-12.875c-1.8342-3.6885-16.632-33.443-21.715-43.439 1.8332-2.1526 4.7563-5.4986 6.3398-6.7734 2.5083-2.0193 10.658-6.1953 10.658-6.1953a4.0004 4.0004 0 0 0 1.2441-0.92188zm-71.279 1.6973c2.4595 1.2979 7.3277 3.9337 9.1738 5.4199 1.5836 1.2748 4.5066 4.6209 6.3398 6.7734-5.0838 9.9967-19.881 39.751-21.715 43.439h-8.875l-7.4141-2.4707 18.299-47.574 4.1914-5.5879zm34.275 11.621c0.11128-0.001304 0.092867 0.002518 0.19531 0.001953 1.2064 0.021285 2.8131 0.090002 4.4648 0.2832 1.6666 0.19494 3.3486 0.53276 4.4844 0.94726 0.71868 0.26227 1.0844 0.53872 1.2363 0.64453a4.0004 4.0004 0 0 0 0.4043 0.64062c3.9456 7.6959 19.017 37.998 21.854 43.703l-19.582 9.791h-11.057-11.057l-22.785-11.393c3.7845-7.6091 17.28-34.736 21.057-42.102a4.0004 4.0004 0 0 0 0.40625-0.64062c0.15284-0.10659 0.51768-0.38299 1.2344-0.64453 1.1358-0.4145 2.8178-0.75232 4.4844-0.94726 1.6517-0.19321 3.2585-0.26192 4.4648-0.2832 0.10245 5.65e-4 0.084037-0.003257 0.19531-0.001953z" style="color-rendering:auto;color:#000000;dominant-baseline:auto;fill:#71a372;font-feature-settings:normal;font-variant-alternates:normal;font-variant-caps:normal;font-variant-ligatures:normal;font-variant-numeric:normal;font-variant-position:normal;image-rendering:auto;isolation:auto;mix-blend-mode:normal;shape-padding:0;shape-rendering:auto;solid-color:#000000;text-decoration-color:#000000;text-decoration-line:none;text-decoration-style:solid;text-indent:0;text-orientation:mixed;text-transform:none;white-space:normal"/>
</svg>
