<svg width="192" height="192" version="1.1" viewBox="0 0 192 192" xmlns="http://www.w3.org/2000/svg">
 <g transform="translate(0 -860.36)">
  <path d="m91.428 870.27c-23.685 23.173-53.662 33.776-66.548 37.503-3.4869 1.0082-6.3686 4.5956-6.3023 8.2254 1.3626 74.599 26.322 100 71.749 126.98 3.1215 1.8537 8.2257 1.8537 11.347 0 45.426-26.976 70.386-52.378 71.749-126.98 0.0663-3.6298-2.8154-7.2172-6.3024-8.2254-12.887-3.7263-42.864-14.33-66.548-37.503-2.5946-2.5386-6.5484-2.5385-9.1431 9e-5z" style="fill:#ff837d"/>
  <path transform="translate(0 860.36)" d="m96 8c-1.6371 1.62e-5 -3.2749 0.63499-4.5723 1.9043-23.685 23.173-53.66 33.776-66.547 37.502-3.4869 1.0082-6.369 4.5968-6.3027 8.2266 0.2816 15.417 1.5859 28.705 3.8555 40.367h73.566v-88zm0 88v88c2.0564 0 4.1131-0.46378 5.6738-1.3906 36.039-21.402 59.18-41.839 67.893-86.609h-73.566z" style="fill:#ba6561;paint-order:stroke fill markers"/>
 </g>
 <style type="text/css">.st0{fill:#FFFFFF;}</style>
 <style type="text/css">.st0{fill:#FFFFFF;}</style>
 <style type="text/css">.st0{fill:#FFFFFF;}</style>
</svg>
