<svg width="192" height="192" fill="none" version="1.1" viewBox="0 0 192 192" xmlns="http://www.w3.org/2000/svg">
 <path d="m98.184 9c-0.70876-0.00167-1.4183 0.0051604-2.127 0.021484-2.8346 0.065313-5.6671 0.27385-8.4824 0.62695-6.6159 0.83073-5.3698 10.755 1.2461 9.9238 4.953-0.62121 9.9737-0.73673 14.955-0.34766 2.786 0.27159 5.2525-1.7972 5.4707-4.5879 0.21816-2.7907-1.897-5.2162-4.6914-5.3809-2.1197-0.16556-4.2448-0.25086-6.3711-0.25586zm21.615 3.0898c-5.8171 0.01362-6.9273 8.2708-1.3203 9.8203 4.7876 1.3955 9.4334 3.2895 13.834 5.6387 2.4445 1.3744 5.5406 0.47001 6.8613-2.0039 1.3208-2.4739 0.34979-5.5499-2.1524-6.8164-5.0092-2.6741-10.291-4.8285-15.744-6.418-0.47899-0.14724-0.9774-0.22163-1.4785-0.2207zm-46.969 1.1055c-0.61838-0.01553-1.2343 0.08381-1.8164 0.29297-5.3718 1.8451-10.546 4.2464-15.424 7.1523-5.9319 3.3582-0.66033 12.207 5.1172 8.5898 4.286-2.5536 8.8382-4.6652 13.555-6.2852 5.3328-1.7503 4.1792-9.6066-1.4316-9.75zm25.17 12.805c-36.451 0-66 29.549-66 66 0 11.329 7.8828 31.309 7.8828 31.309l-2.9648 29.131c-0.1333 1.31 1.015 2.3888 2.3145 2.1758l27.459-4.5s19.979 7.8848 31.309 7.8848c36.451 0 66-29.549 66-66 0-36.451-29.549-66-66-66zm49.906 1.0156c-4.7345-0.04248-6.8712 5.9074-3.1914 8.8867 3.8346 3.1959 7.3438 6.7862 10.451 10.693 4.132 5.3682 12.127-0.99058 7.8262-6.2246-3.5321-4.4412-7.5156-8.5171-11.875-12.15-0.89479-0.76765-2.032-1.1945-3.2109-1.2051zm-102.45 2.4023c-1.2992-0.01819-2.5545 0.47006-3.5 1.3613-4.1853 3.8322-7.9758 8.0894-11.297 12.691-3.9034 5.4064 4.206 11.26 8.1094 5.8535 2.9209-4.0475 6.2597-7.7989 9.9414-11.17 3.4095-3.0327 1.3088-8.6729-3.2539-8.7363zm122.29 22.453c-3.7944-0.06754-6.2782 3.9505-4.5215 7.3145 2.2462 4.4545 4.0316 9.1427 5.3144 13.961 0.68914 2.6939 3.4438 4.309 6.1309 3.5938 2.6871-0.71522 4.2744-3.486 3.5332-6.166-1.4615-5.4895-3.4943-10.821-6.0508-15.891-0.8228-1.6917-2.5254-2.7784-4.4062-2.8125zm-140.96 3.3008c-2.0074-0.01012-3.8263 1.1812-4.6191 3.0254-2.3161 5.1857-4.0919 10.609-5.293 16.16-0.63449 2.72 1.0826 5.4326 3.8125 6.0234 2.7299 0.59081 5.414-1.1692 5.9609-3.9082 1.0546-4.8743 2.6165-9.6436 4.6504-14.197 1.5318-3.3043-0.86967-7.0853-4.5117-7.1035zm149.23 27.395c-2.9554-0.08652-5.3401 2.3962-5.1348 5.3457 0.0756 1.358 0.11308 2.7215 0.11328 4.0879 4.9e-4 4.9965-0.50364 9.9925-1.5156 14.875-0.62162 2.73 1.1197 5.4376 3.8613 6.0059 2.7416 0.56823 5.415-1.2244 5.9297-3.9766 1.1173-5.3905 1.6635-10.884 1.6973-16.379 0.0183-0.17453 0.02754-0.3499 0.02734-0.52539-2.3e-4 -1.5451-0.0426-3.0936-0.12891-4.6426-0.10882-2.6222-2.2263-4.7141-4.8496-4.791zm-156.03 3.6523c-2.7598 0.0057-4.9932 2.2461-4.9902 5.0059-0.01115 0.85369-0.002098 1.7357 0.044922 2.6465v0.007812 0.00586c0.27508 5.0562 1.287 9.8447 2.3945 14.381 0.62321 2.7187 3.3509 4.4016 6.0605 3.7402s4.3536-3.4112 3.6543-6.1113c-1.0508-4.3038-1.9013-8.488-2.123-12.539-0.0329-0.63762-0.04035-1.3055-0.03125-2.002 0.07569-2.8176-2.1911-5.141-5.0098-5.1348zm6.6504 31.117c-3.3617 0.16124-5.6074 3.5304-4.4629 6.6953 0.64482 1.8642 1.3367 3.7339 2.0449 5.6016l-0.79297 7.7852c-0.30194 2.7598 1.7029 5.2381 4.4648 5.5195 2.7619 0.2814 5.2235-1.7419 5.4844-4.5059l1.0293-10.121-0.43359-1.1211c-0.81919-2.1089-1.5943-4.2534-2.3457-6.4258-0.704-2.1334-2.7443-3.5354-4.9883-3.4277zm142.91 0.71094c-2.0076 9e-3 -3.8149 1.2183-4.5898 3.0703-1.9906 4.5733-4.4571 8.9452-7.3418 13.018-4.0204 5.468 4.3366 11.387 8.1602 5.7793 3.2809-4.6317 6.0851-9.5995 8.3516-14.807 1.5007-3.3192-0.93741-7.0778-4.5801-7.0605zm-18.285 25.955c-1.2995-7e-3 -2.5506 0.49275-3.4883 1.3926-3.65 3.4054-7.6516 6.4391-11.916 9.0312-5.8023 3.4375-0.52677 12.114 5.1953 8.5449 4.8505-2.9484 9.3938-6.3925 13.543-10.264 3.3797-3.064 1.2278-8.6826-3.334-8.7051zm-124.66 4.873c-3.1132 0.07851-4.7383 2.6957-4.9512 4.7852l-0.91406 9.8652c0.02849 2.0565 0.39424 4.2818 2.9004 6.2754 1.0625 0.84517 2.2938 1.1657 3.8652 1.2559 1.1393 0.0654 3.6493-0.40726 4.6621-0.79492 2.0547-0.78644 2.8101-2.6262 3.0195-3.5293 0.26127-1.1268-0.071468-3.2341-1.1582-4.3848-1.0867-1.1507-2.916-1.6699-2.916-1.6699l0.71094-6.3047c0.11275-2.3748-1.3605-5.2127-4.5762-5.4785-0.2208-0.01825-0.43503-0.02476-0.64258-0.01953zm34.93 6.6523-16.293 2.6699c-6.6326 1.0398-5.0004 11.001 1.6172 9.8691l13.594-2.2285-0.99219-0.38672 0.54492 0.20899c2.594 1.0493 5.5442-0.23453 6.5449-2.8477 1.0008-2.6131-0.33741-5.5384-2.9688-6.4902l-0.51758-0.19922-1.5293-0.59571zm62.635 4.998c-0.61817-9e-3 -1.2327 0.0959-1.8125 0.31055-4.7001 1.6648-9.5772 2.841-14.521 3.5059-6.6088 0.88748-5.2768 10.8 1.332 9.9121 5.6272-0.75665 11.175-2.0956 16.529-3.9922 5.319-1.8008 4.0875-9.6507-1.5273-9.7363zm-47.301 0.54102c-5.8154 0.0257-6.9104 8.2815-1.3027 9.8223 5.2295 1.515 10.653 2.8951 16.312 3.6641 2.766 0.42975 5.3459-1.4939 5.7227-4.2676 0.37672-2.7737-1.5966-5.3171-4.377-5.6406-4.9154-0.66788-9.8687-1.9104-14.877-3.3613-0.4792-0.14591-0.9776-0.21899-1.4785-0.21679z" style="color-rendering:auto;color:#000000;dominant-baseline:auto;fill:#9abeff;font-feature-settings:normal;font-variant-alternates:normal;font-variant-caps:normal;font-variant-ligatures:normal;font-variant-numeric:normal;font-variant-position:normal;image-rendering:auto;isolation:auto;mix-blend-mode:normal;shape-padding:0;shape-rendering:auto;solid-color:#000000;text-decoration-color:#000000;text-decoration-line:none;text-decoration-style:solid;text-indent:0;text-orientation:mixed;text-transform:none;white-space:normal"/>
</svg>
