<svg width="192" height="192" version="1.1" viewBox="0 0 192 192" xmlns="http://www.w3.org/2000/svg">
 <circle cx="96" cy="96" r="77" style="fill-rule:evenodd;fill:#9abeff"/>
 <path d="m129.3 116.78c0-35.367-43.97-26.605-43.97-43.173 0-5.4166 4.1421-7.9655 9.24-7.9655 5.4166 0 7.3606 2.6439 7.3606 2.6439 4.5574 3.115 11.486 2.5533 15.487-1.2664l-0.45172 0.43119c3.9961-3.8144 3.5873-9.5015-1.0569-12.483 0 0-9.3911-7.9652-21.18-7.9652-15.134 0-30.588 9.0807-30.588 28.198 0 32.499 44.129 24.693 44.129 41.421 0 5.2572-4.4607 8.7621-11.789 8.7621-8.7621 0-11.962-5.4865-11.962-5.4865-3.9519-3.8327-10.956-4.569-15.635-1.6501l-0.40696 0.25388c-4.6828 2.9214-5.874 8.9351-2.2211 13.072 0 0 6.494 13.565 30.065 13.565 17.843 0 32.977-10.514 32.977-28.357z" style="fill-rule:evenodd;fill:#fff"/>
 <circle cx="147.5" cy="147.5" r="24.5" style="fill-rule:evenodd;fill:#9abeff"/>
 <circle cx="44.5" cy="44.5" r="24.5" style="fill-rule:evenodd;fill:#9abeff"/>
</svg>
