<svg width="192" height="192" fill="none" version="1.1" viewBox="0 0 192 192" xmlns="http://www.w3.org/2000/svg">
 <path d="m57.142 32.857c0-8.7562 7.5781-15.857 16.927-15.857 9.3586 0.0088 16.938 7.1076 16.93 15.857v15.857h-16.93c-4.4939-0.0043-8.802-1.6772-11.976-4.6509s-4.9554-7.0045-4.9509-11.206zm-28.215 26.428h45.142c9.3493 0 16.93 7.1004 16.93 15.859 0 8.7562-7.5809 15.857-16.927 15.857h-45.145c-9.3493 0-16.927-7.1004-16.927-15.857 0-8.7588 7.5781-15.859 16.927-15.859z" style="clip-rule:evenodd;fill-rule:evenodd;fill:#9abeff"/>
 <path d="m134.86 32.856v42.288c7e-3 8.7487-7.572 15.847-16.931 15.856-9.349 0-16.927-7.1001-16.927-15.861v-42.283c0-8.7559 7.578-15.856 16.927-15.856 9.359 0.0088 16.938 7.1073 16.931 15.856zm28.212 26.427c9.349 0 16.93 7.1001 16.93 15.859 8e-3 8.7487-7.572 15.847-16.93 15.856h-16.928v-15.856c0-8.7585 7.579-15.859 16.928-15.859z" style="clip-rule:evenodd;fill-rule:evenodd;fill:#98dc9a"/>
 <path d="m163.07 133.72h-45.146v-3e-3c-4.494-4e-3 -8.802-1.677-11.976-4.651-3.175-2.973-4.956-7.004-4.951-11.205 0-8.757 7.578-15.857 16.927-15.857h45.143c9.358 9e-3 16.938 7.108 16.93 15.857 0 8.758-7.581 15.859-16.927 15.859zm-28.215 26.427c7e-3 8.749-7.572 15.848-16.931 15.857-9.349 0-16.927-7.1-16.927-15.857v-15.856h16.927c9.359 9e-3 16.938 7.107 16.931 15.856z" style="clip-rule:evenodd;fill-rule:evenodd;fill:#f9de81"/>
 <path d="m16.951 129.06c-3.1745-2.973-4.9554-7.004-4.9509-11.205 0-8.757 7.5781-15.857 16.927-15.857h16.93v15.857c0.0079 8.749-7.5716 15.847-16.93 15.856-4.494-4e-3 -8.802-1.677-11.976-4.651zm40.192 31.079v-42.284c0-8.757 7.578-15.857 16.927-15.857 4.4944 4e-3 8.8032 1.676 11.978 4.65s4.9564 7.005 4.9519 11.207v42.286c0.0078 8.749-7.5716 15.848-16.93 15.857-9.3493 0-16.927-7.1-16.927-15.859z" style="clip-rule:evenodd;fill-rule:evenodd;fill:#ff837d"/>
</svg>
