<svg width="192" height="192" version="1.1" viewBox="0 0 192 192" xmlns="http://www.w3.org/2000/svg">
 <circle cx="96" cy="96" r="88" style="fill:#ccc;stroke-width:4"/>
 <path d="m126.97 59.016c-11.184 0.2892-33.627 10.32-49.016 29.148-18.397 0.0604-25.031 14.094-25.031 14.094s17.732-9.845 32.797 5.1797c13.517 13.482 4.6016 32.789 4.6016 32.789s14.969-8.4973 14.008-25.312c22.964-16.197 34.11-49.647 28.359-54.531-1.1569-0.9826-3.1377-1.4339-5.7188-1.3672zm-17.75 17.258a6.9153 6.9153 0 0 1 6.9141 6.914 6.9153 6.9153 0 0 1-6.9141 6.9141 6.9153 6.9153 0 0 1-6.9141-6.9141 6.9153 6.9153 0 0 1 6.9141-6.914zm-40.477 38.539c-3.2652-0.0604-7.5093 7.049-5.7969 14.547 6.4966 1.6549 14.481-1.8988 14.547-5.8516 0.0336-1.9993-7.625-1.2187-7.625-1.2187s0.97883-7.4378-1.125-7.4766z" style="fill:#83868c"/>
</svg>
