<svg width="192" height="192" fill="none" version="1.1" viewBox="0 0 192 192" xmlns="http://www.w3.org/2000/svg">
 <path d="m165 49c5.523 0 10 4.4772 10 10v104c0 5.523-4.477 10-10 10h-14v13l-14-13h-75c-5.5229 0-10-4.477-10-10v-104c0-5.5228 4.4771-10 10-10h103z" clip-rule="evenodd" fill="#9ABEFF" fill-rule="evenodd" style="fill:#fff"/>
 <path d="m32 22c-5.5228 0-10 4.4772-10 10v104c0 5.523 4.4772 10 10 10h14v13l14-13h75c5.523 0 10-4.477 10-10v-104c0-5.5228-4.477-10-10-10h-103z" clip-rule="evenodd" fill="#fff" fill-rule="evenodd" style="fill:#98dc9a"/>
 <path d="m55.319 90.5s2.8141 14.246 28.662 13.797c26.169-0.45488 28.775-13.797 28.775-13.797" style="fill:none;stroke-linecap:round;stroke-linejoin:round;stroke-width:5;stroke:#71a372"/>
 <ellipse cx="60.508" cy="71.068" rx="7.6271" ry="7.5254" style="fill:#71a372;paint-order:stroke fill markers;stroke-linecap:round;stroke-linejoin:round;stroke-width:5"/>
 <ellipse cx="107.49" cy="71.068" rx="7.6271" ry="7.5254" style="fill:#71a372;paint-order:stroke fill markers;stroke-linecap:round;stroke-linejoin:round;stroke-width:5"/>
</svg>
