<svg width="192" height="192" version="1.1" viewBox="0 0 192 192" xmlns="http://www.w3.org/2000/svg">
 <rect x="66" y="26" width="60" height="78" rx="10" style="fill:none;stroke-width:10;stroke:#fff"/>
 <rect x="20" y="46" width="152" height="126" rx="10" style="fill-rule:evenodd;fill:#fff"/>
 <path d="m118 124c3.3137 0 6 2.6863 6 6s-2.6863 6-6 6-6-2.6863-6-6 2.6863-6 6-6zm-22 0c3.3137 0 6 2.6863 6 6s-2.6863 6-6 6-6-2.6863-6-6 2.6863-6 6-6zm-22 0c3.3137 0 6 2.6863 6 6s-2.6863 6-6 6-6-2.6863-6-6 2.6863-6 6-6zm44-21c3.3137 0 6 2.6863 6 6s-2.6863 6-6 6-6-2.6863-6-6 2.6863-6 6-6zm-22 0c3.3137 0 6 2.6863 6 6s-2.6863 6-6 6-6-2.6863-6-6 2.6863-6 6-6zm-22 0c3.3137 0 6 2.6863 6 6s-2.6863 6-6 6-6-2.6863-6-6 2.6863-6 6-6zm0-21c3.3137 0 6 2.6863 6 6s-2.6863 6-6 6-6-2.6863-6-6 2.6863-6 6-6zm44 0c3.3137 0 6 2.6863 6 6s-2.6863 6-6 6-6-2.6863-6-6 2.6863-6 6-6zm-22 0c3.3137 0 6 2.6863 6 6s-2.6863 6-6 6-6-2.6863-6-6 2.6863-6 6-6z" style="fill-rule:evenodd;fill:#b1b5bd"/>
 <circle cx="155" cy="155" r="25" style="fill-rule:evenodd;fill:#9abeff;stroke-width:.29411"/>
 <path d="m146.43 155.62 8.717 8.1483 8.717-8.1483-2.5566-2.6525-3.7702 3.6438v-10.114h-4.7805v10.114l-3.7702-3.6438z" style="fill:#728dbe"/>
</svg>
