<?xml version="1.0" encoding="UTF-8"?><svg xmlns="http://www.w3.org/2000/svg" viewBox="0 0 192 192"><path d="m30 20c-5.54 0-10 4.46-10 10v132c0 5.54 4.46 10 10 10h132c5.54 0 10-4.46 10-10v-132c0-5.54-4.46-10-10-10h-132zm46.141 21.055 13.191 22.85a32.865 32.865 0 016.668-.76953 32.865 32.865 0 016.707.69726l13.152-22.777 17.795 10.27-13.15 22.779a32.865 32.865 0 016.707 11.625h26.301v20.541h-26.357a32.865 32.865 0 01-6.668 11.602l13.168 22.805-17.797 10.27-13.189-22.852a32.865 32.865 0 01-6.668.77148 32.865 32.865 0 01-6.668-.77148l-13.191 22.852-17.795-10.27 13.166-22.805a32.865 32.865 0 01-6.668-11.602h-26.357v-20.541h26.357a32.865 32.865 0 016.668-11.602l-13.166-22.803 17.795-10.27z" fill="#73ABA4"/><circle cx="96" cy="96" r="18" fill="#73ABA4"/></svg>
