<svg width="192" height="192" fill="none" version="1.1" viewBox="0 0 192 192" xmlns="http://www.w3.org/2000/svg">
 <path d="m97 184c48.601 0 88-39.399 88-88 0-48.601-39.399-88-88-88-48.601 0-88 39.399-88 88 0 48.601 39.399 88 88 88z" clip-rule="evenodd" fill="#FF837D" fill-rule="evenodd"/>
 <rect x="87" y="60" width="20" height="45" rx="10" fill="#fff"/>
 <path d="m117.89 99.938a5.0005 5.0005 0 0 0-4.3594 2.6445s-5.809 10.133-16.076 10.133c-10.267 0-16.074-10.133-16.074-10.133a5.0005 5.0005 0 1 0-8.7539 4.8359s6.4417 11.933 19.377 14.715v8.9043a5.0005 5.0005 0 1 0 10 0v-8.7227c13.54-2.4027 20.279-14.896 20.279-14.896a5.0005 5.0005 0 0 0-4.3926-7.4805z" style="color-rendering:auto;color:#000000;dominant-baseline:auto;fill:#fff;font-feature-settings:normal;font-variant-alternates:normal;font-variant-caps:normal;font-variant-ligatures:normal;font-variant-numeric:normal;font-variant-position:normal;image-rendering:auto;isolation:auto;mix-blend-mode:normal;shape-padding:0;shape-rendering:auto;solid-color:#000000;text-decoration-color:#000000;text-decoration-line:none;text-decoration-style:solid;text-indent:0;text-orientation:mixed;text-transform:none;white-space:normal"/>
</svg>
