<svg width="192" height="192" version="1.1" viewBox="0 0 192 192" xmlns="http://www.w3.org/2000/svg">
 <circle cx="96" cy="96" r="88" opacity=".63" style="fill:#54688c;opacity:1"/>
 <path d="m96 20a76 76 0 0 0-76 76 76 76 0 0 0 22.293 53.707l8.4805-8.4805a64 64 0 0 1-18.773-45.227 64 64 0 0 1 64-64 64 64 0 0 1 64 64 64 64 0 0 1-18.773 45.227l8.4805 8.4805a76 76 0 0 0 22.293-53.707 76 76 0 0 0-76-76z" style="opacity:.25;paint-order:stroke fill markers;stroke-linejoin:round;stroke-width:4"/>
 <path d="m96 44v52l41.887 30.717a52 52 0 0 0 10.113-30.717 52 52 0 0 0-52-52z" style="fill:#73ada4;paint-order:stroke fill markers;stroke-linejoin:round;stroke-width:4"/>
 <path d="m95.912 91.965a4.0004 4.0004 0 0 0-2.4102 7.1582l40 32a4.0004 4.0004 0 1 0 4.9961-6.2461l-40-32a4.0004 4.0004 0 0 0-2.5859-0.91211z" style="color-rendering:auto;color:#000000;dominant-baseline:auto;fill:#98dc9a;font-feature-settings:normal;font-variant-alternates:normal;font-variant-caps:normal;font-variant-ligatures:normal;font-variant-numeric:normal;font-variant-position:normal;image-rendering:auto;isolation:auto;mix-blend-mode:normal;shape-padding:0;shape-rendering:auto;solid-color:#000000;text-decoration-color:#000000;text-decoration-line:none;text-decoration-style:solid;text-indent:0;text-orientation:mixed;text-transform:none;white-space:normal"/>
 <circle cx="96" cy="96" r="12" style="fill:#54688c;paint-order:stroke fill markers"/>
 <path d="m51.623 45.229-2.9434 2.709 7.3438 7.9746 2.9434-2.7109z" style="color-rendering:auto;color:#000000;dominant-baseline:auto;fill:#fff;font-feature-settings:normal;font-variant-alternates:normal;font-variant-caps:normal;font-variant-ligatures:normal;font-variant-numeric:normal;font-variant-position:normal;image-rendering:auto;isolation:auto;mix-blend-mode:normal;shape-padding:0;shape-rendering:auto;solid-color:#000000;text-decoration-color:#000000;text-decoration-line:none;text-decoration-style:solid;text-indent:0;text-orientation:mixed;text-transform:none;white-space:normal"/>
 <path d="m56.443 134.83-7.3438 7.9746 2.9414 2.709 7.3457-7.9727z" style="color-rendering:auto;color:#000000;dominant-baseline:auto;fill:#9abeff;font-feature-settings:normal;font-variant-alternates:normal;font-variant-caps:normal;font-variant-ligatures:normal;font-variant-numeric:normal;font-variant-position:normal;image-rendering:auto;isolation:auto;mix-blend-mode:normal;shape-padding:0;shape-rendering:auto;solid-color:#000000;text-decoration-color:#000000;text-decoration-line:none;text-decoration-style:solid;text-indent:0;text-orientation:mixed;text-transform:none;white-space:normal"/>
 <rect x="28.785" y="93.181" width="12.019" height="4.1546" style="fill:#fff;paint-order:stroke fill markers;stroke-linejoin:round;stroke-width:4"/>
 <rect x="94.071" y="27.598" width="4.4513" height="11.573" style="fill:#fff;paint-order:stroke fill markers;stroke-linejoin:round;stroke-width:4"/>
 <path d="m141.3 44.932-7.3438 7.9727 2.9414 2.7109 7.3457-7.9746z" style="color-rendering:auto;color:#000000;dominant-baseline:auto;fill:#fff;font-feature-settings:normal;font-variant-alternates:normal;font-variant-caps:normal;font-variant-ligatures:normal;font-variant-numeric:normal;font-variant-position:normal;image-rendering:auto;isolation:auto;mix-blend-mode:normal;shape-padding:0;shape-rendering:auto;solid-color:#000000;text-decoration-color:#000000;text-decoration-line:none;text-decoration-style:solid;text-indent:0;text-orientation:mixed;text-transform:none;white-space:normal"/>
 <path d="m137.37 134.83-2.9414 2.7109 7.3438 7.9727 2.9434-2.709z" style="color-rendering:auto;color:#000000;dominant-baseline:auto;fill:#9abeff;font-feature-settings:normal;font-variant-alternates:normal;font-variant-caps:normal;font-variant-ligatures:normal;font-variant-numeric:normal;font-variant-position:normal;image-rendering:auto;isolation:auto;mix-blend-mode:normal;shape-padding:0;shape-rendering:auto;solid-color:#000000;text-decoration-color:#000000;text-decoration-line:none;text-decoration-style:solid;text-indent:0;text-orientation:mixed;text-transform:none;white-space:normal"/>
 <rect transform="scale(-1,1)" x="-164.14" y="92.884" width="12.019" height="4.1546" style="fill:#fff;paint-order:stroke fill markers;stroke-linejoin:round;stroke-width:4"/>
 <circle cx="96" cy="96" r="12" style="opacity:.25;paint-order:stroke fill markers"/>
</svg>
