<svg width="192" height="192" version="1.1" viewBox="0 0 192 192" xmlns="http://www.w3.org/2000/svg">
 <circle cx="96" cy="96" r="88" opacity=".63" style="fill:#54688c;opacity:1"/>
 <path d="m96 53.623c-23.372 0-42.562 19.066-42.5 42.438 0 23.372 19.005 42.316 42.5 42.316 23.495 0 42.5-18.882 42.5-42.377 0.0615-23.249-19.067-42.377-42.5-42.377z" style="fill:#fff;stroke-width:.61505"/>
 <path d="m62.601 77.408 13.455 37.201h6.7573l13.455-37.201h-6.7589l-10.044 29.512-10.105-29.512zm37.367 0v37.201h6.0776v-15.624h5.1453l9.8589 15.624h6.8201l-10.664-16.182c4.6502-0.99203 8.0601-5.0848 8.0601-10.107 0-6.0762-4.7128-10.912-10.727-10.912zm6.0776 5.6429h7.7494c3.1621 0 5.5189 2.17 5.5189 5.3321 0 3.1621-2.3568 5.3321-5.5189 5.3321h-7.7494z" style="fill:#54688c"/>
</svg>
