<svg width="192" height="192" version="1.1" viewBox="0 0 192 192" xmlns="http://www.w3.org/2000/svg">
 <rect x="20" y="20" width="152" height="152" rx="9.9346" opacity=".63" style="fill:#9abeff;opacity:1"/>
 <path d="m96 53.623c-23.372 0-42.562 19.066-42.5 42.438 0 23.372 19.005 42.316 42.5 42.316 23.495 0 42.5-18.882 42.5-42.377 0.0615-23.249-19.067-42.377-42.5-42.377zm17.098 22.572c2.3987 0 4.2454 0.80049 5.291 3.0762 3.8748 8.4877 6.458 17.404 6.5195 26.814 0.0615 4.7359-2.4602 8.2416-6.5195 9.6562-2.7677 0.98408-4.6762 0.30881-6.1523-2.2129-1.4146-2.3987-2.7045-4.8601-3.9961-7.3203-0.98408-1.7836-2.3385-2.582-4.4297-2.582-5.1049 0.0615-10.27 0.12301-15.375 0-2.2757-0.0615-3.7522 0.92248-4.7363 2.8906-1.2301 2.3987-2.5219 4.7351-3.875 7.0723-1.4146 2.4602-3.3221 3.0759-5.9668 2.2148-3.8133-1.2301-6.5811-4.4905-6.6426-8.7344-0.18451-9.9638 2.5218-19.311 6.7656-28.291 0.98408-1.9682 2.7692-2.5215 4.7988-2.5215h17.16c5.7199 0 11.438-9.9e-4 17.158-0.0625zm-2.582 3.5684c-4.2438-0.061504-7.751 3.4436-7.6894 7.5645s3.3226 7.3184 7.5664 7.3184c4.3054 0.061505 7.8115-3.3831 7.75-7.5039-0.0615-3.9363-3.5676-7.3174-7.627-7.3789zm-29.215 0.36719c-4.0593 0-7.4434 3.261-7.4434 7.1973-0.061505 3.8748 3.383 7.1963 7.3809 7.2578 4.1823 0 7.6279-3.383 7.5664-7.3809-0.061504-3.9978-3.3831-7.0742-7.5039-7.0742z" style="fill:#fff;stroke-width:.61505"/>
</svg>
