<svg width="192" height="192" version="1.1" viewBox="0 0 192 192" xmlns="http://www.w3.org/2000/svg">
 <rect x="19.5" y="19.5" width="153" height="153" rx="10" style="fill:#56595B"/>
 <path d="m97.912 120.65c8.9806 0 16.598-5.2921 16.598-14.273 0-17.801-22.131-13.391-22.131-21.73 0-2.7262 2.0848-4.0092 4.6506-4.0092 2.7262 0 5.4525 1.5235 7.858 4.1695l7.0562-6.7354c-3.5281-4.0894-8.9004-6.8156-14.834-6.8156-7.6174 0-15.395 4.5705-15.395 14.192 0 16.357 22.211 12.428 22.211 20.848 0 2.6461-2.2451 4.4101-5.9336 4.4101-4.4101 0-7.858-2.4857-9.622-6.2543l-8.74 5.4525c3.1272 6.0138 9.8626 10.745 18.282 10.745z" style="fill:#F8C18C"/>
</svg>
