<svg width="192" height="192" version="1.1" viewBox="0 0 192 192" xmlns="http://www.w3.org/2000/svg">
 <rect x="19" y="18.991" width="154" height="153.02" ry="12.009" style="fill:#56595b;paint-order:stroke fill markers;stroke-width:3.1014"/>
 <rect x="23.873" y="23.864" width="144.25" height="143.28" ry="7.136" style="fill:#fff;paint-order:stroke fill markers;stroke-width:2.4045"/>
 <path d="m71.539 23.863v45.27h50.121v-45.27h-50.121z" style="fill-rule:evenodd;fill:#b1b5bd"/>
 <path d="m121.87 121.05v10.82c-0.0673 0.48812-0.11328 0.98318-0.11328 1.4902v27.002c0 1.085 0.16261 2.1284 0.45898 3.1152v3.6602h38.604c4.0922 0 7.3105-3.2184 7.3105-7.3106v-38.777h-46.26z" style="fill-rule:evenodd;fill:#b1b5bd"/>
 <path d="m68.879 21.35v46.871h-47.197v5h47.197v44.564h-47.197v5h47.197v46.873h5v-46.873h44.891v46.873h5v-46.873h47.197v-5h-47.197v-44.564h47.197v-5h-47.197v-46.871h-5v46.871h-44.891v-46.871zm5 51.871h44.891v44.564h-44.891z" style="color-rendering:auto;color:#000000;dominant-baseline:auto;fill-rule:evenodd;fill:#56595b;font-feature-settings:normal;font-variant-alternates:normal;font-variant-caps:normal;font-variant-ligatures:normal;font-variant-numeric:normal;font-variant-position:normal;image-rendering:auto;isolation:auto;mix-blend-mode:normal;shape-padding:0;shape-rendering:auto;solid-color:#000000;text-decoration-color:#000000;text-decoration-line:none;text-decoration-style:solid;text-indent:0;text-orientation:mixed;text-transform:none;white-space:normal"/>
 <g style="fill-rule:evenodd;fill:#56595b" aria-label="1">
  <path d="m100.37 106.94h-2.8153v-17.94q-1.0166 0.96972-2.6745 1.9394-1.6423 0.96972-2.9561 1.4546v-2.7215q2.3617-1.1105 4.1291-2.6902 1.7674-1.5797 2.5025-3.0656h1.8143z" style=""/>
 </g>
 <g style="fill-rule:evenodd;fill:#56595b" aria-label="8">
  <path d="m91.133 44.163q-1.7518-0.64127-2.5963-1.83-0.84459-1.1887-0.84459-2.8466 0-2.5025 1.7987-4.2073 1.7987-1.7048 4.786-1.7048 3.003 0 4.833 1.7518 1.83 1.7361 1.83 4.2386 0 1.5953-0.84459 2.784-0.82896 1.173-2.5338 1.8143 2.1115 0.68819 3.2063 2.221 1.1105 1.5328 1.1105 3.6599 0 2.9404-2.0802 4.9424-2.0802 2.002-5.4742 2.002t-5.4742-2.002q-2.0802-2.0176-2.0802-5.0206 0-2.2366 1.1261-3.7381 1.1418-1.5171 3.2376-2.0646zm-0.56306-4.7704q0 1.6266 1.0479 2.6589t2.7215 1.0323q1.6266 0 2.6589-1.0166 1.0479-1.0323 1.0479-2.5181 0-1.5484-1.0792-2.5963-1.0636-1.0636-2.6589-1.0636-1.611 0-2.6745 1.0323-1.0636 1.0323-1.0636 2.4712zm-0.90716 10.589q0 1.2043 0.56306 2.3305 0.5787 1.1261 1.7048 1.7518 1.1261 0.60998 2.4243 0.60998 2.0176 0 3.3315-1.2982 1.3138-1.2982 1.3138-3.3002 0-2.0333-1.3607-3.3627-1.3451-1.3295-3.3784-1.3295-1.9864 0-3.3002 1.3138-1.2982 1.3138-1.2982 3.2845z" style=""/>
 </g>
 <g style="fill-rule:evenodd;fill:#56595b" aria-label="2">
  <path d="m153.37 154.86v2.7058h-15.156q-0.0313-1.0166 0.32845-1.9551 0.57871-1.5484 1.8456-3.0499 1.2825-1.5015 3.6912-3.4722 3.7381-3.0656 5.0519-4.8486 1.3138-1.7987 1.3138-3.394 0-1.6736-1.2043-2.8153-1.1887-1.1574-3.1125-1.1574-2.0333 0-3.2532 1.22-1.22 1.22-1.2356 3.3784l-2.8935-0.29717q0.29717-3.2376 2.2366-4.9268 1.9394-1.7048 5.2083-1.7048 3.3002 0 5.224 1.83 1.9238 1.83 1.9238 4.5358 0 1.3764-0.56307 2.7058-0.56306 1.3294-1.8769 2.7997-1.2982 1.4702-4.3324 4.0353-2.5338 2.1271-3.2533 2.8935-0.71946 0.75075-1.1887 1.5171z" style=""/>
 </g>
</svg>
