<svg version="1.1" viewBox="0 0 192 192" xmlns="http://www.w3.org/2000/svg">
 <rect x="20" y="20" width="152" height="152" rx="10" ry="10" fill="#9ABEFF"/>
 <rect x="56" y="56" width="80" height="80" rx="5" ry="5" fill="#FFF"/>
 <rect x="62.519" y="62.509" width="13.5" height="67" rx="2" ry="2" fill="#9ABEFF"/>
 <path d="m129.5 127.5c0 1.108-.892 2-2 2h-46.481c-1.108 0-2-.892-2-2v-62.991c0-1.108.892-2 2-2h46.481c1.108 0 2 .892 2 2v19.491c0 1.1046-.89543 2-2 2h-14c-5.5228 0-10 4.4772-10 10 0 5.5228 4.4772 10 10 10h14c1.1046 0 2 .89543 2 2z" fill="#9ABEFF"/>
 <path d="m113.5 89.5a6.5 6.5 0 00-6.5 6.5 6.5 6.5 0 006.5 6.5h14c1.108 0 2-.892 2-2v-9c0-1.108-.892-2-2-2h-14z" fill="#9ABEFF"/>
</svg>
