<svg version="1.1" viewBox="0 0 192 192" xmlns="http://www.w3.org/2000/svg">
 <rect x="20" y="20" width="152" height="152" rx="10" ry="10" fill="#9ABEFF"/>
 <path d="m134.8 92.999c-.5077-2.4751-1.8404-4.5693-3.1097-6.6636l-14.66-25.131c-1.9674-3.3635-4.8232-5.1405-8.6944-5.204h-36.491c-3.2366 0-5.7751 1.3327-7.4252 4.252-1.9674 3.427-3.9982 6.9175-6.029 10.344-1.777 3.0462-1.7135 6.029.06346 9.0752 2.5385 4.1886 4.8867 8.5041 7.4886 12.756 1.4597 2.4116 1.5231 4.5693 0 7.0444-2.5385 4.1251-4.8867 8.4406-7.4252 12.566-1.9674 3.2366-1.9674 6.3463 0 9.5829 1.9039 3.1732 3.8078 6.3463 5.5848 9.5829 1.8404 3.3001 4.5693 4.6963 8.2502 4.6963 5.9021-.0635 11.804 0 17.706 0h17.706c4.0616 0 7.1713-1.65 9.2022-5.2674 5.3944-9.2656 10.852-18.531 16.183-27.797 1.8404-3.1097 2.3481-6.3463 1.65-9.8368zm-64.098 33.001c-.82502 1.4596-.95195 1.4596-1.8404-.0635-1.5231-2.602-2.9828-5.204-4.5693-7.7425-.57117-.95194-.63463-1.7135 0-2.7289 2.6654-4.4424 5.2674-8.8848 7.806-13.391 2.3481-4.1251 2.4116-8.2502 0-12.312-2.602-4.5059-5.204-8.9483-7.806-13.391-.57117-.95195-.63463-1.7135-.06346-2.7289 1.65-2.6654 3.2366-5.3944 4.7597-8.1233.57117-.95195.95195-.95195 1.5231 0 5.1405 8.8214 10.344 17.706 15.485 26.528.69809 1.1423.95195 2.4751.95195 3.8078 0 1.5866-.44424 3.1097-1.2693 4.5059-5.0136 8.5675-9.9637 17.072-14.977 25.639zm17.706-36.174c-2.0943-3.6174-4.1886-7.2348-6.3463-10.852-.63463-1.0789-.5077-1.3962.76156-1.3962 5.7117.06346 11.423.06346 17.135 0 1.3962 0 2.2847.57117 2.9828 1.7135 2.602 4.379 5.2674 8.7579 7.8694 13.2 1.3327 2.2847 1.3327 4.5693 0 6.854-2.602 4.379-5.2674 8.7579-7.8694 13.2-.76156 1.2693-1.7135 1.777-3.1732 1.7135-2.7924-.0635-5.5848 0-8.4406 0h-8.6944c-1.1423 0-1.2693-.38077-.69809-1.2693 2.1577-3.6174 4.3155-7.2982 6.4098-10.979 2.3481-4.0616 2.3481-8.1233.06346-12.185zm38.839 10.091c-5.3309 9.0752-10.662 18.214-15.929 27.289-.76156 1.3327-1.8404 1.9039-3.3636 1.8404-5.5848-.0635-11.106 0-16.691 0h-16.691c-1.7135 0-1.777-.12693-.95195-1.5866 1.7135-2.9193 3.427-5.7751 5.0136-8.6944.57117-.95194 1.2058-1.3962 2.3481-1.3962 6.1559.0635 12.312 0 18.468.0635 2.9828.0635 5.077-1.0789 6.5367-3.6809 2.4116-4.252 5.0136-8.3771 7.4886-12.566 2.0943-3.5539 2.1577-7.1079.0635-10.598-2.5385-4.252-5.1405-8.5041-7.6156-12.82-1.3962-2.4116-3.427-3.4905-6.2194-3.4905-6.2194.06346-12.439 0-18.595.06346-1.2058 0-1.9039-.38078-2.4751-1.4597-1.65-2.9193-3.3635-5.7751-5.0136-8.6944-.76156-1.3327-.69809-1.5231.76156-1.5231h33.826c1.4596 0 2.4116.57117 3.1097 1.777l15.993 27.416c1.5231 2.7924 1.4596 5.3944-.0635 8.0598z" fill="#FEFEFE"/>
</svg>

