<svg version="1.1" viewBox="0 0 192 192" xmlns="http://www.w3.org/2000/svg">
 <rect x="20" y="20" width="152" height="152" rx="10" ry="10" fill="#98DC9A"/>
 <path d="m136.8 94.723c-.77327 15.852-8.506 27.193-22.747 34.153-4.6396 2.2554-9.4726 4.3819-14.885 4.253-1.0955 0-.83771 1.031-.83771 1.6754-.06444 1.3532.12888 2.7064-.12888 3.9952-.38664 2.7709-2.1265 4.1241-4.8329 3.4153-25.389-6.6372-39.179-27.644-37.181-52.196 1.5465-18.945 16.69-34.733 34.862-37.117 18.687-2.4487 36.473 8.6993 42.981 26.807 1.7399 4.8329 2.3842 9.7948 2.7709 15.014zm-38.406-36.473c-11.212 0-19.267 3.3508-26.033 9.7303-8.7637 8.3127-11.728 18.752-10.439 30.48 1.8043 16.948 10.31 29.191 26.227 35.828 3.8019 1.611 4.5752 1.0955 4.253-3.0931-.25776-3.4797 1.031-4.0597 4.1886-4.0597 15.53.25776 29.191-10.375 33.057-25.582 3.222-12.63.19332-23.585-9.2148-33.122-6.7661-6.7661-14.757-9.4081-22.038-10.181z" fill="#FFF"/>
 <circle cx="95.233" cy="94.012" r="4.6718" fill="#FFF"/>
 <circle cx="109.73" cy="94.012" r="4.6718" fill="#FFF"/>
 <circle cx="80.734" cy="94.012" r="4.6718" fill="#FFF"/>
</svg>
