<svg width="192" height="192" version="1.1" viewBox="0 0 192 192" xmlns="http://www.w3.org/2000/svg">
 <path d="m95.748 20.004c-3.5802 0.09055-6.8386 2.0885-8.543 5.2383l-66 122.3c-3.6025 6.6625 1.2208 14.756 8.7949 14.758h132c7.5741-2e-3 12.397-8.0953 8.7949-14.758l-66-122.3c-1.7904-3.3087-5.286-5.3327-9.0469-5.2383z" style="color-rendering:auto;color:#000000;dominant-baseline:auto;fill:#ff837d;font-feature-settings:normal;font-variant-alternates:normal;font-variant-caps:normal;font-variant-ligatures:normal;font-variant-numeric:normal;font-variant-position:normal;image-rendering:auto;isolation:auto;mix-blend-mode:normal;shape-padding:0;shape-rendering:auto;solid-color:#000000;text-decoration-color:#000000;text-decoration-line:none;text-decoration-style:solid;text-indent:0;text-orientation:mixed;text-transform:none;white-space:normal"/>
 <path d="m90.399 112.44h10.47l1.745-44.389h-13.851zm5.2351 23.558c4.3626 0 7.7436-3.4901 7.7436-7.6346 0-4.2535-3.381-7.7436-7.7436-7.7436-4.1445 0-7.6346 3.4901-7.6346 7.7436 0 4.1445 3.4901 7.6346 7.6346 7.6346z" style="fill:#fff"/>
</svg>
