<svg width="192" height="192" version="1.1" viewBox="0 0 192 192" xmlns="http://www.w3.org/2000/svg">
 <rect transform="rotate(90)" x="8" y="-160" width="176" height="20" rx="10" style="fill:#56595b;paint-order:stroke fill markers;stroke-width:4"/>
 <rect transform="rotate(90)" x="8" y="-88" width="176" height="20" rx="10" style="fill:#56595b;paint-order:stroke fill markers;stroke-width:4"/>
 <rect transform="rotate(90)" x="8" y="-124" width="176" height="20" rx="10" style="fill:#56595b;paint-order:stroke fill markers;stroke-width:4"/>
 <rect transform="rotate(90)" x="8" y="-52" width="176" height="20" rx="10" style="fill:#56595b;paint-order:stroke fill markers;stroke-width:4"/>
 <rect x="8" y="32" width="176" height="20" rx="10" style="fill:#56595b;paint-order:stroke fill markers;stroke-width:4"/>
 <rect x="8" y="104" width="176" height="20" rx="10" style="fill:#56595b;paint-order:stroke fill markers;stroke-width:4"/>
 <rect x="8" y="68" width="176" height="20" rx="10" style="fill:#56595b;paint-order:stroke fill markers;stroke-width:4"/>
 <rect x="8" y="140" width="176" height="20" rx="10" style="fill:#56595b;paint-order:stroke fill markers;stroke-width:4"/>
 <rect x="20" y="20" width="152" height="152" rx="10" style="fill:#979797;paint-order:stroke fill markers;stroke-width:4"/>
 <circle cx="96" cy="116" r="24" style="fill:#ff837d;paint-order:stroke fill markers;stroke-width:4"/>
 <rect x="84" y="52" width="24" height="48" ry="12" style="fill:#56595b;paint-order:stroke fill markers;stroke-width:4"/>
 <rect x="84" y="80" width="24" height="32" style="fill:#ff837d;paint-order:stroke fill markers;stroke-width:4"/>
</svg>
