<svg width="192" height="192" fill="none" version="1.1" viewBox="0 0 192 192" xmlns="http://www.w3.org/2000/svg">
 <rect x="20" y="20" width="152" height="152" rx="10" fill="#fff"/>
 <path d="m130.96 53.135a5.0005 5.0005 0 0 0-4.1856 2.0527l-31.223 41.574-8.9121-9.4395a5.0005 5.0005 0 1 0-7.2734 6.8633l12.984 13.754a5.0005 5.0005 0 0 0 7.6348-0.42968l34.785-46.316a5.0005 5.0005 0 0 0-3.8106-8.0586z" style="color-rendering:auto;color:#000000;dominant-baseline:auto;fill:#f9de81;font-feature-settings:normal;font-variant-alternates:normal;font-variant-caps:normal;font-variant-ligatures:normal;font-variant-numeric:normal;font-variant-position:normal;image-rendering:auto;isolation:auto;mix-blend-mode:normal;shape-padding:0;shape-rendering:auto;solid-color:#000000;text-decoration-color:#000000;text-decoration-line:none;text-decoration-style:solid;text-indent:0;text-orientation:mixed;text-transform:none;white-space:normal"/>
 <path d="m96 59c-20.375 0-37 16.625-37 37 0 20.375 16.625 37 37 37 20.375 0 37-16.625 37-37a5.0005 5.0005 0 1 0-10 0c0 14.971-12.029 27-27 27-14.971 0-27-12.029-27-27 0-14.971 12.029-27 27-27a5.0005 5.0005 0 1 0 0-10z" style="color-rendering:auto;color:#000000;dominant-baseline:auto;fill:#9abeff;font-feature-settings:normal;font-variant-alternates:normal;font-variant-caps:normal;font-variant-ligatures:normal;font-variant-numeric:normal;font-variant-position:normal;image-rendering:auto;isolation:auto;mix-blend-mode:normal;shape-padding:0;shape-rendering:auto;solid-color:#000000;text-decoration-color:#000000;text-decoration-line:none;text-decoration-style:solid;text-indent:0;text-orientation:mixed;text-transform:none;white-space:normal"/>
</svg>
