<?xml version="1.0" encoding="UTF-8" standalone="no"?>
<svg
   width="192"
   height="192"
   fill="none"
   version="1.1"
   id="svg10788"
   sodipodi:docname="timeshift.svg"
   inkscape:version="1.2.2 (b0a8486541, 2022-12-01)"
   xmlns:inkscape="http://www.inkscape.org/namespaces/inkscape"
   xmlns:sodipodi="http://sodipodi.sourceforge.net/DTD/sodipodi-0.dtd"
   xmlns="http://www.w3.org/2000/svg"
   xmlns:svg="http://www.w3.org/2000/svg">
  <defs
     id="defs10792" />
  <sodipodi:namedview
     id="namedview10790"
     pagecolor="#ffffff"
     bordercolor="#000000"
     borderopacity="0.25"
     inkscape:showpageshadow="2"
     inkscape:pageopacity="0.0"
     inkscape:pagecheckerboard="0"
     inkscape:deskcolor="#d1d1d1"
     showgrid="false"
     inkscape:zoom="5.3489583"
     inkscape:cx="101.23466"
     inkscape:cy="95.719572"
     inkscape:window-width="3440"
     inkscape:window-height="1371"
     inkscape:window-x="0"
     inkscape:window-y="0"
     inkscape:window-maximized="1"
     inkscape:current-layer="svg10788" />
  <path
     fill="#9ABEFF"
     fill-rule="evenodd"
     d="M 96.000003,184 C 144.60129,184 184,144.60129 184,96 184,47.398713 144.60129,8 96.000003,8 47.398716,8 8.0000024,47.398713 8.0000024,96 c 0,48.60129 39.3987136,88 88.0000006,88 z"
     clip-rule="evenodd"
     id="path10782"
     style="fill:#ff837d;stroke-width:1.01149" />
  <g
     id="g10913"
     transform="rotate(-90,96.3385,96.6615)">
    <path
       stroke="#ffffff"
       stroke-width="10"
       d="m 97,66.125 c -17.12,0 -31,13.851 -31,30.938 0,17.085 13.88,30.937 31,30.937 17.121,0 31,-13.851 31,-30.938 0,-11.92 -6.756,-22.266 -16.655,-27.432"
       id="path10784" />
    <path
       fill="#ffffff"
       fill-rule="evenodd"
       d="m 100.853,65.506 5.848,18 12.188,-23.86 z"
       clip-rule="evenodd"
       id="path10786" />
  </g>
</svg>
