<svg width="192" height="192" version="1.1" viewBox="0 0 192 192" xmlns="http://www.w3.org/2000/svg">
 <path d="m18.078 32c-5.5836 0-10.078 4.4945-10.078 10.078v89.922l92 20 84-20v-89.922c0-5.5836-4.4945-10.078-10.078-10.078h-155.84z" style="fill:#83868c"/>
 <path d="m9 132c-0.554 0-1 0.446-1 1v16.922c0 5.5836 4.4945 10.078 10.078 10.078h155.84c5.5836 0 10.078-4.4945 10.078-10.078v-16.922c0-0.554-0.446-1-1-1h-174z" style="fill:#56595b;paint-order:stroke fill markers"/>
 <circle cx="22" cy="146" r="6" style="fill:#83868c;paint-order:stroke fill markers"/>
 <path d="m125 167-2.3138-16.018 32.503-121.67c0.89158-3.3375 1.4684-5.444 5.0336-5.0336 1.9757 0.22739 3.922 0.8052 5.7527 1.582 3.0646 1.3003 2.8078 3.3548 1.7258 7.3347l-33.078 121.67z" style="fill:#ccc"/>
 <path d="m121.18 149.4c-0.32406 1.1687-0.74701 2.8776 1.1506 3.4516 3.7416 1.132 7.7302 1.989 11.937 3.0202 1.4658 0.35932 2.3978-0.34377 2.6606-1.2944 2.9967-10.838 3.5792-12.737 5.9685-21.788 0.86358-3.2716-0.099-5.1617-2.5887-6.1123-3.0638-1.1698-4.9452-1.4294-8.1257-2.2292-3.3139-0.83332-5.07 1.9037-5.4651 3.4516-2.0735 8.1234-2.6043 10.924-5.537 21.501z" style="fill:#a0a5af"/>
</svg>
