<svg width="192" height="192" version="1.1" viewBox="0 0 192 192" xmlns="http://www.w3.org/2000/svg">
 <rect x="19.5" y="19.5" width="153" height="153" rx="10" style="fill-rule:evenodd;fill:#728dbe;stroke:#728cba"/>
 <path d="m90.339 131.59c-1.4493 1.4498-3.8006 1.4498-5.2505 0l-32.319-32.318c-1.4493-1.4493-1.4493-3.8006 0-5.2505l13.503-13.503c1.4499-1.4493 3.8006-1.4493 5.2505 0l32.318 32.319c1.4499 1.4493 1.4499 3.8001 0 5.25z" style="fill:#d8d8d8;stroke-width:.72149"/>
 <path d="m90.339 131.59c-1.4493 1.4498-3.8006 1.4498-5.2505 0l-13.496-13.496c-1.4499-1.4493-1.4499-3.8006 0-5.25l51.165-51.165c1.4493-1.4499 3.8006-1.4499 5.25 0l13.496 13.496c1.4499 1.4499 1.4499 3.8006 0 5.2505z" style="fill:#fff;stroke-width:.56779"/>
</svg>
