<svg width="192" height="192" version="1.1" viewBox="0 0 192 192" xmlns="http://www.w3.org/2000/svg" xmlns:xlink="http://www.w3.org/1999/xlink">
 <rect x="20" y="20" width="152" height="152" ry="10" style="fill:#ff837d;paint-order:stroke fill markers;stroke-linecap:round;stroke-linejoin:round;stroke-width:10"/>
 <path d="m106.07 62.963a5.0005 5.0005 0 0 0-2.6973 0.78516l-49.869 30.871-33.5-20.738v11.762l30.869 19.109a5.0005 5.0005 0 0 0 5.2617 0l52.5-32.5a5.0005 5.0005 0 0 0-2.5644-9.2891zm0 20a5.0005 5.0005 0 0 0-2.6973 0.78516l-49.869 30.871-33.5-20.738v11.762l30.869 19.109a5.0005 5.0005 0 0 0 5.2617 0l52.5-32.5a5.0005 5.0005 0 0 0-2.5644-9.2891zm0 20a5.0005 5.0005 0 0 0-2.6973 0.78516l-49.869 30.871-33.5-20.738v11.762l30.869 19.109a5.0005 5.0005 0 0 0 5.2617 0l52.5-32.5a5.0005 5.0005 0 0 0-2.5644-9.2891z" style="color-rendering:auto;color:#000000;dominant-baseline:auto;fill:#fff;font-feature-settings:normal;font-variant-alternates:normal;font-variant-caps:normal;font-variant-ligatures:normal;font-variant-numeric:normal;font-variant-position:normal;image-rendering:auto;isolation:auto;mix-blend-mode:normal;shape-padding:0;shape-rendering:auto;solid-color:#000000;text-decoration-color:#000000;text-decoration-line:none;text-decoration-style:solid;text-indent:0;text-orientation:mixed;text-transform:none;white-space:normal"/>
</svg>
