<svg width="192" height="192" fill="none" version="1.1" viewBox="0 0 192 192" xmlns="http://www.w3.org/2000/svg">
 <path d="m96 8c-48.6 0-88 39.4-88 88s39.4 88 88 88 88-39.4 88-88-39.4-88-88-88zm45.3 88c0 23.8-18.4 43.3-41.7 45.1-0.99799 0.0634-2.1193 0.10009-2.8 0.1v-10.6c18.8-0.4 33.9-15.8 33.9-34.7s-15.1-34.3-33.9-34.7v-10.4c1.1927 0.01206 1.7532 0.01933 2.8 0.1 23.3 1.7955 41.7 21.3 41.7 45.1zm-44.7 18.5v-37.1c0.87692-0.06972 2.4036 0.12493 2.8 0.2 8.6133 1.6311 15.1 9.2 15.1 18.3s-6.5068 16.566-15.1 18.3c-1.0353 0.2089-1.7794 0.3-2.8 0.3zm2.9 53.3h-2.8v-10.6h0.9c33.1-0.9 59.7-28 59.7-61.3s-26.6-60.4-59.7-61.3h-0.9l0.1-10.5c0.8 0 2.1 0.1 2.7 0.1 38.1 1.8 68.4 33.3 68.4 71.8s-30.3 70-68.4 71.8z" style="fill:#bd9aff"/>
</svg>
