<svg width="192" height="192" fill="none" version="1.1" viewBox="0 0 192 192" xmlns="http://www.w3.org/2000/svg">
 <path d="m99 187c48.377 0 88-39.623 88-88 0-49.377-39.623-89-88-89-49.377 0-89 39.623-89 89 0 48.377 39.623 88 89 88z" clip-rule="evenodd" fill="#56595B" fill-rule="evenodd"/>
 <path d="m86.029 69c-2.4728 0-4.5738 1.807-4.9434 4.252l-0.50391 3.3398c-0.2163 1.4307-1.0654 3.0427-2.291 4.4277-0.5072 0.5732-1.03 1.0475-2.3438 1.4707-1.3138 0.42315-2.9473 2.3851-2.9473 4.7402v9.9004c0 2.7614 3.2386 4.9004 6 4.9004l0.029297 7.3379c0 10.921 9.2174 19.58 20.301 19.58 2.5941 0 5.8541-1.9e-4 6.8379 0 0.14332 3e-5 0.99609 0 0.99609 0l0.00196-0.00195c1.8883 0.00446 3.0413 0.00878 4.0078-0.15625 1.1525-0.19677 1.7774-0.61282 2.7578-1.0566 2.774-1.256 5.3508-3.5887 7.7148-7.2344 1.1342-1.7502 1.0568-4.0441-0.19336-5.7148h0.00196l-4-5.3496c-1.0986-1.4694-2.928-2.2201-4.7402-1.9512-0.30374 0.05159-0.48659 0.0864-0.68945 0.14843-1.0254 0.36719-1.6504 0.85155-1.6504 0.85157l-0.02539-6.3535h3.2812c2.7318 0 5-2.2685 5-5v-9.9004c0-2.7315-2.2682-5-5-5h-3.2812v-8.2305c0-2.7315-2.2682-5-5-5h-4-7.3203-8zm8.0156 5h11.305v10.73c1.4e-4 1.3807 1.1193 2.4999 2.5 2.5h4.7812 1v9.9004h-1-4.7812c-0.27456 9.73e-4 -0.54709 0.04716-0.80664 0.13672-0.14446 0.06316-0.26829 0.10649-0.46094 0.21289-1.4114 0.7795-1.2324 2.5195-1.2324 2.5195l0.00977 9c0.01998 3.2085 0.88208 5.4191 3.6406 5.4375 1.179 0.00787 2.4653-0.24661 3.4434-1.002 0.16301-0.12589 0.31692-0.26711 0.46094-0.42188 0.14401-0.15476 0.27724-0.32394 0.39843-0.50976l0.14649-0.07227 4.002 5.3477c-0.10749 0.16306-0.22308 0.32571-1.1484 1.6113-0.22497 0.31257-0.48739 0.65396-0.78906 1.0039-0.00129 0.0015-0.00261 0.00241-0.0039 0.00391-0.90304 1.0516-2.1607 2.1773-3.8262 2.8711-0.06286 0.02619-0.11955 0.05908-0.18359 0.08399-0.81094 0.24577-1.2602 0.44925-2.4492 0.57031-0.17325 0.0176-2.1397 0.02539-2.8828 0.02539-1.6084 0-4.1215-0.65276-5.9785-1.6836-1.857-1.0308-2.8442-1.8004-3.6934-2.6289-1.1683-1.0963-2.1998-2.3733-2.9707-3.8906l0.1543 0.01368c-1.3017-2.6089-1.6504-5.1171-1.6504-6.2598v-9.5c0.09941-1.5623-0.96773-2.8421-2.4297-2.8496h-3.5996v-10.201c5.1768-1.0384 8.3094-8.7066 8.0449-12.949z" style="clip-rule:evenodd;fill-rule:evenodd;fill:#fff"/>
 <path d="m73 97v0.13086c0 2.651 2.9821 4.7074 5.6641 4.8691h6.7891c-2.471-0.26578-4.4358-2.3068-4.4512-4.8398-0.001953-0.085338-0.001953-0.055639-0.001953-0.16016z" style="fill:#b1b5bd"/>
</svg>
