<svg width="192" height="192" version="1.1" viewBox="0 0 192 192" xmlns="http://www.w3.org/2000/svg">
 <rect x="20" y="20" width="152" height="152" rx="9.9346" opacity=".63" style="fill:#ff837d;opacity:1"/>
 <path d="m162.21 119.11c-14.11-18.601-48.877-24.294-56.836-26.524-6.3831-1.7887-21.158-3.5404-20.477-7.6591 0.39394-2.3839 4.8578-2.9832 6.6482-3.3216 5.3814-1.0168 10.908-0.87627 16.328-1.596 7.4041-0.98317 12.328-2.7711 13.416-5.9142 0.90405-2.6111-1.6591-6.8393-10.514-8.0329 0 0 10.627 2.1524 7.9807 7.2559-2.0059 3.8696-14.804 3.7029-26.707 4.633-5.1356 0.40152-10.522 1.0741-15.4 2.8376-3.2147 1.1625-7.99 4.1137-6.4748 7.6473 1.0817 2.5227 8.9614 5.9142 12.701 7.5135 3.4504 1.4756 6.8747 3.0438 10.243 4.6987 14.739 7.2416 24.187 20.445-2.1768 37.488-18.147 11.731-51.574 25.823-66.697 31.959 1.6658 1.1953 3.7054 1.9007 5.9117 1.9007h131.68c5.612 0 10.161-4.5488 10.161-10.161v-20.835c-1.7812-7.5548-4.7947-15.312-9.7838-21.891z" style="fill:#f5f5f5;stroke-width:.84176"/>
</svg>
