<svg width="192" height="192" version="1.1" viewBox="0 0 192 192" xmlns="http://www.w3.org/2000/svg">
 <rect x="20" y="20" width="152" height="152" rx="10" style="fill-rule:evenodd;fill:#bd9aff"/>
 <path d="m72.004 60.5c-4.118 0-7.5039 3.3915-7.5039 7.5039v49.586c0 4.1127 3.3858 7.5039 7.5 7.5039h5.498c1.4132 0 2.5 1.0827 2.5 2.498 0.12324 0.67766 0.30527 1.6603 0.47657 2.2793 0.36206 0.85034 1.0728 1.7365 2.1074 2.1602s2.1609 0.29009 3.0156-0.0606c0.85472-0.35059 1.5454-0.88649 2.1992-1.5469l2.4883-2.5137c1.2693-1.282 4.9542-2.8164 6.748-2.8164h15.545c3.6956 0 7.671-1.5957 10.34-4.1543l1.2051-1.1543c2.6993-2.5877 4.377-6.5318 4.377-10.262v-41.52c0-4.1159-3.3886-7.5039-7.5-7.5039h-46.768zm2.2285 5h46.768c1.4038 0 2.5 1.0936 2.5 2.5039v39.566c0 1.7841-1.5516 5.4232-2.8418 6.6602l-0.87695 0.83984c-1.3164 1.2621-5.0596 2.7676-6.8867 2.7676h-14.572c-3.7197 0-7.681 1.6488-10.303 4.2969l-1.6816 1.7012c-0.72405-3.3787-3.616-5.998-7.2012-5.998h-4.8984c-1.4296 0-2.5059-1.0855-2.5059-2.5v-47.338c0-1.3975 1.0948-2.5 2.5-2.5z" style="color-rendering:auto;color:#000000;dominant-baseline:auto;fill:#fff;font-feature-settings:normal;font-variant-alternates:normal;font-variant-caps:normal;font-variant-ligatures:normal;font-variant-numeric:normal;font-variant-position:normal;image-rendering:auto;isolation:auto;mix-blend-mode:normal;shape-padding:0;shape-rendering:auto;solid-color:#000000;text-decoration-color:#000000;text-decoration-line:none;text-decoration-style:solid;text-indent:0;text-orientation:mixed;text-transform:none;white-space:normal"/>
 <rect x="110" y="71.7" width="7" height="30.863" ry="3.5" style="fill:#fff;paint-order:stroke fill markers;stroke-width:1.0143"/>
 <rect x="91" y="71.637" width="7" height="30.863" ry="3.5" style="fill:#fff;paint-order:stroke fill markers;stroke-width:1.0143"/>
</svg>
