<svg width="192" height="192" version="1.1" viewBox="0 0 192 192" xmlns="http://www.w3.org/2000/svg">
 <g transform="translate(0 -860.36)">
  <rect x="20" y="880.36" width="152" height="152" rx="9.9346" ry="9.9346" style="fill-rule:evenodd;fill:#bd9aff"/>
  <path d="m75.982 925.7-9.5002 9.5002a6.0355 6.0355 112.5 0 0-1.7678 4.2678v41.929a2.5 2.5 45 0 0 2.5 2.5h10.643a2.5 2.5 45 0 1 2.5 2.5v8.0357a1.0355 1.0355 22.5 0 0 1.7678 0.73224l9.5003-9.5002a6.0356 6.0356 157.5 0 1 4.2678-1.7678h5.4285a6.0355 6.0355 157.5 0 0 4.2678-1.7678l19.929-19.929a6.0355 6.0355 112.5 0 0 1.7678-4.2678v-31.5a2.5 2.5 45 0 0-2.5-2.5h-44.536a6.0355 6.0355 157.5 0 0-4.2678 1.7678z" style="fill:#56595b;stroke-width:.026071"/>
  <path d="m121.01 958.88-8.3072 8.3072a3.6213 3.6213 157.5 0 1-2.5607 1.0607h-7.4286a3.6213 3.6213 157.5 0 0-2.5607 1.0607l-7.0037 7.0037a0.62132 0.62132 22.5 0 1-1.0607-0.43934v-6.125a1.5 1.5 45 0 0-1.5-1.5h-8.7321a1.5 1.5 45 0 1-1.5-1.5v-36.107a1.5 1.5 135 0 1 1.5-1.5h38.714a1.5 1.5 45 0 1 1.5 1.5v25.679a3.6213 3.6213 112.5 0 1-1.0607 2.5607z" style="color-rendering:auto;color:#000000;dominant-baseline:auto;fill:#fff;font-feature-settings:normal;font-variant-alternates:normal;font-variant-caps:normal;font-variant-east-asian:normal;font-variant-ligatures:normal;font-variant-numeric:normal;font-variant-position:normal;font-variation-settings:normal;image-rendering:auto;inline-size:0;isolation:auto;mix-blend-mode:normal;shape-margin:0;shape-padding:0;shape-rendering:auto;solid-color:#000000;stop-color:#000000;text-decoration-color:#000000;text-decoration-line:none;text-decoration-style:solid;text-indent:0;text-orientation:mixed;text-transform:none;white-space:normal"/>
  <rect class="st1" x="109.04" y="938.27" width="5.2143" height="15.643" rx="2.5" ry="2.5" style="fill:#56595b;stroke-width:.026071"/>
  <rect class="st1" x="94.696" y="938.27" width="5.2143" height="15.643" rx="2.5" ry="2.5" style="fill:#56595b;stroke-width:.026071"/>
 </g>
 <style type="text/css">.st0{fill:#FFFFFF;}</style>
 <style type="text/css">.st0{fill:#FFFFFF;}</style>
 <style type="text/css">.st0{fill:#FFFFFF;}</style>
 <style type="text/css">.st0{fill:#FFFFFF;}
	.st1{fill:#9146FF;}</style>
</svg>
