<svg width="192" height="192" version="1.1" viewBox="0 0 192 192" xmlns="http://www.w3.org/2000/svg">
 <path d="m182.31 37.407c0.029631 0.49385-0.51262 2.491-0.68547 2.9671-1.7739 4.8714-8.596 8.917-13.766 9.8889-0.008889 0.0019754-0.024693 0.0039508-0.03457 0.0049385 4.4565-1.8569 8.191-5.4353 10.1-10.283 1.4262-3.6199 1.6307-7.4176 0.81387-10.941-0.14223 0.54225-0.31508 1.0835-0.52546 1.6188-2.889 7.3317-11.81 10.684-18.507 8.0448-0.40891-0.161-0.78127-0.35557-0.78127-0.35557-0.24298-0.21137-0.51163-0.38718-0.79312-0.54225-9.077-9.2498-22.852-13.273-36.115-9.2587-17.201 5.2072-28.852 23.981-25.915 39.671-0.76349 0.35854-1.5013 0.76745-2.2016 1.2415 0 0-1.4371 0.54521-2.9927 0.95215-25.472 6.6522-56.399-9.4187-63.683-37.307-0.53138-2.0366-0.92054-4.0753-1.202-6.1099-4.5069 12.437-5.4255 26.319-1.8292 40.087 2.3596 9.0345 6.4388 17.164 11.794 24.129-5.1854-1.8253-10.094-4.5978-14.421-8.4054-1.4154-1.2455-2.7261-2.5651-3.9548-3.935 2.8871 11.496 9.1639 22.266 18.735 30.688 4.2669 3.7543 8.9199 6.7835 13.803 9.1313-7.2329 0.38224-14.61-1.1517-21.195-5.0442-1.3611-0.80399-2.647-1.685-3.8728-2.6214 4.176 9.0148 11.03 16.901 20.229 22.338 5.9667 3.5271 12.362 5.6882 18.824 6.588-12.902 9.6647-28.686 15.645-45.731 15.645-3.1834 0-6.3154-0.21038-9.4-0.57682 16.476 11.349 36.439 17.999 57.958 17.999 56.502 0 102.31-45.804 102.31-102.31 0 0-0.004938-3.7908-0.63312-8.8686 7.6488-2.0258 11.843-9.0829 13.433-13.494 0.89091-2.4693 1.8984-8.2216 0.24396-10.947" fill="#9ABEFF" fill-rule="evenodd"/>
</svg>
