<svg xmlns="http://www.w3.org/2000/svg" viewBox="0 -0.5 42 36" shape-rendering="crispEdges">
<metadata>Made with Pixels to Svg https://codepen.io/shshaw/pen/XbxvNj</metadata>
<path stroke="#56595b" d="M14 0h13M11 1h18M11 2h4M26 2h4M10 3h5M28 3h5M10 4h4M29 4h6M9 5h4M32 5h4M8 6h3M34 6h3M7 7h3M35 7h3M6 8h3M36 8h3M6 9h2M37 9h2M5 10h3M37 10h3M4 11h3M38 11h2M3 12h3M38 12h3M3 13h2M39 13h2M2 14h3M34 14h4M39 14h3M2 15h2M33 15h5M40 15h2M1 16h3M33 16h4M40 16h2M1 17h2M7 17h2M40 17h2M0 18h3M5 18h5M40 18h2M0 19h2M5 19h5M40 19h2M0 20h2M6 20h2M40 20h2M0 21h2M22 21h10M40 21h2M0 22h3M19 22h14M39 22h3M1 23h2M17 23h6M31 23h3M39 23h2M1 24h3M15 24h5M31 24h3M39 24h2M2 25h3M15 25h4M31 25h2M38 25h3M3 26h2M15 26h2M28 26h5M38 26h2M3 27h3M15 27h7M23 27h9M37 27h3M4 28h3M16 28h13M36 28h3M5 29h3M21 29h4M35 29h3M6 30h4M33 30h4M7 31h5M31 31h5M9 32h5M28 32h6M11 33h6M25 33h7M13 34h16M16 35h10" />
<path stroke="#ffffff" d="M15 2h11M15 3h13M14 4h15M13 5h19M11 6h23M10 7h25M9 8h27M8 9h29M8 10h29M7 11h31M6 12h32M5 13h34M5 14h29M38 14h1M4 15h29M38 15h2M4 16h29M37 16h3M3 17h4M9 17h31M3 18h2M10 18h30M2 19h3M10 19h30M2 20h4M8 20h32M2 21h20M32 21h8M3 22h16M33 22h6M3 23h14M23 23h8M34 23h5M4 24h11M20 24h11M34 24h5M5 25h10M19 25h12M33 25h5M5 26h10M17 26h11M33 26h5M6 27h9M22 27h1M32 27h5M7 28h9M29 28h7M8 29h13M25 29h10M10 30h23M12 31h19M14 32h14M17 33h8" />
</svg>