<svg width="192" height="192" version="1.1" viewBox="0 0 192 192" xmlns="http://www.w3.org/2000/svg">
 <path d="m96 183c48.049 0 87-38.951 87-87s-38.951-87-87-87-87 38.951-87 87 38.951 87 87 87z" clip-rule="evenodd" fill="#98DC9A" fill-rule="evenodd"/>
 <path d="m109.26 46.93-20.535 7.4727 35.732 45.379c7.419 9.4213 2.8418 20.983-10.576 25.867-12.405 4.515-27.802 0.22317-34.258-9.5488l-31.092-47.066-20.535 7.4727 63.756 106.39c1.4066 0.06758 2.8208 0.10547 4.2441 0.10547 6.2758 0 12.394-0.67112 18.293-1.9336l-21.652-33.584c8.591 0.832 17.508 0.05981 25.893-2.9922 12.84-4.674 20.7-13.223 23.037-22.98l7.7227 9.8066 24.551-8.9356-64.58-75.451z" style="clip-rule:evenodd;fill-rule:evenodd;fill:#fff"/>
</svg>
