<svg width="192" height="192" fill="none" version="1.1" viewBox="0 0 192 192" xmlns="http://www.w3.org/2000/svg">
 <path d="m20 91v71c0 5.523 4.4772 10 10 10h74c0.548 0 1.086-0.044 1.611-0.129 42.589-2.39 76.389-37.683 76.389-80.871 0-44.735-36.265-81-81-81-44.22 0-80.164 35.435-80.986 79.46-0.0096 0.1789-0.0144 0.3591-0.0144 0.5404v1z" clip-rule="evenodd" fill="#BD9AFF" fill-rule="evenodd"/>
 <path d="m89.399 73.361c0.5136-0.4545 1.0165-1.1639 1.4562-1.9014 1.025-1.7195 0.57737-3.9065-0.8705-5.2889l-8.9933-8.5865c-2.2734-2.1706-3.8585-2.9438-5.9686-2.016-0.88558 0.38936-0.82496 0.0646-2.5762 1.8124-10.806 10.784-5.7975 33.082 11.072 49.951 16.846 16.845 38.192 21.602 49.341 11.173 0.78698-0.73614 1.9868-1.9206 2.2505-2.8808 0.306-1.114 1.1126-3.2159-1.7689-6.0974l-8.6814-8.6814c-1.406-1.4053-3.541-1.8914-5.251-0.8778-0.748 0.4438-1.467 0.9548-1.919 1.4838-2.99 2.769-4.082 6.796-3.414 10.194-0.021 0.312-10.618-1.238-22.295-12.575-11.361-11.7-12.911-22.297-12.575-22.295 3.3741 0.6449 7.4012-0.4475 10.194-3.4137z" style="clip-rule:evenodd;fill-rule:evenodd;fill:#fff"/>
</svg>
