<svg width="192" height="192" version="1.1" viewBox="0 0 192 192" xmlns="http://www.w3.org/2000/svg">
 <path d="m132.74 13.872c-2.5981 0.04282-5.1475 1.074-7.0691 2.9954l-110.79 101.01c-2.9799 2.7172-2.9767 7.4086 0.0071 10.121l9.05 8.2271c2.4395 2.218 6.1132 2.3805 8.7397 0.38839l133.41-101.21c4.4757-3.3954 10.905-0.20363 10.905 5.4144v-0.39371c0-3.9435-2.2603-7.5379-5.8134-9.2487l-33.841-16.295c-1.4688-0.70728-3.0451-1.0366-4.6039-1.0109z" style="fill:#73ada4;paint-order:stroke fill markers;stroke-width:.90802"/>
 <path d="m132.74 13.872c-2.5981 0.04282-5.1475 1.074-7.0691 2.9954l-110.79 101.01c-2.9799 2.7172-2.9767 7.4086 0.0071 10.121l9.05 8.2271c2.4395 2.218 6.1132 2.3805 8.7397 0.38839l133.41-101.21c4.4757-3.3954 10.905-0.20363 10.905 5.4144v-0.39371c0-3.9435-2.2603-7.5379-5.8134-9.2487l-33.841-16.295c-1.4688-0.70728-3.0451-1.0366-4.6039-1.0109z" style="opacity:.25;paint-order:stroke fill markers;stroke-width:.90802"/>
 <path d="m28.825 53.136c-1.7472-0.07066-3.5102 0.52781-4.8824 1.7752l-9.05 8.2271c-2.9839 2.7126-2.987 7.4025-0.0071 10.119l110.79 101.01c3.0745 3.0739 7.7561 3.8684 11.673 1.9827l33.841-16.295c3.5531-1.7111 5.8134-5.3054 5.8134-9.2486v-0.39371c0 5.6184-6.4293 8.8115-10.905 5.4162l-133.41-101.21c-1.1491-0.87176-2.4984-1.3319-3.8573-1.3869z" style="fill:#73ADA4;paint-order:stroke fill markers;stroke-width:.90802"/>
 <path d="m132.74 13.87c-2.5984 0.04357-5.1493 1.0756-7.0708 2.9972 3.788-3.7882 10.267-1.1063 10.267 4.251v148.9c0 5.3573-6.4787 8.0407-10.267 4.2528 3.0745 3.0745 7.7566 3.8706 11.675 1.9863l33.836-16.272c3.5557-1.7098 5.817-5.307 5.817-9.2522v-110.33c0-3.9453-2.2613-7.5406-5.817-9.2504l-33.836-16.272c-1.4693-0.70666-3.0449-1.037-4.6039-1.0109z" style="fill:#96DFD3;paint-order:stroke fill markers;stroke-width:.90802"/>
</svg>
