<svg width="192" height="192" fill="none" version="1.1" viewBox="0 0 192 192" xmlns="http://www.w3.org/2000/svg">
 <path d="m114.99 61.365c-12.654-37.599-14.393-41.107-18.941-41.261-4.5478-0.15372-5.2939 2.6408-18.707 41.378l-30.993 87.193c-0.7087 1.993-2.5954 3.325-4.7113 3.325h-11.634c-5.5228 0-10 4.477-10 10s4.4772 10 10 10h132c5.523 0 10-4.477 10-10s-4.477-10-10-10h-10.657c-2.105 0-3.984-1.318-4.701-3.296z" style="clip-rule:evenodd;fill-rule:evenodd;fill:#f8c18c"/>
 <mask x="20" y="48" width="152" height="125" mask-type="alpha" maskUnits="userSpaceOnUse">
  <path d="m114.99 61.365c-6.392-17.638-31.364-17.56-37.648 0.1167l-30.993 87.193c-0.7087 1.993-2.5954 3.325-4.7113 3.325h-11.634c-5.5228 0-10 4.477-10 10s4.4772 10 10 10h132c5.523 0 10-4.477 10-10s-4.477-10-10-10h-10.657c-2.105 0-3.984-1.318-4.701-3.296l-31.656-87.339z" clip-rule="evenodd" fill="#fff" fill-rule="evenodd"/>
 </mask>
 <path d="m77.154 62-10.664 30h59.6l-10.873-30h-38.063zm-21.326 60-9.4824 26.676c-0.7087 1.993-2.595 3.3242-4.7109 3.3242h109.71c-2.105 0-3.9842-1.3189-4.7012-3.2969l-9.6797-26.703h-81.135z" style="clip-rule:evenodd;fill-rule:evenodd;fill:#fff"/>
 <path d="m110.63 8.0762c-13.439 0.064426-24.216 9.6691-31.646 18.871-7.4307 9.202-11.693 18.369-11.693 18.369-0.62448 1.3414 0.04621 2.9288 1.4434 3.416l60.609 21.154c1.4147 0.49383 2.943-0.35902 3.2656-1.8223 0 0 0.77042-3.4765 2.0859-7.418 1.3155-3.9415 3.4751-8.3558 4.8379-9.5371 3.0161-2.6145 7.527-2.1639 11.744-0.71094 4.2172 1.453 7.582 3.7344 7.582 3.7344 1.6978 1.1594 3.9915-0.11179 3.9082-2.166 0 0-0.4262-11.048-7.207-22.043s-20.236-21.966-44.93-21.848z" style="color-rendering:auto;color:#000000;dominant-baseline:auto;fill:#ff837d;font-feature-settings:normal;font-variant-alternates:normal;font-variant-caps:normal;font-variant-ligatures:normal;font-variant-numeric:normal;font-variant-position:normal;image-rendering:auto;isolation:auto;mix-blend-mode:normal;shape-padding:0;shape-rendering:auto;solid-color:#000000;text-decoration-color:#000000;text-decoration-line:none;text-decoration-style:solid;text-indent:0;text-orientation:mixed;text-transform:none;white-space:normal"/>
 <rect transform="rotate(22.247)" x="73.378" y="4.0256" width="80.542" height="21.153" ry="10.576" style="fill:#ececec;paint-order:stroke fill markers"/>
 <circle cx="160" cy="52" r="10" style="fill:#fff;paint-order:stroke fill markers"/>
</svg>
