<svg width="192" height="192" fill="none" version="1.1" viewBox="0 0 192 192" xmlns="http://www.w3.org/2000/svg">
 <path d="m114.99 61.365c-12.654-37.599-14.393-41.107-18.941-41.261-4.5478-0.15372-5.2939 2.6408-18.707 41.378l-30.993 87.193c-0.7087 1.993-2.5954 3.325-4.7113 3.325h-11.634c-5.5228 0-10 4.477-10 10s4.4772 10 10 10h132c5.523 0 10-4.477 10-10s-4.477-10-10-10h-10.657c-2.105 0-3.984-1.318-4.701-3.296z" style="clip-rule:evenodd;fill-rule:evenodd;fill:#f8c18c"/>
 <mask x="20" y="48" width="152" height="125" mask-type="alpha" maskUnits="userSpaceOnUse">
  <path d="m114.99 61.365c-6.392-17.638-31.364-17.56-37.648 0.1167l-30.993 87.193c-0.7087 1.993-2.5954 3.325-4.7113 3.325h-11.634c-5.5228 0-10 4.477-10 10s4.4772 10 10 10h132c5.523 0 10-4.477 10-10s-4.477-10-10-10h-10.657c-2.105 0-3.984-1.318-4.701-3.296l-31.656-87.339z" clip-rule="evenodd" fill="#fff" fill-rule="evenodd"/>
 </mask>
 <path d="m77.154 62-10.664 30h59.6l-10.873-30h-38.063zm-21.326 60-9.4824 26.676c-0.7087 1.993-2.595 3.3242-4.7109 3.3242h109.71c-2.105 0-3.9842-1.3189-4.7012-3.2969l-9.6797-26.703h-81.135z" style="clip-rule:evenodd;fill-rule:evenodd;fill:#fff"/>
</svg>
