<svg width="192" height="192" version="1.1" viewBox="0 0 192 192" xmlns="http://www.w3.org/2000/svg">
 <g transform="translate(0 -860.36)">
  <g transform="translate(0 -2.2617e-5)">
   <rect x="19.5" y="879.86" width="153" height="153" rx="10" ry="10" style="fill-rule:evenodd;fill:#98db9a"/>
   <path d="m68.213 951.45c2.4853-2.7928 8.6632-8.4352 18.524-9.1888v-3.5333c-11.623 0.93347-22.006 8.9624-25.754 12.195-0.8361 0.72114-1.177 2.1827-0.72347 3.1896 2.3052 5.1182 10.086 19.195 26.477 20.742v-3.7553c-11.637-1.4642-17.23-11.901-19.067-16.224-0.43182-1.0162-0.19153-2.6 0.54239-3.4247zm18.524 12.18v3.4391c-8.3179-1.4829-12.147-8.3169-13.553-11.68-0.42539-1.0181-0.05735-2.5339 0.78852-3.2432 2.1578-1.8096 6.6134-4.8557 12.764-5.5208v3.7738c-0.0067 0-0.01144-2e-3 -0.01701-2e-3 -2.8849-0.3462-5.3791 1.1899-6.8609 2.4108-0.85143 0.70147-1.1838 2.2453-0.72963 3.2513 1.0468 2.3189 3.3551 6.1428 7.6075 7.5716m0-29.419v4.5164c0.4285-0.0331 0.857-0.0607 1.2878-0.0754 13.218-0.44549 22.768 8.4533 26.107 12.094 0.74607 0.8133 0.72494 2.2031-0.0255 3.0134-3.5329 3.815-13.613 13.604-24.031 13.604-1.1858 0-2.2959-0.10998-3.3385-0.29446v4.0296c0.89161 0.11321 1.8161 0.17978 2.7807 0.17978 11.317 0 19.69-5.4328 27.656-12.129 0.84549-0.71068 2.2519-0.77567 3.2087-0.22547 1.4948 0.85955 3.5247 1.9271 4.9809 2.8108 0.94228 0.57184 0.94422 1.7317 0.0424 2.3689-8.6852 6.1368-25.76 10.905-35.703 10.905-1.0209 0-2.0014-0.0619-2.9652-0.15485v3.662a2 2 45 0 0 2 2h41.763a2 2 135 0 0 2-2v-44.305a2 2 45 0 0-2-2l-41.763 3e-5a2 2 135 0 0-2 2zm0 12.414v-4.3639c0.4241-0.0296 0.85143-0.0525 1.2878-0.0663 9.0817-0.28526 15.786 5.8029 18.472 8.7291 0.74635 0.81311 0.75902 2.2475 0.0512 3.0952-2.6709 3.1992-9.296 10.175-16.284 10.175-1.3049 0-2.4748-0.2097-3.5277-0.5637v-13.232c4.0299 0.48695 5.2677 2.0957 7.3481 5.5527 0.56951 0.94636 1.7102 1.1396 2.5547 0.42754l3.154-2.6596c0.84442-0.71205 0.96722-1.9922 0.16145-2.7463-1.8813-1.7607-5.6327-4.49-10.811-4.49-0.83148 0-1.6266 0.0584-2.407 0.14195" style="fill:#fff;stroke-miterlimit:10;stroke-width:0"/>
  </g>
 </g>
 <style type="text/css">.st0{fill:#FFFFFF;}</style>
</svg>
