<svg width="192" height="192" version="1.1" viewBox="0 0 192 192" xmlns="http://www.w3.org/2000/svg">
 <g transform="translate(0 -860.36)">
  <path d="m15 956.36v71c0 5.523 4.4772 10 10 10h74c0.548 0 1.086-0.044 1.611-0.129 42.589-2.39 76.389-37.683 76.389-80.871 0-44.735-36.265-81-81-81-44.22 0-80.164 35.435-80.986 79.46-0.01 0.1789-0.0144 0.3591-0.0144 0.5404z" clip-rule="evenodd" fill="#9abeff" fill-rule="evenodd" style="fill:#fff"/>
  <path transform="translate(0 860.36)" d="m106.28 79.16v33.291h6.2207v-33.291h-6.2207zm-51.564 4.1309v5.6855h11.178l-12.393 23.475h22.355v-5.6856h-12.295l12.295-23.475h-21.141zm33.703 9.332c-5.3945 0-9.6211 4.4699-9.6211 10.107 0 5.6375 4.2266 10.109 9.6211 10.109 2.8188 0 5.103-1.2635 6.6582-3.3047 1.215 1.9926 3.3542 3.3047 5.9785 3.3047 0.63179 0 1.215-0.19427 1.6523-0.38867v-5.0547h-0.875c-0.82619 0-1.7012-0.29076-1.7012-1.8945v-12.49h-6.1719v1.7012c-1.458-1.3122-3.3054-2.0898-5.541-2.0898zm39.26 0c-6.5123 0-10.838 4.2755-10.838 10.107 0 5.8319 4.3256 10.109 10.838 10.109s10.789-4.2775 10.789-10.109c0-5.8319-4.2768-10.107-10.789-10.107zm-38.045 5.4902c2.5272 0 4.6172 2.0414 4.6172 4.6172s-2.09 4.6172-4.6172 4.6172c-2.5758 0-4.6152-2.0414-4.6152-4.6172s2.0395-4.6172 4.6152-4.6172zm38.045 0c2.6244 0.0486 4.6172 1.9928 4.6172 4.6172s-1.9928 4.5686-4.6172 4.6172c-2.673-0.0486-4.6172-1.9928-4.6172-4.6172s1.9442-4.5686 4.6172-4.6172z" style="fill:#99bdfe;stroke-width:.97198"/>
 </g>
 <style type="text/css">.st0{fill:#FFFFFF;}</style>
 <style type="text/css">.st0{fill:#FFFFFF;}</style>
 <style type="text/css">.st0{fill:#FFFFFF;}</style>
 <style type="text/css">.st0{fill:#FFFFFF;}</style>
 <style type="text/css">.st0{fill:#FFFFFF;}</style>
</svg>
