<svg width="192" height="192" fill="none" version="1.1" viewBox="0 0 192 192" xmlns="http://www.w3.org/2000/svg">
 <rect x="20" y="20" width="152" height="152" rx="10" fill="#98DC9A"/>
 <path d="m106.67 83c0 12.15-11.79 22-26.334 22-5.1203 0-9.8994-1.221-13.943-3.333h-8.3905v-7.0051c-2.5347-3.3809-4-7.3784-4-11.662 0-12.15 11.79-22 26.333-22s26.334 9.8497 26.334 22zm-31.334-5c0 3.1296-2.537 5.6667-5.6666 5.6667s-5.6667-2.5371-5.6667-5.6667 2.5371-5.6667 5.6667-5.6667 5.6666 2.5371 5.6666 5.6667zm15 5.6667c3.1296 0 5.6667-2.5371 5.6667-5.6667s-2.5371-5.6667-5.6667-5.6667-5.6666 2.5371-5.6666 5.6667 2.537 5.6667 5.6666 5.6667z" clip-rule="evenodd" fill="#fff" fill-rule="evenodd"/>
 <mask x="82" y="82" width="63" height="54" fill="black" maskUnits="userSpaceOnUse">
  <rect x="82" y="82" width="63" height="54" fill="#fff"/>
  <path d="m87.333 109c0 12.15 11.79 22 26.334 22 5.12 0 9.899-1.221 13.942-3.333h8.391v-7.005c2.535-3.381 4-7.379 4-11.662 0-12.15-11.79-22-26.333-22-14.544 0-26.334 9.8497-26.334 22zm31.334-5c0 3.13 2.537 5.667 5.666 5.667 3.13 0 5.667-2.537 5.667-5.667s-2.537-5.6667-5.667-5.6667c-3.129 0-5.666 2.5367-5.666 5.6667zm-15 5.667c-3.13 0-5.667-2.537-5.667-5.667s2.537-5.6667 5.667-5.6667c3.129 0 5.666 2.5367 5.666 5.6667s-2.537 5.667-5.666 5.667z" clip-rule="evenodd" fill-rule="evenodd"/>
 </mask>
 <path d="m113.67 82c-16.801 0-31.334 11.615-31.334 27 0 15.385 14.533 27 31.334 27 5.4084 0 10.493-1.2236 14.98-3.332h12.352v-10.572c2.4766-3.8468 4-8.3197 4-13.096 0-15.385-14.531-27-31.332-27z" style="clip-rule:evenodd;color-rendering:auto;color:#000000;dominant-baseline:auto;fill-rule:evenodd;fill:#98dc9a;font-feature-settings:normal;font-variant-alternates:normal;font-variant-caps:normal;font-variant-ligatures:normal;font-variant-numeric:normal;font-variant-position:normal;image-rendering:auto;isolation:auto;mix-blend-mode:normal;shape-padding:0;shape-rendering:auto;solid-color:#000000;text-decoration-color:#000000;text-decoration-line:none;text-decoration-style:solid;text-indent:0;text-orientation:mixed;text-transform:none;white-space:normal"/>
 <path d="m87.333 109c0 12.15 11.79 22 26.334 22 5.12 0 9.899-1.221 13.942-3.333h8.391v-7.005c2.535-3.381 4-7.379 4-11.662 0-12.15-11.79-22-26.333-22-14.544 0-26.334 9.8497-26.334 22zm31.334-5c0 3.13 2.537 5.667 5.666 5.667 3.13 0 5.667-2.537 5.667-5.667s-2.537-5.6667-5.667-5.6667c-3.129 0-5.666 2.5367-5.666 5.6667zm-15 5.667c-3.13 0-5.667-2.537-5.667-5.667s2.537-5.6667 5.667-5.6667c3.129 0 5.666 2.5367 5.666 5.6667s-2.537 5.667-5.666 5.667z" clip-rule="evenodd" fill="#fff" fill-rule="evenodd"/>
</svg>
