<svg width="192" height="192" fill="none" version="1.1" viewBox="0 0 192 192" xmlns="http://www.w3.org/2000/svg">
 <path d="m20 91v71c0 5.523 4.4772 10 10 10h74c0.548 0 1.086-0.044 1.611-0.129 42.589-2.39 76.389-37.683 76.389-80.871 0-44.735-36.265-81-81-81-44.22 0-80.164 35.435-80.986 79.46-0.0096 0.1789-0.0144 0.3591-0.0144 0.5404v1z" clip-rule="evenodd" fill="#98DC9A" fill-rule="evenodd"/>
 <path d="m89.399 73.361c0.5136-0.4545 0.73644-1.0714 0.9562-1.9014 0.41487-1.5669 0.3287-4.1635-1.0177-5.6448-3.2397-3.5644-6.8353-8.1966-10.431-9.778-2.4694-1.0861-4.6557-0.4572-6.46 1.3437-10.806 10.785-5.7975 33.082 11.072 49.951 16.846 16.845 38.586 21.799 49.951 11.071 1.6072-1.5172 2.8294-5.4898 0.27819-8.419l-8.0204-8.1221c-2.9428-1.9519-5.9793-2.489-8.2378-0.41095-2.9989 2.7593-4.082 6.796-3.414 10.194-0.021 0.312-10.618-1.238-22.295-12.575-11.361-11.7-12.911-22.297-12.575-22.295 3.3741 0.6449 7.4012-0.4475 10.194-3.4137z" style="clip-rule:evenodd;fill-rule:evenodd;fill:#fff"/>
</svg>
