<svg width="192" height="192" fill="none" version="1.1" viewBox="0 0 192 192" xmlns="http://www.w3.org/2000/svg">
 <path d="m96 183c48.049 0 87-38.951 87-87 0-48.049-38.951-87-87-87-48.049 0-87 38.951-87 87 0 48.049 38.951 87 87 87z" clip-rule="evenodd" fill="#fff" fill-rule="evenodd"/>
 <path d="m96.471 71.842c-3.2174 0-5.5229 1.9581-6.4004 3.75-0.87752 1.7919-0.80273 3.4473-0.80273 3.4473v25.535c0 4.4703 1.4285 8.6096 3.832 12.021-2.8082 2.4831-6.4836 3.9961-10.529 3.9961-8.8345 0-15.961-7.1669-15.961-16.082v-30.992h-5v30.992c0 11.601 9.4046 21.082 20.961 21.082 5.3097 0 10.15-2.0168 13.848-5.3047 3.7527 3.322 8.6651 5.3594 14.01 5.3594 11.557 0 20.963-9.47 20.963-21.072v-30.951h-5v30.951c0 8.9177-7.122 16.072-15.963 16.072-4.0832 0-7.8315-1.5495-10.695-4.0781 2.3865-3.4233 3.7988-7.5778 3.7988-12.059v-25.391c0.0139-0.31139 0.0386-1.7848-0.69922-3.418-0.82616-1.8287-3.1302-3.8594-6.3613-3.8594zm0 5c1.5746 0 1.5519 0.35842 1.8047 0.91797 0.25279 0.55955 0.25976 1.2305 0.25976 1.2305s-0.0039 17.013-0.0039 25.52c0 2.9257-0.77767 5.6551-2.1191 8.0117-1.3551-2.3453-2.1445-5.0533-2.1445-7.9473v-25.535s0.02235-0.69145 0.29492-1.248c0.27258-0.5566 0.31964-0.94922 1.9082-0.94922z" style="color-rendering:auto;color:#000000;dominant-baseline:auto;fill:#b1b5bd;font-feature-settings:normal;font-variant-alternates:normal;font-variant-caps:normal;font-variant-ligatures:normal;font-variant-numeric:normal;font-variant-position:normal;image-rendering:auto;isolation:auto;mix-blend-mode:normal;shape-padding:0;shape-rendering:auto;solid-color:#000000;text-decoration-color:#000000;text-decoration-line:none;text-decoration-style:solid;text-indent:0;text-orientation:mixed;text-transform:none;white-space:normal"/>
</svg>
