<svg width="192" height="192" version="1.1" viewBox="0 0 192 192" xmlns="http://www.w3.org/2000/svg">
 <path d="m96 184.5c48.877 0 88.5-39.623 88.5-88.5 0-48.877-39.623-88.5-88.5-88.5-48.877 0-88.5 39.623-88.5 88.5 0 48.877 39.623 88.5 88.5 88.5z" style="clip-rule:evenodd;fill-rule:evenodd;fill:#fff;stroke-width:1.0172"/>
 <path d="m96 175.34c43.821 0 79.345-35.524 79.345-79.345 0-43.821-35.524-79.345-79.345-79.345-43.821 0-79.345 35.524-79.345 79.345 0 43.821 35.524 79.345 79.345 79.345z" style="clip-rule:evenodd;fill-rule:evenodd;fill:#9abeff;stroke-width:1.0172"/>
 <path d="m166.39 89.595-25.949 83.576h-17.959l-23.356-73.022c-0.30334-0.95855-0.61116-1.9689-0.92376-3.0304-0.31707-1.0697-0.6253-2.2275-0.92457-3.4732-0.29317 1.2234-0.60099 2.3815-0.92325 3.4739-0.33956 1.1468-0.64758 2.1572-0.92396 3.0307l-23.577 73.021h-17.959l-28.725-92.508c-1.8454-0.32816-3.261-0.58105-4.2466-0.75866-0.98561-0.18188-1.5238-0.27944-1.6144-0.29256-2.4667-0.52785-3.6996-2.0688-3.6989-4.6228v-8.689h39.918v8.689c8.14e-4 2.553-1.2322 4.0939-3.6989 4.6228-0.15147 0.03479-0.39652 0.09379-0.73506 0.1769-0.33864 0.08596-0.88683 0.22339-1.6447 0.41229-0.75784 0.1887-1.6042 0.39438-2.539 0.61706l15.335 53.922c0.44331 1.5777 0.85011 3.2898 1.2201 5.136 0.36631 1.832 0.72316 3.7913 1.0707 5.8756 0.39377-2.0701 0.82498-4.0283 1.2935-5.8756 0.46824-1.8514 0.97309-3.5634 1.5147-5.136l20.99-63.931c0.39398-1.1337 1.1702-2.1686 2.3288-3.1045 1.1577-0.93607 2.5739-1.404 4.2486-1.404h5.8387c1.7242 0 3.1534 0.40639 4.2867 1.2193 1.1332 0.81328 1.9216 1.9097 2.3651 3.2891l20.842 63.932c1.0834 3.1545 2.0202 6.6528 2.8106 10.494 0.33467-1.8788 0.69071-3.7272 1.0691-5.544 0.36926-1.769 0.75174-3.42 1.1454-4.9499l14.535-50.76c0.58186-3.968 2.5431-19.339-1.2319-24.057-2.5716-3.2144-4.0252-3.3868-6.0139-3.6227-1.3733-0.16296-3.0029-0.35614-5.4311-1.6028-5.9458-3.0517-9.7828-13.043-4.3477-19.565 5.4341-6.5215 15.793-6.5215 28.26 2.1738 9.501 6.6271 14.621 13.886 13.151 28.993h1.4323l-3.1168 10.038c-0.47098 2.0853-1.0315 4.2884-1.6846 6.6194-0.75784 2.7071-1.5747 4.8943-2.4312 6.6382z" style="clip-rule:evenodd;fill-rule:evenodd;fill:#fff;stroke-width:1.0172"/>
</svg>
