<svg width="192" height="192" version="1.1" viewBox="0 0 192 192" xmlns="http://www.w3.org/2000/svg">
 <rect transform="rotate(90)" x="32" y="-184" width="128" height="176" rx="10.079" opacity=".63" stroke-width="1.0067" style="fill:#54688c;opacity:1"/>
 <path d="m65.117 88.95h-5.5288l-5.4309 6.5073-5.4798-6.5073h-5.5288l8.2198 9.7854-8.2198 9.7854h5.5777l5.4309-6.4584 5.382 6.4584h5.5777l-8.2198-9.7854z" style="fill:#98dc9a"/>
 <path d="m79.41 88.559c-2.4953 0-4.6481 0.92962-6.3116 2.4464v-17.32h-4.6481v34.836h4.6481v-2.0549c1.6635 1.5167 3.8163 2.4464 6.3116 2.4464 5.5288 0 9.9322-4.5013 9.9322-10.177 0-5.6756-4.4034-10.177-9.9322-10.177zm-0.58713 16.048c-3.2781 0-5.8713-2.5931-5.8713-5.8713 0-3.2781 2.5931-5.8713 5.8713-5.8713s5.8713 2.5931 5.8713 5.8713c0 3.2781-2.5931 5.8713-5.8713 5.8713z" style="fill:#98dc9a"/>
 <path d="m115.33 88.559c-2.5442 0-4.6481 1.1743-5.9202 3.0824-1.2721-1.8592-3.2781-3.0824-5.4798-3.0824-1.9571 0-3.6206 0.92962-4.8438 2.3974v-2.006h-4.6481v19.571h4.6481v-11.938c0-1.9082 1.37-3.7185 3.4738-3.7185 2.006 0 3.5228 1.6635 3.5228 3.7185v11.938h4.6481v-11.938c0-1.9082 1.37-3.7185 3.4738-3.7185 2.006 0 3.5228 1.6635 3.5228 3.7185v11.938h4.6481v-12.428c0-4.3056-2.8867-7.5348-7.0455-7.5348z" style="fill:#ccc"/>
 <path d="m137.61 108.91c5.1863 0 9.1004-3.1803 10.177-7.6816h-4.8438c-0.92962 2.006-2.9356 3.376-5.3331 3.376-3.2781 0-5.8713-2.5442-5.8713-5.8713 0-3.327 2.5931-5.8713 5.8713-5.8713 2.3974 0 4.4034 1.37 5.3331 3.376h4.8438c-1.0764-4.5013-4.9906-7.6816-10.177-7.6816-6.067 0-10.519 4.4524-10.519 10.177 0 5.7245 4.4524 10.177 10.519 10.177z" style="fill:#ccc"/>
 <path d="m44 112h104l-4 4c-80-4-100-4-100-4z" style="fill:#f9de81"/>
</svg>
