<svg width="192" height="192" version="1.1" viewBox="0 0 192 192" xmlns="http://www.w3.org/2000/svg">
 <rect x="20" y="20" width="152" height="152" rx="9.9346" opacity=".63" style="fill:#f1e9e0;opacity:1"/>
 <path d="m29.936 20c-5.5038 0-9.9355 4.4318-9.9355 9.9355v14.064l48 32 20-8v-48h-58.064z" style="fill:#ff837d"/>
 <path d="m88 20v48l32 16 52-45.883v-8.1816c0-5.5038-4.4318-9.9355-9.9356-9.9355h-74.064z" style="fill:#728dbe"/>
 <path d="m88 68 32 16 4 36-28 28-52-24 24-48z" style="fill:#fff"/>
 <path d="m84 20v45.291l-15.619 6.248-48.381-29.773v9.3926l42.785 26.328-21.67 43.338-21.115 8.1211v8.5703l23.855-9.1758 48.145 22.221v21.439h8v-22.344l24.848-24.848 47.152 22.006v-8.8281l-44.273-20.662-3.5293-31.762 47.803-44.389v-10.92l-52.691 48.928-27.309-13.654v-45.527h-8zm3.8184 52.381 28.447 14.225 3.5469 31.926-24.668 24.668-45.721-21.102 21.475-42.949 16.92-6.7676z" style="color-rendering:auto;color:#000000;dominant-baseline:auto;fill:#56595b;font-feature-settings:normal;font-variant-alternates:normal;font-variant-caps:normal;font-variant-ligatures:normal;font-variant-numeric:normal;font-variant-position:normal;image-rendering:auto;isolation:auto;mix-blend-mode:normal;shape-padding:0;shape-rendering:auto;solid-color:#000000;text-decoration-color:#000000;text-decoration-line:none;text-decoration-style:solid;text-indent:0;text-orientation:mixed;text-transform:none;white-space:normal"/>
</svg>
