<svg width="192" height="192" version="1.1" viewBox="0 0 192 192" xmlns="http://www.w3.org/2000/svg">
 <path d="m96 63.935c-35.29 0-63.941 28.65-63.941 63.941 0.0077 23.266 12.657 44.698 33.023 55.948 0.28729 0.15894 0.61022 0.24242 0.93853 0.24202h59.854c0.32574-1e-3 0.64592-0.0847 0.93095-0.24202 20.407-11.221 33.106-32.66 33.136-55.948 0-35.29-28.65-63.941-63.941-63.941z" style="color-rendering:auto;color:#000000;dominant-baseline:auto;fill:#ececec;font-feature-settings:normal;font-variant-alternates:normal;font-variant-caps:normal;font-variant-ligatures:normal;font-variant-numeric:normal;font-variant-position:normal;image-rendering:auto;isolation:auto;mix-blend-mode:normal;paint-order:stroke fill markers;shape-padding:0;shape-rendering:auto;solid-color:#000000;stroke-width:1.0034;text-decoration-color:#000000;text-decoration-line:none;text-decoration-style:solid;text-indent:0;text-orientation:mixed;text-transform:none;white-space:normal"/>
 <rect x="60" y="8" width="72" height="24" ry="8" style="fill:#ececec;paint-order:stroke fill markers;stroke-width:4"/>
 <rect x="72" y="12" width="48" height="68" style="fill:#ececec;paint-order:stroke fill markers;stroke-width:4"/>
 <path d="m54.833 104.01c-0.6055 2e-3 -1.1644 0.32535-1.4671 0.84976-4.3417 7.4879-6.6381 15.988-6.652 24.643 0.02195 17.319 9.1388 33.365 24.006 42.25 0.26309 0.15656 0.56356 0.23898 0.86968 0.23898h48.815c0.30613 1e-4 0.6066-0.0824 0.86968-0.23898 14.869-8.8825 23.989-24.928 24.013-42.25v-7e-3c-0.0223-8.6581-2.3272-17.158-6.6787-24.643-0.30451-0.52175-0.86305-0.84267-1.4671-0.84296z" style="color-rendering:auto;color:#000000;dominant-baseline:auto;fill:#98dc9a;font-feature-settings:normal;font-variant-alternates:normal;font-variant-caps:normal;font-variant-ligatures:normal;font-variant-numeric:normal;font-variant-position:normal;image-rendering:auto;isolation:auto;mix-blend-mode:normal;paint-order:stroke fill markers;shape-padding:0;shape-rendering:auto;solid-color:#000000;stroke-width:.89975;text-decoration-color:#000000;text-decoration-line:none;text-decoration-style:solid;text-indent:0;text-orientation:mixed;text-transform:none;white-space:normal"/>
</svg>
