<svg width="192" height="192" version="1.1" viewBox="0 0 192 192" xmlns="http://www.w3.org/2000/svg">
 <rect x="32" y="8" width="128" height="176" rx="10.079" opacity=".63" stroke-width="1.0068" style="fill:#979797;opacity:1"/>
 <circle cx="96" cy="68" r="44" style="fill:#56595b;paint-order:stroke fill markers"/>
 <path d="m96 32a36 36 0 0 0-36 36 36 36 0 0 0 36 36 36 36 0 0 0 36-36 36 36 0 0 0-36-36zm0 4a32 32 0 0 1 32 32 32 32 0 0 1-32 32 32 32 0 0 1-32-32 32 32 0 0 1 32-32z" style="fill:#979797;paint-order:stroke fill markers"/>
 <circle cx="96" cy="68" r="16" style="fill:#4a4a4a;paint-order:stroke fill markers"/>
 <circle cx="132" cy="152" r="16" style="fill:#83868c;paint-order:stroke fill markers"/>
 <circle cx="132" cy="152" r="8" style="fill:#979797;paint-order:stroke fill markers"/>
 <circle cx="60" cy="152" r="16" style="fill:#83868c;paint-order:stroke fill markers"/>
 <circle cx="60" cy="152" r="8" style="fill:#979797;paint-order:stroke fill markers"/>
 <circle cx="132" cy="152" r="12" style="fill:#979797;paint-order:stroke fill markers"/>
 <circle cx="60" cy="152" r="12" style="fill:#979797;paint-order:stroke fill markers"/>
</svg>
