<svg width="192" height="192" version="1.1" viewBox="0 0 192 192" xmlns="http://www.w3.org/2000/svg">
 <circle cx="96" cy="96" r="88" opacity=".63" style="fill:#54688c;opacity:1"/>
 <path d="m57.293 17.033a88 88 0 0 0-16.266 10.271c5.0861 19.533 13.184 50.615 18.973 72.695 7.9067 30.159 26 28 26 28v55.377a88 88 0 0 0 10 0.62305 88 88 0 0 0 10-0.67969v-55.32s18.093 2.1588 26-28c5.7809-22.05 13.863-53.071 18.955-72.627a88 88 0 0 0-16.338-10.326c-4.4331 16.925-13.959 53.723-18.617 74.953-4.5048 20.532-20 20-20 20s-14.971 1.0566-20-20c-5.7428-24.043-15.579-62.696-18.707-74.967z" style="fill:#d8d8d8;paint-order:stroke fill markers"/>
</svg>
