<svg width="192" height="192" version="1.1" viewBox="0 0 192 192" xmlns="http://www.w3.org/2000/svg">
 <rect x="20" y="20" width="152" height="152" rx="10" ry="10" style="fill:#ba6561"/>
 <rect x="23" y="23" width="146" height="146" rx="10" ry="10" style="fill:#fff"/>
 <path d="m20 29.96c0-5.5229 4.4772-9.9546 10-9.9546h132c5.523 0 10 4.4772 10 10v112c0 5.523-4.477 10-10 10h-124.9s-17.102-1-17.102 11v-133.05z" style="clip-rule:evenodd;fill-rule:evenodd;fill:#ff837d"/>
 <style type="text/css">.st0{fill:#FFFFFF;}</style>
 <path d="m30 20c-5.54 0-10 4.46-10 10v132c0 5.54 4.46 10 10 10h14v-3h-11c-5.54 0-10-4.46-10-10v-3.0762c4.9042-4.449 14.1-3.918 14.1-3.918h6.9004v-130.01c0-1.108-0.892-2-2-2h-12z" style="fill:#56595b;paint-order:stroke fill markers"/>
 <path d="m80.98 69.073 6.8948-6.6667 48.228-0.43146-3.2789 2.0586s-11.151 7.9805-49.851 37.648c14.342 1.7013 27.864 4.6278 42.856 4.3018 18.897-0.41088 20.359-10.081 20.359-10.081s4.2066 14.532-21.376 13.742c-15.631-0.4826-32.762-1.7844-48.327-3.3054-4.184-0.40885-12.61-0.20339-12.61-0.20339l6.2846-3.844 50.482-36.472s-15.051 0.2831-22.576 0.40678c-7.3764 0.12123-17.085 2.8475-17.085 2.8475z" style="fill:#fff"/>
</svg>
