<svg width="192" height="192" version="1.1" viewBox="0 0 192 192" xmlns="http://www.w3.org/2000/svg">
 <path d="m155.88 88.002c-0.58118 0.01681-1.1517 0.16012-1.6719 0.41992l-24 12c-1.3551 0.67776-2.211 2.063-2.2109 3.5781v25.646l-32 17.777-34.057-18.92c-0.59442-0.33043-1.2633-0.50386-1.9434-0.50391h-24c-2.209 2.2e-4 -3.9998 1.791-4 4v12c5e-5 1.4048 0.73696 2.7066 1.9414 3.4297l60 36c1.2671 0.76044 2.8501 0.76044 4.1172 0l60-36c1.2044-0.72305 1.9414-2.0249 1.9414-3.4297v-52c-3.7e-4 -2.2549-1.8633-4.0639-4.1172-3.998z" style="color-rendering:auto;color:#000000;dominant-baseline:auto;fill:#8c72bd;font-feature-settings:normal;font-variant-alternates:normal;font-variant-caps:normal;font-variant-ligatures:normal;font-variant-numeric:normal;font-variant-position:normal;image-rendering:auto;isolation:auto;mix-blend-mode:normal;shape-padding:0;shape-rendering:auto;solid-color:#000000;text-decoration-color:#000000;text-decoration-line:none;text-decoration-style:solid;text-indent:0;text-orientation:mixed;text-transform:none;white-space:normal"/>
 <path d="m96.162 8.0039c-0.77963-0.031813-1.5515 0.16507-2.2207 0.56641l-60 36c-1.2044 0.72305-1.9414 2.0249-1.9414 3.4297v52c9.8e-5 2.9736 3.1293 4.9077 5.7891 3.5781l24-12c1.3551-0.67776 2.211-2.063 2.2109-3.5781v-25.646l32-17.777 34.057 18.92c0.59442 0.33043 1.2633 0.50386 1.9434 0.50391h24c2.209-2.21e-4 3.9998-1.791 4-4v-12c-5e-5 -1.4048-0.73697-2.7066-1.9414-3.4297l-60-36c-0.57474-0.34468-1.2269-0.53944-1.8965-0.56641z" style="color-rendering:auto;color:#000000;dominant-baseline:auto;fill:#8c72bd;font-feature-settings:normal;font-variant-alternates:normal;font-variant-caps:normal;font-variant-ligatures:normal;font-variant-numeric:normal;font-variant-position:normal;image-rendering:auto;isolation:auto;mix-blend-mode:normal;shape-padding:0;shape-rendering:auto;solid-color:#000000;text-decoration-color:#000000;text-decoration-line:none;text-decoration-style:solid;text-indent:0;text-orientation:mixed;text-transform:none;white-space:normal"/>
 <path d="m155.88 44.002c-0.65142 0.01882-1.2884 0.19649-1.8555 0.51758l-120 68c-1.2532 0.71051-2.0275 2.0399-2.0273 3.4805v28c-2.9e-5 3.0652 3.3058 4.9917 5.9727 3.4805l120-68c1.2532-0.71051 2.0275-2.0399 2.0273-3.4805v-28c-3.7e-4 -2.2549-1.8633-4.0639-4.1172-3.998z" style="color-rendering:auto;color:#000000;dominant-baseline:auto;fill:#bd9aff;font-feature-settings:normal;font-variant-alternates:normal;font-variant-caps:normal;font-variant-ligatures:normal;font-variant-numeric:normal;font-variant-position:normal;image-rendering:auto;isolation:auto;mix-blend-mode:normal;shape-padding:0;shape-rendering:auto;solid-color:#000000;text-decoration-color:#000000;text-decoration-line:none;text-decoration-style:solid;text-indent:0;text-orientation:mixed;text-transform:none;white-space:normal"/>
</svg>
