<svg xmlns="http://www.w3.org/2000/svg" viewBox="0 0 192 192">
 <rect x="20" y="20" width="152" height="152" rx="10" ry="10" fill="#FFF"/>
 <path d="m124.6 73.069c4.2764 4.0774 6.4605 9.1855 7.3535 14.926.95427 6.1441.75015 12.227-1.3625 18.111-2.1433 5.9604-5.9655 10.298-12.487 11.579-2.179.42866-4.4193.22964-6.6238.15309-1.4186-.051-2.4138.41335-3.3578 1.4136-2.0872 2.2045-4.2611 4.3223-6.731 6.1135-2.1586 1.5615-4.4346 2.7506-7.1749 2.9036-3.8579.21943-7.7261.39294-11.553-.13268-4.3631-.60216-7.3076-4.0161-7.6291-8.4252-.1684-2.2607.01021-4.5162.31129-6.7616l.46891-2.5194c.3368-2.1331.63788-4.2662 1.0206-6.389.18371-1.0002-.04082-1.4187-1.1278-1.6585-4.2151-.93387-7.2106-3.266-7.9302-7.7516-.43886-2.7404.34191-5.2358 2.3576-7.1902 5.7614-5.5879 11.569-11.125 17.213-16.83 2.97-3.0006 6.8943-3.7406 10.905-3.9804 4.4244-.26026 8.8436-.1633 13.222.62768zm-16.32.63407c-3.4701-.68381-6.9759-.43886-10.461-.23984-2.0412.11737-4.1743.42866-5.7103 1.9953-5.4093 5.5164-11.028 10.813-16.559 16.197-1.684 1.6432-1.3778 3.0976.84711 3.9141 1.6126.59196 3.3323.55624 5.0265.68381 2.9139.21433 3.6079 1.138 3.0108 4.0059-.70933 3.3731-1.3064 6.7616-1.7299 10.181l-.51141 2.5098c-.18371 2.0872-.78587 4.1488-.39804 6.2717.30618 1.684.9951 2.2964 2.6893 2.3627 1.5922.0612 3.1792.0919 4.7714.18371 4.1539.23985 7.7771-.84711 10.722-3.96 1.7299-1.8269 3.6181-3.5007 5.4348-5.246 1.1329-1.0818 2.4291-1.5973 4.0416-1.5156 2.0514.10206 4.1131-.0153 6.1696.0357 2.5056.0561 4.4499-1.0461 6.0829-2.8118 1.5768-1.6993 2.475-3.7712 3.0465-5.9808 1.1023-4.2866 1.2502-8.6446.56644-12.998-.54093-3.4752-1.5615-6.8024-3.9192-9.553z" fill="#F8C18C"/>
 <path d="m75.346 112.95c-1.3064-.25515-2.1841-.0357-2.9343 1.3625-1.5513 2.8884-5.2358 4.0416-8.2925 2.9088-3.2354-1.1992-5.0367-4.3274-4.5366-7.8638.44397-3.1486 3.2098-5.5777 6.6238-5.8175 3.2047-.22454 6.3993 1.9239 7.0422 5.2102.35211 1.8065 1.1482 1.98 2.5668 1.684 2.2964.005 4.5928.005 6.8892.0102 3.1384.0204 6.2921-.13268 9.4152.10206 3.9243.29598 6.1288-2.0565 8.2313-4.7408.57665-.73485.47969-1.2247-.35721-1.8524-7.476-5.6134-6.1237-16.366 2.4801-19.968.54093-.22454.9951-.42356 1.2707-1.0002 1.4952-3.0976 3.021-6.1849 4.5315-9.2723 1.0665-2.1484 2.128-4.2968 3.1945-6.4452.5001-.94917 1.0614-1.8677 1.4799-2.8526.34701-.81649.76546-1.0359 1.6432-.79608 4.1641 1.1533 7.5832 3.4701 10.543 6.5575.44397.46438.42355.86242.1684 1.3676-.25515.5001-.46948 1.0206-.69912 1.5309-1.0665 2.2249-2.1331 4.4448-3.1996 6.6697-1.4493 2.9445-2.8832 5.8992-4.3733 8.8232-.28577.56134-.10716.95938.0816 1.434 3.4395 8.5987-2.7148 16.906-11.931 16.054-.74505-.0714-1.1125.10716-1.4901.67871-1.3778 2.0872-3.1741 3.7661-5.2613 5.1388-1.189.78588-2.4087 1.1482-3.8936 1.1074-4.1131-.11737-8.2262-.0306-12.344-.0255-2.2811-.0663-4.5673-.19392-6.8483-.005z" fill="#56595B"/>
</svg>
