<svg width="192" height="192" fill="none" version="1.1" viewBox="0 0 192 192" xmlns="http://www.w3.org/2000/svg">
 <rect x="20" y="20" width="152" height="152" rx="10" fill="#FF837D" style="fill:#9abeff"/>
 <g transform="matrix(.84211 0 0 .84211 14.737 15.623)" style="stroke-width:1.1875">
  <path d="m100.75 68.896-44.142 0.104h-2.012s-5.6-0.206-5.6 5.384v32.423s0.257 15.172 16.356 15.172l44.251 0.021h2.068s5.324-0.044 5.324-5.634v-32.423c1e-3 0-0.145-15.047-16.245-15.047z" style="fill:#fff;stroke-width:1.2676"/>
  <path d="m141.9 69.409c-2.013-1.006-4.224 0.727-4.224 0.727-4.099 3.541-8.193 7.087-12.299 10.618-2.338 2.011-4.027 4.181-4.027 7.438l-0.012 14.444c0 3.258 1.679 5.428 4.017 7.438 4.106 3.53 8.178 7.077 12.275 10.617 0 0 2.257 1.733 4.269 0.728 2.013-1.007 2.104-2.684 2.104-3.857v-44.296c0-1.174-0.091-2.851-2.103-3.857z" style="fill:#fff;stroke-width:1.2676"/>
 </g>
</svg>
