<svg version="1.1" viewBox="0 0 192 192" xmlns="http://www.w3.org/2000/svg">
 <rect x="20" y="20" width="152" height="152" rx="10" fill="#9ABEFF"/>
 <path d="m99.58 73.641-37.172.08758h-1.6943s-4.7158-.17348-4.7158 4.5339v27.304s.21642 12.776 13.774 12.776l37.264.0177h1.7415s4.4834-.0371 4.4834-4.7444v-27.304c.00084 0-.12211-12.671-13.68-12.671z" fill="#FFF"/>
 <path d="m134.23 74.073c-1.6952-.84716-3.5571.61221-3.5571.61221-3.4518 2.9819-6.8994 5.968-10.357 8.9415-1.9689 1.6935-3.3912 3.5209-3.3912 6.2636l-.0101 12.163c0 2.7436 1.4139 4.571 3.3828 6.2636 3.4577 2.9726 6.8868 5.9596 10.337 8.9407 0 0 1.9006 1.4594 3.595.61305 1.6952-.848 1.7718-2.2602 1.7718-3.248v-37.302c0-.98864-.0766-2.4009-1.771-3.248z" fill="#FFF"/>
</svg>
