<svg width="192" height="192" version="1.1" viewBox="0 0 192 192" xmlns="http://www.w3.org/2000/svg">
 <path d="m91.97 183.1c3.1099 1.7942 6.943 1.7835 10.043-0.0281l67.033-39.175c3.068-1.7932 4.954-5.0799 4.954-8.6337v-77.524c0-3.553-1.886-6.84-4.954-8.633l-67.033-39.175c-3.0996-1.812-6.9327-1.823-10.043-0.028l-67.968 39.212c-3.0956 1.786-5.0028 5.088-5.0028 8.662v77.448c0 3.5738 1.9072 6.8759 5.0028 8.6618z" style="clip-rule:evenodd;fill-rule:evenodd;fill:#ececec"/>
 <path d="m20.344 140.23c-0.86649-1.4972-1.3438-3.2199-1.3438-5.0098v-77.447c0-3.574 1.9064-6.8761 5.002-8.6621l67.969-39.211c0.6796-0.3922 1.3974-0.68253 2.1309-0.90234h1.8984v88z" style="fill:#d8d8d8"/>
 <path d="m172.4 140.66-76.396-43.656v-88h3.8418c0.7484 0.22492 1.4803 0.52541 2.1719 0.92969l67.033 39.174c3.068 1.793 4.9531 5.0818 4.9531 8.6348v77.523c0 1.9497-0.5844 3.8081-1.6035 5.3945z" style="fill:#ccc"/>
 <text x="64.774818" y="133.70488" style="fill:#ff837d;font-family:Now;font-size:97.777px;letter-spacing:0px;line-height:1.25;stroke-width:2.4444;word-spacing:0px" xml:space="preserve"><tspan x="64.774818" y="133.70488" style="fill:#ff837d;font-family:Now;font-weight:bold;stroke-width:2.4444">Z</tspan></text>
</svg>
