<svg width="192" height="192" version="1.1" viewBox="0 0 192 192" xmlns="http://www.w3.org/2000/svg">
 <circle cx="96" cy="96" r="88" opacity=".63" style="fill:#56595b;opacity:1"/>
 <path d="m124 80a18 18 0 0 0-18 18 18 18 0 0 0 0.15039 2.1426 18 18 0 0 1 15.699 15.715 18 18 0 0 0 2.1504 0.14258 18 18 0 0 0 18-18 18 18 0 0 0-18-18z" style="fill:#ff837d;paint-order:stroke fill markers"/>
 <ellipse cx="70" cy="100" rx="20" ry="12" style="fill:#98dc9a;paint-order:stroke fill markers"/>
 <ellipse cx="102" cy="120" rx="20" ry="12" style="fill:#f9de81;paint-order:stroke fill markers"/>
 <path d="m92 60a18 18 0 0 0-18 18 18 18 0 0 0 0.15039 2.1426 18 18 0 0 1 15.699 15.715 18 18 0 0 0 2.1504 0.14258 18 18 0 0 0 18-18 18 18 0 0 0-18-18z" style="fill:#728dbe;paint-order:stroke fill markers"/>
</svg>
