<svg width="192" height="192" version="1.1" viewBox="0 0 192 192" xmlns="http://www.w3.org/2000/svg">
 <rect transform="rotate(90)" x="32" y="-184" width="128" height="176" rx="10.079" opacity=".63" stroke-width="1.0067" style="fill:#ba6561;opacity:1"/>
 <path d="m117.82 65.743c-16.643 0-30.153 13.51-30.153 30.153 0 16.643 13.51 30.153 30.153 30.153 11.454 0 21.342-6.3623 26.434-15.761l-8.2236-4.4064c-3.4265 6.4613-10.28 10.671-18.209 10.671-11.552 0-20.657-9.0067-20.657-20.657 0-11.65 9.105-20.657 20.657-20.657 7.9298 0 14.783 4.2096 18.209 10.671l8.2236-4.4047c-5.0908-9.3982-14.979-15.762-26.434-15.762zm-69.269 20.364v8.2236h17.622l-19.385 30.936h33.971v-8.2236h-19.091l19.482-30.936h-32.6z" style="fill:#f8c18c;stroke-width:.8331"/>
</svg>
