<svg width="192" height="192" version="1.1" viewBox="0 0 192 192" xmlns="http://www.w3.org/2000/svg">
 <path d="m27.848 20.002c-7.6855 0.15002-10.758 9.9961-4.5215 14.49l100 72c3.4574 2.4883 8.2581 1.8314 10.92-1.4941l48-60c4.0049-5.006 0.79014-12.454-5.5996-12.973l-148-12c-0.26572-0.02111-0.53233-0.02894-0.79883-0.02344z" style="color-rendering:auto;color:#000000;dominant-baseline:auto;fill:#96dfd3;font-feature-settings:normal;font-variant-alternates:normal;font-variant-caps:normal;font-variant-ligatures:normal;font-variant-numeric:normal;font-variant-position:normal;image-rendering:auto;isolation:auto;mix-blend-mode:normal;shape-padding:0;shape-rendering:auto;solid-color:#000000;text-decoration-color:#000000;text-decoration-line:none;text-decoration-style:solid;text-indent:0;text-orientation:mixed;text-transform:none;white-space:normal"/>
 <path d="m64.191 84.002c-2.4964-0.0594-4.8774 1.0502-6.4375 3l-48 60c-4.0049 5.006-0.79015 12.454 5.5996 12.973l148 12c8.0748 0.65215 11.894-9.732 5.3203-14.467l-100-72c-1.3083-0.9421-2.8707-1.467-4.4824-1.5059z" style="color-rendering:auto;color:#000000;dominant-baseline:auto;fill:#98dc9a;font-feature-settings:normal;font-variant-alternates:normal;font-variant-caps:normal;font-variant-ligatures:normal;font-variant-numeric:normal;font-variant-position:normal;image-rendering:auto;isolation:auto;mix-blend-mode:normal;shape-padding:0;shape-rendering:auto;solid-color:#000000;text-decoration-color:#000000;text-decoration-line:none;text-decoration-style:solid;text-indent:0;text-orientation:mixed;text-transform:none;white-space:normal"/>
</svg>
