<svg xmlns="http://www.w3.org/2000/svg" width="192" height="192" viewBox="0 0 192 192">
  <g fill="none" fill-rule="evenodd">
    <rect width="152" height="152" x="20" y="20" fill="#9ABEFF" rx="10"/>
    <path fill="#000" fill-opacity=".25" d="M172 55.0690859L172 30.0025173C172 24.4770034 167.52172 20 161.997483 20L30.0025173 20C24.4770034 20 20 24.4782795 20 30.0025173L20 41.8667526C20.5977376 36.877596 24.8600859 33 29.9984742 33L63.5667725 33C72.0254898 33 75.1405393 46.256422 78.9328151 46.256422L161.997289 46.256422C167.120475 46.256422 171.374434 50.1039341 172 55.0690882L172 55.0690859zM95.71875 108.778692C100.034562 108.778692 104.530127 109.717769 109.205596 111.595947 113.881058 113.474117 116.21875 115.9317 116.21875 118.96875L116.21875 124.123721 75.21875 124.123721 75.21875 118.96875C75.21875 115.9317 77.5564463 113.474117 82.2319079 111.595947 86.9073733 109.717769 91.4029375 108.778692 95.71875 108.778692zM95.71875 103.623721C92.9214663 103.623721 90.5238285 102.624706 88.5257675 100.626645 86.5277066 98.6285838 85.5286915 96.230946 85.5286915 93.4336623 85.5286915 90.6363785 86.5277066 88.2187615 88.5257675 86.1807421 90.5238285 84.1427151 92.9214663 83.1237208 95.71875 83.1237208 98.5160337 83.1237208 100.913672 84.1427151 102.911732 86.1807421 104.909793 88.2187615 105.908808 90.6363785 105.908808 93.4336623 105.908808 96.230946 104.909793 98.6285838 102.911732 100.626645 100.913672 102.624706 98.5160337 103.623721 95.71875 103.623721z"/>
  </g>
</svg>
