<svg xmlns="http://www.w3.org/2000/svg" width="192" height="192" viewBox="0 0 192 192">
  <g fill="none" fill-rule="evenodd">
    <rect width="152" height="152" x="20" y="20" fill="#728DBE" rx="10"/>
    <path fill="#9ABEFF" d="M20,42.9965372 C20,37.4756022 24.4775919,33 29.9984742,33 L63.5667725,33 C72.0254898,33 75.1405393,46.256422 78.9328151,46.256422 L161.997289,46.256422 C167.521634,46.256422 172,50.7317026 172,56.254764 L172,162.001658 C172,167.52359 167.522997,172 161.997483,172 L30.0025173,172 C24.4782795,172 20,167.532652 20,162.003463 L20,42.9965372 Z"/>
    <g fill="#728DBE" stroke="#9ABEFF" stroke-width="5" transform="translate(45 74)">
      <path d="M50.5,8.04477612 L16.0681818,25.2835821 L16.0681818,54.7662767 C16.0681818,57.5248934 18.0430544,60.8158602 20.4814963,62.1180922 L46.0866855,75.7923555 C48.5240918,77.0940345 52.4748726,77.0945875 54.9133145,75.7923555 L80.5185037,62.1180922 C82.95591,60.8164133 84.9318182,57.5255869 84.9318182,54.7662767 L84.9318182,25.2835821 L50.5,8.04477612 Z"/>
      <path d="M16.0681818,25.2835821 L50.5,42.5223881 L36.6051323,49.4790619 C34.1370995,50.7147195 30.1363368,50.7150745 27.6703036,49.480418 L2.17060546,36.7136118 C-0.295931374,35.4787032 -0.295266057,33.4761876 2.17331415,32.2402559 L16.0681818,25.2835821 Z M84.9318182,25.2835821 L98.8266859,32.2402559 C101.295266,33.4761876 101.295931,35.4787032 98.8293945,36.7136118 L98.8293945,36.7136118 L73.3296964,49.480418 C70.8636632,50.7150745 66.8629005,50.7147195 64.3948677,49.4790619 L64.3948677,49.4790619 L50.5,42.5223881 L84.9318182,25.2835821 Z M27.6703036,1.08674616 C30.1363368,-0.147910294 34.1370995,-0.147555311 36.6051323,1.08810231 L36.6051323,1.08810231 L50.5,8.04477612 L16.0681818,25.2835821 L2.17331415,18.3269083 C-0.295266057,17.0909766 -0.295931374,15.088461 2.17060546,13.8535523 L2.17060546,13.8535523 Z M73.3296964,1.08674616 L98.8293945,13.8535523 C101.295931,15.088461 101.295266,17.0909766 98.8266859,18.3269083 L84.9318182,25.2835821 L50.5,8.04477612 L64.3948677,1.08810231 C66.8629005,-0.147555311 70.8636632,-0.147910294 73.3296964,1.08674616 Z"/>
    </g>
  </g>
</svg>
