<svg xmlns="http://www.w3.org/2000/svg" width="192" height="192" viewBox="0 0 192 192">
  <g fill="none" fill-rule="evenodd">
    <rect width="152" height="152" x="20" y="20" fill="#A0A5AF" rx="10"/>
    <path fill="#000" fill-opacity=".25" d="M172 55.0690859L172 30.0025173C172 24.4770034 167.52172 20 161.997483 20L30.0025173 20C24.4770034 20 20 24.4782795 20 30.0025173L20 41.8667526C20.5977376 36.877596 24.8600859 33 29.9984742 33L63.5667725 33C72.0254898 33 75.1405393 46.256422 78.9328151 46.256422L161.997289 46.256422C167.120475 46.256422 171.374434 50.1039341 172 55.0690882L172 55.0690859zM95.5814891 118.173049C98.325534 118.173049 100.671218 117.199371 102.618608 115.251981 104.565998 113.304591 105.539676 110.958907 105.539676 108.214862 105.539676 105.470817 104.565998 103.125134 102.618608 101.177744 100.671218 99.2303535 98.325534 98.2566755 95.5814891 98.2566755 92.8374441 98.2566755 90.4917606 99.2303535 88.5443705 101.177744 86.5969805 103.125134 85.6233024 105.470817 85.6233024 108.214862 85.6233024 110.958907 86.5969805 113.304591 88.5443705 115.251981 90.4917606 117.199371 92.8374441 118.173049 95.5814891 118.173049zM116.692845 111.003154L122.667757 115.650308C123.28738 116.0929 123.3759 116.712515 122.933308 117.50917L117.223948 127.33458C116.869876 127.954204 116.294517 128.131237 115.497862 127.865684L108.460744 125.077391C106.601874 126.405158 105.008581 127.33458 103.680814 127.865684L102.618608 135.30113C102.441576 136.097789 101.998993 136.496112 101.290849 136.496112L89.8721287 136.496112C89.1639853 136.496112 88.7214021 136.097789 88.5443705 135.30113L87.4821639 127.865684C85.8003255 127.15754 84.2070327 126.228118 82.7022344 125.077391L75.6651158 127.865684C74.8684566 128.131237 74.293101 127.954204 73.9390301 127.33458L68.2296698 117.50917C67.7870816 116.712515 67.8755979 116.0929 68.4952214 115.650308L74.4701334 111.003154C74.3816159 110.383531 74.3373576 109.454109 74.3373576 108.214862 74.3373576 106.975615 74.3816159 106.046193 74.4701334 105.42657L68.4952214 100.779416C67.8755979 100.336824 67.7870816 99.7172095 68.2296698 98.9205546L73.9390301 89.0951438C74.293101 88.4755204 74.8684566 88.2984888 75.6651158 88.5640405L82.7022344 91.3523327C84.5611044 90.024566 86.1543972 89.0951438 87.4821639 88.5640405L88.5443705 81.1285945C88.7214021 80.3319396 89.1639853 79.9336121 89.8721287 79.9336121L101.290849 79.9336121C101.998993 79.9336121 102.441576 80.3319396 102.618608 81.1285945L103.680814 88.5640405C105.362653 89.2721839 106.955945 90.2016061 108.460744 91.3523327L115.497862 88.5640405C116.294517 88.2984888 116.869876 88.4755204 117.223948 89.0951438L122.933308 98.9205546C123.3759 99.7172095 123.28738 100.336824 122.667757 100.779416L116.692845 105.42657C116.781365 106.046193 116.825621 106.975615 116.825621 108.214862 116.825621 109.454109 116.781365 110.383531 116.692845 111.003154z"/>
  </g>
</svg>
