<svg xmlns="http://www.w3.org/2000/svg" width="192" height="192" viewBox="0 0 192 192">
  <g fill="none" fill-rule="evenodd">
    <rect width="152" height="152" x="20" y="20" fill="#98DC9A" rx="10"/>
    <path fill="#000" fill-opacity=".25" d="M172 55.0690859L172 30.0025173C172 24.4770034 167.52172 20 161.997483 20L30.0025173 20C24.4770034 20 20 24.4782795 20 30.0025173L20 41.8667526C20.5977376 36.877596 24.8600859 33 29.9984742 33L63.5667725 33C72.0254898 33 75.1405393 46.256422 78.9328151 46.256422L161.997289 46.256422C167.120475 46.256422 171.374434 50.1039341 172 55.0690882L172 55.0690859zM97.5 77C106.734022 77 114.625767 80.2748054 121.175481 86.8245192 127.725195 93.3742331 131 101.265978 131 110.5 131 119.734022 127.725195 127.625767 121.175481 134.175481 114.625767 140.725193 106.734022 144 97.5 144 88.2659775 144 80.3742331 140.725193 73.8245192 134.175481 67.2748074 127.625767 64 119.734022 64 110.5 64 101.265978 67.2748074 93.3742331 73.8245192 86.8245192 80.3742331 80.2748054 88.2659775 77 97.5 77L97.5 77zM93.9567308 139.007212C94.1714709 138.577722 94.4667451 137.987183 94.8425532 137.235577 95.2183511 136.483971 95.5136252 135.893432 95.7283654 135.463942 95.9431055 135.034453 96.0504808 134.578127 96.0504808 134.094952 96.0504808 133.611774 95.7820582 133.155452 95.2451923 132.725962 93.5272298 131.22275 92.2924714 130.095356 91.5408654 129.34375 91.3261252 129.12901 91.0040098 128.51162 90.5745192 127.491592 90.1450286 126.471553 89.9839709 125.854163 90.0913462 125.639423 90.628212 124.673077 91.0576923 123.384626 91.3798077 121.774038 91.7019231 120.485567 91.0040098 119.304491 89.2860577 118.230769 88.5344517 117.801279 87.782856 117.264423 87.03125 116.620192 86.279644 115.975962 85.4475246 115.278048 84.5348609 114.526442 83.6221869 113.774836 82.8974428 113.184298 82.3605769 112.754808 80.4278743 111.358971 79.3541632 110.338942 79.1394231 109.694712 78.1730769 106.903028 77.6362214 105.399836 77.5288462 105.185096 76.5625 103.789259 75.9719517 102.312909 75.7572115 100.756015 75.5424714 99.19911 75.5961538 97.5617022 75.9182692 95.84375 75.9182692 95.092144 75.810894 93.7500103 75.5961538 91.8173077 71.0865158 96.9711848 68.8317308 103.19868 68.8317308 110.5 68.8317308 118.445551 71.6233693 125.209912 77.2067308 130.793269 81.823742 135.410279 87.4070169 138.148232 93.9567308 139.007212L93.9567308 139.007212zM117.793269 130.793269C121.551299 127.035239 124.074509 122.63304 125.362981 117.586538L122.302885 117.264423C120.048067 114.68749 118.813298 112.271645 118.598558 110.016827 118.491182 109.050481 118.4375 107.547289 118.4375 105.507212 118.4375 103.467134 118.330125 101.91026 118.115385 100.836538 117.900644 99.8701923 117.17589 98.5280483 115.941101 96.8100962 114.706322 95.092144 113.981567 93.9647505 113.766827 93.4278846 113.444712 92.6762786 112.934697 91.5488851 112.236784 90.0456731 111.53886 88.5424611 110.975164 87.4150675 110.545673 86.6634615 110.653048 86.6634615 110.840947 86.717144 111.10937 86.8245192 111.377803 86.9318945 111.565702 87.0392594 111.673077 87.1466346 112.746798 86.9318945 113.498394 86.8245192 113.927885 86.8245192 110.49197 84.3549508 106.411886 82.7980769 101.6875 82.1538462L101.6875 83.4423077 102.331731 84.8918269 100.076923 86.9855769 98.6274038 86.5024038 97.0168269 84.8918269 95.40625 82.9591346 93.1514423 82.1538462C90.8966243 82.4759615 88.4807795 83.1738748 85.9038462 84.2475962L85.9038462 85.375C86.2259615 85.1602598 86.8164995 84.9455094 87.6754808 84.7307692 88.534462 84.5160291 89.1786825 84.3012786 89.6081731 84.0865385 89.8229132 83.9791632 90.6818842 84.4623363 92.1850962 85.5360577 92.0777209 85.6434329 91.4871829 86.1534369 90.4134615 87.0661006 89.3397402 87.9787746 88.7492022 88.5961538 88.6418269 88.9182692 88.6418269 89.0256445 88.8297258 89.2672258 89.2055237 89.6430237 89.5813318 90.0188318 89.7692308 90.314106 89.7692308 90.5288462 89.7692308 90.8509615 89.7423895 91.3072934 89.6887071 91.8978314 89.6350143 92.4883797 89.6081731 92.9447115 89.6081731 93.2668269 91.8629911 91.0120089 93.0440671 89.8846154 93.1514423 89.8846154 94.1177885 89.6698752 95.2988748 90.1261968 96.6947115 91.2536006 98.0905483 92.3810148 98.8958368 93.3205094 99.1105769 94.0721154 99.2179522 94.3942308 99.003212 94.8505626 98.4663462 95.4411006 97.9294803 96.0316489 97.0705197 96.8100962 95.8894231 97.7764423 94.7083265 98.7427885 94.0104132 99.3333368 93.7956731 99.5480769 93.5809329 99.7628171 93.0977598 100.111774 92.3461538 100.594947 91.5945478 101.07813 91.0576923 101.534452 90.7355769 101.963942 90.4134615 102.393433 90.3597791 102.876596 90.5745192 103.413462 91.6482406 105.560904 91.9166735 106.849356 91.3798077 107.278846 91.1650675 107.493586 90.8966346 107.520438 90.5745192 107.35937 90.2524038 107.198312 90.0108225 107.010413 89.8497545 106.795673 89.6886968 106.580933 89.4739566 106.3125 89.2055237 105.990385 88.9371011 105.668269 88.7492022 105.453529 88.6418269 105.346154 87.9975962 104.594548 85.9575492 104.21875 82.5216346 104.21875 82.5216346 107.654665 83.3269128 109.963134 84.9375 111.144231 89.3397608 114.365405 91.8629808 116.137019 92.5072115 116.459135 93.1514423 116.78125 94.4398935 116.78125 96.3725962 116.459135 98.3052988 116.137019 99.5400572 116.190702 100.076923 116.620192 103.620213 119.089761 106.143423 120.646635 107.646635 121.290865 108.612981 121.612981 109.686692 122.337735 110.867788 123.465139 112.048885 124.592553 112.371 125.532048 111.834135 126.283654 110.438298 128.431097 109.686702 129.665865 109.579327 129.987981 108.720346 131.813308 107.646645 133.155442 106.358173 134.014423 104.962336 135.088147 103.834943 136.645021 102.975962 138.685096 108.774069 137.504001 113.713124 134.873418 117.793269 130.793269L117.793269 130.793269z"/>
  </g>
</svg>
