<svg width="192" height="192" version="1.1" viewBox="0 0 192 192" xmlns="http://www.w3.org/2000/svg">
 <circle cx="96" cy="96" r="88" opacity=".63" style="fill:#98dc9a;opacity:1"/>
 <path d="m96 28a68 68 0 0 0-52.285 24.555c5.825 1.5462 11.374 5.9173 16.285 7.4453v-12s42.511 6.9618 63.791 16.42c15.295 6.7983 22.15 39.58 22.15 39.58s-12.271 12.369-29.941 12c-15.66-0.32708-48-20-48-20l4 12s28.394 15.905 44 16c14.902 0.0909 28-9.6016 28-9.6016s-0.94266 8.7925-4 11.426c-2.6658 2.296-21.077 14.42-56 14.176-9.3608-0.0654-18.639-2.1474-28-2.1582-4.8894-0.00562-8.6401 1.2826-11.285 2.6816a68 68 0 0 0 51.285 23.477 68 68 0 0 0 68-68 68 68 0 0 0-68-68z" style="fill:#fff;paint-order:stroke fill markers"/>
 <path d="m108 68a20 20 0 0 0-20 20 20 20 0 0 0 20 20 20 20 0 0 0 20-20 20 20 0 0 0-20-20zm0 6.4785a13.521 13.521 0 0 1 13.521 13.521 13.521 13.521 0 0 1-13.521 13.521 13.521 13.521 0 0 1-13.521-13.521 13.521 13.521 0 0 1 13.521-13.521zm4.3223 5.9414a6.0835 4.2287 0 0 0-6.084 4.2285 6.0835 4.2287 0 0 0 6.084 4.2285 6.0835 4.2287 0 0 0 6.082-4.2285 6.0835 4.2287 0 0 0-6.082-4.2285z" style="fill:#fff;paint-order:stroke fill markers"/>
</svg>
