<svg width="192" height="192" version="1.1" viewBox="0 0 192 192" xmlns="http://www.w3.org/2000/svg">
 <rect x="19.5" y="19.5" width="153" height="153" rx="10" style="fill:#9abeff;stroke-width:4"/>
 <path d="m102.08 19.5c-3.1967 0.72328-5.4596 1.8802-7.9062 3.8906-4.1696 3.4262-3.9272 5.6645-4.6797 8.9453-5.1372 22.397-6.6306 37.322-10.172 55.938-1.5061 7.9172 5.5917 8.8023 9.3594 8.7422 3.525-0.0564 7.055-0.1276 10.578 0 3.9788 0.144 4.2154 0.356 4.4687 5.0859 1.0898 20.351 2.8054 40.664 3.8672 61.016 0.28236 5.4121 3.9002 8.4051 7.9062 9.3828h47c5.54 0 10-4.46 10-10v-133c0-5.54-4.46-10-10-10z" style="fill:#fff"/>
</svg>
