<svg width="192" height="192" fill="none" version="1.1" viewBox="0 0 192 192" xmlns="http://www.w3.org/2000/svg">
 <rect transform="matrix(1 0 0 -1 20 172.51)" width="152" height="84.507" rx="10" fill="#98DC9A"/>
 <path d="m147.74 45.107 18.017-18.017" stroke="#71A372" stroke-linecap="round" stroke-width="10"/>
 <path d="m45.264 44.107-18.217-18.217" stroke="#71A372" stroke-linecap="round" stroke-width="10"/>
 <g clip-rule="evenodd" fill-rule="evenodd">
  <path d="m20 96c0-41.974 34.026-76 76-76 41.974 0 76 34.026 76 76h-152z" fill="#98DC9A"/>
  <path d="m135 63c3.314 0 6-2.6863 6-6s-2.686-6-6-6-6 2.6863-6 6 2.686 6 6 6z" fill="#71A372"/>
  <path d="m57 63c3.3137 0 6-2.6863 6-6s-2.6863-6-6-6-6 2.6863-6 6 2.6863 6 6 6z" fill="#71A372"/>
 </g>
 <path d="m20.5 99h151.03" stroke="#71A372" stroke-width="10"/>
</svg>
