<svg width="192" height="192" version="1.1" viewBox="0 0 192 192" xmlns="http://www.w3.org/2000/svg">
 <rect x="20" y="20" width="152" height="152" rx="10" style="fill-rule:evenodd;fill:#728dbe"/>
 <path d="m20 42.997c0-5.5209 4.4776-9.9965 9.9985-9.9965h33.568c8.4587 0 11.574 13.256 15.366 13.256h83.064c5.5243 0 10.003 4.4753 10.003 9.9983v105.75c0 5.5219-4.477 9.9983-10.003 9.9983h-131.99c-5.5242 0-10.003-4.4674-10.003-9.9965z" style="fill-rule:evenodd;fill:#9abeff"/>
 <path d="m119.34 73.555-17.894 5.9218 5.7929 18.023 5.1494-10.041s13.014 7.1931 12.873 24.073c-0.13694 16.496-15.086 26.749-27.42 26.777-13.625 0.0303-26.899-11.353-27.42-25.489-0.43038-11.664 3.9584-18.146 10.698-24.017 4.6433-4.0452 13.104-5.6982 16.722-5.7203v-6.0504c-5.4079 0.12445-13.033 1.0226-20.16 6.4129-7.1271 5.3903-14.142 14.629-13.568 28.732 0.77352 19.001 16.517 32.363 33.599 32.312 15.157-0.0456 31.546-10.398 33.6-30.638 2.2226-21.909-16.092-32.055-16.092-32.055zm-23.19 15.403a1.1869 1.1869 0 0 0-1.1689 1.2035v23.43a1.1869 1.1869 0 0 0 0.58457 1.0226l13.775 8.1101a1.1869 1.1869 0 1 0 1.2041-2.0453l-13.19-7.7659v-22.751a1.1869 1.1869 0 0 0-1.2046-1.2035z" style="fill:#728dbe"/>
</svg>
