<svg width="192" height="192" version="1.1" viewBox="0 0 192 192" xmlns="http://www.w3.org/2000/svg">
 <g fill-rule="evenodd">
  <rect x="20" y="20" width="152" height="152" rx="10" fill="#98DC9A" style="fill:#bd9aff"/>
  <path d="m172 55.069v-25.067c0-5.5255-4.4783-10.003-10.003-10.003h-131.99c-5.5255 0-10.003 4.4783-10.003 10.003v11.864c0.59774-4.9892 4.8601-8.8668 9.9985-8.8668h33.568c8.4587 0 11.574 13.256 15.366 13.256h83.064c5.1232 0 9.3771 3.8475 10.003 8.8127v-2.3e-6zm-74.5 21.931c9.234 0 17.126 3.2748 23.675 9.8245 6.5497 6.5497 9.8245 14.441 9.8245 23.675s-3.2748 17.126-9.8245 23.675c-6.5497 6.5497-14.441 9.8245-23.675 9.8245-9.234 0-17.126-3.2748-23.675-9.8245-6.5497-6.5497-9.8245-14.441-9.8245-23.675s3.2748-17.126 9.8245-23.675c6.5497-6.5497 14.441-9.8245 23.675-9.8245zm-3.5433 62.007c0.21474-0.42949 0.51001-1.02 0.88582-1.7716 0.3758-0.75161 0.67107-1.3421 0.88581-1.7716 0.21474-0.42949 0.32212-0.88582 0.32212-1.369 0-0.48318-0.26842-0.9395-0.80529-1.369-1.718-1.5032-2.9527-2.6306-3.7043-3.3822-0.21474-0.21474-0.53686-0.83213-0.96635-1.8522-0.42949-1.02-0.59055-1.6374-0.48317-1.8522 0.53687-0.96635 0.96635-2.2548 1.2885-3.8654 0.32212-1.2885-0.3758-2.4695-2.0938-3.5433-0.75161-0.42949-1.5032-0.96635-2.2548-1.6106-0.75161-0.64423-1.5837-1.3421-2.4964-2.0938-0.91267-0.75161-1.6374-1.3421-2.1743-1.7716-1.9327-1.3958-3.0064-2.4159-3.2212-3.0601-0.96635-2.7917-1.5032-4.2949-1.6106-4.5096-0.96635-1.3958-1.5569-2.8722-1.7716-4.4291-0.21474-1.5569-0.16106-3.1943 0.16106-4.9123 0-0.75161-0.10738-2.0937-0.32212-4.0264-4.5096 5.1539-6.7644 11.381-6.7644 18.683 0 7.9456 2.7916 14.71 8.375 20.293 4.617 4.617 10.2 7.355 16.75 8.2139zm23.837-8.2139c3.758-3.758 6.2812-8.1602 7.5697-13.207l-3.0601-0.32212c-2.2548-2.5769-3.4896-4.9928-3.7043-7.2476-0.10738-0.96635-0.16106-2.4695-0.16106-4.5096 0-2.0401-0.10738-3.597-0.32212-4.6707-0.21474-0.96635-0.9395-2.3085-2.1743-4.0264-1.2348-1.718-1.9595-2.8453-2.1743-3.3822-0.32212-0.75161-0.83213-1.879-1.53-3.3822-0.69792-1.5032-1.2616-2.6306-1.6911-3.3822 0.10738 0 0.29527 0.053682 0.5637 0.16106 0.26843 0.10738 0.45633 0.21474 0.56371 0.32212 1.0737-0.21474 1.8253-0.32212 2.2548-0.32212-3.4359-2.4696-7.516-4.0264-12.24-4.6707v1.2885l0.64423 1.4495-2.2548 2.0938-1.4495-0.48317-1.6106-1.6106-1.6106-1.9327-2.2548-0.80529c-2.2548 0.32212-4.6707 1.02-7.2476 2.0938v1.1274c0.32212-0.21474 0.91265-0.42949 1.7716-0.64423 0.85898-0.21474 1.5032-0.42949 1.9327-0.64423 0.21474-0.10738 1.0737 0.3758 2.5769 1.4495-0.10738 0.10738-0.69791 0.61738-1.7716 1.53-1.0737 0.91267-1.6643 1.5301-1.7716 1.8522 0 0.10738 0.1879 0.34896 0.5637 0.72475 0.37581 0.37581 0.56371 0.67108 0.56371 0.88582 0 0.32212-0.026841 0.77845-0.080524 1.369-0.053693 0.59055-0.080534 1.0469-0.080534 1.369 2.2548-2.2548 3.4359-3.3822 3.5433-3.3822 0.96635-0.21474 2.1474 0.24158 3.5433 1.369 1.3958 1.1274 2.2011 2.0669 2.4159 2.8185 0.10738 0.32212-0.10736 0.77845-0.64423 1.369-0.53687 0.59055-1.3958 1.369-2.5769 2.3353-1.1811 0.96635-1.879 1.5569-2.0938 1.7716-0.21474 0.21474-0.69791 0.5637-1.4495 1.0469-0.75161 0.48318-1.2885 0.9395-1.6106 1.369-0.32212 0.42949-0.3758 0.91265-0.16106 1.4495 1.0737 2.1474 1.3422 3.4359 0.80529 3.8654-0.21474 0.21474-0.48317 0.24159-0.80529 0.080524-0.32212-0.16106-0.5637-0.34896-0.72476-0.5637-0.16106-0.21474-0.3758-0.48317-0.64423-0.80529-0.26842-0.32212-0.45632-0.53686-0.5637-0.64423-0.64423-0.75161-2.6843-1.1274-6.1202-1.1274 0 3.4359 0.80528 5.7444 2.4159 6.9255 4.4023 3.2212 6.9255 4.9928 7.5697 5.3149 0.64423 0.32212 1.9327 0.32212 3.8654 0 1.9327-0.32212 3.1675-0.26843 3.7043 0.16106 3.5433 2.4696 6.0665 4.0264 7.5697 4.6707 0.96635 0.32212 2.0401 1.0469 3.2212 2.1743 1.1811 1.1274 1.5032 2.0669 0.96635 2.8185-1.3958 2.1474-2.1474 3.3822-2.2548 3.7043-0.85898 1.8253-1.9327 3.1675-3.2212 4.0264-1.3958 1.0737-2.5232 2.6306-3.3822 4.6707 5.7981-1.1811 10.737-3.8117 14.817-7.8918z" fill-opacity=".25" style="fill-opacity:1;opacity:.25"/>
 </g>
</svg>
