<svg width="192" height="192" version="1.1" viewBox="0 0 192 192" xmlns="http://www.w3.org/2000/svg">
 <rect x="20" y="20" width="152" height="152" rx="10" style="fill-rule:evenodd;fill:#728dbe"/>
 <path d="m20 42.997c0-5.5209 4.4776-9.9965 9.9985-9.9965h33.568c8.4587 0 11.574 13.256 15.366 13.256h83.064c5.5243 0 10.003 4.4753 10.003 9.9983v105.75c0 5.5219-4.477 9.9983-10.003 9.9983h-131.99c-5.5242 0-10.003-4.4674-10.003-9.9965z" style="fill-rule:evenodd;fill:#9abeff"/>
 <path d="m129.22 136.39v5.4535h-65.442v-5.4535zm-6.2326-10.162v5.4535h-52.977v-5.4535zm-45.186-28.081v23.372h-7.7907v-23.372zm22.593 0v23.372h-7.7907v-23.372zm22.593 0v23.372h-7.7907v-23.372zm-26.488-24.151 33.5 19.442h-67z" style="fill-rule:evenodd;fill:#728dbe"/>
</svg>
