<svg width="192" height="192" version="1.1" viewBox="0 0 192 192" xmlns="http://www.w3.org/2000/svg">
 <rect x="20" y="20" width="152" height="152" rx="10" style="fill-rule:evenodd;fill:#f9de81"/>
 <path d="m172 55.069v-25.067c0-5.5255-4.4783-10.003-10.003-10.003h-131.99c-5.5255 0-10.003 4.4783-10.003 10.003v11.864c0.59774-4.9892 4.8601-8.8668 9.9985-8.8668h33.568c8.4587 0 11.574 13.256 15.366 13.256h83.064c5.1232 0 9.3771 3.8475 10.003 8.8127zm-78.073 59.103c1.1974-1.1451 3.0965-1.1027 4.2416 0.0948l5 5.2285c0.53387 0.55827 0.83183 1.301 0.83183 2.0734v13.431c0 1.6568-1.3432 3-3 3h-10c-1.6569 0-3-1.3432-3-3v-13.431c0-0.77246 0.29796-1.5152 0.83183-2.0734l5-5.2285c0.03088-0.0323 0.06247-0.0639 0.09476-0.0948zm28.19-13.172c1.6569 0 3 1.3432 3 3v9.9419c0 1.6569-1.3431 3-3 3h-13.517c-0.76826 0-1.5072-0.29474-2.0646-0.82346l-5.2404-4.971c-1.2021-1.1403-1.2522-3.0391-0.11191-4.2412 0.0363-0.0383 0.0736-0.0756 0.11191-0.11191l5.2404-4.971c0.55739-0.52872 1.2964-0.82346 2.0646-0.82346zm-38.6 0c0.76826 0 1.5072 0.29474 2.0646 0.82346l5.2404 4.971c0.03828 0.0363 0.0756 0.0736 0.11191 0.11191 1.1403 1.2021 1.0902 3.1009-0.11191 4.2412l-5.2404 4.971c-0.55738 0.52872-1.2964 0.82346-2.0646 0.82346h-13.517c-1.6569 0-3-1.3431-3-3v-9.9419c0-1.6568 1.3431-3 3-3zm17.483-21c1.6568 0 3 1.3431 3 3v13.431c0 0.77246-0.29796 1.5151-0.83183 2.0734l-5 5.2285c-1.1451 1.1974-3.0441 1.2399-4.2416 0.0948-0.03229-0.0309-0.06388-0.0625-0.09476-0.0948l-5-5.2285c-0.53387-0.55827-0.83183-1.301-0.83183-2.0734v-13.431c0-1.6569 1.3431-3 3-3z" style="fill-rule:evenodd;opacity:.25"/>
</svg>
