<svg width="192" height="192" version="1.1" viewBox="0 0 192 192" xmlns="http://www.w3.org/2000/svg">
 <rect x="20" y="20" width="152" height="152" rx="10" style="fill-rule:evenodd;fill:#728dbe"/>
 <path d="m20 42.997c0-5.5209 4.4776-9.9965 9.9985-9.9965h33.568c8.4587 0 11.574 13.256 15.366 13.256h83.064c5.5243 0 10.003 4.4753 10.003 9.9983v105.75c0 5.5219-4.477 9.9983-10.003 9.9983h-131.99c-5.5242 0-10.003-4.4674-10.003-9.9965z" style="fill-rule:evenodd;fill:#9abeff"/>
 <path d="m86.398 74.5 25.281 44.275h21.029l-20.877-36.848c-2.1408-3.7784-8.4085-7.4277-12.744-7.4277zm-4.3535 2.5527-20.826 36.758c-2.1514 3.797-2.1758 11.177-0.05859 14.982l6.1855 11.119 25.332-44.277zm0.60938 46.723-10.977 18.725h42.123c4.3416 0 10.57-3.6661 12.674-7.4473l6.2734-11.277z" style="fill-rule:evenodd;fill:#728dbe"/>
</svg>
