<svg width="192" height="192" version="1.1" viewBox="0 0 192 192" xmlns="http://www.w3.org/2000/svg">
 <rect x="20" y="20" width="152" height="152" rx="10" style="fill-rule:evenodd;fill:#728dbe"/>
 <path d="m20 42.997c0-5.5209 4.4776-9.9965 9.9985-9.9965h33.568c8.4587 0 11.574 13.256 15.366 13.256h83.064c5.5243 0 10.003 4.4753 10.003 9.9983v105.75c0 5.5219-4.477 9.9983-10.003 9.9983h-131.99c-5.5242 0-10.003-4.4674-10.003-9.9965z" style="fill-rule:evenodd;fill:#9abeff"/>
 <path d="m96.096 115.94c11.436 0 16.248 1.4336 16.248 1.4336 4.5315 0.82794 8.2674 4.9761 8.7868 9.5386l8e-3 0.0875-7e-3 0.0805c-0.55404 5.0157-4.8132 8.9175-9.9759 8.9175h-30.119c-5.1673 0-9.4225-3.9025-9.9757-8.9177l-0.008889-0.08232 0.0096-0.0865c0.51901-4.5706 4.2521-8.7706 8.7869-9.5376 0 0 4.8123-1.4336 16.248-1.4336zm25.096 10.029v2.0228c0-0.27116-0.0118-0.54167-0.0349-0.81094l-0.0187-0.18137 0.0192-0.19421c0.0152-0.18384 0.0254-0.36907 0.0306-0.55558zm-50.193 0c0 0.28158 0.01162 0.56046 0.0344 0.83617l0.0176 0.19233-0.01716 0.18277c-0.01537 0.17976-0.02573 0.36-0.03093 0.54054l-0.00391 0.271zm24.889-45.972c8.0184 0 14.519 6.5002 14.519 14.519 0 8.0184-6.5002 14.519-14.519 14.519-8.0184 0-14.519-6.5002-14.519-14.519 0-8.0184 6.5002-14.519 14.519-14.519z" style="fill-rule:evenodd;fill:#728dbe"/>
</svg>
