<svg width="192" height="192" version="1.1" viewBox="0 0 192 192" xmlns="http://www.w3.org/2000/svg">
 <rect x="20" y="20" width="152" height="152" rx="10" style="fill-rule:evenodd;fill:#728dbe"/>
 <path d="m20 42.997c0-5.5209 4.4776-9.9965 9.9985-9.9965h33.568c8.4587 0 11.574 13.256 15.366 13.256h83.064c5.5243 0 10.003 4.4753 10.003 9.9983v105.75c0 5.5219-4.477 9.9983-10.003 9.9983h-131.99c-5.5242 0-10.003-4.4674-10.003-9.9965z" style="fill-rule:evenodd;fill:#9abeff"/>
 <path d="m124 121c0 6.6055-5.3656 11.96-11.984 11.96-6.6188 0-11.984-5.3548-11.984-11.96s5.3656-11.96 11.984-11.96c1.6335 0 3.1906 0.32615 4.6096 0.91676l-2.7e-4 -25.998-27.657 6 7.5e-4 38.401c0 6.5038-5.2018 11.795-11.68 11.956l-0.30458 4e-3c-6.6188-2.1e-4 -11.984-5.355-11.984-11.96s5.3656-11.96 11.984-11.96c1.6335 0 3.1906 0.32615 4.6096 0.91676l-2.69e-4 -33.117 42.406-9.2002z" style="fill-rule:evenodd;fill:#728dbe"/>
</svg>
