<svg width="192" height="192" version="1.1" viewBox="0 0 192 192" xmlns="http://www.w3.org/2000/svg">
 <rect x="20" y="20" width="152" height="152" rx="10" style="fill-rule:evenodd;fill:#f8c18c"/>
 <path d="m172 55.069v-25.067c0-5.5255-4.4783-10.003-10.003-10.003h-131.99c-5.5255 0-10.003 4.4783-10.003 10.003v11.864c0.59774-4.9892 4.8601-8.8668 9.9985-8.8668h33.568c8.4587 0 11.574 13.256 15.366 13.256h83.064c5.1232 0 9.3771 3.8475 10.003 8.8127zm-75.719 66.966c3.4429 0 6.3967-1.2324 8.8615-3.6972 2.4648-2.4648 3.6972-5.4186 3.6972-8.8615s-1.2324-6.3967-3.6972-8.8615c-2.4648-2.4648-5.4186-3.6972-8.8615-3.6972s-6.3967 1.2324-8.8615 3.6972c-2.4648 2.4648-3.6972 5.4186-3.6972 8.8615s1.2324 6.3967 3.6972 8.8615c2.4648 2.4648 5.4186 3.6972 8.8615 3.6972zm-7.5117-37.559h15.023l4.5775 4.9296h7.9812c1.3302 0 2.4844 0.5086 3.4624 1.5258 0.97809 1.0172 1.4671 2.1909 1.4671 3.5211v30.047c0 1.3302-0.48904 2.5039-1.4671 3.5211-0.9781 1.0172-2.1322 1.5258-3.4624 1.5258h-40.141c-1.3302 0-2.4843-0.5086-3.4624-1.5258-0.9781-1.0172-1.4671-2.1909-1.4671-3.5211v-30.047c0-1.3302 0.48904-2.5039 1.4671-3.5211 0.9781-1.0172 2.1322-1.5258 3.4624-1.5258h7.9812zm-0.46948 25c0-2.1909 0.78247-4.0689 2.3474-5.6338s3.4429-2.3474 5.6338-2.3474 4.0688 0.78246 5.6338 2.3474 2.3474 3.4429 2.3474 5.6338c0 2.1909-0.78247 4.0688-2.3474 5.6338s-3.4429 2.3474-5.6338 2.3474-4.0689-0.78247-5.6338-2.3474-2.3474-3.4429-2.3474-5.6338z" style="fill-opacity:.98974;fill-rule:evenodd;opacity:.25"/>
</svg>
