<svg width="192" height="192" version="1.1" viewBox="0 0 192 192" xmlns="http://www.w3.org/2000/svg">
 <rect x="20" y="20" width="152" height="152" rx="10" style="fill-rule:evenodd;fill:#bd9aff"/>
 <path d="m30.008 20c-5.5255 0-10.004 4.4792-10.004 10.004v11.863c0.59774-4.9892 4.8596-8.8672 9.998-8.8672h33.568c8.4587 0 11.573 13.256 15.365 13.256h83.064c5.1157 0 9.3644 3.8364 10 8.791v-25.043c0-5.5255-4.4792-10.004-10.004-10.004h-131.99zm141.99 35.047v0.023437l0.00391-0.001953c-9.2e-4 -0.007287-0.00298-0.014202-0.00391-0.021484zm-74.695 25.613c-6.8912 0-12.78 2.4442-17.668 7.332-4.8879 4.8876-7.332 10.777-7.332 17.668 0 6.8912 2.4442 12.782 7.332 17.67 4.8876 4.8877 10.777 7.3301 17.668 7.3301 6.8912 0 12.78-2.4424 17.668-7.3301 4.8877-4.8876 7.332-10.779 7.332-17.67 0-6.8912-2.4444-12.78-7.332-17.668-4.8876-4.8879-10.777-7.332-17.668-7.332zm-3.2441 3.8477 1.6816 0.59961 1.2031 1.4434 1.2012 1.2012 1.082 0.36133 1.6816-1.5625-0.48047-1.082v-0.96094c3.5259 0.48077 6.5706 1.6414 9.1348 3.4844-0.32059 0-0.88047 0.079999-1.6816 0.24023-0.08-0.080118-0.22187-0.16006-0.42187-0.24023-0.20058-0.080117-0.33932-0.11914-0.41992-0.11914 0.32059 0.56088 0.74053 1.4016 1.2617 2.5234 0.5206 1.1218 0.90199 1.9626 1.1426 2.5234 0.16001 0.40065 0.69992 1.2433 1.6211 2.5254 0.92176 1.2821 1.4624 2.2827 1.623 3.0039 0.16 0.8013 0.24024 1.9639 0.24024 3.4863 0 1.5224 0.04109 2.6441 0.12109 3.3652 0.16 1.6827 1.0813 3.4847 2.7637 5.4082l2.2832 0.24024c-0.96176 3.7665-2.8437 7.0514-5.6484 9.8555-3.0447 3.0453-6.7315 5.0094-11.059 5.8906 0.64117-1.5224 1.4836-2.6852 2.5254-3.4863 0.96176-0.64118 1.7631-1.6421 2.4043-3.0039 0.07999-0.24059 0.63986-1.1633 1.6816-2.7656 0.40058-0.56059 0.16106-1.2618-0.7207-2.1035-0.88119-0.84118-1.6831-1.3805-2.4043-1.6211-1.1218-0.48059-3.0044-1.6434-5.6484-3.4863-0.40065-0.32001-1.3233-0.36169-2.7656-0.1211-1.4423 0.24059-2.404 0.24059-2.8848 0-0.48077-0.24059-2.3631-1.5609-5.6484-3.9648-1.2019-0.88141-1.8027-2.6058-1.8027-5.1699 2.5641 0 4.0876 0.28092 4.5684 0.84179 0.080117 0.08017 0.21957 0.24011 0.41992 0.48047 0.2003 0.24041 0.36023 0.44127 0.48047 0.60156 0.12018 0.16023 0.30066 0.29975 0.54102 0.41993 0.24041 0.12019 0.44127 0.10163 0.60156-0.0586 0.40065-0.32053 0.19973-1.2822-0.60156-2.8848-0.16024-0.40066-0.11932-0.76156 0.12109-1.082 0.24035-0.32053 0.64029-0.6609 1.2012-1.0215 0.56094-0.36059 0.92174-0.62101 1.082-0.78125 0.16024-0.16029 0.68109-0.60115 1.5625-1.3223 0.88141-0.72118 1.5212-1.3015 1.9219-1.7422 0.40064-0.44071 0.56253-0.78113 0.48242-1.0215-0.16029-0.56094-0.76304-1.2622-1.8047-2.1035-1.0417-0.84135-1.9215-1.1818-2.6426-1.0215-0.080119 0-0.96183 0.84073-2.6445 2.5234 0-0.24035 0.020426-0.58078 0.060546-1.0215 0.04006-0.4407 0.058594-0.78113 0.058594-1.0215 0-0.1603-0.13951-0.3817-0.41992-0.66211-0.28047-0.28047-0.41992-0.4609-0.41992-0.54102 0.080117-0.24041 0.51902-0.69974 1.3203-1.3809 0.80129-0.68106 1.2422-1.0625 1.3223-1.1426-1.1218-0.80129-1.7616-1.1621-1.9219-1.082-0.32053 0.16024-0.80236 0.32023-1.4434 0.48047-0.64106 0.16023-1.0819 0.32023-1.3223 0.48047v-0.83984c1.9231-0.80129 3.7274-1.3221 5.4102-1.5625zm-13.102 7.2109c0.1603 1.4423 0.24024 2.443 0.24024 3.0039-0.24041 1.2821-0.27944 2.5041-0.11914 3.666 0.16024 1.1619 0.59914 2.265 1.3203 3.3066 0.080117 0.16024 0.48201 1.2819 1.2031 3.3652 0.16029 0.48077 0.96194 1.2415 2.4043 2.2832 0.40065 0.32052 0.93998 0.76167 1.6211 1.3223 0.68106 0.56116 1.3023 1.0819 1.8633 1.5625 0.56088 0.48117 1.1227 0.88058 1.6836 1.2012 1.2821 0.80118 1.8029 1.6828 1.5625 2.6445-0.24041 1.2018-0.56224 2.1636-0.96289 2.8848-0.080176 0.16001 0.040857 0.62165 0.36133 1.3828 0.32053 0.76177 0.56047 1.2209 0.7207 1.3809 0.56088 0.56116 1.4836 1.4036 2.7656 2.5254 0.40065 0.32059 0.59961 0.66089 0.59961 1.0215s-0.079999 0.7009-0.24023 1.0215-0.37968 0.76167-0.66016 1.3223c-0.28047 0.56117-0.50187 1.0017-0.66211 1.3223-4.8876-0.64116-9.0545-2.685-12.5-6.1309-4.1667-4.1665-6.25-9.2151-6.25-15.145 0-5.4488 1.6835-10.095 5.0488-13.941z" style="fill-rule:evenodd;opacity:.25"/>
</svg>
