<svg width="192" height="192" version="1.1" viewBox="0 0 192 192" xmlns="http://www.w3.org/2000/svg">
 <rect x="20" y="20" width="152" height="152" rx="10" style="fill-rule:evenodd;fill:#728dbe"/>
 <path d="m20 42.997c0-5.5209 4.4776-9.9965 9.9985-9.9965h33.568c8.4587 0 11.574 13.256 15.366 13.256h83.064c5.5243 0 10.003 4.4753 10.003 9.9983v105.75c0 5.5219-4.477 9.9983-10.003 9.9983h-131.99c-5.5242 0-10.003-4.4674-10.003-9.9965z" style="fill-rule:evenodd;fill:#9abeff"/>
 <polygon transform="matrix(.65536 0 0 .65536 46.192 58.129)" points="83.373 38.148 117.17 37.516 116.7 104.31 82.929 105.41 76 108.55 66.475 105.04 35.059 105.04 35.69 37.516 69.881 37.516 76 40.665" style="fill-opacity:0"/>
 <path d="m75.08 87.275c-0.73593 0-1.332 0.59806-1.332 1.334 0 0.73593 0.5961 1.332 1.332 1.332h15.254c0.73593 0 1.332-0.5961 1.332-1.332 0-0.73593-0.59611-1.334-1.332-1.334h-15.254zm0 5.4277c-0.73593 0-1.332 0.5961-1.332 1.332 0 0.73593 0.5961 1.334 1.332 1.334h15.254c0.73593 0 1.332-0.59806 1.332-1.334 0-0.73593-0.59611-1.332-1.332-1.332h-15.254zm0 5.3301c-0.73593 0-1.332 0.5961-1.332 1.332 0 0.73593 0.5961 1.334 1.332 1.334h15.254c0.73593 0 1.332-0.59806 1.332-1.334 0-0.73593-0.59611-1.332-1.332-1.332h-15.254zm0 5.3359c-0.73593 0-1.332 0.59807-1.332 1.334 0 0.73593 0.5961 1.332 1.332 1.332h15.254c0.73593 0 1.332-0.5961 1.332-1.332 0-0.73591-0.59611-1.334-1.332-1.334h-15.254zm0 5.3301c-0.73593 0-1.332 0.59804-1.332 1.334 0 0.73592 0.5961 1.332 1.332 1.332h15.254c0.73593 0 1.332-0.59611 1.332-1.332 0-0.73593-0.59611-1.334-1.332-1.334h-15.254zm0 5.3379c-0.73593 0-1.332 0.59611-1.332 1.332 0 0.73593 0.5961 1.332 1.332 1.332h15.254c0.73593 0 1.332-0.5961 1.332-1.332 0-0.73592-0.59611-1.332-1.332-1.332h-15.254zm0 5.3301c-0.73593 0-1.332 0.5961-1.332 1.332 0 0.73592 0.5961 1.332 1.332 1.332h15.254c0.73593 0 1.332-0.59611 1.332-1.332 0-0.73593-0.59611-1.332-1.332-1.332h-15.254z" style="fill:#728dbe;stroke-width:.65536"/>
 <path d="m126.66 83.938h-2.6456v-1.3325c0-0.73593-0.59658-1.3325-1.3325-1.3325h-8.021v-1.3325c4e-3 -0.72242-0.57148-1.3149-1.2937-1.3325h-5.3365c-0.3534 0-0.69234 0.14039-0.94222 0.39028-0.2499 0.2499-0.39029 0.58882-0.39029 0.94223v1.3325h-0.99615c-5.5888 0-8.3703 1.1449-9.7028 2.1281-1.3584-0.98321-4.1399-2.1281-9.7028-2.1281h-16.98c-0.73593 0-1.3325 0.59659-1.3325 1.3325v1.3325h-2.6456c-0.35851-3.7e-5 -0.70206 0.14369-0.95373 0.39902-0.25167 0.25532-0.39045 0.6009-0.38539 0.95937v45.28c0.0039 0.73697 0.60214 1.3325 1.3391 1.3325h26.353c0.84738 0.40105 2.9432 1.3325 4.308 1.3325 1.3649 0 3.4607-0.93147 4.308-1.3325h6.3586v3.9975c-1.6e-4 0.46469 0.24063 0.89623 0.63616 1.1401s0.88924 0.26531 1.3044 0.0566l2.0699-1.035 2.0699 1.035c0.18775 0.0899 0.39338 0.13637 0.60157 0.13584 0.72073-0.021 1.294-0.61148 1.2937-1.3325v-3.9717h12.018c0.73698 2e-5 1.3354-0.59554 1.3391-1.3325v-45.306c5e-3 -0.35847-0.13372-0.70405-0.3854-0.95937-0.25167-0.25532-0.59522-0.39905-0.95372-0.39902zm-11.993 0h6.682v41.327h-6.682zm-17.336 1.8177c0.56277-0.50454 2.5874-1.8177 8.4091-1.8177h0.93793v41.327h-1.3325c-3.3378 0-6.0287 0.64685-8.0016 1.9406zm-26.683-1.8177h15.647c5.8217 0 7.8334 1.2937 8.4091 1.8177v41.457c-1.9406-1.2937-4.6638-1.9406-8.0015-1.9406h-16.055z" style="fill:#728dbe;stroke-width:.65536"/>
</svg>
