<svg width="192" height="192" version="1.1" viewBox="0 0 192 192" xmlns="http://www.w3.org/2000/svg">
 <path d="m96 183c48.049 0 87-38.951 87-87s-38.951-87-87-87-87 38.951-87 87 38.951 87 87 87z" clip-rule="evenodd" fill="#98DC9A" fill-rule="evenodd" style="fill:#bd9aff"/>
 <path d="m96.5 54c11.715 0 21.727 4.1546 30.036 12.464s12.464 18.321 12.464 30.036-4.155 21.727-12.464 30.036-18.321 12.464-30.036 12.464-21.727-4.155-30.036-12.464c-8.3093-8.309-12.464-18.321-12.464-30.036s4.1546-21.727 12.464-30.036c8.3094-8.3093 18.321-12.464 30.036-12.464zm-4.4952 78.666c0.2724-0.545 0.647-1.294 1.1238-2.248 0.4768-0.953 0.8514-1.702 1.1238-2.247s0.4087-1.124 0.4087-1.737-0.3406-1.192-1.0217-1.737c-2.1795-1.907-3.746-3.337-4.6995-4.291-0.2724-0.272-0.6811-1.055-1.226-2.35-0.5448-1.294-0.7492-2.077-0.6129-2.349 0.6811-1.226 1.2259-2.861 1.6346-4.904 0.4086-1.635-0.4768-3.133-2.6563-4.495-0.9535-0.545-1.907-1.226-2.8605-2.044-0.9536-0.817-2.0093-1.702-3.1671-2.656-1.1579-0.953-2.0773-1.7025-2.7584-2.2474-2.452-1.7709-3.8141-3.0649-4.0866-3.8822-1.2259-3.5417-1.907-5.4488-2.0432-5.7212-1.226-1.7708-1.9752-3.6438-2.2476-5.619-0.2725-1.9752-0.2044-4.0525 0.2043-6.232 0-0.9535-0.1362-2.6562-0.4087-5.1081-5.7211 6.5385-8.5817 14.439-8.5817 23.702 0 10.08 3.5416 18.662 10.625 25.745 5.8574 5.858 12.941 9.331 21.25 10.421zm30.24-10.421c4.768-4.767 7.969-10.352 9.604-16.755l-3.883-0.408c-2.86-3.27-4.427-6.3344-4.699-9.195-0.136-1.2259-0.205-3.133-0.205-5.7211 0-2.5882-0.136-4.5633-0.408-5.9255-0.273-1.226-1.192-2.9287-2.759-5.1082-1.566-2.1795-2.486-3.6098-2.758-4.2909-0.409-0.9535-1.056-2.3838-1.941-4.2908-0.886-1.9071-1.601-3.3374-2.146-4.2909 0.137 0 0.375 0.0681 0.716 0.2043 0.34 0.1363 0.579 0.2725 0.715 0.4087 1.362-0.2724 2.315-0.4087 2.86-0.4087-4.359-3.133-9.535-5.1081-15.529-5.9254v1.6346l0.818 1.8389-2.8608 2.6563-1.8389-0.613-2.0433-2.0433-2.0432-2.4519-2.8606-1.0216c-2.8606 0.4086-5.9255 1.294-9.1947 2.6562v1.4303c0.4086-0.2724 1.1578-0.5449 2.2476-0.8173 1.0897-0.2724 1.907-0.5449 2.4519-0.8173 0.2724-0.1362 1.3622 0.4767 3.2692 1.8389-0.1362 0.1362-0.8854 0.7833-2.2476 1.9411-1.3622 1.1579-2.1114 1.9411-2.2476 2.3498 0 0.1362 0.2384 0.4427 0.7152 0.9195 0.4767 0.4767 0.7151 0.8513 0.7151 1.1238 0 0.4086-0.034 0.9875-0.1021 1.7367-0.0682 0.7492-0.1022 1.3282-0.1022 1.7368 2.8606-2.8606 4.359-4.2908 4.4952-4.2908 1.2259-0.2725 2.7243 0.3064 4.4952 1.7367 1.7708 1.4303 2.7924 2.6222 3.0649 3.5758 0.1362 0.4086-0.1362 0.9875-0.8173 1.7367s-1.7709 1.7368-3.2693 2.9628c-1.4984 1.2259-2.3838 1.9751-2.6562 2.2476-0.2725 0.2724-0.8854 0.7151-1.839 1.3281-0.9535 0.613-1.6346 1.1919-2.0432 1.7368-0.4087 0.5448-0.4768 1.1578-0.2044 1.8389 1.3622 2.7244 1.7028 4.359 1.0217 4.9039-0.2725 0.2724-0.613 0.3065-1.0217 0.1021-0.4086-0.2043-0.7151-0.4427-0.9194-0.7151-0.2044-0.2725-0.4768-0.613-0.8173-1.0217-0.3406-0.4086-0.579-0.681-0.7152-0.8173-0.8173-0.9535-3.4054-1.4303-7.7644-1.4303 0 4.359 1.0216 7.2877 3.0649 8.7861 5.585 4.0867 8.7861 6.3337 9.6034 6.7427s2.4519 0.409 4.9038 0 4.0184-0.34 4.6995 0.204c4.4948 3.133 7.6968 5.109 9.6038 5.926 1.226 0.409 2.588 1.328 4.086 2.758 1.499 1.431 1.907 2.623 1.226 3.576-1.771 2.724-2.724 4.291-2.86 4.7-1.09 2.315-2.452 4.018-4.087 5.108-1.771 1.362-3.201 3.337-4.291 5.925 7.356-1.498 13.622-4.835 18.798-10.012z" clip-rule="evenodd" fill="#71A372" fill-rule="evenodd" style="fill:#8c72bd"/>
</svg>
