<svg width="192" height="192" fill="none" version="1.1" viewBox="0 0 192 192" xmlns="http://www.w3.org/2000/svg">
 <g clip-rule="evenodd" fill-rule="evenodd">
  <path d="m96 183c48.049 0 87-38.951 87-87 0-48.049-38.951-87-87-87-48.049 0-87 38.951-87 87 0 48.049 38.951 87 87 87z" fill="#56595B"/>
  <path d="m91.423 69.452c3.1381 3.1381 8.226 3.1381 11.364 0 3.138-3.1381 3.138-8.2261 0-11.364-3.1381-3.1382-8.226-3.1382-11.364 0-3.1382 3.1381-3.1382 8.2261 0 11.364z" fill="#FF837D"/>
  <path d="m91.423 136.12c3.1381 3.138 8.226 3.138 11.364 0 3.138-3.139 3.138-8.227 0-11.365-3.1381-3.138-8.226-3.138-11.364 0-3.1382 3.138-3.1382 8.226 0 11.365z" fill="#B1B5BD"/>
  <path d="m108.09 119.46c3.138 3.138 8.226 3.138 11.365 0 3.138-3.139 3.138-8.227 0-11.365-3.139-3.138-8.227-3.138-11.365 0s-3.138 8.226 0 11.365z" fill="#BD9AFF"/>
  <path d="m124.76 102.79c3.138 3.138 8.226 3.138 11.364 0 3.138-3.1386 3.138-8.2265 0-11.365-3.138-3.1381-8.226-3.1381-11.364 0-3.138 3.1382-3.138 8.2261 0 11.365z" fill="#F9DE81"/>
  <path d="m74.755 119.46c3.1381 3.138 8.2261 3.138 11.364 0 3.1381-3.139 3.1381-8.227 0-11.365s-8.2261-3.138-11.364 0-3.1381 8.226 0 11.365z" fill="#96DFD3"/>
  <path d="m91.423 102.79c3.1381 3.138 8.226 3.138 11.364 0 3.138-3.1386 3.138-8.2265 0-11.365-3.1381-3.1381-8.226-3.1381-11.364 0-3.1382 3.1382-3.1382 8.2261 0 11.365z" fill="#9ABEFF"/>
  <path d="m108.09 86.12c3.138 3.1381 8.226 3.1381 11.365 0 3.138-3.1382 3.138-8.2261 0-11.364-3.139-3.1382-8.227-3.1382-11.365 0-3.138 3.1381-3.138 8.226 0 11.364z" fill="#F8C18C"/>
  <path d="m58.088 102.79c3.1382 3.138 8.2261 3.138 11.364 0 3.1382-3.1386 3.1382-8.2265 0-11.365-3.1381-3.1381-8.226-3.1381-11.364 0-3.1381 3.1382-3.1381 8.2261 0 11.365z" fill="#D3B69A"/>
  <path d="m74.755 86.12c3.1381 3.1381 8.2261 3.1381 11.364 0 3.1381-3.1382 3.1381-8.2261 0-11.364-3.1381-3.1382-8.2261-3.1382-11.364 0-3.1381 3.1381-3.1381 8.226 0 11.364z" fill="#98DC9A"/>
 </g>
</svg>
