<svg width="192" height="192" version="1.1" viewBox="0 0 192 192" xmlns="http://www.w3.org/2000/svg">
 <rect x="20" y="20" width="152" height="152" rx="10" style="fill-rule:evenodd;fill:#728dbe"/>
 <path d="m20 42.997c0-5.5209 4.4776-9.9965 9.9985-9.9965h33.568c8.4587 0 11.574 13.256 15.366 13.256h83.064c5.5243 0 10.003 4.4753 10.003 9.9983v105.75c0 5.5219-4.477 9.9983-10.003 9.9983h-131.99c-5.5242 0-10.003-4.4674-10.003-9.9965z" style="fill-rule:evenodd;fill:#9abeff"/>
 <path d="m56.721 79.186c-2.6853 0-4.9062 2.2211-4.9062 4.9082v4.9062h0.0098c-0.0011 0.06103-0.0098 0.12036-0.0098 0.18164v48.986c0 2.734 2.2698 4.9922 5.002 4.9922h78.34c2.7292 0 5.0039-2.2607 5.0039-4.9922v-48.986c0-0.06129-9e-3 -0.12061-0.01-0.18164h0.01v-4.9062c0-2.6836-2.2236-4.9082-4.9082-4.9082h-73.434zm0.10352 9.8145h78.326l0.01 49.168-78.344-8e-3z" style="color-rendering:auto;color:#000000;dominant-baseline:auto;fill-rule:evenodd;fill:#728dbe;font-feature-settings:normal;font-variant-alternates:normal;font-variant-caps:normal;font-variant-ligatures:normal;font-variant-numeric:normal;font-variant-position:normal;image-rendering:auto;isolation:auto;mix-blend-mode:normal;shape-padding:0;shape-rendering:auto;solid-color:#000000;text-decoration-color:#000000;text-decoration-line:none;text-decoration-style:solid;text-indent:0;text-orientation:mixed;text-transform:none;white-space:normal"/>
 <circle cx="60" cy="84" r="3" style="fill-rule:evenodd;fill:#9abeff"/>
</svg>
