<svg width="192" height="192" version="1.1" viewBox="0 0 192 192" xmlns="http://www.w3.org/2000/svg">
 <path d="m95.979 8.0022c-36 0-63.28 17.976-62.398 36.406 0.96572 20.192 2.7446 38.557 4.2656 56.976 1.7406 21.077 2.6433 31.659 4.5391 51.156 2.3114 23.772 26.016 31.613 53.594 31.461 27.578 0.1524 51.282-7.689 53.594-31.461 1.8958-19.497 2.7985-30.078 4.5391-51.156 1.521-18.419 3.2999-36.784 4.2656-56.976 0.88141-18.429-26.398-36.406-62.398-36.406z" style="fill:#d8d8d8;stroke-width:4"/>
 <ellipse cx="96.081" cy="43.222" rx="59.085" ry="32.847" style="fill:#b1b5bd;paint-order:stroke fill markers;stroke-width:4.0044"/>
 <path d="m72.916 31.786 2.0135 14.957-7.3347 11.362 46.548 1.999s9.7769-7.772 16.876-8.6146c2.8091-0.3332 5.2411-0.2128 8.4853-0.144 1.879 0.04 4.22-0.49676 4.4584-3.4516 0.15972-1.98-2.0135-5.6089-2.0135-5.6089l0.43145-3.0202s-30.03-6.0205-40.844-12.081c-2.3569-1.3208-3.9894-5.636-3.164-9.2044 0.74723-3.2304-2.2002-5.1702-3.7393-4.746-9.1816 2.531-13.251 3.3443-20.566 7.4786-1.9598 1.1076-3.8745 3.9577-3.0202 6.0404 0.91011 2.2188 1.8696 5.0336 1.8696 5.0337z" style="fill:#f8c18c;stroke-width:4"/>
 <path d="m97.797 53.648s-4.8115 6.8657-7.2266 15.875c-0.42621 1.5899-0.16056 3.817 1.1563 4.4609 1.5091 0.738 3.1367 1.4078 4.7578 2.0781a59.085 32.847 0 0 0 46.258-12.758z" style="fill:#9abeff;stroke-width:4"/>
 <path d="m57.383 50.055s-4.7822 4.0888-5.0312 10.781c-0.07152 1.9211 0.36568 3.5558 0.89062 4.9844a59.085 32.847 0 0 0 42.836 10.25 59.085 32.847 0 0 0 2.2578-0.0468c-2.7504-1.1318-5.998-2.6595-6.1484-4.1094-0.343-3.3054 3.8828-12.945 3.8828-12.945s-12.762-1.036-18.984-2.4453c-6.7422-1.527-19.703-6.4688-19.703-6.4688z" style="fill:#ff837d"/>
 <path d="m43.424 44.034s6.177-3.0048 10.576-4.1695c0.24956-0.066 0.74779 0.0496 0.71186 0.3052-0.21356 1.5198-1.6595 3.7393-3.3559 4.5763-3.2278 1.5926-5.3371 1.404-7.1186 2.9492-0.80168 0.69528-0.89479 1.0814-1.0169 2.1356-0.25224 2.1768 5.223 8.8963 11.695 9.2542 23.248 1.2856 31.078-11.672 32.136-17.288-3.4299-3.1657-5.4174-4.7966-8.7458-6.8136-1.31-0.79388-2.9428-2.1366-4.4746-2.1356-1.6076 0.0012-2.7507 2.1426-4.3729 2.1356-2.689-0.012-3.9509-2.4986-9.8644-2.5424-4.3808-0.032-16.169 11.593-16.169 11.593z" style="fill:#8c72bd;stroke-width:4"/>
 <path d="m99.07 38.641c-5.6258 0.3196-12.445 2.8546-13.75 6.1016-1.1165 2.778 1.5262 6.0054 1.9375 8.4453 0.2952 1.7513-0.22888 1.7387-0.77344 3.4141-0.80603 2.48-0.23076 3.0987 1.3203 3.375 17.885 3.1861 44.79 5.3518 51.047 5.8438a59.085 32.847 0 0 0 8.625-6.4375l-2.1562-0.90624-1.2188 1.0156s-26.182-19.744-42.711-20.852c-0.73544-0.0492-1.5166-0.0456-2.3203 0z" style="fill:#f9de81;stroke-width:4"/>
</svg>
