<svg xmlns="http://www.w3.org/2000/svg" width="192" height="192" viewBox="0 0 192 192">
  <g fill="none" fill-rule="evenodd">
    <rect width="152" height="152" x="20" y="20" fill="#BD9AFF" rx="10"/>
    <path fill="#000" fill-opacity=".25" d="M172 55.0690859L172 30.0025173C172 24.4770034 167.52172 20 161.997483 20L30.0025173 20C24.4770034 20 20 24.4782795 20 30.0025173L20 41.8667526C20.5977376 36.877596 24.8600859 33 29.9984742 33L63.5667725 33C72.0254898 33 75.1405393 46.256422 78.9328151 46.256422L161.997289 46.256422C167.120475 46.256422 171.374434 50.1039341 172 55.0690882L172 55.0690859zM109.802377 101.24956L109.802377 96.7073063 82.7601232 96.7073063 82.7601232 101.24956 109.802377 101.24956zM109.802377 108.010123L109.802377 103.46787 82.7601232 103.46787 82.7601232 108.010123 109.802377 108.010123zM109.802377 114.770687L109.802377 110.228433 82.7601232 110.228433 82.7601232 114.770687 109.802377 114.770687zM114.34463 87.7284331C115.541818 87.7284331 116.580545 88.1685728 117.460831 89.0488523 118.34111 89.9291385 118.78125 90.9678652 118.78125 92.1650528L118.78125 119.207306C118.78125 120.404494 118.34111 121.460825 117.460831 122.37632 116.580545 123.291816 115.541818 123.74956 114.34463 123.74956L82.7601232 123.74956 73.78125 132.728433 73.78125 92.1650528C73.78125 90.9678652 74.2213865 89.9291385 75.1016725 89.0488523 75.9819587 88.1685728 77.0206808 87.7284331 78.2178697 87.7284331L114.34463 87.7284331z"/>
  </g>
</svg>
