<svg id="SVGRoot" width="16px" height="16px" version="1.1" viewBox="0 0 16 16" xmlns="http://www.w3.org/2000/svg">
 <polygon transform="matrix(.65536 0 0 .65536 46.61 -33.586)" points="66.475 105.04 35.059 105.04 35.69 37.516 69.881 37.516 76 40.665 83.373 38.148 117.17 37.516 116.7 104.31 82.929 105.41 76 108.55" style="fill-opacity:0"/>
 <polygon transform="matrix(.65536 0 0 .65536 -41.588 -36.633)" points="76 108.55 66.475 105.04 35.059 105.04 35.69 37.516 69.881 37.516 76 40.665 83.373 38.148 117.17 37.516 116.7 104.31 82.929 105.41" style="fill-opacity:0"/>
 <path d="m8.7506 0.022848a0.82713 0.82713 0 0 0-0.81458 0.83858v4.9987l-3.6972-3.6972a0.82713 0.82713 0 1 0-1.1695 1.1695l4.8667 4.8667v6.9122a0.82713 0.82713 0 0 0 1.4118 0.58521l3.6275-3.6275a0.82713 0.82713 0 0 0 0-1.1695l-3.3852-3.3853v-6.6528a0.82713 0.82713 0 0 0-0.83951-0.83858zm0.83951 9.8304 1.631 1.631-1.631 1.6306z" style="color-rendering:auto;color:#000000;dominant-baseline:auto;fill:#ececec;font-feature-settings:normal;font-variant-alternates:normal;font-variant-caps:normal;font-variant-ligatures:normal;font-variant-numeric:normal;font-variant-position:normal;image-rendering:auto;isolation:auto;mix-blend-mode:normal;shape-padding:0;shape-rendering:auto;solid-color:#000000;text-decoration-color:#000000;text-decoration-line:none;text-decoration-style:solid;text-indent:0;text-orientation:mixed;text-transform:none;white-space:normal"/>
 <path d="m8.7506 15.95a0.82713 0.82713 0 0 1-0.81458-0.83858v-4.9987l-3.6972 3.6972a0.82713 0.82713 0 1 1-1.1695-1.1695l4.8667-4.8667v-6.9122a0.82713 0.82713 0 0 1 1.4118-0.58521l3.6275 3.6275a0.82713 0.82713 0 0 1 0 1.1695l-3.3852 3.3852v6.6528a0.82713 0.82713 0 0 1-0.83951 0.83858zm0.83951-9.8304 1.631-1.631-1.631-1.6306z" style="color-rendering:auto;color:#000000;dominant-baseline:auto;fill:#ececec;font-feature-settings:normal;font-variant-alternates:normal;font-variant-caps:normal;font-variant-ligatures:normal;font-variant-numeric:normal;font-variant-position:normal;image-rendering:auto;isolation:auto;mix-blend-mode:normal;shape-padding:0;shape-rendering:auto;solid-color:#000000;text-decoration-color:#000000;text-decoration-line:none;text-decoration-style:solid;text-indent:0;text-orientation:mixed;text-transform:none;white-space:normal"/>
</svg>
