<svg id="SVGRoot" width="16px" height="16px" version="1.1" viewBox="0 0 16 16" xmlns="http://www.w3.org/2000/svg">
 <path d="m3 1c-0.554 0-1 0.446-1 1v1c0 0.554 0.446 1 1 1h10c0.554 0 1-0.446 1-1v-1c0-0.554-0.446-1-1-1h-10zm9.5 1a0.5 0.5 0 0 1 0.5 0.5 0.5 0.5 0 0 1-0.5 0.5 0.5 0.5 0 0 1-0.5-0.5 0.5 0.5 0 0 1 0.5-0.5zm-9.5 3c-0.554 0-1 0.446-1 1v1c0 0.554 0.446 1 1 1h10c0.554 0 1-0.446 1-1v-1c0-0.554-0.446-1-1-1h-10zm9.5 1a0.5 0.5 0 0 1 0.5 0.5 0.5 0.5 0 0 1-0.5 0.5 0.5 0.5 0 0 1-0.5-0.5 0.5 0.5 0 0 1 0.5-0.5zm-9.5 3c-0.554 0-1 0.446-1 1v1c0 0.554 0.446 1 1 1h10c0.554 0 1-0.446 1-1v-1c0-0.554-0.446-1-1-1h-10zm9.5 1a0.5 0.5 0 0 1 0.5 0.5 0.5 0.5 0 0 1-0.5 0.5 0.5 0.5 0 0 1-0.5-0.5 0.5 0.5 0 0 1 0.5-0.5zm-9.5 3c-0.554 0-1 0.446-1 1v1c0 0.554 0.446 1 1 1h10c0.554 0 1-0.446 1-1v-1c0-0.554-0.446-1-1-1h-10zm9.5 1a0.5 0.5 0 0 1 0.5 0.5 0.5 0.5 0 0 1-0.5 0.5 0.5 0.5 0 0 1-0.5-0.5 0.5 0.5 0 0 1 0.5-0.5z" style="fill:#ececec;paint-order:stroke fill markers"/>
</svg>
