<svg id="SVGRoot" width="16px" height="16px" version="1.1" viewBox="0 0 16 16" xmlns="http://www.w3.org/2000/svg">
 <path d="m6.1626 5.2025c-0.81406 0.74154-1.9061 0.97267-2.8926 0.71372 0.17509 1.4218 0.9321 3.0411 2.3116 4.4367 1.52 1.5378 3.3084 2.3109 4.8085 2.3744-0.43217-1.1839-0.13873-2.5663 0.84501-3.4622 1.1374-1.0361 1.8234-0.23731 2.7666 0.86095 0.12552 0.14604 0.25548 0.29746 0.39174 0.45057 0.13538 0.15202 0.27076 0.29895 0.40249 0.4419 0.99784 1.0826 1.7798 1.931 0.6413 2.968-0.09288 0.0847-0.18941 0.16259-0.2889 0.23392l3.93e-4 3.98e-4c-2.8503 2.8836-8.1584 2.1886-11.856-1.5522-3.6977-3.7407-4.3847-9.1108-1.5343-11.994l0.00386 0.00396c0.062626-0.06795 0.1287-0.13372 0.19823-0.19705 1.1375-1.0361 1.8235-0.23729 2.7666 0.86092 0.12548 0.14611 0.25551 0.29752 0.39177 0.45061 0.1353 0.15202 0.27077 0.29898 0.40247 0.44187 0.99784 1.0826 1.7797 1.931 0.64129 2.9681z" style="clip-rule:evenodd;fill-rule:evenodd;fill:#ececec;stroke-width:.099174"/>
</svg>
