<svg xmlns="http://www.w3.org/2000/svg" width="192" height="192" viewBox="0 0 192 192">
  <g fill="none" fill-rule="evenodd">
    <rect width="152" height="152" x="20" y="20" fill="#D3B69A" rx="10"/>
    <path fill="#000" fill-opacity=".25" d="M172 55.0690859L172 30.0025173C172 24.4770034 167.52172 20 161.997483 20L30.0025173 20C24.4770034 20 20 24.4782795 20 30.0025173L20 41.8667526C20.5977376 36.877596 24.8600859 33 29.9984742 33L63.5667725 33C72.0254898 33 75.1405393 46.256422 78.9328151 46.256422L161.997289 46.256422C167.120475 46.256422 171.374434 50.1039341 172 55.0690882L172 55.0690859zM101.375 110.734375L101.375 115.984375 82.625 115.984375 82.625 110.734375 101.375 110.734375zM114.625 123.984375L114.625 94.734375 77.375 94.734375 77.375 123.984375 114.625 123.984375zM114.625 81.359375C116.041672 81.359375 117.291664 81.901039 118.375 82.984375 119.458336 84.067711 120 85.317703 120 86.734375L120 123.984375C120 125.401049 119.458336 126.651037 118.375 127.734375 117.291664 128.817714 116.041672 129.359375 114.625 129.359375L77.375 129.359375C75.8749928 129.359375 74.604172 128.817714 73.5625 127.734375 72.5208282 126.651037 72 125.401049 72 123.984375L72 86.734375C72 85.317703 72.5208282 84.067711 73.5625 82.984375 74.604172 81.901039 75.8749928 81.359375 77.375 81.359375L80 81.359375 80 75.984375 85.375 75.984375 85.375 81.359375 106.625 81.359375 106.625 75.984375 112 75.984375 112 81.359375 114.625 81.359375zM109.375 99.984375L109.375 105.359375 82.625 105.359375 82.625 99.984375 109.375 99.984375z"/>
  </g>
</svg>
