<svg xmlns="http://www.w3.org/2000/svg" width="192" height="192" viewBox="0 0 192 192">
  <g fill="none" fill-rule="evenodd">
    <rect width="152" height="152" x="20" y="20" fill="#728DBE" rx="10"/>
    <path fill="#9ABEFF" d="M20,42.9965372 C20,37.4756022 24.4775919,33 29.9984742,33 L63.5667725,33 C72.0254898,33 75.1405393,46.256422 78.9328151,46.256422 L161.997289,46.256422 C167.521634,46.256422 172,50.7317026 172,56.254764 L172,162.001658 C172,167.52359 167.522997,172 161.997483,172 L30.0025173,172 C24.4782795,172 20,167.532652 20,162.003463 L20,42.9965372 Z"/>
    <path fill="#728DBE" d="M118,124 C121.313708,124 124,126.686292 124,130 C124,133.313708 121.313708,136 118,136 C114.686292,136 112,133.313708 112,130 C112,126.686292 114.686292,124 118,124 Z M96,124 C99.3137085,124 102,126.686292 102,130 C102,133.313708 99.3137085,136 96,136 C92.6862915,136 90,133.313708 90,130 C90,126.686292 92.6862915,124 96,124 Z M74,124 C77.3137085,124 80,126.686292 80,130 C80,133.313708 77.3137085,136 74,136 C70.6862915,136 68,133.313708 68,130 C68,126.686292 70.6862915,124 74,124 Z M118,103 C121.313708,103 124,105.686292 124,109 C124,112.313708 121.313708,115 118,115 C114.686292,115 112,112.313708 112,109 C112,105.686292 114.686292,103 118,103 Z M96,103 C99.3137085,103 102,105.686292 102,109 C102,112.313708 99.3137085,115 96,115 C92.6862915,115 90,112.313708 90,109 C90,105.686292 92.6862915,103 96,103 Z M74,103 C77.3137085,103 80,105.686292 80,109 C80,112.313708 77.3137085,115 74,115 C70.6862915,115 68,112.313708 68,109 C68,105.686292 70.6862915,103 74,103 Z M74,82 C77.3137085,82 80,84.6862915 80,88 C80,91.3137085 77.3137085,94 74,94 C70.6862915,94 68,91.3137085 68,88 C68,84.6862915 70.6862915,82 74,82 Z M118,82 C121.313708,82 124,84.6862915 124,88 C124,91.3137085 121.313708,94 118,94 C114.686292,94 112,91.3137085 112,88 C112,84.6862915 114.686292,82 118,82 Z M96,82 C99.3137085,82 102,84.6862915 102,88 C102,91.3137085 99.3137085,94 96,94 C92.6862915,94 90,91.3137085 90,88 C90,84.6862915 92.6862915,82 96,82 Z"/>
  </g>
</svg>
