<svg xmlns="http://www.w3.org/2000/svg" width="192" height="192" viewBox="0 0 192 192">
  <g fill="none" fill-rule="evenodd">
    <rect width="152" height="152" x="20" y="20" fill="#728DBE" rx="10"/>
    <path fill="#9ABEFF" d="M20,42.9965372 C20,37.4756022 24.4775919,33 29.9984742,33 L63.5667725,33 C72.0254898,33 75.1405393,46.256422 78.9328151,46.256422 L161.997289,46.256422 C167.521634,46.256422 172,50.7317026 172,56.254764 L172,162.001658 C172,167.52359 167.522997,172 161.997483,172 L30.0025173,172 C24.4782795,172 20,167.532652 20,162.003463 L20,42.9965372 Z"/>
    <g transform="translate(51 90)">
      <path fill="#000" fill-opacity=".15" d="M70.1030358 26.3149021C78.4453277 26.3149021 81.1901834 27.2490597 81.1901834 27.2490597 84.762714 27.8917903 87.729283 31.064072 88.3085538 34.6392668L88.326082 34.762 88.3150416 34.8411363C87.7468568 38.3340633 84.7231384 41 81.0672504 41L59.1388213 41C55.4885696 41 52.4603421 38.3368291 51.8911991 34.8419661L51.879082 34.76 51.8972687 34.638422C52.4751941 31.0559246 55.4357038 27.8395301 59.0158883 27.2490597 59.0158883 27.2490597 61.760744 26.3149021 70.1030358 26.3149021zM88.410082 33.653L88.4109897 35.8994275C88.4109897 35.5608097 88.3885392 35.2235386 88.3450722 34.889326L88.326082 34.762 88.3492628 34.6070695C88.3798061 34.3718179 88.3992558 34.1330725 88.4070717 33.891378L88.410082 33.653zM51.795082 33.653L51.7990073 33.8915747C51.8068378 34.1334579 51.8263233 34.3723683 51.8569195 34.6077632L51.879082 34.76 51.8608363 34.8889292C51.8283139 35.1399736 51.8075883 35.3925442 51.7992581 35.6458736L51.795082 35.8994275 51.795082 33.653zM69.9517304 0C75.8011871 0 80.5431087 4.75904729 80.5431087 10.6296296 80.5431087 16.500212 75.8011871 21.2592593 69.9517304 21.2592593 64.1022737 21.2592593 59.3603522 16.500212 59.3603522 10.6296296 59.3603522 4.75904729 64.1022737 0 69.9517304 0zM18.3079539 26.3149021C26.6502457 26.3149021 29.3951014 27.2490597 29.3951014 27.2490597 32.9676321 27.8917903 35.934201 31.064072 36.5134718 34.6392668L36.531 34.762 36.5199597 34.8411363C35.9517748 38.3340633 32.9280564 41 29.2721684 41L7.34373933 41C3.69348761 41 .665260129 38.3368291.0961171497 34.8419661L.084 34.76.10218675 34.638422C.680112121 31.0559246 3.64062184 27.8395301 7.22080629 27.2490597 7.22080629 27.2490597 9.96566201 26.3149021 18.3079539 26.3149021zM36.615 33.653L36.6159077 35.8994275C36.6159077 35.5608097 36.5934573 35.2235386 36.5499903 34.889326L36.531 34.762 36.5541808 34.6070695C36.5847241 34.3718179 36.6041738 34.1330725 36.6119898 33.891378L36.615 33.653zM0 33.653L.00392532512 33.8915747C.0117558156 34.1334579.0312413227 34.3723683.0618375324 34.6077632L.084 34.76.0657542882 34.8889292C.0332319123 35.1399736.0125063131 35.3925442.00417616205 35.6458736L-3.55271368e-15 35.8994275 0 33.653zM18.1566485 0C24.0061051 0 28.7480267 4.75904729 28.7480267 10.6296296 28.7480267 16.500212 24.0061051 21.2592593 18.1566485 21.2592593 12.3071918 21.2592593 7.56527019 16.500212 7.56527019 10.6296296 7.56527019 4.75904729 12.3071918 0 18.1566485 0z"/>
      <path fill="#728DBE" d="M45.2997571,26.3149021 C53.642049,26.3149021 56.3869047,27.2490597 56.3869047,27.2490597 C59.9594354,27.8917903 62.9260043,31.064072 63.5052751,34.6392668 L63.5228033,34.762 L63.5117629,34.8411363 C62.9435781,38.3340633 59.9198597,41 56.2639717,41 L34.3355426,41 C30.6852909,41 27.6570634,38.3368291 27.0879204,34.8419661 L27.0758033,34.76 L27.09399,34.638422 C27.6719154,31.0559246 30.6324251,27.8395301 34.2126096,27.2490597 C34.2126096,27.2490597 36.9574653,26.3149021 45.2997571,26.3149021 Z M63.6068033,33.653 L63.607711,35.8994275 C63.607711,35.5608097 63.5852605,35.2235386 63.5417935,34.889326 L63.5228033,34.762 L63.5459841,34.6070695 C63.5765274,34.3718179 63.5959771,34.1330725 63.603793,33.891378 L63.6068033,33.653 Z M26.9918033,33.653 L26.9957286,33.8915747 C27.0035591,34.1334579 27.0230446,34.3723683 27.0536408,34.6077632 L27.0758033,34.76 L27.0575576,34.8889292 C27.0250352,35.1399736 27.0043096,35.3925442 26.9959794,35.6458736 L26.9918033,35.8994275 L26.9918033,33.653 Z M45.1484517,0 C50.9979084,0 55.73983,4.75904729 55.73983,10.6296296 C55.73983,16.500212 50.9979084,21.2592593 45.1484517,21.2592593 C39.298995,21.2592593 34.5570735,16.500212 34.5570735,10.6296296 C34.5570735,4.75904729 39.298995,0 45.1484517,0 Z"/>
    </g>
  </g>
</svg>
