<svg xmlns="http://www.w3.org/2000/svg" width="192" height="192" viewBox="0 0 192 192">
  <g fill="none" fill-rule="evenodd">
    <rect width="152" height="152" x="20" y="20" fill="#728DBE" rx="10"/>
    <path fill="#9ABEFF" d="M20,42.9965372 C20,37.4756022 24.4775919,33 29.9984742,33 L63.5667725,33 C72.0254898,33 75.1405393,46.256422 78.9328151,46.256422 L161.997289,46.256422 C167.521634,46.256422 172,50.7317026 172,56.254764 L172,162.001658 C172,167.52359 167.522997,172 161.997483,172 L30.0025173,172 C24.4782795,172 20,167.532652 20,162.003463 L20,42.9965372 Z"/>
    <path stroke="#728DBE" stroke-width="5" d="M66.5,77.0055355 L66.5,145.340782 C66.5,149.491165 69.853734,152.846317 73.9960811,152.846317 L122.981562,152.846317 C124.355337,152.846317 125.474919,151.725158 125.474919,150.343306 L125.474919,72.0030112 C125.474919,70.6191091 124.35785,69.5 122.981562,69.5 L73.9960811,69.5 C69.8552638,69.5 66.5,72.8589555 66.5,77.0055355 Z" transform="rotate(90 95.987 111.173)"/>
    <path stroke="#728DBE" stroke-width="5" d="M98.3946102,125.766008 L98.3946102,42.4196909 L95.9874596,42.4196909 C94.6612326,42.4196909 93.5803091,43.4998333 93.5803091,44.8271013 L93.5803091,123.358598 C93.5803091,124.68315 94.6617738,125.766008 95.9874596,125.766008 L98.3946102,125.766008 Z" transform="rotate(90 95.987 84.093)"/>
    <circle cx="60" cy="84" r="3" fill="#9ABEFF"/>
  </g>
</svg>
