<svg xmlns="http://www.w3.org/2000/svg" width="192" height="192" viewBox="0 0 192 192">
  <g fill="none" fill-rule="evenodd">
    <rect width="152" height="152" x="20" y="20" fill="#728DBE" rx="10"/>
    <path fill="#9ABEFF" d="M20,42.9965372 C20,37.4756022 24.4775919,33 29.9984742,33 L63.5667725,33 C72.0254898,33 75.1405393,46.256422 78.9328151,46.256422 L161.997289,46.256422 C167.521634,46.256422 172,50.7317026 172,56.254764 L172,162.001658 C172,167.52359 167.522997,172 161.997483,172 L30.0025173,172 C24.4782795,172 20,167.532652 20,162.003463 L20,42.9965372 Z"/>
    <path fill="#728DBE" d="M25.0962963,35.9423053 C36.5317975,35.9423053 41.344086,37.3758999 41.344086,37.3758999 C45.8755707,38.2038383 49.6114642,42.3519952 50.1308987,46.9145252 L50.139,47.002 L50.1316409,47.0824629 C49.577857,52.0982533 45.3186945,56 40.1560066,56 L10.036586,56 C4.86933285,56 0.614116556,52.0975302 0.0608887356,47.0823158 L0.052,47 L0.061641646,46.9135001 C0.580649095,42.3428679 4.3137264,38.1429409 8.84850656,37.3758999 C8.84850656,37.3758999 13.6607951,35.9423053 25.0962963,35.9423053 Z M50.1925926,45.9715036 L50.1925926,47.9943068 C50.1925926,47.7231506 50.180806,47.4526397 50.1577255,47.1833654 L50.139,47.002 L50.1581557,46.8077862 C50.1733599,46.6239543 50.1835971,46.4387162 50.1887326,46.2522061 L50.1925926,45.9715036 Z M0,45.9715036 C0,46.2530843 0.0116178666,46.5319579 0.0344008353,46.8076719 L0.052,47 L0.0348370983,47.1827653 C0.0194630584,47.3625297 0.00910458356,47.5427719 0.00390716033,47.7233072 L0,47.9943068 Z M24.8888889,0 C32.9072453,0 39.4074074,6.50016215 39.4074074,14.5185185 C39.4074074,22.5368749 32.9072453,29.037037 24.8888889,29.037037 C16.8705325,29.037037 10.3703704,22.5368749 10.3703704,14.5185185 C10.3703704,6.50016215 16.8705325,0 24.8888889,0 Z" transform="translate(71 80)"/>
  </g>
</svg>
