<?xml version="1.0" encoding="UTF-8" standalone="no"?>
<svg
   width="192"
   height="192"
   version="1.1"
   viewBox="0 0 192 192"
   id="svg10626"
   sodipodi:docname="application-x-executable.svg"
   inkscape:version="1.2.2 (b0a8486541, 2022-12-01)"
   xmlns:inkscape="http://www.inkscape.org/namespaces/inkscape"
   xmlns:sodipodi="http://sodipodi.sourceforge.net/DTD/sodipodi-0.dtd"
   xmlns="http://www.w3.org/2000/svg"
   xmlns:svg="http://www.w3.org/2000/svg">
  <defs
     id="defs10630" />
  <sodipodi:namedview
     id="namedview10628"
     pagecolor="#ffffff"
     bordercolor="#000000"
     borderopacity="0.25"
     inkscape:showpageshadow="2"
     inkscape:pageopacity="0.0"
     inkscape:pagecheckerboard="0"
     inkscape:deskcolor="#d1d1d1"
     showgrid="false"
     inkscape:zoom="2.6744792"
     inkscape:cx="121.33203"
     inkscape:cy="161.15287"
     inkscape:window-width="3440"
     inkscape:window-height="1371"
     inkscape:window-x="0"
     inkscape:window-y="0"
     inkscape:window-maximized="1"
     inkscape:current-layer="g461" />
  <path
     d="m 95.999864,7.9990137 c -2.5979,1.71e-5 -5.1951,0.97539 -7.1481,2.9282993 l -77.924,77.924 c -3.9058989,3.9059 -3.9052989,10.39 0,14.296997 v 0.002 l 77.924,77.922 c 3.9059,3.9045 10.393,3.9053 14.298996,0 l 77.922,-77.922 c 3.9053,-3.905297 3.9045,-10.391997 0,-14.298997 l -0.002,-0.002 -77.92,-77.922 h -0.002 c -1.953,-1.9526993 -4.550096,-2.9282993 -7.147996,-2.9282993 z"
     style="color:#000000;font-variant-ligatures:normal;font-variant-position:normal;font-variant-caps:normal;font-variant-numeric:normal;font-variant-alternates:normal;font-feature-settings:normal;text-indent:0;text-decoration-line:none;text-decoration-style:solid;text-decoration-color:#000000;text-transform:none;text-orientation:mixed;dominant-baseline:auto;white-space:normal;shape-padding:0;isolation:auto;mix-blend-mode:normal;solid-color:#000000;fill:#9abeff;stroke-width:1.011;color-rendering:auto;image-rendering:auto;shape-rendering:auto"
     id="path10612" />
  <text
     xml:space="preserve"
     style="font-weight:bold;font-size:37.3333px;font-family:Now;-inkscape-font-specification:'Now Bold';fill:#96dfd3;stroke:#98dc9a;stroke-width:16;stroke-linecap:round;stroke-linejoin:round"
     x="226.92357"
     y="92.943771"
     id="text287"><tspan
       sodipodi:role="line"
       id="tspan285"
       x="226.92357"
       y="92.943771" /></text>
  <text
     xml:space="preserve"
     style="font-weight:bold;font-size:37.3333px;font-family:Now;-inkscape-font-specification:'Now Bold';fill:#96dfd3;stroke:#98dc9a;stroke-width:16;stroke-linecap:round;stroke-linejoin:round"
     x="85.547066"
     y="105.56666"
     id="text895"><tspan
       sodipodi:role="line"
       id="tspan893"
       x="85.547066"
       y="105.56666"
       style="font-style:normal;font-variant:normal;font-weight:bold;font-stretch:normal;font-family:Aleo;-inkscape-font-specification:'Aleo Bold';fill:none;stroke:none">x</tspan></text>
  <g
     id="g461"
     transform="matrix(0,-1.0733665,1.0733665,0,-189.75169,1250.2442)">
    <path
       fill="#d8d8d8"
       fill-rule="evenodd"
       d="m 1059.6758,300.29502 2.72,-4.647 a 20.615,20.615 0 0 0 6.956,0.193 l 2.765,4.724 a 25.403,25.403 0 0 0 7.34,-2.926 l -1.371,-5.24 a 20.52,20.52 0 0 0 5.116,-5.116 l 5.24,1.371 a 25.399,25.399 0 0 0 2.926,-7.34 l -4.724,-2.765 c 0.136,-0.952 0.206,-1.925 0.206,-2.915 0,-1.384 -0.137,-2.735 -0.399,-4.041 l 4.647,-2.72 a 25.443,25.443 0 0 0 -3.323,-7.324 l -5.344,1.399 a 20.506,20.506 0 0 0 -4.62,-4.268 l 1.365,-5.216 a 25.399,25.399 0 0 0 -7.703,-2.899 l -2.796,4.777 a 20.62,20.62 0 0 0 -5.626,0.158 l -2.746,-4.69 a 25.426,25.426 0 0 0 -7.676,3.305 l 1.39,5.315 a 20.538,20.538 0 0 0 -3.786,3.787 l -5.315,-1.39 a 25.426,25.426 0 0 0 -3.306,7.675 l 4.69,2.745 a 20.561,20.561 0 0 0 -0.157,5.627 l -4.777,2.796 a 25.398,25.398 0 0 0 2.9,7.703 l 5.215,-1.365 a 20.506,20.506 0 0 0 4.268,4.62 l -1.399,5.344 a 25.443,25.443 0 0 0 7.324,3.323 z m 16.604,-24.661 c 0,5.436 -4.407,9.843 -9.843,9.843 -5.436,0 -9.843,-4.407 -9.843,-9.843 0,-5.436 4.407,-9.843 9.843,-9.843 5.436,0 9.843,4.407 9.843,9.843 z"
       clip-rule="evenodd"
       id="path295"
       style="fill:#54688c" />
    <path
       fill="#d8d8d8"
       fill-rule="evenodd"
       d="m 1084.5788,259.33502 2.575,-1.951 a 12.32,12.32 0 0 0 3.811,1.704 l 0.448,3.254 c 1.59,0.272 3.189,0.286 4.741,0.063 l 0.443,-3.22 a 12.313,12.313 0 0 0 4.01,-1.66 l 2.59,1.962 a 15.242,15.242 0 0 0 3.308,-3.397 l -1.984,-2.617 a 12.386,12.386 0 0 0 1.49,-3.9 l 3.2,-0.44 a 15.237,15.237 0 0 0 -0.16,-4.823 l -3.283,-0.453 a 12.35,12.35 0 0 0 -1.581,-3.426 l 1.954,-2.578 a 15.24,15.24 0 0 0 -3.605,-3.376 l -2.646,2.006 a 12.442,12.442 0 0 0 -3.155,-1.204 l -0.445,-3.23 a 15.254,15.254 0 0 0 -5.014,0.07 l -0.45,3.265 a 12.345,12.345 0 0 0 -2.969,1.23 l -2.626,-1.992 a 15.247,15.247 0 0 0 -3.595,3.497 l 1.969,2.598 a 12.43,12.43 0 0 0 -1.379,3.083 l -3.29,0.453 a 15.223,15.223 0 0 0 -0.161,4.936 l 3.204,0.441 a 12.338,12.338 0 0 0 1.305,3.54 l -2.002,2.642 a 15.24,15.24 0 0 0 3.297,3.523 z m 14.866,-9.858 a 5.906,5.906 0 1 1 -10.912,-4.52 5.906,5.906 0 0 1 10.912,4.52 z"
       clip-rule="evenodd"
       id="path297"
       style="fill:#ffffff" />
  </g>
</svg>
