<svg version="1.1" viewBox="0 0 192 192" xmlns="http://www.w3.org/2000/svg">
 <path d="m33 18.996c0-5.5205 4.4729-9.9958 10.001-9.9958h80.821l35.178 35v129c0 5.5209-4.4844 9.9965-9.9923 9.9965h-106.02c-5.5186 0-9.9923-4.476-9.9923-9.9958z" style="fill:#FFF"/>
 <path d="m33 18.997c0-5.5212 4.4729-9.997 10.001-9.997h80.821l35.178 35c0 2.1095-4.4844 3.8196-9.9923 3.8196h-116.01z" style="fill:#728DBE"/>
 <path d="m120 13.998c0-5.5218 3.1644-6.8337 7.0694-2.9287l29.861 29.861c3.9043 3.9043 2.5878 7.0694-2.9287 7.0694h-24.004c-5.5218 0-9.998-4.4815-9.998-9.998z" style="fill:#F9DE81"/>
 <path d="m96.494 69.705c-3.5049 0.01633-6.852 0.31602-9.7971 0.83849-8.6759 1.5367-10.251 4.7531-10.251 10.685v7.8339h20.502v2.6113h-28.197c-5.9585 0-11.176 3.5906-12.808 10.421-1.8824 7.8295-1.9659 12.715 0 20.89 1.4574 6.0853 4.9378 10.421 10.896 10.421h7.0492v-9.3911c0-6.7845 5.8551-12.769 12.808-12.769h20.478c5.7005 0 10.251-4.7057 10.251-10.445v-19.573c0-5.5705-4.6873-9.7551-10.251-10.685-3.522-0.58779-7.1764-0.85482-10.681-0.83849zm-11.087 6.3007c2.1177 0 3.8472 1.7622 3.8472 3.9289-1e-6 2.1591-1.7294 3.905-3.8472 3.905-2.1253-1e-6 -3.8472-1.7459-3.8472-3.905 0-2.1667 1.7218-3.9289 3.8472-3.9289z" style="fill:#728DBE"/>
 <path d="m119.98 91.674v9.1276c0 7.0765-5.9841 13.033-12.808 13.033h-20.478c-5.6094 0-10.251 4.8132-10.251 10.445v19.573c0 5.5705 4.8315 8.8471 10.251 10.445 6.4899 1.9132 12.713 2.259 20.478 0 5.1615-1.4983 10.251-4.5136 10.251-10.445v-7.8339h-20.478v-2.6113h30.73c5.9585 0 8.1789-4.1669 10.251-10.421 2.1405-6.4388 2.0494-12.631 0-20.89-1.4726-5.947-4.285-10.421-10.251-10.421zm-11.518 49.567c2.1253 1e-5 3.8472 1.7459 3.8472 3.905-1e-5 2.1667-1.7218 3.9289-3.8472 3.9289-2.1178 0-3.8472-1.7622-3.8472-3.9289 1e-5 -2.1591 1.7294-3.905 3.8472-3.905z" style="fill:#F9DE81"/>
</svg>
