<svg width="192" height="192" version="1.1" viewBox="0 0 192 192" xmlns="http://www.w3.org/2000/svg">
 <path d="m123.12 8.8242c-0.37766-0.016812-0.7299 0.042092-1.0508 0.17578h-79.064c-5.5281 0-10.002 4.4756-10.002 9.9961l-0.003906 154c0 5.5198 4.4736 9.9961 9.9922 9.9961h106.02c5.5079 0 9.9922-4.4752 9.9922-9.9961v-127.08c0.22788-0.55364 0.22259-1.2027 0-1.9141v-0.009766l-0.00391-0.003906c-0.29397-0.92843-0.96635-1.9664-2.0664-3.0664l-29.859-29.861c-1.4644-1.4644-2.8249-2.1939-3.9531-2.2441z" style="fill-rule:evenodd;fill:#f8c18c"/>
 <path d="m120 13.998c0-5.5218 3.1644-6.8337 7.0694-2.9287l29.861 29.861c3.9043 3.9043 2.5878 7.0694-2.9287 7.0694h-24.004c-5.5218 0-9.998-4.4815-9.998-9.998z" style="fill-rule:evenodd;opacity:.25"/>
 <path d="m43 20.191v0.009766 151.88h105v-124.08h-18.002c-5.18 0-9.4397-3.9439-9.9473-8.9863-0.03381-0.33265-0.05045-0.6703-0.05078-1.0117v-0.009765-17.801h-77z" style="fill:#56595b;stroke-width:.9567"/>
 <path d="m115.9 73.883c-2.6934 0-4.9605 2.1979-4.9605 4.9622 0 2.6934 2.2671 4.9605 4.9605 4.9605s4.9622-2.2671 4.9622-4.9605c0-2.7642-2.2688-4.9622-4.9622-4.9622zm-33.786 0.49605-15.31 42.527h9.9944l2.6222-8.0086h15.877l2.6222 8.0086h9.9944l-15.31-42.527h-10.489zm5.2444 9.8525 5.4582 16.869h-10.917l5.4582-16.869zm24.005 4.3242v28.35h9.0021v-28.35z" style="fill:#f8c18c;stroke-width:1.4175"/>
</svg>
