<svg width="192" height="192" version="1.1" viewBox="0 0 192 192" xmlns="http://www.w3.org/2000/svg">
 <path d="m33 18.996c0-5.5205 4.4729-9.9958 10.001-9.9958h80.821l35.178 35v129c0 5.5209-4.4844 9.9965-9.9923 9.9965h-106.02c-5.5186 0-9.9923-4.476-9.9923-9.9958z" style="fill-rule:evenodd;fill:#ff837d"/>
 <path d="m120 13.998c0-5.5218 3.1644-6.8337 7.0694-2.9287l29.861 29.861c3.9043 3.9043 2.5878 7.0694-2.9287 7.0694h-24.004c-5.5218 0-9.998-4.4815-9.998-9.998z" style="fill-rule:evenodd;fill:#ba6561"/>
 <path d="m96.492 70.711c-3.78 0.04603-6.899 3.0816-7.0723 6.8594-0.03873 0.84454 0.07144 1.6713 0.30664 2.4414 0.25939 0.85006 0.69462 1.6055 1.2422 2.2422l0.8418 0.97852c0.0019 2e-3 0.0039 0.0039 0.0059 0.0059l1.955 2.2617-12.691 22.1-3.7207 0.48242c-0.0039 6.4e-4 -0.0078 1e-3 -0.01172 2e-3l-1.1484 0.1543c-0.0039 6.4e-4 -0.0078 1e-3 -0.01172 2e-3 -0.16656 0.0232-0.34547 0.0582-0.53711 0.11329-0.0078 2e-3 -0.01564 4e-3 -0.02344 6e-3 -1.1088 0.33012-2.1624 0.94102-3.0312 1.8144-2.7967 2.812-2.7733 7.4431 0.0625 10.227v2e-3c2.6977 2.6467 7.0537 2.7251 9.8418 0.16993 0.62333-0.57109 1.1284-1.2349 1.5039-1.9473 0.4147-0.78583 0.63877-1.6309 0.69922-2.4688l0.0918-1.291c6.55e-4 -3e-3 0.0013-5e-3 2e-3 -8e-3l0.16797-2.4355h23.848l0.35742 2.7949c6.5e-4 3e-3 1e-3 7e-3 2e-3 0.01l0.15234 1.1562c6.4e-4 5e-3 1e-3 9e-3 2e-3 0.0137 0.0228 0.16469 0.0579 0.34309 0.11328 0.53711 2e-3 7e-3 4e-3 0.0143 6e-3 0.0215 0.32643 1.1059 0.92837 2.1621 1.7988 3.0371 2.7967 2.8119 7.4428 2.7893 10.211-0.0625 2.6325-2.7123 2.7092-7.0556 0.16992-9.8574-0.56808-0.62732-1.2284-1.1352-1.9394-1.5137-0.78476-0.41911-1.6288-0.64507-2.4668-0.70703h-4e-3l-1.2832-0.0937h-6e-3l-3.4102-0.23828-12.695-22.109 2.0371-2.6543c3e-3 -0.0032 5e-3 -0.0065 8e-3 -0.0098l0.69532-0.91602 8e-3 -0.0098c0.11154-0.14626 0.21419-0.30334 0.30469-0.4668 5e-3 -0.0078 9e-3 -0.0156 0.0137-0.02344 0.54901-1.0171 0.86328-2.1918 0.86328-3.4238 0-3.9656-3.2821-7.2435-7.2559-7.1953zm0.0625 5c1.2367-0.015 2.1953 0.9365 2.1953 2.1953 0 0.37432-0.09654 0.70584-0.25391 1.0098l-0.60742 0.79883-1.1797 1.5371-1.1094-1.2812-0.83984-0.97656c-0.12667-0.14729-0.20908-0.30076-0.25195-0.44141v-2e-3c-0.0712-0.2331-0.10615-0.4807-0.09375-0.75195 0.053-1.1548 1.0102-2.0741 2.1406-2.0879zm0.26758 14.516 9.8711 17.195h-19.744zm17.057 22.4 1.6953 0.11914 1.2773 0.0918c0.19001 0.014 0.35328 0.064 0.47852 0.13086l4e-3 2e-3c0.20956 0.11137 0.40506 0.2614 0.58399 0.45899h2e-3c0.76868 0.84814 0.74477 2.1959-0.0527 3.0176-0.87186 0.8982-2.2008 0.90167-3.0781 0.0195-0.25923-0.2606-0.42404-0.56396-0.52734-0.89258l-0.13281-0.99805zm-33.951 0.16602-0.11914 1.7148-0.09375 1.2891c-0.01416 0.19617-0.06412 0.36396-0.13281 0.49414v2e-3c-0.11312 0.21476-0.26221 0.41151-0.45898 0.5918l-2e-3 2e-3c-0.84109 0.77082-2.1442 0.74661-2.9609-0.0547-0.89299-0.87651-0.89667-2.2508-0.01953-3.1328 0.26134-0.26271 0.55954-0.42579 0.88086-0.52734l0.98633-0.13086z" style="clip-rule:evenodd;color-rendering:auto;color:#000000;dominant-baseline:auto;fill-rule:evenodd;fill:#fff;font-feature-settings:normal;font-variant-alternates:normal;font-variant-caps:normal;font-variant-ligatures:normal;font-variant-numeric:normal;font-variant-position:normal;image-rendering:auto;isolation:auto;mix-blend-mode:normal;shape-padding:0;shape-rendering:auto;solid-color:#000000;text-decoration-color:#000000;text-decoration-line:none;text-decoration-style:solid;text-indent:0;text-orientation:mixed;text-transform:none;white-space:normal"/>
</svg>
