<?xml version="1.0" encoding="UTF-8"?><svg id="a" xmlns="http://www.w3.org/2000/svg" version="1.1" viewBox="0 0 192 192"><path d="m160 49.169h-128v-30.618c0-4.7371 4.46-8.5507 10-8.5507h81.816z" style="fill:#9abeff"/><path d="m160 46.184v127.26c0 4.7371-4.46 8.5507-10 8.5507h-108c-5.54 0-10-3.8136-10-8.5507l-2e-6-124.28h123.33z" style="fill:#fff"/><path d="m120.82 15.177c0-5.5218 3.1644-6.8337 7.0694-2.9287l29.861 29.861c3.9043 3.9043 2.5878 7.0694-2.9287 7.0694h-24.004c-5.5218 0-9.998-4.4815-9.998-9.998z" style="fill:#728dbe"/><path d="m73.072 142.99-16.772-16.776c-1.7224-1.7727-2.7961-4.2668-2.7961-6.7105 0-1.1296.6375-2.8967 1.1184-3.9145l13.421-27.961h49.766l20.695 20.691v34.671z" style="fill:#728dbe"/><path d="m68.039 87.624v45.296c0 4.4849.5648 5.5865 2.7961 7.8289l17.336 17.336h35.23v-15.099zm52.566 2.7961-14.539-14.539c-1.2694-1.275-3.9145-2.7961-6.1513-2.7961-1.9237 0-3.8082.38586-5.0329 1.1184l-26.842 13.421z" style="fill:#9abeff"/></svg>
