<svg width="192" height="192" version="1.1" viewBox="0 0 192 192" xmlns="http://www.w3.org/2000/svg">
 <path d="m33 18.996c0-5.5205 4.4729-9.9958 10.001-9.9958h80.821l35.178 35v129c0 5.5209-4.4844 9.9965-9.9923 9.9965h-106.02c-5.5186 0-9.9923-4.476-9.9923-9.9958z" style="fill-rule:evenodd;fill:#d3b69a"/>
 <path d="m120 13.998c0-5.5218 3.1644-6.8337 7.0694-2.9287l29.861 29.861c3.9043 3.9043 2.5878 7.0694-2.9287 7.0694h-24.004c-5.5218 0-9.998-4.4815-9.998-9.998z" style="fill-rule:evenodd;fill:#8e6f60"/>
 <path d="m123.15 71.793c-0.36487-0.05633-0.78324 0.36472-1.1139 1.3566-0.58143 1.7434-4.2276 12.569-22.991 15.618a8.9275 8.9275 0 0 0-10.556 0.73014c-11.215-0.77233-16.049-10.727-16.049-10.727l-0.29318 12.621a7.6047 7.6047 0 0 0-1.1951 4.0764 7.6047 7.6047 0 0 0 0.59662 2.928c-0.07286 0.12779-0.14952 0.2556-0.23342 0.38467a11.407 8.1009 54.192 0 0-0.30251-0.44723 11.407 8.1009 54.192 1 0-13.139 9.4787 11.407 8.1009 54.192 0 0 11.341 5.477c10.624 7.81 30.297 14.58 43.133 5.6478 2.5892 1.4287 5.4301 2.8019 8.0679 3.6843 3e-3 0.16311 0.0204 0.32003 0.0626 0.4631l0.63303-0.23996c0.0991 0.03 0.20139 0.0677 0.2997 0.0961l0.26518 0.25676 5.9466 2.1708c-0.22297 2.0728 0.89987 4.4444 3.491 5.4359 4.7034 1.7996 9.0763 4.0531 9.0763 4.0531-2.2436-7.6157-3.0393-13.663-8.9026-13.125-1.0695 0.0982-1.9112 0.52287-2.5209 1.14l-5.3052-3.3986-0.3576-0.0308c-0.0855-0.0619-0.17974-0.12156-0.26704-0.183l-0.197-0.62929c-0.10874 0.0681-0.22356 0.159-0.33986 0.26235-1.8267-1.2185-3.9701-2.3428-6.1305-3.3276 6.5432-7.2433 10.187-20.36 7.7738-42.266-0.11696-0.91673-0.42877-1.4497-0.79363-1.506z" style="color:#000000;fill-rule:evenodd;fill:#fff;stroke-width:.47804"/>
</svg>
