<svg width="192" height="192" version="1.1" viewBox="0 0 192 192" xmlns="http://www.w3.org/2000/svg">
 <path d="m33 18.996c0-5.5205 4.4729-9.9958 10.001-9.9958h80.821l35.178 35v129c0 5.5209-4.4844 9.9965-9.9923 9.9965h-106.02c-5.5186 0-9.9923-4.476-9.9923-9.9958z" style="fill-rule:evenodd;fill:#9abeff"/>
 <path d="m120 13.998c0-5.5218 3.1644-6.8337 7.0694-2.9287l29.861 29.861c3.9043 3.9043 2.5878 7.0694-2.9287 7.0694h-24.004c-5.5218 0-9.998-4.4815-9.998-9.998z" style="fill-rule:evenodd;fill:#728dbe"/>
 <path d="m43 20.201v151.88h105v-124.09h-18.002c-5.5218 0-9.998-4.4815-9.998-9.998v-17.801h-77z" style="fill:#56595b;stroke-width:.9567"/>
 <path d="m68.938 74.347v42.738h9.4033v-17.309h8.7618c7.1943 0 12.75-5.3425 12.75-12.537 0-7.123-5.5556-12.892-12.75-12.892h-18.165zm9.4033 8.2633h7.2663c2.9916 0 5.2705 1.9235 5.2705 4.7015 0 2.8492-2.2788 4.7015-5.2705 4.7015h-7.2663v-9.4033zm35.322 5.4131c-6.4819 0-10.615 4.2739-10.615 9.1173 0 5.6984 5.6983 7.6213 8.9747 8.8321 2.5642 0.99719 3.4191 1.7102 3.4191 2.7075 0 1.1397-0.99674 1.7808-2.4925 1.7808s-3.4898-0.57097-4.772-2.9928l-6.6955 3.3486c1.7096 4.4162 6.9808 6.8382 12.038 6.8382 6.4107 0 10.327-3.918 10.327-9.2598 0-5.6984-4.7016-7.9769-8.7618-9.5441-2.0657-0.85476-3.0633-1.2831-3.0633-2.3516 0-0.92598 0.71235-1.6382 2.2794-1.6382 1.852 0 3.5631 0.9978 4.4178 2.0663l4.557-5.1295c-2.1369-2.1369-5.6255-3.775-9.6145-3.775z" style="fill:#9abeff;stroke-width:1.4246"/>
</svg>
