<svg id="Clover" width="192" height="192" enable-background="new 0 0 512 512" version="1.1" viewBox="0 0 98304 98304" xml:space="preserve" xmlns="http://www.w3.org/2000/svg"><circle cx="49152" cy="49152" r="45056" style="fill-rule:evenodd;fill:#98dc9a"/><path d="m43696 62661c2349.2 0 4527.7-1655.2 4296.9-3993-157.02-1590.5-901.38-3016.6-716.52-6614.1 94.91-1846.9 386.19-1808.6-1478.3-1775.5-3867.2 0-10754 1651-11069 5255.1-393.4 3440.1 2419.4 5398.7 5138.2 4728.3 689.04 1420 2144.4 2399.2 3828.7 2399.2z" style="fill:#fff;paint-order:normal"/><path d="m63509 54209c0-2349.2-1655.2-4527.7-3993-4296.9-1590.5 157.02-3016.6 901.37-6614.2 716.51-1846.9-94.903-1808.6-386.18-1775.5 1478.3 0 3867.2 1651 10754 5255.1 11069 3440.1 393.39 5398.7-2419.4 4728.4-5138.2 1420-689.04 2399.2-2144.4 2399.2-3828.7z" style="fill:#fff;paint-order:normal"/><path d="m55057 34397c-2349.2 0-4527.7 1655.2-4296.9 3993 157.02 1590.5 901.37 3016.6 716.51 6614.1-94.91 1846.9-386.19 1808.6 1478.3 1775.5 3867.2 0 10754-1651 11069-5255.1 393.39-3440.1-2419.4-5398.7-5138.2-4728.3-689.04-1420-2144.4-2399.2-3828.7-2399.2z" style="fill:#fff;paint-order:normal"/><path d="m35244 42849c0 2349.2 1655.2 4527.7 3993 4296.9 1590.5-157.02 3016.6-901.37 6614.1-716.51 1846.9 94.903 1808.6 386.18 1775.5-1478.3 0-3867.2-1651-10754-5255.1-11069-3440.1-393.39-5398.7 2419.4-4728.3 5138.2-1420 689.04-2399.2 2144.4-2399.2 3828.7z" style="fill:#fff;paint-order:normal"/></svg>
