<svg width="192" height="192" version="1.1" viewBox="0 0 192 192" xmlns="http://www.w3.org/2000/svg">
 <rect x="20" y="20" width="152" height="152" rx="10" fill="#56595B"/>
 <path d="m114.91 83.92c-0.54-10.08-9.27-18-19.71-17.46-10.26 0.54-18.45 8.91-18 19.17 0.45 10.62 9.9 17.37 18.18 17.28 1.8 0 3.24-0.36 4.41-0.72l-15.84 18.81h7.29l18.99-24.03c2.97-3.6 4.86-8.01 4.68-13.05zm-18.09 14.13c-7.65 0.45-13.59-4.86-14.04-12.51-0.45-7.29 4.77-13.05 12.51-13.5 7.5599-0.45 13.41 4.59 13.86 11.97 0.45 7.65-4.77 13.59-12.33 14.04z" fill="#fff"/>
</svg>
