<svg width="192" height="192" fill="none" version="1.1" viewBox="0 0 192 192" xmlns="http://www.w3.org/2000/svg">
 <path d="m63.846 53.951c29.102-10.196 57.935-21.481 87.291-31.014 6.4628-2.2032 18.984-4.5408 19.532 5.5597 0.30124 10.612-4.2595 20.613-7.0796 30.672-8.6318 26.858-18.035 53.347-27.56 79.792-4.4988 13.327-8.4177 27.097-15.343 39.405-4.1431 8.2698-15.094 6.1252-18.993-1.1898-6.7081-8.7498-10.115-19.328-15.181-28.991-5.0785-9.4598-7.8651-20.688-16.034-28.137-10.536-7.4897-22.928-11.632-34.337-17.45-8.9882-4.5364-20.321-7.4335-25.201-17.157-3.5674-7.822 4.4958-14.467 11.173-16.606 13.779-5.3727 27.738-10.211 41.733-14.884z" style="clip-rule:evenodd;fill-rule:evenodd;fill:#98dc9a"/>
 <path d="m122.66 92.17-9.301 9.3014c-0.796 0.796-2.089 0.797-2.885 0l-19.036-19.035c-0.7969-0.7968-0.7965-2.0885 3e-4 -2.8853l9.3012-9.3013c0.099-0.099 0.206-0.1857 0.318-0.2601 2.781-2.8386 6.401-4.3441 10.079-4.5456v-4.5781c0-0.5631 0.456-1.0197 1.019-1.0197s1.02 0.4566 1.02 1.0197v4.6c3.563 0.2719 7.049 1.7701 9.774 4.4947 2.798 2.798 4.302 6.3996 4.514 10.062h4.522c0.564 0 1.02 0.4566 1.02 1.0198s-0.456 1.0197-1.02 1.0197h-4.538c-0.263 3.5783-1.762 7.0828-4.498 9.8189-0.104 0.0834-0.191 0.1901-0.29 0.2891z" clip-rule="evenodd" fill="#fff" fill-rule="evenodd"/>
</svg>
