<?xml version="1.0" encoding="UTF-8" standalone="no"?>
<svg
   xmlns:dc="http://purl.org/dc/elements/1.1/"
   xmlns:cc="http://creativecommons.org/ns#"
   xmlns:rdf="http://www.w3.org/1999/02/22-rdf-syntax-ns#"
   xmlns:svg="http://www.w3.org/2000/svg"
   xmlns="http://www.w3.org/2000/svg"
   xmlns:sodipodi="http://sodipodi.sourceforge.net/DTD/sodipodi-0.dtd"
   xmlns:inkscape="http://www.inkscape.org/namespaces/inkscape"
   width="192"
   height="192"
   version="1.1"
   viewBox="0 0 192 192"
   id="svg14"
   sodipodi:docname="blogger.svg"
   inkscape:version="0.92.5 (2060ec1f9f, 2020-04-08)">
  <metadata
     id="metadata20">
    <rdf:RDF>
      <cc:Work
         rdf:about="">
        <dc:format>image/svg+xml</dc:format>
        <dc:type
           rdf:resource="http://purl.org/dc/dcmitype/StillImage" />
        <dc:title></dc:title>
      </cc:Work>
    </rdf:RDF>
  </metadata>
  <defs
     id="defs18" />
  <sodipodi:namedview
     pagecolor="#ffffff"
     bordercolor="#666666"
     borderopacity="1"
     objecttolerance="10"
     gridtolerance="10"
     guidetolerance="10"
     inkscape:pageopacity="0"
     inkscape:pageshadow="2"
     inkscape:window-width="1280"
     inkscape:window-height="745"
     id="namedview16"
     showgrid="false"
     inkscape:zoom="1.2291667"
     inkscape:cx="-5.6949153"
     inkscape:cy="89.491525"
     inkscape:window-x="-12"
     inkscape:window-y="-2"
     inkscape:window-maximized="1"
     inkscape:current-layer="svg14" />
  <rect
     x="20"
     y="20"
     width="152"
     height="152"
     rx="9.9346"
     opacity=".63"
     style="fill:#f8c18c;opacity:1"
     id="rect2" />
  <path
     inkscape:connector-curvature="0"
     style="fill:#ffffff;stroke-width:0.99346405"
     d="M 83.41281,59.738562 A 23.435817,23.435817 0 0 0 59.986928,83.15451 v 25.70091 a 23.415948,23.415948 0 0 0 23.425882,23.40602 h 25.20418 a 23.386144,23.386144 0 0 0 23.39608,-23.40602 V 92.25464 a 4.669281,4.669281 0 0 0 -4.65934,-4.68915 h -4.03347 a 4.6792157,4.6792157 0 0 1 -4.65934,-4.35137 v -0.0596 A 23.415948,23.415948 0 0 0 95.215163,59.738562 Z m -0.586143,18.995033 h 13.262745 a 4.5103268,4.5103268 0 1 1 0,9.010715 H 82.826667 a 4.5103268,4.5103268 0 0 1 0,-9.010715 z m 0,26.376475 h 26.585103 a 4.2619608,4.2619608 0 1 1 0,8.52392 H 82.796863 a 4.2619608,4.2619608 0 0 1 0,-8.52392 z"
     id="path6" />
</svg>
