<svg width="192" height="192" fill="none" version="1.1" viewBox="0 0 192 192" xmlns="http://www.w3.org/2000/svg">
 <rect x="20" y="20" width="152" height="152" rx="10" fill="#56595B"/>
 <path d="m78.381 109.3c-0.1882 0.399-0.2861 0.834-0.2868 1.275l-0.0234 14.422c-0.0027 1.659 1.3412 3.005 2.9999 3.005h11.18c1.2314 0 2.3377-0.752 2.7902-1.898l3.4474-8.726c0.4525-1.145 1.5591-1.898 2.7901-1.898h9.8c1.657 0 3-1.343 3-3v-10.695c0-1.657-1.343-3.0004-3-3.0004h-0.41c-3.2227 0-4.9983-0.20289-2.732-4.2383l5.935-13.098c0.176-0.389 0.268-0.8112 0.268-1.2383v-13.208c0-1.6569-1.343-3-3-3h-11.407c-1.2314 0-2.3377 0.7525-2.7902 1.8977l-3.4474 8.7263c-0.4525 1.1453-1.5588 1.8977-2.7902 1.8977h-9.8001c-1.6569 0-3 1.3432-3 3v10.696c0 1.6568 1.3431 3 3 3h0.3307c4.8609 0 4.1914 1.3553 2.7131 4.2801z" style="clip-rule:evenodd;fill-rule:evenodd;fill:#98dc9a"/>
</svg>
