<svg width="192" height="192" version="1.1" viewBox="0 0 192 192" xmlns="http://www.w3.org/2000/svg">
 <g transform="translate(0 -860.36)">
  <circle cx="96" cy="956.36" r="88" style="fill:#ff837d;stroke-width:.99435"/>
  <path d="m61.883 898.01c-1.8473 0.0457-2.605 0.67089-3.7754 0.86229 1.4549 0.12906 8.3592 3.5405 9.7027 3.7385-1.3435 0.90786-5.2889-0.0437-7.8072 1.0856-1.2687 0.57493-2.2189 2.7541-2.2101 3.7851 7.2013-0.72746 18.442-0.0242 25.08 2.9326-5.2829 0.60133-13.316 1.2722-16.772 3.0879-10.044 5.2917-14.481 17.652-11.837 32.462 2.6459 14.777 14.282 68.715 17.984 86.724 0.62861 3.0532 0.79906 5.9121 0.63895 8.5879a88 88 0 0 0 23.113 3.0899 88 88 0 0 0 19.932-2.2878c-4.8652-9.7808-10.103-19.474-12.993-25.249-5.8153-11.634-11.641-28.029-8.988-38.607 0.48107-1.9243-5.04-16.586-3.453-17.623 12.343-8.0505 15.595 0.87889 20.538-2.7306 2.5432-1.8671 5.9984 1.5346 6.8769-1.5556 3.1651-11.098-4.4091-30.447-12.864-38.904-2.7647-2.7559-6.9989-4.4872-11.779-5.4068-1.8392-2.5124-4.8025-4.9287-9.0016-7.1566-4.6757-2.4889-14.844-5.7761-20.118-6.6517-0.91373-0.15034-1.6506-0.19977-2.2664-0.1845z" style="fill:#d7d7d7;stroke-width:.99435"/>
  <path d="m67.622 897.51c-2.3196 9e-3 -4.6337 0.21165-6.9041 0.62341 1.452 0.132 4.7761 3.1366 6.1137 3.3346-2.0255 1.3728-7.4113 1.1952-7.3761 4.2474 7.2101-0.7216 15.11 0.41859 21.755 3.3695-5.2829 0.60133-10.201 1.9057-13.657 3.7288-10.053 5.2844-12.693 15.859-10.05 30.675 2.6503 14.809 14.287 68.747 17.974 86.718 0.88862 4.3112 0.88861 8.2504 0.28354 11.802a88 88 0 0 0 20.239 2.3577 88 88 0 0 0 23.853-3.2938c-5.0618-10.272-10.677-20.656-13.715-26.725-5.8227-11.64-11.637-28.032-8.9899-38.605 0.49133-1.9199 0.49978-9.7785 2.0955-10.821 12.336-8.0579 11.457-0.26888 16.407-3.8784 2.552-1.8641 4.5952-4.1164 5.4825-7.2052 3.1739-11.106-4.4081-30.449-12.866-38.91-2.7559-2.7559-6.9931-4.4896-11.767-5.4048-1.8363-2.5197-4.7967-4.9297-8.9899-7.1605-5.9301-3.1482-12.928-4.8795-19.887-4.8533z" style="fill:#fefefe;stroke-width:.99435"/>
  <path d="m69.145 944.23c0-3.0697 2.4831-5.5543 5.5572-5.5543 3.0653 0 5.5513 2.4845 5.5513 5.5543 0 3.0712-2.486 5.5528-5.5513 5.5528-3.0741 2e-3 -5.5572-2.4816-5.5572-5.5528z" style="fill:#708cbd;stroke-width:.99435"/>
  <path d="m75.725 942.38c0-0.79934 0.6468-1.4417 1.4373-1.4417 0.7964 0 1.4432 0.6424 1.4432 1.4417 0 0.79639-0.6468 1.4432-1.4432 1.4432-0.78907 2e-3 -1.4373-0.64681-1.4373-1.4432z" style="fill:#fff;stroke-width:.99435"/>
  <path d="m107.05 940.93c0-2.6297 2.1428-4.7667 4.7696-4.7667 2.6415 0 4.7755 2.1369 4.7755 4.7667 0 2.6415-2.134 4.7784-4.7755 4.7784-2.6268 0-4.7696-2.1369-4.7696-4.7784z" style="fill:#708cbd;stroke-width:.99435"/>
  <path d="m112.71 939.35c0-0.67907 0.55587-1.2364 1.2291-1.2364 0.70254 0 1.2408 0.55733 1.2408 1.2364 0 0.68786-0.53826 1.2349-1.2408 1.2349-0.67319 0-1.2291-0.54708-1.2291-1.2349z" style="fill:#fff;stroke-width:.99435"/>
  <path d="m76.281 928.13s-4.1859-1.8935-8.2559 0.66441c-4.0627 2.5549-3.9131 5.1671-3.9131 5.1671s-2.1604-4.8151 3.5977-7.1749c5.764-2.3599 8.5712 1.3435 8.5712 1.3435z" style="fill:#708cbd;stroke-width:.99435"/>
  <path d="m114.7 927.75s-3.0081-1.7189-5.3431-1.6896c-4.7975 0.063-6.1043 2.1824-6.1043 2.1824s0.80521-5.0527 6.9403-4.0392c3.3264 0.55294 4.5071 3.5464 4.5071 3.5464z" style="fill:#708cbd;stroke-width:.99435"/>
  <path d="m91.701 965.65c0.55587-3.3601 9.2385-9.7167 15.387-10.101 6.1615-0.38866 8.0813-0.30066 13.215-1.5297 5.148-1.2291 18.385-4.5291 22.048-6.2216 3.6725-1.6955 19.219 0.83894 8.2588 6.9491-4.7403 2.6532-17.516 7.5255-26.652 10.248-9.1212 2.7295-14.652-2.6048-17.688 1.8788-2.4141 3.5669-0.48987 8.4509 10.412 9.4644 14.721 1.364 28.835-6.6308 30.388-2.3833 1.5605 4.246-12.65 9.5451-21.303 9.7137-8.6431 0.16281-26.064-5.7141-28.681-7.5343-2.6195-1.8157-6.1087-6.0573-5.3841-10.484z" style="fill:#f9de81;stroke-width:.99435"/>
  <path d="m98.364 1010.1s-20.683-11.031-21.02-6.5561c-0.34907 4.4821 0 22.747 2.4097 24.128 2.4141 1.3757 19.647-8.9584 19.647-8.9584z" style="fill:#98dc9a;stroke-width:.99435"/>
  <path d="m106.29 1009.4s14.131-10.685 17.239-9.9952c3.0961 0.70245 3.7869 22.748 1.0281 23.803-2.7588 1.0119-18.932-5.5925-18.932-5.5925z" style="fill:#98dc9a;stroke-width:.99435"/>
  <path d="m93.357 1011.3c0 7.2336-1.0399 10.338 2.068 11.028 3.0932 0.6937 8.9525 0 11.026-1.3758 2.068-1.3757 0.34027-10.676-0.34026-12.415-0.69961-1.7219-12.754-0.3402-12.754 2.7632z" style="fill:#72a373;stroke-width:.99435"/>
  <path d="m94.673 1009.6c0 7.2351-1.0369 10.34 2.0665 11.028 3.0888 0.7025 8.9525 0 11.028-1.3757 2.068-1.3801 0.33879-10.676-0.34613-12.417-0.69374-1.7205-12.748-0.3329-12.748 2.7647z" style="fill:#98dc9a;stroke-width:.99435"/>
 </g>
 <style type="text/css">.st0{fill:#FFFFFF;}</style>
</svg>
