<svg width="192" height="192" fill="none" version="1.1" viewBox="0 0 192 192" xmlns="http://www.w3.org/2000/svg">
 <rect transform="matrix(1 0 0 -1 20 172)" width="152" height="152" rx="10" fill="#9ABEFF"/>
 <mask id="mask0" x="20" y="20" width="152" height="152" mask-type="alpha" maskUnits="userSpaceOnUse">
  <rect transform="matrix(1 0 0 -1 20 172)" width="152" height="152" rx="10" fill="#fff"/>
 </mask>
 <g mask="url(#mask0)">
  <path d="m77.61 78.15c3.87 0 7.11-3.24 7.11-7.11s-3.24-7.02-7.11-7.02-7.11 3.15-7.11 7.02 3.24 7.11 7.11 7.11zm-6.66 41.85h13.32v-36h-13.32v36zm48.274-36.72c-4.86 0-8.91 2.25-11.61 5.94v-5.22h-13.32v36h13.32v-20.16c0-2.88 2.43-4.95 5.4-4.95s4.95 2.07 4.95 4.95v20.16h13.32v-23.49c0-8.01-4.86-13.23-12.06-13.23z" fill="#fff"/>
 </g>
</svg>
