<svg width="192" height="192" fill="none" version="1.1" viewBox="0 0 192 192" xmlns="http://www.w3.org/2000/svg">
 <rect x="20" y="20" width="152" height="152" rx="10" fill="#fff"/>
 <path d="m110.98 85.92c-0.528-1.368-1.344-2.544-2.448-3.504-1.104-0.984-2.496-1.752-4.2-2.28-1.68-0.552-3.696-0.816-6.024-0.816h-14.352v2.808c-0.024 0.84 0.384 1.32 1.2 1.512 0.82638 0.13354 1.6738 0.29539 2.424 0.432v25.176c-0.81979 0.16301-1.6076 0.28974-2.424 0.432-0.816 0.192-1.224 0.672-1.2 1.512v2.808h13.704v-2.808c0-0.84-0.384-1.32-1.2-1.512-0.8175-0.12991-1.6843-0.29729-2.424-0.432v-7.464h4.272c2.256 0 4.224-0.264 5.904-0.84 1.68-0.552 3.096-1.32 4.2-2.352 1.128-1.008 1.968-2.208 2.52-3.6 0.576-1.392 0.84-2.928 0.84-4.608 0-1.632-0.264-3.12-0.792-4.464zm-6.096 7.104c-0.288 0.792-0.72 1.464-1.296 2.016s-1.296 0.984-2.184 1.272c-0.864 0.288-1.896 0.432-3.096 0.432h-4.272v-12.456h4.272c1.2 0 2.232 0.144 3.096 0.432 0.888 0.288 1.608 0.696 2.184 1.2 0.576 0.528 1.008 1.176 1.296 1.92 0.288 0.768 0.432 1.608 0.432 2.52 0 0.984-0.144 1.872-0.432 2.664z" style="fill:#728dbe"/>
</svg>
