<svg width="192" height="192" fill="none" version="1.1" viewBox="0 0 192 192" xmlns="http://www.w3.org/2000/svg">
 <path d="m64.641 15.584a5.0005 5.0005 0 0 0-3.5352 1.4648l-44.641 44.641a5.0005 5.0005 0 0 0-1.4648 3.5352v63.133a5.0005 5.0005 0 0 0 1.4648 3.5352l44.641 44.643a5.0005 5.0005 0 0 0 3.5352 1.4648h63.133a5.0005 5.0005 0 0 0 3.5352-1.4648l44.643-44.643a5.0005 5.0005 0 0 0 1.4648-3.5352v-63.133a5.0005 5.0005 0 0 0-1.4648-3.5352l-44.643-44.641a5.0005 5.0005 0 0 0-3.5352-1.4648zm2.0723 10h58.99l41.713 41.713v58.99l-41.713 41.713h-58.99l-41.713-41.713v-58.99z" style="color-rendering:auto;color:#000000;dominant-baseline:auto;fill:#fff;font-feature-settings:normal;font-variant-alternates:normal;font-variant-caps:normal;font-variant-ligatures:normal;font-variant-numeric:normal;font-variant-position:normal;image-rendering:auto;isolation:auto;mix-blend-mode:normal;shape-padding:0;shape-rendering:auto;solid-color:#000000;text-decoration-color:#000000;text-decoration-line:none;text-decoration-style:solid;text-indent:0;text-orientation:mixed;text-transform:none;white-space:normal"/>
 <path d="m127.77 20.584 44.642 44.642v63.132l-44.642 44.642h-63.132l-44.642-44.642v-63.132l44.642-44.642h63.132z" fill="#FF837D" stroke="#fff" stroke-width="10" style=""/>
 <path d="m117.26 101.24c-0.066 0.189-0.244 0.315-0.444 0.315-0.259 0-0.469-0.21-0.469-0.469v-41.764c0-3.0337-2.46-5.493-5.493-5.493-3.034 0-5.493 2.4593-5.493 5.493v32.113c0 0.2334-0.19 0.4226-0.423 0.4226s-0.422-0.1892-0.422-0.4226v-38.028c0-3.0337-2.46-5.493-5.4935-5.493-3.0337 0-5.493 2.4593-5.493 5.493v38.028c0 0.2334-0.1892 0.4226-0.4225 0.4226-0.2334 0-0.4226-0.1892-0.4226-0.4226v-32.113c0-3.0337-2.4593-5.493-5.493-5.493s-5.493 2.4593-5.493 5.493v32.113c0 0.2334-0.1891 0.4226-0.4225 0.4226s-0.4225-0.1892-0.4225-0.4226v-20.282c0-3.0337-2.4594-5.4931-5.4931-5.4931s-5.493 2.4594-5.493 5.4931v47.324c0 14.702 11.918 26.62 26.62 26.62 12.063 0 22.252-8.024 25.521-19.025 0.071-0.237 0.139-0.505 0.205-0.793 0.873-3.83 1.49-7.727 2.704-11.463l8.826-27.166c0.068-0.2078 0.108-0.4233 0.12-0.6414 0.079-1.398-0.991-2.5949-2.389-2.6733l-2.329-0.1307c-3.312-0.1859-6.335 1.8769-7.37 5.0283l-4.515 13.007z" clip-rule="evenodd" fill="#fff" fill-rule="evenodd"/>
</svg>
