<svg width="192" height="192" fill="none" version="1.1" viewBox="0 0 192 192" xmlns="http://www.w3.org/2000/svg">
 <rect x="21" y="20" width="152" height="152" rx="10" fill="#56595B"/>
 <path d="m97.5 140c24.024 0 43.5-19.476 43.5-43.5 0-24.024-19.476-43.5-43.5-43.5-24.024 0-43.5 19.476-43.5 43.5 0 24.024 19.476 43.5 43.5 43.5z" clip-rule="evenodd" fill="#56595B" fill-rule="evenodd"/>
 <mask x="54" y="53" width="87" height="87" mask-type="alpha" maskUnits="userSpaceOnUse">
  <path d="m97.5 140c24.024 0 43.5-19.476 43.5-43.5 0-24.024-19.476-43.5-43.5-43.5-24.024 0-43.5 19.476-43.5 43.5 0 24.024 19.476 43.5 43.5 43.5z" clip-rule="evenodd" fill="#fff" fill-rule="evenodd"/>
 </mask>
 <path d="m97.5 63c-2.8645 0-5.6426 0.35729-8.293 1.0273l17.711 30.674 12.797-23.309c-5.9044-5.2238-13.674-8.3926-22.215-8.3926z" style="clip-rule:evenodd;fill-rule:evenodd;fill:#ff837d"/>
 <path d="m86.514 64.838c-10.581 3.6492-18.728 12.425-21.492 23.395h35.676z" style="clip-rule:evenodd;fill-rule:evenodd;fill:#ba6561"/>
 <path d="m91.986 90.383-27.529 0.5918c-0.29601 1.7976-0.45703 3.6414-0.45703 5.5254 0 9.5944 3.9976 18.215 10.418 24.311z" style="clip-rule:evenodd;fill-rule:evenodd;fill:#9abeff"/>
 <path d="m89.492 99.002-12.98 23.639c5.7357 4.6045 13.026 7.3594 20.988 7.3594 3.1784 0 6.2471-0.44824 9.1562-1.2676z" style="clip-rule:evenodd;fill-rule:evenodd;fill:#728dbe"/>
 <path d="m95.711 105.47 13.582 22.402c9.9618-3.7252 17.638-12.041 20.492-22.402z" style="clip-rule:evenodd;fill-rule:evenodd;fill:#bd9aff"/>
 <path d="m121.73 73.338-17.311 29.984 25.988-0.5586c0.38094-2.0292 0.58789-4.1205 0.58789-6.2637 0-9.0064-3.5237-17.154-9.2656-23.162z" style="clip-rule:evenodd;fill-rule:evenodd;fill:#ffd6d4"/>
 <path d="m97.5 53c-23.965 0-43.5 19.535-43.5 43.5s19.535 43.5 43.5 43.5 43.5-19.535 43.5-43.5-19.535-43.5-43.5-43.5zm0 10c18.561 0 33.5 14.939 33.5 33.5s-14.939 33.5-33.5 33.5-33.5-14.939-33.5-33.5 14.939-33.5 33.5-33.5z" style="color-rendering:auto;color:#000000;dominant-baseline:auto;fill:#56595b;font-feature-settings:normal;font-variant-alternates:normal;font-variant-caps:normal;font-variant-ligatures:normal;font-variant-numeric:normal;font-variant-position:normal;image-rendering:auto;isolation:auto;mix-blend-mode:normal;shape-padding:0;shape-rendering:auto;solid-color:#000000;text-decoration-color:#000000;text-decoration-line:none;text-decoration-style:solid;text-indent:0;text-orientation:mixed;text-transform:none;white-space:normal"/>
 <path d="m97.5 53c-23.989 0-43.5 19.511-43.5 43.5 0 23.989 19.511 43.5 43.5 43.5 23.989 0 43.5-19.511 43.5-43.5 0-23.989-19.511-43.5-43.5-43.5zm0 6c20.747 0 37.5 16.754 37.5 37.5 0 20.747-16.753 37.5-37.5 37.5-20.746 0-37.5-16.753-37.5-37.5 0-20.746 16.754-37.5 37.5-37.5z" style="color-rendering:auto;color:#000000;dominant-baseline:auto;fill:#fff;font-feature-settings:normal;font-variant-alternates:normal;font-variant-caps:normal;font-variant-ligatures:normal;font-variant-numeric:normal;font-variant-position:normal;image-rendering:auto;isolation:auto;mix-blend-mode:normal;shape-padding:0;shape-rendering:auto;solid-color:#000000;text-decoration-color:#000000;text-decoration-line:none;text-decoration-style:solid;text-indent:0;text-orientation:mixed;text-transform:none;white-space:normal"/>
 <path d="m79.5 87c4.1421 0 7.5-3.3579 7.5-7.5s-3.3579-7.5-7.5-7.5-7.5 3.3579-7.5 7.5 3.3579 7.5 7.5 7.5z" style="clip-rule:evenodd;fill-rule:evenodd;fill:#fff"/>
</svg>
