<?xml version="1.0" encoding="UTF-8"?><svg id="a" xmlns="http://www.w3.org/2000/svg" viewBox="0 0 192 192"><circle cx="96" cy="96" r="88" fill="#98dC9A"/><path d="m65.761 67.967c-1.1377-.0046-2.2666.19279-3.3347.58432-1.8919.6658-3.4515 1.8635-4.6734 3.588-1.1682 1.6684-1.7534 3.5306-1.7534 5.588v36.544c0 2.6693.94703 4.979 2.8368 6.9246 1.9476 1.8919 4.2574 2.8368 6.9246 2.8368 2.727 0 5.0349-.94487 6.9267-2.8346 1.9476-1.9476 2.919-4.2575 2.919-6.9268v-6.6446c.0207-1.4391 1.5028-1.0606 2.2535 0 1.4012 2.4283 4.6823 4.5066 7.8424 4.5066s6.3413-1.7257 7.8423-4.5066c.56868-.66999 2.1714-1.8133 2.3368 0v6.6446c0 2.6693.94472 4.979 2.8346 6.9246 1.9496 1.8919 4.2564 2.8368 6.9256 2.8368 2.725 0 5.0349-.94487 6.9267-2.8346 1.9476-1.9476 2.9191-4.2575 2.9191-6.9268v-36.544c0-2.0573-.61152-3.9196-1.8336-5.588-1.1702-1.7265-2.7003-2.9222-4.59-3.588-1.1123-.39065-2.2245-.58432-3.3368-.58432-3.0041 0-5.5351 1.1681-7.5945 3.5044l-9.9056 11.593c-.22131.16746-.95962 1.4425-2.5269 1.4425-1.563 0-2.216-1.2749-2.4393-1.4403l-9.9911-11.595c-2.0013-2.3364-4.5049-3.5044-7.509-3.5044zm61.729.000985c-2.3362 0-4.339.83442-6.0067 2.5023-1.6128 1.6127-2.419 3.5871-2.419 5.9235s.8062 4.339 2.419 6.0068c1.6677 1.6127 3.6705 2.419 6.0067 2.419 2.3364 0 4.3387-.80635 6.0079-2.419 1.6678-1.6678 2.5012-3.6705 2.5012-6.0068s-.83341-4.3108-2.5012-5.9235c-1.6691-1.6678-3.6715-2.5023-6.0079-2.5023zm.0824 18.521c-2.3364 0-4.339.83457-6.0068 2.5024-1.6678 1.6691-2.5012 3.6715-2.5012 6.0079v20.607c0 2.3362.83341 4.3389 2.5012 6.0067 1.6691 1.6128 3.6719 2.419 6.0068 2.419 2.3377 0 4.3128-.8062 5.9255-2.419 1.6678-1.6678 2.5012-3.6704 2.5012-6.0067v-20.607c0-2.3377-.83341-4.34-2.5012-6.0079-1.614-1.6678-3.5892-2.5024-5.9255-2.5024z" fill="#FFF"/></svg>
