<svg width="192" height="192" version="1.1" viewBox="0 0 192 192" xmlns="http://www.w3.org/2000/svg">
 <g transform="translate(0 -860.36)">
  <path d="m100.35 907.46v39.114c0 2.412 1.9557 4.3677 4.3677 4.3677h39.114c0-11.995-2.6728-25.033-10.561-32.921-7.8879-7.8879-20.926-10.561-32.921-10.561z" style="fill:#72a373;stroke-width:.65189"/>
  <path d="m142.98 1037.1c-18.253 2.9987-40.352-2.412-61.539-15.059l7.1056-15.841 16.102-7.4316 25.228 14.407z" style="fill:#72a373;stroke-width:.65189"/>
  <path d="m16.387 910.46c-2.9987 18.253 2.3468 40.352 15.059 61.539l16.297-7.6272 6.9753-15.645-13.69-22.36z" style="fill:#72a373;stroke-width:.65189"/>
  <path d="m106.87 874.86c-3.5854 0-6.5189 2.9335-6.5189 6.5189v26.076c23.99 0 43.481 19.492 43.481 43.481h26.076c3.5854 0 6.5189-2.9335 6.5189-6.5189 0-38.397-31.161-69.557-69.557-69.557z" style="fill:#98db9a;stroke-width:.65189"/>
  <path d="m170.23 1022.1c3.455-3.3247 3.5854-8.7354 0.32595-12.19l-31.421-33.507c-3.455-3.2595-8.8006-3.1943-12.125 0.13038l-22.295 22.23 38.266 38.266c10.365-1.4993 18.123-5.9322 25.163-12.973z" style="fill:#98db9a;stroke-width:.65189"/>
  <path d="m31.511 971.99c5.7367 9.5176 13.364 19.1 22.034 27.771 8.6702 8.6702 18.449 16.428 27.966 22.164l23.273-23.207-50.065-50" style="fill:#98db9a;stroke-width:.65189"/>
  <path d="m71.472 932.49 3.5854-3.455c4.2373-4.2373 4.2373-11.213 0-15.45l-29.531-29.531c-4.2373-4.2373-11.213-4.2373-15.45 0l-1.043 0.71708c-6.8449 6.8449-10.952 15.711-12.647 25.685l38.331 38.266z" style="fill:#98db9a;stroke-width:.65189"/>
 </g>
 <style type="text/css">.st0{fill:#FFFFFF;}</style>
</svg>
