<svg width="192" height="192" version="1.1" viewBox="0 0 192 192" xmlns="http://www.w3.org/2000/svg">
 <rect x="20" y="20" width="152" height="152" rx="10" fill="#BD9AFF"/>
 <path d="m63.237 57.304s4.3367 5.9112 12.733 11.532c4.902 3.2817 8.0958 4.5185 10.846 5.5837 1.9606 0.7593 3.696 1.4313 5.6645 2.6946 2.9625 1.9011 5.7301 4.9222 7.3849 6.9148 0.5814 0.7003 1.7884 0.3777 1.9164-0.5236 0.163-1.149 0.36-2.4185 0.53-3.1817 0.369-1.6606 1.117-3.2095 1.117-3.2095s-5.6277-1.8098-6.9366-2.6574c-1.309-0.8475-1.7104-2.9417-1.7104-2.9417s0.759 0.234 6.048-0.8102c3.174-0.6265 5.053-2.0167 6.565-3.1354 1.008-0.746 1.853-1.3712 2.81-1.5688 2.392-0.4942 5.419 1.6481 5.419 1.6481s4.905-2.5658 7.347-0.5713c2.443 1.9945 1.973 8.1823 1.973 8.1823s-5.785 0.0749-5.808 2.7074c-0.01 1.2353 0.793 1.7779 1.934 2.5487 1.291 0.8718 3.014 2.0355 4.481 4.8234 2.763 5.2531 3.286 11.689 3.286 11.689l-2.893-1.1555s2.492 6.194 1.827 10.443c-0.666 4.25-4.8 7.696-4.8 7.696l0.381 13.828s-0.033 1.498 2.199 1.963c1.003 0.208 1.862 0.025 2.674-0.148 0.995-0.212 1.92-0.41 2.952 0.148 1.876 1.012 2.729 4.508 2.729 4.508h-18.913s-0.611-1.689 0.631-3.172c1.242-1.484 3.512-1.777 3.512-1.777s-1.666-8.818-7.282-9.37c-5.617-0.552-10.41 7.122-10.41 7.122s-1.004 1.98 1.985 2.689c1.578 0.374 2.861-0.022 3.994-0.372 1.014-0.312 1.907-0.588 2.782-0.241 1.587 0.629 2.104 2.909 2.326 3.889 0.037 0.164 0.066 0.291 0.091 0.369 0.169 0.541-0.768 0.994-0.768 0.994h-28.247s-12.835 0-15.588-6.49c-2.4783-5.844 1.6025-9.599 4.9099-12.643 0.3654-0.336 0.7214-0.664 1.058-0.985 3.3838-3.224 3.5037-3.672 3.5037-5.367 0-1.141-0.9008-2.402-1.4909-3.106v0.15h-9v-4h-4v-14h5v5h4v4h4v5.681c0.3002 0.207 2.7505 1.934 3.3959 3.634 0.6879 1.813 1.2766 4.494-1.3443 7.696-0.819 1.001-1.8977 1.837-2.9937 2.686-2.4112 1.869-4.9065 3.802-4.9065 7.698 0 5.665 7.9002 5.87 7.9002 5.87l7.8513-2.314v-13.044s-0.0638-5.265 1.9471-7.84c2.0108-2.575 6.085-4.478 7.671-4.478 1.5861 0 3.5668-1.024 3.5668-1.024s-11.016-2.3581-16.166-5.8872c-5.15-3.529-8.0126-10.682-8.0126-10.682s3.3373 0.5248 6.1794 0.3425c2.8422-0.1822 5.6417-1.1007 5.6417-1.1007s-11.245 0.075-17.524-7.1244c-6.2795-7.1994-5.969-19.81-5.969-19.81zm-0.2371 24.696h-5v5h5v-5z" clip-rule="evenodd" fill="#fff" fill-rule="evenodd"/>
</svg>
