<svg width="192" height="192" fill="none" version="1.1" viewBox="0 0 192 192" xmlns="http://www.w3.org/2000/svg">
 <path d="m172 28.59v133.81c0 5.3-4.3 9.59-9.6 9.59h-133.8c-5.3 0-9.6-4.3-9.6-9.59v-133.81c0-5.29 4.3-9.59 9.6-9.59h133.9c5.2 0 9.5 4.3 9.5 9.59z" style="fill:#54688c"/>
 <path d="m122.52 82.46c0-0.43-0.47-0.91-1.08-1.08l-7.59-2.8c-1.25-0.56-2.72 0.09-2.72 0.99v31.87c0 0.47 0.47 0.99 0.91 1.16l7.81 2.8c1.16 0.47 2.72-0.17 2.72-1.16v-31.78z" style="fill:#fff"/>
 <path d="m108.29 71.33c0-0.43-0.47-0.91-1.08-1.08l-7.5901-2.8c-1.25-0.56-2.72 0.09-2.72 0.99v19.36c0 0.47 0.47 0.99 0.91 1.16l7.8101 2.8c1.16 0.47 2.72-0.17 2.72-1.16v-19.27z" style="fill:#fff"/>
 <path d="m108.29 106.18c0-0.47-0.47-0.91-1.08-1.08l-7.5901-2.8c-1.25-0.56-2.72 0.09-2.72 0.99v19.37c0 0.47 0.47 0.99 0.91 1.16l7.8101 2.8c1.16 0.47 2.72-0.17 2.72-1.16v-19.28z" style="fill:#fff"/>
 <path d="m94.06 110.1c0-0.47-0.43-0.91-1.08-1.08l-7.59-2.8c-1.25-0.56-2.72 0.09-2.72 0.99v20.66c0 0.47 0.43 0.99 0.91 1.16l7.81 2.8c1.16 0.47 2.72-0.17 2.72-1.16z" style="fill:#fff"/>
 <path d="m94.06 63.09c0-0.47-0.43-0.91-1.08-1.08l-7.59-2.8c-1.29-0.56-2.72 0.09-2.72 0.99v20.66c0 0.43 0.43 0.99 0.91 1.16l7.81 2.8c1.16 0.43 2.72-0.17 2.72-1.16z" style="fill:#fff"/>
 <path d="m79.87 63.91c0-0.47-0.43-0.91-1.08-1.08l-7.63-2.8c-1.25-0.56-2.72 0.09-2.72 0.99v66.12c0 0.47 0.43 0.99 0.91 1.16l7.81 2.8c1.16 0.47 2.72-0.17 2.72-1.16v-66.03z" style="fill:#fff"/>
</svg>
