<svg width="192" height="192" fill="none" version="1.1" viewBox="0 0 192 192" xmlns="http://www.w3.org/2000/svg">
 <g clip-rule="evenodd" fill-rule="evenodd">
  <path d="M96 9C72.9262 9 50.7975 18.1662 34.4818 34.4818C18.1662 50.7975 9 72.9262 9 96C9 119.074 18.1662 141.203 34.4818 157.518C50.7975 173.834 72.9262 183 96 183C119.074 183 141.203 173.834 157.518 157.518C173.834 141.203 183 119.074 183 96C183 72.9262 173.834 50.7975 157.518 34.4818C141.203 18.1662 119.074 9 96 9Z" fill="#4A4A4A"/>
  <path d="m80.742 116.43c4.608 0.697 9.2158 1.045 13.824 1.045 5.8514 0 11.688-0.562 17.509-1.685 8.393-1.621 14.879-8.351 16.226-16.837 0.466-2.9332 0.699-5.9447 0.699-9.0345 0-3.6166-0.319-7.3233-0.957-11.12-1.506-8.9603-8.718-15.842-17.695-16.884-5.261-0.6108-10.522-0.9162-15.782-0.9162-5.3391 0-10.691 0.3145-16.055 0.9436-9.1087 1.0682-16.375 8.1423-17.732 17.262-0.5185 3.4849-0.7778 7.0565-0.7778 10.715 0 2.9637 0.1702 5.7651 0.5105 8.4045 0.0812 0.6303 0.1909 1.2517 0.3275 1.8627 2.7944 21.208 11.581 31.812 26.359 31.812 9.1786 0 15.666-0.768 19.463-2.305v-5.429c-8.9911 0.854-15.479 1.103-19.463 0.748-3.8996-0.348-6.0513-3.209-6.455-8.582z" fill="#9ABEFF"/>
  <path d="m80.5 86c1.933 0 3.5-1.567 3.5-3.5s-1.567-3.5-3.5-3.5-3.5 1.567-3.5 3.5 1.567 3.5 3.5 3.5z" fill="#fff"/>
  <path d="m113 77.689c-2.443-2.2868-5.741-3.6893-9.37-3.6893-7.5278 0-13.63 6.0324-13.63 13.474v18.526h8.5185v-18.526c0-2.7905 2.2885-5.0526 5.1115-5.0526 2.822 0 5.111 2.2621 5.111 5.0526v11.79h8.518v-11.79c0-2.7905 2.289-5.0526 5.111-5.0526 2.823 0 5.111 2.2621 5.111 5.0526v18.526h8.519v-18.526c0-7.4413-6.102-13.474-13.63-13.474-3.629 0-6.927 1.4025-9.37 3.6893z" fill="#fff"/>
 </g>
</svg>
