<svg width="192" height="192" version="1.1" viewBox="0 0 192 192" xmlns="http://www.w3.org/2000/svg">
 <path d="m96 184c48.601 0 88-39.399 88-88s-39.399-88-88-88-88 39.399-88 88 39.399 88 88 88z" style="clip-rule:evenodd;fill-rule:evenodd;fill:#F9DE81"/>
 <path d="m66.413 119.96h10.359v-48.559h-17.724v9.1452h7.3647z" style="fill:#FF837D;stroke-width:1.6186"/>
 <style type="text/css">.st0{fill:#FFFFFF;}</style>
 <style type="text/css">.st0{fill:#FFFFFF;}</style>
 <path d="m112.01 70.752c-13.758 0-24.928 11.167-24.928 24.926 0 13.756 11.165 24.923 24.92 24.928 15.841 0.01621 46.317 0.00969 68.506 0.00781 0.98868-3.4002 1.7776-6.8848 2.3535-10.441l-70.859 0.02734c-8.9372-0.21773-14.398-6.3501-14.398-14.521 0-8.1741 6.2322-14.486 14.406-14.486 5.7461 0 10.52 3.0764 12.867 7.6895l9.2266-4.7754c-4.1275-7.9313-12.463-13.354-22.094-13.354z" style="fill:#FF837D;stroke-width:1.6186"/>
</svg>
