<svg width="192" height="192" fill="none" version="1.1" viewBox="0 0 192 192" xmlns="http://www.w3.org/2000/svg">
 <path d="m96 184c48.601 0 88-39.399 88-88 0-48.601-39.399-88-88-88-48.601 0-88 39.399-88 88 0 48.601 39.399 88 88 88z" clip-rule="evenodd" fill="#fff" fill-rule="evenodd"/>
 <path d="m86 55h20v59.108l-6.9632 6.963 6.9632 6.963v8.966h-20v-58.966l7.1789-6.9632-7.071-7.0711z" style="clip-rule:evenodd;fill-rule:evenodd;fill:#b1b5bd"/>
 <path d="m96 167c39.212 0 71-31.788 71-71 0-39.212-31.788-71-71-71-39.212 0-71 31.788-71 71 0 39.212 31.788 71 71 71z" clip-rule="evenodd" fill-rule="evenodd" stroke="#9ABEFF" stroke-width="10"/>
</svg>
