<svg width="192" height="192" version="1.1" viewBox="0 0 192 192" xmlns="http://www.w3.org/2000/svg">
 <rect x="20" y="20" width="152" height="152" rx="10" style="fill-rule:evenodd;fill:#ff837d"/>
 <path d="m43 111h10v28.999c0 0.51439 0.3857 0.93674 0.88424 0.99445l0.11693 0.00672h27.999v10h-27.999c-5.9798 0-10.845-4.7688-10.997-10.713l-0.003707-0.28851zm108 0v28.999c0 6.0762-4.9239 11.001-11.001 11.001h-28.999v-10h28.999c0.51439 0 0.93674-0.3857 0.99445-0.88424l0.00672-0.11693v-28.999zm-11.001-68c6.0762 0 11.001 4.9239 11.001 11.001v27.999h-10v-27.999c0-0.51439-0.3857-0.93674-0.88424-0.99445l-0.11693-0.006721h-28.999v-10zm-57.999 0v10h-27.999c-0.51439 0-0.93674 0.3857-0.99445 0.88424l-0.006721 0.11693v27.999h-10v-27.999c0-5.9798 4.7688-10.845 10.713-10.997l0.28851-0.003707z" style="fill:#fff"/>
</svg>
