<svg width="192" height="192" version="1.1" viewBox="0 0 192 192" xmlns="http://www.w3.org/2000/svg">
 <rect x="19.5" y="19.5" width="153" height="153" rx="10" style="fill-rule:evenodd;fill:#545859"/>
 <path d="m29.5 19.5c-2.5435 0-4.8522 0.94688-6.6133 2.5h146.23c-1.7611-1.5531-4.0698-2.5-6.6133-2.5h-133zm-9.6758 7.5c-0.20484 0.79993-0.32422 1.6345-0.32422 2.5v2.5h153v-2.5c0-0.86554-0.11938-1.7001-0.32422-2.5h-152.35zm-0.32422 10v5h153v-5h-153zm0 10v5h153v-5h-153zm0 10v5h153v-5h-153zm0 10v5h153v-5h-153zm0 10v5h153v-5h-153zm0 10v5h153v-5h-153zm0 10v5h153v-5h-153zm0 10v5h153v-5h-153zm0 10v5h153v-5h-153zm0 10v5h153v-5h-153zm0 10v5h153v-5h-153zm0 10v5h153v-5h-153zm0 10v5h153v-5h-153zm1.0723 10c1.1841 2.3536 3.2631 4.1699 5.8027 5h139.25c2.5396-0.8301 4.6186-2.6464 5.8027-5h-150.86z" style="opacity:.25;paint-order:stroke fill markers"/>
 <text x="55.125107" y="119.95787" style="fill:#8C72BD;font-family:Now;font-size:64.745px;font-weight:bold;letter-spacing:0px;line-height:1.25;stroke-width:1.6186;word-spacing:0px" xml:space="preserve"><tspan x="55.125107" y="119.95787" style="fill:#8C72BD;stroke-width:1.6186">An</tspan></text>
 <style type="text/css">.st0{fill:#FFFFFF;}</style>
</svg>
