<svg xmlns="http://www.w3.org/2000/svg" width="192" height="192" viewBox="0 0 192 192">
  <g fill="none" fill-rule="evenodd">
    <rect width="152" height="152" x="20" y="20" fill="#F8C18C" rx="10" transform="matrix(1 0 0 -1 0 192)"/>
    <g fill="#FFF" transform="translate(63 65)">
      <path d="M59.6427363,57.8477488 C30.7208008,71.5386579 12.7709944,60.0841124 1.28118794,53.1262942 C0.570478258,52.6877488 -0.638166903,53.2288397 0.410349226,54.4266579 C4.23809116,59.0433851 16.7829944,70.1706579 33.1578331,70.1706579 C49.5436395,70.1706579 59.2917686,61.2775669 60.5113815,59.7262942 C61.7222202,58.1881124 60.8667363,57.3393851 59.6427363,57.8477488 L59.6427363,57.8477488 Z M67.765446,53.3859306 C66.9889299,52.3801124 63.0427363,52.192476 60.5596395,52.4957488 C58.0721557,52.7902942 54.3387363,54.3022942 54.6633815,55.2099306 C54.8300912,55.5502942 55.1700912,55.3975669 56.8788654,55.2448397 C58.5920266,55.0746579 63.3915105,54.472476 64.3917686,55.7728397 C65.3964137,57.0819306 62.8606718,63.3197488 62.3978331,64.3255669 C61.9503492,65.3313851 62.5689299,65.5910215 63.4090589,64.9212033 C64.2382202,64.2513851 65.7386073,62.5168397 66.745446,60.0622942 C67.7457041,57.5946579 68.3555105,54.1517488 67.765446,53.3859306 L67.765446,53.3859306 Z"/>
      <path d="M50.6314839,35.7621818 L50.6314839,12.8356364 C50.6314839,8.89745455 46.8015484,-3.55271368e-15 33.0370323,-3.55271368e-15 C19.2747097,-3.55271368e-15 11.9526452,8.55490909 11.9526452,16.2610909 L23.4556129,17.2843636 C23.4556129,17.2843636 26.0176774,9.58254545 31.9643871,9.58254545 C37.9110968,9.58254545 37.5030968,14.3738182 37.5030968,15.4101818 L37.5030968,20.3912727 C29.8849032,20.6465455 10.9677419,22.8109091 10.9677419,38.6770909 C10.9677419,55.7389091 32.6202581,56.4545455 39.7207742,45.4276364 C39.9949677,45.8749091 40.3064516,46.3134545 40.6969032,46.7236364 C43.3094194,49.4552727 46.7949677,52.7105455 46.7949677,52.7105455 L55.6744516,43.9832727 C55.6788387,43.9810909 50.6314839,40.0407273 50.6314839,35.7621818 L50.6314839,35.7621818 Z M24.319871,36.5672727 C24.319871,29.2385455 32.2144516,27.7527273 37.5052903,27.5781818 L37.5052903,33.8858182 C37.5030968,46.3810909 24.319871,44.4894545 24.319871,36.5672727 L24.319871,36.5672727 Z"/>
    </g>
  </g>
</svg>
