<svg width="192" height="192" version="1.1" viewBox="0 0 192 192" xmlns="http://www.w3.org/2000/svg">
 <style type="text/css">.st0{fill:#FFFFFF;}</style>
 <style type="text/css">.st0{fill:#FFFFFF;}</style>
 <circle cx="96" cy="104" r="80" style="fill:#bd9aff;paint-order:stroke fill markers;stroke-width:4"/>
 <circle cx="96" cy="104" r="80" style="fill:#fff;opacity:.5;paint-order:stroke fill markers;stroke-width:4"/>
 <path d="m98.094 8.3438c-0.53447-0.04-1.0627-0.012-1.5859 0.0936-2.4339 0.48644-0.31342 22.754-4.5078 35.563-2.897-0.8104-8.1017-1.2204-12 0-8.724-15.864-16-28-20-28s-5.206 15.98-4 24c0.88665 5.8966 8 16 8 16s-23.103 11.678-24 60c-0.16504 8.8892-7.3724 22.098-12.055 29.797a80 80 0 0 0 68.055 38.203 80 80 0 0 0 21.672-3.0859c-18.705-25.409-14.797-54.352-14.797-54.352s11.147-1.5139 17.125 1.4375c5.4472 2.6895 19.909 15.763 31.422 18.875 13.834 3.7393 20.519-6.9046 24.578-14.875 3.6803-7.2272 0.40369-17.189-4-24-5.2206-8.074-17.302-9.1021-24-16-8.7627-9.0242-9.2371-23.27-20-32-3.642-2.9541-12.609-6.2344-12.609-6.2344s1.9609-14.685 0.8125-21.898c-1.1059-6.947-10.092-22.931-18.109-23.523z" style="fill:#bd9aff;stroke-width:4"/>
 <path d="m68.034 50.441c-7.1919-7.8612-5.5932-22.373-5.5932-22.373s5.8588 10.815 10.983 20.237c0.98353 1.8085-4.5432 3.061-5.3898 2.1356z" style="fill:#8c72bd;stroke-width:4"/>
 <path d="m87.966 81.051c0.16488-1.7372 2.8337-2.6343 4.5763-2.5424 3.0616 0.1616 7.8623 2.2408 7.5254 5.2881-0.2338 2.1149-1.8629 3.8815-6.8136 2.6441-2.6148-0.6536-5.5428-2.7066-5.2881-5.3898z" style="fill:#8c72bd"/>
 <path d="m75.648 88.164s-5.7241 36.609 12.227 39.984c4.9418 0.92916 15-1.586 15-1.586s11.147-1.5139 17.125 1.4375c5.4472 2.6895 19.909 15.763 31.422 18.875 11.467 3.0995 17.984-3.6895 22.203-10.641-3.8426 1.6851-11.625 4.4755-19.742 3.4141-3.6057-3.9651-15.672-10.641-15.672-10.641s9.3225 9.1261 13.664 14.523c-11.161-7.0804-22.17-21.648-28.047-23.727-10.394-3.6753-21.968-2.2049-32.789-4.3125-9.3799-1.8269-15.391-27.328-15.391-27.328z" style="fill:#8c72bd;stroke-width:4"/>
 <path d="m152.02 122.39c-0.29932-2.8579 1.154-6.7007 4.0269-6.7594 3.0498-0.0624 4.3628 3.5655 4.3146 6.6156-0.0356 2.261-0.76412 6.0304-3.0202 6.1842-2.6149 0.1784-5.0483-3.4337-5.3213-6.0404z" style="fill:#8c72bd;stroke-width:4"/>
</svg>
