<svg width="192" height="192" version="1.1" viewBox="0 0 192 192" xmlns="http://www.w3.org/2000/svg">
 <g transform="translate(0 -860.36)">
  <g transform="matrix(.875 0 0 .875 12 119.55)">
   <rect x="18.172" y="868.36" width="116.43" height="160.43" rx="9.1676" style="fill-rule:evenodd;fill:#575a5c"/>
   <rect x="31.021" y="1007.5" width="45.365" height="6.9224" rx="3.4612" ry="3.4612" style="fill:#4c4c4c;paint-order:markers fill stroke;stroke-dasharray:40, 10;stroke-linejoin:round;stroke-width:10"/>
   <rect x="31.021" y="986.75" width="19.875" height="6.9224" rx="3.4612" ry="3.4612" style="fill:#4c4c4c;paint-order:markers fill stroke;stroke-dasharray:40, 9.99992;stroke-linejoin:round;stroke-width:9.9999"/>
   <rect x="31.021" y="965.98" width="54.59" height="6.9224" rx="3.4612" ry="3.4612" style="fill:#4c4c4c;paint-order:markers fill stroke;stroke-dasharray:40, 10;stroke-linejoin:round;stroke-width:10"/>
   <path transform="matrix(.84508 -.31144 .31144 .84508 -263.88 195.05)" d="m100.43 892.55 14.795 29.977a19.021 19.021 36 0 0 14.322 10.405l33.082 4.8071a4.9353 4.9353 72 0 1 2.7352 8.4181l-23.938 23.334a19.021 19.021 108 0 0-5.4704 16.836l5.6511 32.948a4.9353 4.9353 144 0 1-7.1609 5.2026l-29.59-15.556a19.021 19.021 1.5496e-6 0 0-17.703 0l-29.589 15.556a4.9353 4.9353 36 0 1-7.1609-5.2026l5.6511-32.948a19.021 19.021 72 0 0-5.4704-16.836l-23.938-23.334a4.9353 4.9353 108 0 1 2.7352-8.4181l33.082-4.8071a19.021 19.021 144 0 0 14.322-10.405l14.795-29.977a4.9353 4.9353 1.5496e-6 0 1 8.8513 0z" style="fill:#fefefe;paint-order:markers fill stroke;stroke-dasharray:44.4129, 11.1032;stroke-linejoin:round;stroke-width:11.103"/>
   <rect x="31.021" y="882.41" width="72.926" height="6.9224" rx="3.4612" ry="3.4612" style="fill:#84878d;paint-order:markers fill stroke;stroke-dasharray:40, 10;stroke-linejoin:round;stroke-width:10"/>
   <rect x="31.021" y="903.17" width="21.687" height="6.9224" rx="3.4612" ry="3.4612" style="fill:#84878d;paint-order:markers fill stroke;stroke-dasharray:40, 10;stroke-linejoin:round;stroke-width:10"/>
   <rect x="31.021" y="923.94" width="40.374" height="6.9224" rx="3.4612" ry="3.4612" style="fill:#84878d;paint-order:markers fill stroke;stroke-dasharray:40, 9.99992;stroke-linejoin:round;stroke-width:9.9999"/>
   <rect x="61.102" y="903.17" width="21.687" height="6.9224" rx="3.4612" ry="3.4612" style="fill:#84878d;paint-order:markers fill stroke;stroke-dasharray:40, 10;stroke-linejoin:round;stroke-width:10"/>
   <path d="m97.442 942.83c-0.21906 2.11-0.4376 4.2201-0.68209 6.3268-0.31825 2.7422-1.0353 7.1897-2.1228 9.7225-1.805 4.2036-4.7745 7.901-8.4596 10.622-2.2179 1.6376-6.2535 3.6269-8.6806 4.944-3.1383 1.7031-6.2759 3.4072-9.4123 5.1139-2.4256 1.3199-2.3472 3.3051 0.17614 4.4268 4.4411 1.9743 8.8849 3.9436 13.305 5.9625 2.5116 1.1472 6.5532 3.1369 8.6511 4.9248 3.5906 3.0599 6.2995 7.1442 7.7817 11.629 0.86506 2.6177 1.5033 7.0713 2.0065 9.7865 0.64646 3.4883 1.2936 6.9765 1.9436 10.464 0.50595 2.7147 2.4191 3.254 4.2655 1.2007 3.2485-3.6127 6.4916-7.231 9.7769-10.809 1.8674-2.034 5.0088-5.2628 7.3569-6.7065 4.0139-2.4678 8.7287-3.7827 13.447-3.8108 2.7569-0.016 7.1904 0.749 9.9284 1.1082 3.5277 0.4627 7.0554 0.9255 10.583 1.3882 2.738 0.3591 3.8394-1.2891 2.4571-3.6796-2.4112-4.1696-4.8248-8.3382-7.1988-12.529-1.3611-2.4025-3.4784-6.379-4.139-9.055-1.1369-4.605-0.94497-9.5311 0.48982-14.059 0.83289-2.6281 2.9307-6.6085 4.1209-9.1002 1.5378-3.2194 3.0756-6.4386 4.6094-9.6598 1.1872-2.4932-0.0441-4.0549-2.7449-3.4792-4.7609 1.0149-9.5203 2.0387-14.291 3.0032-2.7064 0.54716-7.1464 1.3093-9.8943 1.0942-4.6879-0.36701-9.2638-2.0739-13.091-4.8168-2.241-1.606-5.3788-4.8302-7.3818-6.7311-2.579-2.4475-5.1584-4.8945-7.7397-7.3396-2.0048-1.899-3.8661-1.2108-4.1558 1.5354-0.20682 1.9609-0.61949 5.7756-0.90464 8.5223z" style="fill:#9bbfff;paint-order:markers fill stroke;stroke-dasharray:40.0001, 10;stroke-linejoin:round;stroke-width:10"/>
  </g>
 </g>
 <style type="text/css">.st0{fill:#FFFFFF;}</style>
</svg>
