<svg xmlns="http://www.w3.org/2000/svg" width="192" height="192" viewBox="0 0 192 192">
  <g fill="none" fill-rule="evenodd">
    <g fill="#99CDCD" transform="translate(11 35)">
      <path d="M31.470478,12.10403 L29.8172446,12.10403 C26.274584,12.10403 23.9718891,12.7928703 22.9090909,14.1705717 C21.8462927,15.5482731 21.3149016,18.4217214 21.3149016,22.7910028 L21.3149016,46.5267104 C21.3149016,50.6991774 20.7441482,54.1040168 19.6026242,56.7413308 C18.4611002,59.0243788 16.2764922,61.1302621 13.0487348,63.059044 C18.5595402,66.3655273 21.3149016,70.7347432 21.3149016,76.1668229 L21.3149016,102.913777 C21.3149016,107.401147 21.8462927,110.35332 22.9090909,111.770384 C24.011252,113.187449 26.3139469,113.89597 29.8172446,113.89597 L31.470478,113.836926 L31.470478,125.763824 L28.1049672,125.763824 L23.9128397,126 C18.126494,126 13.9737708,124.445189 11.4545455,121.33552 C8.93532011,118.225851 7.67572634,113.108752 7.67572634,105.984067 L7.67572634,76.9343955 C7.67572634,74.8875249 6.98688599,73.0670183 5.60918463,71.472821 C4.23148327,69.8786237 2.36177376,68.8060009 -1.77635684e-15,68.2549203 L-1.77635684e-15,56.8594189 C2.75540272,56.2296126 4.72351799,55.0487434 5.90440487,53.316776 C7.08529175,51.5848086 7.67572634,49.0065776 7.67572634,45.5820056 L7.67572634,19.2483599 C7.67572634,12.5173047 8.92547954,7.62653821 11.4250234,4.57591378 C13.9245673,1.52528934 17.9493631,-7.10542736e-15 23.4995314,-7.10542736e-15 L28.0459231,0.118088097 L31.470478,0.236176195 L31.470478,12.10403 Z"/>
      <path d="M174.470478,12.10403 L172.817245,12.10403 C169.274584,12.10403 166.971889,12.7928703 165.909091,14.1705717 C164.846293,15.5482731 164.314902,18.4217214 164.314902,22.7910028 L164.314902,46.5267104 C164.314902,50.6991774 163.744148,54.1040168 162.602624,56.7413308 C161.4611,59.0243788 159.276492,61.1302621 156.048735,63.059044 C161.55954,66.3655273 164.314902,70.7347432 164.314902,76.1668229 L164.314902,102.913777 C164.314902,107.401147 164.846293,110.35332 165.909091,111.770384 C167.011252,113.187449 169.313947,113.89597 172.817245,113.89597 L174.470478,113.836926 L174.470478,125.763824 L171.104967,125.763824 L166.91284,126 C161.126494,126 156.973771,124.445189 154.454545,121.33552 C151.93532,118.225851 150.675726,113.108752 150.675726,105.984067 L150.675726,76.9343955 C150.675726,74.8875249 149.986886,73.0670183 148.609185,71.472821 C147.231483,69.8786237 145.361774,68.8060009 143,68.2549203 L143,56.8594189 C145.755403,56.2296126 147.723518,55.0487434 148.904405,53.316776 C150.085292,51.5848086 150.675726,49.0065776 150.675726,45.5820056 L150.675726,19.2483599 C150.675726,12.5173047 151.92548,7.62653821 154.425023,4.57591378 C156.924567,1.52528934 160.949363,-7.10542736e-15 166.499531,-7.10542736e-15 L171.045923,0.118088097 L174.470478,0.236176195 L174.470478,12.10403 Z" transform="matrix(-1 0 0 1 317.47 0)"/>
    </g>
    <polygon fill="#99CDCD" points="98.666 94 151.166 117.5 98.666 141 46.166 117.5"/>
    <polygon fill="#719898" points="98.666 81 151.166 104.5 98.666 128 46.166 104.5"/>
    <path fill="#83868C" d="M98.6659992,94 L136.644276,111 L98.6659992,128 L60.6872758,111 L98.6659992,94 Z"/>
    <polygon fill="#99CDCD" points="98.666 68 151.166 91.5 98.666 115 46.166 91.5"/>
    <path fill="#56595B" d="M98.6659992,81 L136.644276,98 L98.6659992,115 L60.6872758,98 L98.6659992,81 Z"/>
    <polygon fill="#99CDCD" points="98.666 55 151.166 78.5 98.666 102 46.166 78.5"/>
    <path fill="#719898" d="M98.6659992,68 L136.644276,85 L98.6659992,102 L60.6872758,85 L98.6659992,68 Z"/>
  </g>
</svg>
