<svg xmlns="http://www.w3.org/2000/svg" width="192" height="192" viewBox="0 0 192 192">
  <g fill="none" fill-rule="evenodd">
    <rect width="152" height="152" x="21" y="20" fill="#56595B" rx="10"/>
    <g transform="translate(28 25)">
      <rect width="20" height="86" fill="#F9DE81"/>
      <g stroke="#56595B" stroke-width="3" transform="rotate(-90 70.5 70.5)">
        <line x1="1" x2="1" y2="6.519"/>
        <line x1="8" x2="8" y2="6.519"/>
        <line x1="15" x2="15" y2="6.519"/>
        <line x1="22" x2="22" y2="10"/>
        <line x1="28" x2="28" y2="6.519"/>
        <line x1="35" x2="35" y2="6.519"/>
        <line x1="42" x2="42" y2="6.519"/>
        <line x1="49" x2="49" y2="6.519"/>
        <line x1="56" x2="56" y2="10"/>
        <line x1="62" x2="62" y2="6.519"/>
        <line x1="69" x2="69" y2="6.519"/>
        <line x1="76" x2="76" y2="6.519"/>
        <line x1="83" x2="83" y2="6.519"/>
        <line x1="90" x2="90" y2="10"/>
        <line x1="96" x2="96" y2="6.519"/>
        <line x1="103" x2="103" y2="6.519"/>
        <line x1="110" x2="110" y2="6.519"/>
        <line x1="117" x2="117" y2="6.519"/>
        <line x1="124" x2="124" y2="10"/>
        <line x1="130" x2="130" y2="6.519"/>
        <line x1="137" x2="137" y2="6.519"/>
      </g>
    </g>
    <g transform="translate(58 25)">
      <rect width="13" height="83" fill="#FFF" rx="6.5"/>
      <rect width="9" height="52" x="2" y="25" fill="#FF837D" rx="4.5"/>
    </g>
    <rect width="20" height="86" x="119" y="25" fill="#FFF"/>
    <rect width="20" height="62" x="119" y="49" fill="#98DC9A"/>
    <rect width="14" height="74" x="151" y="37" fill="#FF837D"/>
    <polygon fill="#D3B69A" points="151 24.817 165 24.817 158 37" transform="matrix(1 0 0 -1 0 61.817)"/>
    <polygon fill="#4A4A4A" points="156 24.87 160 24.87 158 28.351" transform="matrix(1 0 0 -1 0 53.221)"/>
    <g transform="translate(82 25)">
      <path fill="#728DBE" d="M13,6 C17.9705627,6 22,10.0294373 22,15 C22,19.9705627 17.9705627,24 13,24 C12.3126422,24 11.6432814,23.9229453 11.0000846,23.7770028 L11,79 L4,79 L4,15 L4.00383711,14.7346377 C4.14420858,9.88681368 8.1181973,6 13,6 Z" transform="scale(-1 1) rotate(2 0 -702.27)"/>
      <rect width="4" height="10" x="10" fill="#728DBE"/>
      <path fill="#9ABEFF" d="M11,6 C15.9705627,6 20,10.0294373 20,15 C20,19.9705627 15.9705627,24 11,24 C10.3126422,24 9.64328145,23.9229453 9.00008462,23.7770028 L9,79 L2,79 L2,15 L2.00383711,14.7346377 C2.14420858,9.88681368 6.1181973,6 11,6 Z" transform="rotate(2 11 42.5)"/>
      <circle cx="12" cy="15" r="4" fill="#728DBE"/>
      <path stroke="#9ABEFF" stroke-width="5" d="M3.92182867,60.0828071 C3.92182867,60.0828071 11.4233904,60.897169 19.046627,59.566511 C26.6698636,58.2358529 30.3426598,56.1422322 30.3426598,56.1422322"/>
    </g>
    <path fill="#B1B5BD" d="M21,96 L87.0057357,96 C92.5254155,96 97,100.47041 97,105.994264 L97,172 L30.9942643,172 C25.4745845,172 21,167.52959 21,162.005736 L21,96 Z"/>
    <path fill="#D2D2D2" d="M97,105.994264 C97,100.474585 101.47041,96 106.994264,96 L173,96 L173,162.005736 C173,167.525415 168.52959,172 163.005736,172 L97,172 L97,105.994264 Z"/>
    <path fill="#FFF" d="M54.7277391,148.244703 L59.9707065,148.244703 L59.9707065,137.488512 L70.7268976,137.488512 L70.7268976,132.191493 L59.9707065,132.191493 L59.9707065,121.435302 L54.7277391,121.435302 L54.7277391,132.191493 L43.9174969,132.191493 L43.9174969,137.488512 L54.7277391,137.488512 L54.7277391,148.244703 Z M124.777916,134.623797 L150.722498,134.623797 L150.722498,130.299701 L124.777916,130.299701 L124.777916,134.623797 Z M124.777916,143.271991 L150.722498,143.271991 L150.722498,138.947894 L124.777916,138.947894 L124.777916,143.271991 Z"/>
  </g>
</svg>
