<svg width="192" height="192" version="1.1" viewBox="0 0 192 192" xmlns="http://www.w3.org/2000/svg">
 <path d="m34.5 35c-5.5502 0-9.5747 1.5255-12.074 4.5762-2.4995 3.0506-3.75 7.9408-3.75 14.672v26.334c0 3.4246-0.5906 6.0024-1.7715 7.7344s-3.1489 2.9132-5.9043 3.543v11.396c2.3618 0.55108 4.2317 1.6226 5.6094 3.2168 1.3777 1.5942 2.0664 3.4141 2.0664 5.4609v29.051c0 7.1247 1.2601 12.242 3.7793 15.352 2.5192 3.1097 6.6707 4.6641 12.457 4.6641l4.1934-0.23633h3.3652v-11.926l-1.6543 0.05859c-3.5033 0-5.806-0.70988-6.9082-2.127-1.0628-1.4171-1.5938-4.3681-1.5938-8.8555v-26.748c0-5.4321-2.7548-9.8009-8.2656-13.107 3.2278-1.9288 5.4132-4.0334 6.5547-6.3164 1.1415-2.6373 1.7109-6.0424 1.7109-10.215v-23.736c0-4.3693 0.53095-7.2434 1.5938-8.6211 1.0628-1.3777 3.3655-2.0664 6.9082-2.0664h1.6543v-11.867l-3.4238-0.11914-4.5469-0.11719zm127.47 0-4.5469 0.11719-3.4238 0.11914v11.867h1.6523c3.5427 0 5.8454 0.6887 6.9082 2.0664 1.0628 1.3777 1.5938 4.2518 1.5938 8.6211v23.736c0 4.1725 0.57136 7.5775 1.7129 10.215 1.1415 2.283 3.3269 4.3876 6.5547 6.3164-5.5108 3.3065-8.2676 7.6753-8.2676 13.107v26.748c0 4.4874-0.53095 7.4384-1.5938 8.8555-1.1022 1.4171-3.4049 2.127-6.9082 2.127l-1.6523-0.05859v11.926h3.3652l4.1914 0.23633c5.7864 0 9.9398-1.5544 12.459-4.6641s3.7793-8.2269 3.7793-15.352v-29.051c0-2.0469 0.6887-3.8667 2.0664-5.4609 1.3777-1.5942 3.2476-2.6657 5.6094-3.2168v-11.396c-2.7554-0.62981-4.7234-1.811-5.9043-3.543-1.1809-1.732-1.7715-4.3098-1.7715-7.7344v-26.334c0-6.7311-1.2505-11.621-3.75-14.672-2.4996-3.0506-6.524-4.5762-12.074-4.5762z" style="fill-rule:evenodd;fill:#99cdcd"/>
 <polygon points="98.666 141 46.166 117.5 98.666 94 151.17 117.5" style="fill-rule:evenodd;fill:#99cdcd"/>
 <polygon points="98.666 128 46.166 104.5 98.666 81 151.17 104.5" style="fill-rule:evenodd;fill:#719898"/>
 <path d="m98.666 94 37.978 17-37.978 17-37.979-17z" style="fill-rule:evenodd;fill:#83868c"/>
 <polygon points="98.666 115 46.166 91.5 98.666 68 151.17 91.5" style="fill-rule:evenodd;fill:#99cdcd"/>
 <path d="m98.666 81 37.978 17-37.978 17-37.979-17z" style="fill-rule:evenodd;fill:#56595b"/>
 <polygon points="98.666 102 46.166 78.5 98.666 55 151.17 78.5" style="fill-rule:evenodd;fill:#99cdcd"/>
 <path d="m98.666 68 37.978 17-37.978 17-37.979-17z" style="fill-rule:evenodd;fill:#719898"/>
</svg>
