<svg width="192" height="192" version="1.1" viewBox="0 0 192 192" xmlns="http://www.w3.org/2000/svg">
 <ellipse cx="120.39" cy="103.11" rx="46.632" ry="41.16" style="fill-rule:evenodd;fill:#fff"/>
 <g transform="translate(-14.647 -250.47)" style="fill:#728dbe;stroke-width:0">
  <path d="m112.87 349.25c0.328-5.895 3.219-11.094 7.574-14.781 4.278-3.621 10.032-5.828 16.309-5.832 6.277 4e-3 12.031 2.211 16.309 5.832 4.355 3.687 7.246 8.886 7.578 14.781 0.332 6.062-2.102 11.699-6.379 15.871-4.356 4.246-10.563 6.914-17.504 6.914-6.945 0-13.156-2.668-17.516-6.914-4.273-4.172-6.707-9.809-6.371-15.871z" style="fill:#728dbe"/>
 </g>
 <path d="m60.181 110.72c0.0391 2.301 0.7813 6.786 1.8828 10.297 2.3204 7.414 6.2579 14.278 11.742 20.328 5.625 6.211 12.543 11.207 20.543 14.746 8.41 3.727 17.524 5.629 26.973 5.61 9.453-0.016 18.562-1.949 26.972-5.699 7.993-3.578 14.911-8.586 20.532-14.813 5.476-6.074 9.406-12.949 11.73-20.367 1.176-3.75 1.906-7.551 2.207-11.367 0.293-3.758 0.168-7.528-0.363-11.289-1.043-7.332-3.582-14.215-7.484-20.489-3.583-5.761-8.184-10.808-13.661-15.058l8e-3 -8e-3 -55.262-42.437c-0.046-0.04-0.093-0.079-0.14-0.118-3.637-2.777-9.731-2.769-13.715 0.02-4.039 2.824-4.492 7.484-0.91 10.433l-0.012 8e-3 23.051 18.75-70.266 0.074h-0.0977c-5.8047 4e-3 -11.383 3.821-12.492 8.633-1.1289 4.907 2.8164 8.973 8.8516 8.996l-0.0078 0.024 35.613-0.07-63.555 48.777c-0.0782 0.062-0.1641 0.121-0.2422 0.183-5.9883 4.59-7.9297 12.227-4.1563 17.059 3.836 4.914 11.98 4.918 18.039 0.02l34.684-28.379s-0.5039 3.832-0.4649 6.136zm89.121 12.825c-7.144 7.289-17.144 11.414-27.976 11.433-10.836 0.02-20.84-4.074-27.989-11.344-3.492-3.546-6.058-7.613-7.644-11.96-1.547-4.266-2.1525-8.79-1.7541-13.356 0.3868-4.469 1.7031-8.727 3.8321-12.582 2.09-3.789 4.961-7.211 8.504-10.109 6.945-5.664 15.785-8.727 25.043-8.739 9.258-0.011 18.094 3.028 25.043 8.668 3.539 2.883 6.41 6.293 8.496 10.075 2.129 3.851 3.449 8.101 3.84 12.57 0.394 4.566-0.207 9.09-1.758 13.359-1.582 4.352-4.145 8.426-7.637 11.985z" style="fill:#f8c18c;stroke-width:0"/>
</svg>
