<svg width="192" height="192" fill="none" version="1.1" viewBox="0 0 192 192" xmlns="http://www.w3.org/2000/svg">
 <path d="M96.5 184C144.825 184 184 144.825 184 96.5C184 48.1751 144.825 9 96.5 9C48.1751 9 9 48.1751 9 96.5C9 144.825 48.1751 184 96.5 184Z" clip-rule="evenodd" fill="#96DFD3" fill-rule="evenodd"/>
 <path d="m93.593 112.9c0 0.365 0.0667 0.727 0.1968 1.068l6.4394 16.892c0.288 0.756 0.869 1.364 1.612 1.685 1.52 0.658 3.286-0.042 3.944-1.562l28.563-66.032c0.329-0.76 0.329-1.6221 0-2.3821-0.657-1.5207-2.423-2.2202-3.944-1.5624l-66.032 28.563c-0.7426 0.3213-1.324 0.9289-1.6122 1.6849-0.5901 1.5482 0.1865 3.2817 1.7347 3.8718l16.892 6.4393c0.3412 0.13 0.7033 0.196 1.0685 0.196h8.1371c1.6569 0 3 1.344 3 3v8.138z" clip-rule="evenodd" fill="#fff" fill-rule="evenodd"/>
 <mask x="62" y="60" width="73" height="73" mask-type="alpha" maskUnits="userSpaceOnUse">
  <path d="m93.593 112.9c0 0.365 0.0667 0.727 0.1968 1.068l6.4394 16.892c0.288 0.756 0.869 1.364 1.612 1.685 1.52 0.658 3.286-0.042 3.944-1.562l28.563-66.032c0.329-0.76 0.329-1.6221 0-2.3821-0.657-1.5207-2.423-2.2202-3.944-1.5624l-66.032 28.563c-0.7426 0.3213-1.324 0.9289-1.6122 1.6849-0.5901 1.5482 0.1865 3.2817 1.7347 3.8718l16.892 6.4393c0.3412 0.13 0.7033 0.196 1.0685 0.196h8.1371c1.6569 0 3 1.344 3 3v8.138z" clip-rule="evenodd" fill="#fff" fill-rule="evenodd"/>
 </mask>
 <path d="m131.85 63.512-49.498 38.184 0.066407 0.06641c0.013139 1.7e-4 0.025914 0.0039 0.039062 0.0039h8.1387c0.82845 0 1.5782 0.33591 2.1211 0.87891l39.133-39.133z" style="clip-rule:evenodd;fill-opacity:.5;fill-rule:evenodd;fill:#99cdcd"/>
 <path d="m87.993 116.19c-6.044 2.635-12.95 4.2-12.95 4.2s1.5655-6.906 4.2-12.95c-2.5054 0.777-5.1606 2.388-7.4922 4.719-5.1821 5.183-8.56 20.083-8.56 20.083s14.901-3.378 20.083-8.56c2.3317-2.331 3.9424-4.986 4.7192-7.492z" clip-rule="evenodd" fill="#fff" fill-rule="evenodd"/>
</svg>
