<svg width="192" height="192" version="1.1" viewBox="0 0 192 192" xmlns="http://www.w3.org/2000/svg">
 <path d="m55.656 19.182c-28.678 15.136-46.633 44.891-46.656 77.318 0.043246 30 15.456 57.865 40.801 73.861l-0.007812 0.00976c0.15491 0.09835 0.31329 0.18979 0.46875 0.28711 0.03012 0.01875 0.059695 0.03793 0.089843 0.05664l0.001954-0.00195c13.841 8.6419 29.823 13.252 46.148 13.287 46.957-0.0555 85.499-37.166 87.33-84.088l-64.871-42.916-8.2578 71.402-3.6152 2.4902-45.877-36.789-5.5547-74.918z" style="fill-rule:evenodd;fill:#9abeff"/>
 <path d="m118.96 56.996-8.2574 71.402-60.859 41.912-0.05078 0.0605c13.968 8.8677 30.164 13.593 46.709 13.629 46.957-0.0555 85.499-37.166 87.33-84.088z" style="fill-rule:evenodd;fill:#fff;opacity:.7"/>
 <path d="m96.5 9a87.5 87.5 0 0 0-40.971 10.254l0.77734 72.953 60.842-30.672 66.676 38.492a87.5 87.5 0 0 0 0.17578-3.5273 87.5 87.5 0 0 0-87.5-87.5z" style="fill-rule:evenodd;fill:#728dbe"/>
 <circle cx="96" cy="96" r="41" style="fill-rule:evenodd;fill:#fff"/>
 <circle cx="96.5" cy="96.5" r="31.5" style="fill-rule:evenodd;fill:#9abeff"/>
</svg>
