<svg xmlns="http://www.w3.org/2000/svg" xmlns:xlink="http://www.w3.org/1999/xlink" width="192" height="192" viewBox="0 0 192 192">
  <defs>
    <circle id="chrome-a" cx="87.5" cy="87.5" r="87.5"/>
  </defs>
  <g fill="none" fill-rule="evenodd">
    <g transform="rotate(30 75.21 108.788)">
      <mask id="chrome-b" fill="#fff">
        <use xlink:href="#chrome-a"/>
      </mask>
      <use fill="#B1B5BD" xlink:href="#chrome-a"/>
      <g mask="url(#chrome-b)">
        <g transform="translate(-39.773 -6.96)">
          <polygon fill="#FF837D" points="90.321 110.84 46.952 37.537 90.321 .091 195.583 1.11 209.844 13.001 214.682 33.883 213.586 50.868 204.995 53.856 127.677 53.856"/>
          <polygon fill="#F9DE81" points="118.495 172.696 75.143 97.601 117.84 60.491 223.102 61.51 237.363 73.401 242.201 94.283 241.105 111.268 232.515 114.256 155.196 114.256" transform="rotate(120 158.672 116.594)"/>
          <polygon fill="#98DC9A" points="51.574 170.539 6.978 95.03 50.347 57.584 155.609 58.603 169.87 70.494 174.708 91.376 173.612 108.36 167.707 114.563 87.119 115.244" transform="rotate(-120 90.843 114.061)"/>
        </g>
      </g>
    </g>
    <circle cx="96" cy="96" r="41" fill="#FFF"/>
    <circle cx="96.5" cy="96.5" r="31.5" fill="#9ABEFF"/>
  </g>
</svg>
