<?xml version="1.0" encoding="UTF-8" standalone="no"?>
<svg
   xmlns:dc="http://purl.org/dc/elements/1.1/"
   xmlns:cc="http://creativecommons.org/ns#"
   xmlns:rdf="http://www.w3.org/1999/02/22-rdf-syntax-ns#"
   xmlns:svg="http://www.w3.org/2000/svg"
   xmlns="http://www.w3.org/2000/svg"
   xmlns:sodipodi="http://sodipodi.sourceforge.net/DTD/sodipodi-0.dtd"
   xmlns:inkscape="http://www.inkscape.org/namespaces/inkscape"
   width="192"
   height="192"
   viewBox="0 0 192 192"
   version="1.1"
   id="svg1041"
   sodipodi:docname="code.svg"
   inkscape:version="0.92.4 (f8dce91, 2019-08-02)">
  <metadata
     id="metadata1047">
    <rdf:RDF>
      <cc:Work
         rdf:about="">
        <dc:format>image/svg+xml</dc:format>
        <dc:type
           rdf:resource="http://purl.org/dc/dcmitype/StillImage" />
        <dc:title></dc:title>
      </cc:Work>
    </rdf:RDF>
  </metadata>
  <defs
     id="defs1045">
    <mask
       id="mask0"
       mask-type="alpha"
       maskUnits="userSpaceOnUse"
       x="0"
       y="0"
       width="256"
       height="256">
      <path
         style="clip-rule:evenodd;fill:#ffffff;fill-rule:evenodd"
         inkscape:connector-curvature="0"
         d="m 181.534,254.252 c 4.032,1.571 8.63,1.47 12.7,-0.488 l 52.706,-25.361 c 5.538,-2.665 9.06,-8.271 9.06,-14.42 V 42.0181 c 0,-6.1492 -3.522,-11.7543 -9.06,-14.4193 L 194.234,2.23681 c -5.341,-2.569942 -11.592,-1.940466 -16.279,1.46737 -0.67,0.48682 -1.308,1.03036 -1.906,1.62936 L 75.149,97.3862 31.1992,64.0247 C 27.1079,60.9191 21.3853,61.1735 17.5855,64.63 L 3.48936,77.4525 c -4.64789,4.228 -4.65322,11.5401 -0.01151,15.7749 L 41.5926,128 3.47785,162.773 c -4.64171,4.235 -4.63638,11.547 0.01151,15.775 L 17.5855,191.37 c 3.7998,3.457 9.5224,3.711 13.6137,0.606 l 43.9498,-33.362 100.9,92.053 c 1.596,1.597 3.47,2.8 5.485,3.585 z M 192.039,69.8853 115.479,128 l 76.56,58.115 z"
         id="path912" />
    </mask>
    <filter
       style="color-interpolation-filters:sRGB"
       id="filter0_d"
       x="-21.489599"
       y="40.522499"
       width="298.82199"
       height="236.149"
       filterUnits="userSpaceOnUse">
      <feFlood
         flood-opacity="0"
         result="BackgroundImageFix"
         id="feFlood931" />
      <feColorMatrix
         in="SourceAlpha"
         type="matrix"
         values="0 0 0 0 0 0 0 0 0 0 0 0 0 0 0 0 0 0 127 0"
         id="feColorMatrix933" />
      <feOffset
         id="feOffset935" />
      <feGaussianBlur
         stdDeviation="10.6667"
         id="feGaussianBlur937" />
      <feColorMatrix
         type="matrix"
         values="0 0 0 0 0 0 0 0 0 0 0 0 0 0 0 0 0 0 0.25 0"
         id="feColorMatrix939" />
      <feBlend
         mode="overlay"
         in2="BackgroundImageFix"
         result="effect1_dropShadow"
         id="feBlend941" />
      <feBlend
         mode="normal"
         in="SourceGraphic"
         in2="effect1_dropShadow"
         result="shape"
         id="feBlend943" />
    </filter>
    <filter
       style="color-interpolation-filters:sRGB"
       id="filter1_d"
       x="154.66701"
       y="-20.6735"
       width="122.667"
       height="297.34698"
       filterUnits="userSpaceOnUse">
      <feFlood
         flood-opacity="0"
         result="BackgroundImageFix"
         id="feFlood946" />
      <feColorMatrix
         in="SourceAlpha"
         type="matrix"
         values="0 0 0 0 0 0 0 0 0 0 0 0 0 0 0 0 0 0 127 0"
         id="feColorMatrix948" />
      <feOffset
         id="feOffset950" />
      <feGaussianBlur
         stdDeviation="10.6667"
         id="feGaussianBlur952" />
      <feColorMatrix
         type="matrix"
         values="0 0 0 0 0 0 0 0 0 0 0 0 0 0 0 0 0 0 0.25 0"
         id="feColorMatrix954" />
      <feBlend
         mode="overlay"
         in2="BackgroundImageFix"
         result="effect1_dropShadow"
         id="feBlend956" />
      <feBlend
         mode="normal"
         in="SourceGraphic"
         in2="effect1_dropShadow"
         result="shape"
         id="feBlend958" />
    </filter>
    <linearGradient
       id="paint0_linear"
       x1="127.844"
       y1="0.65998799"
       x2="127.844"
       y2="255.34"
       gradientUnits="userSpaceOnUse">
      <stop
         stop-color="white"
         id="stop961" />
      <stop
         offset="1"
         stop-color="white"
         stop-opacity="0"
         id="stop963" />
    </linearGradient>
  </defs>
  <sodipodi:namedview
     pagecolor="#ffffff"
     bordercolor="#666666"
     borderopacity="1"
     objecttolerance="10"
     gridtolerance="10"
     guidetolerance="10"
     inkscape:pageopacity="0"
     inkscape:pageshadow="2"
     inkscape:window-width="1920"
     inkscape:window-height="1002"
     id="namedview1043"
     showgrid="false"
     inkscape:zoom="2.4583334"
     inkscape:cx="22.461751"
     inkscape:cy="114.20363"
     inkscape:window-x="1920"
     inkscape:window-y="0"
     inkscape:window-maximized="1"
     inkscape:current-layer="svg1041" />
  <g
     id="g921"
     transform="matrix(1.2298232,0,0,1.2298232,-23.043995,-23.208417)">
    <path
       style="fill:#54688c;fill-opacity:1;stroke-width:0.57454258"
       inkscape:connector-curvature="0"
       d="m 164.22424,38.918678 -30.3054,-14.591613 c -3.50758,-1.688972 -7.70002,-0.976526 -10.45323,1.776452 L 24.256303,116.55932 c -2.66848,2.43319 -2.665412,6.63424 0.0066,9.06341 l 8.103733,7.36678 c 2.184526,1.9862 5.474415,2.13213 7.82642,0.34818 L 159.6641,42.704109 c 4.008,-3.040594 9.76492,-0.1819 9.76492,4.849025 v -0.35185 c 0,-3.531426 -2.02296,-6.750646 -5.20478,-8.282606 z"
       id="path915" />
    <g
       transform="matrix(0.5745426,0,0,0.5745426,22.34669,23.039297)"
       style="fill:#728dbe;fill-opacity:1;filter:url(#filter0_d)"
       id="g919">
      <path
         style="fill:#728dbe;fill-opacity:1"
         inkscape:connector-curvature="0"
         d="m 246.94,228.362 -52.747,25.397 c -6.105,2.939 -13.402,1.699 -18.194,-3.092 L 3.32371,93.2272 C -1.32082,88.9925 -1.31548,81.6802 3.33523,77.4523 L 17.4399,64.6298 c 3.8022,-3.4565 9.5283,-3.711 13.622,-0.6053 L 239.003,221.773 c 6.976,5.292 16.996,0.317 16.996,-8.44 v 0.613 c 0,6.146 -3.521,11.749 -9.059,14.416 z"
         id="path917" />
    </g>
    <g
       transform="matrix(0.5745426,0,0,0.5745426,22.34669,23.039297)"
       style="filter:url(#filter1_d)"
       id="g923">
      <path
         style="fill:#9abeff;fill-opacity:1"
         inkscape:connector-curvature="0"
         d="m 194.196,253.763 c -6.107,2.937 -13.404,1.696 -18.196,-3.096 5.904,5.904 16,1.722 16,-6.628 V 11.9606 c 0,-8.35003 -10.096,-12.531775 -16,-6.62739 4.792,-4.792044 12.089,-6.033817 18.196,-3.09673 l 52.738,25.36202 c 5.542,2.665 9.066,8.2701 9.066,14.4193 V 213.983 c 0,6.149 -3.524,11.754 -9.066,14.419 z"
         id="path921" />
    </g>
  </g>
  <g
     id="g927"
     style="opacity:0.25;mix-blend-mode:overlay"
     transform="matrix(0.5745426,0,0,0.5745426,-319.36566,27.641484)">
    <path
       id="path925"
       d="m 181.378,254.252 c 4.032,1.57 8.63,1.47 12.699,-0.488 l 52.706,-25.362 c 5.539,-2.665 9.061,-8.27 9.061,-14.419 V 42.0179 c 0,-6.1492 -3.522,-11.7543 -9.06,-14.4193 L 194.077,2.23665 c -5.34,-2.569949 -11.591,-1.940473 -16.279,1.46736 -0.669,0.48682 -1.307,1.03036 -1.906,1.62936 L 74.9927,97.386 31.0429,64.0245 C 26.9517,60.9189 21.229,61.1734 17.4292,64.6298 L 3.33311,77.4523 c -4.64789,4.228 -4.65322,11.5402 -0.01151,15.775 L 41.4364,128 3.3216,162.773 c -4.64171,4.235 -4.63638,11.547 0.01151,15.775 L 17.4292,191.37 c 3.7998,3.457 9.5225,3.711 13.6137,0.606 l 43.9498,-33.362 100.8993,92.053 c 1.596,1.597 3.471,2.8 5.486,3.585 z M 191.883,69.8851 115.323,128 l 76.56,58.115 z"
       inkscape:connector-curvature="0"
       style="clip-rule:evenodd;fill:url(#paint0_linear);fill-rule:evenodd" />
  </g>
</svg>
