<svg xmlns="http://www.w3.org/2000/svg" width="192" height="192" viewBox="0 0 192 192">
  <g fill="none" fill-rule="evenodd">
    <rect width="152" height="152" x="20" y="20" fill="#9ABEFF" rx="10"/>
    <path fill="#FFF" d="M96.5,65 C118.315248,65 136,79.7746033 136,98 C136,116.225397 118.315248,131 96.5,131 C74.6847524,131 57,116.225397 57,98 C57,79.7746033 74.6847524,65 96.5,65 Z M80.5,96 C75.8055796,96 72,99.8055796 72,104.5 C72,109.19442 75.8055796,113 80.5,113 C85.1944204,113 89,109.19442 89,104.5 C89,99.8055796 85.1944204,96 80.5,96 Z M111.5,96 C106.80558,96 103,99.8055796 103,104.5 C103,109.19442 106.80558,113 111.5,113 C116.19442,113 120,109.19442 120,104.5 C120,99.8055796 116.19442,96 111.5,96 Z"/>
    <g fill="#FFF" transform="translate(47 61)">
      <path d="M8.60428192,9.90959837 C9.37511573,4.43667831 14.4738625,0 20.0012144,0 L23,0 L13,71 L10.0012144,71 C4.47769619,71 0.625544786,66.558632 1.39571808,61.0904016 L8.60428192,9.90959837 Z"/>
      <path d="M15,52 C15,52 28,70 36,71 L11.9750156,71 L11.9750156,71 L15,52 Z M43.0249844,0 C35.0249844,1 22.0249844,19 22.0249844,19 L22.0249844,19 L19,3.55271368e-15 L19,3.55271368e-15 Z"/>
    </g>
    <g fill="#FFF" transform="matrix(-1 0 0 1 146 61)">
      <path d="M8.60428192,9.90959837 C9.37511573,4.43667831 14.4738625,0 20.0012144,0 L23,0 L13,71 L10.0012144,71 C4.47769619,71 0.625544786,66.558632 1.39571808,61.0904016 L8.60428192,9.90959837 Z"/>
      <path d="M15,52 C15,52 28,70 36,71 L11.9750156,71 L11.9750156,71 L15,52 Z M43.0249844,0 C35.0249844,1 22.0249844,19 22.0249844,19 L22.0249844,19 L19,3.55271368e-15 L19,3.55271368e-15 Z"/>
    </g>
  </g>
</svg>
