<?xml version="1.0" encoding="UTF-8" standalone="no"?>
<svg
   xmlns:dc="http://purl.org/dc/elements/1.1/"
   xmlns:cc="http://creativecommons.org/ns#"
   xmlns:rdf="http://www.w3.org/1999/02/22-rdf-syntax-ns#"
   xmlns:svg="http://www.w3.org/2000/svg"
   xmlns="http://www.w3.org/2000/svg"
   xmlns:sodipodi="http://sodipodi.sourceforge.net/DTD/sodipodi-0.dtd"
   xmlns:inkscape="http://www.inkscape.org/namespaces/inkscape"
   width="192"
   height="192"
   viewBox="0 0 192 192"
   version="1.1"
   id="svg885"
   sodipodi:docname="franz.svg"
   inkscape:version="0.92.4 (f8dce91, 2019-08-02)">
  <metadata
     id="metadata891">
    <rdf:RDF>
      <cc:Work
         rdf:about="">
        <dc:format>image/svg+xml</dc:format>
        <dc:type
           rdf:resource="http://purl.org/dc/dcmitype/StillImage" />
        <dc:title />
      </cc:Work>
    </rdf:RDF>
  </metadata>
  <defs
     id="defs889" />
  <sodipodi:namedview
     pagecolor="#ffffff"
     bordercolor="#666666"
     borderopacity="1"
     objecttolerance="10"
     gridtolerance="10"
     guidetolerance="10"
     inkscape:pageopacity="0"
     inkscape:pageshadow="2"
     inkscape:window-width="1920"
     inkscape:window-height="1004"
     id="namedview887"
     showgrid="false"
     inkscape:zoom="1.2291667"
     inkscape:cx="123.82522"
     inkscape:cy="163.59815"
     inkscape:window-x="0"
     inkscape:window-y="0"
     inkscape:window-maximized="1"
     inkscape:current-layer="svg885" />
  <circle
     style="fill:#9abeff;fill-rule:evenodd;stroke:#9abeff;fill-opacity:1;stroke-opacity:0.94117647"
     id="circle875"
     r="88"
     cy="96"
     cx="96" />
  <path
     inkscape:connector-curvature="0"
     style="fill:#ffffff;stroke-width:2.90904379"
     d="m 44.291616,52.248489 c -0.505272,-0.06022 -1.055663,0.277814 -1.704496,0.909076 -1.061365,1.032641 -1.297201,3.735012 -1.636338,18.545155 -0.21876,9.535139 -0.287413,17.579375 -0.147779,17.880395 0.785326,1.69425 9.725981,-1.441024 12.891835,-4.522656 l 1.579524,-1.54543 -1.948856,-3.22722 C 52.060421,78.189277 50.619979,73.500995 49.211943,66.918707 46.928751,56.249443 45.807431,52.42853 44.291558,52.248489 Z m 103.418804,0 c -1.51587,0.180041 -2.63719,4.000954 -4.92038,14.670218 -1.40804,6.582288 -2.84848,11.27057 -4.11357,13.369102 l -1.94882,3.22722 1.57949,1.54543 c 3.16588,3.081632 12.10654,6.216906 12.89184,4.522656 0.13992,-0.30102 0.071,-8.345256 -0.14778,-17.880395 -0.33914,-14.810143 -0.57498,-17.512514 -1.63634,-18.545155 -0.64883,-0.631262 -1.19922,-0.969293 -1.7045,-0.909076 z M 79.086515,72.606115 c -1.312386,0.0049 -2.404499,0.334412 -3.505631,0.95453 -1.303775,0.734219 -6.145238,5.339076 -10.761164,10.227107 -7.016439,7.430091 -9.067577,9.154139 -12.533906,10.56801 -5.455156,2.224898 -10.053481,3.06139 -13.829304,1.90906 -5.125473,-1.564275 -7.896803,1.059453 -5.693115,5.704458 2.101144,4.42913 10.506332,8.44453 21.636014,10.34074 15.451241,2.63277 25.684559,1.07611 36.544863,-7.82942 2.081945,-1.70712 4.38419,-3.11359 5.12492,-3.11359 0.74076,0 3.27061,1.58011 5.613548,3.49995 5.56463,4.55975 8.27783,5.13584 14.87476,7.11352 4.69508,1.40764 6.52321,1.56826 13.12479,1.14771 13.88039,-0.88428 23.16641,-3.86918 28.05636,-9.02258 1.64649,-1.73389 2.26135,-3.06554 2.26135,-4.869243 0,-3.61264 -1.91706,-3.949124 -6.80673,-2.670413 -2.96911,0.776462 -4.62494,0.228768 -7.61352,-0.454538 -7.31892,-1.675696 -10.6297,-3.974036 -19.15876,-13.300922 -6.62663,-7.243898 -9.3586,-10.042011 -12.96569,-10.181654 -2.16398,-0.08116 -4.64144,0.799513 -8.46579,2.261328 -4.0559,1.550425 -8.228258,3.534267 -9.272568,3.534035 -1.044323,-2.68e-4 -4.264838,-1.740252 -7.147613,-2.988589 -4.493251,-1.945598 -7.295475,-2.83781 -9.482814,-2.829499 z M 44.371178,119.15083 c -0.38443,-0.0116 -0.623466,0.009 -0.67612,0.0681 -0.210906,0.23999 0.185015,2.48485 0.874982,4.97717 1.511365,5.45943 4.74788,9.68682 8.60213,11.23845 3.835691,1.54403 14.04917,1.56393 16.647469,0.034 2.077,-1.22174 2.909044,-3.77588 2.909044,-8.97711 0,-5.12559 -0.161161,-5.23287 -8.085105,-5.23287 -3.966074,-0.006 -10.218977,-0.55237 -13.891819,-1.22727 -2.755069,-0.51051 -5.227261,-0.8463 -6.380581,-0.88065 z m 103.072192,0.0116 c -0.26152,0.0262 -0.59743,0.10094 -1.0227,0.21585 -5.16993,1.39631 -10.53819,2.15813 -18.34062,2.60223 l -8.53394,0.48863 -0.20451,5.17036 c -0.18938,4.6515 -0.0329,5.35078 1.56815,7.07375 1.64847,1.77393 2.25759,1.91775 8.38622,1.88634 6.88649,-0.0349 10.98883,-1.10925 13.52252,-3.53406 1.86795,-1.78589 5.54536,-10.01226 5.54536,-12.40317 3.5e-4,-1.18808 -0.13585,-1.57519 -0.92045,-1.49999 z"
     id="path2063" />
</svg>
