<?xml version="1.0" encoding="UTF-8" standalone="no"?>
<svg
   xmlns:dc="http://purl.org/dc/elements/1.1/"
   xmlns:cc="http://creativecommons.org/ns#"
   xmlns:rdf="http://www.w3.org/1999/02/22-rdf-syntax-ns#"
   xmlns:svg="http://www.w3.org/2000/svg"
   xmlns="http://www.w3.org/2000/svg"
   xmlns:sodipodi="http://sodipodi.sourceforge.net/DTD/sodipodi-0.dtd"
   xmlns:inkscape="http://www.inkscape.org/namespaces/inkscape"
   width="192"
   height="192"
   viewBox="0 0 192 192"
   version="1.1"
   id="svg889"
   sodipodi:docname="games.svg"
   inkscape:version="0.92.4 (f8dce91, 2019-08-02)">
  <metadata
     id="metadata895">
    <rdf:RDF>
      <cc:Work
         rdf:about="">
        <dc:format>image/svg+xml</dc:format>
        <dc:type
           rdf:resource="http://purl.org/dc/dcmitype/StillImage" />
        <dc:title></dc:title>
      </cc:Work>
    </rdf:RDF>
  </metadata>
  <defs
     id="defs893" />
  <sodipodi:namedview
     pagecolor="#ffffff"
     bordercolor="#666666"
     borderopacity="1"
     objecttolerance="10"
     gridtolerance="10"
     guidetolerance="10"
     inkscape:pageopacity="0"
     inkscape:pageshadow="2"
     inkscape:window-width="1920"
     inkscape:window-height="1004"
     id="namedview891"
     showgrid="false"
     inkscape:zoom="2.4583333"
     inkscape:cx="161.90709"
     inkscape:cy="100.01654"
     inkscape:window-x="0"
     inkscape:window-y="0"
     inkscape:window-maximized="1"
     inkscape:current-layer="svg889" />
  <rect
     style="fill:#ececec;fill-rule:evenodd;stroke:#ececec;fill-opacity:1;stroke-opacity:1"
     id="rect877"
     rx="10"
     y="19.5"
     x="19.5"
     height="153"
     width="153" />
  <g
     id="g1541"
     transform="translate(-7)">
    <path
       id="path861-2"
       d="m 81.878153,63.923574 -0.0049,0.03791 c -10.08546,0.548068 -18.60519,6.987607 -22.185268,15.940793 l -0.124797,4.73e-4 -0.408374,1.462109 c -0.242394,0.734597 -0.452246,1.484021 -0.627831,2.246561 l -5.414163,19.37692 22.367657,12.42843 0.288732,-0.65064 h 54.461461 l 4.92207,11.08478 c 1.09385,5.12933 5.58526,8.99874 11.00276,9.13404 l 0.29355,0.004 c 6.37942,-5e-5 11.55096,-5.17732 11.55096,-11.5638 0,-0.71173 -0.0643,-1.40843 -0.1872,-2.08462 l 0.1872,-0.0519 -11.56433,-41.385579 -0.40249,-4.73e-4 C 142.37392,70.751026 133.554,64.225868 123.17645,63.933793 l -0.001,-0.01022 z"
       inkscape:connector-curvature="0"
       style="fill:#4a4a4a;fill-opacity:1;fill-rule:evenodd;stroke-width:1.00253713" />
    <path
       id="path861"
       d="m 124.12149,63.923577 0.005,0.03791 c 10.0853,0.548072 18.60499,6.987611 22.18505,15.940797 l 0.1248,4.73e-4 0.40837,1.462109 c 0.24239,0.734597 0.45224,1.484021 0.62783,2.246561 l 5.41414,19.376913 -22.36755,12.42843 -0.28873,-0.65064 H 75.769209 l -4.92205,11.08478 c -1.093846,5.12933 -5.585235,8.99874 -11.002705,9.13404 l -0.293561,0.004 C 53.171511,134.98891 48,129.81164 48,123.42516 c 0,-0.71173 0.06422,-1.40843 0.187194,-2.08462 L 48,121.28861 59.564272,79.903034 l 0.402489,-4.73e-4 c 3.659256,-9.151532 12.479124,-15.67669 22.856625,-15.968765 l 0.0015,-0.01022 z"
       inkscape:connector-curvature="0"
       style="fill:#4a4a4a;fill-opacity:1;fill-rule:evenodd;stroke-width:1.00253475" />
    <path
       id="path863"
       d="m 85.963928,76.997448 v 8.478686 h 8.469258 v 4.832412 h -8.469258 v 8.478687 H 81.136889 V 90.308546 H 72.66763 v -4.832412 h 8.469259 V 76.997448 Z M 125.1468,89.344994 c 1.87184,0 3.43896,1.568865 3.43896,3.486365 0,1.830341 -1.56712,3.399206 -3.43896,3.399206 -1.8283,0 -3.39542,-1.568865 -3.39542,-3.399206 0,-1.9175 1.56712,-3.486365 3.39542,-3.486365 z m 5.77517,-5.690592 c 1.83035,0 3.39922,1.567119 3.39922,3.395425 0,1.871838 -1.56887,3.438957 -3.39922,3.438957 -1.91749,0 -3.48636,-1.567119 -3.48636,-3.438957 0,-1.828306 1.56887,-3.395425 3.48636,-3.395425 z m -11.31817,0 c 1.9175,0 3.48636,1.567119 3.48636,3.395425 0,1.871838 -1.56886,3.438957 -3.48636,3.438957 -1.83035,0 -3.39922,-1.567119 -3.39922,-3.438957 0,-1.828306 1.56887,-3.395425 3.39922,-3.395425 z m 5.543,-5.552934 c 1.87184,0 3.43896,1.568864 3.43896,3.399205 0,1.917501 -1.56712,3.486365 -3.43896,3.486365 -1.8283,0 -3.39542,-1.568864 -3.39542,-3.486365 0,-1.830341 1.56712,-3.399205 3.39542,-3.399205 z"
       inkscape:connector-curvature="0"
       style="fill:#ececec;fill-opacity:1;fill-rule:evenodd;stroke-width:1.00253475" />
  </g>
</svg>
