<svg width="192" height="192" version="1.1" viewBox="0 0 192 192" xmlns="http://www.w3.org/2000/svg">
 <rect x="19.5" y="19.5" width="153" height="153" rx="10" style="fill-rule:evenodd;fill:#ececec;stroke:#ececec"/>
 <path d="m74.879 63.924-0.005859 0.03711c-10.085 0.54807-18.605 6.9882-22.186 15.941h-0.125l-0.4082 1.4629c-0.24239 0.7346-0.45137 1.4836-0.62695 2.2461l-5.4141 19.377-5.1133 18.301 0.1875 0.05078c-0.12297 0.67619-0.1875 1.3742-0.1875 2.0859 0 6.3865 5.1714 11.562 11.551 11.562l0.29297-0.0039c5.4175-0.13531 9.9101-4.0035 11.004-9.1328l4.6328-10.436 0.28906-0.6504h54.461l0.28906 0.6504 4.6328 10.436c1.0938 5.1293 5.5864 8.9975 11.004 9.1328l0.29297 0.0039c6.3794-5e-5 11.551-5.176 11.551-11.562 0-0.71173-0.0646-1.4098-0.1875-2.0859l0.1875-0.05078-5.1133-18.301-5.4141-19.377c-0.17391-0.75525-0.38359-1.4968-0.62305-2.2246-0.00231-0.007027-0.00354-0.014461-0.00586-0.021485l-0.4082-1.4629h-0.12305c-3.5801-8.9532-12.1-15.393-22.186-15.941l-0.00586-0.03711h-42.243z" style="fill-rule:evenodd;fill:#4a4a4a;stroke-width:1.0025"/>
 <path d="m78.964 76.997v8.4787h8.4693v4.8324h-8.4693v8.4787h-4.827v-8.4787h-8.4693v-4.8324h8.4693v-8.4787zm39.183 12.348c1.8718 0 3.439 1.5689 3.439 3.4864 0 1.8303-1.5671 3.3992-3.439 3.3992-1.8283 0-3.3954-1.5689-3.3954-3.3992 0-1.9175 1.5671-3.4864 3.3954-3.4864zm5.7752-5.6906c1.8304 0 3.3992 1.5671 3.3992 3.3954 0 1.8718-1.5689 3.439-3.3992 3.439-1.9175 0-3.4864-1.5671-3.4864-3.439 0-1.8283 1.5689-3.3954 3.4864-3.3954zm-11.318 0c1.9175 0 3.4864 1.5671 3.4864 3.3954 0 1.8718-1.5689 3.439-3.4864 3.439-1.8304 0-3.3992-1.5671-3.3992-3.439 0-1.8283 1.5689-3.3954 3.3992-3.3954zm5.543-5.5529c1.8718 0 3.439 1.5689 3.439 3.3992 0 1.9175-1.5671 3.4864-3.439 3.4864-1.8283 0-3.3954-1.5689-3.3954-3.4864 0-1.8303 1.5671-3.3992 3.3954-3.3992z" style="fill-rule:evenodd;fill:#ececec;stroke-width:1.0025"/>
</svg>
