<svg width="192" height="192" version="1.1" viewBox="0 0 192 192" xmlns="http://www.w3.org/2000/svg">
 <rect x="35" y="28" width="122" height="144" rx="10" style="fill-rule:evenodd;fill:#fff"/>
 <path d="m35 37.99c0-5.5175 4.4867-9.9903 10.01-9.9903h101.98c5.5282 0 10.01 4.4675 10.01 9.9972v124.01c0 5.5213-4.4504 9.5276-9.945 8.9477l-110.06-11.615c-1.0994-0.11602-1.9907-1.0997-1.9907-2.2173z" style="fill-rule:evenodd;fill:#728dbe"/>
 <path d="m35 37.999c0-5.5224 4.4867-9.9992 10.01-9.9992h101.98c5.5282 0 10.01 4.4675 10.01 9.9972v124.01c0 5.5213-4.412 9.2569-9.8566 8.3452 0 0-95.375-16.035-99.467-16.035s-7.4802 5.1072-9.7632 5.1072-2.9134-1.5848-2.9134-1.5848z" style="fill-rule:evenodd;fill:#9abeff"/>
 <g transform="translate(47,20)" style="fill-rule:evenodd;fill:#4a4a4a">
  <rect width="17" height="23" rx="5"/>
  <rect x="54" width="17" height="23" rx="5"/>
  <rect x="27" width="17" height="23" rx="5"/>
  <rect x="81" width="17" height="23" rx="5"/>
 </g>
 <path d="m111.97 70.628c-4e-3 0.0039-7e-3 0.0079-0.0103 0.01199l-1.5503 1.5506c-1.0274 1.0275-1.0226 2.6768 0.0108 3.6984l9.8246 9.7135c1.0333 1.0216 2.6919 1.0168 3.7192-0.01072l4.1336-4.1343c9e-3 -0.0088 0.0141-0.01947 0.023-0.02822l0.73247-0.7326c0.48877-0.48885 0.88571-1.4366 0.88939-2.1259l9e-3 -1.8365c2e-3 -0.24381-0.0483-0.41862-0.13258-0.52493-0.0488-0.1007-0.11154-0.19686-0.19604-0.2804l-9.3592-9.2534c-0.10516-0.10395-0.22786-0.17912-0.3577-0.22799-0.0216-0.0088-0.05-0.01367-0.0746-0.02114-0.0366-0.01062-0.0724-0.02222-0.10967-0.02861-0.0139-2e-3 -0.0308-2e-3 -0.0454-0.0049-0.051-0.0069-0.10196-0.0119-0.15328-0.01062-0.0155-2.56e-4 -0.0277-2e-3 -0.0437-2e-3l-1.8459 0.02065c-0.69319 0.0079-1.6448 0.40698-2.1336 0.89584l-3.3303 3.3309zm-44.82 44.83c-0.25684 0.25688-0.44924 0.55241-0.57711 0.86752-0.12345 0.30421-0.18052 0.628-0.18389 0.9507v0.0681l0.0278 9.7033c4e-3 1.449 1.1807 2.6122 2.6378 2.608l9.7621-0.0283 0.06-3.2e-4c0.32595-7e-3 0.65267-0.0641 0.95923-0.18919 0.31615-0.12902 0.61221-0.32205 0.86905-0.57893l36.29-36.296c1.0274-1.0275 1.0226-2.6768-0.0108-3.6984l-9.8249-9.7133c-1.0333-1.0216-2.6919-1.0169-3.7192 0.01072l-36.29 36.296z" style="fill-rule:evenodd;fill:#fff"/>
</svg>
