<?xml version="1.0" encoding="UTF-8" standalone="no"?>
<svg
   xmlns:dc="http://purl.org/dc/elements/1.1/"
   xmlns:cc="http://creativecommons.org/ns#"
   xmlns:rdf="http://www.w3.org/1999/02/22-rdf-syntax-ns#"
   xmlns:svg="http://www.w3.org/2000/svg"
   xmlns="http://www.w3.org/2000/svg"
   xmlns:sodipodi="http://sodipodi.sourceforge.net/DTD/sodipodi-0.dtd"
   xmlns:inkscape="http://www.inkscape.org/namespaces/inkscape"
   width="192"
   height="192"
   viewBox="0 0 192 192"
   version="1.1"
   id="svg2160"
   sodipodi:docname="gedit.svg"
   inkscape:version="0.92.4 (f8dce91, 2019-08-02)">
  <metadata
     id="metadata2166">
    <rdf:RDF>
      <cc:Work
         rdf:about="">
        <dc:format>image/svg+xml</dc:format>
        <dc:type
           rdf:resource="http://purl.org/dc/dcmitype/StillImage" />
        <dc:title></dc:title>
      </cc:Work>
    </rdf:RDF>
  </metadata>
  <defs
     id="defs2164" />
  <sodipodi:namedview
     pagecolor="#ffffff"
     bordercolor="#666666"
     borderopacity="1"
     objecttolerance="10"
     gridtolerance="10"
     guidetolerance="10"
     inkscape:pageopacity="0"
     inkscape:pageshadow="2"
     inkscape:window-width="1920"
     inkscape:window-height="1004"
     id="namedview2162"
     showgrid="false"
     inkscape:zoom="2.1067708"
     inkscape:cx="39.34735"
     inkscape:cy="140.01902"
     inkscape:window-x="0"
     inkscape:window-y="0"
     inkscape:window-maximized="1"
     inkscape:current-layer="svg2160" />
  <rect
     style="fill:#ffffff;fill-rule:evenodd"
     id="rect2136"
     rx="10"
     y="28"
     x="20"
     height="144"
     width="122" />
  <path
     style="fill:#728dbe;fill-rule:evenodd"
     inkscape:connector-curvature="0"
     id="path2138"
     d="M 20,37.990304 C 20,32.472811 24.486733,28 30.009678,28 H 131.99032 C 137.51851,28 142,32.467539 142,37.997221 V 162.00278 c 0,5.52131 -4.45036,9.52756 -9.94497,8.94771 L 21.990672,159.33519 C 20.891254,159.21917 20,158.23552 20,157.11792 Z" />
  <path
     style="fill:#9abeff;fill-rule:evenodd"
     inkscape:connector-curvature="0"
     id="path2140"
     d="M 20,37.999209 C 20,32.476798 24.486733,28 30.009678,28 H 131.99032 C 137.51851,28 142,32.467539 142,37.997221 V 162.00278 c 0,5.52131 -4.41203,9.25694 -9.85656,8.34516 0,0 -95.375453,-16.0352 -99.466858,-16.0352 -4.091405,0 -7.480215,5.10725 -9.763199,5.10725 C 20.630399,159.41999 20,157.83523 20,157.83523 Z" />
  <g
     style="fill:#4a4a4a;fill-rule:evenodd"
     id="g2150"
     transform="translate(32,20)">
    <rect
       y="0"
       x="0"
       id="rect2142"
       rx="5"
       height="23"
       width="17" />
    <rect
       y="0"
       id="rect2144"
       rx="5"
       x="54"
       height="23"
       width="17" />
    <rect
       y="0"
       id="rect2146"
       rx="5"
       x="27"
       height="23"
       width="17" />
    <rect
       y="0"
       id="rect2148"
       rx="5"
       x="81"
       height="23"
       width="17" />
  </g>
  <path
     style="fill:#ffffff;fill-rule:evenodd"
     inkscape:connector-curvature="0"
     id="path2816"
     d="m 96.965286,70.627518 c -0.004,0.0039 -0.007,0.0079 -0.0103,0.01199 l -1.55033,1.55059 c -1.02735,1.027535 -1.02256,2.676842 0.0108,3.698448 l 9.824654,9.713479 c 1.03331,1.021616 2.69186,1.016848 3.71921,-0.01072 l 4.13362,-4.134338 c 0.009,-0.0088 0.0141,-0.01947 0.023,-0.02822 l 0.73247,-0.732603 c 0.48877,-0.488847 0.88571,-1.436602 0.88939,-2.125942 l 0.009,-1.836496 c 0.002,-0.243814 -0.0483,-0.418625 -0.13258,-0.524933 -0.0488,-0.100703 -0.11154,-0.196864 -0.19604,-0.2804 l -9.35925,-9.253352 c -0.10516,-0.103949 -0.22786,-0.179117 -0.3577,-0.227994 -0.0216,-0.0088 -0.05,-0.01367 -0.0746,-0.02114 -0.0366,-0.01062 -0.0724,-0.02222 -0.10967,-0.02861 -0.0139,-0.002 -0.0308,-0.002 -0.0454,-0.0049 -0.051,-0.0069 -0.10196,-0.0119 -0.15328,-0.01062 -0.0155,-2.56e-4 -0.0277,-0.002 -0.0437,-0.002 l -1.84588,0.02065 c -0.69319,0.0079 -1.64479,0.406983 -2.13356,0.89584 l -3.330294,3.330874 z M 52.145167,115.45728 c -0.25684,0.25688 -0.44924,0.55241 -0.57711,0.86752 -0.12345,0.30421 -0.18052,0.628 -0.18389,0.9507 v 0.0681 l 0.0278,9.70328 c 0.004,1.44897 1.18068,2.61215 2.63778,2.60796 l 9.76209,-0.0283 0.06,-3.2e-4 c 0.32595,-0.007 0.65267,-0.0641 0.95923,-0.18919 0.31615,-0.12902 0.61221,-0.32205 0.86905,-0.57893 l 3.06735,-3.06788 1.75094,-1.75124 31.471683,-31.477231 c 1.02735,-1.027536 1.02257,-2.676813 -0.0108,-3.698439 l -9.824864,-9.713322 c -1.0333,-1.021626 -2.69186,-1.016857 -3.71922,0.01072 l -31.472529,31.478062 -1.75009,1.7504 -3.06735,3.06789 z" />
</svg>
