<svg width="192" height="192" version="1.1" viewBox="0 0 192 192" xmlns="http://www.w3.org/2000/svg">
 <g transform="translate(0 -860.36)">
  <circle cx="96" cy="956.36" r="88" style="fill-rule:evenodd;fill:#56595b"/>
  <path d="m96 920.76c-20.166 0-36.5 16.334-36.5 36.5 0 16.151 10.448 29.793 24.957 34.629 1.825 0.31938 2.5094-0.77562 2.5094-1.7338 0-0.86687-0.04563-3.7412-0.04563-6.7981-9.1706 1.6881-11.543-2.2356-12.273-4.2888-0.41062-1.0494-2.19-4.2888-3.7412-5.1556-1.2775-0.68437-3.1025-2.3725-0.04562-2.4181 2.8744-0.0456 4.9275 2.6462 5.6119 3.7412 3.285 5.5206 8.5319 3.9694 10.631 3.0112 0.31938-2.3725 1.2775-3.9694 2.3269-4.8819-8.1212-0.9125-16.608-4.0606-16.608-18.022 0-3.9694 1.4144-7.2544 3.7412-9.8094-0.365-0.9125-1.6425-4.6538 0.365-9.6725 0 0 3.0569-0.95812 10.038 3.7412 2.92-0.82125 6.0225-1.2319 9.125-1.2319 3.1025 0 6.205 0.41062 9.125 1.2319 6.9806-4.745 10.038-3.7412 10.038-3.7412 2.0075 5.0188 0.73 8.76 0.365 9.6725 2.3269 2.555 3.7412 5.7944 3.7412 9.8094 0 14.007-8.5319 17.109-16.653 18.022 1.3231 1.1406 2.4638 3.3306 2.4638 6.7525 0 4.8819-0.0456 8.8056-0.0456 10.038 0 0.95813 0.68437 2.0988 2.5094 1.7338 14.418-4.8362 24.866-18.524 24.866-34.629 0-20.166-16.334-36.5-36.5-36.5z" style="clip-rule:evenodd;fill-rule:evenodd;fill:#fefefe;stroke-width:4.5625"/>
 </g>
</svg>
