<svg xmlns="http://www.w3.org/2000/svg" width="192" height="192" viewBox="0 0 192 192">
  <g fill="none" fill-rule="evenodd">
    <rect width="152" height="152" x="20" y="20" fill="#BD9AFF" rx="10"/>
    <g stroke="#FFF" transform="translate(67 63)">
      <path fill="#BD9AFF" stroke-width="5" d="M45.5786492,59.5932489 C48.3410764,59.5932489 52.1938748,58.0464999 54.1877463,56.1350072 L55.3927198,54.9798185 C57.3849656,53.0698844 59,49.27463 59,46.5229262 L59,4.99865058 C59,2.2379721 56.7591753,0 53.9951444,0 L5.00485556,0 C2.24075016,0 0,2.24532689 0,5.00392955 L0,54.5893194 C0,57.3529134 2.23702917,59.5932489 4.9997464,59.5932489 L10.4985196,59.5932489 C13.2598033,59.5932489 15.498266,61.8267196 15.498266,64.5914818 L15.498266,64.2248012 C15.498266,66.985249 17.0725991,67.6328709 19.0212589,65.6646173 L21.509194,63.1516657 C23.4548893,61.1864064 27.2770349,59.5932489 30.0340037,59.5932489 L45.5786492,59.5932489 Z"/>
      <path fill="#BD9AFF" stroke-width="5" d="M45.8948772,57.338744 C48.6585724,57.338744 52.5188802,55.7857813 54.511191,53.875785 L55.3877991,53.0353948 C57.3827626,51.1228553 59,47.329878 59,44.5693371 L59,5.00309861 C59,2.23996355 56.7571448,7.10542736e-15 53.9995584,7.10542736e-15 L7.23250304,7.10542736e-15 C4.47083539,7.10542736e-15 2.23206143,2.24774672 2.23206143,5.00062399 L2.23206143,52.33812 C2.23206143,55.0998884 4.4645299,57.338744 7.23900566,57.338744 L12.1370598,57.338744 C14.9023187,57.338744 17.144004,59.5816571 17.144004,62.3375988 L17.144004,61.6053646 C17.144004,64.3661559 18.7209398,65.0114274 20.6643824,63.0484434 L22.7968635,60.89452 C24.7411148,58.9307192 28.5638737,57.338744 31.3213548,57.338744 L45.8948772,57.338744 Z"/>
      <g stroke-linecap="round" stroke-width="7" transform="translate(24 12)">
        <line x1="3.5" x2="3.5" y1=".269" y2="24.031"/>
        <line x1="22.5" x2="22.5" y1=".269" y2="24.031"/>
      </g>
    </g>
  </g>
</svg>
