<svg xmlns="http://www.w3.org/2000/svg" width="192" height="192" viewBox="0 0 192 192">
  <g fill="none" fill-rule="evenodd" transform="translate(20 20)">
    <rect width="150.754" height="149.768" x=".623" y=".619" fill="#FFF" rx="9.853"/>
    <rect width="50.121" height="48.649" x="51.539" y=".483" fill="#B1B5BD"/>
    <path fill="#B1B5BD" d="M101.86752,101.054398 L101.86752,111.875249 C101.80022,112.363367 101.75334,112.858311 101.75334,113.365365 L101.75334,140.367768 C101.75334,141.45276 101.9168,142.496414 102.21317,143.483192 L102.21317,150.961761 L110.41036,150.961761 C111.13219,151.110323 111.87949,151.190168 112.64695,151.190168 L140.9797,151.190168 C147.01529,151.190168 151.8733,146.3639 151.8733,140.367768 L151.8733,113.365365 C151.8733,112.858311 151.8264,112.363367 151.75913,111.875249 L151.75913,101.054398 L101.86752,101.054398 Z"/>
    <rect width="149.127" height="148.152" x="1.437" y="1.427" stroke="#56595B" stroke-width="4.873" rx="9.747"/>
    <path stroke="#56595B" stroke-width="5" d="M101.26969 1.34907252C101.26969-5.25370614 101.26969 149.657461 101.26969 149.657461M51.378399 1.34907252C51.378399-5.25370614 51.378399 149.657461 51.378399 149.657461M150.9661 100.285865C157.61231 100.285865 1.681996 100.285865 1.681996 100.285865M150.9661 50.7206644C157.61231 50.7206644 1.681996 50.7206644 1.681996 50.7206644"/>
    <text fill="#56595B" font-family="Helvetica" font-size="32.032">
      <tspan x="68.438" y="86.94">1</tspan>
    </text>
    <text fill="#56595B" font-family="Helvetica" font-size="32.032">
      <tspan x="65.471" y="36.597">8</tspan>
    </text>
    <text fill="#56595B" font-family="Helvetica" font-size="32.032">
      <tspan x="117.246" y="137.566">2</tspan>
    </text>
  </g>
</svg>
