<svg width="192" height="192" version="1.1" viewBox="0 0 192 192" xmlns="http://www.w3.org/2000/svg">
 <path d="m34 18.996c0-5.5205 4.4857-9.9958 9.9917-9.9958h105.02c5.5183 0 9.9917 4.476 9.9917 9.9958v154.01c0 5.5205-4.4857 9.9958-9.9917 9.9958h-105.02c-5.5183 0-9.9917-4.476-9.9917-9.9958z" style="fill-rule:evenodd;fill:#fff"/>
 <g style="fill-rule:evenodd;fill:#ff837d" aria-label="A">
  <path d="m106.48 113.44h-21.164l-3.3398 9.5625h-13.605l19.441-52.488h16.137l19.441 52.488h-13.605zm-17.789-9.7383h14.379l-7.1719-20.883z" style=""/>
 </g>
 <path d="m48.199 18c-2.8719 0-5.1992 2.3273-5.1992 5.1992 0 2.7898 3.3333 7.2095 10 13.256 6.6667-6.0451 10-10.465 10-13.256 0-2.8719-2.3273-5.1992-5.1992-5.1992-2.1618 0-4.0163 1.32-4.8008 3.1973-0.7845-1.8773-2.639-3.1973-4.8008-3.1973zm3.0547 24.42-5.4004 14.58h3.7793l0.92774-2.6562h5.8789l0.91797 2.6562h3.7793l-5.4004-14.58h-4.4824zm2.2461 3.418 1.9922 5.8008h-3.9941l2.002-5.8008z" style="fill-rule:evenodd;fill:#ff837d"/>
 <path d="m132.86 135 5.4004 14.58h4.4824l5.4004-14.58h-3.7793l-0.92774 2.6562h-5.8789l-0.91797-2.6562h-3.7793zm5.6445 5.3613h3.9941l-2.002 5.8008-1.9922-5.8008zm3.4922 15.184c-6.6667 6.0451-10 10.465-10 13.256 0 2.8719 2.3273 5.1992 5.1992 5.1992 2.1618 0 4.0163-1.32 4.8008-3.1973 0.78449 1.8773 2.639 3.1973 4.8008 3.1973 2.8719 0 5.1992-2.3273 5.1992-5.1992 0-2.7898-3.3333-7.2095-10-13.256z" style="fill-rule:evenodd;fill:#ff837d"/>
</svg>
