<svg xmlns="http://www.w3.org/2000/svg" xmlns:xlink="http://www.w3.org/1999/xlink" width="192" height="192" viewBox="0 0 192 192">
  <defs>
    <rect id="calendar-a" width="152" height="152" x="20" y="20" rx="10"/>
  </defs>
  <g fill="none" fill-rule="evenodd">
    <mask id="calendar-b" fill="#fff">
      <use xlink:href="#calendar-a"/>
    </mask>
    <use fill="#9ABEFF" xlink:href="#calendar-a"/>
    <path fill="#FFF" d="M79.5149955,88.9600067 L96.7949919,67.0000113 L62.4149991,67.0000113 L62.4149991,75.0100096 L81.3149952,75.0100096 L65.2049985,95.9800052 L65.4749985,95.9800052 L79.7849955,95.9800052 C84.7349944,95.9800052 88.6049936,99.3100045 88.6049936,104.350003 C88.6049936,109.480002 84.8249944,113.440002 79.6949955,113.440002 C75.1049965,113.440002 71.1449973,110.200002 71.1449973,105.970003 L62.4149991,106.060003 C62.4149991,114.790001 70.1549975,121.72 79.6049955,121.72 C89.5949934,121.72 97.1549919,114.070001 97.1549919,104.710003 C97.1549919,94.8100055 89.3249935,88.6000068 79.5149955,88.9600067 L79.5149955,88.9600067 Z M118.714998,121 L127.354996,121 L127.354996,67.0000113 L110.074999,67.0000113 L110.074999,75.0100096 L118.714998,75.0100096 L118.714998,121 Z" mask="url(#calendar-b)"/>
    <rect width="196" height="98" x="-2" y="-2" fill="#000" fill-opacity=".25" mask="url(#calendar-b)"/>
  </g>
</svg>
