<svg xmlns="http://www.w3.org/2000/svg" xmlns:xlink="http://www.w3.org/1999/xlink" width="192" height="192" viewBox="0 0 192 192">
  <defs>
    <path id="gmail-a" d="M4.54747351e-13,71.7157622 L4.54747351e-13,150.001754 C4.54747351e-13,155.520156 4.47827954,160 10.0025173,160 L76,160 L76,64 L75.9999998,0.00294791021 C74.0941403,0.0577937117 71.7472916,0.00294791021 63.2029419,7.6475812 C63.2029419,7.6475812 10.4735179,53.5937186 5.23675893,58.1099731 C4.54747351e-13,62.6262275 4.54747351e-13,67.2390327 4.54747351e-13,71.7157622 L4.54747351e-13,71.7157622 Z M152,71.7128143 L152,149.998806 C152,155.517208 147.52172,159.997052 141.997483,159.997052 L76,159.997052 L76,63.9970521 L76.0000002,0 C77.9058597,0.0548458015 80.2527084,0 88.7970581,7.64463329 C88.7970581,7.64463329 141.526482,53.5907707 146.763241,58.1070251 C152,62.6232796 152,67.2360848 152,71.7128143 L152,71.7128143 Z"/>
    <path id="gmail-c" d="M131.297232,-0.00152777456 C117.729301,9.75715684 85.2359135,31.7371055 78.9684992,35.5150657 C68.9156506,41.7603857 67.9058595,41.0121767 66,41.0670225 L66,41.0670225 L66,41.0699704 L65.8585854,41.0672409 C64.0379991,41.0481641 62.8330282,41.6072006 53.0315008,35.5180137 C46.7634717,31.7396828 14.2643244,9.75579256 0.698776059,-0.00145119098 Z"/>
  </defs>
  <g fill="none" fill-rule="evenodd">
    <path fill="#FF837D" d="M20,83.7157622 L20,162.001754 C20,167.520156 24.4782795,172 30.0025173,172 L96,172 L96,76 L95.9999998,12.0029479 C94.0941403,12.0577937 91.7472916,12.0029479 83.2029419,19.6475812 C83.2029419,19.6475812 30.4735179,65.5937186 25.2367589,70.1099731 C20,74.6262275 20,79.2390327 20,83.7157622 L20,83.7157622 Z M172,83.7128143 L172,161.998806 C172,167.517208 167.52172,171.997052 161.997483,171.997052 L96,171.997052 L96,75.9970521 L96.0000002,12 C97.9058597,12.0548458 100.252708,12 108.797058,19.6446333 C108.797058,19.6446333 161.526482,65.5907707 166.763241,70.1070251 C172,74.6232796 172,79.2360848 172,83.7128143 L172,83.7128143 Z"/>
    <g transform="translate(20 12)">
      <mask id="gmail-b" fill="#fff">
        <use xlink:href="#gmail-a"/>
      </mask>
      <use fill="#FF837D" xlink:href="#gmail-a"/>
      <path fill="#BA6561" d="M76,123.06997 C74.0941405,123.015125 73.0843494,123.763334 63.0315008,117.518014 C55.5313213,112.99695 10.4735179,82.4092293 5.23675893,77.8929749 C0.209470357,73.5573706 0.00837881428,69.1327852 0.000335152571,64.8250315 L7.10542736e-14,-13.9988063 C7.10542736e-14,-19.5172082 4.47827954,-23.9970521 10.0025173,-23.9970521 L76,-23.9970521 L76,-24 L141.997483,-24 C147.52172,-24 152,-19.5201561 152,-14.0017542 L152,-14.0017542 L152,64.2842378 C152,68.7609673 152,73.3737725 146.763241,77.8900269 C141.526482,82.4062814 96.4686787,112.994002 88.9684992,117.515066 C78.9156506,123.760386 77.9058595,123.012177 76,123.067023 L76,123.067023 L76,123.06997 Z" mask="url(#gmail-b)"/>
    </g>
    <g transform="translate(30 94)">
      <mask id="gmail-d" fill="#fff">
        <use xlink:href="#gmail-c"/>
      </mask>
      <use fill="#BA6561" xlink:href="#gmail-c"/>
      <rect width="126" height="65" x="3" fill="#FFF" mask="url(#gmail-d)"/>
    </g>
    <polygon fill="#FFF" points="33 33 159 33 159 95.64 33 95.64"/>
    <path fill="#B1B5BD" d="M96.4549935,84.3900062 L96.4549935,93.6600042 L111.30499,93.6600042 C108.784991,99.3300031 103.204992,103.110002 96.5449935,103.110002 C87.4549954,103.110002 80.4349969,96.0900037 80.4349969,87.0000056 C80.4349969,77.9100075 87.4549954,70.890009 96.5449935,70.890009 C102.934992,70.890009 108.154991,74.3100083 110.854991,79.4400072 L121.114988,74.1300083 C116.434989,65.3100102 107.164991,59.2800114 96.5449935,59.2800114 C81.1549967,59.2800114 68.8249993,71.7000088 68.8249993,87.0000056 C68.8249993,102.300002 81.1549967,114.72 96.5449935,114.72 C111.84499,114.72 124.264988,102.300002 124.264988,87.0000056 L124.264988,84.3900062 L96.4549935,84.3900062 Z"/>
  </g>
</svg>
