<svg xmlns="http://www.w3.org/2000/svg" width="192" height="192" viewBox="0 0 192 192">
  <g fill="none" fill-rule="evenodd">
    <path fill="#FFF" d="M20,161.997483 C20,167.52172 24.4770034,172 30.0025173,172 L161.997483,172 C167.52172,172 172,167.522997 172,161.997483 L172,30.0025173 C172,24.4782795 167.522997,20 161.997483,20 L30.0025173,20 C24.4782795,20 20,24.4770034 20,30.0025173 L20,161.997483 L20,161.997483 Z"/>
    <g transform="translate(68 68)">
      <path fill="#FF837D" d="M1.80793422,27.4736842 L25.66575,27.4736842 C26.6642445,27.4736842 27.4736842,26.6644751 27.4736842,25.66575 L27.4736842,1.80793422 C27.4736842,0.809439723 26.6644751,0 25.66575,0 L1.80793422,0 C0.809439723,0 0,0.809209069 0,1.80793422 L0,25.66575 C0,26.6642445 0.809209069,27.4736842 1.80793422,27.4736842 Z"/>
      <path fill="#9ABEFF" d="M0,56.1920658 C0,57.1905603 0.809209069,58 1.80793422,58 L25.66575,58 C26.6642445,58 27.4736842,57.1907909 27.4736842,56.1920658 L27.4736842,32.33425 C27.4736842,31.3357555 26.6644751,30.5263158 25.66575,30.5263158 L1.80793422,30.5263158 C0.809439723,30.5263158 0,31.3355249 0,32.33425 L0,56.1920658 L0,56.1920658 Z"/>
      <path fill="#98DC9A" d="M30.5263158,25.66575 C30.5263158,26.6642445 31.3355249,27.4736842 32.33425,27.4736842 L56.1920658,27.4736842 C57.1905603,27.4736842 58,26.6644751 58,25.66575 L58,1.80793422 C58,0.809439723 57.1907909,0 56.1920658,0 L32.33425,0 C31.3357555,0 30.5263158,0.809209069 30.5263158,1.80793422 L30.5263158,25.66575 L30.5263158,25.66575 Z"/>
      <path fill="#F9DE81" d="M30.5263158,56.1920658 C30.5263158,57.1905603 31.3355249,58 32.33425,58 L56.1920658,58 C57.1905603,58 58,57.1907909 58,56.1920658 L58,32.33425 C58,31.3357555 57.1907909,30.5263158 56.1920658,30.5263158 L32.33425,30.5263158 C31.3357555,30.5263158 30.5263158,31.3355249 30.5263158,32.33425 L30.5263158,56.1920658 L30.5263158,56.1920658 Z"/>
    </g>
  </g>
</svg>
