<svg xmlns="http://www.w3.org/2000/svg" xmlns:xlink="http://www.w3.org/1999/xlink" width="192" height="192" viewBox="0 0 192 192">
  <defs>
    <path id="google-a" d="M37.9487095,34.4162586 L37.9487095,48.8950056 L54.8102445,48.8950056 C51.3640913,54.4637544 45.3333234,58.0525037 38.0717864,58.0525037 C26.8717888,58.0525037 18.5025597,49.7612554 18.5025597,38.5000077 C18.5025597,27.2387601 26.8717888,18.9475118 38.0717864,18.9475118 C45.9487079,18.9475118 52.3487065,23.031261 55.5487058,29.4662596 L71.7948563,21.1750114 C65.5179345,8.80001394 52.7179372,0.385015696 38.0717864,0.385015696 C17.025637,0.385015696 0.164102017,17.4625121 0.164102017,38.5000077 C0.164102017,59.5375034 17.025637,76.6149998 38.0717864,76.6149998 C58.994859,76.6149998 75.9794708,59.5375034 75.9794708,38.5000077 L75.9794708,34.4162586 L37.9487095,34.4162586 Z"/>
  </defs>
  <g fill="none" fill-rule="evenodd">
    <path fill="#FFF" d="M96,9 C144.048773,9 183,47.9512268 183,96 C183,144.048773 144.048773,183 96,183 C47.9512268,183 9,144.048773 9,96 C9,47.9512268 47.9512268,9 96,9 Z"/>
    <g transform="translate(58 58)">
      <mask id="google-b" fill="#fff">
        <use xlink:href="#google-a"/>
      </mask>
      <use fill="#FFF" xlink:href="#google-a"/>
      <g mask="url(#google-b)">
        <g transform="rotate(180 45.812 47.094)">
          <path fill="#9ABEFF" d="M103.47218,0.628160909 L110.305451,94.4388889 C110.706733,99.9479006 106.565945,104.690766 101.045413,105.033078 L22.2943159,109.9162 C16.778856,110.258198 12.3076923,106.056492 12.3076923,100.539349 L12.3076923,10.624253 C12.3076923,5.1035638 16.7819463,0.628160909 22.3028305,0.628160909 L103.47218,0.628160909 Z"/>
          <polygon fill="#98DC9A" points="12.203 5.923 80.363 72.387 119.658 .307 12.492 .307"/>
          <polygon fill="#FF837D" points=".25 104.643 71.361 110.58 119.658 64.231 12.597 60.441" transform="matrix(1 0 0 -1 0 171.021)"/>
          <polygon fill="#F9DE81" points="119.658 106.754 112.64 55.409 112.64 .571 80.959 38.131 62.766 55.24"/>
        </g>
      </g>
    </g>
  </g>
</svg>
