<svg width="192" height="192" version="1.1" viewBox="0 0 192 192" xmlns="http://www.w3.org/2000/svg">
 <rect x="20" y="20" width="152" height="152" rx="10" style="fill-rule:evenodd;fill:#9abeff"/>
 <path d="m129.67 132.28c10.398-0.27246 18.742-8.6821 18.742-19.016 0-10.506-8.6243-19.023-19.263-19.023-0.18732 0-0.37401 0.0026-0.56004 0.0079 0.0262-0.51351 0.0394-1.0304 0.0394-1.5503 0-16.753-13.752-30.334-30.716-30.334-15.059 0-27.587 10.702-30.211 24.825-11.418 1.2831-20.289 10.857-20.289 22.476 0 12.494 10.256 22.622 22.907 22.622h59.351v-7e-3z" style="fill-rule:evenodd;fill:#fff"/>
</svg>
