<?xml version="1.0" encoding="UTF-8" standalone="no"?>
<svg
   xmlns:dc="http://purl.org/dc/elements/1.1/"
   xmlns:cc="http://creativecommons.org/ns#"
   xmlns:rdf="http://www.w3.org/1999/02/22-rdf-syntax-ns#"
   xmlns:svg="http://www.w3.org/2000/svg"
   xmlns="http://www.w3.org/2000/svg"
   xmlns:sodipodi="http://sodipodi.sourceforge.net/DTD/sodipodi-0.dtd"
   xmlns:inkscape="http://www.inkscape.org/namespaces/inkscape"
   width="192"
   height="192"
   viewBox="0 0 192 192"
   version="1.1"
   id="svg1449"
   sodipodi:docname="goa-account-ubuntusso.svg"
   inkscape:version="0.92.4 (f8dce91, 2019-08-02)">
  <metadata
     id="metadata1455">
    <rdf:RDF>
      <cc:Work
         rdf:about="">
        <dc:format>image/svg+xml</dc:format>
        <dc:type
           rdf:resource="http://purl.org/dc/dcmitype/StillImage" />
        <dc:title></dc:title>
      </cc:Work>
    </rdf:RDF>
  </metadata>
  <defs
     id="defs1453" />
  <sodipodi:namedview
     pagecolor="#ffffff"
     bordercolor="#666666"
     borderopacity="1"
     objecttolerance="10"
     gridtolerance="10"
     guidetolerance="10"
     inkscape:pageopacity="0"
     inkscape:pageshadow="2"
     inkscape:window-width="1920"
     inkscape:window-height="1004"
     id="namedview1451"
     showgrid="false"
     inkscape:zoom="2.9794239"
     inkscape:cx="53.865162"
     inkscape:cy="107.41647"
     inkscape:window-x="0"
     inkscape:window-y="0"
     inkscape:window-maximized="1"
     inkscape:current-layer="svg1449" />
  <rect
     style="fill:#ffffff;fill-rule:evenodd;stroke:#ffffff;fill-opacity:1;stroke-opacity:1"
     id="rect1437"
     rx="10"
     y="19.5"
     x="19.5"
     height="153"
     width="153" />
  <path
     inkscape:connector-curvature="0"
     style="fill:#e85e5c;stroke-width:7.81818151;fill-opacity:1"
     d="m 86.319223,155.78261 c -2.922235,-0.37441 -8.49544,-1.7767 -11.106666,-2.79454 C 64.462198,148.7976 56.633948,140.4544 53.251193,129.58203 51.357495,123.49545 51.367713,115.89393 51.103163,76.283844 50.956258,54.300261 51.009342,38.727226 51.009342,38.727226 H 83.447405 L 70.552666,69.99997 H 82.278665 V 93.4545 124.72721 H 95.195508 105.72728 V 79.322661 38.727226 H 137 c 0,0 -0.003,24.237305 -2.8e-4,52.404468 0.004,48.421856 -0.0274,59.048656 -0.59942,59.351636 -1.52476,0.80797 -17.50731,3.63757 -27.03804,4.78688 -5.46637,0.65916 -19.468155,0.97061 -23.043366,0.51249 z"
     id="path865" />
</svg>
