<svg xmlns="http://www.w3.org/2000/svg" width="192" height="192" viewBox="0 0 192 192">
  <g fill="none" fill-rule="evenodd">
    <rect width="152" height="152" x="22" y="22" fill="#FF837D" rx="10"/>
    <path fill="#FFF" fill-rule="nonzero" d="M109.124037,87.1830187 L109.828242,82.9683525 C109.996491,81.9613803 109.311065,81.1450679 108.28661,81.1450679 L89.9913422,81.1450679 C88.9716731,81.1450679 88.1450679,81.969496 88.1450679,82.9894544 L88.1450679,114.764901 C88.1450679,115.783528 88.5935304,115.923404 89.1561346,115.06295 L96.1773773,104.324579 C96.735774,103.470561 98.0087515,102.778242 99.0321455,102.778242 L104.966054,102.778242 C105.984302,102.778242 106.946604,101.965357 107.116052,100.958836 L107.816948,96.7955193 C107.986111,95.7906893 107.301358,94.9761136 106.28067,94.9761136 L100.263495,94.9761136 C98.5651913,94.9761136 97.188444,93.6065185 97.188444,91.9037712 L97.188444,92.0786457 C97.188444,90.3818379 98.5683407,89.0063033 100.259553,89.0063033 L106.976436,89.0063033 C107.994274,89.0063033 108.955013,88.1946221 109.124037,87.1830187 Z M100.259553,95.1513712 C101.959504,95.1513712 103.333512,93.778329 103.333512,92.0786457 L97.188444,92.0786457 L91.043376,92.0786457 L91.043376,91.9037712 L97.188444,91.9037712 L103.333512,91.9037712 C103.333512,90.2075857 101.953916,88.8310457 100.263495,88.8310457 L106.28067,88.8310457 C111.105938,88.8310457 114.676452,93.0654165 113.876743,97.8156871 L113.175848,101.979004 C112.508444,105.943382 108.985112,108.92331 104.966054,108.92331 L99.0321455,108.92331 C100.087113,108.92331 100.74632,108.565793 101.320612,107.687464 L94.2993697,118.425835 C93.8076146,119.177931 93.2339678,119.842071 92.4762815,120.417228 C90.9362314,121.586275 88.928011,122.180839 86.673605,121.504414 C84.4258789,120.829993 83.0798948,119.23683 82.4342194,117.421599 C82.1163732,116.528016 82,115.66028 82,114.764901 L82,82.9894544 C82,78.5740333 85.5794769,75 89.9913422,75 L108.28661,75 C113.112952,75 116.682907,79.2312523 115.889288,83.9810589 L115.185083,88.1957251 C114.521664,92.1662878 111.000306,95.1513712 106.976436,95.1513712 L100.259553,95.1513712 Z"/>
  </g>
</svg>
