<svg width="192" height="192" version="1.1" viewBox="0 0 192 192" xmlns="http://www.w3.org/2000/svg" xmlns:xlink="http://www.w3.org/1999/xlink">
 <path d="m96 9c48.049 0 87 38.951 87 87 0 48.049-38.951 87-87 87-48.049 0-87-38.951-87-87 0-48.049 38.951-87 87-87z" style="fill-rule:evenodd;fill:#fff"/>
 <path d="m96 58.4c-19.575-0.14382-38 15.6-38 38.6 0 17.913 14.942 37.455 38 37.6 11.434 0.07191 22.612-5.1775 29.658-14.223 6.8722-8.8216 8.6901-17.892 8.3203-27.961h-38.029v14.479h16.861s-4.8106 9.1055-16.811 9.1055c-14 0-19.5-11.575-19.5-20 0-12.065 10.5-19 19.5-19 13 0 17.549 10.467 17.549 10.467l16.246-8.291s-9.7956-20.599-33.795-20.775z" style="fill-rule:evenodd;fill:#9abeff"/>
 <path d="m69.262 79.801-11.104 20.367c1.6293 16.973 16.137 34.295 37.842 34.432 7.9608 0.05007 15.795-2.4838 22.199-7.0781l-13.664-13.324c-2.3053 1.0551-5.12 1.8027-8.5352 1.8027-14 0-19.5-11.575-19.5-20 0-2.8249 0.58092-5.3643 1.5781-7.6035l-8.8164-8.5957zm26.688 26.023v1.0703h1.0977l-1.0977-1.0703z" style="fill-rule:evenodd;fill:#98dc9a"/>
 <path d="m63.875 76.137c-3.6789 5.8544-5.875 12.926-5.875 20.863 0 7.3275 2.502 14.926 7.0352 21.359l3.6289-4.3027 9.7715-9.1894c-1.3155-2.9464-1.9355-6.077-1.9355-8.8672 0-2.645 0.50391-5.0429 1.3867-7.1758l-14.012-12.688z" style="fill-rule:evenodd;fill:#f9de81"/>
 <path d="m96 58.4c-13.253-0.097371-25.971 7.0936-32.809 18.883l14.027 13.459c2.5157-8.7997 11.183-13.742 18.781-13.742 13 0 17.549 10.467 17.549 10.467l16.246-8.291s-9.7956-20.599-33.795-20.775z" style="fill-rule:evenodd;fill:#ff837d"/>
</svg>
