<svg width="192" height="192" version="1.1" viewBox="0 0 192 192" xmlns="http://www.w3.org/2000/svg">
 <path d="m96 183c48.049 0 87-38.951 87-87 0-48.049-38.951-87-87-87-48.049 0-87 38.951-87 87 0 48.049 38.951 87 87 87z" clip-rule="evenodd" fill="#fff" fill-rule="evenodd"/>
 <path d="m72.044 73.363h46.912l-4.372 49.256c-0.321 3.611-3.346 6.381-6.973 6.381h-24.223c-3.6261 0-6.652-2.77-6.9725-6.381l-4.3718-49.256z" clip-rule="evenodd" fill="#FF837D" fill-rule="evenodd"/>
 <g fill="#fff">
  <rect x="72.852" y="89.728" width="45.294" height="4.0909"/>
  <rect x="72.852" y="89.728" width="45.294" height="4.0909"/>
  <rect x="72.852" y="97.091" width="45.294" height="4.0909"/>
  <rect x="72.852" y="104.45" width="45.294" height="4.0909"/>
 </g>
 <path d="m69.934 70.552c-0.9169-2.1579 0.6667-4.5515 3.0113-4.5515h45.109c2.345 0 3.929 2.3936 3.012 4.5515-0.092 0.2168-0.305 0.3576-0.541 0.3576h-50.051c-0.2356 0-0.4484-0.1408-0.5405-0.3576z" clip-rule="evenodd" fill="#FF837D" fill-rule="evenodd"/>
</svg>
