<svg width="192" height="192" version="1.1" viewBox="0 0 192 192" xmlns="http://www.w3.org/2000/svg">
 <rect x="20" y="44" width="152" height="104" rx="10" style="fill-rule:evenodd;fill:#56595b"/>
 <path d="m135 127c2.6886 0 4.8816 2.1276 4.9952 4.7835l0.00462 0.21647c0 2.7614-2.2298 5-4.9998 5h-75c-2.7613 0-4.9998-2.2442-4.9998-5 0-2.7614 2.2299-5 4.9998-5zm21-24c2.6888 0 4.8818 2.1276 4.9954 4.7835l0.00462 0.21647c0 2.6888-2.1276 4.8818-4.7835 4.9954l-0.21647 0.00462c-2.7614 0-5-2.2442-5-5 0-2.6888 2.1276-4.8818 4.7835-4.9954zm-20 0c2.6888 0 4.8818 2.1276 4.9954 4.7835l0.00462 0.21647c0 2.6888-2.1276 4.8818-4.7835 4.9954l-0.21647 0.00462c-2.7614 0-5-2.2442-5-5 0-2.6888 2.1276-4.8818 4.7835-4.9954zm-20 0c2.6888 0 4.8818 2.1276 4.9954 4.7835l0.00462 0.21647c0 2.6888-2.1276 4.8818-4.7835 4.9954l-0.21647 0.00462c-2.7614 0-5-2.2442-5-5 0-2.6888 2.1276-4.8818 4.7835-4.9954zm-20 0c2.6888 0 4.8818 2.1276 4.9954 4.7835l0.00462 0.21647c0 2.6888-2.1276 4.8818-4.7835 4.9954l-0.21647 0.00462c-2.7614 0-5-2.2442-5-5 0-2.6888 2.1276-4.8818 4.7835-4.9954zm-20 0c2.6888 0 4.8818 2.1276 4.9954 4.7835l0.00462 0.21647c0 2.6888-2.1276 4.8818-4.7835 4.9954l-0.21647 0.00462c-2.7614 0-5-2.2442-5-5 0-2.6888 2.1276-4.8818 4.7835-4.9954zm-20 0c2.6888 0 4.8818 2.1276 4.9954 4.7835l0.004619 0.21647c0 2.6888-2.1276 4.8818-4.7835 4.9954l-0.21647 0.00462c-2.7614 0-5-2.2442-5-5 0-2.6888 2.1276-4.8818 4.7835-4.9954zm-20 0c2.6888 0 4.8818 2.1276 4.9954 4.7835l0.004619 0.21647c0 2.6888-2.1276 4.8818-4.7835 4.9954l-0.21647 0.00462c-2.7614 0-5-2.2442-5-5 0-2.6888 2.1276-4.8818 4.7835-4.9954zm120-21c2.6888 0 4.8818 2.1276 4.9954 4.7835l0.00462 0.21647c0 2.6888-2.1276 4.8818-4.7835 4.9954l-0.21647 0.00462c-2.7614 0-5-2.2442-5-5 0-2.6888 2.1276-4.8818 4.7835-4.9954zm-20 0c2.6888 0 4.8818 2.1276 4.9954 4.7835l0.00462 0.21647c0 2.6888-2.1276 4.8818-4.7835 4.9954l-0.21647 0.00462c-2.7614 0-5-2.2442-5-5 0-2.6888 2.1276-4.8818 4.7835-4.9954zm-20 0c2.6888 0 4.8818 2.1276 4.9954 4.7835l0.00462 0.21647c0 2.6888-2.1276 4.8818-4.7835 4.9954l-0.21647 0.00462c-2.7614 0-5-2.2442-5-5 0-2.6888 2.1276-4.8818 4.7835-4.9954zm-20 0c2.6888 0 4.8818 2.1276 4.9954 4.7835l0.00462 0.21647c0 2.6888-2.1276 4.8818-4.7835 4.9954l-0.21647 0.00462c-2.7614 0-5-2.2442-5-5 0-2.6888 2.1276-4.8818 4.7835-4.9954zm-20 0c2.6888 0 4.8818 2.1276 4.9954 4.7835l0.00462 0.21647c0 2.6888-2.1276 4.8818-4.7835 4.9954l-0.21647 0.00462c-2.7614 0-5-2.2442-5-5 0-2.6888 2.1276-4.8818 4.7835-4.9954zm-20 0c2.6888 0 4.8818 2.1276 4.9954 4.7835l0.004619 0.21647c0 2.6888-2.1276 4.8818-4.7835 4.9954l-0.21647 0.00462c-2.7614 0-5-2.2442-5-5 0-2.6888 2.1276-4.8818 4.7835-4.9954zm-20 0c2.6888 0 4.8818 2.1276 4.9954 4.7835l0.004619 0.21647c0 2.6888-2.1276 4.8818-4.7835 4.9954l-0.21647 0.00462c-2.7614 0-5-2.2442-5-5 0-2.6888 2.1276-4.8818 4.7835-4.9954zm0-21c2.6888 0 4.8818 2.1276 4.9954 4.7835l0.004619 0.21647c0 2.6888-2.1276 4.8818-4.7835 4.9954l-0.21647 0.00462c-2.7614 0-5-2.2442-5-5 0-2.6888 2.1276-4.8818 4.7835-4.9954zm120 0c2.6888 0 4.8818 2.1276 4.9954 4.7835l0.00462 0.21647c0 2.6888-2.1276 4.8818-4.7835 4.9954l-0.21647 0.00462c-2.7614 0-5-2.2442-5-5 0-2.6888 2.1276-4.8818 4.7835-4.9954zm-20 0c2.6888 0 4.8818 2.1276 4.9954 4.7835l0.00462 0.21647c0 2.6888-2.1276 4.8818-4.7835 4.9954l-0.21647 0.00462c-2.7614 0-5-2.2442-5-5 0-2.6888 2.1276-4.8818 4.7835-4.9954zm-20 0c2.6888 0 4.8818 2.1276 4.9954 4.7835l0.00462 0.21647c0 2.6888-2.1276 4.8818-4.7835 4.9954l-0.21647 0.00462c-2.7614 0-5-2.2442-5-5 0-2.6888 2.1276-4.8818 4.7835-4.9954zm-20 0c2.6888 0 4.8818 2.1276 4.9954 4.7835l0.00462 0.21647c0 2.6888-2.1276 4.8818-4.7835 4.9954l-0.21647 0.00462c-2.7614 0-5-2.2442-5-5 0-2.6888 2.1276-4.8818 4.7835-4.9954zm-20 0c2.6888 0 4.8818 2.1276 4.9954 4.7835l0.00462 0.21647c0 2.6888-2.1276 4.8818-4.7835 4.9954l-0.21647 0.00462c-2.7614 0-5-2.2442-5-5 0-2.6888 2.1276-4.8818 4.7835-4.9954zm-20 0c2.6888 0 4.8818 2.1276 4.9954 4.7835l0.004619 0.21647c0 2.6888-2.1276 4.8818-4.7835 4.9954l-0.21647 0.00462c-2.7614 0-5-2.2442-5-5 0-2.6888 2.1276-4.8818 4.7835-4.9954z" style="fill-rule:evenodd;fill:#b1b5bd"/>
</svg>
