<?xml version="1.0" encoding="UTF-8" standalone="no"?>
<svg
   xmlns:dc="http://purl.org/dc/elements/1.1/"
   xmlns:cc="http://creativecommons.org/ns#"
   xmlns:rdf="http://www.w3.org/1999/02/22-rdf-syntax-ns#"
   xmlns:svg="http://www.w3.org/2000/svg"
   xmlns="http://www.w3.org/2000/svg"
   xmlns:sodipodi="http://sodipodi.sourceforge.net/DTD/sodipodi-0.dtd"
   xmlns:inkscape="http://www.inkscape.org/namespaces/inkscape"
   width="192"
   height="192"
   viewBox="0 0 192 192"
   version="1.1"
   id="svg12"
   sodipodi:docname="keyboard.svg"
   inkscape:version="0.92.4 (f8dce91, 2019-08-02)">
  <metadata
     id="metadata18">
    <rdf:RDF>
      <cc:Work
         rdf:about="">
        <dc:format>image/svg+xml</dc:format>
        <dc:type
           rdf:resource="http://purl.org/dc/dcmitype/StillImage" />
        <dc:title></dc:title>
      </cc:Work>
    </rdf:RDF>
  </metadata>
  <defs
     id="defs16" />
  <sodipodi:namedview
     pagecolor="#ffffff"
     bordercolor="#666666"
     borderopacity="1"
     objecttolerance="10"
     gridtolerance="10"
     guidetolerance="10"
     inkscape:pageopacity="0"
     inkscape:pageshadow="2"
     inkscape:window-width="1920"
     inkscape:window-height="1002"
     id="namedview14"
     showgrid="false"
     inkscape:zoom="2.4583333"
     inkscape:cx="108.61687"
     inkscape:cy="138.86517"
     inkscape:window-x="1920"
     inkscape:window-y="0"
     inkscape:window-maximized="1"
     inkscape:current-layer="svg12" />
  <g
     id="g834"
     transform="translate(0,-24)">
    <rect
       width="152"
       height="104"
       x="20"
       y="68"
       rx="10"
       id="rect2"
       style="fill:#56595b;fill-rule:evenodd" />
    <path
       d="m 135.0002,151 c 2.68865,0 4.88162,2.12763 4.99518,4.78353 L 140,156 c 0,2.76142 -2.22985,5 -4.9998,5 H 59.999801 C 57.238487,161 55,158.7558 55,156 c 0,-2.76142 2.229853,-5 4.999801,-5 z M 156,127 c 2.68875,0 4.88182,2.12763 4.99538,4.78353 L 161,132 c 0,2.68875 -2.12763,4.88182 -4.78353,4.99538 L 156,137 c -2.76142,0 -5,-2.2442 -5,-5 0,-2.68875 2.12763,-4.88182 4.78353,-4.99538 z m -20,0 c 2.68875,0 4.88182,2.12763 4.99538,4.78353 L 141,132 c 0,2.68875 -2.12763,4.88182 -4.78353,4.99538 L 136,137 c -2.76142,0 -5,-2.2442 -5,-5 0,-2.68875 2.12763,-4.88182 4.78353,-4.99538 z m -20,0 c 2.68876,0 4.88182,2.12763 4.99538,4.78353 L 121,132 c 0,2.68875 -2.12763,4.88182 -4.78353,4.99538 L 116,137 c -2.76142,0 -5,-2.2442 -5,-5 0,-2.68875 2.12763,-4.88182 4.78353,-4.99538 z m -20,0 c 2.688755,0 4.88182,2.12763 4.99538,4.78353 L 101,132 c 0,2.68875 -2.127634,4.88182 -4.783531,4.99538 L 96,137 c -2.761424,0 -5,-2.2442 -5,-5 0,-2.68875 2.127634,-4.88182 4.783531,-4.99538 z m -20,0 c 2.688755,0 4.881818,2.12763 4.99538,4.78353 L 81,132 c 0,2.68875 -2.127634,4.88182 -4.783531,4.99538 L 76,137 c -2.761424,0 -5,-2.2442 -5,-5 0,-2.68875 2.127634,-4.88182 4.783531,-4.99538 z m -20,0 c 2.688755,0 4.881818,2.12763 4.995381,4.78353 L 61,132 c 0,2.68875 -2.127634,4.88182 -4.783531,4.99538 L 56,137 c -2.761424,0 -5,-2.2442 -5,-5 0,-2.68875 2.127634,-4.88182 4.783531,-4.99538 z m -20,0 c 2.688755,0 4.881818,2.12763 4.995381,4.78353 L 41,132 c 0,2.68875 -2.127634,4.88182 -4.783531,4.99538 L 36,137 c -2.761424,0 -5,-2.2442 -5,-5 0,-2.68875 2.127634,-4.88182 4.783531,-4.99538 z m 120,-21 c 2.68875,0 4.88182,2.12763 4.99538,4.78353 L 161,111 c 0,2.68876 -2.12763,4.88182 -4.78353,4.99538 L 156,116 c -2.76142,0 -5,-2.2442 -5,-5 0,-2.68875 2.12763,-4.88182 4.78353,-4.99538 z m -20,0 c 2.68875,0 4.88182,2.12763 4.99538,4.78353 L 141,111 c 0,2.68876 -2.12763,4.88182 -4.78353,4.99538 L 136,116 c -2.76142,0 -5,-2.2442 -5,-5 0,-2.68875 2.12763,-4.88182 4.78353,-4.99538 z m -20,0 c 2.68876,0 4.88182,2.12763 4.99538,4.78353 L 121,111 c 0,2.68876 -2.12763,4.88182 -4.78353,4.99538 L 116,116 c -2.76142,0 -5,-2.2442 -5,-5 0,-2.68875 2.12763,-4.88182 4.78353,-4.99538 z m -20,0 c 2.688755,0 4.88182,2.12763 4.99538,4.78353 L 101,111 c 0,2.68876 -2.127634,4.88182 -4.783531,4.99538 L 96,116 c -2.761424,0 -5,-2.2442 -5,-5 0,-2.68875 2.127634,-4.88182 4.783531,-4.99538 z m -20,0 c 2.688755,0 4.881818,2.12763 4.99538,4.78353 L 81,111 c 0,2.68876 -2.127634,4.88182 -4.783531,4.99538 L 76,116 c -2.761424,0 -5,-2.2442 -5,-5 0,-2.68875 2.127634,-4.88182 4.783531,-4.99538 z m -20,0 c 2.688755,0 4.881818,2.12763 4.995381,4.78353 L 61,111 c 0,2.68876 -2.127634,4.88182 -4.783531,4.99538 L 56,116 c -2.761424,0 -5,-2.2442 -5,-5 0,-2.68875 2.127634,-4.88182 4.783531,-4.99538 z m -20,0 c 2.688755,0 4.881818,2.12763 4.995381,4.78353 L 41,111 c 0,2.68876 -2.127634,4.88182 -4.783531,4.99538 L 36,116 c -2.761424,0 -5,-2.2442 -5,-5 0,-2.68875 2.127634,-4.88182 4.783531,-4.99538 z m 0,-21 c 2.688755,0 4.881818,2.127634 4.995381,4.783531 L 41,90 c 0,2.688755 -2.127634,4.881818 -4.783531,4.99538 L 36,95 c -2.761424,0 -5,-2.244195 -5,-5 0,-2.688755 2.127634,-4.881818 4.783531,-4.99538 z m 120,0 c 2.68875,0 4.88182,2.127634 4.99538,4.783531 L 161,90 c 0,2.688755 -2.12763,4.881818 -4.78353,4.99538 L 156,95 c -2.76142,0 -5,-2.244195 -5,-5 0,-2.688755 2.12763,-4.881818 4.78353,-4.99538 z m -20,0 c 2.68875,0 4.88182,2.127634 4.99538,4.783531 L 141,90 c 0,2.688755 -2.12763,4.881818 -4.78353,4.99538 L 136,95 c -2.76142,0 -5,-2.244195 -5,-5 0,-2.688755 2.12763,-4.881818 4.78353,-4.99538 z m -20,0 c 2.68876,0 4.88182,2.127634 4.99538,4.783531 L 121,90 c 0,2.688755 -2.12763,4.881818 -4.78353,4.99538 L 116,95 c -2.76142,0 -5,-2.244195 -5,-5 0,-2.688755 2.12763,-4.881818 4.78353,-4.99538 z m -20,0 c 2.688755,0 4.88182,2.127634 4.99538,4.783531 L 101,90 c 0,2.688755 -2.127634,4.881818 -4.783531,4.99538 L 96,95 c -2.761424,0 -5,-2.244195 -5,-5 0,-2.688755 2.127634,-4.881818 4.783531,-4.99538 z m -20,0 c 2.688755,0 4.881818,2.127634 4.99538,4.783531 L 81,90 c 0,2.688755 -2.127634,4.881818 -4.783531,4.99538 L 76,95 c -2.761424,0 -5,-2.244195 -5,-5 0,-2.688755 2.127634,-4.881818 4.783531,-4.99538 z m -20,0 c 2.688755,0 4.881818,2.127634 4.995381,4.783531 L 61,90 c 0,2.688755 -2.127634,4.881818 -4.783531,4.99538 L 56,95 c -2.761424,0 -5,-2.244195 -5,-5 0,-2.688755 2.127634,-4.881818 4.783531,-4.99538 z"
       id="path4"
       inkscape:connector-curvature="0"
       style="fill:#b1b5bd;fill-rule:evenodd" />
  </g>
</svg>
