<svg width="192" height="192" version="1.1" viewBox="0 0 192 192" xmlns="http://www.w3.org/2000/svg">
 <style type="text/css">.st0{fill:#FFFFFF;}</style>
 <style type="text/css">.st0{fill:#FFFFFF;}</style>
 <circle cx="96" cy="96" r="36" style="fill:none;opacity:.63;stroke:#b1b5bd"/>
 <rect x="32.501" y="8.0014" width="127" height="176" rx="9.9998" style="fill:#fff;stroke-width:4"/>
 <path d="m32.5 40v24h127v-24zm0 48v24h127v-24zm0 48v24h127v-24z" style="fill:#d8d8d8;paint-order:stroke fill markers;stroke-width:4.8242"/>
 <rect x="32.5" y="40" width="127.5" height="24" ry="4" style="fill:#9abeff;paint-order:stroke fill markers;stroke-width:4"/>
 <rect x="96" y="32" width="88" height="96" rx="9.9998" style="fill:#fff;paint-order:stroke fill markers;stroke-width:4"/>
 <path d="m106 128c-5.5399 0-10-4.4601-10-10v-14h88v14c0 5.5399-4.4601 10-10 10zm-10-48v-24h88v24z" style="fill:#d8d8d8;paint-order:stroke fill markers;stroke-width:4"/>
 <rect x="96" y="56" width="88" height="24" ry="4" style="fill:#9abeff;paint-order:stroke fill markers;stroke-width:4"/>
 <path d="m118.07 72.657c-4e-3 4e-3 -7e-3 8e-3 -0.0104 0.012l-1.5659 1.5682c-1.0377 1.0392-1.0329 2.7074 0.0108 3.7407l9.9235 9.8247c1.0437 1.0333 2.719 1.0284 3.7566-0.012l4.1752-4.1816c9e-3 -8e-3 0.0144-0.02 0.0232-0.028l0.73985-0.74096c0.49369-0.49444 0.89462-1.453 0.89834-2.1502l9e-3 -1.8575c2e-3 -0.2468-0.0488-0.4234-0.13392-0.53096-0.0493-0.102-0.11268-0.1992-0.198-0.2836l-9.4534-9.3593c-0.1062-0.1052-0.23016-0.1812-0.36128-0.2304-0.0216-8e-3 -0.0505-0.016-0.0754-0.02-0.0368-0.012-0.0731-0.024-0.11076-0.028-0.014-2e-3 -0.0308-2e-3 -0.0458-4e-3 -0.0515-8e-3 -0.10296-0.012-0.1548-0.012-0.0156-2.8e-4 -0.028-2e-3 -0.0441-2e-3l-1.8645 0.02c-0.70016 8e-3 -1.6614 0.41164-2.1551 0.90608l-3.3638 3.369zm-45.271 45.343c-0.2594 0.26-0.45376 0.55872-0.58292 0.87744-0.12468 0.3076-0.18232 0.6352-0.18572 0.9616v0.0688l0.0284 9.8143c4e-3 1.4656 1.1926 2.6421 2.6643 2.6379l9.8603-0.028 0.0606-3.2e-4c0.3292-8e-3 0.65924-0.0648 0.96888-0.1912 0.31932-0.1304 0.61837-0.3256 0.8778-0.58556l36.655-36.711c1.0377-1.0392 1.0329-2.7074-0.0108-3.7407l-9.9238-9.8245c-1.0437-1.0333-2.719-1.0285-3.7566 0.012l-36.655 36.711z" style="fill-rule:evenodd;fill:#4a4a4a;stroke-width:1.0108"/>
</svg>
