<svg xmlns="http://www.w3.org/2000/svg" width="192" height="192" viewBox="0 0 192 192">
  <g fill="none" transform="translate(33 20)">
    <path fill="#B1B5BE" d="M125.678981 54.011465C125.678981 85.6318471 125.678981 117.171975 125.678981 148.792357 125.678981 148.792357 125.598726 148.872611 125.598726 148.872611 125.277707 150.156688 124.394904 151.03949 123.191083 151.440764 123.030573 151.521019 122.870064 151.601274 122.709554 151.681529 82.9031847 151.681529 43.0968153 151.681529 3.29044586 151.681529 3.12993631 151.601274 2.96942675 151.521019 2.8089172 151.440764 1.52484076 151.03949.722292994 150.156688.321019108 148.872611.240764331 148.712102.160509554 148.551592.0802547771 148.391083 0 99.9974522 0 51.6038217 0 3.21019108.0802547771 3.04968153.240764331 2.8089172.321019108 2.64840764.802547771 1.36433121 1.68535032.561783439 3.04968153.240764331 3.12993631.240764331 3.21019108.160509554 3.29044586.160509554 26.0025478.160509554 48.7949045.160509554 71.5070064.160509554 71.6675159.240764331 71.9082803.321019108 72.0687898.321019108 72.7910828.561783439 73.3528662 1.0433121 73.9146497 1.60509554 90.6076433 18.2980892 107.300637 34.9910828 123.993631 51.6840764 124.796178 52.3261146 125.438217 53.0484076 125.678981 54.011465zM118.295541 144.13758C118.295541 143.896815 118.295541 143.656051 118.295541 143.495541 118.295541 114.684076 118.295541 85.8726115 118.295541 57.0611465 118.295541 56.5796178 118.135032 56.2585987 117.814013 55.9375796 101.923567 40.0471338 85.9528662 24.0764331 70.0624204 8.18598726 69.6611465 7.78471338 69.1796178 7.54394904 68.6178344 7.54394904 48.5541401 7.54394904 28.5707006 7.54394904 8.50700637 7.54394904 8.34649682 7.54394904 8.18598726 7.54394904 8.02547771 7.54394904 7.86496815 7.54394904 7.78471338 7.62420382 7.62420382 7.62420382 7.62420382 53.1286624 7.62420382 98.633121 7.62420382 144.13758 44.5414013 144.13758 81.3783439 144.13758 118.295541 144.13758zM89.8853503.0802547771C100.8.0802547771 111.794904.0802547771 122.709554.0802547771 122.789809.160509554 122.950318.160509554 123.030573.240764331 124.073885.561783439 124.876433 1.20382166 125.438217 2.16687898 125.598726 2.40764331 125.678981 2.72866242 125.759236 2.96942675 125.759236 14.044586 125.759236 25.2 125.759236 36.2751592 125.678981 36.5159236 125.598726 36.8369427 125.438217 37.077707 124.394904 39.1643312 121.585987 39.8063694 119.740127 38.2815287 119.499363 38.0407643 119.258599 37.8 119.017834 37.5592357 108.745223 27.2866242 98.5528662 17.0140127 88.2802548 6.82165605 88.1197452 6.6611465 87.9592357 6.50063694 87.7184713 6.25987261 85.8726115 4.17324841 86.8356688.882802548 89.5643312.160509554 89.644586.160509554 89.8050955.160509554 89.8853503.0802547771z"/>
    <path fill="#FFF" d="M118.295541,144.13758 C81.3783439,144.13758 44.5414013,144.13758 7.62420382,144.13758 C7.62420382,98.633121 7.62420382,53.1286624 7.62420382,7.62420382 C7.78471338,7.62420382 7.86496815,7.54394904 8.02547771,7.54394904 C8.18598726,7.54394904 8.34649682,7.54394904 8.50700637,7.54394904 C28.5707006,7.54394904 48.5541401,7.54394904 68.6178344,7.54394904 C69.2598726,7.54394904 69.6611465,7.7044586 70.0624204,8.18598726 C85.9528662,24.0764331 101.923567,40.0471338 117.894268,55.9375796 C118.215287,56.2585987 118.375796,56.5796178 118.375796,57.0611465 C118.375796,85.8726115 118.375796,114.684076 118.375796,143.495541 C118.295541,143.656051 118.295541,143.896815 118.295541,144.13758 Z"/>
  </g>
</svg>
