<svg width="192" height="192" version="1.1" viewBox="0 0 192 192" xmlns="http://www.w3.org/2000/svg">
 <rect x="20" y="20" width="152" height="152" rx="10" style="fill-rule:evenodd;fill:#BA6561"/>
 <path d="m66.008 61c-5.1325 0.49081-9.6801 4.767-10.404 9.9102l-7.207 51.18c-0.77017 5.4682 3.082 9.9102 8.6055 9.9102 10.392 0.14382 17.332 0 25.998 0-4.05-0.50625-9.3769-5.368-13.654-10.047 7.0793 5.6033 16.633 9.0469 27.154 9.0469 10.522 0 20.075-3.4436 27.154-9.0469-4.2774 4.6789-9.6043 9.5406-13.654 10.047h25.998c5.5235 0 9.3756-4.4419 8.6055-9.9102l-7.207-51.18c-0.72439-5.1432-5.2718-9.3705-10.404-9.8613-1.2313-0.07867-15.253-0.048828-24.018-0.048828 3.3078 0.41348 7.4639 3.7401 11.209 7.4922-5.3214-2.2303-11.325-3.4922-17.684-3.4922s-12.362 1.2619-17.684 3.4922c3.745-3.7521 7.9012-7.0787 11.209-7.4922-7.9769 0.059708-15.874 0.006894-24.017 0zm14.492 35c4.6944 0 8.5 3.8056 8.5 8.5s-3.8056 8.5-8.5 8.5-8.5-3.8056-8.5-8.5 3.8056-8.5 8.5-8.5zm31 0c4.6944 0 8.5 3.8056 8.5 8.5s-3.8056 8.5-8.5 8.5-8.5-3.8056-8.5-8.5 3.8056-8.5 8.5-8.5z" style="fill-rule:evenodd;fill:#fff"/>
</svg>
