<?xml version="1.0" encoding="UTF-8" standalone="no"?>
<svg
   xmlns:dc="http://purl.org/dc/elements/1.1/"
   xmlns:cc="http://creativecommons.org/ns#"
   xmlns:rdf="http://www.w3.org/1999/02/22-rdf-syntax-ns#"
   xmlns:svg="http://www.w3.org/2000/svg"
   xmlns="http://www.w3.org/2000/svg"
   xmlns:sodipodi="http://sodipodi.sourceforge.net/DTD/sodipodi-0.dtd"
   xmlns:inkscape="http://www.inkscape.org/namespaces/inkscape"
   width="192"
   height="192"
   viewBox="0 0 192 192"
   version="1.1"
   id="svg2006"
   sodipodi:docname="menulibre.svg"
   inkscape:version="0.92.4 (f8dce91, 2019-08-02)">
  <metadata
     id="metadata2012">
    <rdf:RDF>
      <cc:Work
         rdf:about="">
        <dc:format>image/svg+xml</dc:format>
        <dc:type
           rdf:resource="http://purl.org/dc/dcmitype/StillImage" />
        <dc:title />
      </cc:Work>
    </rdf:RDF>
  </metadata>
  <defs
     id="defs2010" />
  <sodipodi:namedview
     pagecolor="#ffffff"
     bordercolor="#666666"
     borderopacity="1"
     objecttolerance="10"
     gridtolerance="10"
     guidetolerance="10"
     inkscape:pageopacity="0"
     inkscape:pageshadow="2"
     inkscape:window-width="1920"
     inkscape:window-height="1004"
     id="namedview2008"
     showgrid="false"
     inkscape:zoom="4.2135417"
     inkscape:cx="116.40514"
     inkscape:cy="93.26713"
     inkscape:window-x="0"
     inkscape:window-y="0"
     inkscape:window-maximized="1"
     inkscape:current-layer="svg2006" />
  <rect
     style="fill:none;fill-rule:evenodd;stroke:none"
     id="rect1994"
     rx="10"
     y="19.5"
     x="19.5"
     height="153"
     width="153" />
  <path
     style="fill:#ffffff;fill-opacity:1;fill-rule:evenodd;stroke-width:1.17863297"
     inkscape:connector-curvature="0"
     d="M 31.939565,157.48175 C 25.069383,157.48175 19.5,152.4713 19.5,146.32497 V 30.156785 c 0,-6.161721 5.581188,-11.156782 12.439565,-11.156782 H 160.06044 c 6.87017,0 12.43956,5.010451 12.43956,11.156782 V 146.32497 c 0,6.16172 -5.5812,11.15678 -12.43956,11.15678 H 66.768291 L 49.353658,172 v -14.51825 z"
     id="path865" />
  <line
     style="fill:#98dc9a;fill-opacity:1;fill-rule:evenodd;stroke:#b1b5bd;stroke-width:5.89316463;stroke-linecap:square"
     x1="60.946583"
     x2="132.39259"
     y1="69.053421"
     y2="69.053421"
     id="line867" />
  <line
     style="fill:#9abeff;fill-opacity:1;fill-rule:evenodd;stroke:#9abeff;stroke-width:5.89316463;stroke-linecap:square;stroke-opacity:1"
     x1="60.946583"
     x2="132.39259"
     y1="89.053421"
     y2="89.053421"
     id="line869" />
  <line
     style="fill:#98dc9a;fill-opacity:1;fill-rule:evenodd;stroke:#b1b5bd;stroke-width:5.89316463;stroke-linecap:square"
     x1="61.894241"
     x2="133.34026"
     y1="49.053417"
     y2="49.053417"
     id="line867-6" />
  <path
     style="fill:#4a4a4a;fill-rule:evenodd;fill-opacity:1"
     inkscape:connector-curvature="0"
     id="path2816"
     d="m 130.36525,28.677895 c -0.004,0.0039 -0.007,0.0079 -0.0103,0.01199 l -1.55033,1.55059 c -1.02735,1.027535 -1.02256,2.676842 0.0108,3.698448 l 9.82465,9.713476 c 1.03331,1.02162 2.69186,1.01685 3.71921,-0.0107 l 4.13362,-4.13433 c 0.009,-0.009 0.0141,-0.0195 0.023,-0.0282 l 0.73247,-0.73261 c 0.48877,-0.48884 0.88571,-1.4366 0.88939,-2.12594 l 0.009,-1.836496 c 0.002,-0.243814 -0.0483,-0.418625 -0.13258,-0.524933 -0.0488,-0.100703 -0.11154,-0.196864 -0.19604,-0.2804 l -9.35925,-9.253352 c -0.10516,-0.103949 -0.22786,-0.179117 -0.3577,-0.227994 -0.0216,-0.0088 -0.05,-0.01367 -0.0746,-0.02114 -0.0366,-0.01062 -0.0724,-0.02222 -0.10967,-0.02861 -0.0139,-0.002 -0.0308,-0.002 -0.0454,-0.0049 -0.051,-0.0069 -0.10196,-0.0119 -0.15328,-0.01062 -0.0155,-2.56e-4 -0.0277,-0.002 -0.0437,-0.002 l -1.84588,0.02065 c -0.69319,0.0079 -1.64479,0.406983 -2.13356,0.89584 l -3.33029,3.330874 z M 85.545126,73.507659 c -0.25684,0.25688 -0.44924,0.55241 -0.57711,0.86752 -0.12345,0.30421 -0.18052,0.628 -0.18389,0.9507 v 0.0681 l 0.0278,9.70328 c 0.004,1.44897 1.18068,2.61215 2.63778,2.60796 l 9.76209,-0.0283 0.06,-3.2e-4 c 0.32595,-0.007 0.65267,-0.0641 0.95923,-0.18919 0.31615,-0.12902 0.61221,-0.32205 0.86905,-0.57893 l 3.067354,-3.06788 1.75094,-1.75124 31.47168,-31.47723 c 1.02735,-1.02754 1.02257,-2.67682 -0.0108,-3.69844 l -9.82486,-9.713324 c -1.0333,-1.021626 -2.69186,-1.016857 -3.71922,0.01072 l -31.472534,31.478064 -1.75009,1.7504 -3.06735,3.06789 z" />
  <line
     style="fill:#a0a5af;fill-opacity:1;fill-rule:evenodd;stroke:#b1b5bd;stroke-width:5.89316463;stroke-linecap:square;stroke-opacity:1"
     x1="60.946583"
     x2="132.39261"
     y1="109.05342"
     y2="109.05342"
     id="line869-2" />
  <line
     style="fill:#a0a5af;fill-opacity:1;fill-rule:evenodd;stroke:#b1b5bd;stroke-width:5.89316463;stroke-linecap:square;stroke-opacity:1"
     x1="60.946583"
     x2="132.39261"
     y1="129.05342"
     y2="129.05342"
     id="line869-2-5" />
</svg>
