<svg width="192" height="192" version="1.1" viewBox="0 0 192 192" xmlns="http://www.w3.org/2000/svg">
 <path d="m20 162c0 5.5242 4.477 10.003 10.003 10.003h131.99c5.5242 0 10.003-4.477 10.003-10.003v-131.99c0-5.5242-4.477-10.003-10.003-10.003h-131.99c-5.5242 0-10.003 4.477-10.003 10.003z" style="fill-rule:evenodd;fill:#fff"/>
 <path d="m69.808 95.474h23.858c0.99849 0 1.8079-0.80921 1.8079-1.8079v-23.858c0-0.99849-0.80921-1.8079-1.8079-1.8079h-23.858c-0.99849 0-1.8079 0.80921-1.8079 1.8079v23.858c0 0.99849 0.80921 1.8079 1.8079 1.8079z" style="fill-rule:evenodd;fill:#ff837d"/>
 <path d="m68 124.19c0 0.99849 0.80921 1.8079 1.8079 1.8079h23.858c0.99849 0 1.8079-0.80921 1.8079-1.8079v-23.858c0-0.9985-0.80921-1.8079-1.8079-1.8079h-23.858c-0.99849 0-1.8079 0.80921-1.8079 1.8079z" style="fill-rule:evenodd;fill:#9abeff"/>
 <path d="m98.526 93.666c0 0.99849 0.80921 1.8079 1.8079 1.8079h23.858c0.99849 0 1.8079-0.80921 1.8079-1.8079v-23.858c0-0.99849-0.80921-1.8079-1.8079-1.8079h-23.858c-0.9985 0-1.8079 0.80921-1.8079 1.8079z" style="fill-rule:evenodd;fill:#98dc9a"/>
 <path d="m98.526 124.19c0 0.99849 0.80921 1.8079 1.8079 1.8079h23.858c0.99849 0 1.8079-0.80921 1.8079-1.8079v-23.858c0-0.9985-0.80921-1.8079-1.8079-1.8079h-23.858c-0.9985 0-1.8079 0.80921-1.8079 1.8079z" style="fill-rule:evenodd;fill:#f9de81"/>
</svg>
