<svg xmlns="http://www.w3.org/2000/svg" xmlns:xlink="http://www.w3.org/1999/xlink" width="192" height="192" viewBox="0 0 192 192">
  <defs>
    <path id="minecraft-a" d="M69.3358473,1.99854965 C74.1209267,-0.762073092 81.8712111,-0.737603886 86.6273358,2.04194948 L146.372664,36.9580505 C151.13741,39.7426423 155,46.4745168 155,51.9933609 L155,121.006639 C155,126.52582 151.128789,133.262396 146.372664,136.041949 L86.6273358,170.958051 C81.8625898,173.742642 74.1186348,173.760751 69.3358473,171.00145 L8.66415273,135.99855 C3.87907331,133.237927 1.7853774e-13,126.525483 1.7853774e-13,121.006639 L1.7853774e-13,51.9933609 C1.7853774e-13,46.4741801 3.88136521,39.7607508 8.66415273,37.0014503 L69.3358473,1.99854965 Z"/>
  </defs>
  <g fill="none" fill-rule="evenodd" transform="translate(19 10)">
    <mask id="minecraft-b" fill="#fff">
      <use xlink:href="#minecraft-a"/>
    </mask>
    <use fill="#D3B69A" xlink:href="#minecraft-a"/>
    <polygon fill="#8E6F60" points="156 42 155 42 155 131 78 176 78 87" mask="url(#minecraft-b)"/>
    <polygon fill="#98DC9A" points="78 -3 156 42 78 87 0 42" mask="url(#minecraft-b)"/>
    <path fill="#98DC9A" d="M0,44.4603676 L0,53.9108131 C0,55.5652499 1.33525234,57.6859367 3.00487839,58.6606398 L6.74512161,60.8441389 C8.40467012,61.812959 9.75,63.941706 9.75,65.6029753 L9.75,70.9167251 C9.75,72.5761378 11.0852523,74.7008583 12.7548784,75.6755615 L16.4951216,77.8590606 C18.1546701,78.8278806 19.5,78.2699013 19.5,76.608632 L19.5,71.2948822 C19.5,69.6354695 20.8352523,69.0697505 22.5048784,70.0444537 L26.2451216,72.2279527 C27.9046701,73.1967728 29.25,75.3264784 29.25,76.973933 L29.25,90.5486891 C29.25,92.2010016 30.5852523,94.3199662 32.2548784,95.2946694 L35.9951216,97.4781685 C37.6546701,98.4469885 39,97.8880506 39,96.240596 L39,82.6658399 C39,81.0135275 40.3352523,80.4535643 42.0048784,81.4282675 L45.7451216,83.6117666 C47.4046701,84.5805866 48.75,86.7051802 48.75,88.3664187 L48.75,92.1444193 C48.75,93.8015211 50.0852523,95.9243682 51.7548784,96.8990714 L55.4951216,99.0825705 C57.1546701,100.051391 58.5,99.4975647 58.5,97.8363262 L58.5,94.0583256 C58.5,92.4012238 59.8352523,91.8373781 61.5048784,92.8120813 L65.2451216,94.9955804 C66.9046701,95.9644004 68.25,98.0977166 68.25,99.7486197 L68.25,102.500434 C68.25,104.156645 69.5852523,106.27877 71.2548784,107.253473 L74.9951216,109.436973 C76.4949539,110.011519 77.13664,110.011519 78,110.011519 L78,86 L3.0098989,43.2218796 C1.34757764,42.2514408 0,42.8080807 0,44.4603676 Z" mask="url(#minecraft-b)"/>
    <path fill="#71A372" d="M78,44.7158795 L78,54.1663251 C78,55.8207619 79.3352523,57.9414486 81.0048784,58.9161518 L84.7451216,61.0996509 C86.4046701,62.068471 87.75,64.197218 87.75,65.8584873 L87.75,71.1722371 C87.75,72.8316497 89.0852523,74.9563702 90.7548784,75.9310734 L94.4951216,78.1145725 C96.1546701,79.0833926 97.5,78.5254132 97.5,76.864144 L97.5,71.5503942 C97.5,69.8909815 98.8352523,69.3252624 100.504878,70.2999656 L104.245122,72.4834647 C105.90467,73.4522848 107.25,75.5819904 107.25,77.229445 L107.25,82.8042011 C107.25,84.4565136 108.585252,86.5754782 110.254878,87.5501814 L113.995122,89.7336805 C115.65467,90.7025005 117,90.1435626 117,88.496108 L117,82.9213519 C117,81.2690394 118.335252,80.7090763 120.004878,81.6837794 L123.745122,83.8672785 C125.40467,84.8360986 126.75,86.9606922 126.75,88.6219307 L126.75,102.399931 C126.75,104.057033 128.085252,106.17988 129.754878,107.154583 L133.495122,109.338082 C135.15467,110.306903 136.5,109.753077 136.5,108.091838 L136.5,94.3138376 C136.5,92.6567358 137.835252,92.0928901 139.504878,93.0675932 L143.245122,95.2510923 C144.90467,96.2199124 146.25,98.3532286 146.25,100.004132 L146.25,102.755946 C146.25,104.412157 147.585252,106.534282 149.254878,107.508985 L152.995122,109.692485 C154.114302,110.038623 156,110.038623 156,110.038623 L156,86.255512 L81.0098989,43.4773915 C79.3475776,42.5069528 78,43.0635927 78,44.7158795 Z" mask="url(#minecraft-b)" transform="matrix(-1 0 0 1 234 0)"/>
    <polygon fill="#FFF" fill-opacity=".25" points="78 -3 156 42 78 87 0 42" mask="url(#minecraft-b)"/>
  </g>
</svg>
