<svg width="192" height="192" fill="none" version="1.1" viewBox="0 0 192 192" xmlns="http://www.w3.org/2000/svg">
 <rect x="20" y="20" width="152" height="152" rx="10" fill="#96DFD3"/>
 <path d="m49.084 44c-2.8169 0-5.084 2.267-5.084 5.084v94.832c0 2.8169 2.267 5.084 5.084 5.084h94.832c2.8169 0 5.084-2.267 5.084-5.084v-94.832c0-2.8169-2.267-5.084-5.084-5.084h-94.832zm4.916 10h85v85h-85v-85z" style="color-rendering:auto;color:#000000;dominant-baseline:auto;fill-opacity:.5;fill:#fff;font-feature-settings:normal;font-variant-alternates:normal;font-variant-caps:normal;font-variant-ligatures:normal;font-variant-numeric:normal;font-variant-position:normal;image-rendering:auto;isolation:auto;mix-blend-mode:normal;shape-padding:0;shape-rendering:auto;solid-color:#000000;text-decoration-color:#000000;text-decoration-line:none;text-decoration-style:solid;text-indent:0;text-orientation:mixed;text-transform:none;white-space:normal"/>
 <path d="m87.273 81.99c0-2.3725 2.6237-3.8062 4.6204-2.5247l21.829 14.01c1.84 1.1806 1.84 3.8689 0 5.0495l-21.829 14.01c-1.9967 1.281-4.6204-0.153-4.6204-2.525v-28.02z" clip-rule="evenodd" fill="#fff" fill-rule="evenodd"/>
</svg>
