<svg xmlns="http://www.w3.org/2000/svg" xmlns:xlink="http://www.w3.org/1999/xlink" width="192" height="192" viewBox="0 0 192 192">
  <defs>
    <circle id="music_alt_five-a" cx="96" cy="96" r="87"/>
  </defs>
  <g fill="none" fill-rule="evenodd">
    <mask id="music_alt_five-b" fill="#fff">
      <use xlink:href="#music_alt_five-a"/>
    </mask>
    <use fill="#56595B" xlink:href="#music_alt_five-a"/>
    <path fill="#F9DE81" d="M124,111.001006 C124,117.606476 118.634413,122.961268 112.015625,122.961268 C105.396837,122.961268 100.03125,117.606476 100.03125,111.001006 C100.03125,104.395536 105.396837,99.0407445 112.015625,99.0407445 C113.649108,99.0407445 115.206261,99.3668925 116.625269,99.9574969 L116.625,73.96 L88.968,79.96 L88.96875,118.361167 C88.96875,124.865014 83.7669876,130.15637 77.2889527,130.317641 L76.984375,130.321429 C70.3655875,130.321429 65,124.966637 65,118.361167 C65,111.755697 70.3655875,106.400905 76.984375,106.400905 C78.6178578,106.400905 80.1750111,106.727054 81.5940186,107.317658 L81.59375,74.2002012 L124,65 Z" mask="url(#music_alt_five-b)"/>
  </g>
</svg>
