<svg width="192" height="192" fill="none" version="1.1" viewBox="0 0 192 192" xmlns="http://www.w3.org/2000/svg">
 <path d="m97 183c48.049 0 87-38.951 87-87 0-48.049-38.951-87-87-87-48.049 0-87 38.951-87 87 0 48.049 38.951 87 87 87z" clip-rule="evenodd" fill="#FF837D" fill-rule="evenodd"/>
 <mask x="10" y="9" width="174" height="174" mask-type="alpha" maskUnits="userSpaceOnUse">
  <path d="m97 183c48.049 0 87-38.951 87-87 0-48.049-38.951-87-87-87-48.049 0-87 38.951-87 87 0 48.049 38.951 87 87 87z" clip-rule="evenodd" fill="#fff" fill-rule="evenodd"/>
 </mask>
 <path d="m96.642 111.82-28.434 21.531c-6.1899 4.687-11.208 1.171-11.208-7.846v-59.583c0-9.0204 5.0106-12.539 11.208-7.8461l28.434 21.532 28.435-21.532c6.197-4.6927 11.207-1.1743 11.207 7.8461v59.583c0 9.017-5.017 12.533-11.207 7.846z" style="clip-rule:evenodd;fill-rule:evenodd;fill:#ffd6d4"/>
 <path d="m135.93 126.14v-17.959l-17.049-12.995-22.462 16.554-22.372-16.488-17.049 12.996v17.959c0 7.975 4.962 11.398 10.072 7.901l29.437-22.186 29.35 22.12c5.11 3.497 10.072 0.074 10.072-7.901z" style="clip-rule:evenodd;fill-rule:evenodd;fill:#ffb0ac"/>
 <path d="m57 65.028v17.496l17.049 12.66 22.417-16.095 22.417 16.095 17.049-12.66v-17.496c0-7.7688-4.962-11.104-10.072-7.6968l-29.394 21.581-29.394-21.581c-5.1104-3.4069-10.072-0.072-10.072 7.6968z" style="clip-rule:evenodd;fill-rule:evenodd;fill:#fff"/>
</svg>
