<svg xmlns="http://www.w3.org/2000/svg" width="192" height="192" viewBox="0 0 192 192">
  <g fill="none" fill-rule="evenodd">
    <rect width="152" height="152" x="20" y="20" fill="#9ABEFF" rx="10"/>
    <circle cx="116" cy="80" r="20" fill="#F9DE81"/>
    <path fill="#FFF" d="M120.525773,126.994738 C128.555853,126.784323 135,120.289765 135,112.308824 C135,104.195111 128.339659,97.6176471 120.123711,97.6176471 C119.979051,97.6176471 119.834873,97.6196862 119.691205,97.6237369 C119.71142,97.2271677 119.721649,96.8279989 119.721649,96.4264706 C119.721649,83.4883881 109.101105,73 96,73 C84.3701467,73 74.6950043,81.2649713 72.6686375,92.1717028 C63.8505695,93.162607 57,100.555946 57,109.529412 C57,119.178151 64.9204059,127 74.6907216,127 L120.525773,127 L120.525773,126.994738 L120.525773,126.994738 Z"/>
  </g>
</svg>
