<svg xmlns="http://www.w3.org/2000/svg" width="192" height="192" viewBox="0 0 192 192">
  <g fill="none" fill-rule="evenodd">
    <path fill="#FFF" d="M34,18.9958011 C34,13.4752726 38.4856707,9 43.9916928,9 L149.008307,9 C154.526567,9 159,13.4760034 159,18.9958011 L159,173.004199 C159,178.524727 154.514329,183 149.008307,183 L43.9916928,183 C38.4734332,183 34,178.523997 34,173.004199 L34,18.9958011 Z"/>
    <text fill="#FF837D" font-family="Aleo-Bold, Aleo" font-size="72" font-weight="bold" letter-spacing="4.5">
      <tspan x="68.018" y="123">A</tspan>
    </text>
    <g fill="#FF837D" transform="translate(43 18)">
      <text font-family="Aleo-Bold, Aleo" font-size="20" font-weight="bold" letter-spacing="1.25">
        <tspan x="3.255" y="39">A</tspan>
      </text>
      <path d="M5.2,0 C2.3281193,0 0,2.3281193 0,5.2 C0,7.98985012 3.33333333,12.4079607 10,18.4543317 C16.6666667,12.4091873 20,7.99107669 20,5.2 C20,2.32811944 17.6718807,0 14.8,0 C12.6381908,0 10.7844948,1.31918942 10,3.19648027 C9.21550518,1.31918942 7.36180919,0 5.2,0 Z"/>
    </g>
    <g fill="#FF837D" transform="rotate(180 76 87)">
      <text font-family="Aleo-Bold, Aleo" font-size="20" font-weight="bold" letter-spacing="1.25">
        <tspan x="3.255" y="39">A</tspan>
      </text>
      <path d="M5.2,0 C2.3281193,0 0,2.3281193 0,5.2 C0,7.98985012 3.33333333,12.4079607 10,18.4543317 C16.6666667,12.4091873 20,7.99107669 20,5.2 C20,2.32811944 17.6718807,0 14.8,0 C12.6381908,0 10.7844948,1.31918942 10,3.19648027 C9.21550518,1.31918942 7.36180919,0 5.2,0 Z"/>
    </g>
  </g>
</svg>
