<?xml version="1.0" encoding="UTF-8" standalone="no"?>
<svg
   xmlns:dc="http://purl.org/dc/elements/1.1/"
   xmlns:cc="http://creativecommons.org/ns#"
   xmlns:rdf="http://www.w3.org/1999/02/22-rdf-syntax-ns#"
   xmlns:svg="http://www.w3.org/2000/svg"
   xmlns="http://www.w3.org/2000/svg"
   xmlns:sodipodi="http://sodipodi.sourceforge.net/DTD/sodipodi-0.dtd"
   xmlns:inkscape="http://www.inkscape.org/namespaces/inkscape"
   width="192"
   height="192"
   viewBox="0 0 192 192"
   version="1.1"
   id="svg865"
   sodipodi:docname="gnome-tweak-tool.svg"
   inkscape:version="0.92.4 (f8dce91, 2019-08-02)">
  <metadata
     id="metadata871">
    <rdf:RDF>
      <cc:Work
         rdf:about="">
        <dc:format>image/svg+xml</dc:format>
        <dc:type
           rdf:resource="http://purl.org/dc/dcmitype/StillImage" />
      </cc:Work>
    </rdf:RDF>
  </metadata>
  <defs
     id="defs869" />
  <sodipodi:namedview
     pagecolor="#ffffff"
     bordercolor="#666666"
     borderopacity="1"
     objecttolerance="10"
     gridtolerance="10"
     guidetolerance="10"
     inkscape:pageopacity="0"
     inkscape:pageshadow="2"
     inkscape:window-width="1920"
     inkscape:window-height="1004"
     id="namedview867"
     showgrid="false"
     inkscape:zoom="1.489712"
     inkscape:cx="190.88389"
     inkscape:cy="104.11355"
     inkscape:window-x="0"
     inkscape:window-y="0"
     inkscape:window-maximized="1"
     inkscape:current-layer="svg865" />
  <path
     style="fill:#98dc9a;fill-rule:evenodd;fill-opacity:1"
     inkscape:connector-curvature="0"
     id="path857"
     d="m 76.589785,180.37515 c -2.04805,1.85606 -5.713679,2.36508 -8.188387,1.13645 L 49.47742,172.11631 c -2.474271,-1.22842 -4.339243,-4.45432 -4.16488,-7.21557 l 0.685502,-10.8558 c 0.174071,-2.75663 -1.085087,-6.73486 -2.809947,-8.88255 l -5.076716,-6.32121 c -1.725961,-2.14906 -5.326748,-4.24953 -8.068869,-4.69582 l -9.804657,-1.59572 c -2.730351,-0.44437 -5.399742,-2.99385 -5.961373,-5.69022 L 9.7528317,105.14158 c -0.5620239,-2.69826 0.8188703,-6.169562 3.0798403,-7.750253 l 7.284683,-5.092875 c 2.262973,-1.582091 4.578821,-5.058373 5.168763,-7.747042 l 1.914623,-8.725917 c 0.591656,-2.696482 -0.02712,-6.837545 -1.375638,-9.237884 l -3.848745,-6.850677 c -1.3514,-2.40546 -1.029,-6.090893 0.718038,-8.229119 L 37.353291,33.566571 c 1.747961,-2.139357 5.316531,-3.237535 7.960484,-2.455848 l 6.611458,1.954683 c 2.648493,0.783029 6.807976,0.430884 9.291296,-0.786944 l 9.00864,-4.417867 c 2.482949,-1.217646 5.339787,-4.28318 6.375923,-6.834737 l 2.450002,-6.033304 c 1.038377,-2.557076 4.123926,-4.639287 6.881463,-4.650707 l 23.404043,-0.09693 c 2.76215,-0.01144 5.84547,2.058075 6.88421,4.616052 l 2.39821,5.905754 c 1.03989,2.560814 3.90566,5.610657 6.39025,6.806901 l 9.55623,4.600993 c 2.48935,1.198533 6.66304,1.532809 9.30108,0.752871 l 6.64599,-1.964894 c 2.6475,-0.782734 6.2173,0.306888 7.98014,2.441922 l 14.45794,17.510513 c 1.75981,2.13137 2.08776,5.814784 0.73536,8.222006 l -3.77265,6.715229 c -1.35369,2.409518 -1.9672,6.548569 -1.37196,9.23747 l 2.20725,9.970872 c 0.59597,2.692196 2.90909,6.154042 5.17216,7.736198 l 7.23866,5.060701 c 2.26053,1.580388 3.63092,5.059625 3.06336,7.759065 l -4.43906,21.11331 c -0.56869,2.70482 -3.24725,5.25842 -5.96652,5.70099 l -9.79092,1.59349 c -2.72653,0.44374 -6.34137,2.53466 -8.08412,4.6827 l -5.74411,7.07993 c -1.73821,2.14244 -3.00619,6.11394 -2.83259,8.86325 l 0.67756,10.72994 c 0.17382,2.7526 -1.70339,5.96722 -4.17473,7.17122 l -18.77168,9.14527 c -2.47946,1.20795 -6.15204,0.68046 -8.19736,-1.17312 l -8.39915,-7.61178 c -2.04782,-1.85585 -5.94927,-3.22868 -8.6948,-3.06743 l 1.18168,-0.0694 c -2.75419,0.16175 -7.211427,0.15326 -9.982591,-0.0207 l 0.604633,0.0379 c -2.759046,-0.17316 -6.649551,1.18528 -8.704018,3.04716 z" />
  <circle
     style="fill:#54688c;fill-rule:evenodd;fill-opacity:1"
     id="circle859"
     r="35"
     cy="96"
     cx="98" />
  <circle
     style="fill:none;fill-rule:evenodd;stroke:#f9de81;stroke-width:10"
     id="circle861"
     r="53.5"
     cy="96.5"
     cx="98.5" />
</svg>
