<svg width="192" height="192" version="1.1" viewBox="0 0 192 192" xmlns="http://www.w3.org/2000/svg">
 <path d="m50 100.65c0-1.6585 0.8225-3.2092 2.1958-4.1394l57-38.613c1.693-1.1473 3.915-1.1473 5.608-1e-4l57 38.613c1.373 0.9303 2.196 2.481 2.196 4.1395v65.348c0 2.761-2.239 5-5 5h-114c-2.7614 0-5-2.239-5-5v-65.348z" fill="#54688C"/>
 <rect x="59" y="28" width="109" height="112" rx="5" fill="#54688C"/>
 <g fill="#9ABEFF">
  <path d="m93 47h75v64h-75v-64z" opacity=".5"/>
  <path d="M59 47H168V140H59V47Z" opacity=".25"/>
  <path d="m131 81h37v59h-37v-59z" opacity=".5"/>
  <path d="M93 47H131V81H93V47Z" opacity=".25"/>
  <path d="m131 47h37v34h-37v-34z"/>
  <path d="m50 97v2.0395c0 1.8255 0.9951 3.5065 2.5958 4.3845l57 31.258c1.497 0.821 3.311 0.821 4.808 0l57-31.258c1.601-0.878 2.596-2.559 2.596-4.3845v-2.0395 69c0 2.761-2.239 5-5 5h-114c-2.7614 0-5-2.239-5-5v-69z"/>
 </g>
 <path d="m53 101v1.819c0 1.803 0.9705 3.466 2.5401 4.353l51.418 29.057c1.346 0.76 1.357 2.695 0.02 3.471l-47.972 27.817c-2.6666 1.546-6.0065-0.378-6.0065-3.46v-63.057z" fill="#809ED4"/>
 <rect x="11" y="58" width="82" height="82" rx="5" fill="#9ABEFF"/>
 <path d="m52.36 123.64c13.6 0 24.64-11.04 24.64-24.64s-11.04-24.64-24.64-24.64c-13.68 0-24.64 11.04-24.64 24.64s10.96 24.64 24.64 24.64zm0-12c-7.28 0-12.72-5.36-12.72-12.64s5.44-12.64 12.72-12.64c7.2 0 12.64 5.36 12.64 12.64s-5.44 12.64-12.64 12.64z" fill="#fff"/>
</svg>
