<svg xmlns="http://www.w3.org/2000/svg" width="192" height="192" viewBox="0 0 192 192">
  <g fill="none" fill-rule="evenodd">
    <path fill="#FF837D" d="M161.997483,20 C167.52172,20 172,24.4837982 172,30.0050444 L172,94.501967 C172,94.6387434 171.997257,94.7748789 171.991823,94.9103211 L172,96 C172,137.973641 137.973641,172 96,172 C54.026359,172 20,137.973641 20,96 C20,95.6366959 20.0025492,95.2739873 20.0076307,94.9118909 C20.0027846,94.7766773 20,94.6396447 20,94.501967 L20,30.0050444 C20,24.479411 24.4770034,20 30.0025173,20 L161.997483,20 Z"/>
    <polyline stroke="#FFF" stroke-linecap="round" stroke-linejoin="round" stroke-width="10" points="68 80 96.359 108.262 124.578 80.042"/>
  </g>
</svg>
