<svg width="192" height="192" fill="none" version="1.1" viewBox="0 0 192 192" xmlns="http://www.w3.org/2000/svg">
 <path d="m95.605 181.81c46.727 0 84.606-38.237 84.606-85.404 0-47.167-37.879-85.404-84.606-85.404-46.726 0-84.605 38.237-84.605 85.404 0 47.167 37.879 85.404 84.605 85.404z" clip-rule="evenodd" fill="#FF837D" fill-rule="evenodd"/>
 <path d="m153 96c0-31.48-25.52-57-57-57-31.48 0-57 25.52-57 57 0 31.48 25.52 57 57 57" stroke="#fff" stroke-width="10"/>
 <path d="m137 96c0-22.644-18.356-41-41-41-22.644 0-41 18.356-41 41 0 22.644 18.356 41 41 41" stroke="#fff" stroke-width="10"/>
</svg>
