<svg width="192" height="192" version="1.1" viewBox="0 0 192 192" xmlns="http://www.w3.org/2000/svg">
 <circle cx="96" cy="96" r="88" opacity=".63" style="fill:#99bdfe;opacity:1"/>
 <path d="m93.406 69.084c-6.2386 0-12.477 2.3697-17.215 7.1074-9.4755 9.4755-9.4755 24.954 0 34.43 8.5479 8.5479 21.978 9.3801 31.482 2.5059l15.994 15.996a1.9999 1.9999 0 0 0 2.8281 0l2.627-2.627a2 2 0 0 0 0-2.8281l-15.994-15.994c6.8735-9.5044 6.0398-22.935-2.5078-31.482-4.7378-4.7378-10.976-7.1074-17.215-7.1074zm0 7.666c4.2484-3.48e-4 8.496 1.6308 11.76 4.8945 6.5275 6.5275 6.5274 16.994 0 23.521-6.5275 6.5274-16.992 6.5271-23.52 0-6.5275-6.5275-6.5275-16.992 0-23.52 3.2637-3.2637 7.5114-4.8961 11.76-4.8965z" style="fill:#fff;stroke-linecap:round;stroke-linejoin:round;stroke-width:16.764"/>
</svg>
