<?xml version="1.0" encoding="UTF-8" standalone="no"?>
<svg
   xmlns:dc="http://purl.org/dc/elements/1.1/"
   xmlns:cc="http://creativecommons.org/ns#"
   xmlns:rdf="http://www.w3.org/1999/02/22-rdf-syntax-ns#"
   xmlns:svg="http://www.w3.org/2000/svg"
   xmlns="http://www.w3.org/2000/svg"
   xmlns:sodipodi="http://sodipodi.sourceforge.net/DTD/sodipodi-0.dtd"
   xmlns:inkscape="http://www.inkscape.org/namespaces/inkscape"
   width="192"
   height="192"
   viewBox="0 0 192 192"
   version="1.1"
   id="svg877"
   sodipodi:docname="accessories-clock.svg"
   inkscape:version="0.92.4 (f8dce91, 2019-08-02)">
  <metadata
     id="metadata883">
    <rdf:RDF>
      <cc:Work
         rdf:about="">
        <dc:format>image/svg+xml</dc:format>
        <dc:type
           rdf:resource="http://purl.org/dc/dcmitype/StillImage" />
      </cc:Work>
    </rdf:RDF>
  </metadata>
  <defs
     id="defs881" />
  <sodipodi:namedview
     pagecolor="#ffffff"
     bordercolor="#666666"
     borderopacity="1"
     objecttolerance="10"
     gridtolerance="10"
     guidetolerance="10"
     inkscape:pageopacity="0"
     inkscape:pageshadow="2"
     inkscape:window-width="1920"
     inkscape:window-height="1004"
     id="namedview879"
     showgrid="false"
     inkscape:zoom="5.9588478"
     inkscape:cx="128.60403"
     inkscape:cy="60.755218"
     inkscape:window-x="0"
     inkscape:window-y="0"
     inkscape:window-maximized="1"
     inkscape:current-layer="svg877" />
  <path
     id="path869"
     d="m 96,184 c 48.60106,0 88,-39.39894 88,-88 C 184,47.398942 144.60106,8 96,8 47.398942,8 8,47.398942 8,96 c 0,48.60106 39.398942,88 88,88 z"
     inkscape:connector-curvature="0"
     style="fill:#56595b;fill-rule:evenodd" />
  <path
     id="path871"
     d="M 92,37.203384 C 92,35.434204 93.439609,34 95.207406,34 v 0 c 1.771402,0 3.207406,1.437977 3.207406,3.203384 v 60.948761 c 0,1.76918 -1.439609,3.203385 -3.207406,3.203385 v 0 C 93.436005,101.35553 92,99.917552 92,98.152145 Z"
     inkscape:connector-curvature="0"
     style="fill:#b1b5bd;fill-rule:evenodd" />
  <rect
     id="rect873"
     rx="3.207"
     y="128.84813"
     x="-41.521263"
     height="48.230999"
     width="6.415"
     style="fill:#b1b5bd;fill-rule:evenodd"
     transform="rotate(-60)" />
</svg>
