<svg width="192" height="192" version="1.1" viewBox="0 0 192 192" xmlns="http://www.w3.org/2000/svg">
 <path d="m96 184c48.601 0 88-39.399 88-88 0-48.601-39.399-88-88-88-48.601 0-88 39.399-88 88 0 48.601 39.399 88 88 88z" style="fill-rule:evenodd;fill:#56595b"/>
 <path d="m95.207 34c-1.7678 0-3.207 1.4339-3.207 3.2031v60.949c0 0.17989 0.024078 0.35347 0.052734 0.52539-0.21816 1.2834 0.35207 2.6176 1.5488 3.3086l36.215 20.908c1.5386 0.88834 3.4925 0.36482 4.3809-1.1738h0.00195c0.88834-1.5386 0.36482-3.4925-1.1738-4.3809l-34.611-19.984v-60.152c0-1.7654-1.4356-3.2031-3.207-3.2031z" style="fill-rule:evenodd;fill:#b1b5bd"/>
</svg>
