<?xml version="1.0" encoding="UTF-8" standalone="no"?>
<svg
   xmlns:dc="http://purl.org/dc/elements/1.1/"
   xmlns:cc="http://creativecommons.org/ns#"
   xmlns:rdf="http://www.w3.org/1999/02/22-rdf-syntax-ns#"
   xmlns:svg="http://www.w3.org/2000/svg"
   xmlns="http://www.w3.org/2000/svg"
   xmlns:sodipodi="http://sodipodi.sourceforge.net/DTD/sodipodi-0.dtd"
   xmlns:inkscape="http://www.inkscape.org/namespaces/inkscape"
   width="192"
   height="192"
   viewBox="0 0 192 192"
   version="1.1"
   id="svg861"
   sodipodi:docname="python.svg"
   inkscape:version="0.92.4 (f8dce91, 2019-08-02)">
  <metadata
     id="metadata867">
    <rdf:RDF>
      <cc:Work
         rdf:about="">
        <dc:format>image/svg+xml</dc:format>
        <dc:type
           rdf:resource="http://purl.org/dc/dcmitype/StillImage" />
      </cc:Work>
    </rdf:RDF>
  </metadata>
  <defs
     id="defs865" />
  <sodipodi:namedview
     pagecolor="#ffffff"
     bordercolor="#666666"
     borderopacity="1"
     objecttolerance="10"
     gridtolerance="10"
     guidetolerance="10"
     inkscape:pageopacity="0"
     inkscape:pageshadow="2"
     inkscape:window-width="1920"
     inkscape:window-height="1004"
     id="namedview863"
     showgrid="false"
     inkscape:zoom="1.4897119"
     inkscape:cx="7.5849221"
     inkscape:cy="99.744798"
     inkscape:window-x="0"
     inkscape:window-y="0"
     inkscape:window-maximized="1"
     inkscape:current-layer="g859" />
  <g
     fill="none"
     fill-rule="evenodd"
     transform="translate(13 11)"
     id="g859">
    <path
       d="M84.8327771,0.00142365425 C77.7524309,0.0344077472 70.9908588,0.639813898 65.0413715,1.69528427 C47.5149276,4.79960432 44.3328048,11.2972123 44.3328032,23.2799083 L44.3328032,39.1054061 L85.7499398,39.1054061 L85.7499398,44.380572 L44.3328032,44.380572 L28.7893091,44.380572 C16.7523361,44.380572 6.2124179,51.6341161 2.91566635,65.4328397 C-0.887094871,81.24938 -1.055768,91.1191585 2.91566635,107.634167 C5.8597444,119.927301 12.8906015,128.686432 24.9275714,128.686435 L39.1677291,128.686435 L39.1677291,109.715196 C39.1677291,96.0095955 50.9956817,83.9201216 65.0413715,83.9201185 L106.410236,83.9201185 C117.925862,83.9201185 127.118809,74.4141123 127.118805,62.8194548 L127.118805,23.2799083 C127.118805,12.0267285 117.649855,3.57339449 106.410236,1.69528427 C99.295391,0.507877836 91.9131233,-0.0315604387 84.8327771,0.00142365425 Z M62.4346986,12.7295765 C66.7128042,12.7295765 70.2064457,16.2894265 70.2064457,20.6665234 C70.2064426,25.0281057 66.7128042,28.5550743 62.4346986,28.5550743 C58.1412557,28.5550727 54.6629515,25.0281041 54.6629515,20.6665234 C54.66295,16.289428 58.1412557,12.7295765 62.4346986,12.7295765 Z"
       id="path855"
       fill="#98DC9A"
       style="fill:#728dbe;fill-opacity:1" />
    <path
       d="M132.283879,44.380572 L132.283879,62.8194548 C132.283879,77.1148718 120.195257,89.1468869 106.410236,89.1468884 L65.0413715,89.1468884 C53.7097465,89.1468884 44.3328048,98.8702028 44.3328032,110.247552 L44.3328032,149.787094 C44.3328032,161.040275 54.093095,167.659271 65.0413715,170.887758 C78.1517099,174.75264 90.7238379,175.451123 106.410236,170.887758 C116.837168,167.861047 127.118809,161.769778 127.118805,149.787094 L127.118805,133.961601 L85.7499398,133.961601 L85.7499398,128.686435 L127.118805,128.686435 L147.827379,128.686435 C159.864354,128.686435 164.349824,120.268768 168.535932,107.634167 C172.860043,94.6270428 172.676055,82.1185849 168.535932,65.4328397 C165.561189,53.4191037 159.879662,44.380572 147.827379,44.380572 L132.283879,44.380572 Z M109.016909,144.511933 C113.310355,144.511937 116.788656,148.038906 116.788656,152.400479 C116.788653,156.77757 113.310351,160.337426 109.016909,160.337426 C104.738799,160.337426 101.245162,156.77757 101.245162,152.400479 C101.245165,148.038906 104.738794,144.511933 109.016909,144.511933 Z"
       id="path857"
       fill="#F9DE81" />
  </g>
</svg>
