<svg width="192" height="192" fill="none" version="1.1" viewBox="0 0 192 192" xmlns="http://www.w3.org/2000/svg">
 <path d="m46.051 32.029c-0.61784-0.0042-1.2142 0.0065-1.7852 0.02734-4.568 0.16676-7.5508 1.0352-7.5508 1.0352l-15.338 4.3223 10.564 11.932s2.7554 3.0844 5.0332 8.8535c0.9924 2.5135 1.4824 5.989 1.7871 8.9414-8.3337 8.0638-13.762 18.315-13.762 29.859 0 0.06754 0.0055 0.13372 0.0059 0.20117-3.87e-4 0.06745-0.0059 0.13363-0.0059 0.20117 0 11.544 5.4281 21.794 13.762 29.857-0.30474 2.9524-0.79472 6.4279-1.7871 8.9414-2.2778 5.7691-5.0332 8.8535-5.0332 8.8535l-10.564 11.932 15.338 4.3223s11.933 3.4755 24.613-2.1387c8.0218-3.5516 13.906-8.694 17.945-12.557 6.2967 1.1658 12.904 1.7871 19.727 1.7871 19.404 0 37.121-4.9222 50.648-13.588 13.527-8.6657 23.352-21.87 23.352-37.41 0-0.06741-4e-3 -0.13385-4e-3 -0.20117 4.6e-4 -0.067322 4e-3 -0.13376 4e-3 -0.20117 0-15.54-9.8244-28.746-23.352-37.412-13.527-8.6657-31.244-13.588-50.648-13.588-6.8226 0-13.43 0.62132-19.727 1.7871-4.0389-3.8624-9.9235-9.003-17.945-12.555-5.5476-2.4562-10.952-3.174-15.277-3.2031z" style="clip-rule:evenodd;color-rendering:auto;color:#000000;dominant-baseline:auto;fill-rule:evenodd;fill:#ff837d;font-feature-settings:normal;font-variant-alternates:normal;font-variant-caps:normal;font-variant-ligatures:normal;font-variant-numeric:normal;font-variant-position:normal;image-rendering:auto;isolation:auto;mix-blend-mode:normal;shape-padding:0;shape-rendering:auto;solid-color:#000000;text-decoration-color:#000000;text-decoration-line:none;text-decoration-style:solid;text-indent:0;text-orientation:mixed;text-transform:none;white-space:normal"/>
 <path d="m163 97.401c0-22.644-28.654-41-64-41-7.8781 0-15.424 0.9119-22.394 2.5799-2.2667-2.2744-11.322-11.061-19.327-14.606-9.2334-4.0881-17.851-1.659-17.851-1.659s3.9404 4.4502 6.8465 11.811c2.7532 6.9731 2.8981 16.185 2.9057 17.135-8.8697 7.0367-14.181 15.991-14.181 25.74 0 22.644 28.654 41 64 41 35.346 0 64-18.356 64-41z" style="clip-rule:evenodd;fill-rule:evenodd"/>
 <path d="m163 97c0 22.644-28.654 41-64 41-7.8781 0-15.424-0.912-22.394-2.58-2.2667 2.274-11.322 11.061-19.327 14.606-9.2334 4.088-17.851 1.659-17.851 1.659s3.9404-4.45 6.8465-11.811c2.7532-6.973 2.8981-16.184 2.9057-17.135-8.8697-7.036-14.181-15.99-14.181-25.739 0-22.644 28.654-41 64-41 35.346 0 64 18.356 64 41z" style="clip-rule:evenodd;fill-rule:evenodd"/>
 <path d="m163 97c0 22.644-28.654 41-64 41-7.8781 0-15.424-0.912-22.394-2.58-2.2667 2.274-11.322 11.061-19.327 14.606-9.2334 4.088-17.851 1.659-17.851 1.659s3.9404-4.45 6.8465-11.811c2.7532-6.973 2.8981-16.184 2.9057-17.135-8.8697-7.036-14.181-15.99-14.181-25.739 0-22.644 28.654-41 64-41 35.346 0 64 18.356 64 41z" clip-rule="evenodd" fill="#fff" fill-rule="evenodd"/>
 <path d="m68.895 106.84c4.386 0 8.1141-3.618 8.1141-8.0043 0-4.386-3.7281-8.0044-8.1141-8.0044-4.2763 0-7.8947 3.6184-7.8947 8.0044 0 4.3863 3.6184 8.0043 7.8947 8.0043zm29.496 0c4.3857 0 8.1137-3.618 8.1137-8.0043 0-4.386-3.728-8.0044-8.1137-8.0044-4.2763 0-7.8947 3.6184-7.8947 8.0044 0 4.3863 3.6184 8.0043 7.8947 8.0043zm29.496 0c4.386 0 8.114-3.618 8.114-8.0043 0-4.386-3.728-8.0044-8.114-8.0044-4.276 0-7.895 3.6184-7.895 8.0044 0 4.3863 3.619 8.0043 7.895 8.0043z" clip-rule="evenodd" fill="#FF837D" fill-rule="evenodd"/>
</svg>
