<svg width="192" height="192" version="1.1" viewBox="0 0 192 192" xmlns="http://www.w3.org/2000/svg">
 <g fill="none" fill-rule="evenodd">
  <rect x="20" y="20" width="152" height="152" rx="10" fill="#FFF"/>
  <path transform="matrix(-1 0 0 1 268 0)" d="m96 30.003c0-5.5242 4.4704-10.003 9.9943-10.003h66.006v152h-66.006c-5.5197 0-9.9943-4.477-9.9943-10.003v-131.99z" fill="#96DFD3" opacity=".499"/>
  <g transform="translate(74 64)">
   <path d="m6.9062 35.935h32.453v-17.21c0-8.9583-7.2662-16.225-16.227-16.225-8.9632 0-16.227 7.2633-16.227 16.225v17.21z" stroke="#4A4A4A" stroke-width="5"/>
   <path d="m0 30.699c0-5.5246 4.4853-10.003 9.9962-10.003h27.008c5.5208 0 9.9962 4.4716 9.9962 10.003v27.298c0 5.5246-4.4853 10.003-9.9962 10.003h-27.008c-5.5208 0-9.9962-4.4716-9.9962-10.003v-27.298z" fill="#99CDCD"/>
   <path d="m0 44.348h47v13.656c0 5.5208-4.4853 9.9964-9.9962 9.9964h-27.008c-5.5208 0-9.9962-4.4766-9.9962-9.9964v-13.656z" fill="#73ADA4"/>
   <path d="m22.766 36.217c2.8391 0 5.1406 2.3164 5.1406 5.1739 0 1.758-0.87114 3.3112-2.2027 4.2462l-4.649e-4 7.5799h-5.875l5.504e-4 -7.5792c-1.3321-0.93492-2.2037-2.4885-2.2037-4.2469 0-2.8575 2.3015-5.1739 5.1406-5.1739z" fill="#4A4A4A"/>
  </g>
 </g>
</svg>
