<svg xmlns="http://www.w3.org/2000/svg" width="192" height="192" viewBox="0 0 192 192">
  <g fill="none" fill-rule="evenodd">
    <rect width="152" height="152" x="20" y="20" fill="#FFF" rx="10"/>
    <path fill="#96DFD3" d="M96,30.0025173 C96,24.4782795 100.47041,20 105.994264,20 L172,20 L172,172 L105.994264,172 C100.474585,172 96,167.522997 96,161.997483 L96,30.0025173 Z" opacity=".499" transform="matrix(-1 0 0 1 268 0)"/>
    <g transform="translate(74 64)">
      <path stroke="#4A4A4A" stroke-width="5" d="M6.90625,35.9347826 L39.359375,35.9347826 L39.359375,18.7248059 C39.359375,9.76655533 32.0931568,2.5 23.1328125,2.5 C14.1696353,2.5 6.90625,9.76331323 6.90625,18.7248059 L6.90625,35.9347826 Z"/>
      <path fill="#99CDCD" d="M0,30.6987728 C0,25.1742018 4.48526725,20.6956522 9.99624735,20.6956522 L37.0037527,20.6956522 C42.5245276,20.6956522 47,25.1672329 47,30.6987728 L47,57.9968794 C47,63.5214504 42.5147327,68 37.0037527,68 L9.99624735,68 C4.47547238,68 0,63.5284193 0,57.9968794 L0,30.6987728 Z"/>
      <path fill="#73ADA4" d="M0,44.3478261 L47,44.3478261 L47,58.0036314 C47,63.5244733 42.5147327,68 37.0037527,68 L9.99624735,68 C4.47547238,68 0,63.5234007 0,58.0036314 L0,44.3478261 Z"/>
      <path fill="#4A4A4A" d="M22.765625,36.2173913 C25.6047138,36.2173913 27.90625,38.5338311 27.90625,41.3913043 C27.90625,43.1493027 27.0351051,44.7025167 25.7035899,45.637512 L25.703125,53.2173913 L19.828125,53.2173913 L19.8286754,45.6382247 C18.4965877,44.7033061 17.625,43.1497494 17.625,41.3913043 C17.625,38.5338311 19.9265362,36.2173913 22.765625,36.2173913 Z"/>
    </g>
  </g>
</svg>
