<svg xmlns="http://www.w3.org/2000/svg" xmlns:xlink="http://www.w3.org/1999/xlink" width="192" height="192" viewBox="0 0 192 192">
  <defs>
    <path id="boot_manager-a" d="M136.433397,78.0901679 C136.433397,76.2332513 136.433397,58.0312976 136.433397,55.6504645 L136.433397,8.97720102 C136.433397,4.01773328 132.413746,0 127.455256,0 L8.97814087,0 C4.01850517,0 -2.72848411e-12,4.02219392 -2.72848411e-12,8.98382157 L-2.72848411e-12,55.6504645 C-2.72848411e-12,58.1037532 -2.79429141e-13,76.295093 -2.79429141e-13,78.0901679 C-2.79429141e-13,101.272227 11.5634946,121.753487 29.2371247,134.080589 C39.8592405,141.9469 52.9906739,146.278707 67.9822497,146.306866 C105.914244,146.284358 136.433397,115.751328 136.433397,78.0901679 Z"/>
  </defs>
  <g fill="none" fill-rule="evenodd">
    <g transform="translate(27.783 24.347)">
      <mask id="boot_manager-b" fill="#fff">
        <use xlink:href="#boot_manager-a"/>
      </mask>
      <use fill="#9ABEFF" xlink:href="#boot_manager-a"/>
      <rect width="59.241" height="62.831" x="68.217" y="8.976" fill="#FF837D" mask="url(#boot_manager-b)"/>
      <path fill="#FF837D" d="M8.97588137,71.8070509 L68.2166984,71.8070509 L68.2166984,139.990663 C68.2166984,139.990663 34.5293424,134.565562 20.9797089,118.970522 C7.4300754,103.375481 8.97588137,71.8070509 8.97588137,71.8070509 Z" mask="url(#boot_manager-b)"/>
      <path stroke="#83868C" stroke-width="10" d="M131.433397,78.0901679 C131.433397,76.873639 131.433397,76.873639 131.433397,74.1024708 C131.433397,70.8094233 131.433397,70.8094233 131.433397,66.9834976 C131.433397,66.9010082 131.433397,66.9010082 131.433397,66.8185137 C131.433397,63.0696305 131.433397,63.0696305 131.433397,59.7991827 C131.433397,57.0071704 131.433397,57.0071704 131.433397,55.6504645 L131.433397,8.97720102 C131.433397,6.77991998 129.653085,5 127.455256,5 L8.97814087,5 C6.78113145,5 5,6.78241549 5,8.98382157 L5,55.6504645 C5,57.0234761 5,57.0234761 5,59.8121055 C5,63.0726075 5,63.0726075 5,66.8049821 C5,66.9610815 5,66.9610815 5,67.1171464 C5,70.9160221 5,70.9160221 5,74.1716607 C5,76.9046315 5,76.9046315 5,78.0901679 C5,99.024153 15.2442194,118.224663 32.0975118,129.979591 L32.2127928,130.062455 C42.1275876,137.404953 54.2715886,141.281104 67.9792827,141.306867 C103.113105,141.286019 131.433397,113.028844 131.433397,78.0901679 Z"/>
    </g>
    <line x1="96.5" x2="96.5" y1="31.078" y2="164.831" stroke="#83868C" stroke-linecap="square" stroke-width="5"/>
    <line x1="160.178" x2="32.72" y1="96.5" y2="96.5" stroke="#83868C" stroke-linecap="square" stroke-width="5"/>
  </g>
</svg>
