<svg width="192" height="192" version="1.1" viewBox="0 0 192 192" xmlns="http://www.w3.org/2000/svg">
 <path d="M96.5 184C144.825 184 184 144.825 184 96.5C184 48.1751 144.825 9 96.5 9C48.1751 9 9 48.1751 9 96.5C9 144.825 48.1751 184 96.5 184Z" clip-rule="evenodd" fill="#fff" fill-rule="evenodd"/>
 <path d="m123.1 93.115c5.192 2.707 9.916 5.5048 13.537 9.4291 6.596 7.146 10.712 16.467 9.914 29.982 1.631-1.581 3.114-3.78 4.349-6.046 3.594-6.577 8.652-21.252 7.498-34.818-4.259-34.015-32.034-58.178-63.107-57.061-18.412 1.3131-20.767 15.062-21.037 18.378-1.143 14.223 9.0522 19.403 18.619 24.421 9.913 5.1953 20.148 10.466 30.227 15.715zm-51.42 3.5318c-5.4285-2.8301-10.367-5.755-14.153-9.8577-6.8954-7.4705-11.198-17.216-10.364-31.345-1.7055 1.6523-3.2556 3.9517-4.547 6.3201-3.7576 6.8767-9.0457 22.219-7.8387 36.401 4.4522 35.561 33.49 60.823 65.975 59.655 19.249-1.373 21.711-15.746 21.993-19.213 1.195-14.869-9.463-20.285-19.465-25.531-10.364-5.431-21.064-10.942-31.601-16.429z" clip-rule="evenodd" fill="#9ABEFF" fill-rule="evenodd"/>
</svg>
