<svg width="192" height="192" version="1.1" viewBox="0 0 192 192" xmlns="http://www.w3.org/2000/svg">
 <path d="m9.0104 111.11c0.31788-2.9233 13.318-3.2706 23.79-14.755 5.8204 2.5988 7.8156 14.269 3.3732 18.844-6.7376 3.1959-27.711 0.94904-27.163-4.0888z" style="fill:#54688c;stroke-width:4.004"/>
 <path d="m31.38 108.98s-0.71016-4.0728-0.71016-7.4664c0-1.6969 1.0652-4.9776 1.0652-4.9776s-4.2044-10.304-3.5507-16c1.095-9.5436 7.1016-11.378 7.1016-11.378s-6.1116-30.428 0.35507-33.066c3.4583-1.4107 17.398 12.8 17.398 12.8s19.627-25.112 46.868-24.889c40.628 0.3324 61.428 19.555 61.428 19.555s-24.019 1.4828-29.116 7.4664c52.328 7.9728 50.776 94.932 50.776 94.932s-14.014-27.744-46.16-39.111c30.865 19.09 18.109 61.156 18.109 61.156s-18.297-45.148-55.036-54.756c-5.5948 3.0214-12.782 5.3332-12.782 5.3332l-45.804 4.2668s-5.9992-0.032-8.5216-1.4222c-2.6451-1.457-6.5676-3.7811-6.0364-6.7556 0.40088-2.2441 4.616-5.6888 4.616-5.6888z" style="fill:#728dbe;stroke-width:4.004"/>
 <path d="m57.832 129.42s-7.41-0.96572-10.652-2.6666c-3.4173-1.7929-7.6912-3.9154-8.6992-7.6444-0.0978-0.3616-0.01616-1.1144 0.35507-1.0666 4.8272 0.62036 13.291 6.0516 15.978 1.4222 2.4492-4.2196-27.928-23.471-15.978-38.933 7.0004-9.0584 21.659 16 21.659 16l6.3912 19.733z" style="fill:#fff;stroke-width:4.004"/>
 <path d="m45.712 120.08a5.0232 2.4505 29.496 0 0-8e-3 0.016 5.0232 2.4505 29.496 0 0 3.1719 4.6016 5.0232 2.4505 29.496 0 0 5.5704 0.336 5.0232 2.4505 29.496 0 0-2.1016-3.9062c-1.8396 0.3868-4.2112-0.232-6.6328-1.0469z" style="fill:#98dc9a;paint-order:stroke fill markers;stroke-linecap:round;stroke-linejoin:round;stroke-width:.80084"/>
 <ellipse transform="matrix(.67004 -.74233 .74143 .67103 0 0)" cx="-36.908" cy="110.54" rx="3.5177" ry="9.9864" style="fill:#98dc9a;paint-order:stroke fill markers;stroke-linecap:round;stroke-linejoin:round;stroke-width:.80084"/>
 <ellipse transform="matrix(.91096 .41249 -.33764 .94128 0 0)" cx="89.228" cy="91.316" rx="3.3144" ry="1.2261" style="fill:#56595b;paint-order:stroke fill markers;stroke-linecap:round;stroke-linejoin:round;stroke-width:.76804"/>
 <path d="m53.04 125.51c-0.77608-5.5176 9.9612-8.5404 10.83-14.044 0.75504-4.7848-4.698-9.2984-3.7282-14.044 1.3098-6.4108 5.5436-15.739 12.072-15.466 12.3 0.51404 20.579 17.488 18.819 29.688-1.5427 10.694-13.2 19.91-23.967 20.622-5.1268 0.3388-13.118-0.3044-14.025-6.7556z" style="fill:#fdc394;stroke-width:4.004"/>
 <path d="m70.792 112.71s6.1756-10.36 7.1016-16.178c0.54572-3.429-1.3716-5.8464-3.7282-6.0444-6.4988-0.54548-9.0544 6.5776-9.0544 6.5776s3.0519-1.4402 4.0832-0.53332c4.2376 3.7259 1.5978 16.178 1.5978 16.178z" style="fill:#fff;stroke-width:4.004"/>
 <path d="m63.724 38.449c-6.664 5.4732-10.684 10.44-10.684 10.44s3.47 3.6626 7.4716 7.6696c0-8.6572 2.0506-15.105 3.2121-18.109z" style="fill:#54688c;stroke-width:4.004"/>
 <ellipse transform="matrix(.68931 -.72447 .72354 .69029 0 0)" cx="-33.791" cy="112.51" rx="1.6331" ry="4.8992" style="fill:#56595b;paint-order:stroke fill markers;stroke-linecap:round;stroke-linejoin:round;stroke-width:.80084"/>
 <ellipse transform="matrix(.69538 -.71864 .7177 .69636 0 0)" cx="-32.988" cy="110.83" rx=".87936" ry="2.2611" style="fill:#fff;paint-order:stroke fill markers;stroke-linecap:round;stroke-linejoin:round;stroke-width:.80084"/>
 <ellipse transform="matrix(.90865 .41755 -.41662 .90908 0 0)" cx="96.5" cy="90.576" rx="1.5068" ry=".6284" style="fill:#fff;paint-order:stroke fill markers;stroke-linecap:round;stroke-linejoin:round;stroke-width:.75088"/>
 <path d="m74.008 94.688c-0.5698 0.0592-1.0316 0.1488-1.0316 0.1488a0.4016 0.40216 0 1 0 0.14848 0.7904s0.42668-0.0852 0.96128-0.1408 1.1904-0.0696 1.5084 8e-3c0.50084 0.1216 1.3131 0.57704 1.9617 1.0017 0.16792 0.11 0.15508 0.1124 0.297 0.2112 0.0092-0.0536 0.0308-0.1192 0.0392-0.172 0.04056-0.2548 0.04052-0.49236 0.05468-0.73564-0.66964-0.43676-1.4598-0.91664-2.1649-1.0878-0.537-0.1304-1.2043-0.0824-1.7741-0.024zm-0.12504 3.5373a0.4002 0.40072 0 0 0 8e-3 0.79824s0.39236 0.04 0.85968 0.1172c0.46736 0.0784 1.0201 0.214 1.2426 0.3364 0.22012 0.1208 0.57408 0.45988 0.85188 0.76696 0.09632-0.2696 0.20264-0.54256 0.2892-0.80608-0.2398-0.2444-0.47264-0.50828-0.75808-0.6652-0.42688-0.2348-0.99264-0.3388-1.4927-0.4226-0.50012-0.084-0.9222-0.1252-0.9222-0.1252a0.4002 0.40072 0 0 0-0.07816 0zm0.12504 2.6374a0.4002 0.40072 0 0 0-0.17976 0.73564s0.30796 0.2028 0.65648 0.4852 0.7322 0.66604 0.84404 0.87652c0.0486 0.0916 0.09404 0.3664 0.13284 0.61044 0.16336-0.3668 0.33728-0.71168 0.49236-1.08-0.24444-0.3956-0.6124-0.74252-0.96128-1.0252-0.38052-0.3084-0.719-0.53216-0.719-0.53216a0.4002 0.40072 0 0 0-0.26572-0.0704z" style="color-rendering:auto;color:#000000;dominant-baseline:auto;font-feature-settings:normal;font-variant-alternates:normal;font-variant-caps:normal;font-variant-ligatures:normal;font-variant-numeric:normal;font-variant-position:normal;image-rendering:auto;isolation:auto;mix-blend-mode:normal;opacity:.25;shape-padding:0;shape-rendering:auto;solid-color:#000000;stroke-width:4;text-decoration-color:#000000;text-decoration-line:none;text-decoration-style:solid;text-indent:0;text-orientation:mixed;text-transform:none;white-space:normal"/>
 <path d="m40.16 68.328s-3.2393-8.1228-3.1384-21.873c6.568 6.5656 8.3792 8.7228 17.701 16.216-8.9944 2.1072-14.562 5.6568-14.562 5.6568z" style="fill:#fdc394;stroke-width:4.004"/>
 <path d="m40.256 132.98c-0.7176-1.7533 2.2548-2.4836 3.9058-3.0222 3.2508-1.0606 2.1944-0.88424 3.9946-1.6 2.5104-0.99812 4.342-1.9962 7.3676-3.3778 0.62448-0.2852 1.6134-0.2704 2.0416 0.2668 0.5934 0.74416 0.19676 2.0126-0.26628 2.8444-1.5531 2.7899-4.6012 4.788-7.634 5.7776-4.2736 1.3948-8.2148 2.0302-9.4092-0.88888z" style="fill:#56595b;stroke-width:4.004"/>
 <ellipse transform="matrix(.92537 -.37907 .37819 .92573 0 0)" cx="-7.1476" cy="138.37" rx="2.5304" ry=".84428" style="fill:#fff;paint-order:stroke fill markers;stroke-width:4.004"/>
 <path d="m37.018 46.456c-0.10089 13.75 3.1418 21.874 3.1418 21.874s-1.7659-15.095-0.62524-15.84c1.2782-0.83448 3.5271 0.41 4.6656 1.0956-2.1972-2.0989-4.1668-4.1152-7.1824-7.1296z" style="fill:#eda56e;stroke-width:4.004"/>
 <path d="m149.96 41.564c-7.172-0.234-17.319 1.0562-29.214 7.1528 7.7832-0.1728 11.465 2.3086 11.465 2.3086 5.0972-5.9836 29.12-7.466 29.12-7.466s-4.1992-1.7616-11.371-1.9956z" style="fill:#54688c;stroke-width:4.004"/>
 <path d="m128.54 100.64c4.0016 4.0068 8.3 6.214 8.3 6.214 32.145 11.366 46.156 39.106 46.156 39.106s-6.44-37.306-54.456-45.32zm-22.666 8.7856c-3.1141 2.9421-5.9616 3.8252-5.9616 3.8252l1.68 0.49768c35.608 10.523 53.356 54.256 53.356 54.256s-17.062-46.56-49.072-58.58z" style="fill:#54688c;stroke-width:4.004"/>
 <path d="m35.286 69.156c12.714-3.1472 21.224 7.4364 21.224 7.4364s-5.4336-12.584-7.4236-12.098c-5.086 1.2423-8.5824 1.9675-13.8 4.662z" style="fill:#54688c;stroke-width:4.004"/>
 <style type="text/css">.st0{fill:#FFFFFF;}</style>
 <style type="text/css">.st0{fill:#FFFFFF;}</style>
</svg>
