<svg width="192" height="192" version="1.1" viewBox="0 0 192 192" xmlns="http://www.w3.org/2000/svg">
 <rect x="20" y="20" width="152" height="152" rx="10" fill="#F8C18C"/>
 <path d="m67.788 118h42.757v-29.88c-0.123 0.0682-0.245 0.1379-0.366 0.2093-3.096-8.3682-11.112-14.33-20.512-14.33-12.083 0-21.879 9.8497-21.879 22 0 0.7824 0.0406 1.5552 0.1198 2.3165-0.0399-5e-4 -0.0798-7e-4 -0.1198-7e-4 -5.4057 0-9.7879 4.4062-9.7879 9.8422s4.3822 9.842 9.7879 9.842zm46.212-31.285v31.285h2.545v-31.76c-0.871 0.0891-1.721 0.2493-2.545 0.4746zm20 15.364c0 2.814-0.726 5.457-2 7.751v-15.502c1.274 2.2939 2 4.9373 2 7.7514zm-8 13.839c0.909-0.521 1.761-1.13 2.545-1.815v-24.048c-0.784-0.6854-1.636-1.2944-2.545-1.8155v27.678zm-3.455 1.465c-0.823 0.238-1.673 0.41-2.545 0.511v-31.63c0.872 0.1011 1.722 0.2734 2.545 0.5111v30.608z" clip-rule="evenodd" fill="#fff" fill-rule="evenodd"/>
</svg>
