<svg width="192" height="192" version="1.1" viewBox="0 0 192 192" xmlns="http://www.w3.org/2000/svg" xmlns:xlink="http://www.w3.org/1999/xlink">
 <circle cx="96" cy="96" r="87" style="fill:#56595b;paint-order:stroke fill markers;stroke-width:2.2883"/>
 <path d="m119.79 55.252a28.951 29.088 57 0 0-16.529 4.7031 28.951 29.088 57 0 0-12.938 20.213l-19.969 17.859a22.27 22.375 57 0 0-17.014 2.3555l-36.521-14.756c-2.3002-0.92934-4.7014-1.1805-6.9941-0.86523a87 87 0 0 0-0.82031 11.238 87 87 0 0 0 1.6992 16.719l32.449 13.111a22.27 22.375 57 0 0 2.6895 5.9336 22.27 22.375 57 0 0 30.895 6.4902 22.27 22.375 57 0 0 9.7773-14.506l25.402-11.41a28.951 29.088 57 0 0 22.879-3.8223 28.951 29.088 57 0 0 8.6289-40.123 28.951 29.088 57 0 0-23.635-13.141zm-0.05469 11.805c5.5576 0.093602 10.973 2.8435 14.209 7.8262 5.1773 7.9723 2.8612 18.715-5.1328 23.906-7.994 5.1914-18.747 2.9352-23.924-5.0371-5.1773-7.9723-2.8651-18.713 5.1289-23.904 2.9978-1.9468 6.3842-2.8472 9.7188-2.791zm-0.06641 4.9727c-2.3668-0.035001-4.7758 0.61424-6.9277 2.0117-5.7385 3.7266-7.3588 11.293-3.6602 16.988s11.269 7.293 17.008 3.5664c5.7385-3.7266 7.3607-11.295 3.6621-16.99-2.3116-3.5596-6.1374-5.5178-10.082-5.5762zm-54.354 30.369c5.5576 0.0936 10.973 2.8415 14.209 7.8242 5.1773 7.9723 2.8612 18.715-5.1328 23.906-7.994 5.1914-18.748 2.9372-23.926-5.0352-0.0858-0.13212-0.15268-0.27069-0.23438-0.4043l9.3535 3.7793c7.0227 2.8373 15.014-0.55087 17.85-7.5703 2.8354-7.0179-0.55669-15.005-7.582-17.844l-9.752-3.9395c1.7107-0.50715 3.4694-0.74619 5.2148-0.71679z" style="fill-rule:evenodd;fill:#fff"/>
</svg>
