<?xml version="1.0" encoding="UTF-8" standalone="no"?>
<svg
   xmlns:dc="http://purl.org/dc/elements/1.1/"
   xmlns:cc="http://creativecommons.org/ns#"
   xmlns:rdf="http://www.w3.org/1999/02/22-rdf-syntax-ns#"
   xmlns:svg="http://www.w3.org/2000/svg"
   xmlns="http://www.w3.org/2000/svg"
   xmlns:xlink="http://www.w3.org/1999/xlink"
   xmlns:sodipodi="http://sodipodi.sourceforge.net/DTD/sodipodi-0.dtd"
   xmlns:inkscape="http://www.inkscape.org/namespaces/inkscape"
   width="192"
   height="192"
   viewBox="0 0 192 192"
   version="1.1"
   id="svg28"
   sodipodi:docname="steam.svg"
   inkscape:version="0.92.5 (2060ec1f9f, 2020-04-08)">
  <metadata
     id="metadata32">
    <rdf:RDF>
      <cc:Work
         rdf:about="">
        <dc:format>image/svg+xml</dc:format>
        <dc:type
           rdf:resource="http://purl.org/dc/dcmitype/StillImage" />
        <dc:title></dc:title>
      </cc:Work>
    </rdf:RDF>
  </metadata>
  <sodipodi:namedview
     pagecolor="#ffffff"
     bordercolor="#666666"
     borderopacity="1"
     objecttolerance="10"
     gridtolerance="10"
     guidetolerance="10"
     inkscape:pageopacity="0"
     inkscape:pageshadow="2"
     inkscape:window-width="1280"
     inkscape:window-height="745"
     id="namedview30"
     showgrid="false"
     inkscape:zoom="1.7383042"
     inkscape:cx="76.449725"
     inkscape:cy="120.40678"
     inkscape:window-x="-12"
     inkscape:window-y="-2"
     inkscape:window-maximized="1"
     inkscape:current-layer="svg28" />
  <defs
     id="defs3">
    <circle
       id="steam-a"
       cx="96"
       cy="96"
       r="87" />
    <mask
       fill="#fff"
       id="steam-b">
      <use
         id="use5"
         xlink:href="#steam-a" />
    </mask>
  </defs>
  <circle
     style="opacity:1;vector-effect:none;fill:#56595b;fill-opacity:1;stroke-width:2.2882514;paint-order:stroke fill markers"
     id="path902"
     cx="96"
     cy="96"
     r="87" />
  <path
     style="fill:#ffffff;fill-rule:evenodd"
     d="M 119.78516 55.251953 A 28.951 29.087999 57 0 0 103.25586 59.955078 A 28.951 29.087999 57 0 0 90.318359 80.167969 L 70.349609 98.027344 A 22.27 22.375 57 0 0 53.335938 100.38281 L 16.814453 85.626953 C 14.514264 84.697616 12.11309 84.44645 9.8203125 84.761719 A 87 87 0 0 0 9 96 A 87 87 0 0 0 10.699219 112.71875 L 43.148438 125.83008 A 22.27 22.375 57 0 0 45.837891 131.76367 A 22.27 22.375 57 0 0 76.732422 138.25391 A 22.27 22.375 57 0 0 86.509766 123.74805 L 111.91211 112.33789 A 28.951 29.087999 57 0 0 134.79102 108.51562 A 28.951 29.087999 57 0 0 143.41992 68.392578 A 28.951 29.087999 57 0 0 119.78516 55.251953 z M 119.73047 67.056641 C 125.28809 67.150243 130.70364 69.900103 133.93945 74.882812 C 139.11674 82.855148 136.80067 93.597678 128.80664 98.789062 C 120.81261 103.98045 110.06011 101.72429 104.88281 93.751953 C 99.705527 85.779618 102.01769 75.03904 110.01172 69.847656 C 113.00948 67.900887 116.39589 67.000479 119.73047 67.056641 z M 119.66406 72.029297 C 117.29726 71.994296 114.88825 72.643537 112.73633 74.041016 C 106.99785 77.767626 105.37758 85.333969 109.07617 91.029297 C 112.77476 96.724625 120.34551 98.322314 126.08398 94.595703 C 131.82246 90.869093 133.44468 83.300797 129.74609 77.605469 C 127.43448 74.045889 123.60874 72.087631 119.66406 72.029297 z M 65.310547 102.39844 C 70.86817 102.49204 76.283722 105.23995 79.519531 110.22266 C 84.696826 118.195 82.380751 128.93753 74.386719 134.12891 C 66.392688 139.3203 55.638233 137.06609 50.460938 129.09375 C 50.375138 128.96163 50.308255 128.82306 50.226562 128.68945 L 59.580078 132.46875 C 66.602748 135.30609 74.593647 131.91788 77.429688 124.89844 C 80.265105 117.88053 76.872999 109.89312 69.847656 107.05469 L 60.095703 103.11523 C 61.806401 102.60808 63.565081 102.36904 65.310547 102.39844 z "
     id="polygon10" />
</svg>
