<svg width="192" height="192" version="1.1" viewBox="0 0 192 192" xmlns="http://www.w3.org/2000/svg">
 <path d="m124 94h14v6.49c0 7.732-6.268 14-14 14v-20.49z" fill="#fff"/>
 <path d="m161.75 56.377c0 7.94-6.436 14.377-14.376 14.377s-14.377-6.4366-14.377-14.377 6.437-14.377 14.377-14.377 14.376 6.4366 14.376 14.377zm-30.753 24.39c-2.761 0-5 2.2386-5 5v37.111c0 12.426 10.074 22.5 22.5 22.5s22.5-10.074 22.5-22.5v-37.111c0-2.7614-2.239-5-5-5h-35z" clip-rule="evenodd" fill="#54688C" fill-rule="evenodd" style="fill:#728DBE"/>
 <path d="m122 50.5c0 11.322-9.178 20.5-20.5 20.5-11.322 0-20.5-9.1782-20.5-20.5s9.1782-20.5 20.5-20.5c11.322 0 20.5 9.1782 20.5 20.5zm-48 30.5c-5.5228 0-10 4.4771-10 10v36.5c0 21.263 17.237 38.5 38.5 38.5s38.5-17.237 38.5-38.5v-36.5c0-5.5228-4.477-10-10-10h-57z" clip-rule="evenodd" fill="#9ABEFF" fill-rule="evenodd"/>
 <path d="m97 129.77c0 3.5-2.8438 6.234-6.2344 6.234h-64.531c-3.5 0-6.2344-2.844-6.2344-6.234v-64.532c0-3.5 2.8437-6.2344 6.2344-6.2344h64.531c3.5 0 6.2344 2.8437 6.2344 6.2344v64.532z" fill="#54688C" style="fill:#728DBE"/>
 <path d="M75.32 73H40.6V82.36H52.76V121H63.24V82.36H75.32V73Z" fill="#fff"/>
</svg>
