<svg width="192" height="192" fill="none" version="1.1" viewBox="0 0 192 192" xmlns="http://www.w3.org/2000/svg">
 <path d="M96.5 184C144.825 184 184 144.825 184 96.5C184 48.1751 144.825 9 96.5 9C48.1751 9 9 48.1751 9 96.5C9 144.825 48.1751 184 96.5 184Z" clip-rule="evenodd" fill="#9ABEFF" fill-rule="evenodd"/>
 <path d="m62.439 86.65c20.737-7.1736 51.109-17.962 56.315-19.846 5.7584-2.0837 9.9017-0.39308 7.5504 6.7955-7.5812 23.178-11.025 33.809-19.762 57.951-2.6324 7.2733-7.3384 7.2909-11.413-0.63998-5.7444-11.181-9.0793-19.798-11.445-21.513-3.0031-2.1773-16.721-8.2072-21.925-11.04-6.5591-3.5709-6.7915-9.1232 0.67994-11.708z" style="fill:#fff"/>
</svg>
