<svg width="192" height="192" fill="none" version="1.1" viewBox="0 0 192 192" xmlns="http://www.w3.org/2000/svg">
 <g clip-rule="evenodd" fill-rule="evenodd">
  <path d="m98 12h30v0.1655s3.182 21.428 13.813 29.632c10.632 8.203 25.187 8.203 25.187 8.203v30s-13.321-0.1887-21.633-2.8603c-8.311-2.6716-17.367-9.6397-17.367-9.6397v55.5c0 28.719-23.281 52-52 52-28.719 0-52-23.281-52-52 0-28.719 23.281-52 52-52 2.7205 0 5.3922 0.2089 8 0.6116v30.888c-2.4795-0.969-5.1777-1.5-8-1.5-12.15 0-22 9.85-22 22s9.8497 22 22 22c11.476 0 20.9-8.787 21.91-20h0.0897v-113z" fill="#96DFD3"/>
  <path d="m105 19h30v0.1655s3.182 21.428 13.813 29.632c10.632 8.203 25.187 8.203 25.187 8.203v30s-13.321-0.1887-21.633-2.8603c-8.311-2.6716-17.367-9.6397-17.367-9.6397v55.5c0 28.719-23.281 52-52 52-28.719 0-52-23.281-52-52s23.281-52 52-52c2.7205 0 5.3922 0.2089 8 0.6116v30.888c-2.4795-0.969-5.1777-1.5-8-1.5-12.15 0-22 9.85-22 22s9.8497 22 22 22c11.476 0 20.9-8.787 21.91-20h0.09v-113z" fill="#FF837D"/>
  <path d="m84 78.009v24.491c-2.4795-0.969-5.1777-1.5-8-1.5-12.15 0-22 9.85-22 22 0 7.868 4.13 14.771 10.34 18.66 3.8887 6.21 10.792 10.34 18.66 10.34 11.476 0 20.9-8.787 21.91-20h0.09v-113h24.467c1.832 7.0013 5.581 17.577 12.346 22.797 0.603 0.4653 1.219 0.9042 1.844 1.3183 1.483 2.1996 3.192 4.1663 5.156 5.6817 5.908 4.5581 13.027 6.5834 18.187 7.4834v23.72s-13.321-0.1887-21.633-2.8603c-8.311-2.6716-17.367-9.6397-17.367-9.6397v55.5c0 28.719-23.281 52-52 52-12.577 0-24.111-4.465-33.104-11.896-7.4314-8.993-11.896-20.527-11.896-33.104 0-28.719 23.281-52 52-52 0.3341 0 0.6674 0.0032 1 0.0094z" fill="#fff"/>
 </g>
</svg>
