<svg width="192" height="192" version="1.1" viewBox="0 0 192 192" xmlns="http://www.w3.org/2000/svg">
 <path d="m96 183c48.049 0 87-38.951 87-87 0-48.049-38.951-87-87-87-48.049 0-87 38.951-87 87 0 48.049 38.951 87 87 87z" clip-rule="evenodd" fill="#FF837D" fill-rule="evenodd"/>
 <path d="m65.182 93c2.6649-8.3679 9.542-16.13 14.968-19.176 0 6.0436 3.2769 12.419 3.2769 12.419s10.79-3.8901 13.001-12.419c2.3301-8.9864 2.2115-12.109 2.2115-17.823 11.99 3.8151 23.589 20.392 26.09 25.506 9.719 19.876 0.982 49.91-29.416 49.91-30.398 0-33.77-26.993-30.132-38.416z" clip-rule="evenodd" fill="#fff" fill-rule="evenodd"/>
</svg>
