<svg width="192" height="192" version="1.1" viewBox="0 0 192 192" xmlns="http://www.w3.org/2000/svg">
 <g fill-rule="evenodd">
  <rect x="20" y="20" width="152" height="152" rx="10" fill="#9ABEFF"/>
  <circle cx="116" cy="80" r="20" fill="#F9DE81"/>
  <path d="m120.53 126.99c8.0301-0.21042 14.474-6.705 14.474-14.686 0-8.1137-6.6603-14.691-14.876-14.691-0.14466 0-0.28884 0.0020391-0.43251 0.0060898 0.020215-0.39657 0.030444-0.79574 0.030444-1.1973 0-12.938-10.621-23.426-23.722-23.426-11.63 0-21.305 8.265-23.331 19.172-8.8181 0.9909-15.669 8.3842-15.669 17.358 0 9.6487 7.9204 17.471 17.691 17.471h45.835v-0.005262z" fill="#FFF"/>
 </g>
</svg>
