<svg xmlns="http://www.w3.org/2000/svg" width="192" height="192" viewBox="0 0 192 192">
  <g fill="none" transform="translate(8 8)">
    <path fill="#72DC98" d="M88.0988764,0.395505618 C40.0449438,0.296629213 1.18651685,38.9573034 0.395505618,86.3191011 C-0.494382022,134.274157 38.7595506,174.61573 87.2089888,175.604494 C133.680899,176.593258 183.119101,133.582022 174.813483,75.4426966 C169.375281,37.6719101 134.768539,-0.395505618 88.0988764,0.395505618 Z"/>
    <g fill="#FFF" transform="translate(39 49.46)">
      <path d="M8.61695192,29.5393258 C5.69193154,25.5724851 2.84596577,21.7675563 0,17.8816715 C22.0562347,-2.60017962 66.3268134,-7.61944747 97,17.5578477 C94.1540342,21.4437325 91.2290139,25.4105733 88.2249389,29.5393258 C61.7416463,11.6480646 35.4164629,11.4861528 8.61695192,29.5393258 Z"/>
      <path d="M80 40.5049446C76.8221942 44.7011434 73.8827238 48.5806478 70.7843632 52.5393258 55.8486759 42.8009779 40.9924338 42.8009779 26.1361917 52.5393258 23.037831 48.4223007 20.0189155 44.3844491 17 40.4257711 32.1740227 25.857836 65.6204288 25.9370095 80 40.5049446zM48.8796562 82.5393258C43.9856734 76.048113 39.4928367 69.9626009 35 64.0393692 41.4985673 56.899035 54.0945559 56.6556145 63 63.6336684 60.7535817 66.7169945 58.5873926 69.8003206 56.3409742 72.8025065 54.0143266 75.8046925 51.6876791 78.8880186 48.8796562 82.5393258z"/>
    </g>
  </g>
</svg>
