<svg width="192" height="192" version="1.1" viewBox="0 0 192 192" xmlns="http://www.w3.org/2000/svg">
 <path d="m96.099 8.3955c-48.054-0.098876-86.912 38.562-87.703 85.924-0.88989 47.955 38.364 88.297 86.813 89.285 46.472 0.98877 95.91-42.022 87.604-100.16-5.4382-37.771-40.045-75.838-86.715-75.047z" style="fill:#72dc98"/>
 <path d="m95.592 58c-18.887-0.056028-36.874 6.4608-48.592 17.342 2.846 3.8859 5.6922 7.6914 8.6172 11.658 26.8-18.053 53.124-17.891 79.607 0 3.0041-4.1288 5.9294-8.0965 8.7754-11.982-14.378-11.802-31.743-16.968-48.408-17.018zm0.20703 29c-12.056-0.019793-24.212 3.6028-31.799 10.887 3.0189 3.9587 6.0384 7.9963 9.1367 12.113 14.856-9.7384 29.713-9.7384 44.648 0 3.0984-3.9587 6.037-7.839 9.2148-12.035-7.1898-7.284-19.145-10.945-31.201-10.965zm-0.70117 29.002c-5.0745 0.08114-9.8484 1.9279-13.098 5.498 4.4928 5.9232 13.879 18.5 13.879 18.5s9.4572-12.298 14.121-18.906c-4.4527-3.489-9.8278-5.1729-14.902-5.0918z" style="fill:#fff"/>
</svg>
