<svg xmlns="http://www.w3.org/2000/svg" xmlns:xlink="http://www.w3.org/1999/xlink" width="192" height="192" viewBox="0 0 192 192">
  <defs>
    <path id="phone_alt_eight-a" d="M24.180684,28.5005442 C33.7598495,13.749923 43.7741813,23.3307812 58.5248025,32.9099466 C73.2754238,42.489112 87.1765741,48.4391496 77.5974087,63.1897708 C71.5467318,72.5069962 61.4487788,77.6116458 51.1131792,77.6939578 C56.5161136,91.0020525 68.1336688,104.695356 85.2688698,114.588369 C104.149352,125.489021 123.67612,128.281349 138.536118,124.958296 C131.229892,114.626949 130.518796,100.47211 137.829946,89.2139264 C147.409112,74.4633052 157.423443,84.0441633 172.174065,93.6233288 L172.616306,93.9096274 C187.200361,103.322375 200.730045,109.300038 191.246671,123.903153 C190.556193,124.966396 189.81301,125.974781 189.022782,126.927104 L189.028058,126.92955 C168.587526,162.333589 114.783733,169.537481 68.853922,143.019893 C22.9241111,116.502304 2.26096782,66.304906 22.7014998,30.9008662 L22.7497833,30.9294634 C23.1869878,30.1069282 23.6637864,29.2964968 24.180684,28.5005442 Z"/>
    <path id="phone_alt_eight-c" d="M138.815247,129.849479 C135.287363,110.17704 160.181332,103.238544 160.181332,100.289474 C160.181332,97.3404032 159.150264,93 147,93 C134.849736,93 125,102.849736 125,115 C125,127.150264 142.343132,149.521918 138.815247,129.849479 Z"/>
    <circle id="phone_alt_eight-d" cx="56" cy="30" r="25"/>
  </defs>
  <g fill="none" fill-rule="evenodd" transform="translate(-4 11)">
    <mask id="phone_alt_eight-b" fill="#fff">
      <use xlink:href="#phone_alt_eight-a"/>
    </mask>
    <use fill="#728DBE" fill-rule="nonzero" transform="rotate(15 104.61 89.95)" xlink:href="#phone_alt_eight-a"/>
    <path fill="#9ABEFF" d="M38.8634294,49.235365 C38.8634294,49.235365 16.196826,93.5436374 56.4503303,131.428737 C96.7038346,169.313837 51.140158,168.654282 48.0072688,165.948605 C44.8743796,163.242928 -3.4043428,116.506291 -3.4043428,104.225815 C-3.4043428,91.9453393 11.7354568,24.1422714 11.7354568,24.1422714 L26.4405493,17.2169373 L43.900036,19.2387001 L38.8634294,49.235365 Z" mask="url(#phone_alt_eight-b)"/>
    <g mask="url(#phone_alt_eight-b)">
      <use fill="#D8D8D8" xlink:href="#phone_alt_eight-c"/>
      <use fill="#9ABEFF" xlink:href="#phone_alt_eight-c"/>
    </g>
    <g mask="url(#phone_alt_eight-b)">
      <use fill="#D8D8D8" xlink:href="#phone_alt_eight-d"/>
      <use fill="#9ABEFF" xlink:href="#phone_alt_eight-d"/>
    </g>
    <path fill="#9ABEFF" d="M137.547078,137.92856 C137.547078,137.92856 130.563726,140.413691 120.69037,137.203502 C110.817015,133.993312 95.5515569,124.972093 88.1949392,116.891874 C80.8383215,108.811654 87.9949966,104.393875 88.0949679,104.393875 C88.1949392,104.393875 115.044372,107.262893 115.044372,107.262893 L134.856144,126.958824 L137.547078,137.92856 Z" mask="url(#phone_alt_eight-b)"/>
  </g>
</svg>
