<svg width="192" height="192" fill="none" version="1.1" viewBox="0 0 192 192" xmlns="http://www.w3.org/2000/svg">
 <path d="m81.444 68.11c-8.2562 7.4339-19.332 9.751-29.337 7.1551 1.7757 14.254 9.4533 30.487 23.444 44.478 15.416 15.416 33.554 23.167 48.768 23.803-4.383-11.869-1.407-25.727 8.57-34.709 11.535-10.387 18.493-2.379 28.059 8.631 1.273 1.464 2.591 2.982 3.973 4.517 1.373 1.524 2.746 2.997 4.082 4.43 10.12 10.853 18.051 19.358 6.504 29.754-0.942 0.849-1.921 1.63-2.93 2.345l4e-3 4e-3c-28.908 28.908-82.742 21.941-120.24-15.561-37.502-37.501-44.469-91.336-15.561-120.24l0.0397 0.0397c0.6351-0.6812 1.3052-1.3405 2.0104-1.9754 11.536-10.387 18.494-2.3788 28.059 8.6307 1.2726 1.4648 2.5914 2.9826 3.9733 4.5174 1.3722 1.524 2.7461 2.9973 4.0818 4.4298 10.12 10.853 18.05 19.358 6.5039 29.755z" style="clip-rule:evenodd;fill-rule:evenodd;fill:#728dbe"/>
 <path d="m31.172 29.229c-22.155 29.949-13.678 78.887 21.164 113.73 2.2705 2.2705 4.6033 4.4233 6.9844 6.4688-1.9447-2.1732-4.2151-4.4982-6.8691-6.9961-40.254-37.886-17.588-82.195-17.588-82.195l5.0371-29.996-8.7285-1.0098z" style="clip-rule:evenodd;fill-rule:evenodd;fill:#9abeff"/>
 <path d="m142.58 104.02c-2.93 0.12292-6.0887 1.5724-9.6934 4.8184-7.1081 6.3992-10.642 15.272-10.514 24.139 4.0235 11.673 15.355 24.132 12.439 7.873-3.3241-18.535 18.575-25.764 21.119-29.006-4.4728-4.7505-8.615-8.0229-13.352-7.8242z" style="clip-rule:evenodd;fill-rule:evenodd;fill:#9abeff"/>
 <path d="m50.357 16.061c-2.5466 0.16529-4.9873 0.71067-7.2695 1.582-1.3548 0.76135-2.7692 1.7909-4.2617 3.1348-0.7052 0.6349-1.3766 1.2954-2.0117 1.9766l-0.039062-0.041015c-3.426 3.426-6.3405 7.2061-8.7676 11.264-0.65159 2.2291-1.0078 4.5838-1.0078 7.0234 0 13.807 11.193 25 25 25s25-11.193 25-25c0-0.14143-0.009379-0.281-0.011719-0.42188-0.6809-0.73804-1.3406-1.4631-2.0488-2.2227-1.3357-1.4325-2.7098-2.9057-4.082-4.4297-1.3819-1.5348-2.7001-3.0528-3.9727-4.5176-5.9414-6.8381-10.876-12.514-16.527-13.348z" style="clip-rule:evenodd;fill-rule:evenodd;fill:#9abeff"/>
 <path d="m82.955 126.38c0.35813 0.48797 0.76839 0.99146 1.2402 1.5098 7.3566 8.08 22.621 17.101 32.494 20.311 9.874 3.21 16.857 0.72461 16.857 0.72461l-2.6914-10.969-8.3711-8.3223c-0.42134 4.6741 0.18089 9.4336 1.834 13.91-12.839-0.53671-27.753-6.1634-41.363-17.164z" style="clip-rule:evenodd;fill-rule:evenodd;fill:#9abeff"/>
</svg>
