<?xml version="1.0" encoding="UTF-8" standalone="no"?>
<svg
   xmlns:dc="http://purl.org/dc/elements/1.1/"
   xmlns:cc="http://creativecommons.org/ns#"
   xmlns:rdf="http://www.w3.org/1999/02/22-rdf-syntax-ns#"
   xmlns:svg="http://www.w3.org/2000/svg"
   xmlns="http://www.w3.org/2000/svg"
   xmlns:sodipodi="http://sodipodi.sourceforge.net/DTD/sodipodi-0.dtd"
   xmlns:inkscape="http://www.inkscape.org/namespaces/inkscape"
   width="192"
   height="192"
   viewBox="0 0 192 192"
   version="1.1"
   id="svg861"
   sodipodi:docname="libreoffice-base.svg"
   inkscape:version="0.92.4 (f8dce91, 2019-08-02)">
  <metadata
     id="metadata867">
    <rdf:RDF>
      <cc:Work
         rdf:about="">
        <dc:format>image/svg+xml</dc:format>
        <dc:type
           rdf:resource="http://purl.org/dc/dcmitype/StillImage" />
        <dc:title></dc:title>
      </cc:Work>
    </rdf:RDF>
  </metadata>
  <defs
     id="defs865" />
  <sodipodi:namedview
     pagecolor="#ffffff"
     bordercolor="#666666"
     borderopacity="1"
     objecttolerance="10"
     gridtolerance="10"
     guidetolerance="10"
     inkscape:pageopacity="0"
     inkscape:pageshadow="2"
     inkscape:window-width="1920"
     inkscape:window-height="1004"
     id="namedview863"
     showgrid="false"
     inkscape:zoom="1.4897119"
     inkscape:cx="135.84741"
     inkscape:cy="76.315615"
     inkscape:window-x="0"
     inkscape:window-y="0"
     inkscape:window-maximized="1"
     inkscape:current-layer="svg861" />
  <path
     style="fill:#8c72bd;fill-opacity:1"
     inkscape:connector-curvature="0"
     id="path855"
     d="m 158.67898,74.011465 c 0,31.620385 0,63.160515 0,94.780895 0,0 -0.0802,0.0803 -0.0802,0.0803 -0.32102,1.28408 -1.20383,2.16688 -2.40765,2.56815 -0.16051,0.0803 -0.32102,0.16051 -0.48153,0.24077 -39.80637,0 -79.612735,0 -119.419104,0 -0.16051,-0.0803 -0.321019,-0.16051 -0.481529,-0.24077 -1.284126,-0.40132 -2.086674,-1.28412 -2.487948,-2.5682 -0.08026,-0.16051 -0.160509,-0.32102 -0.240764,-0.48153 C 33,119.99745 33,71.603822 33,23.210191 c 0.08026,-0.16051 0.240764,-0.401274 0.321019,-0.561783 0.481529,-1.284077 1.364331,-2.086625 2.728662,-2.407644 0.08026,0 0.16051,-0.08025 0.240765,-0.08025 22.712102,0 45.504458,0 68.216564,0 0.16051,0.08025 0.40127,0.160509 0.56178,0.160509 0.72229,0.240764 1.28408,0.722293 1.84586,1.284076 16.69299,16.692994 33.38599,33.385988 50.07898,50.078981 0.80255,0.642039 1.44459,1.364332 1.68535,2.327389 z m -7.38344,90.126115 c 0,-0.24077 0,-0.48153 0,-0.64204 0,-28.81146 0,-57.62293 0,-86.434394 0,-0.481528 -0.16051,-0.802547 -0.48153,-1.123566 -15.89044,-15.890446 -31.86114,-31.861147 -47.75159,-47.751593 -0.40127,-0.401274 -0.8828,-0.642038 -1.44459,-0.642038 -20.06369,0 -40.047129,0 -60.110824,0 -0.160509,0 -0.321019,0 -0.481528,0 -0.16051,0 -0.240765,0.08025 -0.401274,0.08025 0,45.504458 0,91.008916 0,136.513376 36.917197,0 73.754136,0 110.671336,0 z M 122.88535,20.080255 c 10.91465,0 21.90955,0 32.8242,0 0.0803,0.08025 0.24077,0.08025 0.32102,0.160509 1.04332,0.321019 1.84586,0.963058 2.40765,1.926115 0.16051,0.240764 0.24076,0.561783 0.32102,0.802548 0,11.075159 0,22.230573 0,33.305732 -0.0803,0.240765 -0.16051,0.561784 -0.32102,0.802548 -1.04332,2.086624 -3.85223,2.728662 -5.69809,1.203822 -0.24077,-0.240765 -0.48153,-0.481529 -0.7223,-0.722293 -10.27261,-10.272612 -20.46496,-20.545223 -30.73758,-30.73758 -0.16051,-0.16051 -0.32101,-0.321019 -0.56178,-0.561783 -1.84586,-2.086625 -0.8828,-5.37707 1.84586,-6.099363 0.0803,0 0.24076,0 0.32102,-0.08025 z" />
  <path
     style="fill:#bd9aff;fill-opacity:1"
     inkscape:connector-curvature="0"
     id="path857"
     d="m 151.29554,164.13758 c -36.9172,0 -73.754139,0 -110.671336,0 0,-45.50446 0,-91.008918 0,-136.513376 0.160509,0 0.240764,-0.08025 0.401274,-0.08025 0.160509,0 0.321019,0 0.481528,0 20.063695,0 40.047134,0 60.110824,0 0.64204,0 1.04332,0.160509 1.44459,0.642038 15.89045,15.890446 31.86115,31.861147 47.83185,47.751593 0.32102,0.321019 0.48153,0.642038 0.48153,1.123566 0,28.811464 0,57.622934 0,86.434394 -0.0803,0.16051 -0.0803,0.40127 -0.0803,0.64204 z" />
  <path
     id="path926"
     style="fill:#ffffff;fill-opacity:1;stroke:#ffffff;stroke-width:4.93513536;stroke-miterlimit:4;stroke-dasharray:none;stroke-opacity:1"
     d="m 95,62.670847 c -9.520338,0 -18.49408,1.222011 -25.270466,3.440477 -7.261544,2.377462 -11.261966,5.698932 -11.261966,9.354452 v 21.157702 21.159612 21.15769 c 0,3.65552 4.000422,6.977 11.261966,9.35445 6.776175,2.21847 15.750128,3.44048 25.270466,3.44048 9.52033,0 18.49583,-1.22201 25.27242,-3.44048 7.26134,-2.37745 11.26001,-5.69893 11.26001,-9.35445 v -21.15769 -21.157713 -0.0019 -21.157702 -0.0038 C 131.52943,71.8081 127.53107,68.487781 120.27242,66.111363 113.49583,63.892723 104.52033,62.670886 95,62.670886 Z m 0,2.737563 c 9.12479,0 17.6792,1.154659 24.08695,3.252401 5.8369,1.910908 9.18446,4.391669 9.18446,6.804965 0,2.413295 -3.34777,4.894053 -9.18446,6.804963 -4.00489,1.311282 -8.84836,2.252818 -14.14543,2.77556 -3.17841,0.313816 -6.519704,0.476841 -9.94152,0.476841 -9.124802,0 -17.6792,-1.154836 -24.086952,-3.252401 -5.836889,-1.91091 -9.184459,-4.391666 -9.184459,-6.804963 0,-2.413298 3.34757,-4.894229 9.184459,-6.804965 C 77.3208,66.562897 85.875198,65.40841 95,65.40841 Z M 61.730545,80.906708 c 0.002,0.0018 0.0058,0.004 0.0078,0.0057 2.282393,1.774874 5.114942,2.968094 7.991165,3.90972 6.776175,2.218465 15.752093,3.438578 25.272422,3.438578 3.272589,0 6.479348,-0.143926 9.556148,-0.423648 5.87351,-0.533872 11.26733,-1.55909 15.71431,-3.01493 2.82324,-0.924403 5.64651,-2.121219 7.9051,-3.845128 0.0279,-0.0214 0.0585,-0.04147 0.0861,-0.06269 0.003,-0.0025 0.005,-0.0052 0.008,-0.0076 l 0.002,15.71677 c 0,0.466371 -0.13108,0.932302 -0.34821,1.360233 -0.55305,1.09262 -1.57766,1.944515 -2.67612,2.663477 -8.2685,5.41178 -20.15817,6.03556 -30.247078,6.03556 -1.410372,0 -2.820841,-0.0289 -4.22935,-0.0855 -7.516346,-0.30024 -14.451034,-1.39864 -19.857602,-3.16881 -5.836888,-1.91092 -9.184459,-4.391841 -9.184459,-6.80497 z M 128.27337,102.0644 v 15.71869 c 0,0.29763 -0.0519,0.59289 -0.14672,0.87958 -0.003,0.009 -0.007,0.0178 -0.01,0.0266 -0.45246,1.33476 -1.70986,2.37262 -2.98715,3.19161 -1.51718,0.97278 -3.55122,1.89218 -6.0408,2.70716 -4.55712,1.49202 -10.2006,2.50558 -16.36184,2.96744 -0.16723,0.0124 -0.33644,0.0246 -0.5047,0.0361 -2.345314,0.16386 -4.761262,0.24887 -7.220414,0.24887 -9.124803,0 -17.67921,-1.15465 -24.086952,-3.2524 -5.836899,-1.9109 -9.184459,-4.39167 -9.184459,-6.80495 v -15.71673 c 0.003,0.002 0.0058,0.004 0.0078,0.006 0.03185,0.0247 0.06576,0.0476 0.09782,0.0722 2.260658,1.72252 5.06763,2.91089 7.893353,3.83563 6.776174,2.21847 15.750127,3.44048 25.270466,3.44048 1.27067,0 2.532113,-0.0235 3.779419,-0.0665 1.380977,-0.0477 2.746227,-0.11967 4.088507,-0.21848 0.0356,-0.003 0.0701,-0.007 0.10563,-0.01 4.07858,-0.30493 7.95187,-0.84362 11.46933,-1.5958 4.25161,-0.90927 8.56973,-2.17647 12.16769,-4.33527 0.57831,-0.34687 1.1317,-0.72125 1.65496,-1.12466 0.002,-0.002 0.006,-0.004 0.008,-0.006 z m -66.544781,21.15771 c 0.003,0.002 0.0058,0.004 0.0078,0.006 0.03556,0.0274 0.0736,0.0562 0.109548,0.0835 2.26831,1.7267 5.050608,2.89894 7.883572,3.82613 6.776175,2.21846 15.752083,3.44048 25.272422,3.44048 1.230508,0 2.451512,-0.0224 3.66009,-0.0627 8.142869,-0.27171 15.709729,-1.44635 21.610379,-3.37779 2.17702,-0.71269 4.29415,-1.58061 6.211,-2.70906 0.58328,-0.34357 1.1424,-0.7154 1.67062,-1.11707 0.0361,-0.0275 0.076,-0.0558 0.1115,-0.0835 0.003,-0.002 0.006,-0.004 0.008,-0.006 v 15.71872 h -0.002 c 0,2.41346 -3.34777,4.89216 -9.18446,6.80306 -6.40795,2.09792 -14.96195,3.2543 -24.086955,3.2543 -9.125002,0 -17.678999,-1.15638 -24.086952,-3.2543 -5.836889,-1.9109 -9.184458,-4.38994 -9.184458,-6.80306 z"
     inkscape:connector-curvature="0" />
</svg>
